<?xml version="1.0" encoding="utf-8" standalone="no"?>
<!DOCTYPE svg PUBLIC "-//W3C//DTD SVG 1.1//EN"
  "http://www.w3.org/Graphics/SVG/1.1/DTD/svg11.dtd">
<!-- Created with matplotlib (https://matplotlib.org/) -->
<svg height="509.319pt" version="1.1" viewBox="0 0 744.7655 509.319" width="744.7655pt" xmlns="http://www.w3.org/2000/svg" xmlns:xlink="http://www.w3.org/1999/xlink">
 <defs>
  <style type="text/css">
*{stroke-linecap:butt;stroke-linejoin:round;white-space:pre;}
  </style>
 </defs>
 <g id="figure_1">
  <g id="patch_1">
   <path d="M 0 509.319 
L 744.7655 509.319 
L 744.7655 0 
L 0 0 
z
" style="fill:#ffffff;"/>
  </g>
  <g id="axes_1">
   <g id="patch_2">
    <path d="M 71.8375 461.854 
L 559.207148 461.854 
L 559.207148 7.2 
L 71.8375 7.2 
z
" style="fill:#ffffff;"/>
   </g>
   <g id="matplotlib.axis_1">
    <g id="xtick_1">
     <g id="text_1">
      <!-- 1038-276-1 -->
      <defs>
       <path d="M 37.25 0 
L 28.46875 0 
L 28.46875 56 
Q 25.296875 52.984375 20.140625 49.953125 
Q 14.984375 46.921875 10.890625 45.40625 
L 10.890625 53.90625 
Q 18.265625 57.375 23.78125 62.296875 
Q 29.296875 67.234375 31.59375 71.875 
L 37.25 71.875 
z
" id="ArialMT-49"/>
       <path d="M 4.15625 35.296875 
Q 4.15625 48 6.765625 55.734375 
Q 9.375 63.484375 14.515625 67.671875 
Q 19.671875 71.875 27.484375 71.875 
Q 33.25 71.875 37.59375 69.546875 
Q 41.9375 67.234375 44.765625 62.859375 
Q 47.609375 58.5 49.21875 52.21875 
Q 50.828125 45.953125 50.828125 35.296875 
Q 50.828125 22.703125 48.234375 14.96875 
Q 45.65625 7.234375 40.5 3 
Q 35.359375 -1.21875 27.484375 -1.21875 
Q 17.140625 -1.21875 11.234375 6.203125 
Q 4.15625 15.140625 4.15625 35.296875 
z
M 13.1875 35.296875 
Q 13.1875 17.671875 17.3125 11.828125 
Q 21.4375 6 27.484375 6 
Q 33.546875 6 37.671875 11.859375 
Q 41.796875 17.71875 41.796875 35.296875 
Q 41.796875 52.984375 37.671875 58.78125 
Q 33.546875 64.59375 27.390625 64.59375 
Q 21.34375 64.59375 17.71875 59.46875 
Q 13.1875 52.9375 13.1875 35.296875 
z
" id="ArialMT-48"/>
       <path d="M 4.203125 18.890625 
L 12.984375 20.0625 
Q 14.5 12.59375 18.140625 9.296875 
Q 21.78125 6 27 6 
Q 33.203125 6 37.46875 10.296875 
Q 41.75 14.59375 41.75 20.953125 
Q 41.75 27 37.796875 30.921875 
Q 33.84375 34.859375 27.734375 34.859375 
Q 25.25 34.859375 21.53125 33.890625 
L 22.515625 41.609375 
Q 23.390625 41.5 23.921875 41.5 
Q 29.546875 41.5 34.03125 44.421875 
Q 38.53125 47.359375 38.53125 53.46875 
Q 38.53125 58.296875 35.25 61.46875 
Q 31.984375 64.65625 26.8125 64.65625 
Q 21.6875 64.65625 18.265625 61.421875 
Q 14.84375 58.203125 13.875 51.765625 
L 5.078125 53.328125 
Q 6.6875 62.15625 12.390625 67.015625 
Q 18.109375 71.875 26.609375 71.875 
Q 32.46875 71.875 37.390625 69.359375 
Q 42.328125 66.84375 44.9375 62.5 
Q 47.5625 58.15625 47.5625 53.265625 
Q 47.5625 48.640625 45.0625 44.828125 
Q 42.578125 41.015625 37.703125 38.765625 
Q 44.046875 37.3125 47.5625 32.6875 
Q 51.078125 28.078125 51.078125 21.140625 
Q 51.078125 11.765625 44.234375 5.25 
Q 37.40625 -1.265625 26.953125 -1.265625 
Q 17.53125 -1.265625 11.296875 4.34375 
Q 5.078125 9.96875 4.203125 18.890625 
z
" id="ArialMT-51"/>
       <path d="M 17.671875 38.8125 
Q 12.203125 40.828125 9.5625 44.53125 
Q 6.9375 48.25 6.9375 53.421875 
Q 6.9375 61.234375 12.546875 66.546875 
Q 18.171875 71.875 27.484375 71.875 
Q 36.859375 71.875 42.578125 66.421875 
Q 48.296875 60.984375 48.296875 53.171875 
Q 48.296875 48.1875 45.671875 44.5 
Q 43.0625 40.828125 37.75 38.8125 
Q 44.34375 36.671875 47.78125 31.875 
Q 51.21875 27.09375 51.21875 20.453125 
Q 51.21875 11.28125 44.71875 5.03125 
Q 38.234375 -1.21875 27.640625 -1.21875 
Q 17.046875 -1.21875 10.546875 5.046875 
Q 4.046875 11.328125 4.046875 20.703125 
Q 4.046875 27.6875 7.59375 32.390625 
Q 11.140625 37.109375 17.671875 38.8125 
z
M 15.921875 53.71875 
Q 15.921875 48.640625 19.1875 45.40625 
Q 22.46875 42.1875 27.6875 42.1875 
Q 32.765625 42.1875 36.015625 45.375 
Q 39.265625 48.578125 39.265625 53.21875 
Q 39.265625 58.0625 35.90625 61.359375 
Q 32.5625 64.65625 27.59375 64.65625 
Q 22.5625 64.65625 19.234375 61.421875 
Q 15.921875 58.203125 15.921875 53.71875 
z
M 13.09375 20.65625 
Q 13.09375 16.890625 14.875 13.375 
Q 16.65625 9.859375 20.171875 7.921875 
Q 23.6875 6 27.734375 6 
Q 34.03125 6 38.125 10.046875 
Q 42.234375 14.109375 42.234375 20.359375 
Q 42.234375 26.703125 38.015625 30.859375 
Q 33.796875 35.015625 27.4375 35.015625 
Q 21.234375 35.015625 17.15625 30.90625 
Q 13.09375 26.8125 13.09375 20.65625 
z
" id="ArialMT-56"/>
       <path d="M 3.171875 21.484375 
L 3.171875 30.328125 
L 30.171875 30.328125 
L 30.171875 21.484375 
z
" id="ArialMT-45"/>
       <path d="M 50.34375 8.453125 
L 50.34375 0 
L 3.03125 0 
Q 2.9375 3.171875 4.046875 6.109375 
Q 5.859375 10.9375 9.828125 15.625 
Q 13.8125 20.3125 21.34375 26.46875 
Q 33.015625 36.03125 37.109375 41.625 
Q 41.21875 47.21875 41.21875 52.203125 
Q 41.21875 57.421875 37.46875 61 
Q 33.734375 64.59375 27.734375 64.59375 
Q 21.390625 64.59375 17.578125 60.78125 
Q 13.765625 56.984375 13.71875 50.25 
L 4.6875 51.171875 
Q 5.609375 61.28125 11.65625 66.578125 
Q 17.71875 71.875 27.9375 71.875 
Q 38.234375 71.875 44.234375 66.15625 
Q 50.25 60.453125 50.25 52 
Q 50.25 47.703125 48.484375 43.546875 
Q 46.734375 39.40625 42.65625 34.8125 
Q 38.578125 30.21875 29.109375 22.21875 
Q 21.1875 15.578125 18.9375 13.203125 
Q 16.703125 10.84375 15.234375 8.453125 
z
" id="ArialMT-50"/>
       <path d="M 4.734375 62.203125 
L 4.734375 70.65625 
L 51.078125 70.65625 
L 51.078125 63.8125 
Q 44.234375 56.546875 37.515625 44.484375 
Q 30.8125 32.421875 27.15625 19.671875 
Q 24.515625 10.6875 23.78125 0 
L 14.75 0 
Q 14.890625 8.453125 18.0625 20.40625 
Q 21.234375 32.375 27.171875 43.484375 
Q 33.109375 54.59375 39.796875 62.203125 
z
" id="ArialMT-55"/>
       <path d="M 49.75 54.046875 
L 41.015625 53.375 
Q 39.84375 58.546875 37.703125 60.890625 
Q 34.125 64.65625 28.90625 64.65625 
Q 24.703125 64.65625 21.53125 62.3125 
Q 17.390625 59.28125 14.984375 53.46875 
Q 12.59375 47.65625 12.5 36.921875 
Q 15.671875 41.75 20.265625 44.09375 
Q 24.859375 46.4375 29.890625 46.4375 
Q 38.671875 46.4375 44.84375 39.96875 
Q 51.03125 33.5 51.03125 23.25 
Q 51.03125 16.5 48.125 10.71875 
Q 45.21875 4.9375 40.140625 1.859375 
Q 35.0625 -1.21875 28.609375 -1.21875 
Q 17.625 -1.21875 10.6875 6.859375 
Q 3.765625 14.9375 3.765625 33.5 
Q 3.765625 54.25 11.421875 63.671875 
Q 18.109375 71.875 29.4375 71.875 
Q 37.890625 71.875 43.28125 67.140625 
Q 48.6875 62.40625 49.75 54.046875 
z
M 13.875 23.1875 
Q 13.875 18.65625 15.796875 14.5 
Q 17.71875 10.359375 21.1875 8.171875 
Q 24.65625 6 28.46875 6 
Q 34.03125 6 38.03125 10.484375 
Q 42.046875 14.984375 42.046875 22.703125 
Q 42.046875 30.125 38.078125 34.390625 
Q 34.125 38.671875 28.125 38.671875 
Q 22.171875 38.671875 18.015625 34.390625 
Q 13.875 30.125 13.875 23.1875 
z
" id="ArialMT-54"/>
      </defs>
      <g style="fill:#262626;" transform="translate(79.656965 480.3065)scale(0.16 -0.16)">
       <use xlink:href="#ArialMT-49"/>
       <use x="55.615234" xlink:href="#ArialMT-48"/>
       <use x="111.230469" xlink:href="#ArialMT-51"/>
       <use x="166.845703" xlink:href="#ArialMT-56"/>
       <use x="222.460938" xlink:href="#ArialMT-45"/>
       <use x="255.761719" xlink:href="#ArialMT-50"/>
       <use x="311.376953" xlink:href="#ArialMT-55"/>
       <use x="366.992188" xlink:href="#ArialMT-54"/>
       <use x="422.607422" xlink:href="#ArialMT-45"/>
       <use x="455.908203" xlink:href="#ArialMT-49"/>
      </g>
     </g>
    </g>
    <g id="xtick_2">
     <g id="text_2">
      <!-- 1935-230 -->
      <defs>
       <path d="M 5.46875 16.546875 
L 13.921875 17.328125 
Q 14.984375 11.375 18.015625 8.6875 
Q 21.046875 6 25.78125 6 
Q 29.828125 6 32.875 7.859375 
Q 35.9375 9.71875 37.890625 12.8125 
Q 39.84375 15.921875 41.15625 21.1875 
Q 42.484375 26.46875 42.484375 31.9375 
Q 42.484375 32.515625 42.4375 33.6875 
Q 39.796875 29.5 35.234375 26.875 
Q 30.671875 24.265625 25.34375 24.265625 
Q 16.453125 24.265625 10.296875 30.703125 
Q 4.15625 37.15625 4.15625 47.703125 
Q 4.15625 58.59375 10.578125 65.234375 
Q 17 71.875 26.65625 71.875 
Q 33.640625 71.875 39.421875 68.109375 
Q 45.21875 64.359375 48.21875 57.390625 
Q 51.21875 50.4375 51.21875 37.25 
Q 51.21875 23.53125 48.234375 15.40625 
Q 45.265625 7.28125 39.375 3.03125 
Q 33.5 -1.21875 25.59375 -1.21875 
Q 17.1875 -1.21875 11.859375 3.4375 
Q 6.546875 8.109375 5.46875 16.546875 
z
M 41.453125 48.140625 
Q 41.453125 55.71875 37.421875 60.15625 
Q 33.40625 64.59375 27.734375 64.59375 
Q 21.875 64.59375 17.53125 59.8125 
Q 13.1875 55.03125 13.1875 47.40625 
Q 13.1875 40.578125 17.3125 36.296875 
Q 21.4375 32.03125 27.484375 32.03125 
Q 33.59375 32.03125 37.515625 36.296875 
Q 41.453125 40.578125 41.453125 48.140625 
z
" id="ArialMT-57"/>
       <path d="M 4.15625 18.75 
L 13.375 19.53125 
Q 14.40625 12.796875 18.140625 9.390625 
Q 21.875 6 27.15625 6 
Q 33.5 6 37.890625 10.78125 
Q 42.28125 15.578125 42.28125 23.484375 
Q 42.28125 31 38.0625 35.34375 
Q 33.84375 39.703125 27 39.703125 
Q 22.75 39.703125 19.328125 37.765625 
Q 15.921875 35.84375 13.96875 32.765625 
L 5.71875 33.84375 
L 12.640625 70.609375 
L 48.25 70.609375 
L 48.25 62.203125 
L 19.671875 62.203125 
L 15.828125 42.96875 
Q 22.265625 47.46875 29.34375 47.46875 
Q 38.71875 47.46875 45.15625 40.96875 
Q 51.609375 34.46875 51.609375 24.265625 
Q 51.609375 14.546875 45.953125 7.46875 
Q 39.0625 -1.21875 27.15625 -1.21875 
Q 17.390625 -1.21875 11.203125 4.25 
Q 5.03125 9.71875 4.15625 18.75 
z
" id="ArialMT-53"/>
      </defs>
      <g style="fill:#262626;" transform="translate(184.243394 480.3065)scale(0.16 -0.16)">
       <use xlink:href="#ArialMT-49"/>
       <use x="55.615234" xlink:href="#ArialMT-57"/>
       <use x="111.230469" xlink:href="#ArialMT-51"/>
       <use x="166.845703" xlink:href="#ArialMT-53"/>
       <use x="222.460938" xlink:href="#ArialMT-45"/>
       <use x="255.761719" xlink:href="#ArialMT-50"/>
       <use x="311.376953" xlink:href="#ArialMT-51"/>
       <use x="366.992188" xlink:href="#ArialMT-48"/>
      </g>
     </g>
    </g>
    <g id="xtick_3">
     <g id="text_3">
      <!-- 1935-230-1 -->
      <g style="fill:#262626;" transform="translate(274.604824 480.3065)scale(0.16 -0.16)">
       <use xlink:href="#ArialMT-49"/>
       <use x="55.615234" xlink:href="#ArialMT-57"/>
       <use x="111.230469" xlink:href="#ArialMT-51"/>
       <use x="166.845703" xlink:href="#ArialMT-53"/>
       <use x="222.460938" xlink:href="#ArialMT-45"/>
       <use x="255.761719" xlink:href="#ArialMT-50"/>
       <use x="311.376953" xlink:href="#ArialMT-51"/>
       <use x="366.992188" xlink:href="#ArialMT-48"/>
       <use x="422.607422" xlink:href="#ArialMT-45"/>
       <use x="455.908203" xlink:href="#ArialMT-49"/>
      </g>
     </g>
    </g>
    <g id="xtick_4">
     <g id="text_4">
      <!-- 1946-230 -->
      <defs>
       <path d="M 32.328125 0 
L 32.328125 17.140625 
L 1.265625 17.140625 
L 1.265625 25.203125 
L 33.9375 71.578125 
L 41.109375 71.578125 
L 41.109375 25.203125 
L 50.78125 25.203125 
L 50.78125 17.140625 
L 41.109375 17.140625 
L 41.109375 0 
z
M 32.328125 25.203125 
L 32.328125 57.46875 
L 9.90625 25.203125 
z
" id="ArialMT-52"/>
      </defs>
      <g style="fill:#262626;" transform="translate(379.191254 480.3065)scale(0.16 -0.16)">
       <use xlink:href="#ArialMT-49"/>
       <use x="55.615234" xlink:href="#ArialMT-57"/>
       <use x="111.230469" xlink:href="#ArialMT-52"/>
       <use x="166.845703" xlink:href="#ArialMT-54"/>
       <use x="222.460938" xlink:href="#ArialMT-45"/>
       <use x="255.761719" xlink:href="#ArialMT-50"/>
       <use x="311.376953" xlink:href="#ArialMT-51"/>
       <use x="366.992188" xlink:href="#ArialMT-48"/>
      </g>
     </g>
    </g>
    <g id="xtick_5">
     <g id="text_5">
      <!-- 1947-211 -->
      <g style="fill:#262626;" transform="translate(476.673933 480.3065)scale(0.16 -0.16)">
       <use xlink:href="#ArialMT-49"/>
       <use x="55.615234" xlink:href="#ArialMT-57"/>
       <use x="111.230469" xlink:href="#ArialMT-52"/>
       <use x="166.845703" xlink:href="#ArialMT-55"/>
       <use x="222.460938" xlink:href="#ArialMT-45"/>
       <use x="255.761719" xlink:href="#ArialMT-50"/>
       <use x="311.376953" xlink:href="#ArialMT-49"/>
       <use x="366.882812" xlink:href="#ArialMT-49"/>
      </g>
     </g>
    </g>
    <g id="text_6">
     <!-- Counter id -->
     <defs>
      <path d="M 58.796875 25.09375 
L 68.265625 22.703125 
Q 65.28125 11.03125 57.546875 4.90625 
Q 49.8125 -1.21875 38.625 -1.21875 
Q 27.046875 -1.21875 19.796875 3.484375 
Q 12.546875 8.203125 8.765625 17.140625 
Q 4.984375 26.078125 4.984375 36.328125 
Q 4.984375 47.515625 9.25 55.828125 
Q 13.53125 64.15625 21.40625 68.46875 
Q 29.296875 72.796875 38.765625 72.796875 
Q 49.515625 72.796875 56.828125 67.328125 
Q 64.15625 61.859375 67.046875 51.953125 
L 57.71875 49.75 
Q 55.21875 57.5625 50.484375 61.125 
Q 45.75 64.703125 38.578125 64.703125 
Q 30.328125 64.703125 24.78125 60.734375 
Q 19.234375 56.78125 16.984375 50.109375 
Q 14.75 43.453125 14.75 36.375 
Q 14.75 27.25 17.40625 20.4375 
Q 20.0625 13.625 25.671875 10.25 
Q 31.296875 6.890625 37.84375 6.890625 
Q 45.796875 6.890625 51.3125 11.46875 
Q 56.84375 16.0625 58.796875 25.09375 
z
" id="ArialMT-67"/>
      <path d="M 3.328125 25.921875 
Q 3.328125 40.328125 11.328125 47.265625 
Q 18.015625 53.03125 27.640625 53.03125 
Q 38.328125 53.03125 45.109375 46.015625 
Q 51.90625 39.015625 51.90625 26.65625 
Q 51.90625 16.65625 48.90625 10.90625 
Q 45.90625 5.171875 40.15625 2 
Q 34.421875 -1.171875 27.640625 -1.171875 
Q 16.75 -1.171875 10.03125 5.8125 
Q 3.328125 12.796875 3.328125 25.921875 
z
M 12.359375 25.921875 
Q 12.359375 15.96875 16.703125 11.015625 
Q 21.046875 6.0625 27.640625 6.0625 
Q 34.1875 6.0625 38.53125 11.03125 
Q 42.875 16.015625 42.875 26.21875 
Q 42.875 35.84375 38.5 40.796875 
Q 34.125 45.75 27.640625 45.75 
Q 21.046875 45.75 16.703125 40.8125 
Q 12.359375 35.890625 12.359375 25.921875 
z
" id="ArialMT-111"/>
      <path d="M 40.578125 0 
L 40.578125 7.625 
Q 34.515625 -1.171875 24.125 -1.171875 
Q 19.53125 -1.171875 15.546875 0.578125 
Q 11.578125 2.34375 9.640625 5 
Q 7.71875 7.671875 6.9375 11.53125 
Q 6.390625 14.109375 6.390625 19.734375 
L 6.390625 51.859375 
L 15.1875 51.859375 
L 15.1875 23.09375 
Q 15.1875 16.21875 15.71875 13.8125 
Q 16.546875 10.359375 19.234375 8.375 
Q 21.921875 6.390625 25.875 6.390625 
Q 29.828125 6.390625 33.296875 8.421875 
Q 36.765625 10.453125 38.203125 13.9375 
Q 39.65625 17.4375 39.65625 24.078125 
L 39.65625 51.859375 
L 48.4375 51.859375 
L 48.4375 0 
z
" id="ArialMT-117"/>
      <path d="M 6.59375 0 
L 6.59375 51.859375 
L 14.5 51.859375 
L 14.5 44.484375 
Q 20.21875 53.03125 31 53.03125 
Q 35.6875 53.03125 39.625 51.34375 
Q 43.5625 49.65625 45.515625 46.921875 
Q 47.46875 44.1875 48.25 40.4375 
Q 48.734375 37.984375 48.734375 31.890625 
L 48.734375 0 
L 39.9375 0 
L 39.9375 31.546875 
Q 39.9375 36.921875 38.90625 39.578125 
Q 37.890625 42.234375 35.28125 43.8125 
Q 32.671875 45.40625 29.15625 45.40625 
Q 23.53125 45.40625 19.453125 41.84375 
Q 15.375 38.28125 15.375 28.328125 
L 15.375 0 
z
" id="ArialMT-110"/>
      <path d="M 25.78125 7.859375 
L 27.046875 0.09375 
Q 23.34375 -0.6875 20.40625 -0.6875 
Q 15.625 -0.6875 12.984375 0.828125 
Q 10.359375 2.34375 9.28125 4.8125 
Q 8.203125 7.28125 8.203125 15.1875 
L 8.203125 45.015625 
L 1.765625 45.015625 
L 1.765625 51.859375 
L 8.203125 51.859375 
L 8.203125 64.703125 
L 16.9375 69.96875 
L 16.9375 51.859375 
L 25.78125 51.859375 
L 25.78125 45.015625 
L 16.9375 45.015625 
L 16.9375 14.703125 
Q 16.9375 10.9375 17.40625 9.859375 
Q 17.875 8.796875 18.921875 8.15625 
Q 19.96875 7.515625 21.921875 7.515625 
Q 23.390625 7.515625 25.78125 7.859375 
z
" id="ArialMT-116"/>
      <path d="M 42.09375 16.703125 
L 51.171875 15.578125 
Q 49.03125 7.625 43.21875 3.21875 
Q 37.40625 -1.171875 28.375 -1.171875 
Q 17 -1.171875 10.328125 5.828125 
Q 3.65625 12.84375 3.65625 25.484375 
Q 3.65625 38.578125 10.390625 45.796875 
Q 17.140625 53.03125 27.875 53.03125 
Q 38.28125 53.03125 44.875 45.953125 
Q 51.46875 38.875 51.46875 26.03125 
Q 51.46875 25.25 51.421875 23.6875 
L 12.75 23.6875 
Q 13.234375 15.140625 17.578125 10.59375 
Q 21.921875 6.0625 28.421875 6.0625 
Q 33.25 6.0625 36.671875 8.59375 
Q 40.09375 11.140625 42.09375 16.703125 
z
M 13.234375 30.90625 
L 42.1875 30.90625 
Q 41.609375 37.453125 38.875 40.71875 
Q 34.671875 45.796875 27.984375 45.796875 
Q 21.921875 45.796875 17.796875 41.75 
Q 13.671875 37.703125 13.234375 30.90625 
z
" id="ArialMT-101"/>
      <path d="M 6.5 0 
L 6.5 51.859375 
L 14.40625 51.859375 
L 14.40625 44 
Q 17.4375 49.515625 20 51.265625 
Q 22.5625 53.03125 25.640625 53.03125 
Q 30.078125 53.03125 34.671875 50.203125 
L 31.640625 42.046875 
Q 28.421875 43.953125 25.203125 43.953125 
Q 22.3125 43.953125 20.015625 42.21875 
Q 17.71875 40.484375 16.75 37.40625 
Q 15.28125 32.71875 15.28125 27.15625 
L 15.28125 0 
z
" id="ArialMT-114"/>
      <path id="ArialMT-32"/>
      <path d="M 6.640625 61.46875 
L 6.640625 71.578125 
L 15.4375 71.578125 
L 15.4375 61.46875 
z
M 6.640625 0 
L 6.640625 51.859375 
L 15.4375 51.859375 
L 15.4375 0 
z
" id="ArialMT-105"/>
      <path d="M 40.234375 0 
L 40.234375 6.546875 
Q 35.296875 -1.171875 25.734375 -1.171875 
Q 19.53125 -1.171875 14.328125 2.25 
Q 9.125 5.671875 6.265625 11.796875 
Q 3.421875 17.921875 3.421875 25.875 
Q 3.421875 33.640625 6 39.96875 
Q 8.59375 46.296875 13.765625 49.65625 
Q 18.953125 53.03125 25.34375 53.03125 
Q 30.03125 53.03125 33.6875 51.046875 
Q 37.359375 49.078125 39.65625 45.90625 
L 39.65625 71.578125 
L 48.390625 71.578125 
L 48.390625 0 
z
M 12.453125 25.875 
Q 12.453125 15.921875 16.640625 10.984375 
Q 20.84375 6.0625 26.5625 6.0625 
Q 32.328125 6.0625 36.34375 10.765625 
Q 40.375 15.484375 40.375 25.140625 
Q 40.375 35.796875 36.265625 40.765625 
Q 32.171875 45.75 26.171875 45.75 
Q 20.3125 45.75 16.375 40.96875 
Q 12.453125 36.1875 12.453125 25.875 
z
" id="ArialMT-100"/>
     </defs>
     <g style="fill:#262626;" transform="translate(278.614824 498.939)scale(0.16 -0.16)">
      <use xlink:href="#ArialMT-67"/>
      <use x="72.216797" xlink:href="#ArialMT-111"/>
      <use x="127.832031" xlink:href="#ArialMT-117"/>
      <use x="183.447266" xlink:href="#ArialMT-110"/>
      <use x="239.0625" xlink:href="#ArialMT-116"/>
      <use x="266.845703" xlink:href="#ArialMT-101"/>
      <use x="322.460938" xlink:href="#ArialMT-114"/>
      <use x="355.761719" xlink:href="#ArialMT-32"/>
      <use x="383.544922" xlink:href="#ArialMT-105"/>
      <use x="405.761719" xlink:href="#ArialMT-100"/>
     </g>
    </g>
   </g>
   <g id="matplotlib.axis_2">
    <g id="ytick_1">
     <g id="text_7">
      <!-- −100 -->
      <defs>
       <path d="M 52.828125 31.203125 
L 5.5625 31.203125 
L 5.5625 39.40625 
L 52.828125 39.40625 
z
" id="ArialMT-8722"/>
      </defs>
      <g style="fill:#262626;" transform="translate(28.8 462.260835)scale(0.16 -0.16)">
       <use xlink:href="#ArialMT-8722"/>
       <use x="58.398438" xlink:href="#ArialMT-49"/>
       <use x="114.013672" xlink:href="#ArialMT-48"/>
       <use x="169.628906" xlink:href="#ArialMT-48"/>
      </g>
     </g>
    </g>
    <g id="ytick_2">
     <g id="text_8">
      <!-- 0 -->
      <g style="fill:#262626;" transform="translate(55.94 408.398337)scale(0.16 -0.16)">
       <use xlink:href="#ArialMT-48"/>
      </g>
     </g>
    </g>
    <g id="ytick_3">
     <g id="text_9">
      <!-- 100 -->
      <g style="fill:#262626;" transform="translate(38.145 354.535838)scale(0.16 -0.16)">
       <use xlink:href="#ArialMT-49"/>
       <use x="55.615234" xlink:href="#ArialMT-48"/>
       <use x="111.230469" xlink:href="#ArialMT-48"/>
      </g>
     </g>
    </g>
    <g id="ytick_4">
     <g id="text_10">
      <!-- 200 -->
      <g style="fill:#262626;" transform="translate(38.145 300.67334)scale(0.16 -0.16)">
       <use xlink:href="#ArialMT-50"/>
       <use x="55.615234" xlink:href="#ArialMT-48"/>
       <use x="111.230469" xlink:href="#ArialMT-48"/>
      </g>
     </g>
    </g>
    <g id="ytick_5">
     <g id="text_11">
      <!-- 300 -->
      <g style="fill:#262626;" transform="translate(38.145 246.810842)scale(0.16 -0.16)">
       <use xlink:href="#ArialMT-51"/>
       <use x="55.615234" xlink:href="#ArialMT-48"/>
       <use x="111.230469" xlink:href="#ArialMT-48"/>
      </g>
     </g>
    </g>
    <g id="ytick_6">
     <g id="text_12">
      <!-- 400 -->
      <g style="fill:#262626;" transform="translate(38.145 192.948343)scale(0.16 -0.16)">
       <use xlink:href="#ArialMT-52"/>
       <use x="55.615234" xlink:href="#ArialMT-48"/>
       <use x="111.230469" xlink:href="#ArialMT-48"/>
      </g>
     </g>
    </g>
    <g id="ytick_7">
     <g id="text_13">
      <!-- 500 -->
      <g style="fill:#262626;" transform="translate(38.145 139.085845)scale(0.16 -0.16)">
       <use xlink:href="#ArialMT-53"/>
       <use x="55.615234" xlink:href="#ArialMT-48"/>
       <use x="111.230469" xlink:href="#ArialMT-48"/>
      </g>
     </g>
    </g>
    <g id="ytick_8">
     <g id="text_14">
      <!-- 600 -->
      <g style="fill:#262626;" transform="translate(38.145 85.223346)scale(0.16 -0.16)">
       <use xlink:href="#ArialMT-54"/>
       <use x="55.615234" xlink:href="#ArialMT-48"/>
       <use x="111.230469" xlink:href="#ArialMT-48"/>
      </g>
     </g>
    </g>
    <g id="ytick_9">
     <g id="text_15">
      <!-- 700 -->
      <g style="fill:#262626;" transform="translate(38.145 31.360848)scale(0.16 -0.16)">
       <use xlink:href="#ArialMT-55"/>
       <use x="55.615234" xlink:href="#ArialMT-48"/>
       <use x="111.230469" xlink:href="#ArialMT-48"/>
      </g>
     </g>
    </g>
    <g id="text_16">
     <!-- Count [$h^{-1}$] -->
     <defs>
      <path d="M 6.78125 -19.875 
L 6.78125 71.578125 
L 26.171875 71.578125 
L 26.171875 64.3125 
L 15.578125 64.3125 
L 15.578125 -12.59375 
L 26.171875 -12.59375 
L 26.171875 -19.875 
z
" id="ArialMT-91"/>
      <path d="M 55.71875 33.015625 
L 49.3125 0 
L 40.28125 0 
L 46.6875 32.671875 
Q 47.125 34.96875 47.359375 36.71875 
Q 47.609375 38.484375 47.609375 39.5 
Q 47.609375 43.609375 45.015625 45.890625 
Q 42.4375 48.1875 37.796875 48.1875 
Q 30.5625 48.1875 25.265625 43.296875 
Q 19.96875 38.421875 18.40625 30.328125 
L 12.5 0 
L 3.515625 0 
L 18.3125 75.984375 
L 27.296875 75.984375 
L 21.484375 46.09375 
Q 24.90625 50.6875 30.21875 53.34375 
Q 35.546875 56 41.40625 56 
Q 48.640625 56 52.609375 52.09375 
Q 56.59375 48.1875 56.59375 41.109375 
Q 56.59375 39.359375 56.375 37.359375 
Q 56.15625 35.359375 55.71875 33.015625 
z
" id="DejaVuSans-Oblique-104"/>
      <path d="M 10.59375 35.5 
L 73.1875 35.5 
L 73.1875 27.203125 
L 10.59375 27.203125 
z
" id="DejaVuSans-8722"/>
      <path d="M 12.40625 8.296875 
L 28.515625 8.296875 
L 28.515625 63.921875 
L 10.984375 60.40625 
L 10.984375 69.390625 
L 28.421875 72.90625 
L 38.28125 72.90625 
L 38.28125 8.296875 
L 54.390625 8.296875 
L 54.390625 0 
L 12.40625 0 
z
" id="DejaVuSans-49"/>
      <path d="M 21.296875 -19.875 
L 1.90625 -19.875 
L 1.90625 -12.59375 
L 12.5 -12.59375 
L 12.5 64.3125 
L 1.90625 64.3125 
L 1.90625 71.578125 
L 21.296875 71.578125 
z
" id="ArialMT-93"/>
     </defs>
     <g style="fill:#262626;" transform="translate(21.6 276.687)rotate(-90)scale(0.16 -0.16)">
      <use transform="translate(0 0.684375)" xlink:href="#ArialMT-67"/>
      <use transform="translate(72.216797 0.684375)" xlink:href="#ArialMT-111"/>
      <use transform="translate(127.832031 0.684375)" xlink:href="#ArialMT-117"/>
      <use transform="translate(183.447266 0.684375)" xlink:href="#ArialMT-110"/>
      <use transform="translate(239.0625 0.684375)" xlink:href="#ArialMT-116"/>
      <use transform="translate(266.845703 0.684375)" xlink:href="#ArialMT-32"/>
      <use transform="translate(294.628906 0.684375)" xlink:href="#ArialMT-91"/>
      <use transform="translate(322.412109 0.684375)" xlink:href="#DejaVuSans-Oblique-104"/>
      <use transform="translate(393.238724 38.965625)scale(0.7)" xlink:href="#DejaVuSans-8722"/>
      <use transform="translate(451.891068 38.965625)scale(0.7)" xlink:href="#DejaVuSans-49"/>
      <use transform="translate(499.161576 0.684375)" xlink:href="#ArialMT-93"/>
     </g>
    </g>
   </g>
   <g id="PolyCollection_1">
    <defs>
     <path d="M 101.983758 -69.020157 
L 100.1756 -69.020157 
L 99.610576 -73.186145 
L 98.799971 -77.352132 
L 97.700275 -81.51812 
L 96.292063 -85.684107 
L 94.594174 -89.850094 
L 92.673569 -94.016082 
L 90.64626 -98.182069 
L 88.666364 -102.348057 
L 86.903647 -106.514044 
L 85.513836 -110.680031 
L 84.609065 -114.846019 
L 84.236563 -119.012006 
L 84.371611 -123.177993 
L 84.926485 -127.343981 
L 85.772321 -131.509968 
L 86.76719 -135.675956 
L 87.782637 -139.841943 
L 88.722392 -144.00793 
L 89.530225 -148.173918 
L 90.187454 -152.339905 
L 90.703341 -156.505893 
L 91.102658 -160.67188 
L 91.41436 -164.837867 
L 91.663728 -169.003855 
L 91.868661 -173.169842 
L 92.039273 -177.33583 
L 92.179259 -181.501817 
L 92.287544 -185.667804 
L 92.35931 -189.833792 
L 92.386335 -193.999779 
L 92.357171 -198.165767 
L 92.257971 -202.331754 
L 92.074485 -206.497741 
L 91.795253 -210.663729 
L 91.415371 -214.829716 
L 90.939808 -218.995703 
L 90.385264 -223.161691 
L 89.779896 -227.327678 
L 89.160919 -231.493666 
L 88.57066 -235.659653 
L 88.052032 -239.82564 
L 87.644343 -243.991628 
L 87.380058 -248.157615 
L 87.282659 -252.323603 
L 87.365451 -256.48959 
L 87.63102 -260.655577 
L 88.071219 -264.821565 
L 88.667699 -268.987552 
L 89.393181 -273.15354 
L 90.21358 -277.319527 
L 91.090891 -281.485514 
L 91.986516 -285.651502 
L 92.864537 -289.817489 
L 93.694443 -293.983477 
L 94.45298 -298.149464 
L 95.125008 -302.315451 
L 95.703452 -306.481439 
L 96.188517 -310.647426 
L 96.586371 -314.813413 
L 96.907434 -318.979401 
L 97.164461 -323.145388 
L 97.370625 -327.311376 
L 97.537875 -331.477363 
L 97.675867 -335.64335 
L 97.791654 -339.809338 
L 97.890121 -343.975325 
L 97.974921 -348.141313 
L 98.049496 -352.3073 
L 98.117778 -356.473287 
L 98.184306 -360.639275 
L 98.253778 -364.805262 
L 98.330254 -368.97125 
L 98.416371 -373.137237 
L 98.512853 -377.303224 
L 98.618485 -381.469212 
L 98.730522 -385.635199 
L 98.845397 -389.801186 
L 98.959556 -393.967174 
L 99.070255 -398.133161 
L 99.17617 -402.299149 
L 99.277746 -406.465136 
L 99.377164 -410.631123 
L 99.477921 -414.797111 
L 99.584037 -418.963098 
L 99.69905 -423.129086 
L 99.825024 -427.295073 
L 99.961831 -431.46106 
L 100.106923 -435.627048 
L 100.255662 -439.793035 
L 100.402126 -443.959023 
L 100.540173 -448.12501 
L 100.664489 -452.290997 
L 100.771359 -456.456985 
L 100.859034 -460.622972 
L 100.927676 -464.78896 
L 100.978965 -468.954947 
L 101.015548 -473.120934 
L 101.040459 -477.286922 
L 101.056656 -481.452909 
L 101.102702 -481.452909 
L 101.102702 -481.452909 
L 101.118899 -477.286922 
L 101.14381 -473.120934 
L 101.180392 -468.954947 
L 101.231682 -464.78896 
L 101.300323 -460.622972 
L 101.387999 -456.456985 
L 101.494869 -452.290997 
L 101.619185 -448.12501 
L 101.757232 -443.959023 
L 101.903696 -439.793035 
L 102.052434 -435.627048 
L 102.197527 -431.46106 
L 102.334334 -427.295073 
L 102.460308 -423.129086 
L 102.575321 -418.963098 
L 102.681436 -414.797111 
L 102.782193 -410.631123 
L 102.881612 -406.465136 
L 102.983188 -402.299149 
L 103.089103 -398.133161 
L 103.199801 -393.967174 
L 103.313961 -389.801186 
L 103.428835 -385.635199 
L 103.540872 -381.469212 
L 103.646505 -377.303224 
L 103.742987 -373.137237 
L 103.829103 -368.97125 
L 103.90558 -364.805262 
L 103.975051 -360.639275 
L 104.04158 -356.473287 
L 104.109862 -352.3073 
L 104.184437 -348.141313 
L 104.269236 -343.975325 
L 104.367703 -339.809338 
L 104.483491 -335.64335 
L 104.621483 -331.477363 
L 104.788733 -327.311376 
L 104.994897 -323.145388 
L 105.251924 -318.979401 
L 105.572986 -314.813413 
L 105.97084 -310.647426 
L 106.455906 -306.481439 
L 107.034349 -302.315451 
L 107.706377 -298.149464 
L 108.464914 -293.983477 
L 109.294821 -289.817489 
L 110.172842 -285.651502 
L 111.068467 -281.485514 
L 111.945777 -277.319527 
L 112.766176 -273.15354 
L 113.491659 -268.987552 
L 114.088138 -264.821565 
L 114.528337 -260.655577 
L 114.793907 -256.48959 
L 114.876699 -252.323603 
L 114.7793 -248.157615 
L 114.515015 -243.991628 
L 114.107326 -239.82564 
L 113.588697 -235.659653 
L 112.998438 -231.493666 
L 112.379461 -227.327678 
L 111.774094 -223.161691 
L 111.21955 -218.995703 
L 110.743987 -214.829716 
L 110.364104 -210.663729 
L 110.084873 -206.497741 
L 109.901387 -202.331754 
L 109.802186 -198.165767 
L 109.773023 -193.999779 
L 109.800047 -189.833792 
L 109.871814 -185.667804 
L 109.980099 -181.501817 
L 110.120085 -177.33583 
L 110.290697 -173.169842 
L 110.49563 -169.003855 
L 110.744998 -164.837867 
L 111.056699 -160.67188 
L 111.456017 -156.505893 
L 111.971903 -152.339905 
L 112.629133 -148.173918 
L 113.436966 -144.00793 
L 114.376721 -139.841943 
L 115.392168 -135.675956 
L 116.387037 -131.509968 
L 117.232873 -127.343981 
L 117.787747 -123.177993 
L 117.922794 -119.012006 
L 117.550293 -114.846019 
L 116.645522 -110.680031 
L 115.255711 -106.514044 
L 113.492994 -102.348057 
L 111.513098 -98.182069 
L 109.485789 -94.016082 
L 107.565184 -89.850094 
L 105.867295 -85.684107 
L 104.459083 -81.51812 
L 103.359387 -77.352132 
L 102.548782 -73.186145 
L 101.983758 -69.020157 
z
" id="madb83daca3" style="stroke:#373737;stroke-width:1.5;"/>
    </defs>
    <g clip-path="url(#pa592dd92c7)">
     <use style="fill:#2b8e70;stroke:#373737;stroke-width:1.5;" x="0" xlink:href="#madb83daca3" y="509.319"/>
    </g>
   </g>
   <g id="PolyCollection_2">
    <defs>
     <path d="M 141.441914 -68.131091 
L 138.696588 -68.131091 
L 138.009205 -71.82538 
L 137.083939 -75.519669 
L 135.890964 -79.213959 
L 134.419701 -82.908248 
L 132.687365 -86.602537 
L 130.745011 -90.296826 
L 128.678917 -93.991116 
L 126.60574 -97.685405 
L 124.661143 -101.379694 
L 122.983149 -105.073983 
L 121.692996 -108.768273 
L 120.877189 -112.462562 
L 120.574465 -116.156851 
L 120.770394 -119.85114 
L 121.400709 -123.54543 
L 122.362452 -127.239719 
L 123.530466 -130.934008 
L 124.775778 -134.628297 
L 125.982421 -138.322587 
L 127.059938 -142.016876 
L 127.950042 -145.711165 
L 128.627237 -149.405454 
L 129.094359 -153.099744 
L 129.374754 -156.794033 
L 129.503096 -160.488322 
L 129.516694 -164.182612 
L 129.448705 -167.876901 
L 129.323987 -171.57119 
L 129.157729 -175.265479 
L 128.956449 -178.959769 
L 128.72061 -182.654058 
L 128.448024 -186.348347 
L 128.137244 -190.042636 
L 127.790354 -193.736926 
L 127.414804 -197.431215 
L 127.024115 -201.125504 
L 126.637499 -204.819793 
L 126.278525 -208.514083 
L 125.973076 -212.208372 
L 125.74688 -215.902661 
L 125.622937 -219.59695 
L 125.619175 -223.29124 
L 125.746621 -226.985529 
L 126.008337 -230.679818 
L 126.399238 -234.374107 
L 126.906788 -238.068397 
L 127.512441 -241.762686 
L 128.193558 -245.456975 
L 128.925487 -249.151264 
L 129.683498 -252.845554 
L 130.444327 -256.539843 
L 131.187255 -260.234132 
L 131.89475 -263.928421 
L 132.552811 -267.622711 
L 133.151179 -271.317 
L 133.683527 -275.011289 
L 134.147605 -278.705578 
L 134.545242 -282.399868 
L 134.882034 -286.094157 
L 135.166603 -289.788446 
L 135.409417 -293.482735 
L 135.621342 -297.177025 
L 135.812211 -300.871314 
L 135.98972 -304.565603 
L 136.158908 -308.259892 
L 136.322284 -311.954182 
L 136.4805 -315.648471 
L 136.633314 -319.34276 
L 136.78052 -323.037049 
L 136.922607 -326.731339 
L 137.061 -330.425628 
L 137.197902 -334.119917 
L 137.335858 -337.814206 
L 137.477202 -341.508496 
L 137.623558 -345.202785 
L 137.775505 -348.897074 
L 137.932442 -352.591363 
L 138.092667 -356.285653 
L 138.253647 -359.979942 
L 138.412408 -363.674231 
L 138.566008 -367.36852 
L 138.71198 -371.06281 
L 138.848696 -374.757099 
L 138.975537 -378.451388 
L 139.092855 -382.145678 
L 139.201723 -385.839967 
L 139.303547 -389.534256 
L 139.39963 -393.228545 
L 139.49082 -396.922835 
L 139.57731 -400.617124 
L 139.658642 -404.311413 
L 139.73388 -408.005702 
L 139.801897 -411.699992 
L 139.861681 -415.394281 
L 139.912585 -419.08857 
L 139.954467 -422.782859 
L 139.987711 -426.477149 
L 140.013142 -430.171438 
L 140.03188 -433.865727 
L 140.106622 -433.865727 
L 140.106622 -433.865727 
L 140.12536 -430.171438 
L 140.150791 -426.477149 
L 140.184035 -422.782859 
L 140.225917 -419.08857 
L 140.276821 -415.394281 
L 140.336604 -411.699992 
L 140.404621 -408.005702 
L 140.479859 -404.311413 
L 140.561191 -400.617124 
L 140.647682 -396.922835 
L 140.738871 -393.228545 
L 140.834955 -389.534256 
L 140.936778 -385.839967 
L 141.045647 -382.145678 
L 141.162964 -378.451388 
L 141.289805 -374.757099 
L 141.426521 -371.06281 
L 141.572494 -367.36852 
L 141.726093 -363.674231 
L 141.884855 -359.979942 
L 142.045835 -356.285653 
L 142.20606 -352.591363 
L 142.362996 -348.897074 
L 142.514943 -345.202785 
L 142.6613 -341.508496 
L 142.802643 -337.814206 
L 142.940599 -334.119917 
L 143.077502 -330.425628 
L 143.215895 -326.731339 
L 143.357981 -323.037049 
L 143.505187 -319.34276 
L 143.658001 -315.648471 
L 143.816218 -311.954182 
L 143.979593 -308.259892 
L 144.148781 -304.565603 
L 144.326291 -300.871314 
L 144.51716 -297.177025 
L 144.729085 -293.482735 
L 144.971898 -289.788446 
L 145.256467 -286.094157 
L 145.593259 -282.399868 
L 145.990896 -278.705578 
L 146.454974 -275.011289 
L 146.987322 -271.317 
L 147.585691 -267.622711 
L 148.243751 -263.928421 
L 148.951246 -260.234132 
L 149.694175 -256.539843 
L 150.455003 -252.845554 
L 151.213014 -249.151264 
L 151.944944 -245.456975 
L 152.62606 -241.762686 
L 153.231713 -238.068397 
L 153.739263 -234.374107 
L 154.130164 -230.679818 
L 154.391881 -226.985529 
L 154.519326 -223.29124 
L 154.515564 -219.59695 
L 154.391622 -215.902661 
L 154.165425 -212.208372 
L 153.859976 -208.514083 
L 153.501002 -204.819793 
L 153.114386 -201.125504 
L 152.723698 -197.431215 
L 152.348148 -193.736926 
L 152.001258 -190.042636 
L 151.690477 -186.348347 
L 151.417892 -182.654058 
L 151.182053 -178.959769 
L 150.980772 -175.265479 
L 150.814514 -171.57119 
L 150.689796 -167.876901 
L 150.621807 -164.182612 
L 150.635406 -160.488322 
L 150.763747 -156.794033 
L 151.044142 -153.099744 
L 151.511265 -149.405454 
L 152.188459 -145.711165 
L 153.078564 -142.016876 
L 154.156081 -138.322587 
L 155.362724 -134.628297 
L 156.608036 -130.934008 
L 157.776049 -127.239719 
L 158.737793 -123.54543 
L 159.368107 -119.85114 
L 159.564037 -116.156851 
L 159.261312 -112.462562 
L 158.445506 -108.768273 
L 157.155353 -105.073983 
L 155.477358 -101.379694 
L 153.532762 -97.685405 
L 151.459585 -93.991116 
L 149.393491 -90.296826 
L 147.451137 -86.602537 
L 145.7188 -82.908248 
L 144.247538 -79.213959 
L 143.054563 -75.519669 
L 142.129296 -71.82538 
L 141.441914 -68.131091 
z
" id="mf31d97a5e5" style="stroke:#373737;stroke-width:1.5;"/>
    </defs>
    <g clip-path="url(#pa592dd92c7)">
     <use style="fill:#be631d;stroke:#373737;stroke-width:1.5;" x="0" xlink:href="#mf31d97a5e5" y="509.319"/>
    </g>
   </g>
   <g id="PolyCollection_3">
    <defs>
     <path d="M 199.269316 -80.917042 
L 197.837901 -80.917042 
L 197.354506 -83.977624 
L 196.647539 -87.038206 
L 195.677389 -90.098788 
L 194.430772 -93.15937 
L 192.935163 -96.219952 
L 191.267101 -99.280533 
L 189.54936 -102.341115 
L 187.93483 -105.401697 
L 186.579504 -108.462279 
L 185.611427 -111.522861 
L 185.104705 -114.583443 
L 185.066362 -117.644025 
L 185.43947 -120.704607 
L 186.120411 -123.765189 
L 186.983872 -126.825771 
L 187.90778 -129.886353 
L 188.792 -132.946935 
L 189.567921 -136.007517 
L 190.199425 -139.068098 
L 190.677867 -142.12868 
L 191.014283 -145.189262 
L 191.231479 -148.249844 
L 191.357573 -151.310426 
L 191.421558 -154.371008 
L 191.450734 -157.43159 
L 191.46943 -160.492172 
L 191.498382 -163.552754 
L 191.554176 -166.613336 
L 191.648517 -169.673918 
L 191.787365 -172.7345 
L 191.970291 -175.795082 
L 192.190464 -178.855663 
L 192.435518 -181.916245 
L 192.689312 -184.976827 
L 192.934317 -188.037409 
L 193.154206 -191.097991 
L 193.336219 -194.158573 
L 193.472921 -197.219155 
L 193.563088 -200.279737 
L 193.611569 -203.340319 
L 193.628152 -206.400901 
L 193.625683 -209.461483 
L 193.617844 -212.522065 
L 193.617107 -215.582646 
L 193.633262 -218.643228 
L 193.672718 -221.70381 
L 193.738503 -224.764392 
L 193.830737 -227.824974 
L 193.947344 -230.885556 
L 194.084815 -233.946138 
L 194.238959 -237.00672 
L 194.405614 -240.067302 
L 194.581262 -243.127884 
L 194.763452 -246.188466 
L 194.950916 -249.249048 
L 195.143303 -252.30963 
L 195.340557 -255.370211 
L 195.542129 -258.430793 
L 195.746264 -261.491375 
L 195.94965 -264.551957 
L 196.14756 -267.612539 
L 196.334494 -270.673121 
L 196.505103 -273.733703 
L 196.655136 -276.794285 
L 196.78213 -279.854867 
L 196.88568 -282.915449 
L 196.967268 -285.976031 
L 197.029717 -289.036613 
L 197.076457 -292.097195 
L 197.110802 -295.157776 
L 197.135423 -298.218358 
L 197.152157 -301.27894 
L 197.162169 -304.339522 
L 197.166353 -307.400104 
L 197.165794 -310.460686 
L 197.16209 -313.521268 
L 197.157438 -316.58185 
L 197.154468 -319.642432 
L 197.155967 -322.703014 
L 197.164591 -325.763596 
L 197.18268 -328.824178 
L 197.212183 -331.88476 
L 197.254644 -334.945341 
L 197.311178 -338.005923 
L 197.382371 -341.066505 
L 197.468092 -344.127087 
L 197.567237 -347.187669 
L 197.677508 -350.248251 
L 197.795348 -353.308833 
L 197.916118 -356.369415 
L 198.034569 -359.429997 
L 198.145514 -362.490579 
L 198.244565 -365.551161 
L 198.328726 -368.611743 
L 198.396693 -371.672324 
L 198.448809 -374.732906 
L 198.486722 -377.793488 
L 198.512869 -380.85407 
L 198.529957 -383.914652 
L 198.57726 -383.914652 
L 198.57726 -383.914652 
L 198.594348 -380.85407 
L 198.620495 -377.793488 
L 198.658408 -374.732906 
L 198.710524 -371.672324 
L 198.778491 -368.611743 
L 198.862652 -365.551161 
L 198.961703 -362.490579 
L 199.072648 -359.429997 
L 199.191099 -356.369415 
L 199.311869 -353.308833 
L 199.429709 -350.248251 
L 199.53998 -347.187669 
L 199.639125 -344.127087 
L 199.724846 -341.066505 
L 199.796039 -338.005923 
L 199.852573 -334.945341 
L 199.895034 -331.88476 
L 199.924537 -328.824178 
L 199.942626 -325.763596 
L 199.95125 -322.703014 
L 199.952749 -319.642432 
L 199.949779 -316.58185 
L 199.945127 -313.521268 
L 199.941423 -310.460686 
L 199.940864 -307.400104 
L 199.945048 -304.339522 
L 199.95506 -301.27894 
L 199.971794 -298.218358 
L 199.996415 -295.157776 
L 200.03076 -292.097195 
L 200.0775 -289.036613 
L 200.139949 -285.976031 
L 200.221537 -282.915449 
L 200.325087 -279.854867 
L 200.452081 -276.794285 
L 200.602114 -273.733703 
L 200.772723 -270.673121 
L 200.959657 -267.612539 
L 201.157567 -264.551957 
L 201.360953 -261.491375 
L 201.565088 -258.430793 
L 201.76666 -255.370211 
L 201.963915 -252.30963 
L 202.156301 -249.249048 
L 202.343766 -246.188466 
L 202.525955 -243.127884 
L 202.701603 -240.067302 
L 202.868258 -237.00672 
L 203.022403 -233.946138 
L 203.159873 -230.885556 
L 203.27648 -227.824974 
L 203.368714 -224.764392 
L 203.434499 -221.70381 
L 203.473956 -218.643228 
L 203.49011 -215.582646 
L 203.489373 -212.522065 
L 203.481534 -209.461483 
L 203.479065 -206.400901 
L 203.495648 -203.340319 
L 203.544129 -200.279737 
L 203.634296 -197.219155 
L 203.770998 -194.158573 
L 203.953011 -191.097991 
L 204.1729 -188.037409 
L 204.417905 -184.976827 
L 204.671699 -181.916245 
L 204.916753 -178.855663 
L 205.136926 -175.795082 
L 205.319853 -172.7345 
L 205.4587 -169.673918 
L 205.553041 -166.613336 
L 205.608835 -163.552754 
L 205.637787 -160.492172 
L 205.656483 -157.43159 
L 205.685659 -154.371008 
L 205.749645 -151.310426 
L 205.875738 -148.249844 
L 206.092934 -145.189262 
L 206.42935 -142.12868 
L 206.907792 -139.068098 
L 207.539296 -136.007517 
L 208.315217 -132.946935 
L 209.199437 -129.886353 
L 210.123345 -126.825771 
L 210.986806 -123.765189 
L 211.667747 -120.704607 
L 212.040855 -117.644025 
L 212.002512 -114.583443 
L 211.49579 -111.522861 
L 210.527713 -108.462279 
L 209.172387 -105.401697 
L 207.557857 -102.341115 
L 205.840116 -99.280533 
L 204.172054 -96.219952 
L 202.676445 -93.15937 
L 201.429828 -90.098788 
L 200.459678 -87.038206 
L 199.752711 -83.977624 
L 199.269316 -80.917042 
z
" id="m1e6b07f733" style="stroke:#373737;stroke-width:1.5;"/>
    </defs>
    <g clip-path="url(#pa592dd92c7)">
     <use style="fill:#2b8e70;stroke:#373737;stroke-width:1.5;" x="0" xlink:href="#m1e6b07f733" y="509.319"/>
    </g>
   </g>
   <g id="PolyCollection_4">
    <defs>
     <path d="M 238.895229 -84.083297 
L 236.191132 -84.083297 
L 235.273994 -86.889492 
L 233.950427 -89.695686 
L 232.173933 -92.50188 
L 229.963699 -95.308074 
L 227.427447 -98.114268 
L 224.764498 -100.920463 
L 222.24119 -103.726657 
L 220.140404 -106.532851 
L 218.698275 -109.339045 
L 218.048394 -112.145239 
L 218.192657 -114.951434 
L 219.008271 -117.757628 
L 220.286732 -120.563822 
L 221.789417 -123.370016 
L 223.300742 -126.17621 
L 224.664067 -128.982404 
L 225.794479 -131.788599 
L 226.671425 -134.594793 
L 227.319401 -137.400987 
L 227.785707 -140.207181 
L 228.12186 -143.013375 
L 228.371806 -145.81957 
L 228.567085 -148.625764 
L 228.727305 -151.431958 
L 228.863702 -154.238152 
L 228.98364 -157.044346 
L 229.094434 -159.850541 
L 229.205495 -162.656735 
L 229.328424 -165.462929 
L 229.475344 -168.269123 
L 229.65622 -171.075317 
L 229.876258 -173.881512 
L 230.134387 -176.687706 
L 230.423485 -179.4939 
L 230.73235 -182.300094 
L 231.048819 -185.106288 
L 231.363048 -187.912482 
L 231.66989 -190.718677 
L 231.969632 -193.524871 
L 232.266884 -196.331065 
L 232.568022 -199.137259 
L 232.878067 -201.943453 
L 233.198075 -204.749648 
L 233.523898 -207.555842 
L 233.846708 -210.362036 
L 234.155065 -213.16823 
L 234.437848 -215.974424 
L 234.687163 -218.780619 
L 234.900427 -221.586813 
L 235.081068 -224.393007 
L 235.237634 -227.199201 
L 235.381536 -230.005395 
L 235.524021 -232.81159 
L 235.6733 -235.617784 
L 235.832743 -238.423978 
L 236.000693 -241.230172 
L 236.171845 -244.036366 
L 236.339509 -246.84256 
L 236.497798 -249.648755 
L 236.642951 -252.454949 
L 236.773481 -255.261143 
L 236.889427 -258.067337 
L 236.991273 -260.873531 
L 237.079113 -263.679726 
L 237.152389 -266.48592 
L 237.21017 -269.292114 
L 237.251725 -272.098308 
L 237.277079 -274.904502 
L 237.287328 -277.710697 
L 237.284631 -280.516891 
L 237.271944 -283.323085 
L 237.252612 -286.129279 
L 237.229942 -288.935473 
L 237.206862 -291.741667 
L 237.1857 -294.547862 
L 237.168105 -297.354056 
L 237.155093 -300.16025 
L 237.147147 -302.966444 
L 237.144347 -305.772638 
L 237.146486 -308.578833 
L 237.153173 -311.385027 
L 237.163912 -314.191221 
L 237.17818 -316.997415 
L 237.195489 -319.803609 
L 237.215422 -322.609804 
L 237.237656 -325.415998 
L 237.261946 -328.222192 
L 237.288093 -331.028386 
L 237.315868 -333.83458 
L 237.344915 -336.640775 
L 237.37465 -339.446969 
L 237.404221 -342.253163 
L 237.432555 -345.059357 
L 237.458524 -347.865551 
L 237.481152 -350.671745 
L 237.499811 -353.47794 
L 237.514327 -356.284134 
L 237.524956 -359.090328 
L 237.532273 -361.896522 
L 237.554088 -361.896522 
L 237.554088 -361.896522 
L 237.561405 -359.090328 
L 237.572034 -356.284134 
L 237.58655 -353.47794 
L 237.605209 -350.671745 
L 237.627837 -347.865551 
L 237.653805 -345.059357 
L 237.68214 -342.253163 
L 237.711711 -339.446969 
L 237.741446 -336.640775 
L 237.770493 -333.83458 
L 237.798268 -331.028386 
L 237.824415 -328.222192 
L 237.848705 -325.415998 
L 237.870938 -322.609804 
L 237.890872 -319.803609 
L 237.908181 -316.997415 
L 237.922449 -314.191221 
L 237.933188 -311.385027 
L 237.939875 -308.578833 
L 237.942014 -305.772638 
L 237.939214 -302.966444 
L 237.931267 -300.16025 
L 237.918256 -297.354056 
L 237.900661 -294.547862 
L 237.879498 -291.741667 
L 237.856418 -288.935473 
L 237.833749 -286.129279 
L 237.814417 -283.323085 
L 237.80173 -280.516891 
L 237.799033 -277.710697 
L 237.809282 -274.904502 
L 237.834636 -272.098308 
L 237.876191 -269.292114 
L 237.933972 -266.48592 
L 238.007248 -263.679726 
L 238.095088 -260.873531 
L 238.196933 -258.067337 
L 238.31288 -255.261143 
L 238.44341 -252.454949 
L 238.588562 -249.648755 
L 238.746852 -246.84256 
L 238.914516 -244.036366 
L 239.085668 -241.230172 
L 239.253618 -238.423978 
L 239.41306 -235.617784 
L 239.56234 -232.81159 
L 239.704825 -230.005395 
L 239.848726 -227.199201 
L 240.005293 -224.393007 
L 240.185934 -221.586813 
L 240.399198 -218.780619 
L 240.648513 -215.974424 
L 240.931296 -213.16823 
L 241.239653 -210.362036 
L 241.562463 -207.555842 
L 241.888285 -204.749648 
L 242.208293 -201.943453 
L 242.518339 -199.137259 
L 242.819477 -196.331065 
L 243.116729 -193.524871 
L 243.416471 -190.718677 
L 243.723313 -187.912482 
L 244.037542 -185.106288 
L 244.354011 -182.300094 
L 244.662875 -179.4939 
L 244.951974 -176.687706 
L 245.210103 -173.881512 
L 245.430141 -171.075317 
L 245.611017 -168.269123 
L 245.757937 -165.462929 
L 245.880866 -162.656735 
L 245.991926 -159.850541 
L 246.102721 -157.044346 
L 246.222659 -154.238152 
L 246.359055 -151.431958 
L 246.519276 -148.625764 
L 246.714554 -145.81957 
L 246.964501 -143.013375 
L 247.300654 -140.207181 
L 247.76696 -137.400987 
L 248.414936 -134.594793 
L 249.291881 -131.788599 
L 250.422293 -128.982404 
L 251.785619 -126.17621 
L 253.296944 -123.370016 
L 254.799628 -120.563822 
L 256.078089 -117.757628 
L 256.893704 -114.951434 
L 257.037966 -112.145239 
L 256.388085 -109.339045 
L 254.945957 -106.532851 
L 252.845171 -103.726657 
L 250.321863 -100.920463 
L 247.658914 -98.114268 
L 245.122662 -95.308074 
L 242.912428 -92.50188 
L 241.135933 -89.695686 
L 239.812367 -86.889492 
L 238.895229 -84.083297 
z
" id="m6223ba76d4" style="stroke:#373737;stroke-width:1.5;"/>
    </defs>
    <g clip-path="url(#pa592dd92c7)">
     <use style="fill:#be631d;stroke:#373737;stroke-width:1.5;" x="0" xlink:href="#m6223ba76d4" y="509.319"/>
    </g>
   </g>
   <g id="PolyCollection_5">
    <defs>
     <path d="M 297.210347 -105.970889 
L 294.84473 -105.970889 
L 294.235562 -106.044393 
L 293.433664 -106.117897 
L 292.437837 -106.191402 
L 291.273453 -106.264906 
L 289.994584 -106.33841 
L 288.679089 -106.411914 
L 287.416534 -106.485419 
L 286.291551 -106.558923 
L 285.367423 -106.632427 
L 284.675208 -106.705932 
L 284.211935 -106.779436 
L 283.947983 -106.85294 
L 283.840165 -106.926444 
L 283.845065 -106.999949 
L 283.927862 -107.073453 
L 284.064637 -107.146957 
L 284.239658 -107.220462 
L 284.441165 -107.293966 
L 284.659002 -107.36747 
L 284.885279 -107.440974 
L 285.116711 -107.514479 
L 285.356022 -107.587983 
L 285.610524 -107.661487 
L 285.888028 -107.734992 
L 286.192218 -107.808496 
L 286.520094 -107.882 
L 286.862893 -107.955504 
L 287.209771 -108.029009 
L 287.551965 -108.102513 
L 287.885072 -108.176017 
L 288.208431 -108.249522 
L 288.522474 -108.323026 
L 288.82601 -108.39653 
L 289.115195 -108.470034 
L 289.384613 -108.543539 
L 289.6295 -108.617043 
L 289.847558 -108.690547 
L 290.039308 -108.764052 
L 290.207096 -108.837556 
L 290.353786 -108.91106 
L 290.482224 -108.984564 
L 290.59581 -109.058069 
L 290.69953 -109.131573 
L 290.800318 -109.205077 
L 290.906043 -109.278582 
L 291.023337 -109.352086 
L 291.15538 -109.42559 
L 291.300889 -109.499094 
L 291.454923 -109.572599 
L 291.611054 -109.646103 
L 291.763744 -109.719607 
L 291.909735 -109.793111 
L 292.048021 -109.866616 
L 292.178806 -109.94012 
L 292.302437 -110.013624 
L 292.419062 -110.087129 
L 292.529139 -110.160633 
L 292.634212 -110.234137 
L 292.737198 -110.307641 
L 292.841751 -110.381146 
L 292.950981 -110.45465 
L 293.066251 -110.528154 
L 293.186783 -110.601659 
L 293.3103 -110.675163 
L 293.434308 -110.748667 
L 293.557241 -110.822171 
L 293.678843 -110.895676 
L 293.799683 -110.96918 
L 293.920193 -111.042684 
L 294.039895 -111.116189 
L 294.157274 -111.189693 
L 294.270304 -111.263197 
L 294.377244 -111.336701 
L 294.477205 -111.410206 
L 294.570195 -111.48371 
L 294.656728 -111.557214 
L 294.737313 -111.630719 
L 294.812175 -111.704223 
L 294.881328 -111.777727 
L 294.944889 -111.851231 
L 295.003348 -111.924736 
L 295.057613 -111.99824 
L 295.108813 -112.071744 
L 295.158039 -112.145249 
L 295.206209 -112.218753 
L 295.254166 -112.292257 
L 295.302887 -112.365761 
L 295.353613 -112.439266 
L 295.407727 -112.51277 
L 295.466352 -112.586274 
L 295.529827 -112.659779 
L 295.59732 -112.733283 
L 295.666764 -112.806787 
L 295.735196 -112.880291 
L 295.799374 -112.953796 
L 295.856461 -113.0273 
L 295.904544 -113.100804 
L 295.942876 -113.174309 
L 295.971802 -113.247813 
L 296.083275 -113.247813 
L 296.083275 -113.247813 
L 296.1122 -113.174309 
L 296.150532 -113.100804 
L 296.198616 -113.0273 
L 296.255702 -112.953796 
L 296.319881 -112.880291 
L 296.388313 -112.806787 
L 296.457756 -112.733283 
L 296.525249 -112.659779 
L 296.588725 -112.586274 
L 296.647349 -112.51277 
L 296.701463 -112.439266 
L 296.752189 -112.365761 
L 296.80091 -112.292257 
L 296.848867 -112.218753 
L 296.897038 -112.145249 
L 296.946263 -112.071744 
L 296.997463 -111.99824 
L 297.051728 -111.924736 
L 297.110188 -111.851231 
L 297.173749 -111.777727 
L 297.242902 -111.704223 
L 297.317763 -111.630719 
L 297.398348 -111.557214 
L 297.484882 -111.48371 
L 297.577872 -111.410206 
L 297.677832 -111.336701 
L 297.784772 -111.263197 
L 297.897802 -111.189693 
L 298.015181 -111.116189 
L 298.134883 -111.042684 
L 298.255393 -110.96918 
L 298.376233 -110.895676 
L 298.497836 -110.822171 
L 298.620768 -110.748667 
L 298.744776 -110.675163 
L 298.868294 -110.601659 
L 298.988825 -110.528154 
L 299.104095 -110.45465 
L 299.213326 -110.381146 
L 299.317879 -110.307641 
L 299.420864 -110.234137 
L 299.525938 -110.160633 
L 299.636014 -110.087129 
L 299.75264 -110.013624 
L 299.87627 -109.94012 
L 300.007055 -109.866616 
L 300.145341 -109.793111 
L 300.291333 -109.719607 
L 300.444022 -109.646103 
L 300.600154 -109.572599 
L 300.754188 -109.499094 
L 300.899697 -109.42559 
L 301.03174 -109.352086 
L 301.149034 -109.278582 
L 301.254758 -109.205077 
L 301.355547 -109.131573 
L 301.459266 -109.058069 
L 301.572853 -108.984564 
L 301.70129 -108.91106 
L 301.84798 -108.837556 
L 302.015768 -108.764052 
L 302.207518 -108.690547 
L 302.425576 -108.617043 
L 302.670464 -108.543539 
L 302.939881 -108.470034 
L 303.229066 -108.39653 
L 303.532602 -108.323026 
L 303.846645 -108.249522 
L 304.170004 -108.176017 
L 304.503111 -108.102513 
L 304.845306 -108.029009 
L 305.192183 -107.955504 
L 305.534982 -107.882 
L 305.862859 -107.808496 
L 306.167048 -107.734992 
L 306.444552 -107.661487 
L 306.699054 -107.587983 
L 306.938366 -107.514479 
L 307.169797 -107.440974 
L 307.396074 -107.36747 
L 307.613911 -107.293966 
L 307.815418 -107.220462 
L 307.99044 -107.146957 
L 308.127215 -107.073453 
L 308.210011 -106.999949 
L 308.214912 -106.926444 
L 308.107093 -106.85294 
L 307.843142 -106.779436 
L 307.379868 -106.705932 
L 306.687653 -106.632427 
L 305.763525 -106.558923 
L 304.638542 -106.485419 
L 303.375988 -106.411914 
L 302.060492 -106.33841 
L 300.781624 -106.264906 
L 299.617239 -106.191402 
L 298.621412 -106.117897 
L 297.819515 -106.044393 
L 297.210347 -105.970889 
z
" id="me87404ef68" style="stroke:#373737;stroke-width:1.5;"/>
    </defs>
    <g clip-path="url(#pa592dd92c7)">
     <use style="fill:#2b8e70;stroke:#373737;stroke-width:1.5;" x="0" xlink:href="#me87404ef68" y="509.319"/>
    </g>
   </g>
   <g id="PolyCollection_6">
    <defs>
     <path d="M 337.384849 -106.031109 
L 332.649371 -106.031109 
L 331.327716 -106.103397 
L 329.572389 -106.175684 
L 327.403952 -106.247972 
L 324.925153 -106.32026 
L 322.323573 -106.392547 
L 319.8487 -106.464835 
L 317.764521 -106.537123 
L 316.289519 -106.609411 
L 315.54373 -106.681698 
L 315.522324 -106.753986 
L 316.105832 -106.826274 
L 317.102365 -106.898561 
L 318.304277 -106.970849 
L 319.537306 -107.043137 
L 320.686334 -107.115425 
L 321.69478 -107.187712 
L 322.546833 -107.26 
L 323.246946 -107.332288 
L 323.807481 -107.404575 
L 324.246747 -107.476863 
L 324.591886 -107.549151 
L 324.878896 -107.621439 
L 325.145882 -107.693726 
L 325.422043 -107.766014 
L 325.719023 -107.838302 
L 326.030379 -107.910589 
L 326.339892 -107.982877 
L 326.633804 -108.055165 
L 326.909723 -108.127453 
L 327.177298 -108.19974 
L 327.451121 -108.272028 
L 327.741093 -108.344316 
L 328.04667 -108.416603 
L 328.358445 -108.488891 
L 328.665599 -108.561179 
L 328.964041 -108.633467 
L 329.259928 -108.705754 
L 329.566361 -108.778042 
L 329.895422 -108.85033 
L 330.250352 -108.922617 
L 330.622277 -108.994905 
L 330.992924 -109.067193 
L 331.34132 -109.139481 
L 331.650608 -109.211768 
L 331.911797 -109.284056 
L 332.123555 -109.356344 
L 332.289585 -109.428631 
L 332.416023 -109.500919 
L 332.510477 -109.573207 
L 332.582605 -109.645495 
L 332.644735 -109.717782 
L 332.710997 -109.79007 
L 332.794554 -109.862358 
L 332.904017 -109.934646 
L 333.040906 -110.006933 
L 333.199594 -110.079221 
L 333.369871 -110.151509 
L 333.540868 -110.223796 
L 333.7045 -110.296084 
L 333.856999 -110.368372 
L 333.998253 -110.44066 
L 334.129758 -110.512947 
L 334.252473 -110.585235 
L 334.365634 -110.657523 
L 334.466843 -110.72981 
L 334.553038 -110.802098 
L 334.621683 -110.874386 
L 334.671585 -110.946674 
L 334.703163 -111.018961 
L 334.718295 -111.091249 
L 334.719969 -111.163537 
L 334.711902 -111.235824 
L 334.698125 -111.308112 
L 334.682478 -111.3804 
L 334.668055 -111.452688 
L 334.656747 -111.524975 
L 334.64909 -111.597263 
L 334.644545 -111.669551 
L 334.642128 -111.741838 
L 334.641089 -111.814126 
L 334.641337 -111.886414 
L 334.643403 -111.958702 
L 334.648027 -112.030989 
L 334.655643 -112.103277 
L 334.666098 -112.175565 
L 334.678781 -112.247852 
L 334.693062 -112.32014 
L 334.708773 -112.392428 
L 334.726414 -112.464716 
L 334.746954 -112.537003 
L 334.771298 -112.609291 
L 334.799706 -112.681579 
L 334.831451 -112.753866 
L 334.864865 -112.826154 
L 334.897743 -112.898442 
L 334.92791 -112.97073 
L 334.953722 -113.043017 
L 334.974341 -113.115305 
L 334.98974 -113.187593 
L 335.04448 -113.187593 
L 335.04448 -113.187593 
L 335.059879 -113.115305 
L 335.080498 -113.043017 
L 335.10631 -112.97073 
L 335.136477 -112.898442 
L 335.169355 -112.826154 
L 335.202769 -112.753866 
L 335.234514 -112.681579 
L 335.262922 -112.609291 
L 335.287266 -112.537003 
L 335.307806 -112.464716 
L 335.325447 -112.392428 
L 335.341158 -112.32014 
L 335.355439 -112.247852 
L 335.368122 -112.175565 
L 335.378577 -112.103277 
L 335.386193 -112.030989 
L 335.390817 -111.958702 
L 335.392883 -111.886414 
L 335.393131 -111.814126 
L 335.392092 -111.741838 
L 335.389675 -111.669551 
L 335.38513 -111.597263 
L 335.377473 -111.524975 
L 335.366165 -111.452688 
L 335.351742 -111.3804 
L 335.336095 -111.308112 
L 335.322318 -111.235824 
L 335.314251 -111.163537 
L 335.315925 -111.091249 
L 335.331057 -111.018961 
L 335.362635 -110.946674 
L 335.412537 -110.874386 
L 335.481182 -110.802098 
L 335.567377 -110.72981 
L 335.668586 -110.657523 
L 335.781747 -110.585235 
L 335.904462 -110.512947 
L 336.035967 -110.44066 
L 336.177221 -110.368372 
L 336.32972 -110.296084 
L 336.493352 -110.223796 
L 336.664349 -110.151509 
L 336.834626 -110.079221 
L 336.993314 -110.006933 
L 337.130203 -109.934646 
L 337.239666 -109.862358 
L 337.323223 -109.79007 
L 337.389486 -109.717782 
L 337.451616 -109.645495 
L 337.523743 -109.573207 
L 337.618197 -109.500919 
L 337.744635 -109.428631 
L 337.910665 -109.356344 
L 338.122423 -109.284056 
L 338.383612 -109.211768 
L 338.6929 -109.139481 
L 339.041296 -109.067193 
L 339.411943 -108.994905 
L 339.783868 -108.922617 
L 340.138798 -108.85033 
L 340.467859 -108.778042 
L 340.774292 -108.705754 
L 341.070179 -108.633467 
L 341.368621 -108.561179 
L 341.675775 -108.488891 
L 341.98755 -108.416603 
L 342.293127 -108.344316 
L 342.583099 -108.272028 
L 342.856922 -108.19974 
L 343.124497 -108.127453 
L 343.400416 -108.055165 
L 343.694328 -107.982877 
L 344.003841 -107.910589 
L 344.315197 -107.838302 
L 344.612177 -107.766014 
L 344.888338 -107.693726 
L 345.155324 -107.621439 
L 345.442334 -107.549151 
L 345.787474 -107.476863 
L 346.226739 -107.404575 
L 346.787274 -107.332288 
L 347.487387 -107.26 
L 348.33944 -107.187712 
L 349.347886 -107.115425 
L 350.496914 -107.043137 
L 351.729943 -106.970849 
L 352.931855 -106.898561 
L 353.928388 -106.826274 
L 354.511896 -106.753986 
L 354.49049 -106.681698 
L 353.744701 -106.609411 
L 352.269699 -106.537123 
L 350.18552 -106.464835 
L 347.710647 -106.392547 
L 345.109067 -106.32026 
L 342.630268 -106.247972 
L 340.461831 -106.175684 
L 338.706504 -106.103397 
L 337.384849 -106.031109 
z
" id="md65f016e97" style="stroke:#373737;stroke-width:1.5;"/>
    </defs>
    <g clip-path="url(#pa592dd92c7)">
     <use style="fill:#be631d;stroke:#373737;stroke-width:1.5;" x="0" xlink:href="#md65f016e97" y="509.319"/>
    </g>
   </g>
   <g id="PolyCollection_7">
    <defs>
     <path d="M 394.330464 -100.114091 
L 392.672472 -100.114091 
L 392.171597 -100.860861 
L 391.468696 -101.607631 
L 390.538982 -102.354402 
L 389.382096 -103.101172 
L 388.031386 -103.847943 
L 386.557596 -104.594713 
L 385.064206 -105.341483 
L 383.673871 -106.088254 
L 382.508384 -106.835024 
L 381.667061 -107.581794 
L 381.20929 -108.328565 
L 381.1458 -109.075335 
L 381.440355 -109.822106 
L 382.020417 -110.568876 
L 382.792944 -111.315646 
L 383.660875 -112.062417 
L 384.536658 -112.809187 
L 385.350981 -113.555958 
L 386.056565 -114.302728 
L 386.628021 -115.049498 
L 387.059164 -115.796269 
L 387.359024 -116.543039 
L 387.547391 -117.28981 
L 387.6504 -118.03658 
L 387.696433 -118.78335 
L 387.712581 -119.530121 
L 387.721882 -120.276891 
L 387.741566 -121.023662 
L 387.782433 -121.770432 
L 387.849301 -122.517202 
L 387.942273 -123.263973 
L 388.058354 -124.010743 
L 388.192977 -124.757513 
L 388.341069 -125.504284 
L 388.497588 -126.251054 
L 388.657672 -126.997825 
L 388.816678 -127.744595 
L 388.970327 -128.491365 
L 389.115048 -129.238136 
L 389.248404 -129.984906 
L 389.369428 -130.731677 
L 389.478701 -131.478447 
L 389.57815 -132.225217 
L 389.670633 -132.971988 
L 389.759465 -133.718758 
L 389.847983 -134.465529 
L 389.93923 -135.212299 
L 390.035711 -135.959069 
L 390.139216 -136.70584 
L 390.250669 -137.45261 
L 390.370063 -138.199381 
L 390.496512 -138.946151 
L 390.628455 -139.692921 
L 390.763964 -140.439692 
L 390.901062 -141.186462 
L 391.037929 -141.933232 
L 391.172949 -142.680003 
L 391.304599 -143.426773 
L 391.431295 -144.173544 
L 391.551301 -144.920314 
L 391.662804 -145.667084 
L 391.764143 -146.413855 
L 391.854126 -147.160625 
L 391.932337 -147.907396 
L 391.999331 -148.654166 
L 392.056678 -149.400936 
L 392.106837 -150.147707 
L 392.152907 -150.894477 
L 392.198255 -151.641248 
L 392.246074 -152.388018 
L 392.298918 -153.134788 
L 392.358285 -153.881559 
L 392.424345 -154.628329 
L 392.495885 -155.3751 
L 392.570518 -156.12187 
L 392.645125 -156.86864 
L 392.716435 -157.615411 
L 392.781642 -158.362181 
L 392.8389 -159.108952 
L 392.887637 -159.855722 
L 392.928603 -160.602492 
L 392.963676 -161.349263 
L 392.995458 -162.096033 
L 393.026753 -162.842803 
L 393.06002 -163.589574 
L 393.09692 -164.336344 
L 393.138039 -165.083115 
L 393.182837 -165.829885 
L 393.229835 -166.576655 
L 393.276959 -167.323426 
L 393.321984 -168.070196 
L 393.362935 -168.816967 
L 393.39839 -169.563737 
L 393.427622 -170.310507 
L 393.450583 -171.057278 
L 393.467774 -171.804048 
L 393.480046 -172.550819 
L 393.488401 -173.297589 
L 393.493826 -174.044359 
L 393.509109 -174.044359 
L 393.509109 -174.044359 
L 393.514534 -173.297589 
L 393.522889 -172.550819 
L 393.535161 -171.804048 
L 393.552352 -171.057278 
L 393.575314 -170.310507 
L 393.604546 -169.563737 
L 393.640001 -168.816967 
L 393.680951 -168.070196 
L 393.725976 -167.323426 
L 393.773101 -166.576655 
L 393.820098 -165.829885 
L 393.864897 -165.083115 
L 393.906015 -164.336344 
L 393.942916 -163.589574 
L 393.976183 -162.842803 
L 394.007477 -162.096033 
L 394.03926 -161.349263 
L 394.074332 -160.602492 
L 394.115298 -159.855722 
L 394.164035 -159.108952 
L 394.221294 -158.362181 
L 394.2865 -157.615411 
L 394.357811 -156.86864 
L 394.432417 -156.12187 
L 394.507051 -155.3751 
L 394.57859 -154.628329 
L 394.64465 -153.881559 
L 394.704017 -153.134788 
L 394.756861 -152.388018 
L 394.80468 -151.641248 
L 394.850028 -150.894477 
L 394.896099 -150.147707 
L 394.946258 -149.400936 
L 395.003604 -148.654166 
L 395.070599 -147.907396 
L 395.14881 -147.160625 
L 395.238793 -146.413855 
L 395.340131 -145.667084 
L 395.451635 -144.920314 
L 395.571641 -144.173544 
L 395.698336 -143.426773 
L 395.829987 -142.680003 
L 395.965007 -141.933232 
L 396.101874 -141.186462 
L 396.238971 -140.439692 
L 396.374481 -139.692921 
L 396.506424 -138.946151 
L 396.632873 -138.199381 
L 396.752266 -137.45261 
L 396.863719 -136.70584 
L 396.967224 -135.959069 
L 397.063706 -135.212299 
L 397.154952 -134.465529 
L 397.243471 -133.718758 
L 397.332302 -132.971988 
L 397.424786 -132.225217 
L 397.524235 -131.478447 
L 397.633508 -130.731677 
L 397.754531 -129.984906 
L 397.887888 -129.238136 
L 398.032608 -128.491365 
L 398.186257 -127.744595 
L 398.345263 -126.997825 
L 398.505348 -126.251054 
L 398.661867 -125.504284 
L 398.809958 -124.757513 
L 398.944581 -124.010743 
L 399.060663 -123.263973 
L 399.153634 -122.517202 
L 399.220503 -121.770432 
L 399.261369 -121.023662 
L 399.281054 -120.276891 
L 399.290354 -119.530121 
L 399.306502 -118.78335 
L 399.352536 -118.03658 
L 399.455545 -117.28981 
L 399.643912 -116.543039 
L 399.943772 -115.796269 
L 400.374914 -115.049498 
L 400.94637 -114.302728 
L 401.651955 -113.555958 
L 402.466278 -112.809187 
L 403.34206 -112.062417 
L 404.209991 -111.315646 
L 404.982519 -110.568876 
L 405.56258 -109.822106 
L 405.857136 -109.075335 
L 405.793645 -108.328565 
L 405.335875 -107.581794 
L 404.494551 -106.835024 
L 403.329065 -106.088254 
L 401.938729 -105.341483 
L 400.44534 -104.594713 
L 398.97155 -103.847943 
L 397.620839 -103.101172 
L 396.463954 -102.354402 
L 395.53424 -101.607631 
L 394.831339 -100.860861 
L 394.330464 -100.114091 
z
" id="m713a423957" style="stroke:#373737;stroke-width:1.5;"/>
    </defs>
    <g clip-path="url(#pa592dd92c7)">
     <use style="fill:#2b8e70;stroke:#373737;stroke-width:1.5;" x="0" xlink:href="#m713a423957" y="509.319"/>
    </g>
   </g>
   <g id="PolyCollection_8">
    <defs>
     <path d="M 433.865883 -101.723672 
L 431.116197 -101.723672 
L 430.119146 -102.394401 
L 428.671246 -103.065129 
L 426.741053 -103.735857 
L 424.386104 -104.406586 
L 421.767938 -105.077314 
L 419.132817 -105.748042 
L 416.757636 -106.418771 
L 414.878706 -107.089499 
L 413.632546 -107.760227 
L 413.03372 -108.430956 
L 412.996254 -109.101684 
L 413.383534 -109.772412 
L 414.060262 -110.443141 
L 414.924732 -111.113869 
L 415.914916 -111.784597 
L 416.996318 -112.455326 
L 418.145163 -113.126054 
L 419.336959 -113.796782 
L 420.543234 -114.467511 
L 421.733855 -115.138239 
L 422.880895 -115.808967 
L 423.961218 -116.479696 
L 424.956908 -117.150424 
L 425.854004 -117.821152 
L 426.640762 -118.491881 
L 427.306763 -119.162609 
L 427.84377 -119.833337 
L 428.248243 -120.504066 
L 428.524402 -121.174794 
L 428.686165 -121.845522 
L 428.756692 -122.516251 
L 428.765411 -123.186979 
L 428.743539 -123.857707 
L 428.719639 -124.528436 
L 428.716411 -125.199164 
L 428.749148 -125.869892 
L 428.825595 -126.540621 
L 428.946758 -127.211349 
L 429.10831 -127.882077 
L 429.302402 -128.552806 
L 429.519629 -129.223534 
L 429.750684 -129.894262 
L 429.987264 -130.564991 
L 430.22208 -131.235719 
L 430.448346 -131.906447 
L 430.659422 -132.577176 
L 430.849156 -133.247904 
L 431.012941 -133.918633 
L 431.148963 -134.589361 
L 431.258915 -135.260089 
L 431.347677 -135.930818 
L 431.421972 -136.601546 
L 431.488522 -137.272274 
L 431.552414 -137.943003 
L 431.616296 -138.613731 
L 431.680541 -139.284459 
L 431.744075 -139.955188 
L 431.805294 -140.625916 
L 431.862673 -141.296644 
L 431.915012 -141.967373 
L 431.961596 -142.638101 
L 432.002497 -143.308829 
L 432.038917 -143.979558 
L 432.073194 -144.650286 
L 432.108128 -145.321014 
L 432.145751 -145.991743 
L 432.186122 -146.662471 
L 432.226897 -147.333199 
L 432.264051 -148.003928 
L 432.293532 -148.674656 
L 432.31305 -149.345384 
L 432.323145 -150.016113 
L 432.327018 -150.686841 
L 432.329212 -151.357569 
L 432.333799 -152.028298 
L 432.34288 -152.699026 
L 432.35605 -153.369754 
L 432.370968 -154.040483 
L 432.384653 -154.711211 
L 432.394865 -155.381939 
L 432.400927 -156.052668 
L 432.403718 -156.723396 
L 432.404946 -157.394124 
L 432.406177 -158.064853 
L 432.4081 -158.735581 
L 432.410385 -159.406309 
L 432.412138 -160.077038 
L 432.41264 -160.747766 
L 432.411964 -161.418494 
L 432.411117 -162.089223 
L 432.41166 -162.759951 
L 432.415016 -163.430679 
L 432.42184 -164.101408 
L 432.431746 -164.772136 
L 432.443495 -165.442864 
L 432.455487 -166.113593 
L 432.466295 -166.784321 
L 432.475028 -167.455049 
L 432.481413 -168.125778 
L 432.500667 -168.125778 
L 432.500667 -168.125778 
L 432.507052 -167.455049 
L 432.515784 -166.784321 
L 432.526593 -166.113593 
L 432.538584 -165.442864 
L 432.550334 -164.772136 
L 432.56024 -164.101408 
L 432.567063 -163.430679 
L 432.570419 -162.759951 
L 432.570962 -162.089223 
L 432.570116 -161.418494 
L 432.56944 -160.747766 
L 432.569942 -160.077038 
L 432.571694 -159.406309 
L 432.57398 -158.735581 
L 432.575902 -158.064853 
L 432.577133 -157.394124 
L 432.578362 -156.723396 
L 432.581152 -156.052668 
L 432.587215 -155.381939 
L 432.597426 -154.711211 
L 432.611111 -154.040483 
L 432.626029 -153.369754 
L 432.6392 -152.699026 
L 432.648281 -152.028298 
L 432.652867 -151.357569 
L 432.655062 -150.686841 
L 432.658934 -150.016113 
L 432.66903 -149.345384 
L 432.688548 -148.674656 
L 432.718029 -148.003928 
L 432.755183 -147.333199 
L 432.795957 -146.662471 
L 432.836329 -145.991743 
L 432.873952 -145.321014 
L 432.908885 -144.650286 
L 432.943162 -143.979558 
L 432.979583 -143.308829 
L 433.020483 -142.638101 
L 433.067067 -141.967373 
L 433.119406 -141.296644 
L 433.176785 -140.625916 
L 433.238005 -139.955188 
L 433.301538 -139.284459 
L 433.365784 -138.613731 
L 433.429665 -137.943003 
L 433.493557 -137.272274 
L 433.560107 -136.601546 
L 433.634403 -135.930818 
L 433.723164 -135.260089 
L 433.833116 -134.589361 
L 433.969138 -133.918633 
L 434.132924 -133.247904 
L 434.322658 -132.577176 
L 434.533733 -131.906447 
L 434.759999 -131.235719 
L 434.994815 -130.564991 
L 435.231396 -129.894262 
L 435.46245 -129.223534 
L 435.679677 -128.552806 
L 435.87377 -127.882077 
L 436.035321 -127.211349 
L 436.156484 -126.540621 
L 436.232932 -125.869892 
L 436.265668 -125.199164 
L 436.26244 -124.528436 
L 436.23854 -123.857707 
L 436.216668 -123.186979 
L 436.225387 -122.516251 
L 436.295914 -121.845522 
L 436.457677 -121.174794 
L 436.733836 -120.504066 
L 437.138309 -119.833337 
L 437.675316 -119.162609 
L 438.341318 -118.491881 
L 439.128075 -117.821152 
L 440.025171 -117.150424 
L 441.020861 -116.479696 
L 442.101185 -115.808967 
L 443.248224 -115.138239 
L 444.438845 -114.467511 
L 445.64512 -113.796782 
L 446.836917 -113.126054 
L 447.985761 -112.455326 
L 449.067163 -111.784597 
L 450.057347 -111.113869 
L 450.921817 -110.443141 
L 451.598545 -109.772412 
L 451.985826 -109.101684 
L 451.948359 -108.430956 
L 451.349533 -107.760227 
L 450.103373 -107.089499 
L 448.224444 -106.418771 
L 445.849263 -105.748042 
L 443.214141 -105.077314 
L 440.595975 -104.406586 
L 438.241027 -103.735857 
L 436.310833 -103.065129 
L 434.862933 -102.394401 
L 433.865883 -101.723672 
z
" id="me7fe1ac806" style="stroke:#373737;stroke-width:1.5;"/>
    </defs>
    <g clip-path="url(#pa592dd92c7)">
     <use style="fill:#be631d;stroke:#373737;stroke-width:1.5;" x="0" xlink:href="#me7fe1ac806" y="509.319"/>
    </g>
   </g>
   <g id="PolyCollection_9">
    <defs>
     <path d="M 492.190995 -97.853842 
L 489.7598 -97.853842 
L 489.3355 -98.499376 
L 488.807866 -99.14491 
L 488.168097 -99.790444 
L 487.412137 -100.435979 
L 486.542252 -101.081513 
L 485.568298 -101.727047 
L 484.508431 -102.372581 
L 483.389037 -103.018116 
L 482.243763 -103.66365 
L 481.111616 -104.309184 
L 480.034272 -104.954719 
L 479.052832 -105.600253 
L 478.204405 -106.245787 
L 477.518948 -106.891321 
L 477.016751 -107.536856 
L 476.706919 -108.18239 
L 476.58703 -108.827924 
L 476.643978 -109.473458 
L 476.855861 -110.118993 
L 477.194605 -110.764527 
L 477.628943 -111.410061 
L 478.127345 -112.055595 
L 478.66055 -112.70113 
L 479.203451 -113.346664 
L 479.736209 -113.992198 
L 480.244603 -114.637732 
L 480.719741 -115.283267 
L 481.157314 -115.928801 
L 481.556614 -116.574335 
L 481.919498 -117.21987 
L 482.249456 -117.865404 
L 482.550866 -118.510938 
L 482.828458 -119.156472 
L 483.086959 -119.802007 
L 483.330874 -120.447541 
L 483.56434 -121.093075 
L 483.791002 -121.738609 
L 484.013901 -122.384144 
L 484.235364 -123.029678 
L 484.456924 -123.675212 
L 484.679289 -124.320746 
L 484.902387 -124.966281 
L 485.125503 -125.611815 
L 485.347474 -126.257349 
L 485.566933 -126.902883 
L 485.782546 -127.548418 
L 485.993201 -128.193952 
L 486.198113 -128.839486 
L 486.396833 -129.485021 
L 486.589159 -130.130555 
L 486.774985 -130.776089 
L 486.954127 -131.421623 
L 487.126174 -132.067158 
L 487.290415 -132.712692 
L 487.445847 -133.358226 
L 487.591292 -134.00376 
L 487.725577 -134.649295 
L 487.847757 -135.294829 
L 487.957322 -135.940363 
L 488.05434 -136.585897 
L 488.139511 -137.231432 
L 488.214111 -137.876966 
L 488.279831 -138.5225 
L 488.338559 -139.168034 
L 488.392131 -139.813569 
L 488.442105 -140.459103 
L 488.489612 -141.104637 
L 488.535297 -141.750172 
L 488.579361 -142.395706 
L 488.621706 -143.04124 
L 488.662131 -143.686774 
L 488.700557 -144.332309 
L 488.737228 -144.977843 
L 488.772852 -145.623377 
L 488.808661 -146.268911 
L 488.846374 -146.914446 
L 488.888072 -147.55998 
L 488.935999 -148.205514 
L 488.992332 -148.851048 
L 489.058931 -149.496583 
L 489.137121 -150.142117 
L 489.227518 -150.787651 
L 489.329935 -151.433186 
L 489.443355 -152.07872 
L 489.565993 -152.724254 
L 489.695422 -153.369788 
L 489.828757 -154.015323 
L 489.962876 -154.660857 
L 490.094642 -155.306391 
L 490.221123 -155.951925 
L 490.339778 -156.59746 
L 490.448594 -157.242994 
L 490.546165 -157.888528 
L 490.631717 -158.534062 
L 490.705082 -159.179597 
L 490.766614 -159.825131 
L 490.817093 -160.470665 
L 490.8576 -161.116199 
L 490.889394 -161.761734 
L 491.061401 -161.761734 
L 491.061401 -161.761734 
L 491.093195 -161.116199 
L 491.133702 -160.470665 
L 491.184181 -159.825131 
L 491.245713 -159.179597 
L 491.319077 -158.534062 
L 491.40463 -157.888528 
L 491.502201 -157.242994 
L 491.611017 -156.59746 
L 491.729672 -155.951925 
L 491.856153 -155.306391 
L 491.987919 -154.660857 
L 492.122038 -154.015323 
L 492.255373 -153.369788 
L 492.384802 -152.724254 
L 492.50744 -152.07872 
L 492.62086 -151.433186 
L 492.723277 -150.787651 
L 492.813674 -150.142117 
L 492.891864 -149.496583 
L 492.958463 -148.851048 
L 493.014796 -148.205514 
L 493.062723 -147.55998 
L 493.10442 -146.914446 
L 493.142134 -146.268911 
L 493.177943 -145.623377 
L 493.213567 -144.977843 
L 493.250238 -144.332309 
L 493.288664 -143.686774 
L 493.329089 -143.04124 
L 493.371434 -142.395706 
L 493.415498 -141.750172 
L 493.461183 -141.104637 
L 493.50869 -140.459103 
L 493.558664 -139.813569 
L 493.612235 -139.168034 
L 493.670964 -138.5225 
L 493.736684 -137.876966 
L 493.811283 -137.231432 
L 493.896455 -136.585897 
L 493.993473 -135.940363 
L 494.103038 -135.294829 
L 494.225218 -134.649295 
L 494.359503 -134.00376 
L 494.504947 -133.358226 
L 494.66038 -132.712692 
L 494.82462 -132.067158 
L 494.996668 -131.421623 
L 495.17581 -130.776089 
L 495.361636 -130.130555 
L 495.553962 -129.485021 
L 495.752682 -128.839486 
L 495.957594 -128.193952 
L 496.168249 -127.548418 
L 496.383862 -126.902883 
L 496.603321 -126.257349 
L 496.825292 -125.611815 
L 497.048408 -124.966281 
L 497.271506 -124.320746 
L 497.493871 -123.675212 
L 497.715431 -123.029678 
L 497.936894 -122.384144 
L 498.159793 -121.738609 
L 498.386455 -121.093075 
L 498.619921 -120.447541 
L 498.863836 -119.802007 
L 499.122337 -119.156472 
L 499.399929 -118.510938 
L 499.701339 -117.865404 
L 500.031297 -117.21987 
L 500.39418 -116.574335 
L 500.793481 -115.928801 
L 501.231054 -115.283267 
L 501.706192 -114.637732 
L 502.214586 -113.992198 
L 502.747344 -113.346664 
L 503.290245 -112.70113 
L 503.82345 -112.055595 
L 504.321851 -111.410061 
L 504.75619 -110.764527 
L 505.094934 -110.118993 
L 505.306817 -109.473458 
L 505.363765 -108.827924 
L 505.243875 -108.18239 
L 504.934044 -107.536856 
L 504.431847 -106.891321 
L 503.74639 -106.245787 
L 502.897963 -105.600253 
L 501.916522 -104.954719 
L 500.839179 -104.309184 
L 499.707032 -103.66365 
L 498.561757 -103.018116 
L 497.442364 -102.372581 
L 496.382497 -101.727047 
L 495.408543 -101.081513 
L 494.538658 -100.435979 
L 493.782698 -99.790444 
L 493.142929 -99.14491 
L 492.615295 -98.499376 
L 492.190995 -97.853842 
z
" id="mf5d79df8b7" style="stroke:#373737;stroke-width:1.5;"/>
    </defs>
    <g clip-path="url(#pa592dd92c7)">
     <use style="fill:#2b8e70;stroke:#373737;stroke-width:1.5;" x="0" xlink:href="#mf5d79df8b7" y="509.319"/>
    </g>
   </g>
   <g id="PolyCollection_10">
    <defs>
     <path d="M 531.697629 -101.248877 
L 528.23231 -101.248877 
L 527.422484 -101.765978 
L 526.36218 -102.283078 
L 525.033461 -102.800179 
L 523.442159 -103.317279 
L 521.624452 -103.83438 
L 519.64951 -104.35148 
L 517.616545 -104.868581 
L 515.645673 -105.385681 
L 513.863532 -105.902782 
L 512.386129 -106.419882 
L 511.302389 -106.936982 
L 510.662 -107.454083 
L 510.470183 -107.971183 
L 510.690321 -108.488284 
L 511.253378 -109.005384 
L 512.071466 -109.522485 
L 513.052161 -110.039585 
L 514.110468 -110.556686 
L 515.176456 -111.073786 
L 516.198088 -111.590887 
L 517.140093 -112.107987 
L 517.980555 -112.625088 
L 518.707002 -113.142188 
L 519.313319 -113.659288 
L 519.798079 -114.176389 
L 520.164129 -114.693489 
L 520.418827 -115.21059 
L 520.574199 -115.72769 
L 520.646473 -116.244791 
L 520.654829 -116.761891 
L 520.619531 -117.278992 
L 520.559868 -117.796092 
L 520.492356 -118.313193 
L 520.429571 -118.830293 
L 520.379745 -119.347394 
L 520.347076 -119.864494 
L 520.332547 -120.381594 
L 520.335013 -120.898695 
L 520.35236 -121.415795 
L 520.382593 -121.932896 
L 520.424807 -122.449996 
L 520.479985 -122.967097 
L 520.551536 -123.484197 
L 520.645459 -124.001298 
L 520.76997 -124.518398 
L 520.934523 -125.035499 
L 521.148286 -125.552599 
L 521.418306 -126.0697 
L 521.747756 -126.5868 
L 522.134704 -127.1039 
L 522.571752 -127.621001 
L 523.046678 -128.138101 
L 523.543975 -128.655202 
L 524.046914 -129.172302 
L 524.539688 -129.689403 
L 525.009182 -130.206503 
L 525.44607 -130.723604 
L 525.845146 -131.240704 
L 526.204987 -131.757805 
L 526.527163 -132.274905 
L 526.815249 -132.792006 
L 527.073843 -133.309106 
L 527.307728 -133.826207 
L 527.52121 -134.343307 
L 527.717643 -134.860407 
L 527.899144 -135.377508 
L 528.066506 -135.894608 
L 528.219333 -136.411709 
L 528.356412 -136.928809 
L 528.476265 -137.44591 
L 528.577804 -137.96301 
L 528.660908 -138.480111 
L 528.726792 -138.997211 
L 528.778046 -139.514312 
L 528.818334 -140.031412 
L 528.851831 -140.548513 
L 528.882576 -141.065613 
L 528.913894 -141.582713 
L 528.948068 -142.099814 
L 528.986294 -142.616914 
L 529.028891 -143.134015 
L 529.075658 -143.651115 
L 529.126234 -144.168216 
L 529.180338 -144.685316 
L 529.237835 -145.202417 
L 529.298631 -145.719517 
L 529.362481 -146.236618 
L 529.428787 -146.753718 
L 529.496485 -147.270819 
L 529.564057 -147.787919 
L 529.629683 -148.305019 
L 529.691475 -148.82212 
L 529.747739 -149.33922 
L 529.797198 -149.856321 
L 529.839125 -150.373421 
L 529.873382 -150.890522 
L 529.900348 -151.407622 
L 529.920797 -151.924723 
L 529.935734 -152.441823 
L 529.994205 -152.441823 
L 529.994205 -152.441823 
L 530.009141 -151.924723 
L 530.02959 -151.407622 
L 530.056557 -150.890522 
L 530.090813 -150.373421 
L 530.132741 -149.856321 
L 530.182199 -149.33922 
L 530.238463 -148.82212 
L 530.300255 -148.305019 
L 530.365882 -147.787919 
L 530.433454 -147.270819 
L 530.501151 -146.753718 
L 530.567458 -146.236618 
L 530.631308 -145.719517 
L 530.692104 -145.202417 
L 530.7496 -144.685316 
L 530.803704 -144.168216 
L 530.854281 -143.651115 
L 530.901048 -143.134015 
L 530.943645 -142.616914 
L 530.981871 -142.099814 
L 531.016045 -141.582713 
L 531.047363 -141.065613 
L 531.078107 -140.548513 
L 531.111605 -140.031412 
L 531.151892 -139.514312 
L 531.203147 -138.997211 
L 531.269031 -138.480111 
L 531.352135 -137.96301 
L 531.453674 -137.44591 
L 531.573527 -136.928809 
L 531.710605 -136.411709 
L 531.863433 -135.894608 
L 532.030795 -135.377508 
L 532.212296 -134.860407 
L 532.408728 -134.343307 
L 532.62221 -133.826207 
L 532.856096 -133.309106 
L 533.11469 -132.792006 
L 533.402775 -132.274905 
L 533.724951 -131.757805 
L 534.084793 -131.240704 
L 534.483869 -130.723604 
L 534.920756 -130.206503 
L 535.39025 -129.689403 
L 535.883025 -129.172302 
L 536.385963 -128.655202 
L 536.88326 -128.138101 
L 537.358187 -127.621001 
L 537.795234 -127.1039 
L 538.182183 -126.5868 
L 538.511632 -126.0697 
L 538.781653 -125.552599 
L 538.995416 -125.035499 
L 539.159969 -124.518398 
L 539.284479 -124.001298 
L 539.378402 -123.484197 
L 539.449954 -122.967097 
L 539.505131 -122.449996 
L 539.547346 -121.932896 
L 539.577579 -121.415795 
L 539.594926 -120.898695 
L 539.597392 -120.381594 
L 539.582862 -119.864494 
L 539.550193 -119.347394 
L 539.500368 -118.830293 
L 539.437583 -118.313193 
L 539.370071 -117.796092 
L 539.310407 -117.278992 
L 539.27511 -116.761891 
L 539.283466 -116.244791 
L 539.35574 -115.72769 
L 539.511111 -115.21059 
L 539.76581 -114.693489 
L 540.13186 -114.176389 
L 540.61662 -113.659288 
L 541.222937 -113.142188 
L 541.949383 -112.625088 
L 542.789845 -112.107987 
L 543.731851 -111.590887 
L 544.753483 -111.073786 
L 545.819471 -110.556686 
L 546.877778 -110.039585 
L 547.858473 -109.522485 
L 548.676561 -109.005384 
L 549.239618 -108.488284 
L 549.459755 -107.971183 
L 549.267939 -107.454083 
L 548.62755 -106.936982 
L 547.54381 -106.419882 
L 546.066406 -105.902782 
L 544.284266 -105.385681 
L 542.313394 -104.868581 
L 540.280429 -104.35148 
L 538.305487 -103.83438 
L 536.487779 -103.317279 
L 534.896478 -102.800179 
L 533.567759 -102.283078 
L 532.507455 -101.765978 
L 531.697629 -101.248877 
z
" id="md1ea311d0f" style="stroke:#373737;stroke-width:1.5;"/>
    </defs>
    <g clip-path="url(#pa592dd92c7)">
     <use style="fill:#be631d;stroke:#373737;stroke-width:1.5;" x="0" xlink:href="#md1ea311d0f" y="509.319"/>
    </g>
   </g>
   <g id="patch_3">
    <path clip-path="url(#pa592dd92c7)" d="M 120.574465 402.672087 
L 120.574465 402.672087 
L 120.574465 402.672087 
L 120.574465 402.672087 
z
" style="fill:#2b8e70;stroke:#373737;stroke-linejoin:miter;stroke-width:0.75;"/>
   </g>
   <g id="patch_4">
    <path clip-path="url(#pa592dd92c7)" d="M 120.574465 402.672087 
L 120.574465 402.672087 
L 120.574465 402.672087 
L 120.574465 402.672087 
z
" style="fill:#be631d;stroke:#373737;stroke-linejoin:miter;stroke-width:0.75;"/>
   </g>
   <g id="line2d_1">
    <path clip-path="url(#pa592dd92c7)" d="M 101.079679 402.672087 
L 101.079679 65.492847 
" style="fill:none;stroke:#373737;stroke-linecap:round;stroke-width:1.5;"/>
   </g>
   <g id="line2d_2">
    <path clip-path="url(#pa592dd92c7)" d="M 101.079679 378.433962 
L 101.079679 244.450998 
" style="fill:none;stroke:#373737;stroke-linecap:round;stroke-width:4.5;"/>
   </g>
   <g id="line2d_3">
    <path clip-path="url(#pa592dd92c7)" d="M 140.069251 402.672087 
L 140.069251 113.969095 
" style="fill:none;stroke:#373737;stroke-linecap:round;stroke-width:1.5;"/>
   </g>
   <g id="line2d_4">
    <path clip-path="url(#pa592dd92c7)" d="M 140.069251 390.283712 
L 140.069251 274.344684 
" style="fill:none;stroke:#373737;stroke-linecap:round;stroke-width:4.5;"/>
   </g>
   <g id="line2d_5">
    <path clip-path="url(#pa592dd92c7)" d="M 198.553609 402.672087 
L 198.553609 151.134219 
" style="fill:none;stroke:#373737;stroke-linecap:round;stroke-width:1.5;"/>
   </g>
   <g id="line2d_6">
    <path clip-path="url(#pa592dd92c7)" d="M 198.553609 390.822337 
L 198.553609 293.331215 
" style="fill:none;stroke:#373737;stroke-linecap:round;stroke-width:4.5;"/>
   </g>
   <g id="line2d_7">
    <path clip-path="url(#pa592dd92c7)" d="M 237.54318 402.672087 
L 237.54318 248.086716 
" style="fill:none;stroke:#373737;stroke-linecap:round;stroke-width:1.5;"/>
   </g>
   <g id="line2d_8">
    <path clip-path="url(#pa592dd92c7)" d="M 237.54318 397.959118 
L 237.54318 336.286557 
" style="fill:none;stroke:#373737;stroke-linecap:round;stroke-width:4.5;"/>
   </g>
   <g id="line2d_9">
    <path clip-path="url(#pa592dd92c7)" d="M 296.027538 402.672087 
L 296.027538 396.747212 
" style="fill:none;stroke:#373737;stroke-linecap:round;stroke-width:1.5;"/>
   </g>
   <g id="line2d_10">
    <path clip-path="url(#pa592dd92c7)" d="M 296.027538 402.133462 
L 296.027538 399.978962 
" style="fill:none;stroke:#373737;stroke-linecap:round;stroke-width:4.5;"/>
   </g>
   <g id="line2d_11">
    <path clip-path="url(#pa592dd92c7)" d="M 335.01711 402.672087 
L 335.01711 398.901712 
" style="fill:none;stroke:#373737;stroke-linecap:round;stroke-width:1.5;"/>
   </g>
   <g id="line2d_12">
    <path clip-path="url(#pa592dd92c7)" d="M 335.01711 402.672087 
L 335.01711 401.056212 
" style="fill:none;stroke:#373737;stroke-linecap:round;stroke-width:4.5;"/>
   </g>
   <g id="line2d_13">
    <path clip-path="url(#pa592dd92c7)" d="M 393.501468 402.672087 
L 393.501468 346.655088 
" style="fill:none;stroke:#373737;stroke-linecap:round;stroke-width:1.5;"/>
   </g>
   <g id="line2d_14">
    <path clip-path="url(#pa592dd92c7)" d="M 393.501468 400.517587 
L 393.501468 378.972587 
" style="fill:none;stroke:#373737;stroke-linecap:round;stroke-width:4.5;"/>
   </g>
   <g id="line2d_15">
    <path clip-path="url(#pa592dd92c7)" d="M 432.49104 402.672087 
L 432.49104 378.972587 
" style="fill:none;stroke:#373737;stroke-linecap:round;stroke-width:1.5;"/>
   </g>
   <g id="line2d_16">
    <path clip-path="url(#pa592dd92c7)" d="M 432.49104 401.594837 
L 432.49104 392.438212 
" style="fill:none;stroke:#373737;stroke-linecap:round;stroke-width:4.5;"/>
   </g>
   <g id="line2d_17">
    <path clip-path="url(#pa592dd92c7)" d="M 490.975397 402.672087 
L 490.975397 358.504838 
" style="fill:none;stroke:#373737;stroke-linecap:round;stroke-width:1.5;"/>
   </g>
   <g id="line2d_18">
    <path clip-path="url(#pa592dd92c7)" d="M 490.975397 401.594837 
L 490.975397 384.358837 
" style="fill:none;stroke:#373737;stroke-linecap:round;stroke-width:4.5;"/>
   </g>
   <g id="line2d_19">
    <path clip-path="url(#pa592dd92c7)" d="M 529.964969 402.672087 
L 529.964969 362.813838 
" style="fill:none;stroke:#373737;stroke-linecap:round;stroke-width:1.5;"/>
   </g>
   <g id="line2d_20">
    <path clip-path="url(#pa592dd92c7)" d="M 529.964969 401.594837 
L 529.964969 385.974712 
" style="fill:none;stroke:#373737;stroke-linecap:round;stroke-width:4.5;"/>
   </g>
   <g id="patch_5">
    <path d="M 71.8375 461.854 
L 71.8375 7.2 
" style="fill:none;stroke:#262626;stroke-linecap:square;stroke-linejoin:miter;stroke-width:0.8;"/>
   </g>
   <g id="patch_6">
    <path d="M 71.8375 461.854 
L 559.207148 461.854 
" style="fill:none;stroke:#262626;stroke-linecap:square;stroke-linejoin:miter;stroke-width:0.8;"/>
   </g>
   <g id="PathCollection_1">
    <defs>
     <path d="M 0 1.5 
C 0.397805 1.5 0.77937 1.341951 1.06066 1.06066 
C 1.341951 0.77937 1.5 0.397805 1.5 0 
C 1.5 -0.397805 1.341951 -0.77937 1.06066 -1.06066 
C 0.77937 -1.341951 0.397805 -1.5 0 -1.5 
C -0.397805 -1.5 -0.77937 -1.341951 -1.06066 -1.06066 
C -1.341951 -0.77937 -1.5 -0.397805 -1.5 0 
C -1.5 0.397805 -1.341951 0.77937 -1.06066 1.06066 
C -0.77937 1.341951 -0.397805 1.5 0 1.5 
z
" id="m35d5c69846" style="stroke:#373737;"/>
    </defs>
    <g clip-path="url(#pa592dd92c7)">
     <use style="fill:#ffffff;stroke:#373737;" x="101.079679" xlink:href="#m35d5c69846" y="301.41059"/>
    </g>
   </g>
   <g id="PathCollection_2">
    <g clip-path="url(#pa592dd92c7)">
     <use style="fill:#ffffff;stroke:#373737;" x="140.069251" xlink:href="#m35d5c69846" y="322.416964"/>
    </g>
   </g>
   <g id="PathCollection_3">
    <g clip-path="url(#pa592dd92c7)">
     <use style="fill:#ffffff;stroke:#373737;" x="198.553609" xlink:href="#m35d5c69846" y="349.348213"/>
    </g>
   </g>
   <g id="PathCollection_4">
    <g clip-path="url(#pa592dd92c7)">
     <use style="fill:#ffffff;stroke:#373737;" x="237.54318" xlink:href="#m35d5c69846" y="374.124962"/>
    </g>
   </g>
   <g id="PathCollection_5">
    <g clip-path="url(#pa592dd92c7)">
     <use style="fill:#ffffff;stroke:#373737;" x="296.027538" xlink:href="#m35d5c69846" y="401.594837"/>
    </g>
   </g>
   <g id="PathCollection_6">
    <g clip-path="url(#pa592dd92c7)">
     <use style="fill:#ffffff;stroke:#373737;" x="335.01711" xlink:href="#m35d5c69846" y="402.133462"/>
    </g>
   </g>
   <g id="PathCollection_7">
    <g clip-path="url(#pa592dd92c7)">
     <use style="fill:#ffffff;stroke:#373737;" x="393.501468" xlink:href="#m35d5c69846" y="391.899587"/>
    </g>
   </g>
   <g id="PathCollection_8">
    <g clip-path="url(#pa592dd92c7)">
     <use style="fill:#ffffff;stroke:#373737;" x="432.49104" xlink:href="#m35d5c69846" y="397.824462"/>
    </g>
   </g>
   <g id="PathCollection_9">
    <g clip-path="url(#pa592dd92c7)">
     <use style="fill:#ffffff;stroke:#373737;" x="490.975397" xlink:href="#m35d5c69846" y="394.323399"/>
    </g>
   </g>
   <g id="PathCollection_10">
    <g clip-path="url(#pa592dd92c7)">
     <use style="fill:#ffffff;stroke:#373737;" x="529.964969" xlink:href="#m35d5c69846" y="395.669962"/>
    </g>
   </g>
  </g>
  <g id="legend_1">
   <g id="text_17">
    <!-- weather -->
    <defs>
     <path d="M 16.15625 0 
L 0.296875 51.859375 
L 9.375 51.859375 
L 17.625 21.921875 
L 20.703125 10.796875 
Q 20.90625 11.625 23.390625 21.484375 
L 31.640625 51.859375 
L 40.671875 51.859375 
L 48.4375 21.78125 
L 51.03125 11.859375 
L 54 21.875 
L 62.890625 51.859375 
L 71.4375 51.859375 
L 55.21875 0 
L 46.09375 0 
L 37.84375 31.0625 
L 35.84375 39.890625 
L 25.34375 0 
z
" id="ArialMT-119"/>
     <path d="M 40.4375 6.390625 
Q 35.546875 2.25 31.03125 0.53125 
Q 26.515625 -1.171875 21.34375 -1.171875 
Q 12.796875 -1.171875 8.203125 3 
Q 3.609375 7.171875 3.609375 13.671875 
Q 3.609375 17.484375 5.34375 20.625 
Q 7.078125 23.78125 9.890625 25.6875 
Q 12.703125 27.59375 16.21875 28.5625 
Q 18.796875 29.25 24.03125 29.890625 
Q 34.671875 31.15625 39.703125 32.90625 
Q 39.75 34.71875 39.75 35.203125 
Q 39.75 40.578125 37.25 42.78125 
Q 33.890625 45.75 27.25 45.75 
Q 21.046875 45.75 18.09375 43.578125 
Q 15.140625 41.40625 13.71875 35.890625 
L 5.125 37.0625 
Q 6.296875 42.578125 8.984375 45.96875 
Q 11.671875 49.359375 16.75 51.1875 
Q 21.828125 53.03125 28.515625 53.03125 
Q 35.15625 53.03125 39.296875 51.46875 
Q 43.453125 49.90625 45.40625 47.53125 
Q 47.359375 45.171875 48.140625 41.546875 
Q 48.578125 39.3125 48.578125 33.453125 
L 48.578125 21.734375 
Q 48.578125 9.46875 49.140625 6.21875 
Q 49.703125 2.984375 51.375 0 
L 42.1875 0 
Q 40.828125 2.734375 40.4375 6.390625 
z
M 39.703125 26.03125 
Q 34.90625 24.078125 25.34375 22.703125 
Q 19.921875 21.921875 17.671875 20.9375 
Q 15.4375 19.96875 14.203125 18.09375 
Q 12.984375 16.21875 12.984375 13.921875 
Q 12.984375 10.40625 15.640625 8.0625 
Q 18.3125 5.71875 23.4375 5.71875 
Q 28.515625 5.71875 32.46875 7.9375 
Q 36.421875 10.15625 38.28125 14.015625 
Q 39.703125 17 39.703125 22.796875 
z
" id="ArialMT-97"/>
     <path d="M 6.59375 0 
L 6.59375 71.578125 
L 15.375 71.578125 
L 15.375 45.90625 
Q 21.53125 53.03125 30.90625 53.03125 
Q 36.671875 53.03125 40.921875 50.75 
Q 45.171875 48.484375 47 44.484375 
Q 48.828125 40.484375 48.828125 32.859375 
L 48.828125 0 
L 40.046875 0 
L 40.046875 32.859375 
Q 40.046875 39.453125 37.1875 42.453125 
Q 34.328125 45.453125 29.109375 45.453125 
Q 25.203125 45.453125 21.75 43.421875 
Q 18.3125 41.40625 16.84375 37.9375 
Q 15.375 34.46875 15.375 28.375 
L 15.375 0 
z
" id="ArialMT-104"/>
    </defs>
    <g style="fill:#262626;" transform="translate(661.71175 236.0695)scale(0.16 -0.16)">
     <use xlink:href="#ArialMT-119"/>
     <use x="72.216797" xlink:href="#ArialMT-101"/>
     <use x="127.832031" xlink:href="#ArialMT-97"/>
     <use x="183.447266" xlink:href="#ArialMT-116"/>
     <use x="211.230469" xlink:href="#ArialMT-104"/>
     <use x="266.845703" xlink:href="#ArialMT-101"/>
     <use x="322.460938" xlink:href="#ArialMT-114"/>
    </g>
   </g>
   <g id="patch_7">
    <path d="M 649.9755 258.702 
L 681.9755 258.702 
L 681.9755 247.502 
L 649.9755 247.502 
z
" style="fill:#2b8e70;stroke:#373737;stroke-linejoin:miter;stroke-width:0.75;"/>
   </g>
   <g id="text_18">
    <!-- good -->
    <defs>
     <path d="M 4.984375 -4.296875 
L 13.53125 -5.5625 
Q 14.0625 -9.515625 16.5 -11.328125 
Q 19.78125 -13.765625 25.4375 -13.765625 
Q 31.546875 -13.765625 34.859375 -11.328125 
Q 38.1875 -8.890625 39.359375 -4.5 
Q 40.046875 -1.8125 39.984375 6.78125 
Q 34.234375 0 25.640625 0 
Q 14.9375 0 9.078125 7.71875 
Q 3.21875 15.4375 3.21875 26.21875 
Q 3.21875 33.640625 5.90625 39.90625 
Q 8.59375 46.1875 13.6875 49.609375 
Q 18.796875 53.03125 25.6875 53.03125 
Q 34.859375 53.03125 40.828125 45.609375 
L 40.828125 51.859375 
L 48.921875 51.859375 
L 48.921875 7.03125 
Q 48.921875 -5.078125 46.453125 -10.125 
Q 44 -15.1875 38.640625 -18.109375 
Q 33.296875 -21.046875 25.484375 -21.046875 
Q 16.21875 -21.046875 10.5 -16.875 
Q 4.78125 -12.703125 4.984375 -4.296875 
z
M 12.25 26.859375 
Q 12.25 16.65625 16.296875 11.96875 
Q 20.359375 7.28125 26.46875 7.28125 
Q 32.515625 7.28125 36.609375 11.9375 
Q 40.71875 16.609375 40.71875 26.5625 
Q 40.71875 36.078125 36.5 40.90625 
Q 32.28125 45.75 26.3125 45.75 
Q 20.453125 45.75 16.34375 40.984375 
Q 12.25 36.234375 12.25 26.859375 
z
" id="ArialMT-103"/>
    </defs>
    <g style="fill:#262626;" transform="translate(694.7755 258.702)scale(0.16 -0.16)">
     <use xlink:href="#ArialMT-103"/>
     <use x="55.615234" xlink:href="#ArialMT-111"/>
     <use x="111.230469" xlink:href="#ArialMT-111"/>
     <use x="166.845703" xlink:href="#ArialMT-100"/>
    </g>
   </g>
   <g id="patch_8">
    <path d="M 649.9755 281.522 
L 681.9755 281.522 
L 681.9755 270.322 
L 649.9755 270.322 
z
" style="fill:#be631d;stroke:#373737;stroke-linejoin:miter;stroke-width:0.75;"/>
   </g>
   <g id="text_19">
    <!-- bad -->
    <defs>
     <path d="M 14.703125 0 
L 6.546875 0 
L 6.546875 71.578125 
L 15.328125 71.578125 
L 15.328125 46.046875 
Q 20.90625 53.03125 29.546875 53.03125 
Q 34.328125 53.03125 38.59375 51.09375 
Q 42.875 49.171875 45.625 45.671875 
Q 48.390625 42.1875 49.953125 37.25 
Q 51.515625 32.328125 51.515625 26.703125 
Q 51.515625 13.375 44.921875 6.09375 
Q 38.328125 -1.171875 29.109375 -1.171875 
Q 19.921875 -1.171875 14.703125 6.5 
z
M 14.59375 26.3125 
Q 14.59375 17 17.140625 12.84375 
Q 21.296875 6.0625 28.375 6.0625 
Q 34.125 6.0625 38.328125 11.0625 
Q 42.53125 16.0625 42.53125 25.984375 
Q 42.53125 36.140625 38.5 40.96875 
Q 34.46875 45.796875 28.765625 45.796875 
Q 23 45.796875 18.796875 40.796875 
Q 14.59375 35.796875 14.59375 26.3125 
z
" id="ArialMT-98"/>
    </defs>
    <g style="fill:#262626;" transform="translate(694.7755 281.522)scale(0.16 -0.16)">
     <use xlink:href="#ArialMT-98"/>
     <use x="55.615234" xlink:href="#ArialMT-97"/>
     <use x="111.230469" xlink:href="#ArialMT-100"/>
    </g>
   </g>
  </g>
 </g>
 <defs>
  <clipPath id="pa592dd92c7">
   <rect height="454.654" width="487.369648" x="71.8375" y="7.2"/>
  </clipPath>
 </defs>
</svg>
