<?xml version="1.0" encoding="utf-8" standalone="no"?>
<!DOCTYPE svg PUBLIC "-//W3C//DTD SVG 1.1//EN"
  "http://www.w3.org/Graphics/SVG/1.1/DTD/svg11.dtd">
<!-- Created with matplotlib (https://matplotlib.org/) -->
<svg height="509.319pt" version="1.1" viewBox="0 0 744.7655 509.319" width="744.7655pt" xmlns="http://www.w3.org/2000/svg" xmlns:xlink="http://www.w3.org/1999/xlink">
 <defs>
  <style type="text/css">
*{stroke-linecap:butt;stroke-linejoin:round;white-space:pre;}
  </style>
 </defs>
 <g id="figure_1">
  <g id="patch_1">
   <path d="M 0 509.319 
L 744.7655 509.319 
L 744.7655 0 
L 0 0 
z
" style="fill:#ffffff;"/>
  </g>
  <g id="axes_1">
   <g id="patch_2">
    <path d="M 71.8375 461.854 
L 592.217863 461.854 
L 592.217863 7.2 
L 71.8375 7.2 
z
" style="fill:#ffffff;"/>
   </g>
   <g id="matplotlib.axis_1">
    <g id="xtick_1">
     <g id="text_1">
      <!-- 1025-116 -->
      <defs>
       <path d="M 37.25 0 
L 28.46875 0 
L 28.46875 56 
Q 25.296875 52.984375 20.140625 49.953125 
Q 14.984375 46.921875 10.890625 45.40625 
L 10.890625 53.90625 
Q 18.265625 57.375 23.78125 62.296875 
Q 29.296875 67.234375 31.59375 71.875 
L 37.25 71.875 
z
" id="ArialMT-49"/>
       <path d="M 4.15625 35.296875 
Q 4.15625 48 6.765625 55.734375 
Q 9.375 63.484375 14.515625 67.671875 
Q 19.671875 71.875 27.484375 71.875 
Q 33.25 71.875 37.59375 69.546875 
Q 41.9375 67.234375 44.765625 62.859375 
Q 47.609375 58.5 49.21875 52.21875 
Q 50.828125 45.953125 50.828125 35.296875 
Q 50.828125 22.703125 48.234375 14.96875 
Q 45.65625 7.234375 40.5 3 
Q 35.359375 -1.21875 27.484375 -1.21875 
Q 17.140625 -1.21875 11.234375 6.203125 
Q 4.15625 15.140625 4.15625 35.296875 
z
M 13.1875 35.296875 
Q 13.1875 17.671875 17.3125 11.828125 
Q 21.4375 6 27.484375 6 
Q 33.546875 6 37.671875 11.859375 
Q 41.796875 17.71875 41.796875 35.296875 
Q 41.796875 52.984375 37.671875 58.78125 
Q 33.546875 64.59375 27.390625 64.59375 
Q 21.34375 64.59375 17.71875 59.46875 
Q 13.1875 52.9375 13.1875 35.296875 
z
" id="ArialMT-48"/>
       <path d="M 50.34375 8.453125 
L 50.34375 0 
L 3.03125 0 
Q 2.9375 3.171875 4.046875 6.109375 
Q 5.859375 10.9375 9.828125 15.625 
Q 13.8125 20.3125 21.34375 26.46875 
Q 33.015625 36.03125 37.109375 41.625 
Q 41.21875 47.21875 41.21875 52.203125 
Q 41.21875 57.421875 37.46875 61 
Q 33.734375 64.59375 27.734375 64.59375 
Q 21.390625 64.59375 17.578125 60.78125 
Q 13.765625 56.984375 13.71875 50.25 
L 4.6875 51.171875 
Q 5.609375 61.28125 11.65625 66.578125 
Q 17.71875 71.875 27.9375 71.875 
Q 38.234375 71.875 44.234375 66.15625 
Q 50.25 60.453125 50.25 52 
Q 50.25 47.703125 48.484375 43.546875 
Q 46.734375 39.40625 42.65625 34.8125 
Q 38.578125 30.21875 29.109375 22.21875 
Q 21.1875 15.578125 18.9375 13.203125 
Q 16.703125 10.84375 15.234375 8.453125 
z
" id="ArialMT-50"/>
       <path d="M 4.15625 18.75 
L 13.375 19.53125 
Q 14.40625 12.796875 18.140625 9.390625 
Q 21.875 6 27.15625 6 
Q 33.5 6 37.890625 10.78125 
Q 42.28125 15.578125 42.28125 23.484375 
Q 42.28125 31 38.0625 35.34375 
Q 33.84375 39.703125 27 39.703125 
Q 22.75 39.703125 19.328125 37.765625 
Q 15.921875 35.84375 13.96875 32.765625 
L 5.71875 33.84375 
L 12.640625 70.609375 
L 48.25 70.609375 
L 48.25 62.203125 
L 19.671875 62.203125 
L 15.828125 42.96875 
Q 22.265625 47.46875 29.34375 47.46875 
Q 38.71875 47.46875 45.15625 40.96875 
Q 51.609375 34.46875 51.609375 24.265625 
Q 51.609375 14.546875 45.953125 7.46875 
Q 39.0625 -1.21875 27.15625 -1.21875 
Q 17.390625 -1.21875 11.203125 4.25 
Q 5.03125 9.71875 4.15625 18.75 
z
" id="ArialMT-53"/>
       <path d="M 3.171875 21.484375 
L 3.171875 30.328125 
L 30.171875 30.328125 
L 30.171875 21.484375 
z
" id="ArialMT-45"/>
       <path d="M 49.75 54.046875 
L 41.015625 53.375 
Q 39.84375 58.546875 37.703125 60.890625 
Q 34.125 64.65625 28.90625 64.65625 
Q 24.703125 64.65625 21.53125 62.3125 
Q 17.390625 59.28125 14.984375 53.46875 
Q 12.59375 47.65625 12.5 36.921875 
Q 15.671875 41.75 20.265625 44.09375 
Q 24.859375 46.4375 29.890625 46.4375 
Q 38.671875 46.4375 44.84375 39.96875 
Q 51.03125 33.5 51.03125 23.25 
Q 51.03125 16.5 48.125 10.71875 
Q 45.21875 4.9375 40.140625 1.859375 
Q 35.0625 -1.21875 28.609375 -1.21875 
Q 17.625 -1.21875 10.6875 6.859375 
Q 3.765625 14.9375 3.765625 33.5 
Q 3.765625 54.25 11.421875 63.671875 
Q 18.109375 71.875 29.4375 71.875 
Q 37.890625 71.875 43.28125 67.140625 
Q 48.6875 62.40625 49.75 54.046875 
z
M 13.875 23.1875 
Q 13.875 18.65625 15.796875 14.5 
Q 17.71875 10.359375 21.1875 8.171875 
Q 24.65625 6 28.46875 6 
Q 34.03125 6 38.03125 10.484375 
Q 42.046875 14.984375 42.046875 22.703125 
Q 42.046875 30.125 38.078125 34.390625 
Q 34.125 38.671875 28.125 38.671875 
Q 22.171875 38.671875 18.015625 34.390625 
Q 13.875 30.125 13.875 23.1875 
z
" id="ArialMT-54"/>
      </defs>
      <g style="fill:#262626;" transform="translate(90.079286 480.3065)scale(0.16 -0.16)">
       <use xlink:href="#ArialMT-49"/>
       <use x="55.615234" xlink:href="#ArialMT-48"/>
       <use x="111.230469" xlink:href="#ArialMT-50"/>
       <use x="166.845703" xlink:href="#ArialMT-53"/>
       <use x="222.460938" xlink:href="#ArialMT-45"/>
       <use x="255.761719" xlink:href="#ArialMT-49"/>
       <use x="311.267578" xlink:href="#ArialMT-49"/>
       <use x="366.882812" xlink:href="#ArialMT-54"/>
      </g>
     </g>
    </g>
    <g id="xtick_2">
     <g id="text_2">
      <!-- 1034-216 -->
      <defs>
       <path d="M 4.203125 18.890625 
L 12.984375 20.0625 
Q 14.5 12.59375 18.140625 9.296875 
Q 21.78125 6 27 6 
Q 33.203125 6 37.46875 10.296875 
Q 41.75 14.59375 41.75 20.953125 
Q 41.75 27 37.796875 30.921875 
Q 33.84375 34.859375 27.734375 34.859375 
Q 25.25 34.859375 21.53125 33.890625 
L 22.515625 41.609375 
Q 23.390625 41.5 23.921875 41.5 
Q 29.546875 41.5 34.03125 44.421875 
Q 38.53125 47.359375 38.53125 53.46875 
Q 38.53125 58.296875 35.25 61.46875 
Q 31.984375 64.65625 26.8125 64.65625 
Q 21.6875 64.65625 18.265625 61.421875 
Q 14.84375 58.203125 13.875 51.765625 
L 5.078125 53.328125 
Q 6.6875 62.15625 12.390625 67.015625 
Q 18.109375 71.875 26.609375 71.875 
Q 32.46875 71.875 37.390625 69.359375 
Q 42.328125 66.84375 44.9375 62.5 
Q 47.5625 58.15625 47.5625 53.265625 
Q 47.5625 48.640625 45.0625 44.828125 
Q 42.578125 41.015625 37.703125 38.765625 
Q 44.046875 37.3125 47.5625 32.6875 
Q 51.078125 28.078125 51.078125 21.140625 
Q 51.078125 11.765625 44.234375 5.25 
Q 37.40625 -1.265625 26.953125 -1.265625 
Q 17.53125 -1.265625 11.296875 4.34375 
Q 5.078125 9.96875 4.203125 18.890625 
z
" id="ArialMT-51"/>
       <path d="M 32.328125 0 
L 32.328125 17.140625 
L 1.265625 17.140625 
L 1.265625 25.203125 
L 33.9375 71.578125 
L 41.109375 71.578125 
L 41.109375 25.203125 
L 50.78125 25.203125 
L 50.78125 17.140625 
L 41.109375 17.140625 
L 41.109375 0 
z
M 32.328125 25.203125 
L 32.328125 57.46875 
L 9.90625 25.203125 
z
" id="ArialMT-52"/>
      </defs>
      <g style="fill:#262626;" transform="translate(194.146609 480.3065)scale(0.16 -0.16)">
       <use xlink:href="#ArialMT-49"/>
       <use x="55.615234" xlink:href="#ArialMT-48"/>
       <use x="111.230469" xlink:href="#ArialMT-51"/>
       <use x="166.845703" xlink:href="#ArialMT-52"/>
       <use x="222.460938" xlink:href="#ArialMT-45"/>
       <use x="255.761719" xlink:href="#ArialMT-50"/>
       <use x="311.376953" xlink:href="#ArialMT-49"/>
       <use x="366.992188" xlink:href="#ArialMT-54"/>
      </g>
     </g>
    </g>
    <g id="xtick_3">
     <g id="text_3">
      <!-- 1034-216-1 -->
      <g style="fill:#262626;" transform="translate(291.110181 480.3065)scale(0.16 -0.16)">
       <use xlink:href="#ArialMT-49"/>
       <use x="55.615234" xlink:href="#ArialMT-48"/>
       <use x="111.230469" xlink:href="#ArialMT-51"/>
       <use x="166.845703" xlink:href="#ArialMT-52"/>
       <use x="222.460938" xlink:href="#ArialMT-45"/>
       <use x="255.761719" xlink:href="#ArialMT-50"/>
       <use x="311.376953" xlink:href="#ArialMT-49"/>
       <use x="366.992188" xlink:href="#ArialMT-54"/>
       <use x="422.607422" xlink:href="#ArialMT-45"/>
       <use x="455.908203" xlink:href="#ArialMT-49"/>
      </g>
     </g>
    </g>
    <g id="xtick_4">
     <g id="text_4">
      <!-- 1035-136 -->
      <g style="fill:#262626;" transform="translate(402.298754 480.3065)scale(0.16 -0.16)">
       <use xlink:href="#ArialMT-49"/>
       <use x="55.615234" xlink:href="#ArialMT-48"/>
       <use x="111.230469" xlink:href="#ArialMT-51"/>
       <use x="166.845703" xlink:href="#ArialMT-53"/>
       <use x="222.460938" xlink:href="#ArialMT-45"/>
       <use x="255.761719" xlink:href="#ArialMT-49"/>
       <use x="311.376953" xlink:href="#ArialMT-51"/>
       <use x="366.992188" xlink:href="#ArialMT-54"/>
      </g>
     </g>
    </g>
    <g id="xtick_5">
     <g id="text_5">
      <!-- 1038-276 -->
      <defs>
       <path d="M 17.671875 38.8125 
Q 12.203125 40.828125 9.5625 44.53125 
Q 6.9375 48.25 6.9375 53.421875 
Q 6.9375 61.234375 12.546875 66.546875 
Q 18.171875 71.875 27.484375 71.875 
Q 36.859375 71.875 42.578125 66.421875 
Q 48.296875 60.984375 48.296875 53.171875 
Q 48.296875 48.1875 45.671875 44.5 
Q 43.0625 40.828125 37.75 38.8125 
Q 44.34375 36.671875 47.78125 31.875 
Q 51.21875 27.09375 51.21875 20.453125 
Q 51.21875 11.28125 44.71875 5.03125 
Q 38.234375 -1.21875 27.640625 -1.21875 
Q 17.046875 -1.21875 10.546875 5.046875 
Q 4.046875 11.328125 4.046875 20.703125 
Q 4.046875 27.6875 7.59375 32.390625 
Q 11.140625 37.109375 17.671875 38.8125 
z
M 15.921875 53.71875 
Q 15.921875 48.640625 19.1875 45.40625 
Q 22.46875 42.1875 27.6875 42.1875 
Q 32.765625 42.1875 36.015625 45.375 
Q 39.265625 48.578125 39.265625 53.21875 
Q 39.265625 58.0625 35.90625 61.359375 
Q 32.5625 64.65625 27.59375 64.65625 
Q 22.5625 64.65625 19.234375 61.421875 
Q 15.921875 58.203125 15.921875 53.71875 
z
M 13.09375 20.65625 
Q 13.09375 16.890625 14.875 13.375 
Q 16.65625 9.859375 20.171875 7.921875 
Q 23.6875 6 27.734375 6 
Q 34.03125 6 38.125 10.046875 
Q 42.234375 14.109375 42.234375 20.359375 
Q 42.234375 26.703125 38.015625 30.859375 
Q 33.796875 35.015625 27.4375 35.015625 
Q 21.234375 35.015625 17.15625 30.90625 
Q 13.09375 26.8125 13.09375 20.65625 
z
" id="ArialMT-56"/>
       <path d="M 4.734375 62.203125 
L 4.734375 70.65625 
L 51.078125 70.65625 
L 51.078125 63.8125 
Q 44.234375 56.546875 37.515625 44.484375 
Q 30.8125 32.421875 27.15625 19.671875 
Q 24.515625 10.6875 23.78125 0 
L 14.75 0 
Q 14.890625 8.453125 18.0625 20.40625 
Q 21.234375 32.375 27.171875 43.484375 
Q 33.109375 54.59375 39.796875 62.203125 
z
" id="ArialMT-55"/>
      </defs>
      <g style="fill:#262626;" transform="translate(506.374827 480.3065)scale(0.16 -0.16)">
       <use xlink:href="#ArialMT-49"/>
       <use x="55.615234" xlink:href="#ArialMT-48"/>
       <use x="111.230469" xlink:href="#ArialMT-51"/>
       <use x="166.845703" xlink:href="#ArialMT-56"/>
       <use x="222.460938" xlink:href="#ArialMT-45"/>
       <use x="255.761719" xlink:href="#ArialMT-50"/>
       <use x="311.376953" xlink:href="#ArialMT-55"/>
       <use x="366.992188" xlink:href="#ArialMT-54"/>
      </g>
     </g>
    </g>
    <g id="text_6">
     <!-- Counter id -->
     <defs>
      <path d="M 58.796875 25.09375 
L 68.265625 22.703125 
Q 65.28125 11.03125 57.546875 4.90625 
Q 49.8125 -1.21875 38.625 -1.21875 
Q 27.046875 -1.21875 19.796875 3.484375 
Q 12.546875 8.203125 8.765625 17.140625 
Q 4.984375 26.078125 4.984375 36.328125 
Q 4.984375 47.515625 9.25 55.828125 
Q 13.53125 64.15625 21.40625 68.46875 
Q 29.296875 72.796875 38.765625 72.796875 
Q 49.515625 72.796875 56.828125 67.328125 
Q 64.15625 61.859375 67.046875 51.953125 
L 57.71875 49.75 
Q 55.21875 57.5625 50.484375 61.125 
Q 45.75 64.703125 38.578125 64.703125 
Q 30.328125 64.703125 24.78125 60.734375 
Q 19.234375 56.78125 16.984375 50.109375 
Q 14.75 43.453125 14.75 36.375 
Q 14.75 27.25 17.40625 20.4375 
Q 20.0625 13.625 25.671875 10.25 
Q 31.296875 6.890625 37.84375 6.890625 
Q 45.796875 6.890625 51.3125 11.46875 
Q 56.84375 16.0625 58.796875 25.09375 
z
" id="ArialMT-67"/>
      <path d="M 3.328125 25.921875 
Q 3.328125 40.328125 11.328125 47.265625 
Q 18.015625 53.03125 27.640625 53.03125 
Q 38.328125 53.03125 45.109375 46.015625 
Q 51.90625 39.015625 51.90625 26.65625 
Q 51.90625 16.65625 48.90625 10.90625 
Q 45.90625 5.171875 40.15625 2 
Q 34.421875 -1.171875 27.640625 -1.171875 
Q 16.75 -1.171875 10.03125 5.8125 
Q 3.328125 12.796875 3.328125 25.921875 
z
M 12.359375 25.921875 
Q 12.359375 15.96875 16.703125 11.015625 
Q 21.046875 6.0625 27.640625 6.0625 
Q 34.1875 6.0625 38.53125 11.03125 
Q 42.875 16.015625 42.875 26.21875 
Q 42.875 35.84375 38.5 40.796875 
Q 34.125 45.75 27.640625 45.75 
Q 21.046875 45.75 16.703125 40.8125 
Q 12.359375 35.890625 12.359375 25.921875 
z
" id="ArialMT-111"/>
      <path d="M 40.578125 0 
L 40.578125 7.625 
Q 34.515625 -1.171875 24.125 -1.171875 
Q 19.53125 -1.171875 15.546875 0.578125 
Q 11.578125 2.34375 9.640625 5 
Q 7.71875 7.671875 6.9375 11.53125 
Q 6.390625 14.109375 6.390625 19.734375 
L 6.390625 51.859375 
L 15.1875 51.859375 
L 15.1875 23.09375 
Q 15.1875 16.21875 15.71875 13.8125 
Q 16.546875 10.359375 19.234375 8.375 
Q 21.921875 6.390625 25.875 6.390625 
Q 29.828125 6.390625 33.296875 8.421875 
Q 36.765625 10.453125 38.203125 13.9375 
Q 39.65625 17.4375 39.65625 24.078125 
L 39.65625 51.859375 
L 48.4375 51.859375 
L 48.4375 0 
z
" id="ArialMT-117"/>
      <path d="M 6.59375 0 
L 6.59375 51.859375 
L 14.5 51.859375 
L 14.5 44.484375 
Q 20.21875 53.03125 31 53.03125 
Q 35.6875 53.03125 39.625 51.34375 
Q 43.5625 49.65625 45.515625 46.921875 
Q 47.46875 44.1875 48.25 40.4375 
Q 48.734375 37.984375 48.734375 31.890625 
L 48.734375 0 
L 39.9375 0 
L 39.9375 31.546875 
Q 39.9375 36.921875 38.90625 39.578125 
Q 37.890625 42.234375 35.28125 43.8125 
Q 32.671875 45.40625 29.15625 45.40625 
Q 23.53125 45.40625 19.453125 41.84375 
Q 15.375 38.28125 15.375 28.328125 
L 15.375 0 
z
" id="ArialMT-110"/>
      <path d="M 25.78125 7.859375 
L 27.046875 0.09375 
Q 23.34375 -0.6875 20.40625 -0.6875 
Q 15.625 -0.6875 12.984375 0.828125 
Q 10.359375 2.34375 9.28125 4.8125 
Q 8.203125 7.28125 8.203125 15.1875 
L 8.203125 45.015625 
L 1.765625 45.015625 
L 1.765625 51.859375 
L 8.203125 51.859375 
L 8.203125 64.703125 
L 16.9375 69.96875 
L 16.9375 51.859375 
L 25.78125 51.859375 
L 25.78125 45.015625 
L 16.9375 45.015625 
L 16.9375 14.703125 
Q 16.9375 10.9375 17.40625 9.859375 
Q 17.875 8.796875 18.921875 8.15625 
Q 19.96875 7.515625 21.921875 7.515625 
Q 23.390625 7.515625 25.78125 7.859375 
z
" id="ArialMT-116"/>
      <path d="M 42.09375 16.703125 
L 51.171875 15.578125 
Q 49.03125 7.625 43.21875 3.21875 
Q 37.40625 -1.171875 28.375 -1.171875 
Q 17 -1.171875 10.328125 5.828125 
Q 3.65625 12.84375 3.65625 25.484375 
Q 3.65625 38.578125 10.390625 45.796875 
Q 17.140625 53.03125 27.875 53.03125 
Q 38.28125 53.03125 44.875 45.953125 
Q 51.46875 38.875 51.46875 26.03125 
Q 51.46875 25.25 51.421875 23.6875 
L 12.75 23.6875 
Q 13.234375 15.140625 17.578125 10.59375 
Q 21.921875 6.0625 28.421875 6.0625 
Q 33.25 6.0625 36.671875 8.59375 
Q 40.09375 11.140625 42.09375 16.703125 
z
M 13.234375 30.90625 
L 42.1875 30.90625 
Q 41.609375 37.453125 38.875 40.71875 
Q 34.671875 45.796875 27.984375 45.796875 
Q 21.921875 45.796875 17.796875 41.75 
Q 13.671875 37.703125 13.234375 30.90625 
z
" id="ArialMT-101"/>
      <path d="M 6.5 0 
L 6.5 51.859375 
L 14.40625 51.859375 
L 14.40625 44 
Q 17.4375 49.515625 20 51.265625 
Q 22.5625 53.03125 25.640625 53.03125 
Q 30.078125 53.03125 34.671875 50.203125 
L 31.640625 42.046875 
Q 28.421875 43.953125 25.203125 43.953125 
Q 22.3125 43.953125 20.015625 42.21875 
Q 17.71875 40.484375 16.75 37.40625 
Q 15.28125 32.71875 15.28125 27.15625 
L 15.28125 0 
z
" id="ArialMT-114"/>
      <path id="ArialMT-32"/>
      <path d="M 6.640625 61.46875 
L 6.640625 71.578125 
L 15.4375 71.578125 
L 15.4375 61.46875 
z
M 6.640625 0 
L 6.640625 51.859375 
L 15.4375 51.859375 
L 15.4375 0 
z
" id="ArialMT-105"/>
      <path d="M 40.234375 0 
L 40.234375 6.546875 
Q 35.296875 -1.171875 25.734375 -1.171875 
Q 19.53125 -1.171875 14.328125 2.25 
Q 9.125 5.671875 6.265625 11.796875 
Q 3.421875 17.921875 3.421875 25.875 
Q 3.421875 33.640625 6 39.96875 
Q 8.59375 46.296875 13.765625 49.65625 
Q 18.953125 53.03125 25.34375 53.03125 
Q 30.03125 53.03125 33.6875 51.046875 
Q 37.359375 49.078125 39.65625 45.90625 
L 39.65625 71.578125 
L 48.390625 71.578125 
L 48.390625 0 
z
M 12.453125 25.875 
Q 12.453125 15.921875 16.640625 10.984375 
Q 20.84375 6.0625 26.5625 6.0625 
Q 32.328125 6.0625 36.34375 10.765625 
Q 40.375 15.484375 40.375 25.140625 
Q 40.375 35.796875 36.265625 40.765625 
Q 32.171875 45.75 26.171875 45.75 
Q 20.3125 45.75 16.375 40.96875 
Q 12.453125 36.1875 12.453125 25.875 
z
" id="ArialMT-100"/>
     </defs>
     <g style="fill:#262626;" transform="translate(295.120181 498.939)scale(0.16 -0.16)">
      <use xlink:href="#ArialMT-67"/>
      <use x="72.216797" xlink:href="#ArialMT-111"/>
      <use x="127.832031" xlink:href="#ArialMT-117"/>
      <use x="183.447266" xlink:href="#ArialMT-110"/>
      <use x="239.0625" xlink:href="#ArialMT-116"/>
      <use x="266.845703" xlink:href="#ArialMT-101"/>
      <use x="322.460938" xlink:href="#ArialMT-114"/>
      <use x="355.761719" xlink:href="#ArialMT-32"/>
      <use x="383.544922" xlink:href="#ArialMT-105"/>
      <use x="405.761719" xlink:href="#ArialMT-100"/>
     </g>
    </g>
   </g>
   <g id="matplotlib.axis_2">
    <g id="ytick_1">
     <g id="text_7">
      <!-- −250 -->
      <defs>
       <path d="M 52.828125 31.203125 
L 5.5625 31.203125 
L 5.5625 39.40625 
L 52.828125 39.40625 
z
" id="ArialMT-8722"/>
      </defs>
      <g style="fill:#262626;" transform="translate(28.8 459.346385)scale(0.16 -0.16)">
       <use xlink:href="#ArialMT-8722"/>
       <use x="58.398438" xlink:href="#ArialMT-50"/>
       <use x="114.013672" xlink:href="#ArialMT-53"/>
       <use x="169.628906" xlink:href="#ArialMT-48"/>
      </g>
     </g>
    </g>
    <g id="ytick_2">
     <g id="text_8">
      <!-- 0 -->
      <g style="fill:#262626;" transform="translate(55.94 402.762414)scale(0.16 -0.16)">
       <use xlink:href="#ArialMT-48"/>
      </g>
     </g>
    </g>
    <g id="ytick_3">
     <g id="text_9">
      <!-- 250 -->
      <g style="fill:#262626;" transform="translate(38.145 346.178444)scale(0.16 -0.16)">
       <use xlink:href="#ArialMT-50"/>
       <use x="55.615234" xlink:href="#ArialMT-53"/>
       <use x="111.230469" xlink:href="#ArialMT-48"/>
      </g>
     </g>
    </g>
    <g id="ytick_4">
     <g id="text_10">
      <!-- 500 -->
      <g style="fill:#262626;" transform="translate(38.145 289.594473)scale(0.16 -0.16)">
       <use xlink:href="#ArialMT-53"/>
       <use x="55.615234" xlink:href="#ArialMT-48"/>
       <use x="111.230469" xlink:href="#ArialMT-48"/>
      </g>
     </g>
    </g>
    <g id="ytick_5">
     <g id="text_11">
      <!-- 750 -->
      <g style="fill:#262626;" transform="translate(38.145 233.010502)scale(0.16 -0.16)">
       <use xlink:href="#ArialMT-55"/>
       <use x="55.615234" xlink:href="#ArialMT-53"/>
       <use x="111.230469" xlink:href="#ArialMT-48"/>
      </g>
     </g>
    </g>
    <g id="ytick_6">
     <g id="text_12">
      <!-- 1000 -->
      <g style="fill:#262626;" transform="translate(29.2475 176.426531)scale(0.16 -0.16)">
       <use xlink:href="#ArialMT-49"/>
       <use x="55.615234" xlink:href="#ArialMT-48"/>
       <use x="111.230469" xlink:href="#ArialMT-48"/>
       <use x="166.845703" xlink:href="#ArialMT-48"/>
      </g>
     </g>
    </g>
    <g id="ytick_7">
     <g id="text_13">
      <!-- 1250 -->
      <g style="fill:#262626;" transform="translate(29.2475 119.84256)scale(0.16 -0.16)">
       <use xlink:href="#ArialMT-49"/>
       <use x="55.615234" xlink:href="#ArialMT-50"/>
       <use x="111.230469" xlink:href="#ArialMT-53"/>
       <use x="166.845703" xlink:href="#ArialMT-48"/>
      </g>
     </g>
    </g>
    <g id="ytick_8">
     <g id="text_14">
      <!-- 1500 -->
      <g style="fill:#262626;" transform="translate(29.2475 63.258589)scale(0.16 -0.16)">
       <use xlink:href="#ArialMT-49"/>
       <use x="55.615234" xlink:href="#ArialMT-53"/>
       <use x="111.230469" xlink:href="#ArialMT-48"/>
       <use x="166.845703" xlink:href="#ArialMT-48"/>
      </g>
     </g>
    </g>
    <g id="text_15">
     <!-- Count [$h^{-1}$] -->
     <defs>
      <path d="M 6.78125 -19.875 
L 6.78125 71.578125 
L 26.171875 71.578125 
L 26.171875 64.3125 
L 15.578125 64.3125 
L 15.578125 -12.59375 
L 26.171875 -12.59375 
L 26.171875 -19.875 
z
" id="ArialMT-91"/>
      <path d="M 55.71875 33.015625 
L 49.3125 0 
L 40.28125 0 
L 46.6875 32.671875 
Q 47.125 34.96875 47.359375 36.71875 
Q 47.609375 38.484375 47.609375 39.5 
Q 47.609375 43.609375 45.015625 45.890625 
Q 42.4375 48.1875 37.796875 48.1875 
Q 30.5625 48.1875 25.265625 43.296875 
Q 19.96875 38.421875 18.40625 30.328125 
L 12.5 0 
L 3.515625 0 
L 18.3125 75.984375 
L 27.296875 75.984375 
L 21.484375 46.09375 
Q 24.90625 50.6875 30.21875 53.34375 
Q 35.546875 56 41.40625 56 
Q 48.640625 56 52.609375 52.09375 
Q 56.59375 48.1875 56.59375 41.109375 
Q 56.59375 39.359375 56.375 37.359375 
Q 56.15625 35.359375 55.71875 33.015625 
z
" id="DejaVuSans-Oblique-104"/>
      <path d="M 10.59375 35.5 
L 73.1875 35.5 
L 73.1875 27.203125 
L 10.59375 27.203125 
z
" id="DejaVuSans-8722"/>
      <path d="M 12.40625 8.296875 
L 28.515625 8.296875 
L 28.515625 63.921875 
L 10.984375 60.40625 
L 10.984375 69.390625 
L 28.421875 72.90625 
L 38.28125 72.90625 
L 38.28125 8.296875 
L 54.390625 8.296875 
L 54.390625 0 
L 12.40625 0 
z
" id="DejaVuSans-49"/>
      <path d="M 21.296875 -19.875 
L 1.90625 -19.875 
L 1.90625 -12.59375 
L 12.5 -12.59375 
L 12.5 64.3125 
L 1.90625 64.3125 
L 1.90625 71.578125 
L 21.296875 71.578125 
z
" id="ArialMT-93"/>
     </defs>
     <g style="fill:#262626;" transform="translate(21.6 276.687)rotate(-90)scale(0.16 -0.16)">
      <use transform="translate(0 0.684375)" xlink:href="#ArialMT-67"/>
      <use transform="translate(72.216797 0.684375)" xlink:href="#ArialMT-111"/>
      <use transform="translate(127.832031 0.684375)" xlink:href="#ArialMT-117"/>
      <use transform="translate(183.447266 0.684375)" xlink:href="#ArialMT-110"/>
      <use transform="translate(239.0625 0.684375)" xlink:href="#ArialMT-116"/>
      <use transform="translate(266.845703 0.684375)" xlink:href="#ArialMT-32"/>
      <use transform="translate(294.628906 0.684375)" xlink:href="#ArialMT-91"/>
      <use transform="translate(322.412109 0.684375)" xlink:href="#DejaVuSans-Oblique-104"/>
      <use transform="translate(393.238724 38.965625)scale(0.7)" xlink:href="#DejaVuSans-8722"/>
      <use transform="translate(451.891068 38.965625)scale(0.7)" xlink:href="#DejaVuSans-49"/>
      <use transform="translate(499.161576 0.684375)" xlink:href="#ArialMT-93"/>
     </g>
    </g>
   </g>
   <g id="PolyCollection_1">
    <defs>
     <path d="M 104.357018 -105.310102 
L 101.763626 -105.310102 
L 100.957443 -106.136832 
L 99.82609 -106.963562 
L 98.33972 -107.790291 
L 96.515832 -108.617021 
L 94.432069 -109.44375 
L 92.225027 -110.27048 
L 90.07091 -111.09721 
L 88.150285 -111.923939 
L 86.606181 -112.750669 
L 85.50916 -113.577398 
L 84.841943 -114.404128 
L 84.50954 -115.230858 
L 84.371366 -116.057587 
L 84.283716 -116.884317 
L 84.137903 -117.711047 
L 83.882391 -118.537776 
L 83.524467 -119.364506 
L 83.114898 -120.191235 
L 82.724173 -121.017965 
L 82.419822 -121.844695 
L 82.2514 -122.671424 
L 82.245107 -123.498154 
L 82.40596 -124.324883 
L 82.723436 -125.151613 
L 83.176921 -125.978343 
L 83.739142 -126.805072 
L 84.377806 -127.631802 
L 85.056825 -128.458531 
L 85.738362 -129.285261 
L 86.38609 -130.111991 
L 86.969064 -130.93872 
L 87.465263 -131.76545 
L 87.864033 -132.592179 
L 88.167141 -133.418909 
L 88.388419 -134.245639 
L 88.552017 -135.072368 
L 88.689185 -135.899098 
L 88.833696 -136.725828 
L 89.016444 -137.552557 
L 89.260338 -138.379287 
L 89.576827 -139.206016 
L 89.965068 -140.032746 
L 90.413993 -140.859476 
L 90.906543 -141.686205 
L 91.424709 -142.512935 
L 91.953855 -143.339664 
L 92.485169 -144.166394 
L 93.015854 -144.993124 
L 93.547397 -145.819853 
L 94.082847 -146.646583 
L 94.624227 -147.473312 
L 95.170963 -148.300042 
L 95.719743 -149.126772 
L 96.265614 -149.953501 
L 96.803646 -150.780231 
L 97.330344 -151.606961 
L 97.844129 -152.43369 
L 98.344693 -153.26042 
L 98.831531 -154.087149 
L 99.302359 -154.913879 
L 99.752199 -155.740609 
L 100.173602 -156.567338 
L 100.558014 -157.394068 
L 100.897798 -158.220797 
L 101.188203 -159.047527 
L 101.428666 -159.874257 
L 101.623118 -160.700986 
L 101.779307 -161.527716 
L 101.907398 -162.354445 
L 102.018173 -163.181175 
L 102.121193 -164.007905 
L 102.223275 -164.834634 
L 102.327565 -165.661364 
L 102.433435 -166.488094 
L 102.53723 -167.314823 
L 102.633648 -168.141553 
L 102.717386 -168.968282 
L 102.784581 -169.795012 
L 102.833699 -170.621742 
L 102.865692 -171.448471 
L 102.883494 -172.275201 
L 102.891096 -173.10193 
L 102.892547 -173.92866 
L 102.891179 -174.75539 
L 102.889257 -175.582119 
L 102.888072 -176.408849 
L 102.888316 -177.235578 
L 102.890506 -178.062308 
L 102.895232 -178.889038 
L 102.90314 -179.715767 
L 102.914681 -180.542497 
L 102.929823 -181.369227 
L 102.947888 -182.195956 
L 102.967609 -183.022686 
L 102.987416 -183.849415 
L 103.005795 -184.676145 
L 103.021608 -185.502875 
L 103.034264 -186.329604 
L 103.043709 -187.156334 
L 103.076934 -187.156334 
L 103.076934 -187.156334 
L 103.08638 -186.329604 
L 103.099035 -185.502875 
L 103.114849 -184.676145 
L 103.133227 -183.849415 
L 103.153034 -183.022686 
L 103.172756 -182.195956 
L 103.19082 -181.369227 
L 103.205963 -180.542497 
L 103.217504 -179.715767 
L 103.225411 -178.889038 
L 103.230138 -178.062308 
L 103.232327 -177.235578 
L 103.232571 -176.408849 
L 103.231387 -175.582119 
L 103.229465 -174.75539 
L 103.228096 -173.92866 
L 103.229547 -173.10193 
L 103.237149 -172.275201 
L 103.254951 -171.448471 
L 103.286944 -170.621742 
L 103.336063 -169.795012 
L 103.403258 -168.968282 
L 103.486995 -168.141553 
L 103.583413 -167.314823 
L 103.687208 -166.488094 
L 103.793079 -165.661364 
L 103.897368 -164.834634 
L 103.99945 -164.007905 
L 104.102471 -163.181175 
L 104.213245 -162.354445 
L 104.341336 -161.527716 
L 104.497526 -160.700986 
L 104.691977 -159.874257 
L 104.93244 -159.047527 
L 105.222845 -158.220797 
L 105.562629 -157.394068 
L 105.947042 -156.567338 
L 106.368445 -155.740609 
L 106.818285 -154.913879 
L 107.289113 -154.087149 
L 107.77595 -153.26042 
L 108.276514 -152.43369 
L 108.7903 -151.606961 
L 109.316997 -150.780231 
L 109.85503 -149.953501 
L 110.4009 -149.126772 
L 110.949681 -148.300042 
L 111.496416 -147.473312 
L 112.037796 -146.646583 
L 112.573247 -145.819853 
L 113.104789 -144.993124 
L 113.635475 -144.166394 
L 114.166789 -143.339664 
L 114.695934 -142.512935 
L 115.214101 -141.686205 
L 115.70665 -140.859476 
L 116.155575 -140.032746 
L 116.543817 -139.206016 
L 116.860305 -138.379287 
L 117.1042 -137.552557 
L 117.286947 -136.725828 
L 117.431458 -135.899098 
L 117.568627 -135.072368 
L 117.732224 -134.245639 
L 117.953503 -133.418909 
L 118.256611 -132.592179 
L 118.655381 -131.76545 
L 119.151579 -130.93872 
L 119.734553 -130.111991 
L 120.382281 -129.285261 
L 121.063819 -128.458531 
L 121.742837 -127.631802 
L 122.381502 -126.805072 
L 122.943722 -125.978343 
L 123.397208 -125.151613 
L 123.714684 -124.324883 
L 123.875536 -123.498154 
L 123.869244 -122.671424 
L 123.700821 -121.844695 
L 123.39647 -121.017965 
L 123.005745 -120.191235 
L 122.596176 -119.364506 
L 122.238253 -118.537776 
L 121.982741 -117.711047 
L 121.836927 -116.884317 
L 121.749277 -116.057587 
L 121.611103 -115.230858 
L 121.2787 -114.404128 
L 120.611483 -113.577398 
L 119.514463 -112.750669 
L 117.970358 -111.923939 
L 116.049734 -111.09721 
L 113.895617 -110.27048 
L 111.688574 -109.44375 
L 109.604812 -108.617021 
L 107.780924 -107.790291 
L 106.294554 -106.963562 
L 105.1632 -106.136832 
L 104.357018 -105.310102 
z
" id="ma09256c043" style="stroke:#373737;stroke-width:1.5;"/>
    </defs>
    <g clip-path="url(#pef84d8d4d2)">
     <use style="fill:#2b8e70;stroke:#373737;stroke-width:1.5;" x="0" xlink:href="#ma09256c043" y="509.319"/>
    </g>
   </g>
   <g id="PolyCollection_2">
    <defs>
     <path d="M 145.317898 -102.719715 
L 144.063604 -102.719715 
L 143.659012 -103.804535 
L 143.07121 -104.889356 
L 142.26378 -105.974177 
L 141.216537 -107.058997 
L 139.936446 -108.143818 
L 138.465734 -109.228638 
L 136.883709 -110.313459 
L 135.299892 -111.398279 
L 133.838464 -112.4831 
L 132.616988 -113.567921 
L 131.724726 -114.652741 
L 131.206599 -115.737562 
L 131.057365 -116.822382 
L 131.227415 -117.907203 
L 131.637898 -118.992023 
L 132.200085 -120.076844 
L 132.833071 -121.161664 
L 133.47521 -122.246485 
L 134.087427 -123.331306 
L 134.649541 -124.416126 
L 135.152799 -125.500947 
L 135.592367 -126.585767 
L 135.962557 -127.670588 
L 136.255854 -128.755408 
L 136.465021 -129.840229 
L 136.586518 -130.92505 
L 136.623355 -132.00987 
L 136.586117 -133.094691 
L 136.491842 -134.179511 
L 136.361265 -135.264332 
L 136.215356 -136.349152 
L 136.072058 -137.433973 
L 135.943895 -138.518794 
L 135.836751 -139.603614 
L 135.749897 -140.688435 
L 135.677135 -141.773255 
L 135.608834 -142.858076 
L 135.534454 -143.942896 
L 135.445076 -145.027717 
L 135.335364 -146.112537 
L 135.204544 -147.197358 
L 135.056252 -148.282179 
L 134.897408 -149.366999 
L 134.736559 -150.45182 
L 134.582169 -151.53664 
L 134.441255 -152.621461 
L 134.318598 -153.706281 
L 134.216567 -154.791102 
L 134.135525 -155.875923 
L 134.07473 -156.960743 
L 134.033578 -158.045564 
L 134.013005 -159.130384 
L 134.016706 -160.215205 
L 134.051853 -161.300025 
L 134.129 -162.384846 
L 134.261071 -163.469667 
L 134.461543 -164.554487 
L 134.742138 -165.639308 
L 135.110506 -166.724128 
L 135.568353 -167.808949 
L 136.110426 -168.893769 
L 136.724577 -169.97859 
L 137.392911 -171.06341 
L 138.093821 -172.148231 
L 138.804485 -173.233052 
L 139.503339 -174.317872 
L 140.172053 -175.402693 
L 140.796713 -176.487513 
L 141.368151 -177.572334 
L 141.881554 -178.657154 
L 142.335653 -179.741975 
L 142.731736 -180.826796 
L 143.072715 -181.911616 
L 143.362322 -182.996437 
L 143.604491 -184.081257 
L 143.802937 -185.166078 
L 143.960946 -186.250898 
L 144.081423 -187.335719 
L 144.167163 -188.420539 
L 144.221317 -189.50536 
L 144.247887 -190.590181 
L 144.252125 -191.675001 
L 144.240632 -192.759822 
L 144.221064 -193.844642 
L 144.201438 -194.929463 
L 144.189147 -196.014283 
L 144.189911 -197.099104 
L 144.206936 -198.183925 
L 144.240532 -199.268745 
L 144.288282 -200.353566 
L 144.345747 -201.438386 
L 144.407495 -202.523207 
L 144.468199 -203.608027 
L 144.52352 -204.692848 
L 144.570626 -205.777669 
L 144.608296 -206.862489 
L 144.636685 -207.94731 
L 144.656895 -209.03213 
L 144.670509 -210.116951 
L 144.710992 -210.116951 
L 144.710992 -210.116951 
L 144.724607 -209.03213 
L 144.744817 -207.94731 
L 144.773205 -206.862489 
L 144.810876 -205.777669 
L 144.857982 -204.692848 
L 144.913302 -203.608027 
L 144.974006 -202.523207 
L 145.035755 -201.438386 
L 145.093219 -200.353566 
L 145.140969 -199.268745 
L 145.174565 -198.183925 
L 145.191591 -197.099104 
L 145.192354 -196.014283 
L 145.180064 -194.929463 
L 145.160438 -193.844642 
L 145.14087 -192.759822 
L 145.129376 -191.675001 
L 145.133614 -190.590181 
L 145.160185 -189.50536 
L 145.214338 -188.420539 
L 145.300079 -187.335719 
L 145.420555 -186.250898 
L 145.578565 -185.166078 
L 145.77701 -184.081257 
L 146.01918 -182.996437 
L 146.308787 -181.911616 
L 146.649765 -180.826796 
L 147.045849 -179.741975 
L 147.499948 -178.657154 
L 148.013351 -177.572334 
L 148.584789 -176.487513 
L 149.209449 -175.402693 
L 149.878163 -174.317872 
L 150.577016 -173.233052 
L 151.28768 -172.148231 
L 151.988591 -171.06341 
L 152.656925 -169.97859 
L 153.271075 -168.893769 
L 153.813148 -167.808949 
L 154.270995 -166.724128 
L 154.639363 -165.639308 
L 154.919959 -164.554487 
L 155.120431 -163.469667 
L 155.252502 -162.384846 
L 155.329649 -161.300025 
L 155.364795 -160.215205 
L 155.368497 -159.130384 
L 155.347923 -158.045564 
L 155.306772 -156.960743 
L 155.245976 -155.875923 
L 155.164935 -154.791102 
L 155.062904 -153.706281 
L 154.940246 -152.621461 
L 154.799332 -151.53664 
L 154.644942 -150.45182 
L 154.484094 -149.366999 
L 154.32525 -148.282179 
L 154.176957 -147.197358 
L 154.046138 -146.112537 
L 153.936426 -145.027717 
L 153.847048 -143.942896 
L 153.772668 -142.858076 
L 153.704366 -141.773255 
L 153.631605 -140.688435 
L 153.544751 -139.603614 
L 153.437607 -138.518794 
L 153.309443 -137.433973 
L 153.166146 -136.349152 
L 153.020237 -135.264332 
L 152.88966 -134.179511 
L 152.795384 -133.094691 
L 152.758146 -132.00987 
L 152.794983 -130.92505 
L 152.91648 -129.840229 
L 153.125647 -128.755408 
L 153.418945 -127.670588 
L 153.789135 -126.585767 
L 154.228702 -125.500947 
L 154.731961 -124.416126 
L 155.294075 -123.331306 
L 155.906292 -122.246485 
L 156.548431 -121.161664 
L 157.181417 -120.076844 
L 157.743604 -118.992023 
L 158.154086 -117.907203 
L 158.324136 -116.822382 
L 158.174903 -115.737562 
L 157.656776 -114.652741 
L 156.764514 -113.567921 
L 155.543038 -112.4831 
L 154.08161 -111.398279 
L 152.497792 -110.313459 
L 150.915767 -109.228638 
L 149.445056 -108.143818 
L 148.164965 -107.058997 
L 147.117722 -105.974177 
L 146.310292 -104.889356 
L 145.72249 -103.804535 
L 145.317898 -102.719715 
z
" id="m9a25009ee1" style="stroke:#373737;stroke-width:1.5;"/>
    </defs>
    <g clip-path="url(#pef84d8d4d2)">
     <use style="fill:#be631d;stroke:#373737;stroke-width:1.5;" x="0" xlink:href="#m9a25009ee1" y="509.319"/>
    </g>
   </g>
   <g id="PolyCollection_3">
    <defs>
     <path d="M 208.084759 -92.294057 
L 206.18803 -92.294057 
L 205.674815 -94.261645 
L 204.960328 -96.229234 
L 204.005556 -98.196823 
L 202.781867 -100.164412 
L 201.279253 -102.132001 
L 199.514018 -104.09959 
L 197.534032 -106.067179 
L 195.419712 -108.034768 
L 193.279504 -110.002357 
L 191.239734 -111.969946 
L 189.43002 -113.937535 
L 187.966646 -115.905123 
L 186.936992 -117.872712 
L 186.388041 -119.840301 
L 186.32118 -121.80789 
L 186.694086 -123.775479 
L 187.429 -125.743068 
L 188.425381 -127.710657 
L 189.574297 -129.678246 
L 190.771893 -131.645835 
L 191.92993 -133.613424 
L 192.982309 -135.581013 
L 193.887457 -137.548602 
L 194.627226 -139.51619 
L 195.203287 -141.483779 
L 195.632121 -143.451368 
L 195.939497 -145.418957 
L 196.15513 -147.386546 
L 196.307977 -149.354135 
L 196.422498 -151.321724 
L 196.516118 -153.289313 
L 196.598022 -155.256902 
L 196.669302 -157.224491 
L 196.724317 -159.19208 
L 196.752978 -161.159668 
L 196.74356 -163.127257 
L 196.68558 -165.094846 
L 196.572326 -167.062435 
L 196.402668 -169.030024 
L 196.18192 -170.997613 
L 195.921647 -172.965202 
L 195.638484 -174.932791 
L 195.352155 -176.90038 
L 195.083049 -178.867969 
L 194.849756 -180.835558 
L 194.666998 -182.803147 
L 194.544265 -184.770735 
L 194.485351 -186.738324 
L 194.488762 -188.705913 
L 194.548838 -190.673502 
L 194.657306 -192.641091 
L 194.804959 -194.60868 
L 194.98321 -196.576269 
L 195.185297 -198.543858 
L 195.407049 -200.511447 
L 195.647135 -202.479036 
L 195.906807 -204.446625 
L 196.189193 -206.414214 
L 196.498238 -208.381802 
L 196.837477 -210.349391 
L 197.208868 -212.31698 
L 197.611915 -214.284569 
L 198.043296 -216.252158 
L 198.497062 -218.219747 
L 198.965355 -220.187336 
L 199.439448 -222.154925 
L 199.91081 -224.122514 
L 200.371958 -226.090103 
L 200.816914 -228.057692 
L 201.241275 -230.02528 
L 201.642008 -231.992869 
L 202.017174 -233.960458 
L 202.365751 -235.928047 
L 202.687641 -237.895636 
L 202.983832 -239.863225 
L 203.256582 -241.830814 
L 203.509497 -243.798403 
L 203.747355 -245.765992 
L 203.97565 -247.733581 
L 204.199924 -249.70117 
L 204.424982 -251.668759 
L 204.654188 -253.636347 
L 204.88896 -255.603936 
L 205.128569 -257.571525 
L 205.370286 -259.539114 
L 205.609812 -261.506703 
L 205.84193 -263.474292 
L 206.061234 -265.441881 
L 206.262828 -267.40947 
L 206.442883 -269.377059 
L 206.598994 -271.344648 
L 206.730298 -273.312237 
L 206.837383 -275.279825 
L 206.922033 -277.247414 
L 206.986871 -279.215003 
L 207.03498 -281.182592 
L 207.069549 -283.150181 
L 207.0936 -285.11777 
L 207.109798 -287.085359 
L 207.162991 -287.085359 
L 207.162991 -287.085359 
L 207.179188 -285.11777 
L 207.20324 -283.150181 
L 207.237809 -281.182592 
L 207.285918 -279.215003 
L 207.350756 -277.247414 
L 207.435406 -275.279825 
L 207.542491 -273.312237 
L 207.673795 -271.344648 
L 207.829906 -269.377059 
L 208.009961 -267.40947 
L 208.211554 -265.441881 
L 208.430858 -263.474292 
L 208.662976 -261.506703 
L 208.902503 -259.539114 
L 209.144219 -257.571525 
L 209.383829 -255.603936 
L 209.6186 -253.636347 
L 209.847807 -251.668759 
L 210.072865 -249.70117 
L 210.297138 -247.733581 
L 210.525434 -245.765992 
L 210.763291 -243.798403 
L 211.016207 -241.830814 
L 211.288957 -239.863225 
L 211.585147 -237.895636 
L 211.907038 -235.928047 
L 212.255615 -233.960458 
L 212.630781 -231.992869 
L 213.031513 -230.02528 
L 213.455874 -228.057692 
L 213.900831 -226.090103 
L 214.361979 -224.122514 
L 214.833341 -222.154925 
L 215.307433 -220.187336 
L 215.775727 -218.219747 
L 216.229492 -216.252158 
L 216.660874 -214.284569 
L 217.063921 -212.31698 
L 217.435312 -210.349391 
L 217.774551 -208.381802 
L 218.083596 -206.414214 
L 218.365982 -204.446625 
L 218.625654 -202.479036 
L 218.86574 -200.511447 
L 219.087492 -198.543858 
L 219.289579 -196.576269 
L 219.467829 -194.60868 
L 219.615483 -192.641091 
L 219.723951 -190.673502 
L 219.784027 -188.705913 
L 219.787438 -186.738324 
L 219.728524 -184.770735 
L 219.605791 -182.803147 
L 219.423032 -180.835558 
L 219.18974 -178.867969 
L 218.920634 -176.90038 
L 218.634305 -174.932791 
L 218.351142 -172.965202 
L 218.090869 -170.997613 
L 217.87012 -169.030024 
L 217.700462 -167.062435 
L 217.587209 -165.094846 
L 217.529229 -163.127257 
L 217.51981 -161.159668 
L 217.548472 -159.19208 
L 217.603487 -157.224491 
L 217.674767 -155.256902 
L 217.756671 -153.289313 
L 217.85029 -151.321724 
L 217.964812 -149.354135 
L 218.117659 -147.386546 
L 218.333292 -145.418957 
L 218.640668 -143.451368 
L 219.069502 -141.483779 
L 219.645563 -139.51619 
L 220.385331 -137.548602 
L 221.29048 -135.581013 
L 222.342858 -133.613424 
L 223.500896 -131.645835 
L 224.698491 -129.678246 
L 225.847407 -127.710657 
L 226.843789 -125.743068 
L 227.578703 -123.775479 
L 227.951609 -121.80789 
L 227.884747 -119.840301 
L 227.335797 -117.872712 
L 226.306142 -115.905123 
L 224.842769 -113.937535 
L 223.033055 -111.969946 
L 220.993285 -110.002357 
L 218.853077 -108.034768 
L 216.738757 -106.067179 
L 214.758771 -104.09959 
L 212.993536 -102.132001 
L 211.490921 -100.164412 
L 210.267233 -98.196823 
L 209.31246 -96.229234 
L 208.597973 -94.261645 
L 208.084759 -92.294057 
z
" id="mb9c1ea1b08" style="stroke:#373737;stroke-width:1.5;"/>
    </defs>
    <g clip-path="url(#pef84d8d4d2)">
     <use style="fill:#2b8e70;stroke:#373737;stroke-width:1.5;" x="0" xlink:href="#mb9c1ea1b08" y="509.319"/>
    </g>
   </g>
   <g id="PolyCollection_4">
    <defs>
     <path d="M 249.614811 -87.714099 
L 247.918836 -87.714099 
L 247.405177 -90.421212 
L 246.676847 -93.128326 
L 245.699583 -95.83544 
L 244.461239 -98.542554 
L 242.983631 -101.249668 
L 241.330505 -103.956782 
L 239.607899 -106.663896 
L 237.954579 -109.37101 
L 236.522847 -112.078123 
L 235.453208 -114.785237 
L 234.848764 -117.492351 
L 234.755896 -120.199465 
L 235.156291 -122.906579 
L 235.972124 -125.613693 
L 237.082505 -128.320807 
L 238.346384 -131.027921 
L 239.626007 -133.735034 
L 240.805809 -136.442148 
L 241.803807 -139.149262 
L 242.575062 -141.856376 
L 243.108825 -144.56349 
L 243.421897 -147.270604 
L 243.550627 -149.977718 
L 243.543157 -152.684832 
L 243.452573 -155.391945 
L 243.330933 -158.099059 
L 243.224003 -160.806173 
L 243.166767 -163.513287 
L 243.180146 -166.220401 
L 243.26956 -168.927515 
L 243.42577 -171.634629 
L 243.627955 -174.341742 
L 243.848353 -177.048856 
L 244.057389 -179.75597 
L 244.228131 -182.463084 
L 244.339199 -185.170198 
L 244.375835 -187.877312 
L 244.329385 -190.584426 
L 244.19584 -193.29154 
L 243.974221 -195.998653 
L 243.665415 -198.705767 
L 243.271797 -201.412881 
L 242.797562 -204.119995 
L 242.249465 -206.827109 
L 241.637507 -209.534223 
L 240.975186 -212.241337 
L 240.279107 -214.948451 
L 239.56801 -217.655564 
L 238.861443 -220.362678 
L 238.178449 -223.069792 
L 237.536529 -225.776906 
L 236.951058 -228.48402 
L 236.435126 -231.191134 
L 235.999665 -233.898248 
L 235.653674 -236.605362 
L 235.404418 -239.312475 
L 235.257529 -242.019589 
L 235.217009 -244.726703 
L 235.28515 -247.433817 
L 235.462362 -250.140931 
L 235.746876 -252.848045 
L 236.134335 -255.555159 
L 236.617356 -258.262273 
L 237.185252 -260.969386 
L 237.824139 -263.6765 
L 238.517598 -266.383614 
L 239.247914 -269.090728 
L 239.997692 -271.797842 
L 240.751449 -274.504956 
L 241.496769 -277.21207 
L 242.224675 -279.919184 
L 242.929144 -282.626297 
L 243.60596 -285.333411 
L 244.251343 -288.040525 
L 244.860824 -290.747639 
L 245.428779 -293.454753 
L 245.948735 -296.161867 
L 246.41434 -298.868981 
L 246.82066 -301.576095 
L 247.165368 -304.283208 
L 247.44949 -306.990322 
L 247.677493 -309.697436 
L 247.856725 -312.40455 
L 247.996364 -315.111664 
L 248.106152 -317.818778 
L 248.195176 -320.525892 
L 248.270936 -323.233006 
L 248.338815 -325.940119 
L 248.401989 -328.647233 
L 248.461701 -331.354347 
L 248.517781 -334.061461 
L 248.569273 -336.768575 
L 248.615016 -339.475689 
L 248.654092 -342.182803 
L 248.686081 -344.889917 
L 248.711129 -347.59703 
L 248.729871 -350.304144 
L 248.743264 -353.011258 
L 248.752402 -355.718372 
L 248.781245 -355.718372 
L 248.781245 -355.718372 
L 248.790383 -353.011258 
L 248.803776 -350.304144 
L 248.822518 -347.59703 
L 248.847566 -344.889917 
L 248.879555 -342.182803 
L 248.91863 -339.475689 
L 248.964373 -336.768575 
L 249.015865 -334.061461 
L 249.071946 -331.354347 
L 249.131657 -328.647233 
L 249.194832 -325.940119 
L 249.262711 -323.233006 
L 249.338471 -320.525892 
L 249.427494 -317.818778 
L 249.537282 -315.111664 
L 249.676922 -312.40455 
L 249.856154 -309.697436 
L 250.084157 -306.990322 
L 250.368279 -304.283208 
L 250.712987 -301.576095 
L 251.119306 -298.868981 
L 251.584912 -296.161867 
L 252.104867 -293.454753 
L 252.672822 -290.747639 
L 253.282304 -288.040525 
L 253.927686 -285.333411 
L 254.604503 -282.626297 
L 255.308972 -279.919184 
L 256.036878 -277.21207 
L 256.782198 -274.504956 
L 257.535955 -271.797842 
L 258.285733 -269.090728 
L 259.016049 -266.383614 
L 259.709507 -263.6765 
L 260.348394 -260.969386 
L 260.916291 -258.262273 
L 261.399312 -255.555159 
L 261.78677 -252.848045 
L 262.071285 -250.140931 
L 262.248497 -247.433817 
L 262.316638 -244.726703 
L 262.276117 -242.019589 
L 262.129228 -239.312475 
L 261.879973 -236.605362 
L 261.533982 -233.898248 
L 261.09852 -231.191134 
L 260.582589 -228.48402 
L 259.997118 -225.776906 
L 259.355197 -223.069792 
L 258.672203 -220.362678 
L 257.965637 -217.655564 
L 257.254539 -214.948451 
L 256.558461 -212.241337 
L 255.89614 -209.534223 
L 255.284182 -206.827109 
L 254.736085 -204.119995 
L 254.26185 -201.412881 
L 253.868231 -198.705767 
L 253.559426 -195.998653 
L 253.337807 -193.29154 
L 253.204262 -190.584426 
L 253.157812 -187.877312 
L 253.194448 -185.170198 
L 253.305515 -182.463084 
L 253.476258 -179.75597 
L 253.685294 -177.048856 
L 253.905691 -174.341742 
L 254.107876 -171.634629 
L 254.264087 -168.927515 
L 254.353501 -166.220401 
L 254.36688 -163.513287 
L 254.309644 -160.806173 
L 254.202714 -158.099059 
L 254.081074 -155.391945 
L 253.99049 -152.684832 
L 253.98302 -149.977718 
L 254.111749 -147.270604 
L 254.424822 -144.56349 
L 254.958585 -141.856376 
L 255.72984 -139.149262 
L 256.727837 -136.442148 
L 257.90764 -133.735034 
L 259.187263 -131.027921 
L 260.451142 -128.320807 
L 261.561523 -125.613693 
L 262.377356 -122.906579 
L 262.777751 -120.199465 
L 262.684883 -117.492351 
L 262.080438 -114.785237 
L 261.0108 -112.078123 
L 259.579068 -109.37101 
L 257.925747 -106.663896 
L 256.203142 -103.956782 
L 254.550016 -101.249668 
L 253.072408 -98.542554 
L 251.834063 -95.83544 
L 250.856799 -93.128326 
L 250.12847 -90.421212 
L 249.614811 -87.714099 
z
" id="mc9254318ff" style="stroke:#373737;stroke-width:1.5;"/>
    </defs>
    <g clip-path="url(#pef84d8d4d2)">
     <use style="fill:#be631d;stroke:#373737;stroke-width:1.5;" x="0" xlink:href="#mc9254318ff" y="509.319"/>
    </g>
   </g>
   <g id="PolyCollection_5">
    <defs>
     <path d="M 312.083784 -92.188705 
L 310.341149 -92.188705 
L 309.8543 -94.185857 
L 309.170025 -96.183009 
L 308.248138 -98.180161 
L 307.058446 -100.177313 
L 305.589188 -102.174465 
L 303.854868 -104.171617 
L 301.90152 -106.168768 
L 299.807502 -108.16592 
L 297.678652 -110.163072 
L 295.637871 -112.160224 
L 293.810563 -114.157376 
L 292.308556 -116.154528 
L 291.215615 -118.15168 
L 290.577353 -120.148832 
L 290.397252 -122.145983 
L 290.639112 -124.143135 
L 291.234818 -126.140287 
L 292.095457 -128.137439 
L 293.123543 -130.134591 
L 294.224392 -132.131743 
L 295.315319 -134.128895 
L 296.331984 -136.126047 
L 297.231677 -138.123198 
L 297.993662 -140.12035 
L 298.616861 -142.117502 
L 299.115331 -144.114654 
L 299.512191 -146.111806 
L 299.832947 -148.108958 
L 300.099306 -150.10611 
L 300.324606 -152.103261 
L 300.511743 -154.100413 
L 300.653977 -156.097565 
L 300.738378 -158.094717 
L 300.751037 -160.091869 
L 300.682728 -162.089021 
L 300.53358 -164.086173 
L 300.31552 -166.083325 
L 300.051816 -168.080476 
L 299.773789 -170.077628 
L 299.515466 -172.07478 
L 299.307495 -174.071932 
L 299.171795 -176.069084 
L 299.118204 -178.066236 
L 299.143824 -180.063388 
L 299.235038 -182.06054 
L 299.371521 -184.057691 
L 299.531128 -186.054843 
L 299.694446 -188.051995 
L 299.848042 -190.049147 
L 299.98589 -192.046299 
L 300.108992 -194.043451 
L 300.223621 -196.040603 
L 300.338877 -198.037755 
L 300.464232 -200.034906 
L 300.607624 -202.032058 
L 300.774379 -204.02921 
L 300.966986 -206.026362 
L 301.185556 -208.023514 
L 301.428675 -210.020666 
L 301.694326 -212.017818 
L 301.980638 -214.01497 
L 302.286286 -216.012121 
L 302.610505 -218.009273 
L 302.952791 -220.006425 
L 303.312428 -222.003577 
L 303.688026 -224.000729 
L 304.077247 -225.997881 
L 304.476802 -227.995033 
L 304.882723 -229.992185 
L 305.290828 -231.989336 
L 305.6972 -233.986488 
L 306.098537 -235.98364 
L 306.492257 -237.980792 
L 306.876357 -239.977944 
L 307.249112 -241.975096 
L 307.608758 -243.972248 
L 307.95332 -245.9694 
L 308.280646 -247.966551 
L 308.588637 -249.963703 
L 308.875596 -251.960855 
L 309.140535 -253.958007 
L 309.383361 -255.955159 
L 309.60485 -257.952311 
L 309.806458 -259.949463 
L 309.99 -261.946615 
L 310.157321 -263.943766 
L 310.310012 -265.940918 
L 310.449229 -267.93807 
L 310.575647 -269.935222 
L 310.689518 -271.932374 
L 310.790817 -273.929526 
L 310.879433 -275.926678 
L 310.955361 -277.92383 
L 311.018853 -279.920981 
L 311.070514 -281.918133 
L 311.111308 -283.915285 
L 311.142505 -285.912437 
L 311.16557 -287.909589 
L 311.182033 -289.906741 
L 311.2429 -289.906741 
L 311.2429 -289.906741 
L 311.259364 -287.909589 
L 311.282429 -285.912437 
L 311.313626 -283.915285 
L 311.35442 -281.918133 
L 311.406081 -279.920981 
L 311.469573 -277.92383 
L 311.545501 -275.926678 
L 311.634117 -273.929526 
L 311.735416 -271.932374 
L 311.849287 -269.935222 
L 311.975705 -267.93807 
L 312.114922 -265.940918 
L 312.267612 -263.943766 
L 312.434934 -261.946615 
L 312.618476 -259.949463 
L 312.820083 -257.952311 
L 313.041573 -255.955159 
L 313.284398 -253.958007 
L 313.549338 -251.960855 
L 313.836296 -249.963703 
L 314.144288 -247.966551 
L 314.471614 -245.9694 
L 314.816176 -243.972248 
L 315.175822 -241.975096 
L 315.548576 -239.977944 
L 315.932677 -237.980792 
L 316.326397 -235.98364 
L 316.727734 -233.986488 
L 317.134106 -231.989336 
L 317.54221 -229.992185 
L 317.948132 -227.995033 
L 318.347687 -225.997881 
L 318.736908 -224.000729 
L 319.112506 -222.003577 
L 319.472143 -220.006425 
L 319.814429 -218.009273 
L 320.138648 -216.012121 
L 320.444295 -214.01497 
L 320.730607 -212.017818 
L 320.996259 -210.020666 
L 321.239378 -208.023514 
L 321.457948 -206.026362 
L 321.650555 -204.02921 
L 321.81731 -202.032058 
L 321.960702 -200.034906 
L 322.086057 -198.037755 
L 322.201312 -196.040603 
L 322.315942 -194.043451 
L 322.439043 -192.046299 
L 322.576892 -190.049147 
L 322.730488 -188.051995 
L 322.893806 -186.054843 
L 323.053413 -184.057691 
L 323.189896 -182.06054 
L 323.28111 -180.063388 
L 323.30673 -178.066236 
L 323.253139 -176.069084 
L 323.117439 -174.071932 
L 322.909468 -172.07478 
L 322.651145 -170.077628 
L 322.373118 -168.080476 
L 322.109414 -166.083325 
L 321.891353 -164.086173 
L 321.742206 -162.089021 
L 321.673897 -160.091869 
L 321.686555 -158.094717 
L 321.770957 -156.097565 
L 321.913191 -154.100413 
L 322.100328 -152.103261 
L 322.325628 -150.10611 
L 322.591987 -148.108958 
L 322.912743 -146.111806 
L 323.309603 -144.114654 
L 323.808072 -142.117502 
L 324.431272 -140.12035 
L 325.193257 -138.123198 
L 326.092949 -136.126047 
L 327.109615 -134.128895 
L 328.200542 -132.131743 
L 329.301391 -130.134591 
L 330.329477 -128.137439 
L 331.190116 -126.140287 
L 331.785821 -124.143135 
L 332.027681 -122.145983 
L 331.847581 -120.148832 
L 331.209318 -118.15168 
L 330.116378 -116.154528 
L 328.614371 -114.157376 
L 326.787062 -112.160224 
L 324.746282 -110.163072 
L 322.617432 -108.16592 
L 320.523414 -106.168768 
L 318.570066 -104.171617 
L 316.835746 -102.174465 
L 315.366487 -100.177313 
L 314.176796 -98.180161 
L 313.254908 -96.183009 
L 312.570634 -94.185857 
L 312.083784 -92.188705 
z
" id="m1095a8013c" style="stroke:#373737;stroke-width:1.5;"/>
    </defs>
    <g clip-path="url(#pef84d8d4d2)">
     <use style="fill:#2b8e70;stroke:#373737;stroke-width:1.5;" x="0" xlink:href="#m1095a8013c" y="509.319"/>
    </g>
   </g>
   <g id="PolyCollection_6">
    <defs>
     <path d="M 353.697309 -87.059082 
L 351.988483 -87.059082 
L 351.479978 -89.811435 
L 350.763888 -92.563789 
L 349.809414 -95.316143 
L 348.607773 -98.068496 
L 347.183029 -100.82085 
L 345.5988 -103.573204 
L 343.957377 -106.325557 
L 342.389317 -109.077911 
L 341.034269 -111.830264 
L 340.016853 -114.582618 
L 339.423554 -117.334972 
L 339.286944 -120.087325 
L 339.581545 -122.839679 
L 340.232202 -125.592033 
L 341.132001 -128.344386 
L 342.164252 -131.09674 
L 343.222496 -133.849093 
L 344.224052 -136.601447 
L 345.115298 -139.353801 
L 345.869614 -142.106154 
L 346.480739 -144.858508 
L 346.954714 -147.610862 
L 347.303006 -150.363215 
L 347.53816 -153.115569 
L 347.672127 -155.867923 
L 347.716587 -158.620276 
L 347.684208 -161.37263 
L 347.589841 -164.124983 
L 347.450884 -166.877337 
L 347.28648 -169.629691 
L 347.115592 -172.382044 
L 346.954379 -175.134398 
L 346.813556 -177.886752 
L 346.696495 -180.639105 
L 346.598672 -183.391459 
L 346.508725 -186.143812 
L 346.410943 -188.896166 
L 346.288608 -191.64852 
L 346.127386 -194.400873 
L 345.917958 -197.153227 
L 345.657337 -199.905581 
L 345.348708 -202.657934 
L 345.00004 -205.410288 
L 344.622067 -208.162641 
L 344.226389 -210.914995 
L 343.824295 -213.667349 
L 343.426623 -216.419702 
L 343.044513 -219.172056 
L 342.690493 -221.92441 
L 342.37919 -224.676763 
L 342.127044 -227.429117 
L 341.950806 -230.181471 
L 341.865071 -232.933824 
L 341.879526 -235.686178 
L 341.996738 -238.438531 
L 342.211146 -241.190885 
L 342.509559 -243.943239 
L 342.873 -246.695592 
L 343.279409 -249.447946 
L 343.70656 -252.2003 
L 344.13461 -254.952653 
L 344.547917 -257.705007 
L 344.935954 -260.45736 
L 345.293403 -263.209714 
L 345.619573 -265.962068 
L 345.917369 -268.714421 
L 346.19203 -271.466775 
L 346.449858 -274.219129 
L 346.697113 -276.971482 
L 346.939233 -279.723836 
L 347.180455 -282.47619 
L 347.423813 -285.228543 
L 347.671424 -287.980897 
L 347.924899 -290.73325 
L 348.185698 -293.485604 
L 348.455331 -296.237958 
L 348.735318 -298.990311 
L 349.026945 -301.742665 
L 349.330857 -304.495019 
L 349.646599 -307.247372 
L 349.972192 -309.999726 
L 350.303888 -312.752079 
L 350.636175 -315.504433 
L 350.962115 -318.256787 
L 351.273999 -321.00914 
L 351.564222 -323.761494 
L 351.826209 -326.513848 
L 352.055218 -329.266201 
L 352.248815 -332.018555 
L 352.406981 -334.770908 
L 352.531828 -337.523262 
L 352.62705 -340.275616 
L 352.697259 -343.027969 
L 352.747334 -345.780323 
L 352.78191 -348.532677 
L 352.80504 -351.28503 
L 352.820044 -354.037384 
L 352.829484 -356.789738 
L 352.835248 -359.542091 
L 352.850544 -359.542091 
L 352.850544 -359.542091 
L 352.856307 -356.789738 
L 352.865748 -354.037384 
L 352.880752 -351.28503 
L 352.903882 -348.532677 
L 352.938458 -345.780323 
L 352.988533 -343.027969 
L 353.058742 -340.275616 
L 353.153964 -337.523262 
L 353.278811 -334.770908 
L 353.436977 -332.018555 
L 353.630574 -329.266201 
L 353.859583 -326.513848 
L 354.12157 -323.761494 
L 354.411792 -321.00914 
L 354.723677 -318.256787 
L 355.049617 -315.504433 
L 355.381904 -312.752079 
L 355.7136 -309.999726 
L 356.039193 -307.247372 
L 356.354934 -304.495019 
L 356.658847 -301.742665 
L 356.950474 -298.990311 
L 357.230461 -296.237958 
L 357.500094 -293.485604 
L 357.760893 -290.73325 
L 358.014368 -287.980897 
L 358.261979 -285.228543 
L 358.505337 -282.47619 
L 358.746558 -279.723836 
L 358.988679 -276.971482 
L 359.235934 -274.219129 
L 359.493762 -271.466775 
L 359.768423 -268.714421 
L 360.066219 -265.962068 
L 360.392389 -263.209714 
L 360.749838 -260.45736 
L 361.137875 -257.705007 
L 361.551181 -254.952653 
L 361.979232 -252.2003 
L 362.406383 -249.447946 
L 362.812792 -246.695592 
L 363.176233 -243.943239 
L 363.474646 -241.190885 
L 363.689054 -238.438531 
L 363.806266 -235.686178 
L 363.820721 -232.933824 
L 363.734985 -230.181471 
L 363.558748 -227.429117 
L 363.306602 -224.676763 
L 362.995299 -221.92441 
L 362.641278 -219.172056 
L 362.259169 -216.419702 
L 361.861497 -213.667349 
L 361.459403 -210.914995 
L 361.063725 -208.162641 
L 360.685752 -205.410288 
L 360.337083 -202.657934 
L 360.028455 -199.905581 
L 359.767834 -197.153227 
L 359.558406 -194.400873 
L 359.397184 -191.64852 
L 359.274849 -188.896166 
L 359.177067 -186.143812 
L 359.08712 -183.391459 
L 358.989297 -180.639105 
L 358.872236 -177.886752 
L 358.731413 -175.134398 
L 358.5702 -172.382044 
L 358.399312 -169.629691 
L 358.234908 -166.877337 
L 358.095951 -164.124983 
L 358.001584 -161.37263 
L 357.969205 -158.620276 
L 358.013664 -155.867923 
L 358.147632 -153.115569 
L 358.382786 -150.363215 
L 358.731078 -147.610862 
L 359.205053 -144.858508 
L 359.816177 -142.106154 
L 360.570494 -139.353801 
L 361.461739 -136.601447 
L 362.463296 -133.849093 
L 363.52154 -131.09674 
L 364.553791 -128.344386 
L 365.45359 -125.592033 
L 366.104246 -122.839679 
L 366.398848 -120.087325 
L 366.262238 -117.334972 
L 365.668939 -114.582618 
L 364.651523 -111.830264 
L 363.296475 -109.077911 
L 361.728414 -106.325557 
L 360.086992 -103.573204 
L 358.502763 -100.82085 
L 357.078019 -98.068496 
L 355.876378 -95.316143 
L 354.921904 -92.563789 
L 354.205814 -89.811435 
L 353.697309 -87.059082 
z
" id="ma6cdc1ff0e" style="stroke:#373737;stroke-width:1.5;"/>
    </defs>
    <g clip-path="url(#pef84d8d4d2)">
     <use style="fill:#be631d;stroke:#373737;stroke-width:1.5;" x="0" xlink:href="#ma6cdc1ff0e" y="509.319"/>
    </g>
   </g>
   <g id="PolyCollection_7">
    <defs>
     <path d="M 415.605199 -84.792041 
L 414.97188 -84.792041 
L 414.79235 -87.311274 
L 414.532358 -89.830507 
L 414.167457 -92.349741 
L 413.6712 -94.868974 
L 413.017381 -97.388208 
L 412.183121 -99.907441 
L 411.152545 -102.426675 
L 409.920614 -104.945908 
L 408.496476 -107.465142 
L 406.905658 -109.984375 
L 405.19048 -112.503609 
L 403.40831 -115.022842 
L 401.627633 -117.542076 
L 399.922315 -120.061309 
L 398.364817 -122.580543 
L 397.019334 -125.099776 
L 395.935875 -127.61901 
L 395.146098 -130.138243 
L 394.661407 -132.657477 
L 394.473325 -135.17671 
L 394.55584 -137.695944 
L 394.869056 -140.215177 
L 395.363439 -142.73441 
L 395.983977 -145.253644 
L 396.673813 -147.772877 
L 397.377151 -150.292111 
L 398.041545 -152.811344 
L 398.61979 -155.330578 
L 399.071728 -157.849811 
L 399.366156 -160.369045 
L 399.482843 -162.888278 
L 399.414454 -165.407512 
L 399.167986 -167.926745 
L 398.765263 -170.445979 
L 398.242084 -172.965212 
L 397.645829 -175.484446 
L 397.03159 -178.003679 
L 396.457209 -180.522913 
L 395.977849 -183.042146 
L 395.640826 -185.56138 
L 395.481427 -188.080613 
L 395.520239 -190.599846 
L 395.762243 -193.11908 
L 396.197625 -195.638313 
L 396.803986 -198.157547 
L 397.549473 -200.67678 
L 398.396306 -203.196014 
L 399.304265 -205.715247 
L 400.233797 -208.234481 
L 401.148575 -210.753714 
L 402.017464 -213.272948 
L 402.815877 -215.792181 
L 403.526588 -218.311415 
L 404.140014 -220.830648 
L 404.654007 -223.349882 
L 405.073186 -225.869115 
L 405.407862 -228.388349 
L 405.672638 -230.907582 
L 405.88479 -233.426816 
L 406.062539 -235.946049 
L 406.223363 -238.465283 
L 406.382475 -240.984516 
L 406.551618 -243.503749 
L 406.738323 -246.022983 
L 406.945747 -248.542216 
L 407.173137 -251.06145 
L 407.416874 -253.580683 
L 407.671945 -256.099917 
L 407.933542 -258.61915 
L 408.198484 -261.138384 
L 408.466133 -263.657617 
L 408.738604 -266.176851 
L 409.020232 -268.696084 
L 409.316436 -271.215318 
L 409.632281 -273.734551 
L 409.971088 -276.253785 
L 410.333435 -278.773018 
L 410.716747 -281.292252 
L 411.115534 -283.811485 
L 411.52216 -286.330719 
L 411.927923 -288.849952 
L 412.324177 -291.369186 
L 412.703273 -293.888419 
L 413.059159 -296.407652 
L 413.387623 -298.926886 
L 413.686208 -301.446119 
L 413.953929 -303.965353 
L 414.190908 -306.484586 
L 414.398027 -309.00382 
L 414.576669 -311.523053 
L 414.728551 -314.042287 
L 414.855641 -316.56152 
L 414.960118 -319.080754 
L 415.044341 -321.599987 
L 415.110801 -324.119221 
L 415.162052 -326.638454 
L 415.20062 -329.157688 
L 415.228907 -331.676921 
L 415.249106 -334.196155 
L 415.327973 -334.196155 
L 415.327973 -334.196155 
L 415.348172 -331.676921 
L 415.376459 -329.157688 
L 415.415027 -326.638454 
L 415.466278 -324.119221 
L 415.532738 -321.599987 
L 415.616961 -319.080754 
L 415.721438 -316.56152 
L 415.848528 -314.042287 
L 416.00041 -311.523053 
L 416.179052 -309.00382 
L 416.386171 -306.484586 
L 416.62315 -303.965353 
L 416.890871 -301.446119 
L 417.189456 -298.926886 
L 417.51792 -296.407652 
L 417.873806 -293.888419 
L 418.252902 -291.369186 
L 418.649156 -288.849952 
L 419.054919 -286.330719 
L 419.461545 -283.811485 
L 419.860332 -281.292252 
L 420.243644 -278.773018 
L 420.605991 -276.253785 
L 420.944798 -273.734551 
L 421.260642 -271.215318 
L 421.556846 -268.696084 
L 421.838475 -266.176851 
L 422.110946 -263.657617 
L 422.378595 -261.138384 
L 422.643537 -258.61915 
L 422.905134 -256.099917 
L 423.160205 -253.580683 
L 423.403942 -251.06145 
L 423.631332 -248.542216 
L 423.838756 -246.022983 
L 424.025461 -243.503749 
L 424.194603 -240.984516 
L 424.353716 -238.465283 
L 424.51454 -235.946049 
L 424.692289 -233.426816 
L 424.904441 -230.907582 
L 425.169217 -228.388349 
L 425.503893 -225.869115 
L 425.923072 -223.349882 
L 426.437065 -220.830648 
L 427.050491 -218.311415 
L 427.761202 -215.792181 
L 428.559615 -213.272948 
L 429.428504 -210.753714 
L 430.343282 -208.234481 
L 431.272813 -205.715247 
L 432.180773 -203.196014 
L 433.027606 -200.67678 
L 433.773092 -198.157547 
L 434.379454 -195.638313 
L 434.814836 -193.11908 
L 435.05684 -190.599846 
L 435.095652 -188.080613 
L 434.936253 -185.56138 
L 434.59923 -183.042146 
L 434.11987 -180.522913 
L 433.545489 -178.003679 
L 432.93125 -175.484446 
L 432.334995 -172.965212 
L 431.811816 -170.445979 
L 431.409093 -167.926745 
L 431.162625 -165.407512 
L 431.094236 -162.888278 
L 431.210923 -160.369045 
L 431.505351 -157.849811 
L 431.957289 -155.330578 
L 432.535534 -152.811344 
L 433.199928 -150.292111 
L 433.903266 -147.772877 
L 434.593102 -145.253644 
L 435.21364 -142.73441 
L 435.708023 -140.215177 
L 436.021239 -137.695944 
L 436.103754 -135.17671 
L 435.915672 -132.657477 
L 435.43098 -130.138243 
L 434.641204 -127.61901 
L 433.557745 -125.099776 
L 432.212262 -122.580543 
L 430.654764 -120.061309 
L 428.949446 -117.542076 
L 427.168769 -115.022842 
L 425.386599 -112.503609 
L 423.671421 -109.984375 
L 422.080603 -107.465142 
L 420.656465 -104.945908 
L 419.424534 -102.426675 
L 418.393958 -99.907441 
L 417.559698 -97.388208 
L 416.905879 -94.868974 
L 416.409622 -92.349741 
L 416.044721 -89.830507 
L 415.784729 -87.311274 
L 415.605199 -84.792041 
z
" id="m0d2f93df46" style="stroke:#373737;stroke-width:1.5;"/>
    </defs>
    <g clip-path="url(#pef84d8d4d2)">
     <use style="fill:#2b8e70;stroke:#373737;stroke-width:1.5;" x="0" xlink:href="#m0d2f93df46" y="509.319"/>
    </g>
   </g>
   <g id="PolyCollection_8">
    <defs>
     <path d="M 457.438771 -68.131091 
L 456.399166 -68.131091 
L 456.147527 -72.306059 
L 455.807454 -76.481027 
L 455.363826 -80.655994 
L 454.805575 -84.830962 
L 454.128506 -89.00593 
L 453.337909 -93.180898 
L 452.450405 -97.355866 
L 451.494455 -101.530834 
L 450.509158 -105.705802 
L 449.541208 -109.88077 
L 448.640321 -114.055737 
L 447.853782 -118.230705 
L 447.220999 -122.405673 
L 446.769049 -126.580641 
L 446.509997 -130.755609 
L 446.440424 -134.930577 
L 446.543135 -139.105545 
L 446.790575 -143.280512 
L 447.149204 -147.45548 
L 447.58393 -151.630448 
L 448.061861 -155.805416 
L 448.55484 -159.980384 
L 449.040614 -164.155352 
L 449.502763 -168.33032 
L 449.929766 -172.505287 
L 450.313666 -176.680255 
L 450.648763 -180.855223 
L 450.930643 -185.030191 
L 451.155695 -189.205159 
L 451.321062 -193.380127 
L 451.424905 -197.555095 
L 451.466756 -201.730062 
L 451.44779 -205.90503 
L 451.37087 -210.079998 
L 451.240358 -214.254966 
L 451.061721 -218.429934 
L 450.841079 -222.604902 
L 450.584815 -226.77987 
L 450.299365 -230.954837 
L 449.991254 -235.129805 
L 449.66733 -239.304773 
L 449.33512 -243.479741 
L 449.003156 -247.654709 
L 448.681123 -251.829677 
L 448.379723 -256.004645 
L 448.110211 -260.179612 
L 447.883653 -264.35458 
L 447.710012 -268.529548 
L 447.597215 -272.704516 
L 447.550344 -276.879484 
L 447.571072 -281.054452 
L 447.657379 -285.22942 
L 447.803568 -289.404388 
L 448.000506 -293.579355 
L 448.236092 -297.754323 
L 448.495869 -301.929291 
L 448.763816 -306.104259 
L 449.023301 -310.279227 
L 449.258207 -314.454195 
L 449.454204 -318.629163 
L 449.600074 -322.80413 
L 449.688952 -326.979098 
L 449.719323 -331.154066 
L 449.695563 -335.329034 
L 449.627902 -339.504002 
L 449.531713 -343.67897 
L 449.426145 -347.853938 
L 449.332231 -352.028905 
L 449.270687 -356.203873 
L 449.259691 -360.378841 
L 449.312943 -364.553809 
L 449.438283 -368.728777 
L 449.637074 -372.903745 
L 449.904413 -377.078713 
L 450.230142 -381.25368 
L 450.600476 -385.428648 
L 450.999977 -389.603616 
L 451.413568 -393.778584 
L 451.828262 -397.953552 
L 452.234363 -402.12852 
L 452.625985 -406.303488 
L 453.000872 -410.478455 
L 453.359614 -414.653423 
L 453.704484 -418.828391 
L 454.038151 -423.003359 
L 454.362534 -427.178327 
L 454.678026 -431.353295 
L 454.983186 -435.528263 
L 455.274922 -439.70323 
L 455.549055 -443.878198 
L 455.8011 -448.053166 
L 456.027068 -452.228134 
L 456.224127 -456.403102 
L 456.390995 -460.57807 
L 456.528044 -464.753038 
L 456.637134 -468.928006 
L 456.721251 -473.102973 
L 456.784066 -477.277941 
L 456.829487 -481.452909 
L 457.00845 -481.452909 
L 457.00845 -481.452909 
L 457.053871 -477.277941 
L 457.116686 -473.102973 
L 457.200803 -468.928006 
L 457.309893 -464.753038 
L 457.446942 -460.57807 
L 457.61381 -456.403102 
L 457.810869 -452.228134 
L 458.036837 -448.053166 
L 458.288882 -443.878198 
L 458.563015 -439.70323 
L 458.854751 -435.528263 
L 459.159911 -431.353295 
L 459.475403 -427.178327 
L 459.799786 -423.003359 
L 460.133453 -418.828391 
L 460.478323 -414.653423 
L 460.837065 -410.478455 
L 461.211952 -406.303488 
L 461.603574 -402.12852 
L 462.009675 -397.953552 
L 462.424369 -393.778584 
L 462.83796 -389.603616 
L 463.237461 -385.428648 
L 463.607795 -381.25368 
L 463.933524 -377.078713 
L 464.200863 -372.903745 
L 464.399654 -368.728777 
L 464.524994 -364.553809 
L 464.578246 -360.378841 
L 464.56725 -356.203873 
L 464.505706 -352.028905 
L 464.411792 -347.853938 
L 464.306224 -343.67897 
L 464.210035 -339.504002 
L 464.142374 -335.329034 
L 464.118614 -331.154066 
L 464.148985 -326.979098 
L 464.237863 -322.80413 
L 464.383733 -318.629163 
L 464.57973 -314.454195 
L 464.814636 -310.279227 
L 465.074121 -306.104259 
L 465.342068 -301.929291 
L 465.601845 -297.754323 
L 465.837431 -293.579355 
L 466.034369 -289.404388 
L 466.180558 -285.22942 
L 466.266865 -281.054452 
L 466.287593 -276.879484 
L 466.240722 -272.704516 
L 466.127925 -268.529548 
L 465.954284 -264.35458 
L 465.727726 -260.179612 
L 465.458214 -256.004645 
L 465.156814 -251.829677 
L 464.834781 -247.654709 
L 464.502817 -243.479741 
L 464.170607 -239.304773 
L 463.846683 -235.129805 
L 463.538572 -230.954837 
L 463.253122 -226.77987 
L 462.996858 -222.604902 
L 462.776216 -218.429934 
L 462.597579 -214.254966 
L 462.467067 -210.079998 
L 462.390147 -205.90503 
L 462.371181 -201.730062 
L 462.413032 -197.555095 
L 462.516875 -193.380127 
L 462.682242 -189.205159 
L 462.907294 -185.030191 
L 463.189174 -180.855223 
L 463.52427 -176.680255 
L 463.908171 -172.505287 
L 464.335174 -168.33032 
L 464.797323 -164.155352 
L 465.283097 -159.980384 
L 465.776076 -155.805416 
L 466.254007 -151.630448 
L 466.688733 -147.45548 
L 467.047362 -143.280512 
L 467.294802 -139.105545 
L 467.397513 -134.930577 
L 467.32794 -130.755609 
L 467.068888 -126.580641 
L 466.616938 -122.405673 
L 465.984155 -118.230705 
L 465.197616 -114.055737 
L 464.296729 -109.88077 
L 463.328779 -105.705802 
L 462.343482 -101.530834 
L 461.387532 -97.355866 
L 460.500028 -93.180898 
L 459.709431 -89.00593 
L 459.032362 -84.830962 
L 458.474111 -80.655994 
L 458.030483 -76.481027 
L 457.69041 -72.306059 
L 457.438771 -68.131091 
z
" id="mf202aa2188" style="stroke:#373737;stroke-width:1.5;"/>
    </defs>
    <g clip-path="url(#pef84d8d4d2)">
     <use style="fill:#be631d;stroke:#373737;stroke-width:1.5;" x="0" xlink:href="#mf202aa2188" y="509.319"/>
    </g>
   </g>
   <g id="PolyCollection_9">
    <defs>
     <path d="M 520.30796 -99.501669 
L 518.421264 -99.501669 
L 518.005143 -100.546334 
L 517.452451 -101.590999 
L 516.739097 -102.635665 
L 515.844764 -103.68033 
L 514.75626 -104.724996 
L 513.470998 -105.769661 
L 512.00008 -106.814327 
L 510.370428 -107.858992 
L 508.625417 -108.903657 
L 506.823603 -109.948323 
L 505.035418 -110.992988 
L 503.338009 -112.037654 
L 501.808731 -113.082319 
L 500.518086 -114.126985 
L 499.523031 -115.17165 
L 498.861574 -116.216315 
L 498.549398 -117.260981 
L 498.578932 -118.305646 
L 498.920941 -119.350312 
L 499.528302 -120.394977 
L 500.341369 -121.439643 
L 501.294162 -122.484308 
L 502.320553 -123.528973 
L 503.359755 -124.573639 
L 504.360559 -125.618304 
L 505.284045 -126.66297 
L 506.10465 -127.707635 
L 506.80976 -128.752301 
L 507.398061 -129.796966 
L 507.877044 -130.841632 
L 508.260063 -131.886297 
L 508.563356 -132.930962 
L 508.803371 -133.975628 
L 508.994689 -135.020293 
L 509.148692 -136.064959 
L 509.273039 -137.109624 
L 509.371868 -138.15429 
L 509.446568 -139.198955 
L 509.496897 -140.24362 
L 509.522174 -141.288286 
L 509.522345 -142.332951 
L 509.498721 -143.377617 
L 509.454304 -144.422282 
L 509.393697 -145.466948 
L 509.322635 -146.511613 
L 509.247268 -147.556278 
L 509.173337 -148.600944 
L 509.105369 -149.645609 
L 509.046023 -150.690275 
L 508.99569 -151.73494 
L 508.952382 -152.779606 
L 508.911961 -153.824271 
L 508.868662 -154.868937 
L 508.815888 -155.913602 
L 508.747171 -156.958267 
L 508.657208 -158.002933 
L 508.542833 -159.047598 
L 508.403804 -160.092264 
L 508.243286 -161.136929 
L 508.067957 -162.181595 
L 507.887703 -163.22626 
L 507.714933 -164.270925 
L 507.563606 -165.315591 
L 507.448072 -166.360256 
L 507.381901 -167.404922 
L 507.376807 -168.449587 
L 507.441795 -169.494253 
L 507.582593 -170.538918 
L 507.801389 -171.583583 
L 508.096875 -172.628249 
L 508.464527 -173.672914 
L 508.897096 -174.71758 
L 509.385234 -175.762245 
L 509.918195 -176.806911 
L 510.484568 -177.851576 
L 511.072983 -178.896242 
L 511.672735 -179.940907 
L 512.274287 -180.985572 
L 512.869601 -182.030238 
L 513.452274 -183.074903 
L 514.017487 -184.119569 
L 514.561776 -185.164234 
L 515.082689 -186.2089 
L 515.578396 -187.253565 
L 516.047327 -188.29823 
L 516.487908 -189.342896 
L 516.898435 -190.387561 
L 517.277093 -191.432227 
L 517.622122 -192.476892 
L 517.932047 -193.521558 
L 518.205945 -194.566223 
L 518.443667 -195.610888 
L 518.645975 -196.655554 
L 518.814569 -197.700219 
L 518.951994 -198.744885 
L 519.061465 -199.78955 
L 519.146619 -200.834216 
L 519.211265 -201.878881 
L 519.259139 -202.923547 
L 519.470085 -202.923547 
L 519.470085 -202.923547 
L 519.517959 -201.878881 
L 519.582605 -200.834216 
L 519.66776 -199.78955 
L 519.77723 -198.744885 
L 519.914655 -197.700219 
L 520.083249 -196.655554 
L 520.285557 -195.610888 
L 520.523279 -194.566223 
L 520.797177 -193.521558 
L 521.107102 -192.476892 
L 521.452131 -191.432227 
L 521.83079 -190.387561 
L 522.241316 -189.342896 
L 522.681897 -188.29823 
L 523.150828 -187.253565 
L 523.646535 -186.2089 
L 524.167448 -185.164234 
L 524.711737 -184.119569 
L 525.27695 -183.074903 
L 525.859623 -182.030238 
L 526.454937 -180.985572 
L 527.056489 -179.940907 
L 527.656241 -178.896242 
L 528.244656 -177.851576 
L 528.811029 -176.806911 
L 529.34399 -175.762245 
L 529.832128 -174.71758 
L 530.264697 -173.672914 
L 530.632349 -172.628249 
L 530.927835 -171.583583 
L 531.146631 -170.538918 
L 531.287429 -169.494253 
L 531.352417 -168.449587 
L 531.347323 -167.404922 
L 531.281152 -166.360256 
L 531.165618 -165.315591 
L 531.014291 -164.270925 
L 530.841521 -163.22626 
L 530.661267 -162.181595 
L 530.485938 -161.136929 
L 530.32542 -160.092264 
L 530.186391 -159.047598 
L 530.072017 -158.002933 
L 529.982054 -156.958267 
L 529.913337 -155.913602 
L 529.860562 -154.868937 
L 529.817263 -153.824271 
L 529.776842 -152.779606 
L 529.733534 -151.73494 
L 529.683201 -150.690275 
L 529.623855 -149.645609 
L 529.555887 -148.600944 
L 529.481956 -147.556278 
L 529.406589 -146.511613 
L 529.335527 -145.466948 
L 529.27492 -144.422282 
L 529.230504 -143.377617 
L 529.206879 -142.332951 
L 529.20705 -141.288286 
L 529.232327 -140.24362 
L 529.282656 -139.198955 
L 529.357356 -138.15429 
L 529.456185 -137.109624 
L 529.580532 -136.064959 
L 529.734535 -135.020293 
L 529.925853 -133.975628 
L 530.165868 -132.930962 
L 530.469161 -131.886297 
L 530.85218 -130.841632 
L 531.331163 -129.796966 
L 531.919464 -128.752301 
L 532.624574 -127.707635 
L 533.445179 -126.66297 
L 534.368665 -125.618304 
L 535.369469 -124.573639 
L 536.408671 -123.528973 
L 537.435062 -122.484308 
L 538.387855 -121.439643 
L 539.200922 -120.394977 
L 539.808283 -119.350312 
L 540.150292 -118.305646 
L 540.179827 -117.260981 
L 539.86765 -116.216315 
L 539.206193 -115.17165 
L 538.211138 -114.126985 
L 536.920493 -113.082319 
L 535.391215 -112.037654 
L 533.693806 -110.992988 
L 531.905621 -109.948323 
L 530.103807 -108.903657 
L 528.358796 -107.858992 
L 526.729144 -106.814327 
L 525.258226 -105.769661 
L 523.972964 -104.724996 
L 522.88446 -103.68033 
L 521.990127 -102.635665 
L 521.276773 -101.590999 
L 520.724081 -100.546334 
L 520.30796 -99.501669 
z
" id="mee455b8a99" style="stroke:#373737;stroke-width:1.5;"/>
    </defs>
    <g clip-path="url(#pef84d8d4d2)">
     <use style="fill:#2b8e70;stroke:#373737;stroke-width:1.5;" x="0" xlink:href="#mee455b8a99" y="509.319"/>
    </g>
   </g>
   <g id="PolyCollection_10">
    <defs>
     <path d="M 561.793811 -95.014028 
L 560.196271 -95.014028 
L 559.746082 -96.807784 
L 559.121267 -98.601541 
L 558.29719 -100.395297 
L 557.266312 -102.189054 
L 556.046444 -103.98281 
L 554.686149 -105.776567 
L 553.26482 -107.570323 
L 551.885836 -109.36408 
L 550.662959 -111.157836 
L 549.702193 -112.951593 
L 549.083087 -114.745349 
L 548.844114 -116.539106 
L 548.97596 -118.332862 
L 549.424534 -120.126619 
L 550.102852 -121.920375 
L 550.90861 -123.714132 
L 551.743009 -125.507888 
L 552.526463 -127.301645 
L 553.20813 -129.095401 
L 553.768129 -130.889158 
L 554.213207 -132.682914 
L 554.567998 -134.476671 
L 554.864602 -136.270427 
L 555.133039 -138.064184 
L 555.394423 -139.85794 
L 555.657694 -141.651697 
L 555.919794 -143.445453 
L 556.168482 -145.23921 
L 556.386565 -147.032966 
L 556.556366 -148.826723 
L 556.663446 -150.620479 
L 556.698994 -152.414236 
L 556.660643 -154.207992 
L 556.551794 -156.001749 
L 556.379737 -157.795505 
L 556.153053 -159.589262 
L 555.878891 -161.383018 
L 555.560783 -163.176775 
L 555.197576 -164.970531 
L 554.783913 -166.764288 
L 554.312296 -168.558044 
L 553.776431 -170.351801 
L 553.175133 -172.145557 
L 552.515892 -173.939314 
L 551.817167 -175.73307 
L 551.108683 -177.526827 
L 550.429432 -179.320584 
L 549.823542 -181.11434 
L 549.334681 -182.908097 
L 549.000021 -184.701853 
L 548.844908 -186.49561 
L 548.879304 -188.289366 
L 549.096671 -190.083123 
L 549.475457 -191.876879 
L 549.982782 -193.670636 
L 550.579483 -195.464392 
L 551.225464 -197.258149 
L 551.884366 -199.051905 
L 552.526846 -200.845662 
L 553.13217 -202.639418 
L 553.688273 -204.433175 
L 554.190684 -206.226931 
L 554.640882 -208.020688 
L 555.044573 -209.814444 
L 555.410161 -211.608201 
L 555.747524 -213.401957 
L 556.066994 -215.195714 
L 556.378394 -216.98947 
L 556.690069 -218.783227 
L 557.007927 -220.576983 
L 557.334642 -222.37074 
L 557.669235 -224.164496 
L 558.007163 -225.958253 
L 558.340983 -227.752009 
L 558.661488 -229.545766 
L 558.959133 -231.339522 
L 559.225483 -233.133279 
L 559.45447 -234.927035 
L 559.64325 -236.720792 
L 559.792566 -238.514548 
L 559.906571 -240.308305 
L 559.992161 -242.102061 
L 560.057921 -243.895818 
L 560.112871 -245.689574 
L 560.165203 -247.483331 
L 560.221235 -249.277087 
L 560.284751 -251.070844 
L 560.356816 -252.8646 
L 560.43606 -254.658357 
L 560.519342 -256.452113 
L 560.602604 -258.24587 
L 560.681738 -260.039626 
L 560.753298 -261.833383 
L 560.814945 -263.627139 
L 560.865601 -265.420896 
L 560.905347 -267.214652 
L 560.935152 -269.008409 
L 560.956528 -270.802165 
L 560.971197 -272.595922 
L 561.018885 -272.595922 
L 561.018885 -272.595922 
L 561.033555 -270.802165 
L 561.05493 -269.008409 
L 561.084735 -267.214652 
L 561.124481 -265.420896 
L 561.175137 -263.627139 
L 561.236784 -261.833383 
L 561.308344 -260.039626 
L 561.387478 -258.24587 
L 561.47074 -256.452113 
L 561.554022 -254.658357 
L 561.633267 -252.8646 
L 561.705331 -251.070844 
L 561.768847 -249.277087 
L 561.824879 -247.483331 
L 561.877211 -245.689574 
L 561.932161 -243.895818 
L 561.997921 -242.102061 
L 562.083511 -240.308305 
L 562.197516 -238.514548 
L 562.346832 -236.720792 
L 562.535612 -234.927035 
L 562.764599 -233.133279 
L 563.030949 -231.339522 
L 563.328594 -229.545766 
L 563.649099 -227.752009 
L 563.982919 -225.958253 
L 564.320847 -224.164496 
L 564.65544 -222.37074 
L 564.982155 -220.576983 
L 565.300013 -218.783227 
L 565.611688 -216.98947 
L 565.923089 -215.195714 
L 566.242558 -213.401957 
L 566.579921 -211.608201 
L 566.945509 -209.814444 
L 567.3492 -208.020688 
L 567.799399 -206.226931 
L 568.301809 -204.433175 
L 568.857912 -202.639418 
L 569.463236 -200.845662 
L 570.105716 -199.051905 
L 570.764618 -197.258149 
L 571.410599 -195.464392 
L 572.0073 -193.670636 
L 572.514625 -191.876879 
L 572.893411 -190.083123 
L 573.110778 -188.289366 
L 573.145174 -186.49561 
L 572.990061 -184.701853 
L 572.655401 -182.908097 
L 572.16654 -181.11434 
L 571.56065 -179.320584 
L 570.881399 -177.526827 
L 570.172915 -175.73307 
L 569.47419 -173.939314 
L 568.81495 -172.145557 
L 568.213651 -170.351801 
L 567.677786 -168.558044 
L 567.206169 -166.764288 
L 566.792506 -164.970531 
L 566.4293 -163.176775 
L 566.111191 -161.383018 
L 565.83703 -159.589262 
L 565.610345 -157.795505 
L 565.438288 -156.001749 
L 565.329439 -154.207992 
L 565.291088 -152.414236 
L 565.326636 -150.620479 
L 565.433716 -148.826723 
L 565.603517 -147.032966 
L 565.821601 -145.23921 
L 566.070288 -143.445453 
L 566.332389 -141.651697 
L 566.595659 -139.85794 
L 566.857043 -138.064184 
L 567.125481 -136.270427 
L 567.422084 -134.476671 
L 567.776876 -132.682914 
L 568.221953 -130.889158 
L 568.781952 -129.095401 
L 569.463619 -127.301645 
L 570.247073 -125.507888 
L 571.081472 -123.714132 
L 571.88723 -121.920375 
L 572.565548 -120.126619 
L 573.014122 -118.332862 
L 573.145968 -116.539106 
L 572.906995 -114.745349 
L 572.28789 -112.951593 
L 571.327123 -111.157836 
L 570.104246 -109.36408 
L 568.725262 -107.570323 
L 567.303933 -105.776567 
L 565.943638 -103.98281 
L 564.72377 -102.189054 
L 563.692892 -100.395297 
L 562.868815 -98.601541 
L 562.244 -96.807784 
L 561.793811 -95.014028 
z
" id="md7be6c3920" style="stroke:#373737;stroke-width:1.5;"/>
    </defs>
    <g clip-path="url(#pef84d8d4d2)">
     <use style="fill:#be631d;stroke:#373737;stroke-width:1.5;" x="0" xlink:href="#md7be6c3920" y="509.319"/>
    </g>
   </g>
   <g id="patch_3">
    <path clip-path="url(#pef84d8d4d2)" d="M 123.875536 397.036164 
L 123.875536 397.036164 
L 123.875536 397.036164 
L 123.875536 397.036164 
z
" style="fill:#2b8e70;stroke:#373737;stroke-linejoin:miter;stroke-width:0.75;"/>
   </g>
   <g id="patch_4">
    <path clip-path="url(#pef84d8d4d2)" d="M 123.875536 397.036164 
L 123.875536 397.036164 
L 123.875536 397.036164 
L 123.875536 397.036164 
z
" style="fill:#be631d;stroke:#373737;stroke-linejoin:miter;stroke-width:0.75;"/>
   </g>
   <g id="line2d_1">
    <path clip-path="url(#pef84d8d4d2)" d="M 103.060322 397.036164 
L 103.060322 344.299904 
" style="fill:none;stroke:#373737;stroke-linecap:round;stroke-width:1.5;"/>
   </g>
   <g id="line2d_2">
    <path clip-path="url(#pef84d8d4d2)" d="M 103.060322 390.019752 
L 103.060322 371.403626 
" style="fill:none;stroke:#373737;stroke-linecap:round;stroke-width:4.5;"/>
   </g>
   <g id="line2d_3">
    <path clip-path="url(#pef84d8d4d2)" d="M 144.690751 397.036164 
L 144.690751 308.76517 
" style="fill:none;stroke:#373737;stroke-linecap:round;stroke-width:1.5;"/>
   </g>
   <g id="line2d_4">
    <path clip-path="url(#pef84d8d4d2)" d="M 144.690751 387.077386 
L 144.690751 349.958301 
" style="fill:none;stroke:#373737;stroke-linecap:round;stroke-width:4.5;"/>
   </g>
   <g id="line2d_5">
    <path clip-path="url(#pef84d8d4d2)" d="M 207.136394 396.809829 
L 207.136394 242.448756 
" style="fill:none;stroke:#373737;stroke-linecap:round;stroke-width:1.5;"/>
   </g>
   <g id="line2d_6">
    <path clip-path="url(#pef84d8d4d2)" d="M 207.136394 384.870611 
L 207.136394 312.386544 
" style="fill:none;stroke:#373737;stroke-linecap:round;stroke-width:4.5;"/>
   </g>
   <g id="line2d_7">
    <path clip-path="url(#pef84d8d4d2)" d="M 248.766823 396.809829 
L 248.766823 178.395701 
" style="fill:none;stroke:#373737;stroke-linecap:round;stroke-width:1.5;"/>
   </g>
   <g id="line2d_8">
    <path clip-path="url(#pef84d8d4d2)" d="M 248.766823 380.513645 
L 248.766823 260.329291 
" style="fill:none;stroke:#373737;stroke-linecap:round;stroke-width:4.5;"/>
   </g>
   <g id="line2d_9">
    <path clip-path="url(#pef84d8d4d2)" d="M 311.212467 397.036164 
L 311.212467 239.506389 
" style="fill:none;stroke:#373737;stroke-linecap:round;stroke-width:1.5;"/>
   </g>
   <g id="line2d_10">
    <path clip-path="url(#pef84d8d4d2)" d="M 311.212467 383.682347 
L 311.212467 312.556296 
" style="fill:none;stroke:#373737;stroke-linecap:round;stroke-width:4.5;"/>
   </g>
   <g id="line2d_11">
    <path clip-path="url(#pef84d8d4d2)" d="M 352.842896 396.809829 
L 352.842896 175.226998 
" style="fill:none;stroke:#373737;stroke-linecap:round;stroke-width:1.5;"/>
   </g>
   <g id="line2d_12">
    <path clip-path="url(#pef84d8d4d2)" d="M 352.842896 377.571278 
L 352.842896 264.120417 
" style="fill:none;stroke:#373737;stroke-linecap:round;stroke-width:4.5;"/>
   </g>
   <g id="line2d_13">
    <path clip-path="url(#pef84d8d4d2)" d="M 415.288539 396.809829 
L 415.288539 202.839976 
" style="fill:none;stroke:#373737;stroke-linecap:round;stroke-width:1.5;"/>
   </g>
   <g id="line2d_14">
    <path clip-path="url(#pef84d8d4d2)" d="M 415.288539 368.970515 
L 415.288539 298.636639 
" style="fill:none;stroke:#373737;stroke-linecap:round;stroke-width:4.5;"/>
   </g>
   <g id="line2d_15">
    <path clip-path="url(#pef84d8d4d2)" d="M 456.918968 394.320134 
L 456.918968 74.733866 
" style="fill:none;stroke:#373737;stroke-linecap:round;stroke-width:1.5;"/>
   </g>
   <g id="line2d_16">
    <path clip-path="url(#pef84d8d4d2)" d="M 456.918968 353.579675 
L 456.918968 176.019174 
" style="fill:none;stroke:#373737;stroke-linecap:round;stroke-width:4.5;"/>
   </g>
   <g id="line2d_17">
    <path clip-path="url(#pef84d8d4d2)" d="M 519.364612 397.036164 
L 519.364612 319.17662 
" style="fill:none;stroke:#373737;stroke-linecap:round;stroke-width:1.5;"/>
   </g>
   <g id="line2d_18">
    <path clip-path="url(#pef84d8d4d2)" d="M 519.364612 390.69876 
L 519.364612 345.205247 
" style="fill:none;stroke:#373737;stroke-linecap:round;stroke-width:4.5;"/>
   </g>
   <g id="line2d_19">
    <path clip-path="url(#pef84d8d4d2)" d="M 560.995041 397.036164 
L 560.995041 253.991886 
" style="fill:none;stroke:#373737;stroke-linecap:round;stroke-width:1.5;"/>
   </g>
   <g id="line2d_20">
    <path clip-path="url(#pef84d8d4d2)" d="M 560.995041 385.945706 
L 560.995041 317.535685 
" style="fill:none;stroke:#373737;stroke-linecap:round;stroke-width:4.5;"/>
   </g>
   <g id="patch_5">
    <path d="M 71.8375 461.854 
L 71.8375 7.2 
" style="fill:none;stroke:#262626;stroke-linecap:square;stroke-linejoin:miter;stroke-width:0.8;"/>
   </g>
   <g id="patch_6">
    <path d="M 71.8375 461.854 
L 592.217863 461.854 
" style="fill:none;stroke:#262626;stroke-linecap:square;stroke-linejoin:miter;stroke-width:0.8;"/>
   </g>
   <g id="PathCollection_1">
    <defs>
     <path d="M 0 1.5 
C 0.397805 1.5 0.77937 1.341951 1.06066 1.06066 
C 1.341951 0.77937 1.5 0.397805 1.5 0 
C 1.5 -0.397805 1.341951 -0.77937 1.06066 -1.06066 
C 0.77937 -1.341951 0.397805 -1.5 0 -1.5 
C -0.397805 -1.5 -0.77937 -1.341951 -1.06066 -1.06066 
C -1.341951 -0.77937 -1.5 -0.397805 -1.5 0 
C -1.5 0.397805 -1.341951 0.77937 -1.06066 1.06066 
C -0.77937 1.341951 -0.397805 1.5 0 1.5 
z
" id="md9039775fc" style="stroke:#373737;"/>
    </defs>
    <g clip-path="url(#pef84d8d4d2)">
     <use style="fill:#ffffff;stroke:#373737;" x="103.060322" xlink:href="#md9039775fc" y="382.4375"/>
    </g>
   </g>
   <g id="PathCollection_2">
    <g clip-path="url(#pef84d8d4d2)">
     <use style="fill:#ffffff;stroke:#373737;" x="144.690751" xlink:href="#md9039775fc" y="367.6125"/>
    </g>
   </g>
   <g id="PathCollection_3">
    <g clip-path="url(#pef84d8d4d2)">
     <use style="fill:#ffffff;stroke:#373737;" x="207.136394" xlink:href="#md9039775fc" y="348.487117"/>
    </g>
   </g>
   <g id="PathCollection_4">
    <g clip-path="url(#pef84d8d4d2)">
     <use style="fill:#ffffff;stroke:#373737;" x="248.766823" xlink:href="#md9039775fc" y="293.37433"/>
    </g>
   </g>
   <g id="PathCollection_5">
    <g clip-path="url(#pef84d8d4d2)">
     <use style="fill:#ffffff;stroke:#373737;" x="311.212467" xlink:href="#md9039775fc" y="351.65582"/>
    </g>
   </g>
   <g id="PathCollection_6">
    <g clip-path="url(#pef84d8d4d2)">
     <use style="fill:#ffffff;stroke:#373737;" x="352.842896" xlink:href="#md9039775fc" y="303.106773"/>
    </g>
   </g>
   <g id="PathCollection_7">
    <g clip-path="url(#pef84d8d4d2)">
     <use style="fill:#ffffff;stroke:#373737;" x="415.288539" xlink:href="#md9039775fc" y="327.324712"/>
    </g>
   </g>
   <g id="PathCollection_8">
    <g clip-path="url(#pef84d8d4d2)">
     <use style="fill:#ffffff;stroke:#373737;" x="456.918968" xlink:href="#md9039775fc" y="247.767649"/>
    </g>
   </g>
   <g id="PathCollection_9">
    <g clip-path="url(#pef84d8d4d2)">
     <use style="fill:#ffffff;stroke:#373737;" x="519.364612" xlink:href="#md9039775fc" y="370.554866"/>
    </g>
   </g>
   <g id="PathCollection_10">
    <g clip-path="url(#pef84d8d4d2)">
     <use style="fill:#ffffff;stroke:#373737;" x="560.995041" xlink:href="#md9039775fc" y="337.283491"/>
    </g>
   </g>
  </g>
  <g id="legend_1">
   <g id="text_16">
    <!-- workday -->
    <defs>
     <path d="M 16.15625 0 
L 0.296875 51.859375 
L 9.375 51.859375 
L 17.625 21.921875 
L 20.703125 10.796875 
Q 20.90625 11.625 23.390625 21.484375 
L 31.640625 51.859375 
L 40.671875 51.859375 
L 48.4375 21.78125 
L 51.03125 11.859375 
L 54 21.875 
L 62.890625 51.859375 
L 71.4375 51.859375 
L 55.21875 0 
L 46.09375 0 
L 37.84375 31.0625 
L 35.84375 39.890625 
L 25.34375 0 
z
" id="ArialMT-119"/>
     <path d="M 6.640625 0 
L 6.640625 71.578125 
L 15.4375 71.578125 
L 15.4375 30.765625 
L 36.234375 51.859375 
L 47.609375 51.859375 
L 27.78125 32.625 
L 49.609375 0 
L 38.765625 0 
L 21.625 26.515625 
L 15.4375 20.5625 
L 15.4375 0 
z
" id="ArialMT-107"/>
     <path d="M 40.4375 6.390625 
Q 35.546875 2.25 31.03125 0.53125 
Q 26.515625 -1.171875 21.34375 -1.171875 
Q 12.796875 -1.171875 8.203125 3 
Q 3.609375 7.171875 3.609375 13.671875 
Q 3.609375 17.484375 5.34375 20.625 
Q 7.078125 23.78125 9.890625 25.6875 
Q 12.703125 27.59375 16.21875 28.5625 
Q 18.796875 29.25 24.03125 29.890625 
Q 34.671875 31.15625 39.703125 32.90625 
Q 39.75 34.71875 39.75 35.203125 
Q 39.75 40.578125 37.25 42.78125 
Q 33.890625 45.75 27.25 45.75 
Q 21.046875 45.75 18.09375 43.578125 
Q 15.140625 41.40625 13.71875 35.890625 
L 5.125 37.0625 
Q 6.296875 42.578125 8.984375 45.96875 
Q 11.671875 49.359375 16.75 51.1875 
Q 21.828125 53.03125 28.515625 53.03125 
Q 35.15625 53.03125 39.296875 51.46875 
Q 43.453125 49.90625 45.40625 47.53125 
Q 47.359375 45.171875 48.140625 41.546875 
Q 48.578125 39.3125 48.578125 33.453125 
L 48.578125 21.734375 
Q 48.578125 9.46875 49.140625 6.21875 
Q 49.703125 2.984375 51.375 0 
L 42.1875 0 
Q 40.828125 2.734375 40.4375 6.390625 
z
M 39.703125 26.03125 
Q 34.90625 24.078125 25.34375 22.703125 
Q 19.921875 21.921875 17.671875 20.9375 
Q 15.4375 19.96875 14.203125 18.09375 
Q 12.984375 16.21875 12.984375 13.921875 
Q 12.984375 10.40625 15.640625 8.0625 
Q 18.3125 5.71875 23.4375 5.71875 
Q 28.515625 5.71875 32.46875 7.9375 
Q 36.421875 10.15625 38.28125 14.015625 
Q 39.703125 17 39.703125 22.796875 
z
" id="ArialMT-97"/>
     <path d="M 6.203125 -19.96875 
L 5.21875 -11.71875 
Q 8.109375 -12.5 10.25 -12.5 
Q 13.1875 -12.5 14.9375 -11.515625 
Q 16.703125 -10.546875 17.828125 -8.796875 
Q 18.65625 -7.46875 20.515625 -2.25 
Q 20.75 -1.515625 21.296875 -0.09375 
L 1.609375 51.859375 
L 11.078125 51.859375 
L 21.875 21.828125 
Q 23.96875 16.109375 25.640625 9.8125 
Q 27.15625 15.875 29.25 21.625 
L 40.328125 51.859375 
L 49.125 51.859375 
L 29.390625 -0.875 
Q 26.21875 -9.421875 24.46875 -12.640625 
Q 22.125 -17 19.09375 -19.015625 
Q 16.0625 -21.046875 11.859375 -21.046875 
Q 9.328125 -21.046875 6.203125 -19.96875 
z
" id="ArialMT-121"/>
    </defs>
    <g style="fill:#262626;" transform="translate(670.7905 236.0695)scale(0.16 -0.16)">
     <use xlink:href="#ArialMT-119"/>
     <use x="72.216797" xlink:href="#ArialMT-111"/>
     <use x="127.832031" xlink:href="#ArialMT-114"/>
     <use x="161.132812" xlink:href="#ArialMT-107"/>
     <use x="211.132812" xlink:href="#ArialMT-100"/>
     <use x="266.748047" xlink:href="#ArialMT-97"/>
     <use x="322.363281" xlink:href="#ArialMT-121"/>
    </g>
   </g>
   <g id="patch_7">
    <path d="M 673.72925 258.8895 
L 705.72925 258.8895 
L 705.72925 247.6895 
L 673.72925 247.6895 
z
" style="fill:#2b8e70;stroke:#373737;stroke-linejoin:miter;stroke-width:0.75;"/>
   </g>
   <g id="text_17">
    <!-- 0 -->
    <g style="fill:#262626;" transform="translate(718.52925 258.8895)scale(0.16 -0.16)">
     <use xlink:href="#ArialMT-48"/>
    </g>
   </g>
   <g id="patch_8">
    <path d="M 673.72925 281.522 
L 705.72925 281.522 
L 705.72925 270.322 
L 673.72925 270.322 
z
" style="fill:#be631d;stroke:#373737;stroke-linejoin:miter;stroke-width:0.75;"/>
   </g>
   <g id="text_18">
    <!-- 1 -->
    <g style="fill:#262626;" transform="translate(718.52925 281.522)scale(0.16 -0.16)">
     <use xlink:href="#ArialMT-49"/>
    </g>
   </g>
  </g>
 </g>
 <defs>
  <clipPath id="pef84d8d4d2">
   <rect height="454.654" width="520.380363" x="71.8375" y="7.2"/>
  </clipPath>
 </defs>
</svg>
