<?xml version="1.0" encoding="utf-8" standalone="no"?>
<!DOCTYPE svg PUBLIC "-//W3C//DTD SVG 1.1//EN"
  "http://www.w3.org/Graphics/SVG/1.1/DTD/svg11.dtd">
<!-- Created with matplotlib (https://matplotlib.org/) -->
<svg height="509.319pt" version="1.1" viewBox="0 0 698.72785 509.319" width="698.72785pt" xmlns="http://www.w3.org/2000/svg" xmlns:xlink="http://www.w3.org/1999/xlink">
 <defs>
  <style type="text/css">
*{stroke-linecap:butt;stroke-linejoin:round;white-space:pre;}
  </style>
 </defs>
 <g id="figure_1">
  <g id="patch_1">
   <path d="M 0 509.319 
L 698.72785 509.319 
L 698.72785 0 
L 0 0 
z
" style="fill:#ffffff;"/>
  </g>
  <g id="axes_1">
   <g id="patch_2">
    <path d="M 71.8375 461.854 
L 691.52785 461.854 
L 691.52785 7.2 
L 71.8375 7.2 
z
" style="fill:#ffffff;"/>
   </g>
   <g id="matplotlib.axis_1">
    <g id="xtick_1">
     <g id="text_1">
      <!-- 1038-276-1 -->
      <defs>
       <path d="M 37.25 0 
L 28.46875 0 
L 28.46875 56 
Q 25.296875 52.984375 20.140625 49.953125 
Q 14.984375 46.921875 10.890625 45.40625 
L 10.890625 53.90625 
Q 18.265625 57.375 23.78125 62.296875 
Q 29.296875 67.234375 31.59375 71.875 
L 37.25 71.875 
z
" id="ArialMT-49"/>
       <path d="M 4.15625 35.296875 
Q 4.15625 48 6.765625 55.734375 
Q 9.375 63.484375 14.515625 67.671875 
Q 19.671875 71.875 27.484375 71.875 
Q 33.25 71.875 37.59375 69.546875 
Q 41.9375 67.234375 44.765625 62.859375 
Q 47.609375 58.5 49.21875 52.21875 
Q 50.828125 45.953125 50.828125 35.296875 
Q 50.828125 22.703125 48.234375 14.96875 
Q 45.65625 7.234375 40.5 3 
Q 35.359375 -1.21875 27.484375 -1.21875 
Q 17.140625 -1.21875 11.234375 6.203125 
Q 4.15625 15.140625 4.15625 35.296875 
z
M 13.1875 35.296875 
Q 13.1875 17.671875 17.3125 11.828125 
Q 21.4375 6 27.484375 6 
Q 33.546875 6 37.671875 11.859375 
Q 41.796875 17.71875 41.796875 35.296875 
Q 41.796875 52.984375 37.671875 58.78125 
Q 33.546875 64.59375 27.390625 64.59375 
Q 21.34375 64.59375 17.71875 59.46875 
Q 13.1875 52.9375 13.1875 35.296875 
z
" id="ArialMT-48"/>
       <path d="M 4.203125 18.890625 
L 12.984375 20.0625 
Q 14.5 12.59375 18.140625 9.296875 
Q 21.78125 6 27 6 
Q 33.203125 6 37.46875 10.296875 
Q 41.75 14.59375 41.75 20.953125 
Q 41.75 27 37.796875 30.921875 
Q 33.84375 34.859375 27.734375 34.859375 
Q 25.25 34.859375 21.53125 33.890625 
L 22.515625 41.609375 
Q 23.390625 41.5 23.921875 41.5 
Q 29.546875 41.5 34.03125 44.421875 
Q 38.53125 47.359375 38.53125 53.46875 
Q 38.53125 58.296875 35.25 61.46875 
Q 31.984375 64.65625 26.8125 64.65625 
Q 21.6875 64.65625 18.265625 61.421875 
Q 14.84375 58.203125 13.875 51.765625 
L 5.078125 53.328125 
Q 6.6875 62.15625 12.390625 67.015625 
Q 18.109375 71.875 26.609375 71.875 
Q 32.46875 71.875 37.390625 69.359375 
Q 42.328125 66.84375 44.9375 62.5 
Q 47.5625 58.15625 47.5625 53.265625 
Q 47.5625 48.640625 45.0625 44.828125 
Q 42.578125 41.015625 37.703125 38.765625 
Q 44.046875 37.3125 47.5625 32.6875 
Q 51.078125 28.078125 51.078125 21.140625 
Q 51.078125 11.765625 44.234375 5.25 
Q 37.40625 -1.265625 26.953125 -1.265625 
Q 17.53125 -1.265625 11.296875 4.34375 
Q 5.078125 9.96875 4.203125 18.890625 
z
" id="ArialMT-51"/>
       <path d="M 17.671875 38.8125 
Q 12.203125 40.828125 9.5625 44.53125 
Q 6.9375 48.25 6.9375 53.421875 
Q 6.9375 61.234375 12.546875 66.546875 
Q 18.171875 71.875 27.484375 71.875 
Q 36.859375 71.875 42.578125 66.421875 
Q 48.296875 60.984375 48.296875 53.171875 
Q 48.296875 48.1875 45.671875 44.5 
Q 43.0625 40.828125 37.75 38.8125 
Q 44.34375 36.671875 47.78125 31.875 
Q 51.21875 27.09375 51.21875 20.453125 
Q 51.21875 11.28125 44.71875 5.03125 
Q 38.234375 -1.21875 27.640625 -1.21875 
Q 17.046875 -1.21875 10.546875 5.046875 
Q 4.046875 11.328125 4.046875 20.703125 
Q 4.046875 27.6875 7.59375 32.390625 
Q 11.140625 37.109375 17.671875 38.8125 
z
M 15.921875 53.71875 
Q 15.921875 48.640625 19.1875 45.40625 
Q 22.46875 42.1875 27.6875 42.1875 
Q 32.765625 42.1875 36.015625 45.375 
Q 39.265625 48.578125 39.265625 53.21875 
Q 39.265625 58.0625 35.90625 61.359375 
Q 32.5625 64.65625 27.59375 64.65625 
Q 22.5625 64.65625 19.234375 61.421875 
Q 15.921875 58.203125 15.921875 53.71875 
z
M 13.09375 20.65625 
Q 13.09375 16.890625 14.875 13.375 
Q 16.65625 9.859375 20.171875 7.921875 
Q 23.6875 6 27.734375 6 
Q 34.03125 6 38.125 10.046875 
Q 42.234375 14.109375 42.234375 20.359375 
Q 42.234375 26.703125 38.015625 30.859375 
Q 33.796875 35.015625 27.4375 35.015625 
Q 21.234375 35.015625 17.15625 30.90625 
Q 13.09375 26.8125 13.09375 20.65625 
z
" id="ArialMT-56"/>
       <path d="M 3.171875 21.484375 
L 3.171875 30.328125 
L 30.171875 30.328125 
L 30.171875 21.484375 
z
" id="ArialMT-45"/>
       <path d="M 50.34375 8.453125 
L 50.34375 0 
L 3.03125 0 
Q 2.9375 3.171875 4.046875 6.109375 
Q 5.859375 10.9375 9.828125 15.625 
Q 13.8125 20.3125 21.34375 26.46875 
Q 33.015625 36.03125 37.109375 41.625 
Q 41.21875 47.21875 41.21875 52.203125 
Q 41.21875 57.421875 37.46875 61 
Q 33.734375 64.59375 27.734375 64.59375 
Q 21.390625 64.59375 17.578125 60.78125 
Q 13.765625 56.984375 13.71875 50.25 
L 4.6875 51.171875 
Q 5.609375 61.28125 11.65625 66.578125 
Q 17.71875 71.875 27.9375 71.875 
Q 38.234375 71.875 44.234375 66.15625 
Q 50.25 60.453125 50.25 52 
Q 50.25 47.703125 48.484375 43.546875 
Q 46.734375 39.40625 42.65625 34.8125 
Q 38.578125 30.21875 29.109375 22.21875 
Q 21.1875 15.578125 18.9375 13.203125 
Q 16.703125 10.84375 15.234375 8.453125 
z
" id="ArialMT-50"/>
       <path d="M 4.734375 62.203125 
L 4.734375 70.65625 
L 51.078125 70.65625 
L 51.078125 63.8125 
Q 44.234375 56.546875 37.515625 44.484375 
Q 30.8125 32.421875 27.15625 19.671875 
Q 24.515625 10.6875 23.78125 0 
L 14.75 0 
Q 14.890625 8.453125 18.0625 20.40625 
Q 21.234375 32.375 27.171875 43.484375 
Q 33.109375 54.59375 39.796875 62.203125 
z
" id="ArialMT-55"/>
       <path d="M 49.75 54.046875 
L 41.015625 53.375 
Q 39.84375 58.546875 37.703125 60.890625 
Q 34.125 64.65625 28.90625 64.65625 
Q 24.703125 64.65625 21.53125 62.3125 
Q 17.390625 59.28125 14.984375 53.46875 
Q 12.59375 47.65625 12.5 36.921875 
Q 15.671875 41.75 20.265625 44.09375 
Q 24.859375 46.4375 29.890625 46.4375 
Q 38.671875 46.4375 44.84375 39.96875 
Q 51.03125 33.5 51.03125 23.25 
Q 51.03125 16.5 48.125 10.71875 
Q 45.21875 4.9375 40.140625 1.859375 
Q 35.0625 -1.21875 28.609375 -1.21875 
Q 17.625 -1.21875 10.6875 6.859375 
Q 3.765625 14.9375 3.765625 33.5 
Q 3.765625 54.25 11.421875 63.671875 
Q 18.109375 71.875 29.4375 71.875 
Q 37.890625 71.875 43.28125 67.140625 
Q 48.6875 62.40625 49.75 54.046875 
z
M 13.875 23.1875 
Q 13.875 18.65625 15.796875 14.5 
Q 17.71875 10.359375 21.1875 8.171875 
Q 24.65625 6 28.46875 6 
Q 34.03125 6 38.03125 10.484375 
Q 42.046875 14.984375 42.046875 22.703125 
Q 42.046875 30.125 38.078125 34.390625 
Q 34.125 38.671875 28.125 38.671875 
Q 22.171875 38.671875 18.015625 34.390625 
Q 13.875 30.125 13.875 23.1875 
z
" id="ArialMT-54"/>
      </defs>
      <g style="fill:#262626;" transform="translate(92.889035 480.3065)scale(0.16 -0.16)">
       <use xlink:href="#ArialMT-49"/>
       <use x="55.615234" xlink:href="#ArialMT-48"/>
       <use x="111.230469" xlink:href="#ArialMT-51"/>
       <use x="166.845703" xlink:href="#ArialMT-56"/>
       <use x="222.460938" xlink:href="#ArialMT-45"/>
       <use x="255.761719" xlink:href="#ArialMT-50"/>
       <use x="311.376953" xlink:href="#ArialMT-55"/>
       <use x="366.992188" xlink:href="#ArialMT-54"/>
       <use x="422.607422" xlink:href="#ArialMT-45"/>
       <use x="455.908203" xlink:href="#ArialMT-49"/>
      </g>
     </g>
    </g>
    <g id="xtick_2">
     <g id="text_2">
      <!-- 1935-230 -->
      <defs>
       <path d="M 5.46875 16.546875 
L 13.921875 17.328125 
Q 14.984375 11.375 18.015625 8.6875 
Q 21.046875 6 25.78125 6 
Q 29.828125 6 32.875 7.859375 
Q 35.9375 9.71875 37.890625 12.8125 
Q 39.84375 15.921875 41.15625 21.1875 
Q 42.484375 26.46875 42.484375 31.9375 
Q 42.484375 32.515625 42.4375 33.6875 
Q 39.796875 29.5 35.234375 26.875 
Q 30.671875 24.265625 25.34375 24.265625 
Q 16.453125 24.265625 10.296875 30.703125 
Q 4.15625 37.15625 4.15625 47.703125 
Q 4.15625 58.59375 10.578125 65.234375 
Q 17 71.875 26.65625 71.875 
Q 33.640625 71.875 39.421875 68.109375 
Q 45.21875 64.359375 48.21875 57.390625 
Q 51.21875 50.4375 51.21875 37.25 
Q 51.21875 23.53125 48.234375 15.40625 
Q 45.265625 7.28125 39.375 3.03125 
Q 33.5 -1.21875 25.59375 -1.21875 
Q 17.1875 -1.21875 11.859375 3.4375 
Q 6.546875 8.109375 5.46875 16.546875 
z
M 41.453125 48.140625 
Q 41.453125 55.71875 37.421875 60.15625 
Q 33.40625 64.59375 27.734375 64.59375 
Q 21.875 64.59375 17.53125 59.8125 
Q 13.1875 55.03125 13.1875 47.40625 
Q 13.1875 40.578125 17.3125 36.296875 
Q 21.4375 32.03125 27.484375 32.03125 
Q 33.59375 32.03125 37.515625 36.296875 
Q 41.453125 40.578125 41.453125 48.140625 
z
" id="ArialMT-57"/>
       <path d="M 4.15625 18.75 
L 13.375 19.53125 
Q 14.40625 12.796875 18.140625 9.390625 
Q 21.875 6 27.15625 6 
Q 33.5 6 37.890625 10.78125 
Q 42.28125 15.578125 42.28125 23.484375 
Q 42.28125 31 38.0625 35.34375 
Q 33.84375 39.703125 27 39.703125 
Q 22.75 39.703125 19.328125 37.765625 
Q 15.921875 35.84375 13.96875 32.765625 
L 5.71875 33.84375 
L 12.640625 70.609375 
L 48.25 70.609375 
L 48.25 62.203125 
L 19.671875 62.203125 
L 15.828125 42.96875 
Q 22.265625 47.46875 29.34375 47.46875 
Q 38.71875 47.46875 45.15625 40.96875 
Q 51.609375 34.46875 51.609375 24.265625 
Q 51.609375 14.546875 45.953125 7.46875 
Q 39.0625 -1.21875 27.15625 -1.21875 
Q 17.390625 -1.21875 11.203125 4.25 
Q 5.03125 9.71875 4.15625 18.75 
z
" id="ArialMT-53"/>
      </defs>
      <g style="fill:#262626;" transform="translate(223.939605 480.3065)scale(0.16 -0.16)">
       <use xlink:href="#ArialMT-49"/>
       <use x="55.615234" xlink:href="#ArialMT-57"/>
       <use x="111.230469" xlink:href="#ArialMT-51"/>
       <use x="166.845703" xlink:href="#ArialMT-53"/>
       <use x="222.460938" xlink:href="#ArialMT-45"/>
       <use x="255.761719" xlink:href="#ArialMT-50"/>
       <use x="311.376953" xlink:href="#ArialMT-51"/>
       <use x="366.992188" xlink:href="#ArialMT-48"/>
      </g>
     </g>
    </g>
    <g id="xtick_3">
     <g id="text_3">
      <!-- 1935-230-1 -->
      <g style="fill:#262626;" transform="translate(340.765175 480.3065)scale(0.16 -0.16)">
       <use xlink:href="#ArialMT-49"/>
       <use x="55.615234" xlink:href="#ArialMT-57"/>
       <use x="111.230469" xlink:href="#ArialMT-51"/>
       <use x="166.845703" xlink:href="#ArialMT-53"/>
       <use x="222.460938" xlink:href="#ArialMT-45"/>
       <use x="255.761719" xlink:href="#ArialMT-50"/>
       <use x="311.376953" xlink:href="#ArialMT-51"/>
       <use x="366.992188" xlink:href="#ArialMT-48"/>
       <use x="422.607422" xlink:href="#ArialMT-45"/>
       <use x="455.908203" xlink:href="#ArialMT-49"/>
      </g>
     </g>
    </g>
    <g id="xtick_4">
     <g id="text_4">
      <!-- 1946-230 -->
      <defs>
       <path d="M 32.328125 0 
L 32.328125 17.140625 
L 1.265625 17.140625 
L 1.265625 25.203125 
L 33.9375 71.578125 
L 41.109375 71.578125 
L 41.109375 25.203125 
L 50.78125 25.203125 
L 50.78125 17.140625 
L 41.109375 17.140625 
L 41.109375 0 
z
M 32.328125 25.203125 
L 32.328125 57.46875 
L 9.90625 25.203125 
z
" id="ArialMT-52"/>
      </defs>
      <g style="fill:#262626;" transform="translate(471.815745 480.3065)scale(0.16 -0.16)">
       <use xlink:href="#ArialMT-49"/>
       <use x="55.615234" xlink:href="#ArialMT-57"/>
       <use x="111.230469" xlink:href="#ArialMT-52"/>
       <use x="166.845703" xlink:href="#ArialMT-54"/>
       <use x="222.460938" xlink:href="#ArialMT-45"/>
       <use x="255.761719" xlink:href="#ArialMT-50"/>
       <use x="311.376953" xlink:href="#ArialMT-51"/>
       <use x="366.992188" xlink:href="#ArialMT-48"/>
      </g>
     </g>
    </g>
    <g id="xtick_5">
     <g id="text_5">
      <!-- 1947-211 -->
      <g style="fill:#262626;" transform="translate(595.762565 480.3065)scale(0.16 -0.16)">
       <use xlink:href="#ArialMT-49"/>
       <use x="55.615234" xlink:href="#ArialMT-57"/>
       <use x="111.230469" xlink:href="#ArialMT-52"/>
       <use x="166.845703" xlink:href="#ArialMT-55"/>
       <use x="222.460938" xlink:href="#ArialMT-45"/>
       <use x="255.761719" xlink:href="#ArialMT-50"/>
       <use x="311.376953" xlink:href="#ArialMT-49"/>
       <use x="366.882812" xlink:href="#ArialMT-49"/>
      </g>
     </g>
    </g>
    <g id="text_6">
     <!-- Counter id -->
     <defs>
      <path d="M 58.796875 25.09375 
L 68.265625 22.703125 
Q 65.28125 11.03125 57.546875 4.90625 
Q 49.8125 -1.21875 38.625 -1.21875 
Q 27.046875 -1.21875 19.796875 3.484375 
Q 12.546875 8.203125 8.765625 17.140625 
Q 4.984375 26.078125 4.984375 36.328125 
Q 4.984375 47.515625 9.25 55.828125 
Q 13.53125 64.15625 21.40625 68.46875 
Q 29.296875 72.796875 38.765625 72.796875 
Q 49.515625 72.796875 56.828125 67.328125 
Q 64.15625 61.859375 67.046875 51.953125 
L 57.71875 49.75 
Q 55.21875 57.5625 50.484375 61.125 
Q 45.75 64.703125 38.578125 64.703125 
Q 30.328125 64.703125 24.78125 60.734375 
Q 19.234375 56.78125 16.984375 50.109375 
Q 14.75 43.453125 14.75 36.375 
Q 14.75 27.25 17.40625 20.4375 
Q 20.0625 13.625 25.671875 10.25 
Q 31.296875 6.890625 37.84375 6.890625 
Q 45.796875 6.890625 51.3125 11.46875 
Q 56.84375 16.0625 58.796875 25.09375 
z
" id="ArialMT-67"/>
      <path d="M 3.328125 25.921875 
Q 3.328125 40.328125 11.328125 47.265625 
Q 18.015625 53.03125 27.640625 53.03125 
Q 38.328125 53.03125 45.109375 46.015625 
Q 51.90625 39.015625 51.90625 26.65625 
Q 51.90625 16.65625 48.90625 10.90625 
Q 45.90625 5.171875 40.15625 2 
Q 34.421875 -1.171875 27.640625 -1.171875 
Q 16.75 -1.171875 10.03125 5.8125 
Q 3.328125 12.796875 3.328125 25.921875 
z
M 12.359375 25.921875 
Q 12.359375 15.96875 16.703125 11.015625 
Q 21.046875 6.0625 27.640625 6.0625 
Q 34.1875 6.0625 38.53125 11.03125 
Q 42.875 16.015625 42.875 26.21875 
Q 42.875 35.84375 38.5 40.796875 
Q 34.125 45.75 27.640625 45.75 
Q 21.046875 45.75 16.703125 40.8125 
Q 12.359375 35.890625 12.359375 25.921875 
z
" id="ArialMT-111"/>
      <path d="M 40.578125 0 
L 40.578125 7.625 
Q 34.515625 -1.171875 24.125 -1.171875 
Q 19.53125 -1.171875 15.546875 0.578125 
Q 11.578125 2.34375 9.640625 5 
Q 7.71875 7.671875 6.9375 11.53125 
Q 6.390625 14.109375 6.390625 19.734375 
L 6.390625 51.859375 
L 15.1875 51.859375 
L 15.1875 23.09375 
Q 15.1875 16.21875 15.71875 13.8125 
Q 16.546875 10.359375 19.234375 8.375 
Q 21.921875 6.390625 25.875 6.390625 
Q 29.828125 6.390625 33.296875 8.421875 
Q 36.765625 10.453125 38.203125 13.9375 
Q 39.65625 17.4375 39.65625 24.078125 
L 39.65625 51.859375 
L 48.4375 51.859375 
L 48.4375 0 
z
" id="ArialMT-117"/>
      <path d="M 6.59375 0 
L 6.59375 51.859375 
L 14.5 51.859375 
L 14.5 44.484375 
Q 20.21875 53.03125 31 53.03125 
Q 35.6875 53.03125 39.625 51.34375 
Q 43.5625 49.65625 45.515625 46.921875 
Q 47.46875 44.1875 48.25 40.4375 
Q 48.734375 37.984375 48.734375 31.890625 
L 48.734375 0 
L 39.9375 0 
L 39.9375 31.546875 
Q 39.9375 36.921875 38.90625 39.578125 
Q 37.890625 42.234375 35.28125 43.8125 
Q 32.671875 45.40625 29.15625 45.40625 
Q 23.53125 45.40625 19.453125 41.84375 
Q 15.375 38.28125 15.375 28.328125 
L 15.375 0 
z
" id="ArialMT-110"/>
      <path d="M 25.78125 7.859375 
L 27.046875 0.09375 
Q 23.34375 -0.6875 20.40625 -0.6875 
Q 15.625 -0.6875 12.984375 0.828125 
Q 10.359375 2.34375 9.28125 4.8125 
Q 8.203125 7.28125 8.203125 15.1875 
L 8.203125 45.015625 
L 1.765625 45.015625 
L 1.765625 51.859375 
L 8.203125 51.859375 
L 8.203125 64.703125 
L 16.9375 69.96875 
L 16.9375 51.859375 
L 25.78125 51.859375 
L 25.78125 45.015625 
L 16.9375 45.015625 
L 16.9375 14.703125 
Q 16.9375 10.9375 17.40625 9.859375 
Q 17.875 8.796875 18.921875 8.15625 
Q 19.96875 7.515625 21.921875 7.515625 
Q 23.390625 7.515625 25.78125 7.859375 
z
" id="ArialMT-116"/>
      <path d="M 42.09375 16.703125 
L 51.171875 15.578125 
Q 49.03125 7.625 43.21875 3.21875 
Q 37.40625 -1.171875 28.375 -1.171875 
Q 17 -1.171875 10.328125 5.828125 
Q 3.65625 12.84375 3.65625 25.484375 
Q 3.65625 38.578125 10.390625 45.796875 
Q 17.140625 53.03125 27.875 53.03125 
Q 38.28125 53.03125 44.875 45.953125 
Q 51.46875 38.875 51.46875 26.03125 
Q 51.46875 25.25 51.421875 23.6875 
L 12.75 23.6875 
Q 13.234375 15.140625 17.578125 10.59375 
Q 21.921875 6.0625 28.421875 6.0625 
Q 33.25 6.0625 36.671875 8.59375 
Q 40.09375 11.140625 42.09375 16.703125 
z
M 13.234375 30.90625 
L 42.1875 30.90625 
Q 41.609375 37.453125 38.875 40.71875 
Q 34.671875 45.796875 27.984375 45.796875 
Q 21.921875 45.796875 17.796875 41.75 
Q 13.671875 37.703125 13.234375 30.90625 
z
" id="ArialMT-101"/>
      <path d="M 6.5 0 
L 6.5 51.859375 
L 14.40625 51.859375 
L 14.40625 44 
Q 17.4375 49.515625 20 51.265625 
Q 22.5625 53.03125 25.640625 53.03125 
Q 30.078125 53.03125 34.671875 50.203125 
L 31.640625 42.046875 
Q 28.421875 43.953125 25.203125 43.953125 
Q 22.3125 43.953125 20.015625 42.21875 
Q 17.71875 40.484375 16.75 37.40625 
Q 15.28125 32.71875 15.28125 27.15625 
L 15.28125 0 
z
" id="ArialMT-114"/>
      <path id="ArialMT-32"/>
      <path d="M 6.640625 61.46875 
L 6.640625 71.578125 
L 15.4375 71.578125 
L 15.4375 61.46875 
z
M 6.640625 0 
L 6.640625 51.859375 
L 15.4375 51.859375 
L 15.4375 0 
z
" id="ArialMT-105"/>
      <path d="M 40.234375 0 
L 40.234375 6.546875 
Q 35.296875 -1.171875 25.734375 -1.171875 
Q 19.53125 -1.171875 14.328125 2.25 
Q 9.125 5.671875 6.265625 11.796875 
Q 3.421875 17.921875 3.421875 25.875 
Q 3.421875 33.640625 6 39.96875 
Q 8.59375 46.296875 13.765625 49.65625 
Q 18.953125 53.03125 25.34375 53.03125 
Q 30.03125 53.03125 33.6875 51.046875 
Q 37.359375 49.078125 39.65625 45.90625 
L 39.65625 71.578125 
L 48.390625 71.578125 
L 48.390625 0 
z
M 12.453125 25.875 
Q 12.453125 15.921875 16.640625 10.984375 
Q 20.84375 6.0625 26.5625 6.0625 
Q 32.328125 6.0625 36.34375 10.765625 
Q 40.375 15.484375 40.375 25.140625 
Q 40.375 35.796875 36.265625 40.765625 
Q 32.171875 45.75 26.171875 45.75 
Q 20.3125 45.75 16.375 40.96875 
Q 12.453125 36.1875 12.453125 25.875 
z
" id="ArialMT-100"/>
     </defs>
     <g style="fill:#262626;" transform="translate(344.775175 498.939)scale(0.16 -0.16)">
      <use xlink:href="#ArialMT-67"/>
      <use x="72.216797" xlink:href="#ArialMT-111"/>
      <use x="127.832031" xlink:href="#ArialMT-117"/>
      <use x="183.447266" xlink:href="#ArialMT-110"/>
      <use x="239.0625" xlink:href="#ArialMT-116"/>
      <use x="266.845703" xlink:href="#ArialMT-101"/>
      <use x="322.460938" xlink:href="#ArialMT-114"/>
      <use x="355.761719" xlink:href="#ArialMT-32"/>
      <use x="383.544922" xlink:href="#ArialMT-105"/>
      <use x="405.761719" xlink:href="#ArialMT-100"/>
     </g>
    </g>
   </g>
   <g id="matplotlib.axis_2">
    <g id="ytick_1">
     <g id="text_7">
      <!-- −100 -->
      <defs>
       <path d="M 52.828125 31.203125 
L 5.5625 31.203125 
L 5.5625 39.40625 
L 52.828125 39.40625 
z
" id="ArialMT-8722"/>
      </defs>
      <g style="fill:#262626;" transform="translate(28.8 467.133694)scale(0.16 -0.16)">
       <use xlink:href="#ArialMT-8722"/>
       <use x="58.398438" xlink:href="#ArialMT-49"/>
       <use x="114.013672" xlink:href="#ArialMT-48"/>
       <use x="169.628906" xlink:href="#ArialMT-48"/>
      </g>
     </g>
    </g>
    <g id="ytick_2">
     <g id="text_8">
      <!-- 0 -->
      <g style="fill:#262626;" transform="translate(55.94 412.198962)scale(0.16 -0.16)">
       <use xlink:href="#ArialMT-48"/>
      </g>
     </g>
    </g>
    <g id="ytick_3">
     <g id="text_9">
      <!-- 100 -->
      <g style="fill:#262626;" transform="translate(38.145 357.26423)scale(0.16 -0.16)">
       <use xlink:href="#ArialMT-49"/>
       <use x="55.615234" xlink:href="#ArialMT-48"/>
       <use x="111.230469" xlink:href="#ArialMT-48"/>
      </g>
     </g>
    </g>
    <g id="ytick_4">
     <g id="text_10">
      <!-- 200 -->
      <g style="fill:#262626;" transform="translate(38.145 302.329497)scale(0.16 -0.16)">
       <use xlink:href="#ArialMT-50"/>
       <use x="55.615234" xlink:href="#ArialMT-48"/>
       <use x="111.230469" xlink:href="#ArialMT-48"/>
      </g>
     </g>
    </g>
    <g id="ytick_5">
     <g id="text_11">
      <!-- 300 -->
      <g style="fill:#262626;" transform="translate(38.145 247.394765)scale(0.16 -0.16)">
       <use xlink:href="#ArialMT-51"/>
       <use x="55.615234" xlink:href="#ArialMT-48"/>
       <use x="111.230469" xlink:href="#ArialMT-48"/>
      </g>
     </g>
    </g>
    <g id="ytick_6">
     <g id="text_12">
      <!-- 400 -->
      <g style="fill:#262626;" transform="translate(38.145 192.460033)scale(0.16 -0.16)">
       <use xlink:href="#ArialMT-52"/>
       <use x="55.615234" xlink:href="#ArialMT-48"/>
       <use x="111.230469" xlink:href="#ArialMT-48"/>
      </g>
     </g>
    </g>
    <g id="ytick_7">
     <g id="text_13">
      <!-- 500 -->
      <g style="fill:#262626;" transform="translate(38.145 137.525301)scale(0.16 -0.16)">
       <use xlink:href="#ArialMT-53"/>
       <use x="55.615234" xlink:href="#ArialMT-48"/>
       <use x="111.230469" xlink:href="#ArialMT-48"/>
      </g>
     </g>
    </g>
    <g id="ytick_8">
     <g id="text_14">
      <!-- 600 -->
      <g style="fill:#262626;" transform="translate(38.145 82.590569)scale(0.16 -0.16)">
       <use xlink:href="#ArialMT-54"/>
       <use x="55.615234" xlink:href="#ArialMT-48"/>
       <use x="111.230469" xlink:href="#ArialMT-48"/>
      </g>
     </g>
    </g>
    <g id="ytick_9">
     <g id="text_15">
      <!-- 700 -->
      <g style="fill:#262626;" transform="translate(38.145 27.655836)scale(0.16 -0.16)">
       <use xlink:href="#ArialMT-55"/>
       <use x="55.615234" xlink:href="#ArialMT-48"/>
       <use x="111.230469" xlink:href="#ArialMT-48"/>
      </g>
     </g>
    </g>
    <g id="text_16">
     <!-- Count [$h^{-1}$] -->
     <defs>
      <path d="M 6.78125 -19.875 
L 6.78125 71.578125 
L 26.171875 71.578125 
L 26.171875 64.3125 
L 15.578125 64.3125 
L 15.578125 -12.59375 
L 26.171875 -12.59375 
L 26.171875 -19.875 
z
" id="ArialMT-91"/>
      <path d="M 55.71875 33.015625 
L 49.3125 0 
L 40.28125 0 
L 46.6875 32.671875 
Q 47.125 34.96875 47.359375 36.71875 
Q 47.609375 38.484375 47.609375 39.5 
Q 47.609375 43.609375 45.015625 45.890625 
Q 42.4375 48.1875 37.796875 48.1875 
Q 30.5625 48.1875 25.265625 43.296875 
Q 19.96875 38.421875 18.40625 30.328125 
L 12.5 0 
L 3.515625 0 
L 18.3125 75.984375 
L 27.296875 75.984375 
L 21.484375 46.09375 
Q 24.90625 50.6875 30.21875 53.34375 
Q 35.546875 56 41.40625 56 
Q 48.640625 56 52.609375 52.09375 
Q 56.59375 48.1875 56.59375 41.109375 
Q 56.59375 39.359375 56.375 37.359375 
Q 56.15625 35.359375 55.71875 33.015625 
z
" id="DejaVuSans-Oblique-104"/>
      <path d="M 10.59375 35.5 
L 73.1875 35.5 
L 73.1875 27.203125 
L 10.59375 27.203125 
z
" id="DejaVuSans-8722"/>
      <path d="M 12.40625 8.296875 
L 28.515625 8.296875 
L 28.515625 63.921875 
L 10.984375 60.40625 
L 10.984375 69.390625 
L 28.421875 72.90625 
L 38.28125 72.90625 
L 38.28125 8.296875 
L 54.390625 8.296875 
L 54.390625 0 
L 12.40625 0 
z
" id="DejaVuSans-49"/>
      <path d="M 21.296875 -19.875 
L 1.90625 -19.875 
L 1.90625 -12.59375 
L 12.5 -12.59375 
L 12.5 64.3125 
L 1.90625 64.3125 
L 1.90625 71.578125 
L 21.296875 71.578125 
z
" id="ArialMT-93"/>
     </defs>
     <g style="fill:#262626;" transform="translate(21.6 276.687)rotate(-90)scale(0.16 -0.16)">
      <use transform="translate(0 0.684375)" xlink:href="#ArialMT-67"/>
      <use transform="translate(72.216797 0.684375)" xlink:href="#ArialMT-111"/>
      <use transform="translate(127.832031 0.684375)" xlink:href="#ArialMT-117"/>
      <use transform="translate(183.447266 0.684375)" xlink:href="#ArialMT-110"/>
      <use transform="translate(239.0625 0.684375)" xlink:href="#ArialMT-116"/>
      <use transform="translate(266.845703 0.684375)" xlink:href="#ArialMT-32"/>
      <use transform="translate(294.628906 0.684375)" xlink:href="#ArialMT-91"/>
      <use transform="translate(322.412109 0.684375)" xlink:href="#DejaVuSans-Oblique-104"/>
      <use transform="translate(393.238724 38.965625)scale(0.7)" xlink:href="#DejaVuSans-8722"/>
      <use transform="translate(451.891068 38.965625)scale(0.7)" xlink:href="#DejaVuSans-49"/>
      <use transform="translate(499.161576 0.684375)" xlink:href="#ArialMT-93"/>
     </g>
    </g>
   </g>
   <g id="PolyCollection_1">
    <defs>
     <path d="M 133.852006 -68.131091 
L 133.761064 -68.131091 
L 133.730059 -72.306059 
L 133.684717 -76.481027 
L 133.622673 -80.655994 
L 133.543436 -84.830962 
L 133.449347 -89.00593 
L 133.346061 -93.180898 
L 133.242221 -97.355866 
L 133.148184 -101.530834 
L 133.074037 -105.705802 
L 133.027409 -109.88077 
L 133.011763 -114.055737 
L 133.025715 -118.230705 
L 133.063565 -122.405673 
L 133.116828 -126.580641 
L 133.176254 -130.755609 
L 133.233701 -134.930577 
L 133.283426 -139.105545 
L 133.322555 -143.280512 
L 133.350821 -147.45548 
L 133.369786 -151.630448 
L 133.381898 -155.805416 
L 133.389633 -159.980384 
L 133.394926 -164.155352 
L 133.39894 -168.33032 
L 133.402123 -172.505287 
L 133.404429 -176.680255 
L 133.405575 -180.855223 
L 133.40523 -185.030191 
L 133.403108 -189.205159 
L 133.398964 -193.380127 
L 133.392568 -197.555095 
L 133.383696 -201.730062 
L 133.372179 -205.90503 
L 133.358006 -210.079998 
L 133.341446 -214.254966 
L 133.323138 -218.429934 
L 133.304094 -222.604902 
L 133.28561 -226.77987 
L 133.269101 -230.954837 
L 133.255906 -235.129805 
L 133.24713 -239.304773 
L 133.243562 -243.479741 
L 133.245666 -247.654709 
L 133.253622 -251.829677 
L 133.267367 -256.004645 
L 133.28661 -260.179612 
L 133.310815 -264.35458 
L 133.339172 -268.529548 
L 133.370613 -272.704516 
L 133.403879 -276.879484 
L 133.43765 -281.054452 
L 133.470696 -285.22942 
L 133.502006 -289.404388 
L 133.530855 -293.579355 
L 133.556804 -297.754323 
L 133.579645 -301.929291 
L 133.599339 -306.104259 
L 133.615977 -310.279227 
L 133.629758 -314.454195 
L 133.640998 -318.629163 
L 133.650116 -322.80413 
L 133.657596 -326.979098 
L 133.663915 -331.154066 
L 133.669478 -335.329034 
L 133.674558 -339.504002 
L 133.679304 -343.67897 
L 133.683774 -347.853938 
L 133.687998 -352.028905 
L 133.692032 -356.203873 
L 133.695975 -360.378841 
L 133.69995 -364.553809 
L 133.704075 -368.728777 
L 133.708423 -372.903745 
L 133.713012 -377.078713 
L 133.717804 -381.25368 
L 133.722722 -385.428648 
L 133.727673 -389.603616 
L 133.732552 -393.778584 
L 133.737261 -397.953552 
L 133.741716 -402.12852 
L 133.745866 -406.303488 
L 133.749721 -410.478455 
L 133.753355 -414.653423 
L 133.756908 -418.828391 
L 133.760552 -423.003359 
L 133.764448 -427.178327 
L 133.768694 -431.353295 
L 133.773296 -435.528263 
L 133.778148 -439.70323 
L 133.783063 -443.878198 
L 133.787808 -448.053166 
L 133.792157 -452.228134 
L 133.795936 -456.403102 
L 133.799046 -460.57807 
L 133.80147 -464.753038 
L 133.80326 -468.928006 
L 133.804513 -473.102973 
L 133.805343 -477.277941 
L 133.805865 -481.452909 
L 133.807205 -481.452909 
L 133.807205 -481.452909 
L 133.807727 -477.277941 
L 133.808557 -473.102973 
L 133.80981 -468.928006 
L 133.8116 -464.753038 
L 133.814024 -460.57807 
L 133.817134 -456.403102 
L 133.820913 -452.228134 
L 133.825262 -448.053166 
L 133.830007 -443.878198 
L 133.834922 -439.70323 
L 133.839774 -435.528263 
L 133.844376 -431.353295 
L 133.848622 -427.178327 
L 133.852518 -423.003359 
L 133.856162 -418.828391 
L 133.859715 -414.653423 
L 133.863349 -410.478455 
L 133.867204 -406.303488 
L 133.871354 -402.12852 
L 133.875809 -397.953552 
L 133.880518 -393.778584 
L 133.885397 -389.603616 
L 133.890348 -385.428648 
L 133.895266 -381.25368 
L 133.900058 -377.078713 
L 133.904647 -372.903745 
L 133.908995 -368.728777 
L 133.91312 -364.553809 
L 133.917095 -360.378841 
L 133.921038 -356.203873 
L 133.925072 -352.028905 
L 133.929296 -347.853938 
L 133.933766 -343.67897 
L 133.938512 -339.504002 
L 133.943592 -335.329034 
L 133.949155 -331.154066 
L 133.955474 -326.979098 
L 133.962954 -322.80413 
L 133.972072 -318.629163 
L 133.983312 -314.454195 
L 133.997093 -310.279227 
L 134.013731 -306.104259 
L 134.033425 -301.929291 
L 134.056266 -297.754323 
L 134.082215 -293.579355 
L 134.111064 -289.404388 
L 134.142374 -285.22942 
L 134.17542 -281.054452 
L 134.209191 -276.879484 
L 134.242457 -272.704516 
L 134.273898 -268.529548 
L 134.302255 -264.35458 
L 134.32646 -260.179612 
L 134.345703 -256.004645 
L 134.359448 -251.829677 
L 134.367404 -247.654709 
L 134.369508 -243.479741 
L 134.36594 -239.304773 
L 134.357164 -235.129805 
L 134.343969 -230.954837 
L 134.32746 -226.77987 
L 134.308976 -222.604902 
L 134.289932 -218.429934 
L 134.271624 -214.254966 
L 134.255064 -210.079998 
L 134.240891 -205.90503 
L 134.229374 -201.730062 
L 134.220502 -197.555095 
L 134.214106 -193.380127 
L 134.209962 -189.205159 
L 134.20784 -185.030191 
L 134.207495 -180.855223 
L 134.208641 -176.680255 
L 134.210947 -172.505287 
L 134.21413 -168.33032 
L 134.218144 -164.155352 
L 134.223437 -159.980384 
L 134.231172 -155.805416 
L 134.243284 -151.630448 
L 134.262249 -147.45548 
L 134.290515 -143.280512 
L 134.329644 -139.105545 
L 134.379369 -134.930577 
L 134.436816 -130.755609 
L 134.496242 -126.580641 
L 134.549505 -122.405673 
L 134.587355 -118.230705 
L 134.601307 -114.055737 
L 134.585661 -109.88077 
L 134.539033 -105.705802 
L 134.464886 -101.530834 
L 134.370849 -97.355866 
L 134.267009 -93.180898 
L 134.163723 -89.00593 
L 134.069634 -84.830962 
L 133.990397 -80.655994 
L 133.928353 -76.481027 
L 133.883011 -72.306059 
L 133.852006 -68.131091 
z
" id="m7cd9a84290" style="stroke:#373737;stroke-width:1.5;"/>
    </defs>
    <g clip-path="url(#p549058b63e)">
     <use style="fill:#2b8e70;stroke:#373737;stroke-width:1.5;" x="0" xlink:href="#m7cd9a84290" y="509.319"/>
    </g>
   </g>
   <g id="PolyCollection_2">
    <defs>
     <path d="M 257.823682 -79.016353 
L 257.665528 -79.016353 
L 257.607385 -82.089131 
L 257.520774 -85.16191 
L 257.401151 -88.234688 
L 257.248414 -91.307467 
L 257.068933 -94.380245 
L 256.876171 -97.453024 
L 256.689202 -100.525802 
L 256.52908 -103.598581 
L 256.414044 -106.671359 
L 256.355141 -109.744138 
L 256.353819 -112.816916 
L 256.402279 -115.889695 
L 256.486257 -118.962473 
L 256.58903 -122.035252 
L 256.695202 -125.10803 
L 256.793209 -128.180809 
L 256.876196 -131.253587 
L 256.941568 -134.326366 
L 256.989824 -137.399144 
L 257.023262 -140.471923 
L 257.044904 -143.544701 
L 257.057812 -146.61748 
L 257.064734 -149.690258 
L 257.068022 -152.763036 
L 257.06969 -155.835815 
L 257.071517 -158.908593 
L 257.075111 -161.981372 
L 257.081861 -165.05415 
L 257.092802 -168.126929 
L 257.108432 -171.199707 
L 257.128574 -174.272486 
L 257.152368 -177.345264 
L 257.178407 -180.418043 
L 257.204996 -183.490821 
L 257.230445 -186.5636 
L 257.253339 -189.636378 
L 257.272723 -192.709157 
L 257.288195 -195.781935 
L 257.299899 -198.854714 
L 257.308438 -201.927492 
L 257.314711 -205.000271 
L 257.319726 -208.073049 
L 257.324415 -211.145828 
L 257.329519 -214.218606 
L 257.335552 -217.291385 
L 257.342832 -220.364163 
L 257.351552 -223.436942 
L 257.361817 -226.50972 
L 257.373652 -229.582499 
L 257.386974 -232.655277 
L 257.401574 -235.728056 
L 257.41713 -238.800834 
L 257.433273 -241.873613 
L 257.449679 -244.946391 
L 257.466149 -248.01917 
L 257.482628 -251.091948 
L 257.499171 -254.164727 
L 257.515839 -257.237505 
L 257.53259 -260.310284 
L 257.549209 -263.383062 
L 257.565296 -266.45584 
L 257.580344 -269.528619 
L 257.593845 -272.601397 
L 257.605407 -275.674176 
L 257.614826 -278.746954 
L 257.622122 -281.819733 
L 257.627503 -284.892511 
L 257.631314 -287.96529 
L 257.633953 -291.038068 
L 257.635792 -294.110847 
L 257.637111 -297.183625 
L 257.63807 -300.256404 
L 257.638717 -303.329182 
L 257.639046 -306.401961 
L 257.639058 -309.474739 
L 257.638814 -312.547518 
L 257.638452 -315.620296 
L 257.638173 -318.693075 
L 257.638195 -321.765853 
L 257.638724 -324.838632 
L 257.63993 -327.91141 
L 257.641945 -330.984189 
L 257.644873 -334.056967 
L 257.648795 -337.129746 
L 257.653772 -340.202524 
L 257.659832 -343.275303 
L 257.666954 -346.348081 
L 257.675037 -349.42086 
L 257.683878 -352.493638 
L 257.693166 -355.566417 
L 257.702495 -358.639195 
L 257.711419 -361.711974 
L 257.719519 -364.784752 
L 257.726475 -367.857531 
L 257.732115 -370.930309 
L 257.736423 -374.003087 
L 257.73952 -377.075866 
L 257.741612 -380.148644 
L 257.74294 -383.221423 
L 257.74627 -383.221423 
L 257.74627 -383.221423 
L 257.747598 -380.148644 
L 257.74969 -377.075866 
L 257.752787 -374.003087 
L 257.757095 -370.930309 
L 257.762735 -367.857531 
L 257.769691 -364.784752 
L 257.777791 -361.711974 
L 257.786715 -358.639195 
L 257.796044 -355.566417 
L 257.805332 -352.493638 
L 257.814173 -349.42086 
L 257.822256 -346.348081 
L 257.829378 -343.275303 
L 257.835438 -340.202524 
L 257.840415 -337.129746 
L 257.844337 -334.056967 
L 257.847265 -330.984189 
L 257.84928 -327.91141 
L 257.850486 -324.838632 
L 257.851015 -321.765853 
L 257.851037 -318.693075 
L 257.850758 -315.620296 
L 257.850396 -312.547518 
L 257.850152 -309.474739 
L 257.850164 -306.401961 
L 257.850493 -303.329182 
L 257.85114 -300.256404 
L 257.852099 -297.183625 
L 257.853418 -294.110847 
L 257.855257 -291.038068 
L 257.857896 -287.96529 
L 257.861707 -284.892511 
L 257.867088 -281.819733 
L 257.874384 -278.746954 
L 257.883803 -275.674176 
L 257.895365 -272.601397 
L 257.908866 -269.528619 
L 257.923914 -266.45584 
L 257.940001 -263.383062 
L 257.95662 -260.310284 
L 257.973371 -257.237505 
L 257.990039 -254.164727 
L 258.006582 -251.091948 
L 258.023061 -248.01917 
L 258.039531 -244.946391 
L 258.055937 -241.873613 
L 258.07208 -238.800834 
L 258.087636 -235.728056 
L 258.102236 -232.655277 
L 258.115558 -229.582499 
L 258.127393 -226.50972 
L 258.137658 -223.436942 
L 258.146378 -220.364163 
L 258.153658 -217.291385 
L 258.159691 -214.218606 
L 258.164795 -211.145828 
L 258.169484 -208.073049 
L 258.174499 -205.000271 
L 258.180772 -201.927492 
L 258.189311 -198.854714 
L 258.201015 -195.781935 
L 258.216487 -192.709157 
L 258.235871 -189.636378 
L 258.258765 -186.5636 
L 258.284214 -183.490821 
L 258.310803 -180.418043 
L 258.336842 -177.345264 
L 258.360636 -174.272486 
L 258.380778 -171.199707 
L 258.396408 -168.126929 
L 258.407349 -165.05415 
L 258.414099 -161.981372 
L 258.417693 -158.908593 
L 258.41952 -155.835815 
L 258.421188 -152.763036 
L 258.424476 -149.690258 
L 258.431398 -146.61748 
L 258.444306 -143.544701 
L 258.465948 -140.471923 
L 258.499386 -137.399144 
L 258.547642 -134.326366 
L 258.613014 -131.253587 
L 258.696001 -128.180809 
L 258.794008 -125.10803 
L 258.90018 -122.035252 
L 259.002953 -118.962473 
L 259.086931 -115.889695 
L 259.135391 -112.816916 
L 259.134069 -109.744138 
L 259.075166 -106.671359 
L 258.96013 -103.598581 
L 258.800008 -100.525802 
L 258.613039 -97.453024 
L 258.420277 -94.380245 
L 258.240796 -91.307467 
L 258.088059 -88.234688 
L 257.968436 -85.16191 
L 257.881825 -82.089131 
L 257.823682 -79.016353 
z
" id="mf3b6128784" style="stroke:#373737;stroke-width:1.5;"/>
    </defs>
    <g clip-path="url(#p549058b63e)">
     <use style="fill:#be631d;stroke:#373737;stroke-width:1.5;" x="0" xlink:href="#mf3b6128784" y="509.319"/>
    </g>
   </g>
   <g id="PolyCollection_3">
    <defs>
     <path d="M 387.380251 -102.236594 
L 375.985099 -102.236594 
L 372.708692 -102.30995 
L 368.329124 -102.383305 
L 362.899363 -102.456661 
L 356.685683 -102.530017 
L 350.16812 -102.603372 
L 343.969879 -102.676728 
L 338.723173 -102.750084 
L 334.91053 -102.823439 
L 332.740177 -102.896795 
L 332.107447 -102.97015 
L 332.659932 -103.043506 
L 333.937587 -103.116862 
L 335.524991 -103.190217 
L 337.151033 -103.263573 
L 338.702995 -103.336929 
L 340.168972 -103.410284 
L 341.557453 -103.48364 
L 342.846311 -103.556996 
L 343.986032 -103.630351 
L 344.942986 -103.703707 
L 345.743153 -103.777063 
L 346.479718 -103.850418 
L 347.275179 -103.923774 
L 348.220633 -103.997129 
L 349.330496 -104.070485 
L 350.540742 -104.143841 
L 351.750666 -104.217196 
L 352.881182 -104.290552 
L 353.913953 -104.363908 
L 354.889799 -104.437263 
L 355.871417 -104.510619 
L 356.897009 -104.583975 
L 357.954643 -104.65733 
L 358.991471 -104.730686 
L 359.948701 -104.804042 
L 360.79769 -104.877397 
L 361.554024 -104.950753 
L 362.2625 -105.024109 
L 362.965223 -105.097464 
L 363.674862 -105.17082 
L 364.369963 -105.244175 
L 365.013591 -105.317531 
L 365.58128 -105.390887 
L 366.079179 -105.464242 
L 366.541 -105.537598 
L 367.006925 -105.610954 
L 367.499207 -105.684309 
L 368.010506 -105.757665 
L 368.5118 -105.831021 
L 368.973684 -105.904376 
L 369.386592 -105.977732 
L 369.767046 -106.051088 
L 370.146726 -106.124443 
L 370.552375 -106.197799 
L 370.989869 -106.271154 
L 371.442327 -106.34451 
L 371.882589 -106.417866 
L 372.291268 -106.491221 
L 372.668686 -106.564577 
L 373.033606 -106.637933 
L 373.410447 -106.711288 
L 373.813703 -106.784644 
L 374.239305 -106.858 
L 374.667608 -106.931355 
L 375.075143 -107.004711 
L 375.447237 -107.078067 
L 375.783905 -107.151422 
L 376.096363 -107.224778 
L 376.397555 -107.298133 
L 376.69331 -107.371489 
L 376.979539 -107.444845 
L 377.246408 -107.5182 
L 377.485909 -107.591556 
L 377.697515 -107.664912 
L 377.888447 -107.738267 
L 378.068914 -107.811623 
L 378.245903 -107.884979 
L 378.419666 -107.958334 
L 378.5849 -108.03169 
L 378.735425 -108.105046 
L 378.869005 -108.178401 
L 378.989192 -108.251757 
L 379.103283 -108.325113 
L 379.218086 -108.398468 
L 379.336483 -108.471824 
L 379.457035 -108.545179 
L 379.576747 -108.618535 
L 379.695019 -108.691891 
L 379.816124 -108.765246 
L 379.948502 -108.838602 
L 380.101147 -108.911958 
L 380.279026 -108.985313 
L 380.47991 -109.058669 
L 380.694147 -109.132025 
L 380.90731 -109.20538 
L 381.104366 -109.278736 
L 381.273551 -109.352092 
L 381.408613 -109.425447 
L 381.509038 -109.498803 
L 381.856312 -109.498803 
L 381.856312 -109.498803 
L 381.956737 -109.425447 
L 382.091799 -109.352092 
L 382.260984 -109.278736 
L 382.45804 -109.20538 
L 382.671203 -109.132025 
L 382.88544 -109.058669 
L 383.086324 -108.985313 
L 383.264203 -108.911958 
L 383.416848 -108.838602 
L 383.549226 -108.765246 
L 383.670331 -108.691891 
L 383.788603 -108.618535 
L 383.908315 -108.545179 
L 384.028867 -108.471824 
L 384.147264 -108.398468 
L 384.262067 -108.325113 
L 384.376158 -108.251757 
L 384.496345 -108.178401 
L 384.629925 -108.105046 
L 384.78045 -108.03169 
L 384.945684 -107.958334 
L 385.119447 -107.884979 
L 385.296436 -107.811623 
L 385.476903 -107.738267 
L 385.667835 -107.664912 
L 385.879441 -107.591556 
L 386.118942 -107.5182 
L 386.385811 -107.444845 
L 386.67204 -107.371489 
L 386.967795 -107.298133 
L 387.268987 -107.224778 
L 387.581445 -107.151422 
L 387.918113 -107.078067 
L 388.290207 -107.004711 
L 388.697742 -106.931355 
L 389.126045 -106.858 
L 389.551647 -106.784644 
L 389.954903 -106.711288 
L 390.331744 -106.637933 
L 390.696664 -106.564577 
L 391.074082 -106.491221 
L 391.482761 -106.417866 
L 391.923023 -106.34451 
L 392.375481 -106.271154 
L 392.812975 -106.197799 
L 393.218624 -106.124443 
L 393.598304 -106.051088 
L 393.978758 -105.977732 
L 394.391666 -105.904376 
L 394.85355 -105.831021 
L 395.354844 -105.757665 
L 395.866143 -105.684309 
L 396.358425 -105.610954 
L 396.82435 -105.537598 
L 397.286171 -105.464242 
L 397.78407 -105.390887 
L 398.351759 -105.317531 
L 398.995387 -105.244175 
L 399.690488 -105.17082 
L 400.400127 -105.097464 
L 401.10285 -105.024109 
L 401.811326 -104.950753 
L 402.56766 -104.877397 
L 403.416649 -104.804042 
L 404.373879 -104.730686 
L 405.410707 -104.65733 
L 406.468341 -104.583975 
L 407.493933 -104.510619 
L 408.475551 -104.437263 
L 409.451397 -104.363908 
L 410.484168 -104.290552 
L 411.614684 -104.217196 
L 412.824608 -104.143841 
L 414.034854 -104.070485 
L 415.144717 -103.997129 
L 416.090171 -103.923774 
L 416.885632 -103.850418 
L 417.622197 -103.777063 
L 418.422364 -103.703707 
L 419.379318 -103.630351 
L 420.519039 -103.556996 
L 421.807897 -103.48364 
L 423.196378 -103.410284 
L 424.662355 -103.336929 
L 426.214317 -103.263573 
L 427.840359 -103.190217 
L 429.427763 -103.116862 
L 430.705418 -103.043506 
L 431.257903 -102.97015 
L 430.625173 -102.896795 
L 428.45482 -102.823439 
L 424.642177 -102.750084 
L 419.395471 -102.676728 
L 413.19723 -102.603372 
L 406.679667 -102.530017 
L 400.465987 -102.456661 
L 395.036226 -102.383305 
L 390.656658 -102.30995 
L 387.380251 -102.236594 
z
" id="m8d2bcd1275" style="stroke:#373737;stroke-width:1.5;"/>
    </defs>
    <g clip-path="url(#p549058b63e)">
     <use style="fill:#7c78ab;stroke:#373737;stroke-width:1.5;" x="0" xlink:href="#m8d2bcd1275" y="509.319"/>
    </g>
   </g>
   <g id="PolyCollection_4">
    <defs>
     <path d="M 506.062661 -97.033938 
L 505.178829 -97.033938 
L 504.875675 -97.778392 
L 504.438323 -98.522846 
L 503.852662 -99.2673 
L 503.126524 -100.011754 
L 502.296025 -100.756208 
L 501.424904 -101.500662 
L 500.595149 -102.245116 
L 499.890688 -102.98957 
L 499.379153 -103.734024 
L 499.097973 -104.478478 
L 499.049295 -105.222932 
L 499.204522 -105.967386 
L 499.515454 -106.71184 
L 499.927183 -107.456294 
L 500.388512 -108.200748 
L 500.857859 -108.945202 
L 501.304986 -109.689656 
L 501.710104 -110.43411 
L 502.062021 -111.178564 
L 502.356322 -111.923018 
L 502.593841 -112.667472 
L 502.779352 -113.411926 
L 502.920301 -114.15638 
L 503.025558 -114.900834 
L 503.104251 -115.645288 
L 503.164783 -116.389742 
L 503.214146 -117.134196 
L 503.257597 -117.87865 
L 503.298741 -118.623104 
L 503.339933 -119.367558 
L 503.38285 -120.112012 
L 503.428961 -120.856467 
L 503.479701 -121.600921 
L 503.536265 -122.345375 
L 503.599178 -123.089829 
L 503.667918 -123.834283 
L 503.740839 -124.578737 
L 503.815504 -125.323191 
L 503.889285 -126.067645 
L 503.959971 -126.812099 
L 504.026146 -127.556553 
L 504.087247 -128.301007 
L 504.143363 -129.045461 
L 504.194974 -129.789915 
L 504.242773 -130.534369 
L 504.287623 -131.278823 
L 504.330592 -132.023277 
L 504.372938 -132.767731 
L 504.415962 -133.512185 
L 504.460746 -134.256639 
L 504.507872 -135.001093 
L 504.557276 -135.745547 
L 504.608318 -136.490001 
L 504.660036 -137.234455 
L 504.711487 -137.978909 
L 504.761992 -138.723363 
L 504.811208 -139.467817 
L 504.859008 -140.212271 
L 504.905261 -140.956725 
L 504.949639 -141.701179 
L 504.991545 -142.445633 
L 505.030175 -143.190087 
L 505.064702 -143.934541 
L 505.094496 -144.678995 
L 505.119312 -145.423449 
L 505.13941 -146.167903 
L 505.155581 -146.912357 
L 505.169083 -147.656811 
L 505.181479 -148.401265 
L 505.194413 -149.145719 
L 505.209329 -149.890173 
L 505.227215 -150.634627 
L 505.24842 -151.379081 
L 505.272599 -152.123535 
L 505.298812 -152.867989 
L 505.325721 -153.612443 
L 505.351849 -154.356897 
L 505.375837 -155.101351 
L 505.39665 -155.845805 
L 505.413733 -156.590259 
L 505.427097 -157.334713 
L 505.437324 -158.079167 
L 505.445472 -158.823621 
L 505.452892 -159.568076 
L 505.460966 -160.31253 
L 505.470825 -161.056984 
L 505.483125 -161.801438 
L 505.497919 -162.545892 
L 505.514679 -163.290346 
L 505.53245 -164.0348 
L 505.550089 -164.779254 
L 505.566507 -165.523708 
L 505.580875 -166.268162 
L 505.592719 -167.012616 
L 505.60193 -167.75707 
L 505.608697 -168.501524 
L 505.613395 -169.245978 
L 505.616479 -169.990432 
L 505.618392 -170.734886 
L 505.623098 -170.734886 
L 505.623098 -170.734886 
L 505.625011 -169.990432 
L 505.628095 -169.245978 
L 505.632793 -168.501524 
L 505.63956 -167.75707 
L 505.648771 -167.012616 
L 505.660615 -166.268162 
L 505.674983 -165.523708 
L 505.691401 -164.779254 
L 505.70904 -164.0348 
L 505.726811 -163.290346 
L 505.743571 -162.545892 
L 505.758365 -161.801438 
L 505.770665 -161.056984 
L 505.780524 -160.31253 
L 505.788598 -159.568076 
L 505.796018 -158.823621 
L 505.804166 -158.079167 
L 505.814393 -157.334713 
L 505.827757 -156.590259 
L 505.84484 -155.845805 
L 505.865653 -155.101351 
L 505.889641 -154.356897 
L 505.915769 -153.612443 
L 505.942678 -152.867989 
L 505.968891 -152.123535 
L 505.99307 -151.379081 
L 506.014275 -150.634627 
L 506.032161 -149.890173 
L 506.047077 -149.145719 
L 506.060011 -148.401265 
L 506.072407 -147.656811 
L 506.085909 -146.912357 
L 506.10208 -146.167903 
L 506.122178 -145.423449 
L 506.146994 -144.678995 
L 506.176788 -143.934541 
L 506.211315 -143.190087 
L 506.249945 -142.445633 
L 506.291851 -141.701179 
L 506.336229 -140.956725 
L 506.382482 -140.212271 
L 506.430282 -139.467817 
L 506.479498 -138.723363 
L 506.530003 -137.978909 
L 506.581454 -137.234455 
L 506.633172 -136.490001 
L 506.684214 -135.745547 
L 506.733618 -135.001093 
L 506.780744 -134.256639 
L 506.825528 -133.512185 
L 506.868552 -132.767731 
L 506.910898 -132.023277 
L 506.953867 -131.278823 
L 506.998717 -130.534369 
L 507.046516 -129.789915 
L 507.098127 -129.045461 
L 507.154243 -128.301007 
L 507.215344 -127.556553 
L 507.281519 -126.812099 
L 507.352205 -126.067645 
L 507.425986 -125.323191 
L 507.500651 -124.578737 
L 507.573572 -123.834283 
L 507.642312 -123.089829 
L 507.705225 -122.345375 
L 507.761789 -121.600921 
L 507.812529 -120.856467 
L 507.85864 -120.112012 
L 507.901557 -119.367558 
L 507.942749 -118.623104 
L 507.983893 -117.87865 
L 508.027344 -117.134196 
L 508.076707 -116.389742 
L 508.137239 -115.645288 
L 508.215932 -114.900834 
L 508.321189 -114.15638 
L 508.462138 -113.411926 
L 508.647649 -112.667472 
L 508.885168 -111.923018 
L 509.179469 -111.178564 
L 509.531386 -110.43411 
L 509.936504 -109.689656 
L 510.383631 -108.945202 
L 510.852978 -108.200748 
L 511.314307 -107.456294 
L 511.726036 -106.71184 
L 512.036968 -105.967386 
L 512.192195 -105.222932 
L 512.143517 -104.478478 
L 511.862337 -103.734024 
L 511.350802 -102.98957 
L 510.646341 -102.245116 
L 509.816586 -101.500662 
L 508.945465 -100.756208 
L 508.114966 -100.011754 
L 507.388828 -99.2673 
L 506.803167 -98.522846 
L 506.365815 -97.778392 
L 506.062661 -97.033938 
z
" id="m961c6b3b98" style="stroke:#373737;stroke-width:1.5;"/>
    </defs>
    <g clip-path="url(#p549058b63e)">
     <use style="fill:#cf418a;stroke:#373737;stroke-width:1.5;" x="0" xlink:href="#m961c6b3b98" y="509.319"/>
    </g>
   </g>
   <g id="PolyCollection_5">
    <defs>
     <path d="M 630.153691 -97.09428 
L 628.963939 -97.09428 
L 628.660669 -97.687693 
L 628.2565 -98.281106 
L 627.744583 -98.874519 
L 627.129557 -99.467932 
L 626.430568 -100.061345 
L 625.68198 -100.654758 
L 624.93095 -101.248171 
L 624.231797 -101.841584 
L 623.638021 -102.434997 
L 623.193693 -103.02841 
L 622.926281 -103.621823 
L 622.842687 -104.215236 
L 622.929391 -104.808649 
L 623.156455 -105.402062 
L 623.484063 -105.995475 
L 623.869793 -106.588888 
L 624.274855 -107.182301 
L 624.668187 -107.775714 
L 625.028087 -108.369127 
L 625.341827 -108.96254 
L 625.604051 -109.555953 
L 625.814784 -110.149366 
L 625.977644 -110.742779 
L 626.098467 -111.336192 
L 626.184324 -111.929605 
L 626.242757 -112.523018 
L 626.281119 -113.116431 
L 626.305987 -113.709844 
L 626.322706 -114.303257 
L 626.335178 -114.89667 
L 626.345921 -115.490083 
L 626.356393 -116.083496 
L 626.367461 -116.676909 
L 626.379879 -117.270322 
L 626.394662 -117.863735 
L 626.413284 -118.457148 
L 626.437713 -119.050561 
L 626.470304 -119.643974 
L 626.513609 -120.237387 
L 626.570121 -120.8308 
L 626.641961 -121.424213 
L 626.730525 -122.017626 
L 626.836133 -122.611039 
L 626.957766 -123.204452 
L 627.092993 -123.797865 
L 627.238159 -124.391278 
L 627.388836 -124.984691 
L 627.540457 -125.578104 
L 627.68896 -126.171517 
L 627.831293 -126.764929 
L 627.965634 -127.358342 
L 628.091308 -127.951755 
L 628.20846 -128.545168 
L 628.317607 -129.138581 
L 628.419216 -129.731994 
L 628.513417 -130.325407 
L 628.599915 -130.91882 
L 628.678061 -131.512233 
L 628.747068 -132.105646 
L 628.806267 -132.699059 
L 628.855366 -133.292472 
L 628.894634 -133.885885 
L 628.924995 -134.479298 
L 628.947995 -135.072711 
L 628.965652 -135.666124 
L 628.980198 -136.259537 
L 628.993771 -136.85295 
L 629.008111 -137.446363 
L 629.024332 -138.039776 
L 629.042818 -138.633189 
L 629.063279 -139.226602 
L 629.084929 -139.820015 
L 629.106756 -140.413428 
L 629.127809 -141.006841 
L 629.147425 -141.600254 
L 629.165357 -142.193667 
L 629.181775 -142.78708 
L 629.197166 -143.380493 
L 629.212161 -143.973906 
L 629.227358 -144.567319 
L 629.243189 -145.160732 
L 629.259862 -145.754145 
L 629.277385 -146.347558 
L 629.295647 -146.940971 
L 629.314519 -147.534384 
L 629.333925 -148.127797 
L 629.353852 -148.72121 
L 629.374312 -149.314623 
L 629.395259 -149.908036 
L 629.416508 -150.501449 
L 629.437702 -151.094862 
L 629.458322 -151.688275 
L 629.477761 -152.281688 
L 629.49543 -152.875101 
L 629.510861 -153.468514 
L 629.523778 -154.061927 
L 629.534128 -154.65534 
L 629.54206 -155.248753 
L 629.547872 -155.842166 
L 629.569758 -155.842166 
L 629.569758 -155.842166 
L 629.57557 -155.248753 
L 629.583502 -154.65534 
L 629.593852 -154.061927 
L 629.606769 -153.468514 
L 629.6222 -152.875101 
L 629.639869 -152.281688 
L 629.659308 -151.688275 
L 629.679928 -151.094862 
L 629.701122 -150.501449 
L 629.722371 -149.908036 
L 629.743318 -149.314623 
L 629.763778 -148.72121 
L 629.783705 -148.127797 
L 629.803111 -147.534384 
L 629.821983 -146.940971 
L 629.840245 -146.347558 
L 629.857768 -145.754145 
L 629.874441 -145.160732 
L 629.890272 -144.567319 
L 629.905469 -143.973906 
L 629.920464 -143.380493 
L 629.935855 -142.78708 
L 629.952273 -142.193667 
L 629.970205 -141.600254 
L 629.989821 -141.006841 
L 630.010874 -140.413428 
L 630.032701 -139.820015 
L 630.054351 -139.226602 
L 630.074812 -138.633189 
L 630.093298 -138.039776 
L 630.109519 -137.446363 
L 630.123859 -136.85295 
L 630.137432 -136.259537 
L 630.151978 -135.666124 
L 630.169635 -135.072711 
L 630.192635 -134.479298 
L 630.222996 -133.885885 
L 630.262264 -133.292472 
L 630.311363 -132.699059 
L 630.370562 -132.105646 
L 630.439569 -131.512233 
L 630.517715 -130.91882 
L 630.604213 -130.325407 
L 630.698414 -129.731994 
L 630.800023 -129.138581 
L 630.90917 -128.545168 
L 631.026322 -127.951755 
L 631.151996 -127.358342 
L 631.286337 -126.764929 
L 631.42867 -126.171517 
L 631.577173 -125.578104 
L 631.728794 -124.984691 
L 631.879471 -124.391278 
L 632.024637 -123.797865 
L 632.159864 -123.204452 
L 632.281497 -122.611039 
L 632.387105 -122.017626 
L 632.475669 -121.424213 
L 632.547509 -120.8308 
L 632.604021 -120.237387 
L 632.647326 -119.643974 
L 632.679917 -119.050561 
L 632.704346 -118.457148 
L 632.722968 -117.863735 
L 632.737751 -117.270322 
L 632.750169 -116.676909 
L 632.761237 -116.083496 
L 632.771709 -115.490083 
L 632.782452 -114.89667 
L 632.794924 -114.303257 
L 632.811643 -113.709844 
L 632.836511 -113.116431 
L 632.874873 -112.523018 
L 632.933306 -111.929605 
L 633.019163 -111.336192 
L 633.139986 -110.742779 
L 633.302846 -110.149366 
L 633.513579 -109.555953 
L 633.775803 -108.96254 
L 634.089543 -108.369127 
L 634.449443 -107.775714 
L 634.842775 -107.182301 
L 635.247837 -106.588888 
L 635.633567 -105.995475 
L 635.961175 -105.402062 
L 636.188239 -104.808649 
L 636.274943 -104.215236 
L 636.191349 -103.621823 
L 635.923937 -103.02841 
L 635.479609 -102.434997 
L 634.885833 -101.841584 
L 634.18668 -101.248171 
L 633.43565 -100.654758 
L 632.687062 -100.061345 
L 631.988073 -99.467932 
L 631.373047 -98.874519 
L 630.86113 -98.281106 
L 630.456961 -97.687693 
L 630.153691 -97.09428 
z
" id="m690e7adfdd" style="stroke:#373737;stroke-width:1.5;"/>
    </defs>
    <g clip-path="url(#p549058b63e)">
     <use style="fill:#65952f;stroke:#373737;stroke-width:1.5;" x="0" xlink:href="#m690e7adfdd" y="509.319"/>
    </g>
   </g>
   <g id="line2d_1">
    <path clip-path="url(#p549058b63e)" d="M 133.806535 406.472712 
L 133.806535 62.581288 
" style="fill:none;stroke:#373737;stroke-linecap:round;stroke-width:1.5;"/>
   </g>
   <g id="line2d_2">
    <path clip-path="url(#p549058b63e)" d="M 133.806535 385.597514 
L 133.806535 251.556767 
" style="fill:none;stroke:#373737;stroke-linecap:round;stroke-width:4.5;"/>
   </g>
   <g id="line2d_3">
    <path clip-path="url(#p549058b63e)" d="M 257.744605 406.472712 
L 257.744605 168.605321 
" style="fill:none;stroke:#373737;stroke-linecap:round;stroke-width:1.5;"/>
   </g>
   <g id="line2d_4">
    <path clip-path="url(#p549058b63e)" d="M 257.744605 396.58446 
L 257.744605 305.392805 
" style="fill:none;stroke:#373737;stroke-linecap:round;stroke-width:4.5;"/>
   </g>
   <g id="line2d_5">
    <path clip-path="url(#p549058b63e)" d="M 381.682675 406.472712 
L 381.682675 400.979239 
" style="fill:none;stroke:#373737;stroke-linecap:round;stroke-width:1.5;"/>
   </g>
   <g id="line2d_6">
    <path clip-path="url(#p549058b63e)" d="M 381.682675 406.472712 
L 381.682675 404.275323 
" style="fill:none;stroke:#373737;stroke-linecap:round;stroke-width:4.5;"/>
   </g>
   <g id="line2d_7">
    <path clip-path="url(#p549058b63e)" d="M 505.620745 406.472712 
L 505.620745 358.130147 
" style="fill:none;stroke:#373737;stroke-linecap:round;stroke-width:1.5;"/>
   </g>
   <g id="line2d_8">
    <path clip-path="url(#p549058b63e)" d="M 505.620745 404.82467 
L 505.620745 386.146861 
" style="fill:none;stroke:#373737;stroke-linecap:round;stroke-width:4.5;"/>
   </g>
   <g id="line2d_9">
    <path clip-path="url(#p549058b63e)" d="M 629.558815 406.472712 
L 629.558815 365.82101 
" style="fill:none;stroke:#373737;stroke-linecap:round;stroke-width:1.5;"/>
   </g>
   <g id="line2d_10">
    <path clip-path="url(#p549058b63e)" d="M 629.558815 405.374017 
L 629.558815 389.442945 
" style="fill:none;stroke:#373737;stroke-linecap:round;stroke-width:4.5;"/>
   </g>
   <g id="patch_3">
    <path d="M 71.8375 461.854 
L 71.8375 7.2 
" style="fill:none;stroke:#262626;stroke-linecap:square;stroke-linejoin:miter;stroke-width:0.8;"/>
   </g>
   <g id="patch_4">
    <path d="M 71.8375 461.854 
L 691.52785 461.854 
" style="fill:none;stroke:#262626;stroke-linecap:square;stroke-linejoin:miter;stroke-width:0.8;"/>
   </g>
   <g id="PathCollection_1">
    <defs>
     <path d="M 0 1.5 
C 0.397805 1.5 0.77937 1.341951 1.06066 1.06066 
C 1.341951 0.77937 1.5 0.397805 1.5 0 
C 1.5 -0.397805 1.341951 -0.77937 1.06066 -1.06066 
C 0.77937 -1.341951 0.397805 -1.5 0 -1.5 
C -0.397805 -1.5 -0.77937 -1.341951 -1.06066 -1.06066 
C -1.341951 -0.77937 -1.5 -0.397805 -1.5 0 
C -1.5 0.397805 -1.341951 0.77937 -1.06066 1.06066 
C -0.77937 1.341951 -0.397805 1.5 0 1.5 
z
" id="m562ca068c1" style="stroke:#373737;"/>
    </defs>
    <g clip-path="url(#p549058b63e)">
     <use style="fill:#ffffff;stroke:#373737;" x="133.806535" xlink:href="#m562ca068c1" y="310.062257"/>
    </g>
   </g>
   <g id="PathCollection_2">
    <g clip-path="url(#p549058b63e)">
     <use style="fill:#ffffff;stroke:#373737;" x="257.744605" xlink:href="#m562ca068c1" y="358.679495"/>
    </g>
   </g>
   <g id="PathCollection_3">
    <g clip-path="url(#p549058b63e)">
     <use style="fill:#ffffff;stroke:#373737;" x="381.682675" xlink:href="#m562ca068c1" y="405.374017"/>
    </g>
   </g>
   <g id="PathCollection_4">
    <g clip-path="url(#p549058b63e)">
     <use style="fill:#ffffff;stroke:#373737;" x="505.620745" xlink:href="#m562ca068c1" y="398.781849"/>
    </g>
   </g>
   <g id="PathCollection_5">
    <g clip-path="url(#p549058b63e)">
     <use style="fill:#ffffff;stroke:#373737;" x="629.558815" xlink:href="#m562ca068c1" y="399.056523"/>
    </g>
   </g>
  </g>
 </g>
 <defs>
  <clipPath id="p549058b63e">
   <rect height="454.654" width="619.69035" x="71.8375" y="7.2"/>
  </clipPath>
 </defs>
</svg>
