<?xml version="1.0" encoding="utf-8" standalone="no"?>
<!DOCTYPE svg PUBLIC "-//W3C//DTD SVG 1.1//EN"
  "http://www.w3.org/Graphics/SVG/1.1/DTD/svg11.dtd">
<!-- Created with matplotlib (https://matplotlib.org/) -->
<svg height="540.169pt" version="1.1" viewBox="0 0 745.0616 540.169" width="745.0616pt" xmlns="http://www.w3.org/2000/svg" xmlns:xlink="http://www.w3.org/1999/xlink">
 <defs>
  <style type="text/css">
*{stroke-linecap:butt;stroke-linejoin:round;white-space:pre;}
  </style>
 </defs>
 <g id="figure_1">
  <g id="patch_1">
   <path d="M 0 540.169 
L 745.0616 540.169 
L 745.0616 0 
L 0 0 
z
" style="fill:#ffffff;"/>
  </g>
  <g id="axes_1">
   <g id="patch_2">
    <path d="M 71.39 492.704 
L 737.8616 492.704 
L 737.8616 7.2 
L 71.39 7.2 
z
" style="fill:#ffffff;"/>
   </g>
   <g id="matplotlib.axis_1">
    <g id="xtick_1">
     <g id="text_1">
      <!-- 1010 -->
      <defs>
       <path d="M 37.25 0 
L 28.46875 0 
L 28.46875 56 
Q 25.296875 52.984375 20.140625 49.953125 
Q 14.984375 46.921875 10.890625 45.40625 
L 10.890625 53.90625 
Q 18.265625 57.375 23.78125 62.296875 
Q 29.296875 67.234375 31.59375 71.875 
L 37.25 71.875 
z
" id="ArialMT-49"/>
       <path d="M 4.15625 35.296875 
Q 4.15625 48 6.765625 55.734375 
Q 9.375 63.484375 14.515625 67.671875 
Q 19.671875 71.875 27.484375 71.875 
Q 33.25 71.875 37.59375 69.546875 
Q 41.9375 67.234375 44.765625 62.859375 
Q 47.609375 58.5 49.21875 52.21875 
Q 50.828125 45.953125 50.828125 35.296875 
Q 50.828125 22.703125 48.234375 14.96875 
Q 45.65625 7.234375 40.5 3 
Q 35.359375 -1.21875 27.484375 -1.21875 
Q 17.140625 -1.21875 11.234375 6.203125 
Q 4.15625 15.140625 4.15625 35.296875 
z
M 13.1875 35.296875 
Q 13.1875 17.671875 17.3125 11.828125 
Q 21.4375 6 27.484375 6 
Q 33.546875 6 37.671875 11.859375 
Q 41.796875 17.71875 41.796875 35.296875 
Q 41.796875 52.984375 37.671875 58.78125 
Q 33.546875 64.59375 27.390625 64.59375 
Q 21.34375 64.59375 17.71875 59.46875 
Q 13.1875 52.9375 13.1875 35.296875 
z
" id="ArialMT-48"/>
      </defs>
      <g style="fill:#262626;" transform="translate(120.24216 511.1565)scale(0.16 -0.16)">
       <use xlink:href="#ArialMT-49"/>
       <use x="55.615234" xlink:href="#ArialMT-48"/>
       <use x="111.230469" xlink:href="#ArialMT-49"/>
       <use x="166.845703" xlink:href="#ArialMT-48"/>
      </g>
     </g>
    </g>
    <g id="xtick_2">
     <g id="text_2">
      <!-- 1010-1 -->
      <defs>
       <path d="M 3.171875 21.484375 
L 3.171875 30.328125 
L 30.171875 30.328125 
L 30.171875 21.484375 
z
" id="ArialMT-45"/>
      </defs>
      <g style="fill:#262626;" transform="translate(246.42398 511.1565)scale(0.16 -0.16)">
       <use xlink:href="#ArialMT-49"/>
       <use x="55.615234" xlink:href="#ArialMT-48"/>
       <use x="111.230469" xlink:href="#ArialMT-49"/>
       <use x="166.845703" xlink:href="#ArialMT-48"/>
       <use x="222.460938" xlink:href="#ArialMT-45"/>
       <use x="255.761719" xlink:href="#ArialMT-49"/>
      </g>
     </g>
    </g>
    <g id="xtick_3">
     <g id="text_3">
      <!-- 1014-150 -->
      <defs>
       <path d="M 32.328125 0 
L 32.328125 17.140625 
L 1.265625 17.140625 
L 1.265625 25.203125 
L 33.9375 71.578125 
L 41.109375 71.578125 
L 41.109375 25.203125 
L 50.78125 25.203125 
L 50.78125 17.140625 
L 41.109375 17.140625 
L 41.109375 0 
z
M 32.328125 25.203125 
L 32.328125 57.46875 
L 9.90625 25.203125 
z
" id="ArialMT-52"/>
       <path d="M 4.15625 18.75 
L 13.375 19.53125 
Q 14.40625 12.796875 18.140625 9.390625 
Q 21.875 6 27.15625 6 
Q 33.5 6 37.890625 10.78125 
Q 42.28125 15.578125 42.28125 23.484375 
Q 42.28125 31 38.0625 35.34375 
Q 33.84375 39.703125 27 39.703125 
Q 22.75 39.703125 19.328125 37.765625 
Q 15.921875 35.84375 13.96875 32.765625 
L 5.71875 33.84375 
L 12.640625 70.609375 
L 48.25 70.609375 
L 48.25 62.203125 
L 19.671875 62.203125 
L 15.828125 42.96875 
Q 22.265625 47.46875 29.34375 47.46875 
Q 38.71875 47.46875 45.15625 40.96875 
Q 51.609375 34.46875 51.609375 24.265625 
Q 51.609375 14.546875 45.953125 7.46875 
Q 39.0625 -1.21875 27.15625 -1.21875 
Q 17.390625 -1.21875 11.203125 4.25 
Q 5.03125 9.71875 4.15625 18.75 
z
" id="ArialMT-53"/>
      </defs>
      <g style="fill:#262626;" transform="translate(370.8208 511.1565)scale(0.16 -0.16)">
       <use xlink:href="#ArialMT-49"/>
       <use x="55.615234" xlink:href="#ArialMT-48"/>
       <use x="111.230469" xlink:href="#ArialMT-49"/>
       <use x="166.845703" xlink:href="#ArialMT-52"/>
       <use x="222.460938" xlink:href="#ArialMT-45"/>
       <use x="255.761719" xlink:href="#ArialMT-49"/>
       <use x="311.376953" xlink:href="#ArialMT-53"/>
       <use x="366.992188" xlink:href="#ArialMT-48"/>
      </g>
     </g>
    </g>
    <g id="xtick_4">
     <g id="text_4">
      <!-- 1016-140 -->
      <defs>
       <path d="M 49.75 54.046875 
L 41.015625 53.375 
Q 39.84375 58.546875 37.703125 60.890625 
Q 34.125 64.65625 28.90625 64.65625 
Q 24.703125 64.65625 21.53125 62.3125 
Q 17.390625 59.28125 14.984375 53.46875 
Q 12.59375 47.65625 12.5 36.921875 
Q 15.671875 41.75 20.265625 44.09375 
Q 24.859375 46.4375 29.890625 46.4375 
Q 38.671875 46.4375 44.84375 39.96875 
Q 51.03125 33.5 51.03125 23.25 
Q 51.03125 16.5 48.125 10.71875 
Q 45.21875 4.9375 40.140625 1.859375 
Q 35.0625 -1.21875 28.609375 -1.21875 
Q 17.625 -1.21875 10.6875 6.859375 
Q 3.765625 14.9375 3.765625 33.5 
Q 3.765625 54.25 11.421875 63.671875 
Q 18.109375 71.875 29.4375 71.875 
Q 37.890625 71.875 43.28125 67.140625 
Q 48.6875 62.40625 49.75 54.046875 
z
M 13.875 23.1875 
Q 13.875 18.65625 15.796875 14.5 
Q 17.71875 10.359375 21.1875 8.171875 
Q 24.65625 6 28.46875 6 
Q 34.03125 6 38.03125 10.484375 
Q 42.046875 14.984375 42.046875 22.703125 
Q 42.046875 30.125 38.078125 34.390625 
Q 34.125 38.671875 28.125 38.671875 
Q 22.171875 38.671875 18.015625 34.390625 
Q 13.875 30.125 13.875 23.1875 
z
" id="ArialMT-54"/>
      </defs>
      <g style="fill:#262626;" transform="translate(504.11512 511.1565)scale(0.16 -0.16)">
       <use xlink:href="#ArialMT-49"/>
       <use x="55.615234" xlink:href="#ArialMT-48"/>
       <use x="111.230469" xlink:href="#ArialMT-49"/>
       <use x="166.845703" xlink:href="#ArialMT-54"/>
       <use x="222.460938" xlink:href="#ArialMT-45"/>
       <use x="255.761719" xlink:href="#ArialMT-49"/>
       <use x="311.376953" xlink:href="#ArialMT-52"/>
       <use x="366.992188" xlink:href="#ArialMT-48"/>
      </g>
     </g>
    </g>
    <g id="xtick_5">
     <g id="text_5">
      <!-- 1021-156 -->
      <defs>
       <path d="M 50.34375 8.453125 
L 50.34375 0 
L 3.03125 0 
Q 2.9375 3.171875 4.046875 6.109375 
Q 5.859375 10.9375 9.828125 15.625 
Q 13.8125 20.3125 21.34375 26.46875 
Q 33.015625 36.03125 37.109375 41.625 
Q 41.21875 47.21875 41.21875 52.203125 
Q 41.21875 57.421875 37.46875 61 
Q 33.734375 64.59375 27.734375 64.59375 
Q 21.390625 64.59375 17.578125 60.78125 
Q 13.765625 56.984375 13.71875 50.25 
L 4.6875 51.171875 
Q 5.609375 61.28125 11.65625 66.578125 
Q 17.71875 71.875 27.9375 71.875 
Q 38.234375 71.875 44.234375 66.15625 
Q 50.25 60.453125 50.25 52 
Q 50.25 47.703125 48.484375 43.546875 
Q 46.734375 39.40625 42.65625 34.8125 
Q 38.578125 30.21875 29.109375 22.21875 
Q 21.1875 15.578125 18.9375 13.203125 
Q 16.703125 10.84375 15.234375 8.453125 
z
" id="ArialMT-50"/>
      </defs>
      <g style="fill:#262626;" transform="translate(637.40944 511.1565)scale(0.16 -0.16)">
       <use xlink:href="#ArialMT-49"/>
       <use x="55.615234" xlink:href="#ArialMT-48"/>
       <use x="111.230469" xlink:href="#ArialMT-50"/>
       <use x="166.845703" xlink:href="#ArialMT-49"/>
       <use x="222.460938" xlink:href="#ArialMT-45"/>
       <use x="255.761719" xlink:href="#ArialMT-49"/>
       <use x="311.376953" xlink:href="#ArialMT-53"/>
       <use x="366.992188" xlink:href="#ArialMT-54"/>
      </g>
     </g>
    </g>
    <g id="text_6">
     <!-- Counter id -->
     <defs>
      <path d="M 58.796875 25.09375 
L 68.265625 22.703125 
Q 65.28125 11.03125 57.546875 4.90625 
Q 49.8125 -1.21875 38.625 -1.21875 
Q 27.046875 -1.21875 19.796875 3.484375 
Q 12.546875 8.203125 8.765625 17.140625 
Q 4.984375 26.078125 4.984375 36.328125 
Q 4.984375 47.515625 9.25 55.828125 
Q 13.53125 64.15625 21.40625 68.46875 
Q 29.296875 72.796875 38.765625 72.796875 
Q 49.515625 72.796875 56.828125 67.328125 
Q 64.15625 61.859375 67.046875 51.953125 
L 57.71875 49.75 
Q 55.21875 57.5625 50.484375 61.125 
Q 45.75 64.703125 38.578125 64.703125 
Q 30.328125 64.703125 24.78125 60.734375 
Q 19.234375 56.78125 16.984375 50.109375 
Q 14.75 43.453125 14.75 36.375 
Q 14.75 27.25 17.40625 20.4375 
Q 20.0625 13.625 25.671875 10.25 
Q 31.296875 6.890625 37.84375 6.890625 
Q 45.796875 6.890625 51.3125 11.46875 
Q 56.84375 16.0625 58.796875 25.09375 
z
" id="ArialMT-67"/>
      <path d="M 3.328125 25.921875 
Q 3.328125 40.328125 11.328125 47.265625 
Q 18.015625 53.03125 27.640625 53.03125 
Q 38.328125 53.03125 45.109375 46.015625 
Q 51.90625 39.015625 51.90625 26.65625 
Q 51.90625 16.65625 48.90625 10.90625 
Q 45.90625 5.171875 40.15625 2 
Q 34.421875 -1.171875 27.640625 -1.171875 
Q 16.75 -1.171875 10.03125 5.8125 
Q 3.328125 12.796875 3.328125 25.921875 
z
M 12.359375 25.921875 
Q 12.359375 15.96875 16.703125 11.015625 
Q 21.046875 6.0625 27.640625 6.0625 
Q 34.1875 6.0625 38.53125 11.03125 
Q 42.875 16.015625 42.875 26.21875 
Q 42.875 35.84375 38.5 40.796875 
Q 34.125 45.75 27.640625 45.75 
Q 21.046875 45.75 16.703125 40.8125 
Q 12.359375 35.890625 12.359375 25.921875 
z
" id="ArialMT-111"/>
      <path d="M 40.578125 0 
L 40.578125 7.625 
Q 34.515625 -1.171875 24.125 -1.171875 
Q 19.53125 -1.171875 15.546875 0.578125 
Q 11.578125 2.34375 9.640625 5 
Q 7.71875 7.671875 6.9375 11.53125 
Q 6.390625 14.109375 6.390625 19.734375 
L 6.390625 51.859375 
L 15.1875 51.859375 
L 15.1875 23.09375 
Q 15.1875 16.21875 15.71875 13.8125 
Q 16.546875 10.359375 19.234375 8.375 
Q 21.921875 6.390625 25.875 6.390625 
Q 29.828125 6.390625 33.296875 8.421875 
Q 36.765625 10.453125 38.203125 13.9375 
Q 39.65625 17.4375 39.65625 24.078125 
L 39.65625 51.859375 
L 48.4375 51.859375 
L 48.4375 0 
z
" id="ArialMT-117"/>
      <path d="M 6.59375 0 
L 6.59375 51.859375 
L 14.5 51.859375 
L 14.5 44.484375 
Q 20.21875 53.03125 31 53.03125 
Q 35.6875 53.03125 39.625 51.34375 
Q 43.5625 49.65625 45.515625 46.921875 
Q 47.46875 44.1875 48.25 40.4375 
Q 48.734375 37.984375 48.734375 31.890625 
L 48.734375 0 
L 39.9375 0 
L 39.9375 31.546875 
Q 39.9375 36.921875 38.90625 39.578125 
Q 37.890625 42.234375 35.28125 43.8125 
Q 32.671875 45.40625 29.15625 45.40625 
Q 23.53125 45.40625 19.453125 41.84375 
Q 15.375 38.28125 15.375 28.328125 
L 15.375 0 
z
" id="ArialMT-110"/>
      <path d="M 25.78125 7.859375 
L 27.046875 0.09375 
Q 23.34375 -0.6875 20.40625 -0.6875 
Q 15.625 -0.6875 12.984375 0.828125 
Q 10.359375 2.34375 9.28125 4.8125 
Q 8.203125 7.28125 8.203125 15.1875 
L 8.203125 45.015625 
L 1.765625 45.015625 
L 1.765625 51.859375 
L 8.203125 51.859375 
L 8.203125 64.703125 
L 16.9375 69.96875 
L 16.9375 51.859375 
L 25.78125 51.859375 
L 25.78125 45.015625 
L 16.9375 45.015625 
L 16.9375 14.703125 
Q 16.9375 10.9375 17.40625 9.859375 
Q 17.875 8.796875 18.921875 8.15625 
Q 19.96875 7.515625 21.921875 7.515625 
Q 23.390625 7.515625 25.78125 7.859375 
z
" id="ArialMT-116"/>
      <path d="M 42.09375 16.703125 
L 51.171875 15.578125 
Q 49.03125 7.625 43.21875 3.21875 
Q 37.40625 -1.171875 28.375 -1.171875 
Q 17 -1.171875 10.328125 5.828125 
Q 3.65625 12.84375 3.65625 25.484375 
Q 3.65625 38.578125 10.390625 45.796875 
Q 17.140625 53.03125 27.875 53.03125 
Q 38.28125 53.03125 44.875 45.953125 
Q 51.46875 38.875 51.46875 26.03125 
Q 51.46875 25.25 51.421875 23.6875 
L 12.75 23.6875 
Q 13.234375 15.140625 17.578125 10.59375 
Q 21.921875 6.0625 28.421875 6.0625 
Q 33.25 6.0625 36.671875 8.59375 
Q 40.09375 11.140625 42.09375 16.703125 
z
M 13.234375 30.90625 
L 42.1875 30.90625 
Q 41.609375 37.453125 38.875 40.71875 
Q 34.671875 45.796875 27.984375 45.796875 
Q 21.921875 45.796875 17.796875 41.75 
Q 13.671875 37.703125 13.234375 30.90625 
z
" id="ArialMT-101"/>
      <path d="M 6.5 0 
L 6.5 51.859375 
L 14.40625 51.859375 
L 14.40625 44 
Q 17.4375 49.515625 20 51.265625 
Q 22.5625 53.03125 25.640625 53.03125 
Q 30.078125 53.03125 34.671875 50.203125 
L 31.640625 42.046875 
Q 28.421875 43.953125 25.203125 43.953125 
Q 22.3125 43.953125 20.015625 42.21875 
Q 17.71875 40.484375 16.75 37.40625 
Q 15.28125 32.71875 15.28125 27.15625 
L 15.28125 0 
z
" id="ArialMT-114"/>
      <path id="ArialMT-32"/>
      <path d="M 6.640625 61.46875 
L 6.640625 71.578125 
L 15.4375 71.578125 
L 15.4375 61.46875 
z
M 6.640625 0 
L 6.640625 51.859375 
L 15.4375 51.859375 
L 15.4375 0 
z
" id="ArialMT-105"/>
      <path d="M 40.234375 0 
L 40.234375 6.546875 
Q 35.296875 -1.171875 25.734375 -1.171875 
Q 19.53125 -1.171875 14.328125 2.25 
Q 9.125 5.671875 6.265625 11.796875 
Q 3.421875 17.921875 3.421875 25.875 
Q 3.421875 33.640625 6 39.96875 
Q 8.59375 46.296875 13.765625 49.65625 
Q 18.953125 53.03125 25.34375 53.03125 
Q 30.03125 53.03125 33.6875 51.046875 
Q 37.359375 49.078125 39.65625 45.90625 
L 39.65625 71.578125 
L 48.390625 71.578125 
L 48.390625 0 
z
M 12.453125 25.875 
Q 12.453125 15.921875 16.640625 10.984375 
Q 20.84375 6.0625 26.5625 6.0625 
Q 32.328125 6.0625 36.34375 10.765625 
Q 40.375 15.484375 40.375 25.140625 
Q 40.375 35.796875 36.265625 40.765625 
Q 32.171875 45.75 26.171875 45.75 
Q 20.3125 45.75 16.375 40.96875 
Q 12.453125 36.1875 12.453125 25.875 
z
" id="ArialMT-100"/>
     </defs>
     <g style="fill:#262626;" transform="translate(367.7183 529.789)scale(0.16 -0.16)">
      <use xlink:href="#ArialMT-67"/>
      <use x="72.216797" xlink:href="#ArialMT-111"/>
      <use x="127.832031" xlink:href="#ArialMT-117"/>
      <use x="183.447266" xlink:href="#ArialMT-110"/>
      <use x="239.0625" xlink:href="#ArialMT-116"/>
      <use x="266.845703" xlink:href="#ArialMT-101"/>
      <use x="322.460938" xlink:href="#ArialMT-114"/>
      <use x="355.761719" xlink:href="#ArialMT-32"/>
      <use x="383.544922" xlink:href="#ArialMT-105"/>
      <use x="405.761719" xlink:href="#ArialMT-100"/>
     </g>
    </g>
   </g>
   <g id="matplotlib.axis_2">
    <g id="ytick_1">
     <g id="text_7">
      <!-- 0 -->
      <g style="fill:#262626;" transform="translate(55.4925 436.915856)scale(0.16 -0.16)">
       <use xlink:href="#ArialMT-48"/>
      </g>
     </g>
    </g>
    <g id="ytick_2">
     <g id="text_8">
      <!-- 500 -->
      <g style="fill:#262626;" transform="translate(37.6975 373.876689)scale(0.16 -0.16)">
       <use xlink:href="#ArialMT-53"/>
       <use x="55.615234" xlink:href="#ArialMT-48"/>
       <use x="111.230469" xlink:href="#ArialMT-48"/>
      </g>
     </g>
    </g>
    <g id="ytick_3">
     <g id="text_9">
      <!-- 1000 -->
      <g style="fill:#262626;" transform="translate(28.8 310.837521)scale(0.16 -0.16)">
       <use xlink:href="#ArialMT-49"/>
       <use x="55.615234" xlink:href="#ArialMT-48"/>
       <use x="111.230469" xlink:href="#ArialMT-48"/>
       <use x="166.845703" xlink:href="#ArialMT-48"/>
      </g>
     </g>
    </g>
    <g id="ytick_4">
     <g id="text_10">
      <!-- 1500 -->
      <g style="fill:#262626;" transform="translate(28.8 247.798354)scale(0.16 -0.16)">
       <use xlink:href="#ArialMT-49"/>
       <use x="55.615234" xlink:href="#ArialMT-53"/>
       <use x="111.230469" xlink:href="#ArialMT-48"/>
       <use x="166.845703" xlink:href="#ArialMT-48"/>
      </g>
     </g>
    </g>
    <g id="ytick_5">
     <g id="text_11">
      <!-- 2000 -->
      <g style="fill:#262626;" transform="translate(28.8 184.759187)scale(0.16 -0.16)">
       <use xlink:href="#ArialMT-50"/>
       <use x="55.615234" xlink:href="#ArialMT-48"/>
       <use x="111.230469" xlink:href="#ArialMT-48"/>
       <use x="166.845703" xlink:href="#ArialMT-48"/>
      </g>
     </g>
    </g>
    <g id="ytick_6">
     <g id="text_12">
      <!-- 2500 -->
      <g style="fill:#262626;" transform="translate(28.8 121.720019)scale(0.16 -0.16)">
       <use xlink:href="#ArialMT-50"/>
       <use x="55.615234" xlink:href="#ArialMT-53"/>
       <use x="111.230469" xlink:href="#ArialMT-48"/>
       <use x="166.845703" xlink:href="#ArialMT-48"/>
      </g>
     </g>
    </g>
    <g id="ytick_7">
     <g id="text_13">
      <!-- 3000 -->
      <defs>
       <path d="M 4.203125 18.890625 
L 12.984375 20.0625 
Q 14.5 12.59375 18.140625 9.296875 
Q 21.78125 6 27 6 
Q 33.203125 6 37.46875 10.296875 
Q 41.75 14.59375 41.75 20.953125 
Q 41.75 27 37.796875 30.921875 
Q 33.84375 34.859375 27.734375 34.859375 
Q 25.25 34.859375 21.53125 33.890625 
L 22.515625 41.609375 
Q 23.390625 41.5 23.921875 41.5 
Q 29.546875 41.5 34.03125 44.421875 
Q 38.53125 47.359375 38.53125 53.46875 
Q 38.53125 58.296875 35.25 61.46875 
Q 31.984375 64.65625 26.8125 64.65625 
Q 21.6875 64.65625 18.265625 61.421875 
Q 14.84375 58.203125 13.875 51.765625 
L 5.078125 53.328125 
Q 6.6875 62.15625 12.390625 67.015625 
Q 18.109375 71.875 26.609375 71.875 
Q 32.46875 71.875 37.390625 69.359375 
Q 42.328125 66.84375 44.9375 62.5 
Q 47.5625 58.15625 47.5625 53.265625 
Q 47.5625 48.640625 45.0625 44.828125 
Q 42.578125 41.015625 37.703125 38.765625 
Q 44.046875 37.3125 47.5625 32.6875 
Q 51.078125 28.078125 51.078125 21.140625 
Q 51.078125 11.765625 44.234375 5.25 
Q 37.40625 -1.265625 26.953125 -1.265625 
Q 17.53125 -1.265625 11.296875 4.34375 
Q 5.078125 9.96875 4.203125 18.890625 
z
" id="ArialMT-51"/>
      </defs>
      <g style="fill:#262626;" transform="translate(28.8 58.680852)scale(0.16 -0.16)">
       <use xlink:href="#ArialMT-51"/>
       <use x="55.615234" xlink:href="#ArialMT-48"/>
       <use x="111.230469" xlink:href="#ArialMT-48"/>
       <use x="166.845703" xlink:href="#ArialMT-48"/>
      </g>
     </g>
    </g>
    <g id="text_14">
     <!-- Count [$h^{-1}$] -->
     <defs>
      <path d="M 6.78125 -19.875 
L 6.78125 71.578125 
L 26.171875 71.578125 
L 26.171875 64.3125 
L 15.578125 64.3125 
L 15.578125 -12.59375 
L 26.171875 -12.59375 
L 26.171875 -19.875 
z
" id="ArialMT-91"/>
      <path d="M 55.71875 33.015625 
L 49.3125 0 
L 40.28125 0 
L 46.6875 32.671875 
Q 47.125 34.96875 47.359375 36.71875 
Q 47.609375 38.484375 47.609375 39.5 
Q 47.609375 43.609375 45.015625 45.890625 
Q 42.4375 48.1875 37.796875 48.1875 
Q 30.5625 48.1875 25.265625 43.296875 
Q 19.96875 38.421875 18.40625 30.328125 
L 12.5 0 
L 3.515625 0 
L 18.3125 75.984375 
L 27.296875 75.984375 
L 21.484375 46.09375 
Q 24.90625 50.6875 30.21875 53.34375 
Q 35.546875 56 41.40625 56 
Q 48.640625 56 52.609375 52.09375 
Q 56.59375 48.1875 56.59375 41.109375 
Q 56.59375 39.359375 56.375 37.359375 
Q 56.15625 35.359375 55.71875 33.015625 
z
" id="DejaVuSans-Oblique-104"/>
      <path d="M 10.59375 35.5 
L 73.1875 35.5 
L 73.1875 27.203125 
L 10.59375 27.203125 
z
" id="DejaVuSans-8722"/>
      <path d="M 12.40625 8.296875 
L 28.515625 8.296875 
L 28.515625 63.921875 
L 10.984375 60.40625 
L 10.984375 69.390625 
L 28.421875 72.90625 
L 38.28125 72.90625 
L 38.28125 8.296875 
L 54.390625 8.296875 
L 54.390625 0 
L 12.40625 0 
z
" id="DejaVuSans-49"/>
      <path d="M 21.296875 -19.875 
L 1.90625 -19.875 
L 1.90625 -12.59375 
L 12.5 -12.59375 
L 12.5 64.3125 
L 1.90625 64.3125 
L 1.90625 71.578125 
L 21.296875 71.578125 
z
" id="ArialMT-93"/>
     </defs>
     <g style="fill:#262626;" transform="translate(21.6 292.112)rotate(-90)scale(0.16 -0.16)">
      <use transform="translate(0 0.684375)" xlink:href="#ArialMT-67"/>
      <use transform="translate(72.216797 0.684375)" xlink:href="#ArialMT-111"/>
      <use transform="translate(127.832031 0.684375)" xlink:href="#ArialMT-117"/>
      <use transform="translate(183.447266 0.684375)" xlink:href="#ArialMT-110"/>
      <use transform="translate(239.0625 0.684375)" xlink:href="#ArialMT-116"/>
      <use transform="translate(266.845703 0.684375)" xlink:href="#ArialMT-32"/>
      <use transform="translate(294.628906 0.684375)" xlink:href="#ArialMT-91"/>
      <use transform="translate(322.412109 0.684375)" xlink:href="#DejaVuSans-Oblique-104"/>
      <use transform="translate(393.238724 38.965625)scale(0.7)" xlink:href="#DejaVuSans-8722"/>
      <use transform="translate(451.891068 38.965625)scale(0.7)" xlink:href="#DejaVuSans-49"/>
      <use transform="translate(499.161576 0.684375)" xlink:href="#ArialMT-93"/>
     </g>
    </g>
   </g>
   <g id="PolyCollection_1">
    <defs>
     <path d="M 139.837501 -69.533364 
L 136.236819 -69.533364 
L 135.125353 -73.991619 
L 133.535902 -78.449874 
L 131.38427 -82.908129 
L 128.632121 -87.366385 
L 125.314206 -91.82464 
L 121.557784 -96.282895 
L 117.585561 -100.741151 
L 113.696261 -105.199406 
L 110.222802 -109.657661 
L 107.475396 -114.115916 
L 105.682923 -118.574172 
L 104.948121 -123.032427 
L 105.22917 -127.490682 
L 106.3529 -131.948938 
L 108.055757 -136.407193 
L 110.040975 -140.865448 
L 112.036761 -145.323703 
L 113.841447 -149.781959 
L 115.3467 -154.240214 
L 116.536764 -158.698469 
L 117.468066 -163.156725 
L 118.237649 -167.61498 
L 118.949976 -172.073235 
L 119.6901 -176.53149 
L 120.507859 -180.989746 
L 121.413988 -185.448001 
L 122.385821 -189.906256 
L 123.378435 -194.364511 
L 124.33677 -198.822767 
L 125.205299 -203.281022 
L 125.933623 -207.739277 
L 126.478315 -212.197533 
L 126.802803 -216.655788 
L 126.87763 -221.114043 
L 126.68297 -225.572298 
L 126.213918 -230.030554 
L 125.487386 -234.488809 
L 124.548032 -238.947064 
L 123.470133 -243.40532 
L 122.353079 -247.863575 
L 121.309975 -252.32183 
L 120.451177 -256.780085 
L 119.866492 -261.238341 
L 119.6106 -265.696596 
L 119.695488 -270.154851 
L 120.091733 -274.613107 
L 120.737904 -279.071362 
L 121.555159 -283.529617 
L 122.462962 -287.987872 
L 123.392081 -292.446128 
L 124.292332 -296.904383 
L 125.134476 -301.362638 
L 125.907361 -305.820893 
L 126.612485 -310.279149 
L 127.258268 -314.737404 
L 127.855662 -319.195659 
L 128.415682 -323.653915 
L 128.948467 -328.11217 
L 129.462986 -332.570425 
L 129.966542 -337.02868 
L 130.463778 -341.486936 
L 130.955469 -345.945191 
L 131.437803 -350.403446 
L 131.902799 -354.861702 
L 132.34007 -359.319957 
L 132.739522 -363.778212 
L 133.094129 -368.236467 
L 133.401839 -372.694723 
L 133.666011 -377.152978 
L 133.894363 -381.611233 
L 134.096941 -386.069489 
L 134.283898 -390.527744 
L 134.463774 -394.985999 
L 134.642635 -399.444254 
L 134.824004 -403.90251 
L 135.009277 -408.360765 
L 135.198251 -412.81902 
L 135.389556 -417.277275 
L 135.580991 -421.735531 
L 135.769875 -426.193786 
L 135.953532 -430.652041 
L 136.1299 -435.110297 
L 136.298076 -439.568552 
L 136.458579 -444.026807 
L 136.613141 -448.485062 
L 136.764053 -452.943318 
L 136.913244 -457.401573 
L 137.061431 -461.859828 
L 137.207647 -466.318084 
L 137.349298 -470.776339 
L 137.482721 -475.234594 
L 137.604038 -479.692849 
L 137.710016 -484.151105 
L 137.7987 -488.60936 
L 137.869667 -493.067615 
L 137.923928 -497.525871 
L 137.96355 -501.984126 
L 137.991179 -506.442381 
L 138.009578 -510.900636 
L 138.064742 -510.900636 
L 138.064742 -510.900636 
L 138.083141 -506.442381 
L 138.11077 -501.984126 
L 138.150392 -497.525871 
L 138.204653 -493.067615 
L 138.27562 -488.60936 
L 138.364304 -484.151105 
L 138.470282 -479.692849 
L 138.591599 -475.234594 
L 138.725022 -470.776339 
L 138.866673 -466.318084 
L 139.012889 -461.859828 
L 139.161076 -457.401573 
L 139.310267 -452.943318 
L 139.461179 -448.485062 
L 139.615741 -444.026807 
L 139.776244 -439.568552 
L 139.94442 -435.110297 
L 140.120788 -430.652041 
L 140.304445 -426.193786 
L 140.493329 -421.735531 
L 140.684764 -417.277275 
L 140.876069 -412.81902 
L 141.065043 -408.360765 
L 141.250316 -403.90251 
L 141.431685 -399.444254 
L 141.610546 -394.985999 
L 141.790422 -390.527744 
L 141.977379 -386.069489 
L 142.179957 -381.611233 
L 142.408309 -377.152978 
L 142.672481 -372.694723 
L 142.980191 -368.236467 
L 143.334798 -363.778212 
L 143.73425 -359.319957 
L 144.171521 -354.861702 
L 144.636517 -350.403446 
L 145.118851 -345.945191 
L 145.610542 -341.486936 
L 146.107778 -337.02868 
L 146.611334 -332.570425 
L 147.125853 -328.11217 
L 147.658638 -323.653915 
L 148.218658 -319.195659 
L 148.816052 -314.737404 
L 149.461835 -310.279149 
L 150.166959 -305.820893 
L 150.939844 -301.362638 
L 151.781988 -296.904383 
L 152.682239 -292.446128 
L 153.611358 -287.987872 
L 154.519161 -283.529617 
L 155.336416 -279.071362 
L 155.982587 -274.613107 
L 156.378832 -270.154851 
L 156.46372 -265.696596 
L 156.207828 -261.238341 
L 155.623143 -256.780085 
L 154.764345 -252.32183 
L 153.721241 -247.863575 
L 152.604187 -243.40532 
L 151.526288 -238.947064 
L 150.586934 -234.488809 
L 149.860402 -230.030554 
L 149.39135 -225.572298 
L 149.19669 -221.114043 
L 149.271517 -216.655788 
L 149.596005 -212.197533 
L 150.140697 -207.739277 
L 150.869021 -203.281022 
L 151.73755 -198.822767 
L 152.695885 -194.364511 
L 153.688499 -189.906256 
L 154.660332 -185.448001 
L 155.566461 -180.989746 
L 156.38422 -176.53149 
L 157.124344 -172.073235 
L 157.836671 -167.61498 
L 158.606254 -163.156725 
L 159.537556 -158.698469 
L 160.72762 -154.240214 
L 162.232873 -149.781959 
L 164.037559 -145.323703 
L 166.033345 -140.865448 
L 168.018563 -136.407193 
L 169.72142 -131.948938 
L 170.84515 -127.490682 
L 171.126199 -123.032427 
L 170.391397 -118.574172 
L 168.598924 -114.115916 
L 165.851518 -109.657661 
L 162.378059 -105.199406 
L 158.488759 -100.741151 
L 154.516536 -96.282895 
L 150.760114 -91.82464 
L 147.442199 -87.366385 
L 144.69005 -82.908129 
L 142.538418 -78.449874 
L 140.948967 -73.991619 
L 139.837501 -69.533364 
z
" id="m32f56d8a96" style="stroke:#373737;stroke-width:1.5;"/>
    </defs>
    <g clip-path="url(#p9afb582fba)">
     <use style="fill:#2b8e70;stroke:#373737;stroke-width:1.5;" x="0" xlink:href="#m32f56d8a96" y="540.169"/>
    </g>
   </g>
   <g id="PolyCollection_2">
    <defs>
     <path d="M 273.408669 -69.777545 
L 269.254291 -69.777545 
L 268.08363 -74.104789 
L 266.459245 -78.432033 
L 264.31726 -82.759277 
L 261.638093 -87.086521 
L 258.467759 -91.413765 
L 254.931877 -95.741009 
L 251.236106 -100.068253 
L 247.648966 -104.395497 
L 244.467412 -108.722741 
L 241.970712 -113.049985 
L 240.372497 -117.377229 
L 239.782471 -121.704473 
L 240.187411 -126.031717 
L 241.456136 -130.358961 
L 243.366767 -134.686205 
L 245.648976 -139.013449 
L 248.030772 -143.340693 
L 250.279415 -147.667937 
L 252.228885 -151.995181 
L 253.790633 -156.322425 
L 254.948623 -160.649669 
L 255.742906 -164.976913 
L 256.247446 -169.304157 
L 256.547886 -173.631401 
L 256.723679 -177.958645 
L 256.837073 -182.285889 
L 256.929473 -186.613133 
L 257.023891 -190.940377 
L 257.131084 -195.267621 
L 257.256542 -199.594865 
L 257.405825 -203.922109 
L 257.586676 -208.249353 
L 257.807605 -212.576597 
L 258.073822 -216.903841 
L 258.382269 -221.231085 
L 258.717733 -225.558329 
L 259.051672 -229.885573 
L 259.344532 -234.212817 
L 259.551295 -238.540061 
L 259.629076 -242.867305 
L 259.545015 -247.194549 
L 259.282681 -251.521793 
L 258.845623 -255.849037 
L 258.257445 -260.176281 
L 257.558605 -264.503525 
L 256.80084 -268.830768 
L 256.040462 -273.158012 
L 255.331826 -277.485256 
L 254.721952 -281.8125 
L 254.246869 -286.139744 
L 253.929764 -290.466988 
L 253.78072 -294.794232 
L 253.797667 -299.121476 
L 253.968185 -303.44872 
L 254.271913 -307.775964 
L 254.68341 -312.103208 
L 255.175334 -316.430452 
L 255.721738 -320.757696 
L 256.301154 -325.08494 
L 256.898989 -329.412184 
L 257.508772 -333.739428 
L 258.131879 -338.066672 
L 258.775666 -342.393916 
L 259.450318 -346.72116 
L 260.165084 -351.048404 
L 260.924778 -355.375648 
L 261.7274 -359.702892 
L 262.563444 -364.030136 
L 263.416991 -368.35738 
L 264.268182 -372.684624 
L 265.096335 -377.011868 
L 265.882844 -381.339112 
L 266.613216 -385.666356 
L 267.277903 -389.9936 
L 267.872074 -394.320844 
L 268.394665 -398.648088 
L 268.847244 -402.975332 
L 269.233058 -407.302576 
L 269.556461 -411.62982 
L 269.822698 -415.957064 
L 270.03788 -420.284308 
L 270.208952 -424.611552 
L 270.34353 -428.938796 
L 270.449574 -433.26604 
L 270.534933 -437.593284 
L 270.606845 -441.920528 
L 270.671471 -446.247772 
L 270.733518 -450.575016 
L 270.796008 -454.90226 
L 270.860233 -459.229504 
L 270.925914 -463.556748 
L 270.991556 -467.883992 
L 271.054953 -472.211236 
L 271.113741 -476.53848 
L 271.165893 -480.865724 
L 271.210074 -485.192968 
L 271.245781 -489.520212 
L 271.273303 -493.847456 
L 271.293533 -498.1747 
L 271.369427 -498.1747 
L 271.369427 -498.1747 
L 271.389657 -493.847456 
L 271.417179 -489.520212 
L 271.452886 -485.192968 
L 271.497067 -480.865724 
L 271.549219 -476.53848 
L 271.608007 -472.211236 
L 271.671404 -467.883992 
L 271.737046 -463.556748 
L 271.802727 -459.229504 
L 271.866952 -454.90226 
L 271.929442 -450.575016 
L 271.991489 -446.247772 
L 272.056115 -441.920528 
L 272.128027 -437.593284 
L 272.213386 -433.26604 
L 272.31943 -428.938796 
L 272.454008 -424.611552 
L 272.62508 -420.284308 
L 272.840262 -415.957064 
L 273.106499 -411.62982 
L 273.429902 -407.302576 
L 273.815716 -402.975332 
L 274.268295 -398.648088 
L 274.790886 -394.320844 
L 275.385057 -389.9936 
L 276.049744 -385.666356 
L 276.780116 -381.339112 
L 277.566625 -377.011868 
L 278.394778 -372.684624 
L 279.245969 -368.35738 
L 280.099516 -364.030136 
L 280.93556 -359.702892 
L 281.738182 -355.375648 
L 282.497876 -351.048404 
L 283.212642 -346.72116 
L 283.887294 -342.393916 
L 284.531081 -338.066672 
L 285.154188 -333.739428 
L 285.763971 -329.412184 
L 286.361806 -325.08494 
L 286.941222 -320.757696 
L 287.487626 -316.430452 
L 287.97955 -312.103208 
L 288.391047 -307.775964 
L 288.694775 -303.44872 
L 288.865293 -299.121476 
L 288.88224 -294.794232 
L 288.733196 -290.466988 
L 288.416091 -286.139744 
L 287.941008 -281.8125 
L 287.331134 -277.485256 
L 286.622498 -273.158012 
L 285.86212 -268.830768 
L 285.104355 -264.503525 
L 284.405515 -260.176281 
L 283.817337 -255.849037 
L 283.380279 -251.521793 
L 283.117945 -247.194549 
L 283.033884 -242.867305 
L 283.111665 -238.540061 
L 283.318428 -234.212817 
L 283.611288 -229.885573 
L 283.945227 -225.558329 
L 284.280691 -221.231085 
L 284.589138 -216.903841 
L 284.855355 -212.576597 
L 285.076284 -208.249353 
L 285.257135 -203.922109 
L 285.406418 -199.594865 
L 285.531876 -195.267621 
L 285.639069 -190.940377 
L 285.733487 -186.613133 
L 285.825887 -182.285889 
L 285.939281 -177.958645 
L 286.115074 -173.631401 
L 286.415514 -169.304157 
L 286.920054 -164.976913 
L 287.714337 -160.649669 
L 288.872327 -156.322425 
L 290.434075 -151.995181 
L 292.383545 -147.667937 
L 294.632188 -143.340693 
L 297.013984 -139.013449 
L 299.296193 -134.686205 
L 301.206824 -130.358961 
L 302.475549 -126.031717 
L 302.880489 -121.704473 
L 302.290463 -117.377229 
L 300.692248 -113.049985 
L 298.195548 -108.722741 
L 295.013994 -104.395497 
L 291.426854 -100.068253 
L 287.731083 -95.741009 
L 284.195201 -91.413765 
L 281.024867 -87.086521 
L 278.3457 -82.759277 
L 276.203715 -78.432033 
L 274.57933 -74.104789 
L 273.408669 -69.777545 
z
" id="mdf8e656547" style="stroke:#373737;stroke-width:1.5;"/>
    </defs>
    <g clip-path="url(#p9afb582fba)">
     <use style="fill:#be631d;stroke:#373737;stroke-width:1.5;" x="0" xlink:href="#mdf8e656547" y="540.169"/>
    </g>
   </g>
   <g id="PolyCollection_3">
    <defs>
     <path d="M 407.787866 -86.005014 
L 401.463734 -86.005014 
L 399.824359 -88.248248 
L 397.587205 -90.491482 
L 394.662028 -92.734716 
L 391.001424 -94.977951 
L 386.623687 -97.221185 
L 381.63059 -99.464419 
L 376.214304 -101.707654 
L 370.648951 -103.950888 
L 365.265254 -106.194122 
L 360.410872 -108.437356 
L 356.403102 -110.680591 
L 353.483333 -112.923825 
L 351.782965 -115.167059 
L 351.308072 -117.410294 
L 351.945614 -119.653528 
L 353.488869 -121.896762 
L 355.675475 -124.139996 
L 358.229319 -126.383231 
L 360.897918 -128.626465 
L 363.479285 -130.869699 
L 365.835767 -133.112934 
L 367.895537 -135.356168 
L 369.644669 -137.599402 
L 371.113571 -139.842636 
L 372.361299 -142.085871 
L 373.460325 -144.329105 
L 374.483326 -146.572339 
L 375.49277 -148.815574 
L 376.533643 -151.058808 
L 377.629481 -153.302042 
L 378.781739 -155.545276 
L 379.972336 -157.788511 
L 381.168841 -160.031745 
L 382.331373 -162.274979 
L 383.419961 -164.518214 
L 384.401004 -166.761448 
L 385.251707 -169.004682 
L 385.961842 -171.247916 
L 386.53286 -173.491151 
L 386.974975 -175.734385 
L 387.303241 -177.977619 
L 387.53374 -180.220854 
L 387.680762 -182.464088 
L 387.755421 -184.707322 
L 387.765661 -186.950556 
L 387.717209 -189.193791 
L 387.61485 -191.437025 
L 387.463457 -193.680259 
L 387.268395 -195.923494 
L 387.035251 -198.166728 
L 386.769065 -200.409962 
L 386.473383 -202.653196 
L 386.149477 -204.896431 
L 385.795952 -207.139665 
L 385.408817 -209.382899 
L 384.981987 -211.626134 
L 384.508089 -213.869368 
L 383.979467 -216.112602 
L 383.389344 -218.355836 
L 382.733098 -220.599071 
L 382.009649 -222.842305 
L 381.222898 -225.085539 
L 380.383071 -227.328774 
L 379.507775 -229.572008 
L 378.62256 -231.815242 
L 377.760803 -234.058476 
L 376.9628 -236.301711 
L 376.274034 -238.544945 
L 375.742649 -240.788179 
L 375.416234 -243.031414 
L 375.338085 -245.274648 
L 375.543238 -247.517882 
L 376.054698 -249.761116 
L 376.880396 -252.004351 
L 378.011432 -254.247585 
L 379.422037 -256.490819 
L 381.071417 -258.734054 
L 382.90729 -260.977288 
L 384.870561 -263.220522 
L 386.900358 -265.463756 
L 388.938634 -267.706991 
L 390.933712 -269.950225 
L 392.84245 -272.193459 
L 394.631083 -274.436694 
L 396.275031 -276.679928 
L 397.758104 -278.923162 
L 399.071482 -281.166396 
L 400.212743 -283.409631 
L 401.185008 -285.652865 
L 401.996167 -287.896099 
L 402.65809 -290.139334 
L 403.185725 -292.382568 
L 403.596074 -294.625802 
L 403.907086 -296.869036 
L 404.136577 -299.112271 
L 404.301295 -301.355505 
L 404.416207 -303.598739 
L 404.494073 -305.841974 
L 404.545293 -308.085208 
L 404.706307 -308.085208 
L 404.706307 -308.085208 
L 404.757527 -305.841974 
L 404.835393 -303.598739 
L 404.950305 -301.355505 
L 405.115023 -299.112271 
L 405.344514 -296.869036 
L 405.655526 -294.625802 
L 406.065875 -292.382568 
L 406.59351 -290.139334 
L 407.255433 -287.896099 
L 408.066592 -285.652865 
L 409.038857 -283.409631 
L 410.180118 -281.166396 
L 411.493496 -278.923162 
L 412.976569 -276.679928 
L 414.620517 -274.436694 
L 416.40915 -272.193459 
L 418.317888 -269.950225 
L 420.312966 -267.706991 
L 422.351242 -265.463756 
L 424.381039 -263.220522 
L 426.34431 -260.977288 
L 428.180183 -258.734054 
L 429.829563 -256.490819 
L 431.240168 -254.247585 
L 432.371204 -252.004351 
L 433.196902 -249.761116 
L 433.708362 -247.517882 
L 433.913515 -245.274648 
L 433.835366 -243.031414 
L 433.508951 -240.788179 
L 432.977566 -238.544945 
L 432.2888 -236.301711 
L 431.490797 -234.058476 
L 430.62904 -231.815242 
L 429.743825 -229.572008 
L 428.868529 -227.328774 
L 428.028702 -225.085539 
L 427.241951 -222.842305 
L 426.518502 -220.599071 
L 425.862256 -218.355836 
L 425.272133 -216.112602 
L 424.743511 -213.869368 
L 424.269613 -211.626134 
L 423.842783 -209.382899 
L 423.455648 -207.139665 
L 423.102123 -204.896431 
L 422.778217 -202.653196 
L 422.482535 -200.409962 
L 422.216349 -198.166728 
L 421.983205 -195.923494 
L 421.788143 -193.680259 
L 421.63675 -191.437025 
L 421.534391 -189.193791 
L 421.485939 -186.950556 
L 421.496179 -184.707322 
L 421.570838 -182.464088 
L 421.71786 -180.220854 
L 421.948359 -177.977619 
L 422.276625 -175.734385 
L 422.71874 -173.491151 
L 423.289758 -171.247916 
L 423.999893 -169.004682 
L 424.850596 -166.761448 
L 425.831639 -164.518214 
L 426.920227 -162.274979 
L 428.082759 -160.031745 
L 429.279264 -157.788511 
L 430.469861 -155.545276 
L 431.622119 -153.302042 
L 432.717957 -151.058808 
L 433.75883 -148.815574 
L 434.768274 -146.572339 
L 435.791275 -144.329105 
L 436.890301 -142.085871 
L 438.138029 -139.842636 
L 439.606931 -137.599402 
L 441.356063 -135.356168 
L 443.415833 -133.112934 
L 445.772315 -130.869699 
L 448.353682 -128.626465 
L 451.022281 -126.383231 
L 453.576125 -124.139996 
L 455.762731 -121.896762 
L 457.305986 -119.653528 
L 457.943528 -117.410294 
L 457.468635 -115.167059 
L 455.768267 -112.923825 
L 452.848498 -110.680591 
L 448.840728 -108.437356 
L 443.986346 -106.194122 
L 438.602649 -103.950888 
L 433.037296 -101.707654 
L 427.62101 -99.464419 
L 422.627913 -97.221185 
L 418.250176 -94.977951 
L 414.589572 -92.734716 
L 411.664395 -90.491482 
L 409.427241 -88.248248 
L 407.787866 -86.005014 
z
" id="m2458050a7b" style="stroke:#373737;stroke-width:1.5;"/>
    </defs>
    <g clip-path="url(#p9afb582fba)">
     <use style="fill:#7c78ab;stroke:#373737;stroke-width:1.5;" x="0" xlink:href="#m2458050a7b" y="540.169"/>
    </g>
   </g>
   <g id="PolyCollection_4">
    <defs>
     <path d="M 540.624679 -87.401116 
L 535.215561 -87.401116 
L 533.348062 -90.019851 
L 530.598265 -92.638587 
L 526.808088 -95.257322 
L 521.930788 -97.876058 
L 516.094033 -100.494793 
L 509.636757 -103.113529 
L 503.096534 -105.732265 
L 497.136372 -108.351 
L 492.420761 -110.969736 
L 489.47237 -113.588471 
L 488.552644 -116.207207 
L 489.604745 -118.825942 
L 492.276665 -121.444678 
L 496.014567 -124.063414 
L 500.193719 -126.682149 
L 504.245837 -129.300885 
L 507.749218 -131.91962 
L 510.46612 -134.538356 
L 512.331349 -137.157092 
L 513.409295 -139.775827 
L 513.840374 -142.394563 
L 513.793497 -145.013298 
L 513.433082 -147.632034 
L 512.901449 -150.250769 
L 512.312828 -152.869505 
L 511.753969 -155.488241 
L 511.287391 -158.106976 
L 510.954923 -160.725712 
L 510.780514 -163.344447 
L 510.771816 -165.963183 
L 510.920308 -168.581919 
L 511.200081 -171.200654 
L 511.566024 -173.81939 
L 511.952826 -176.438125 
L 512.276662 -179.056861 
L 512.441247 -181.675596 
L 512.349175 -184.294332 
L 511.91814 -186.913068 
L 511.100001 -189.531803 
L 509.899004 -192.150539 
L 508.384389 -194.769274 
L 506.692507 -197.38801 
L 505.015085 -200.006745 
L 503.573231 -202.625481 
L 502.580716 -205.244217 
L 502.203735 -207.862952 
L 502.526493 -210.481688 
L 503.531516 -213.100423 
L 505.100494 -215.719159 
L 507.036385 -218.337895 
L 509.102013 -220.95663 
L 511.066129 -223.575366 
L 512.746226 -226.194101 
L 514.038683 -228.812837 
L 514.930522 -231.431572 
L 515.49196 -234.050308 
L 515.853411 -236.669044 
L 516.173603 -239.287779 
L 516.606378 -241.906515 
L 517.272792 -244.52525 
L 518.242948 -247.143986 
L 519.529334 -249.762722 
L 521.091023 -252.381457 
L 522.846214 -255.000193 
L 524.689586 -257.618928 
L 526.510738 -260.237664 
L 528.210511 -262.856399 
L 529.713055 -265.475135 
L 530.972628 -268.093871 
L 531.97515 -270.712606 
L 532.735205 -273.331342 
L 533.289545 -275.950077 
L 533.688376 -278.568813 
L 533.985868 -281.187548 
L 534.231372 -283.806284 
L 534.462707 -286.42502 
L 534.702427 -289.043755 
L 534.95738 -291.662491 
L 535.221171 -294.281226 
L 535.47869 -296.899962 
L 535.71163 -299.518698 
L 535.903959 -302.137433 
L 536.046413 -304.756169 
L 536.13923 -307.374904 
L 536.192604 -309.99364 
L 536.224685 -312.612375 
L 536.257521 -315.231111 
L 536.311916 -317.849847 
L 536.402583 -320.468582 
L 536.534957 -323.087318 
L 536.704536 -325.706053 
L 536.898808 -328.324789 
L 537.100971 -330.943525 
L 537.294187 -333.56226 
L 537.465091 -336.180996 
L 537.605741 -338.799731 
L 537.713851 -341.418467 
L 537.791674 -344.037202 
L 537.844244 -346.655938 
L 537.995996 -346.655938 
L 537.995996 -346.655938 
L 538.048566 -344.037202 
L 538.126389 -341.418467 
L 538.234499 -338.799731 
L 538.375149 -336.180996 
L 538.546053 -333.56226 
L 538.739269 -330.943525 
L 538.941432 -328.324789 
L 539.135704 -325.706053 
L 539.305283 -323.087318 
L 539.437657 -320.468582 
L 539.528324 -317.849847 
L 539.582719 -315.231111 
L 539.615555 -312.612375 
L 539.647636 -309.99364 
L 539.70101 -307.374904 
L 539.793827 -304.756169 
L 539.936281 -302.137433 
L 540.12861 -299.518698 
L 540.36155 -296.899962 
L 540.619069 -294.281226 
L 540.88286 -291.662491 
L 541.137813 -289.043755 
L 541.377533 -286.42502 
L 541.608868 -283.806284 
L 541.854372 -281.187548 
L 542.151864 -278.568813 
L 542.550695 -275.950077 
L 543.105035 -273.331342 
L 543.86509 -270.712606 
L 544.867612 -268.093871 
L 546.127185 -265.475135 
L 547.629729 -262.856399 
L 549.329502 -260.237664 
L 551.150654 -257.618928 
L 552.994026 -255.000193 
L 554.749217 -252.381457 
L 556.310906 -249.762722 
L 557.597292 -247.143986 
L 558.567448 -244.52525 
L 559.233862 -241.906515 
L 559.666637 -239.287779 
L 559.986829 -236.669044 
L 560.34828 -234.050308 
L 560.909718 -231.431572 
L 561.801557 -228.812837 
L 563.094014 -226.194101 
L 564.774111 -223.575366 
L 566.738227 -220.95663 
L 568.803855 -218.337895 
L 570.739746 -215.719159 
L 572.308724 -213.100423 
L 573.313747 -210.481688 
L 573.636505 -207.862952 
L 573.259524 -205.244217 
L 572.267009 -202.625481 
L 570.825155 -200.006745 
L 569.147733 -197.38801 
L 567.455851 -194.769274 
L 565.941236 -192.150539 
L 564.740239 -189.531803 
L 563.9221 -186.913068 
L 563.491065 -184.294332 
L 563.398993 -181.675596 
L 563.563578 -179.056861 
L 563.887414 -176.438125 
L 564.274216 -173.81939 
L 564.640159 -171.200654 
L 564.919932 -168.581919 
L 565.068424 -165.963183 
L 565.059726 -163.344447 
L 564.885317 -160.725712 
L 564.552849 -158.106976 
L 564.086271 -155.488241 
L 563.527412 -152.869505 
L 562.938791 -150.250769 
L 562.407158 -147.632034 
L 562.046743 -145.013298 
L 561.999866 -142.394563 
L 562.430945 -139.775827 
L 563.508891 -137.157092 
L 565.37412 -134.538356 
L 568.091022 -131.91962 
L 571.594403 -129.300885 
L 575.646521 -126.682149 
L 579.825673 -124.063414 
L 583.563575 -121.444678 
L 586.235495 -118.825942 
L 587.287596 -116.207207 
L 586.36787 -113.588471 
L 583.419479 -110.969736 
L 578.703868 -108.351 
L 572.743706 -105.732265 
L 566.203483 -103.113529 
L 559.746207 -100.494793 
L 553.909452 -97.876058 
L 549.032152 -95.257322 
L 545.241975 -92.638587 
L 542.492178 -90.019851 
L 540.624679 -87.401116 
z
" id="m600cc42c02" style="stroke:#373737;stroke-width:1.5;"/>
    </defs>
    <g clip-path="url(#p9afb582fba)">
     <use style="fill:#cf418a;stroke:#373737;stroke-width:1.5;" x="0" xlink:href="#m600cc42c02" y="540.169"/>
    </g>
   </g>
   <g id="PolyCollection_5">
    <defs>
     <path d="M 673.703645 -88.00526 
L 668.725235 -88.00526 
L 666.717881 -90.876682 
L 663.617354 -93.748105 
L 659.201249 -96.619527 
L 653.420732 -99.49095 
L 646.503289 -102.362372 
L 638.999997 -105.233795 
L 631.734621 -108.105217 
L 625.644982 -110.97664 
L 621.555146 -113.848062 
L 619.955415 -116.719485 
L 620.872355 -119.590907 
L 623.877107 -122.46233 
L 628.223845 -125.333752 
L 633.06047 -128.205175 
L 637.634053 -131.076597 
L 641.428774 -133.94802 
L 644.210804 -136.819442 
L 645.992001 -139.690865 
L 646.946894 -142.562287 
L 647.320747 -145.43371 
L 647.355694 -148.305132 
L 647.246288 -151.176555 
L 647.12298 -154.047977 
L 647.055657 -156.9194 
L 647.068448 -159.790822 
L 647.158773 -162.662245 
L 647.315272 -165.533667 
L 647.530267 -168.40509 
L 647.80369 -171.276512 
L 648.138084 -174.147935 
L 648.52779 -177.019357 
L 648.948113 -179.89078 
L 649.350255 -182.762202 
L 649.665006 -185.633625 
L 649.814342 -188.505047 
L 649.727165 -191.37647 
L 649.354726 -194.247892 
L 648.682144 -197.119315 
L 647.733776 -199.990737 
L 646.571367 -202.86216 
L 645.28503 -205.733582 
L 643.978898 -208.605005 
L 642.755259 -211.476427 
L 641.702114 -214.34785 
L 640.887907 -217.219272 
L 640.363704 -220.090695 
L 640.168904 -222.962117 
L 640.334446 -225.83354 
L 640.879013 -228.704962 
L 641.798533 -231.576385 
L 643.054526 -234.447807 
L 644.569282 -237.31923 
L 646.233707 -240.190652 
L 647.927792 -243.062075 
L 649.547216 -245.933497 
L 651.026066 -248.80492 
L 652.346958 -251.676342 
L 653.535378 -254.547765 
L 654.641913 -257.419187 
L 655.720715 -260.29061 
L 656.812817 -263.162032 
L 657.938995 -266.033455 
L 659.101339 -268.904877 
L 660.288868 -271.7763 
L 661.482285 -274.647722 
L 662.65584 -277.519145 
L 663.777747 -280.390567 
L 664.812167 -283.26199 
L 665.724537 -286.133412 
L 666.489262 -289.004835 
L 667.09661 -291.876257 
L 667.555619 -294.74768 
L 667.891759 -297.619102 
L 668.140543 -300.490525 
L 668.339731 -303.361947 
L 668.522587 -306.23337 
L 668.713489 -309.104792 
L 668.92596 -311.976215 
L 669.162604 -314.847637 
L 669.416495 -317.71906 
L 669.673704 -320.590482 
L 669.916737 -323.461905 
L 670.128439 -326.333327 
L 670.295767 -329.20475 
L 670.412744 -332.076172 
L 670.481954 -334.947595 
L 670.514168 -337.819017 
L 670.525966 -340.69044 
L 670.535785 -343.561862 
L 670.559376 -346.433285 
L 670.606061 -349.304707 
L 670.677007 -352.17613 
L 670.766065 -355.047552 
L 670.86268 -357.918975 
L 670.955628 -360.790397 
L 671.036147 -363.66182 
L 671.099566 -366.533242 
L 671.145269 -369.404665 
L 671.175534 -372.276087 
L 671.253346 -372.276087 
L 671.253346 -372.276087 
L 671.283611 -369.404665 
L 671.329314 -366.533242 
L 671.392733 -363.66182 
L 671.473252 -360.790397 
L 671.5662 -357.918975 
L 671.662815 -355.047552 
L 671.751873 -352.17613 
L 671.822819 -349.304707 
L 671.869504 -346.433285 
L 671.893095 -343.561862 
L 671.902914 -340.69044 
L 671.914712 -337.819017 
L 671.946926 -334.947595 
L 672.016136 -332.076172 
L 672.133113 -329.20475 
L 672.300441 -326.333327 
L 672.512143 -323.461905 
L 672.755176 -320.590482 
L 673.012385 -317.71906 
L 673.266276 -314.847637 
L 673.50292 -311.976215 
L 673.715391 -309.104792 
L 673.906293 -306.23337 
L 674.089149 -303.361947 
L 674.288337 -300.490525 
L 674.537121 -297.619102 
L 674.873261 -294.74768 
L 675.33227 -291.876257 
L 675.939618 -289.004835 
L 676.704343 -286.133412 
L 677.616713 -283.26199 
L 678.651133 -280.390567 
L 679.77304 -277.519145 
L 680.946595 -274.647722 
L 682.140012 -271.7763 
L 683.327541 -268.904877 
L 684.489885 -266.033455 
L 685.616063 -263.162032 
L 686.708165 -260.29061 
L 687.786967 -257.419187 
L 688.893502 -254.547765 
L 690.081922 -251.676342 
L 691.402814 -248.80492 
L 692.881664 -245.933497 
L 694.501088 -243.062075 
L 696.195173 -240.190652 
L 697.859598 -237.31923 
L 699.374354 -234.447807 
L 700.630347 -231.576385 
L 701.549867 -228.704962 
L 702.094434 -225.83354 
L 702.259976 -222.962117 
L 702.065176 -220.090695 
L 701.540973 -217.219272 
L 700.726766 -214.34785 
L 699.673621 -211.476427 
L 698.449982 -208.605005 
L 697.14385 -205.733582 
L 695.857513 -202.86216 
L 694.695104 -199.990737 
L 693.746736 -197.119315 
L 693.074154 -194.247892 
L 692.701715 -191.37647 
L 692.614538 -188.505047 
L 692.763874 -185.633625 
L 693.078625 -182.762202 
L 693.480767 -179.89078 
L 693.90109 -177.019357 
L 694.290796 -174.147935 
L 694.62519 -171.276512 
L 694.898613 -168.40509 
L 695.113608 -165.533667 
L 695.270107 -162.662245 
L 695.360432 -159.790822 
L 695.373223 -156.9194 
L 695.3059 -154.047977 
L 695.182592 -151.176555 
L 695.073186 -148.305132 
L 695.108133 -145.43371 
L 695.481986 -142.562287 
L 696.436879 -139.690865 
L 698.218076 -136.819442 
L 701.000106 -133.94802 
L 704.794827 -131.076597 
L 709.36841 -128.205175 
L 714.205035 -125.333752 
L 718.551773 -122.46233 
L 721.556525 -119.590907 
L 722.473465 -116.719485 
L 720.873734 -113.848062 
L 716.783898 -110.97664 
L 710.694259 -108.105217 
L 703.428883 -105.233795 
L 695.925591 -102.362372 
L 689.008148 -99.49095 
L 683.227631 -96.619527 
L 678.811526 -93.748105 
L 675.710999 -90.876682 
L 673.703645 -88.00526 
z
" id="m9e42b1883a" style="stroke:#373737;stroke-width:1.5;"/>
    </defs>
    <g clip-path="url(#p9afb582fba)">
     <use style="fill:#65952f;stroke:#373737;stroke-width:1.5;" x="0" xlink:href="#m9e42b1883a" y="540.169"/>
    </g>
   </g>
   <g id="line2d_1">
    <path clip-path="url(#p9afb582fba)" d="M 138.03716 429.928823 
L 138.03716 69.975177 
" style="fill:none;stroke:#373737;stroke-linecap:round;stroke-width:1.5;"/>
   </g>
   <g id="line2d_2">
    <path clip-path="url(#p9afb582fba)" d="M 138.03716 414.105992 
L 138.03716 268.170319 
" style="fill:none;stroke:#373737;stroke-linecap:round;stroke-width:4.5;"/>
   </g>
   <g id="line2d_3">
    <path clip-path="url(#p9afb582fba)" d="M 271.33148 428.920196 
L 271.33148 83.465559 
" style="fill:none;stroke:#373737;stroke-linecap:round;stroke-width:1.5;"/>
   </g>
   <g id="line2d_4">
    <path clip-path="url(#p9afb582fba)" d="M 271.33148 414.578785 
L 271.33148 245.097984 
" style="fill:none;stroke:#373737;stroke-linecap:round;stroke-width:4.5;"/>
   </g>
   <g id="line2d_5">
    <path clip-path="url(#p9afb582fba)" d="M 404.6258 430.937449 
L 404.6258 255.310329 
" style="fill:none;stroke:#373737;stroke-linecap:round;stroke-width:1.5;"/>
   </g>
   <g id="line2d_6">
    <path clip-path="url(#p9afb582fba)" d="M 404.6258 419.968634 
L 404.6258 313.148765 
" style="fill:none;stroke:#373737;stroke-linecap:round;stroke-width:4.5;"/>
   </g>
   <g id="line2d_7">
    <path clip-path="url(#p9afb582fba)" d="M 537.92012 430.937449 
L 537.92012 215.343497 
" style="fill:none;stroke:#373737;stroke-linecap:round;stroke-width:1.5;"/>
   </g>
   <g id="line2d_8">
    <path clip-path="url(#p9afb582fba)" d="M 537.92012 417.573146 
L 537.92012 327.427137 
" style="fill:none;stroke:#373737;stroke-linecap:round;stroke-width:4.5;"/>
   </g>
   <g id="line2d_9">
    <path clip-path="url(#p9afb582fba)" d="M 671.21444 430.811371 
L 671.21444 189.245282 
" style="fill:none;stroke:#373737;stroke-linecap:round;stroke-width:1.5;"/>
   </g>
   <g id="line2d_10">
    <path clip-path="url(#p9afb582fba)" d="M 671.21444 417.573146 
L 671.21444 315.323617 
" style="fill:none;stroke:#373737;stroke-linecap:round;stroke-width:4.5;"/>
   </g>
   <g id="patch_3">
    <path d="M 71.39 492.704 
L 71.39 7.2 
" style="fill:none;stroke:#262626;stroke-linecap:square;stroke-linejoin:miter;stroke-width:0.8;"/>
   </g>
   <g id="patch_4">
    <path d="M 71.39 492.704 
L 737.8616 492.704 
" style="fill:none;stroke:#262626;stroke-linecap:square;stroke-linejoin:miter;stroke-width:0.8;"/>
   </g>
   <g id="PathCollection_1">
    <defs>
     <path d="M 0 1.5 
C 0.397805 1.5 0.77937 1.341951 1.06066 1.06066 
C 1.341951 0.77937 1.5 0.397805 1.5 0 
C 1.5 -0.397805 1.341951 -0.77937 1.06066 -1.06066 
C 0.77937 -1.341951 0.397805 -1.5 0 -1.5 
C -0.397805 -1.5 -0.77937 -1.341951 -1.06066 -1.06066 
C -1.341951 -0.77937 -1.5 -0.397805 -1.5 0 
C -1.5 0.397805 -1.341951 0.77937 -1.06066 1.06066 
C -0.77937 1.341951 -0.397805 1.5 0 1.5 
z
" id="med7cacc830" style="stroke:#373737;"/>
    </defs>
    <g clip-path="url(#p9afb582fba)">
     <use style="fill:#ffffff;stroke:#373737;" x="138.03716" xlink:href="#med7cacc830" y="356.299075"/>
    </g>
   </g>
   <g id="PathCollection_2">
    <g clip-path="url(#p9afb582fba)">
     <use style="fill:#ffffff;stroke:#373737;" x="271.33148" xlink:href="#med7cacc830" y="333.100662"/>
    </g>
   </g>
   <g id="PathCollection_3">
    <g clip-path="url(#p9afb582fba)">
     <use style="fill:#ffffff;stroke:#373737;" x="404.6258" xlink:href="#med7cacc830" y="382.46033"/>
    </g>
   </g>
   <g id="PathCollection_4">
    <g clip-path="url(#p9afb582fba)">
     <use style="fill:#ffffff;stroke:#373737;" x="537.92012" xlink:href="#med7cacc830" y="366.889655"/>
    </g>
   </g>
   <g id="PathCollection_5">
    <g clip-path="url(#p9afb582fba)">
     <use style="fill:#ffffff;stroke:#373737;" x="671.21444" xlink:href="#med7cacc830" y="365.376715"/>
    </g>
   </g>
  </g>
 </g>
 <defs>
  <clipPath id="p9afb582fba">
   <rect height="485.504" width="666.4716" x="71.39" y="7.2"/>
  </clipPath>
 </defs>
</svg>
