<?xml version="1.0" encoding="utf-8" standalone="no"?>
<!DOCTYPE svg PUBLIC "-//W3C//DTD SVG 1.1//EN"
  "http://www.w3.org/Graphics/SVG/1.1/DTD/svg11.dtd">
<!-- Created with matplotlib (https://matplotlib.org/) -->
<svg height="509.319pt" version="1.1" viewBox="0 0 745.518 509.319" width="745.518pt" xmlns="http://www.w3.org/2000/svg" xmlns:xlink="http://www.w3.org/1999/xlink">
 <defs>
  <style type="text/css">
*{stroke-linecap:butt;stroke-linejoin:round;white-space:pre;}
  </style>
 </defs>
 <g id="figure_1">
  <g id="patch_1">
   <path d="M 0 509.319 
L 745.518 509.319 
L 745.518 0 
L 0 0 
z
" style="fill:#ffffff;"/>
  </g>
  <g id="axes_1">
   <g id="patch_2">
    <path d="M 71.39 461.854 
L 592.970363 461.854 
L 592.970363 7.2 
L 71.39 7.2 
z
" style="fill:#ffffff;"/>
   </g>
   <g id="matplotlib.axis_1">
    <g id="xtick_1">
     <g id="text_1">
      <!-- 0174 -->
      <defs>
       <path d="M 4.15625 35.296875 
Q 4.15625 48 6.765625 55.734375 
Q 9.375 63.484375 14.515625 67.671875 
Q 19.671875 71.875 27.484375 71.875 
Q 33.25 71.875 37.59375 69.546875 
Q 41.9375 67.234375 44.765625 62.859375 
Q 47.609375 58.5 49.21875 52.21875 
Q 50.828125 45.953125 50.828125 35.296875 
Q 50.828125 22.703125 48.234375 14.96875 
Q 45.65625 7.234375 40.5 3 
Q 35.359375 -1.21875 27.484375 -1.21875 
Q 17.140625 -1.21875 11.234375 6.203125 
Q 4.15625 15.140625 4.15625 35.296875 
z
M 13.1875 35.296875 
Q 13.1875 17.671875 17.3125 11.828125 
Q 21.4375 6 27.484375 6 
Q 33.546875 6 37.671875 11.859375 
Q 41.796875 17.71875 41.796875 35.296875 
Q 41.796875 52.984375 37.671875 58.78125 
Q 33.546875 64.59375 27.390625 64.59375 
Q 21.34375 64.59375 17.71875 59.46875 
Q 13.1875 52.9375 13.1875 35.296875 
z
" id="ArialMT-48"/>
       <path d="M 37.25 0 
L 28.46875 0 
L 28.46875 56 
Q 25.296875 52.984375 20.140625 49.953125 
Q 14.984375 46.921875 10.890625 45.40625 
L 10.890625 53.90625 
Q 18.265625 57.375 23.78125 62.296875 
Q 29.296875 67.234375 31.59375 71.875 
L 37.25 71.875 
z
" id="ArialMT-49"/>
       <path d="M 4.734375 62.203125 
L 4.734375 70.65625 
L 51.078125 70.65625 
L 51.078125 63.8125 
Q 44.234375 56.546875 37.515625 44.484375 
Q 30.8125 32.421875 27.15625 19.671875 
Q 24.515625 10.6875 23.78125 0 
L 14.75 0 
Q 14.890625 8.453125 18.0625 20.40625 
Q 21.234375 32.375 27.171875 43.484375 
Q 33.109375 54.59375 39.796875 62.203125 
z
" id="ArialMT-55"/>
       <path d="M 32.328125 0 
L 32.328125 17.140625 
L 1.265625 17.140625 
L 1.265625 25.203125 
L 33.9375 71.578125 
L 41.109375 71.578125 
L 41.109375 25.203125 
L 50.78125 25.203125 
L 50.78125 17.140625 
L 41.109375 17.140625 
L 41.109375 0 
z
M 32.328125 25.203125 
L 32.328125 57.46875 
L 9.90625 25.203125 
z
" id="ArialMT-52"/>
      </defs>
      <g style="fill:#262626;" transform="translate(105.753036 480.3065)scale(0.16 -0.16)">
       <use xlink:href="#ArialMT-48"/>
       <use x="55.615234" xlink:href="#ArialMT-49"/>
       <use x="111.230469" xlink:href="#ArialMT-55"/>
       <use x="166.845703" xlink:href="#ArialMT-52"/>
      </g>
     </g>
    </g>
    <g id="xtick_2">
     <g id="text_2">
      <!-- 0174-1 -->
      <defs>
       <path d="M 3.171875 21.484375 
L 3.171875 30.328125 
L 30.171875 30.328125 
L 30.171875 21.484375 
z
" id="ArialMT-45"/>
      </defs>
      <g style="fill:#262626;" transform="translate(202.956609 480.3065)scale(0.16 -0.16)">
       <use xlink:href="#ArialMT-48"/>
       <use x="55.615234" xlink:href="#ArialMT-49"/>
       <use x="111.230469" xlink:href="#ArialMT-55"/>
       <use x="166.845703" xlink:href="#ArialMT-52"/>
       <use x="222.460938" xlink:href="#ArialMT-45"/>
       <use x="255.761719" xlink:href="#ArialMT-49"/>
      </g>
     </g>
    </g>
    <g id="xtick_3">
     <g id="text_3">
      <!-- 0855 -->
      <defs>
       <path d="M 17.671875 38.8125 
Q 12.203125 40.828125 9.5625 44.53125 
Q 6.9375 48.25 6.9375 53.421875 
Q 6.9375 61.234375 12.546875 66.546875 
Q 18.171875 71.875 27.484375 71.875 
Q 36.859375 71.875 42.578125 66.421875 
Q 48.296875 60.984375 48.296875 53.171875 
Q 48.296875 48.1875 45.671875 44.5 
Q 43.0625 40.828125 37.75 38.8125 
Q 44.34375 36.671875 47.78125 31.875 
Q 51.21875 27.09375 51.21875 20.453125 
Q 51.21875 11.28125 44.71875 5.03125 
Q 38.234375 -1.21875 27.640625 -1.21875 
Q 17.046875 -1.21875 10.546875 5.046875 
Q 4.046875 11.328125 4.046875 20.703125 
Q 4.046875 27.6875 7.59375 32.390625 
Q 11.140625 37.109375 17.671875 38.8125 
z
M 15.921875 53.71875 
Q 15.921875 48.640625 19.1875 45.40625 
Q 22.46875 42.1875 27.6875 42.1875 
Q 32.765625 42.1875 36.015625 45.375 
Q 39.265625 48.578125 39.265625 53.21875 
Q 39.265625 58.0625 35.90625 61.359375 
Q 32.5625 64.65625 27.59375 64.65625 
Q 22.5625 64.65625 19.234375 61.421875 
Q 15.921875 58.203125 15.921875 53.71875 
z
M 13.09375 20.65625 
Q 13.09375 16.890625 14.875 13.375 
Q 16.65625 9.859375 20.171875 7.921875 
Q 23.6875 6 27.734375 6 
Q 34.03125 6 38.125 10.046875 
Q 42.234375 14.109375 42.234375 20.359375 
Q 42.234375 26.703125 38.015625 30.859375 
Q 33.796875 35.015625 27.4375 35.015625 
Q 21.234375 35.015625 17.15625 30.90625 
Q 13.09375 26.8125 13.09375 20.65625 
z
" id="ArialMT-56"/>
       <path d="M 4.15625 18.75 
L 13.375 19.53125 
Q 14.40625 12.796875 18.140625 9.390625 
Q 21.875 6 27.15625 6 
Q 33.5 6 37.890625 10.78125 
Q 42.28125 15.578125 42.28125 23.484375 
Q 42.28125 31 38.0625 35.34375 
Q 33.84375 39.703125 27 39.703125 
Q 22.75 39.703125 19.328125 37.765625 
Q 15.921875 35.84375 13.96875 32.765625 
L 5.71875 33.84375 
L 12.640625 70.609375 
L 48.25 70.609375 
L 48.25 62.203125 
L 19.671875 62.203125 
L 15.828125 42.96875 
Q 22.265625 47.46875 29.34375 47.46875 
Q 38.71875 47.46875 45.15625 40.96875 
Q 51.609375 34.46875 51.609375 24.265625 
Q 51.609375 14.546875 45.953125 7.46875 
Q 39.0625 -1.21875 27.15625 -1.21875 
Q 17.390625 -1.21875 11.203125 4.25 
Q 5.03125 9.71875 4.15625 18.75 
z
" id="ArialMT-53"/>
      </defs>
      <g style="fill:#262626;" transform="translate(314.385181 480.3065)scale(0.16 -0.16)">
       <use xlink:href="#ArialMT-48"/>
       <use x="55.615234" xlink:href="#ArialMT-56"/>
       <use x="111.230469" xlink:href="#ArialMT-53"/>
       <use x="166.845703" xlink:href="#ArialMT-53"/>
      </g>
     </g>
    </g>
    <g id="xtick_4">
     <g id="text_4">
      <!-- 0855-1 -->
      <g style="fill:#262626;" transform="translate(411.588754 480.3065)scale(0.16 -0.16)">
       <use xlink:href="#ArialMT-48"/>
       <use x="55.615234" xlink:href="#ArialMT-56"/>
       <use x="111.230469" xlink:href="#ArialMT-53"/>
       <use x="166.845703" xlink:href="#ArialMT-53"/>
       <use x="222.460938" xlink:href="#ArialMT-45"/>
       <use x="255.761719" xlink:href="#ArialMT-49"/>
      </g>
     </g>
    </g>
    <g id="xtick_5">
     <g id="text_5">
      <!-- 1001-156 -->
      <defs>
       <path d="M 49.75 54.046875 
L 41.015625 53.375 
Q 39.84375 58.546875 37.703125 60.890625 
Q 34.125 64.65625 28.90625 64.65625 
Q 24.703125 64.65625 21.53125 62.3125 
Q 17.390625 59.28125 14.984375 53.46875 
Q 12.59375 47.65625 12.5 36.921875 
Q 15.671875 41.75 20.265625 44.09375 
Q 24.859375 46.4375 29.890625 46.4375 
Q 38.671875 46.4375 44.84375 39.96875 
Q 51.03125 33.5 51.03125 23.25 
Q 51.03125 16.5 48.125 10.71875 
Q 45.21875 4.9375 40.140625 1.859375 
Q 35.0625 -1.21875 28.609375 -1.21875 
Q 17.625 -1.21875 10.6875 6.859375 
Q 3.765625 14.9375 3.765625 33.5 
Q 3.765625 54.25 11.421875 63.671875 
Q 18.109375 71.875 29.4375 71.875 
Q 37.890625 71.875 43.28125 67.140625 
Q 48.6875 62.40625 49.75 54.046875 
z
M 13.875 23.1875 
Q 13.875 18.65625 15.796875 14.5 
Q 17.71875 10.359375 21.1875 8.171875 
Q 24.65625 6 28.46875 6 
Q 34.03125 6 38.03125 10.484375 
Q 42.046875 14.984375 42.046875 22.703125 
Q 42.046875 30.125 38.078125 34.390625 
Q 34.125 38.671875 28.125 38.671875 
Q 22.171875 38.671875 18.015625 34.390625 
Q 13.875 30.125 13.875 23.1875 
z
" id="ArialMT-54"/>
      </defs>
      <g style="fill:#262626;" transform="translate(507.007327 480.3065)scale(0.16 -0.16)">
       <use xlink:href="#ArialMT-49"/>
       <use x="55.615234" xlink:href="#ArialMT-48"/>
       <use x="111.230469" xlink:href="#ArialMT-48"/>
       <use x="166.845703" xlink:href="#ArialMT-49"/>
       <use x="222.460938" xlink:href="#ArialMT-45"/>
       <use x="255.761719" xlink:href="#ArialMT-49"/>
       <use x="311.376953" xlink:href="#ArialMT-53"/>
       <use x="366.992188" xlink:href="#ArialMT-54"/>
      </g>
     </g>
    </g>
    <g id="text_6">
     <!-- Counter id -->
     <defs>
      <path d="M 58.796875 25.09375 
L 68.265625 22.703125 
Q 65.28125 11.03125 57.546875 4.90625 
Q 49.8125 -1.21875 38.625 -1.21875 
Q 27.046875 -1.21875 19.796875 3.484375 
Q 12.546875 8.203125 8.765625 17.140625 
Q 4.984375 26.078125 4.984375 36.328125 
Q 4.984375 47.515625 9.25 55.828125 
Q 13.53125 64.15625 21.40625 68.46875 
Q 29.296875 72.796875 38.765625 72.796875 
Q 49.515625 72.796875 56.828125 67.328125 
Q 64.15625 61.859375 67.046875 51.953125 
L 57.71875 49.75 
Q 55.21875 57.5625 50.484375 61.125 
Q 45.75 64.703125 38.578125 64.703125 
Q 30.328125 64.703125 24.78125 60.734375 
Q 19.234375 56.78125 16.984375 50.109375 
Q 14.75 43.453125 14.75 36.375 
Q 14.75 27.25 17.40625 20.4375 
Q 20.0625 13.625 25.671875 10.25 
Q 31.296875 6.890625 37.84375 6.890625 
Q 45.796875 6.890625 51.3125 11.46875 
Q 56.84375 16.0625 58.796875 25.09375 
z
" id="ArialMT-67"/>
      <path d="M 3.328125 25.921875 
Q 3.328125 40.328125 11.328125 47.265625 
Q 18.015625 53.03125 27.640625 53.03125 
Q 38.328125 53.03125 45.109375 46.015625 
Q 51.90625 39.015625 51.90625 26.65625 
Q 51.90625 16.65625 48.90625 10.90625 
Q 45.90625 5.171875 40.15625 2 
Q 34.421875 -1.171875 27.640625 -1.171875 
Q 16.75 -1.171875 10.03125 5.8125 
Q 3.328125 12.796875 3.328125 25.921875 
z
M 12.359375 25.921875 
Q 12.359375 15.96875 16.703125 11.015625 
Q 21.046875 6.0625 27.640625 6.0625 
Q 34.1875 6.0625 38.53125 11.03125 
Q 42.875 16.015625 42.875 26.21875 
Q 42.875 35.84375 38.5 40.796875 
Q 34.125 45.75 27.640625 45.75 
Q 21.046875 45.75 16.703125 40.8125 
Q 12.359375 35.890625 12.359375 25.921875 
z
" id="ArialMT-111"/>
      <path d="M 40.578125 0 
L 40.578125 7.625 
Q 34.515625 -1.171875 24.125 -1.171875 
Q 19.53125 -1.171875 15.546875 0.578125 
Q 11.578125 2.34375 9.640625 5 
Q 7.71875 7.671875 6.9375 11.53125 
Q 6.390625 14.109375 6.390625 19.734375 
L 6.390625 51.859375 
L 15.1875 51.859375 
L 15.1875 23.09375 
Q 15.1875 16.21875 15.71875 13.8125 
Q 16.546875 10.359375 19.234375 8.375 
Q 21.921875 6.390625 25.875 6.390625 
Q 29.828125 6.390625 33.296875 8.421875 
Q 36.765625 10.453125 38.203125 13.9375 
Q 39.65625 17.4375 39.65625 24.078125 
L 39.65625 51.859375 
L 48.4375 51.859375 
L 48.4375 0 
z
" id="ArialMT-117"/>
      <path d="M 6.59375 0 
L 6.59375 51.859375 
L 14.5 51.859375 
L 14.5 44.484375 
Q 20.21875 53.03125 31 53.03125 
Q 35.6875 53.03125 39.625 51.34375 
Q 43.5625 49.65625 45.515625 46.921875 
Q 47.46875 44.1875 48.25 40.4375 
Q 48.734375 37.984375 48.734375 31.890625 
L 48.734375 0 
L 39.9375 0 
L 39.9375 31.546875 
Q 39.9375 36.921875 38.90625 39.578125 
Q 37.890625 42.234375 35.28125 43.8125 
Q 32.671875 45.40625 29.15625 45.40625 
Q 23.53125 45.40625 19.453125 41.84375 
Q 15.375 38.28125 15.375 28.328125 
L 15.375 0 
z
" id="ArialMT-110"/>
      <path d="M 25.78125 7.859375 
L 27.046875 0.09375 
Q 23.34375 -0.6875 20.40625 -0.6875 
Q 15.625 -0.6875 12.984375 0.828125 
Q 10.359375 2.34375 9.28125 4.8125 
Q 8.203125 7.28125 8.203125 15.1875 
L 8.203125 45.015625 
L 1.765625 45.015625 
L 1.765625 51.859375 
L 8.203125 51.859375 
L 8.203125 64.703125 
L 16.9375 69.96875 
L 16.9375 51.859375 
L 25.78125 51.859375 
L 25.78125 45.015625 
L 16.9375 45.015625 
L 16.9375 14.703125 
Q 16.9375 10.9375 17.40625 9.859375 
Q 17.875 8.796875 18.921875 8.15625 
Q 19.96875 7.515625 21.921875 7.515625 
Q 23.390625 7.515625 25.78125 7.859375 
z
" id="ArialMT-116"/>
      <path d="M 42.09375 16.703125 
L 51.171875 15.578125 
Q 49.03125 7.625 43.21875 3.21875 
Q 37.40625 -1.171875 28.375 -1.171875 
Q 17 -1.171875 10.328125 5.828125 
Q 3.65625 12.84375 3.65625 25.484375 
Q 3.65625 38.578125 10.390625 45.796875 
Q 17.140625 53.03125 27.875 53.03125 
Q 38.28125 53.03125 44.875 45.953125 
Q 51.46875 38.875 51.46875 26.03125 
Q 51.46875 25.25 51.421875 23.6875 
L 12.75 23.6875 
Q 13.234375 15.140625 17.578125 10.59375 
Q 21.921875 6.0625 28.421875 6.0625 
Q 33.25 6.0625 36.671875 8.59375 
Q 40.09375 11.140625 42.09375 16.703125 
z
M 13.234375 30.90625 
L 42.1875 30.90625 
Q 41.609375 37.453125 38.875 40.71875 
Q 34.671875 45.796875 27.984375 45.796875 
Q 21.921875 45.796875 17.796875 41.75 
Q 13.671875 37.703125 13.234375 30.90625 
z
" id="ArialMT-101"/>
      <path d="M 6.5 0 
L 6.5 51.859375 
L 14.40625 51.859375 
L 14.40625 44 
Q 17.4375 49.515625 20 51.265625 
Q 22.5625 53.03125 25.640625 53.03125 
Q 30.078125 53.03125 34.671875 50.203125 
L 31.640625 42.046875 
Q 28.421875 43.953125 25.203125 43.953125 
Q 22.3125 43.953125 20.015625 42.21875 
Q 17.71875 40.484375 16.75 37.40625 
Q 15.28125 32.71875 15.28125 27.15625 
L 15.28125 0 
z
" id="ArialMT-114"/>
      <path id="ArialMT-32"/>
      <path d="M 6.640625 61.46875 
L 6.640625 71.578125 
L 15.4375 71.578125 
L 15.4375 61.46875 
z
M 6.640625 0 
L 6.640625 51.859375 
L 15.4375 51.859375 
L 15.4375 0 
z
" id="ArialMT-105"/>
      <path d="M 40.234375 0 
L 40.234375 6.546875 
Q 35.296875 -1.171875 25.734375 -1.171875 
Q 19.53125 -1.171875 14.328125 2.25 
Q 9.125 5.671875 6.265625 11.796875 
Q 3.421875 17.921875 3.421875 25.875 
Q 3.421875 33.640625 6 39.96875 
Q 8.59375 46.296875 13.765625 49.65625 
Q 18.953125 53.03125 25.34375 53.03125 
Q 30.03125 53.03125 33.6875 51.046875 
Q 37.359375 49.078125 39.65625 45.90625 
L 39.65625 71.578125 
L 48.390625 71.578125 
L 48.390625 0 
z
M 12.453125 25.875 
Q 12.453125 15.921875 16.640625 10.984375 
Q 20.84375 6.0625 26.5625 6.0625 
Q 32.328125 6.0625 36.34375 10.765625 
Q 40.375 15.484375 40.375 25.140625 
Q 40.375 35.796875 36.265625 40.765625 
Q 32.171875 45.75 26.171875 45.75 
Q 20.3125 45.75 16.375 40.96875 
Q 12.453125 36.1875 12.453125 25.875 
z
" id="ArialMT-100"/>
     </defs>
     <g style="fill:#262626;" transform="translate(295.272681 498.939)scale(0.16 -0.16)">
      <use xlink:href="#ArialMT-67"/>
      <use x="72.216797" xlink:href="#ArialMT-111"/>
      <use x="127.832031" xlink:href="#ArialMT-117"/>
      <use x="183.447266" xlink:href="#ArialMT-110"/>
      <use x="239.0625" xlink:href="#ArialMT-116"/>
      <use x="266.845703" xlink:href="#ArialMT-101"/>
      <use x="322.460938" xlink:href="#ArialMT-114"/>
      <use x="355.761719" xlink:href="#ArialMT-32"/>
      <use x="383.544922" xlink:href="#ArialMT-105"/>
      <use x="405.761719" xlink:href="#ArialMT-100"/>
     </g>
    </g>
   </g>
   <g id="matplotlib.axis_2">
    <g id="ytick_1">
     <g id="text_7">
      <!-- 0 -->
      <g style="fill:#262626;" transform="translate(55.4925 409.159848)scale(0.16 -0.16)">
       <use xlink:href="#ArialMT-48"/>
      </g>
     </g>
    </g>
    <g id="ytick_2">
     <g id="text_8">
      <!-- 1000 -->
      <g style="fill:#262626;" transform="translate(28.8 327.876596)scale(0.16 -0.16)">
       <use xlink:href="#ArialMT-49"/>
       <use x="55.615234" xlink:href="#ArialMT-48"/>
       <use x="111.230469" xlink:href="#ArialMT-48"/>
       <use x="166.845703" xlink:href="#ArialMT-48"/>
      </g>
     </g>
    </g>
    <g id="ytick_3">
     <g id="text_9">
      <!-- 2000 -->
      <defs>
       <path d="M 50.34375 8.453125 
L 50.34375 0 
L 3.03125 0 
Q 2.9375 3.171875 4.046875 6.109375 
Q 5.859375 10.9375 9.828125 15.625 
Q 13.8125 20.3125 21.34375 26.46875 
Q 33.015625 36.03125 37.109375 41.625 
Q 41.21875 47.21875 41.21875 52.203125 
Q 41.21875 57.421875 37.46875 61 
Q 33.734375 64.59375 27.734375 64.59375 
Q 21.390625 64.59375 17.578125 60.78125 
Q 13.765625 56.984375 13.71875 50.25 
L 4.6875 51.171875 
Q 5.609375 61.28125 11.65625 66.578125 
Q 17.71875 71.875 27.9375 71.875 
Q 38.234375 71.875 44.234375 66.15625 
Q 50.25 60.453125 50.25 52 
Q 50.25 47.703125 48.484375 43.546875 
Q 46.734375 39.40625 42.65625 34.8125 
Q 38.578125 30.21875 29.109375 22.21875 
Q 21.1875 15.578125 18.9375 13.203125 
Q 16.703125 10.84375 15.234375 8.453125 
z
" id="ArialMT-50"/>
      </defs>
      <g style="fill:#262626;" transform="translate(28.8 246.593344)scale(0.16 -0.16)">
       <use xlink:href="#ArialMT-50"/>
       <use x="55.615234" xlink:href="#ArialMT-48"/>
       <use x="111.230469" xlink:href="#ArialMT-48"/>
       <use x="166.845703" xlink:href="#ArialMT-48"/>
      </g>
     </g>
    </g>
    <g id="ytick_4">
     <g id="text_10">
      <!-- 3000 -->
      <defs>
       <path d="M 4.203125 18.890625 
L 12.984375 20.0625 
Q 14.5 12.59375 18.140625 9.296875 
Q 21.78125 6 27 6 
Q 33.203125 6 37.46875 10.296875 
Q 41.75 14.59375 41.75 20.953125 
Q 41.75 27 37.796875 30.921875 
Q 33.84375 34.859375 27.734375 34.859375 
Q 25.25 34.859375 21.53125 33.890625 
L 22.515625 41.609375 
Q 23.390625 41.5 23.921875 41.5 
Q 29.546875 41.5 34.03125 44.421875 
Q 38.53125 47.359375 38.53125 53.46875 
Q 38.53125 58.296875 35.25 61.46875 
Q 31.984375 64.65625 26.8125 64.65625 
Q 21.6875 64.65625 18.265625 61.421875 
Q 14.84375 58.203125 13.875 51.765625 
L 5.078125 53.328125 
Q 6.6875 62.15625 12.390625 67.015625 
Q 18.109375 71.875 26.609375 71.875 
Q 32.46875 71.875 37.390625 69.359375 
Q 42.328125 66.84375 44.9375 62.5 
Q 47.5625 58.15625 47.5625 53.265625 
Q 47.5625 48.640625 45.0625 44.828125 
Q 42.578125 41.015625 37.703125 38.765625 
Q 44.046875 37.3125 47.5625 32.6875 
Q 51.078125 28.078125 51.078125 21.140625 
Q 51.078125 11.765625 44.234375 5.25 
Q 37.40625 -1.265625 26.953125 -1.265625 
Q 17.53125 -1.265625 11.296875 4.34375 
Q 5.078125 9.96875 4.203125 18.890625 
z
" id="ArialMT-51"/>
      </defs>
      <g style="fill:#262626;" transform="translate(28.8 165.310092)scale(0.16 -0.16)">
       <use xlink:href="#ArialMT-51"/>
       <use x="55.615234" xlink:href="#ArialMT-48"/>
       <use x="111.230469" xlink:href="#ArialMT-48"/>
       <use x="166.845703" xlink:href="#ArialMT-48"/>
      </g>
     </g>
    </g>
    <g id="ytick_5">
     <g id="text_11">
      <!-- 4000 -->
      <g style="fill:#262626;" transform="translate(28.8 84.026839)scale(0.16 -0.16)">
       <use xlink:href="#ArialMT-52"/>
       <use x="55.615234" xlink:href="#ArialMT-48"/>
       <use x="111.230469" xlink:href="#ArialMT-48"/>
       <use x="166.845703" xlink:href="#ArialMT-48"/>
      </g>
     </g>
    </g>
    <g id="text_12">
     <!-- Count [$h^{-1}$] -->
     <defs>
      <path d="M 6.78125 -19.875 
L 6.78125 71.578125 
L 26.171875 71.578125 
L 26.171875 64.3125 
L 15.578125 64.3125 
L 15.578125 -12.59375 
L 26.171875 -12.59375 
L 26.171875 -19.875 
z
" id="ArialMT-91"/>
      <path d="M 55.71875 33.015625 
L 49.3125 0 
L 40.28125 0 
L 46.6875 32.671875 
Q 47.125 34.96875 47.359375 36.71875 
Q 47.609375 38.484375 47.609375 39.5 
Q 47.609375 43.609375 45.015625 45.890625 
Q 42.4375 48.1875 37.796875 48.1875 
Q 30.5625 48.1875 25.265625 43.296875 
Q 19.96875 38.421875 18.40625 30.328125 
L 12.5 0 
L 3.515625 0 
L 18.3125 75.984375 
L 27.296875 75.984375 
L 21.484375 46.09375 
Q 24.90625 50.6875 30.21875 53.34375 
Q 35.546875 56 41.40625 56 
Q 48.640625 56 52.609375 52.09375 
Q 56.59375 48.1875 56.59375 41.109375 
Q 56.59375 39.359375 56.375 37.359375 
Q 56.15625 35.359375 55.71875 33.015625 
z
" id="DejaVuSans-Oblique-104"/>
      <path d="M 10.59375 35.5 
L 73.1875 35.5 
L 73.1875 27.203125 
L 10.59375 27.203125 
z
" id="DejaVuSans-8722"/>
      <path d="M 12.40625 8.296875 
L 28.515625 8.296875 
L 28.515625 63.921875 
L 10.984375 60.40625 
L 10.984375 69.390625 
L 28.421875 72.90625 
L 38.28125 72.90625 
L 38.28125 8.296875 
L 54.390625 8.296875 
L 54.390625 0 
L 12.40625 0 
z
" id="DejaVuSans-49"/>
      <path d="M 21.296875 -19.875 
L 1.90625 -19.875 
L 1.90625 -12.59375 
L 12.5 -12.59375 
L 12.5 64.3125 
L 1.90625 64.3125 
L 1.90625 71.578125 
L 21.296875 71.578125 
z
" id="ArialMT-93"/>
     </defs>
     <g style="fill:#262626;" transform="translate(21.6 276.687)rotate(-90)scale(0.16 -0.16)">
      <use transform="translate(0 0.684375)" xlink:href="#ArialMT-67"/>
      <use transform="translate(72.216797 0.684375)" xlink:href="#ArialMT-111"/>
      <use transform="translate(127.832031 0.684375)" xlink:href="#ArialMT-117"/>
      <use transform="translate(183.447266 0.684375)" xlink:href="#ArialMT-110"/>
      <use transform="translate(239.0625 0.684375)" xlink:href="#ArialMT-116"/>
      <use transform="translate(266.845703 0.684375)" xlink:href="#ArialMT-32"/>
      <use transform="translate(294.628906 0.684375)" xlink:href="#ArialMT-91"/>
      <use transform="translate(322.412109 0.684375)" xlink:href="#DejaVuSans-Oblique-104"/>
      <use transform="translate(393.238724 38.965625)scale(0.7)" xlink:href="#DejaVuSans-8722"/>
      <use transform="translate(451.891068 38.965625)scale(0.7)" xlink:href="#DejaVuSans-49"/>
      <use transform="translate(499.161576 0.684375)" xlink:href="#ArialMT-93"/>
     </g>
    </g>
   </g>
   <g id="PolyCollection_1">
    <defs>
     <path d="M 208.260276 -80.32615 
L 205.741512 -80.32615 
L 205.076056 -83.013336 
L 204.163675 -85.700522 
L 202.966618 -88.387708 
L 201.465576 -91.074894 
L 199.669687 -93.76208 
L 197.62437 -96.449266 
L 195.414435 -99.136452 
L 193.160455 -101.823638 
L 191.007706 -104.510824 
L 189.108736 -107.198011 
L 187.602443 -109.885197 
L 186.593692 -112.572383 
L 186.13768 -115.259569 
L 186.232254 -117.946755 
L 186.819553 -120.633941 
L 187.796195 -123.321127 
L 189.029493 -126.008313 
L 190.376187 -128.695499 
L 191.700242 -131.382685 
L 192.887065 -134.069872 
L 193.852702 -136.757058 
L 194.547827 -139.444244 
L 194.957152 -142.13143 
L 195.09543 -144.818616 
L 195.001235 -147.505802 
L 194.729637 -150.192988 
L 194.34463 -152.880174 
L 193.911983 -155.56736 
L 193.493015 -158.254546 
L 193.139625 -160.941733 
L 192.890797 -163.628919 
L 192.770666 -166.316105 
L 192.788113 -169.003291 
L 192.937806 -171.690477 
L 193.202539 -174.377663 
L 193.556601 -177.064849 
L 193.969885 -179.752035 
L 194.412247 -182.439221 
L 194.857585 -185.126407 
L 195.287064 -187.813593 
L 195.690991 -190.50078 
L 196.069078 -193.187966 
L 196.429082 -195.875152 
L 196.784163 -198.562338 
L 197.149481 -201.249524 
L 197.538749 -203.93671 
L 197.961388 -206.623896 
L 198.420803 -209.311082 
L 198.91403 -211.998268 
L 199.432695 -214.685454 
L 199.964948 -217.372641 
L 200.497836 -220.059827 
L 201.019532 -222.747013 
L 201.520924 -225.434199 
L 201.996294 -228.121385 
L 202.443088 -230.808571 
L 202.861012 -233.495757 
L 203.250833 -236.182943 
L 203.613286 -238.870129 
L 203.948353 -241.557315 
L 204.255044 -244.244502 
L 204.53159 -246.931688 
L 204.77591 -249.618874 
L 204.986125 -252.30606 
L 205.160985 -254.993246 
L 205.300152 -257.680432 
L 205.404353 -260.367618 
L 205.475489 -263.054804 
L 205.516741 -265.74199 
L 205.532693 -268.429176 
L 205.529396 -271.116362 
L 205.514259 -273.803549 
L 205.495683 -276.490735 
L 205.482371 -279.177921 
L 205.482395 -281.865107 
L 205.502158 -284.552293 
L 205.545493 -287.239479 
L 205.613114 -289.926665 
L 205.702576 -292.613851 
L 205.80879 -295.301037 
L 205.924983 -297.988223 
L 206.043906 -300.67541 
L 206.159021 -303.362596 
L 206.265427 -306.049782 
L 206.360341 -308.736968 
L 206.443106 -311.424154 
L 206.514765 -314.11134 
L 206.577384 -316.798526 
L 206.633306 -319.485712 
L 206.684531 -322.172898 
L 206.732337 -324.860084 
L 206.777182 -327.547271 
L 206.818842 -330.234457 
L 206.856697 -332.921643 
L 206.890048 -335.608829 
L 206.918376 -338.296015 
L 206.941501 -340.983201 
L 206.959611 -343.670387 
L 206.973207 -346.357573 
L 207.028582 -346.357573 
L 207.028582 -346.357573 
L 207.042177 -343.670387 
L 207.060287 -340.983201 
L 207.083412 -338.296015 
L 207.111741 -335.608829 
L 207.145091 -332.921643 
L 207.182946 -330.234457 
L 207.224607 -327.547271 
L 207.269452 -324.860084 
L 207.317258 -322.172898 
L 207.368483 -319.485712 
L 207.424405 -316.798526 
L 207.487024 -314.11134 
L 207.558683 -311.424154 
L 207.641448 -308.736968 
L 207.736362 -306.049782 
L 207.842767 -303.362596 
L 207.957883 -300.67541 
L 208.076806 -297.988223 
L 208.192999 -295.301037 
L 208.299212 -292.613851 
L 208.388675 -289.926665 
L 208.456295 -287.239479 
L 208.49963 -284.552293 
L 208.519393 -281.865107 
L 208.519417 -279.177921 
L 208.506106 -276.490735 
L 208.487529 -273.803549 
L 208.472393 -271.116362 
L 208.469095 -268.429176 
L 208.485048 -265.74199 
L 208.5263 -263.054804 
L 208.597435 -260.367618 
L 208.701637 -257.680432 
L 208.840804 -254.993246 
L 209.015664 -252.30606 
L 209.225879 -249.618874 
L 209.470199 -246.931688 
L 209.746745 -244.244502 
L 210.053435 -241.557315 
L 210.388503 -238.870129 
L 210.750956 -236.182943 
L 211.140777 -233.495757 
L 211.5587 -230.808571 
L 212.005495 -228.121385 
L 212.480865 -225.434199 
L 212.982256 -222.747013 
L 213.503952 -220.059827 
L 214.03684 -217.372641 
L 214.569093 -214.685454 
L 215.087758 -211.998268 
L 215.580986 -209.311082 
L 216.040401 -206.623896 
L 216.46304 -203.93671 
L 216.852308 -201.249524 
L 217.217626 -198.562338 
L 217.572706 -195.875152 
L 217.932711 -193.187966 
L 218.310797 -190.50078 
L 218.714725 -187.813593 
L 219.144203 -185.126407 
L 219.589542 -182.439221 
L 220.031903 -179.752035 
L 220.445187 -177.064849 
L 220.79925 -174.377663 
L 221.063982 -171.690477 
L 221.213676 -169.003291 
L 221.231122 -166.316105 
L 221.110991 -163.628919 
L 220.862164 -160.941733 
L 220.508773 -158.254546 
L 220.089805 -155.56736 
L 219.657159 -152.880174 
L 219.272152 -150.192988 
L 219.000554 -147.505802 
L 218.906359 -144.818616 
L 219.044637 -142.13143 
L 219.453962 -139.444244 
L 220.149086 -136.757058 
L 221.114724 -134.069872 
L 222.301546 -131.382685 
L 223.625602 -128.695499 
L 224.972296 -126.008313 
L 226.205593 -123.321127 
L 227.182236 -120.633941 
L 227.769534 -117.946755 
L 227.864109 -115.259569 
L 227.408097 -112.572383 
L 226.399345 -109.885197 
L 224.893053 -107.198011 
L 222.994083 -104.510824 
L 220.841334 -101.823638 
L 218.587354 -99.136452 
L 216.377418 -96.449266 
L 214.332102 -93.76208 
L 212.536213 -91.074894 
L 211.035171 -88.387708 
L 209.838113 -85.700522 
L 208.925732 -83.013336 
L 208.260276 -80.32615 
z
" id="m059d6ec909" style="stroke:#373737;stroke-width:1.5;"/>
    </defs>
    <g clip-path="url(#p5b7b478b95)">
     <use style="fill:#2b8e70;stroke:#373737;stroke-width:1.5;" x="0" xlink:href="#m059d6ec909" y="509.319"/>
    </g>
   </g>
   <g id="PolyCollection_2">
    <defs>
     <path d="M 249.584234 -68.179012 
L 247.870413 -68.179012 
L 247.424993 -72.167456 
L 246.82138 -76.1559 
L 246.040871 -80.144344 
L 245.079637 -84.132788 
L 243.955033 -88.121233 
L 242.709691 -92.109677 
L 241.411668 -96.098121 
L 240.149512 -100.086565 
L 239.022227 -104.075009 
L 238.125519 -108.063453 
L 237.536877 -112.051897 
L 237.302665 -116.040341 
L 237.430148 -120.028785 
L 237.886266 -124.017229 
L 238.603381 -128.005673 
L 239.490604 -131.994117 
L 240.448124 -135.982561 
L 241.381595 -139.971005 
L 242.213977 -143.959449 
L 242.893138 -147.947893 
L 243.394644 -151.936337 
L 243.72015 -155.924781 
L 243.892435 -159.913225 
L 243.948461 -163.901669 
L 243.931758 -167.890113 
L 243.885269 -171.878557 
L 243.845475 -175.867001 
L 243.83832 -179.855446 
L 243.877117 -183.84389 
L 243.962384 -187.832334 
L 244.083288 -191.820778 
L 244.220243 -195.809222 
L 244.348165 -199.797666 
L 244.439911 -203.78611 
L 244.469576 -207.774554 
L 244.415391 -211.762998 
L 244.262086 -215.751442 
L 244.002588 -219.739886 
L 243.638892 -223.72833 
L 243.181984 -227.716774 
L 242.650737 -231.705218 
L 242.069848 -235.693662 
L 241.467093 -239.682106 
L 240.870336 -243.67055 
L 240.304838 -247.658994 
L 239.791321 -251.647438 
L 239.345091 -255.635882 
L 238.976216 -259.624326 
L 238.690509 -263.61277 
L 238.49088 -267.601215 
L 238.378602 -271.589659 
L 238.354142 -275.578103 
L 238.417417 -279.566547 
L 238.567528 -283.554991 
L 238.802229 -287.543435 
L 239.117368 -291.531879 
L 239.50657 -295.520323 
L 239.961247 -299.508767 
L 240.470931 -303.497211 
L 241.023813 -307.485655 
L 241.607327 -311.474099 
L 242.208676 -315.462543 
L 242.815222 -319.450987 
L 243.414778 -323.439431 
L 243.99588 -327.427875 
L 244.548102 -331.416319 
L 245.062471 -335.404763 
L 245.531957 -339.393207 
L 245.951937 -343.381651 
L 246.320518 -347.370095 
L 246.638603 -351.358539 
L 246.909613 -355.346984 
L 247.138908 -359.335428 
L 247.332962 -363.323872 
L 247.498472 -367.312316 
L 247.641542 -371.30076 
L 247.767099 -375.289204 
L 247.878617 -379.277648 
L 247.978176 -383.266092 
L 248.06677 -387.254536 
L 248.144787 -391.24298 
L 248.212502 -395.231424 
L 248.270472 -399.219868 
L 248.319752 -403.208312 
L 248.361897 -407.196756 
L 248.398778 -411.1852 
L 248.43229 -415.173644 
L 248.464045 -419.162088 
L 248.495127 -423.150532 
L 248.525981 -427.138976 
L 248.556451 -431.12742 
L 248.585929 -435.115864 
L 248.613581 -439.104308 
L 248.638581 -443.092753 
L 248.660289 -447.081197 
L 248.678363 -451.069641 
L 248.692784 -455.058085 
L 248.703806 -459.046529 
L 248.711878 -463.034973 
L 248.742769 -463.034973 
L 248.742769 -463.034973 
L 248.750841 -459.046529 
L 248.761863 -455.058085 
L 248.776283 -451.069641 
L 248.794358 -447.081197 
L 248.816066 -443.092753 
L 248.841065 -439.104308 
L 248.868718 -435.115864 
L 248.898196 -431.12742 
L 248.928666 -427.138976 
L 248.95952 -423.150532 
L 248.990602 -419.162088 
L 249.022357 -415.173644 
L 249.055869 -411.1852 
L 249.09275 -407.196756 
L 249.134894 -403.208312 
L 249.184174 -399.219868 
L 249.242144 -395.231424 
L 249.309859 -391.24298 
L 249.387877 -387.254536 
L 249.476471 -383.266092 
L 249.576029 -379.277648 
L 249.687548 -375.289204 
L 249.813105 -371.30076 
L 249.956175 -367.312316 
L 250.121685 -363.323872 
L 250.315739 -359.335428 
L 250.545034 -355.346984 
L 250.816044 -351.358539 
L 251.134128 -347.370095 
L 251.50271 -343.381651 
L 251.922689 -339.393207 
L 252.392175 -335.404763 
L 252.906545 -331.416319 
L 253.458766 -327.427875 
L 254.039869 -323.439431 
L 254.639425 -319.450987 
L 255.24597 -315.462543 
L 255.847319 -311.474099 
L 256.430834 -307.485655 
L 256.983715 -303.497211 
L 257.4934 -299.508767 
L 257.948077 -295.520323 
L 258.337279 -291.531879 
L 258.652418 -287.543435 
L 258.887118 -283.554991 
L 259.03723 -279.566547 
L 259.100504 -275.578103 
L 259.076045 -271.589659 
L 258.963767 -267.601215 
L 258.764138 -263.61277 
L 258.478431 -259.624326 
L 258.109556 -255.635882 
L 257.663325 -251.647438 
L 257.149808 -247.658994 
L 256.58431 -243.67055 
L 255.987554 -239.682106 
L 255.384799 -235.693662 
L 254.80391 -231.705218 
L 254.272662 -227.716774 
L 253.815755 -223.72833 
L 253.452058 -219.739886 
L 253.192561 -215.751442 
L 253.039256 -211.762998 
L 252.98507 -207.774554 
L 253.014735 -203.78611 
L 253.106482 -199.797666 
L 253.234403 -195.809222 
L 253.371359 -191.820778 
L 253.492263 -187.832334 
L 253.57753 -183.84389 
L 253.616327 -179.855446 
L 253.609171 -175.867001 
L 253.569378 -171.878557 
L 253.522888 -167.890113 
L 253.506185 -163.901669 
L 253.562212 -159.913225 
L 253.734497 -155.924781 
L 254.060002 -151.936337 
L 254.561509 -147.947893 
L 255.24067 -143.959449 
L 256.073052 -139.971005 
L 257.006523 -135.982561 
L 257.964043 -131.994117 
L 258.851265 -128.005673 
L 259.568381 -124.017229 
L 260.024498 -120.028785 
L 260.151982 -116.040341 
L 259.91777 -112.051897 
L 259.329128 -108.063453 
L 258.43242 -104.075009 
L 257.305135 -100.086565 
L 256.042978 -96.098121 
L 254.744956 -92.109677 
L 253.499614 -88.121233 
L 252.37501 -84.132788 
L 251.413776 -80.144344 
L 250.633266 -76.1559 
L 250.029654 -72.167456 
L 249.584234 -68.179012 
z
" id="m6652312f8f" style="stroke:#373737;stroke-width:1.5;"/>
    </defs>
    <g clip-path="url(#p5b7b478b95)">
     <use style="fill:#be631d;stroke:#373737;stroke-width:1.5;" x="0" xlink:href="#m6652312f8f" y="509.319"/>
    </g>
   </g>
   <g id="PolyCollection_3">
    <defs>
     <path d="M 312.311898 -82.076421 
L 310.322036 -82.076421 
L 309.703457 -84.908057 
L 308.812938 -87.739692 
L 307.596858 -90.571328 
L 306.023894 -93.402963 
L 304.100582 -96.234599 
L 301.883718 -99.066234 
L 299.484825 -101.89787 
L 297.062984 -104.729505 
L 294.805122 -107.561141 
L 292.896637 -110.392776 
L 291.488736 -113.224412 
L 290.670614 -116.056047 
L 290.453752 -118.887683 
L 290.772329 -121.719318 
L 291.499163 -124.550954 
L 292.472438 -127.382589 
L 293.526096 -130.214225 
L 294.516823 -133.04586 
L 295.34261 -135.877496 
L 295.950874 -138.709131 
L 296.336902 -141.540766 
L 296.535147 -144.372402 
L 296.606493 -147.204037 
L 296.624236 -150.035673 
L 296.660815 -152.867308 
L 296.77663 -155.698944 
L 297.011844 -158.530579 
L 297.38181 -161.362215 
L 297.876523 -164.19385 
L 298.464093 -167.025486 
L 299.097695 -169.857121 
L 299.724777 -172.688757 
L 300.296875 -175.520392 
L 300.778217 -178.352028 
L 301.151543 -181.183663 
L 301.420194 -184.015299 
L 301.606251 -186.846934 
L 301.745318 -189.67857 
L 301.879112 -192.510205 
L 302.047445 -195.34184 
L 302.28121 -198.173476 
L 302.59772 -201.005111 
L 302.999199 -203.836747 
L 303.474447 -206.668382 
L 304.002925 -209.500018 
L 304.560013 -212.331653 
L 305.121964 -215.163289 
L 305.669454 -217.994924 
L 306.18913 -220.82656 
L 306.673312 -223.658195 
L 307.118491 -226.489831 
L 307.523484 -229.321466 
L 307.887996 -232.153102 
L 308.211976 -234.984737 
L 308.495745 -237.816373 
L 308.740554 -240.648008 
L 308.949113 -243.479644 
L 309.125724 -246.311279 
L 309.275896 -249.142915 
L 309.405546 -251.97455 
L 309.520106 -254.806185 
L 309.623855 -257.637821 
L 309.719694 -260.469456 
L 309.809374 -263.301092 
L 309.894023 -266.132727 
L 309.9747 -268.964363 
L 310.052742 -271.795998 
L 310.129763 -274.627634 
L 310.207352 -277.459269 
L 310.286599 -280.290905 
L 310.367667 -283.12254 
L 310.449581 -285.954176 
L 310.530331 -288.785811 
L 310.607266 -291.617447 
L 310.677679 -294.449082 
L 310.739437 -297.280718 
L 310.791475 -300.112353 
L 310.834036 -302.943989 
L 310.868579 -305.775624 
L 310.897371 -308.607259 
L 310.922898 -311.438895 
L 310.947258 -314.27053 
L 310.971738 -317.102166 
L 310.996704 -319.933801 
L 311.021803 -322.765437 
L 311.046379 -325.597072 
L 311.069913 -328.428708 
L 311.092297 -331.260343 
L 311.113872 -334.091979 
L 311.135226 -336.923614 
L 311.156883 -339.75525 
L 311.179029 -342.586885 
L 311.201383 -345.418521 
L 311.223257 -348.250156 
L 311.243755 -351.081792 
L 311.26202 -353.913427 
L 311.277441 -356.745063 
L 311.289758 -359.576698 
L 311.299065 -362.408334 
L 311.334869 -362.408334 
L 311.334869 -362.408334 
L 311.344175 -359.576698 
L 311.356493 -356.745063 
L 311.371914 -353.913427 
L 311.390179 -351.081792 
L 311.410677 -348.250156 
L 311.432551 -345.418521 
L 311.454905 -342.586885 
L 311.477051 -339.75525 
L 311.498708 -336.923614 
L 311.520062 -334.091979 
L 311.541637 -331.260343 
L 311.564021 -328.428708 
L 311.587555 -325.597072 
L 311.612131 -322.765437 
L 311.63723 -319.933801 
L 311.662196 -317.102166 
L 311.686676 -314.27053 
L 311.711036 -311.438895 
L 311.736563 -308.607259 
L 311.765355 -305.775624 
L 311.799898 -302.943989 
L 311.842459 -300.112353 
L 311.894497 -297.280718 
L 311.956255 -294.449082 
L 312.026668 -291.617447 
L 312.103603 -288.785811 
L 312.184353 -285.954176 
L 312.266267 -283.12254 
L 312.347334 -280.290905 
L 312.426582 -277.459269 
L 312.504171 -274.627634 
L 312.581192 -271.795998 
L 312.659233 -268.964363 
L 312.739911 -266.132727 
L 312.82456 -263.301092 
L 312.91424 -260.469456 
L 313.010079 -257.637821 
L 313.113828 -254.806185 
L 313.228388 -251.97455 
L 313.358037 -249.142915 
L 313.50821 -246.311279 
L 313.684821 -243.479644 
L 313.89338 -240.648008 
L 314.138189 -237.816373 
L 314.421958 -234.984737 
L 314.745938 -232.153102 
L 315.11045 -229.321466 
L 315.515443 -226.489831 
L 315.960622 -223.658195 
L 316.444804 -220.82656 
L 316.964479 -217.994924 
L 317.511969 -215.163289 
L 318.073921 -212.331653 
L 318.631008 -209.500018 
L 319.159487 -206.668382 
L 319.634734 -203.836747 
L 320.036214 -201.005111 
L 320.352724 -198.173476 
L 320.586488 -195.34184 
L 320.754822 -192.510205 
L 320.888616 -189.67857 
L 321.027682 -186.846934 
L 321.21374 -184.015299 
L 321.48239 -181.183663 
L 321.855717 -178.352028 
L 322.337058 -175.520392 
L 322.909157 -172.688757 
L 323.536239 -169.857121 
L 324.169841 -167.025486 
L 324.757411 -164.19385 
L 325.252124 -161.362215 
L 325.62209 -158.530579 
L 325.857304 -155.698944 
L 325.973119 -152.867308 
L 326.009698 -150.035673 
L 326.027441 -147.204037 
L 326.098787 -144.372402 
L 326.297032 -141.540766 
L 326.68306 -138.709131 
L 327.291324 -135.877496 
L 328.117111 -133.04586 
L 329.107837 -130.214225 
L 330.161496 -127.382589 
L 331.134771 -124.550954 
L 331.861605 -121.719318 
L 332.180181 -118.887683 
L 331.96332 -116.056047 
L 331.145198 -113.224412 
L 329.737297 -110.392776 
L 327.828812 -107.561141 
L 325.57095 -104.729505 
L 323.149109 -101.89787 
L 320.750216 -99.066234 
L 318.533352 -96.234599 
L 316.61004 -93.402963 
L 315.037076 -90.571328 
L 313.820996 -87.739692 
L 312.930476 -84.908057 
L 312.311898 -82.076421 
z
" id="m98fb2dd961" style="stroke:#373737;stroke-width:1.5;"/>
    </defs>
    <g clip-path="url(#p5b7b478b95)">
     <use style="fill:#2b8e70;stroke:#373737;stroke-width:1.5;" x="0" xlink:href="#m98fb2dd961" y="509.319"/>
    </g>
   </g>
   <g id="PolyCollection_4">
    <defs>
     <path d="M 353.698624 -68.131091 
L 352.388168 -68.131091 
L 352.033713 -72.306059 
L 351.54531 -76.481027 
L 350.902768 -80.655994 
L 350.096908 -84.830962 
L 349.135438 -89.00593 
L 348.047414 -93.180898 
L 346.884693 -97.355866 
L 345.719126 -101.530834 
L 344.635125 -105.705802 
L 343.718392 -109.88077 
L 343.042798 -114.055737 
L 342.658153 -118.230705 
L 342.581672 -122.405673 
L 342.795202 -126.580641 
L 343.248936 -130.755609 
L 343.870776 -134.930577 
L 344.579204 -139.105545 
L 345.296799 -143.280512 
L 345.961594 -147.45548 
L 346.534206 -151.630448 
L 346.999799 -155.805416 
L 347.365185 -159.980384 
L 347.652341 -164.155352 
L 347.890196 -168.33032 
L 348.106593 -172.505287 
L 348.321974 -176.680255 
L 348.54567 -180.855223 
L 348.774991 -185.030191 
L 348.996677 -189.205159 
L 349.189929 -193.380127 
L 349.330155 -197.555095 
L 349.392721 -201.730062 
L 349.356266 -205.90503 
L 349.20542 -210.079998 
L 348.932872 -214.254966 
L 348.540805 -218.429934 
L 348.041604 -222.604902 
L 347.45765 -226.77987 
L 346.820031 -230.954837 
L 346.166095 -235.129805 
L 345.535989 -239.304773 
L 344.968593 -243.479741 
L 344.497446 -247.654709 
L 344.14732 -251.829677 
L 343.932015 -256.004645 
L 343.853691 -260.179612 
L 343.903767 -264.35458 
L 344.065138 -268.529548 
L 344.315247 -272.704516 
L 344.629455 -276.879484 
L 344.984172 -281.054452 
L 345.359323 -285.22942 
L 345.739862 -289.404388 
L 346.11625 -293.579355 
L 346.483976 -297.754323 
L 346.842366 -301.929291 
L 347.193005 -306.104259 
L 347.538136 -310.279227 
L 347.879355 -314.454195 
L 348.216817 -318.629163 
L 348.549017 -322.80413 
L 348.873066 -326.979098 
L 349.185299 -331.154066 
L 349.481981 -335.329034 
L 349.75993 -339.504002 
L 350.016927 -343.67897 
L 350.251901 -347.853938 
L 350.464907 -352.028905 
L 350.657006 -356.203873 
L 350.830073 -360.378841 
L 350.986595 -364.553809 
L 351.129432 -368.728777 
L 351.26155 -372.903745 
L 351.385706 -377.078713 
L 351.504153 -381.25368 
L 351.618404 -385.428648 
L 351.729133 -389.603616 
L 351.836268 -393.778584 
L 351.939239 -397.953552 
L 352.037338 -402.12852 
L 352.13007 -406.303488 
L 352.217391 -410.478455 
L 352.299766 -414.653423 
L 352.378023 -418.828391 
L 352.453085 -423.003359 
L 352.525643 -427.178327 
L 352.595914 -431.353295 
L 352.663539 -435.528263 
L 352.727648 -439.70323 
L 352.787074 -443.878198 
L 352.840629 -448.053166 
L 352.887365 -452.228134 
L 352.926757 -456.403102 
L 352.958779 -460.57807 
L 352.983866 -464.753038 
L 353.002803 -468.928006 
L 353.016577 -473.102973 
L 353.026233 -477.277941 
L 353.03276 -481.452909 
L 353.054032 -481.452909 
L 353.054032 -481.452909 
L 353.060558 -477.277941 
L 353.070214 -473.102973 
L 353.083988 -468.928006 
L 353.102925 -464.753038 
L 353.128013 -460.57807 
L 353.160035 -456.403102 
L 353.199427 -452.228134 
L 353.246163 -448.053166 
L 353.299718 -443.878198 
L 353.359144 -439.70323 
L 353.423253 -435.528263 
L 353.490878 -431.353295 
L 353.561149 -427.178327 
L 353.633707 -423.003359 
L 353.708769 -418.828391 
L 353.787026 -414.653423 
L 353.8694 -410.478455 
L 353.956722 -406.303488 
L 354.049454 -402.12852 
L 354.147553 -397.953552 
L 354.250524 -393.778584 
L 354.357659 -389.603616 
L 354.468388 -385.428648 
L 354.582639 -381.25368 
L 354.701086 -377.078713 
L 354.825242 -372.903745 
L 354.957359 -368.728777 
L 355.100197 -364.553809 
L 355.256719 -360.378841 
L 355.429786 -356.203873 
L 355.621885 -352.028905 
L 355.834891 -347.853938 
L 356.069864 -343.67897 
L 356.326862 -339.504002 
L 356.604811 -335.329034 
L 356.901493 -331.154066 
L 357.213726 -326.979098 
L 357.537775 -322.80413 
L 357.869975 -318.629163 
L 358.207437 -314.454195 
L 358.548656 -310.279227 
L 358.893787 -306.104259 
L 359.244426 -301.929291 
L 359.602816 -297.754323 
L 359.970542 -293.579355 
L 360.34693 -289.404388 
L 360.727469 -285.22942 
L 361.10262 -281.054452 
L 361.457337 -276.879484 
L 361.771545 -272.704516 
L 362.021654 -268.529548 
L 362.183025 -264.35458 
L 362.233101 -260.179612 
L 362.154777 -256.004645 
L 361.939472 -251.829677 
L 361.589346 -247.654709 
L 361.118199 -243.479741 
L 360.550803 -239.304773 
L 359.920697 -235.129805 
L 359.266761 -230.954837 
L 358.629142 -226.77987 
L 358.045187 -222.604902 
L 357.545986 -218.429934 
L 357.15392 -214.254966 
L 356.881372 -210.079998 
L 356.730526 -205.90503 
L 356.694071 -201.730062 
L 356.756636 -197.555095 
L 356.896863 -193.380127 
L 357.090115 -189.205159 
L 357.311801 -185.030191 
L 357.541122 -180.855223 
L 357.764818 -176.680255 
L 357.980199 -172.505287 
L 358.196596 -168.33032 
L 358.434451 -164.155352 
L 358.721607 -159.980384 
L 359.086993 -155.805416 
L 359.552586 -151.630448 
L 360.125198 -147.45548 
L 360.789993 -143.280512 
L 361.507588 -139.105545 
L 362.216016 -134.930577 
L 362.837856 -130.755609 
L 363.29159 -126.580641 
L 363.50512 -122.405673 
L 363.428639 -118.230705 
L 363.043994 -114.055737 
L 362.3684 -109.88077 
L 361.451667 -105.705802 
L 360.367666 -101.530834 
L 359.202099 -97.355866 
L 358.039377 -93.180898 
L 356.951354 -89.00593 
L 355.989884 -84.830962 
L 355.184024 -80.655994 
L 354.541482 -76.481027 
L 354.053079 -72.306059 
L 353.698624 -68.131091 
z
" id="m894f775f63" style="stroke:#373737;stroke-width:1.5;"/>
    </defs>
    <g clip-path="url(#p5b7b478b95)">
     <use style="fill:#be631d;stroke:#373737;stroke-width:1.5;" x="0" xlink:href="#m894f775f63" y="509.319"/>
    </g>
   </g>
   <g id="PolyCollection_5">
    <defs>
     <path d="M 416.69928 -79.348148 
L 414.566799 -79.348148 
L 413.961823 -82.327678 
L 413.112838 -85.307208 
L 411.975432 -88.286738 
L 410.522412 -91.266268 
L 408.755259 -94.245798 
L 406.713697 -97.225328 
L 404.480331 -100.204858 
L 402.177783 -103.184388 
L 399.957219 -106.163918 
L 397.979329 -109.143448 
L 396.390996 -112.122978 
L 395.302441 -115.102507 
L 394.769825 -118.082037 
L 394.78709 -121.061567 
L 395.288568 -124.041097 
L 396.161279 -127.020627 
L 397.263775 -130.000157 
L 398.447341 -132.979687 
L 399.575585 -135.959217 
L 400.539477 -138.938747 
L 401.266415 -141.918277 
L 401.723213 -144.897807 
L 401.913811 -147.877337 
L 401.872996 -150.856867 
L 401.657517 -153.836397 
L 401.335954 -156.815927 
L 400.97867 -159.795457 
L 400.649091 -162.774987 
L 400.397372 -165.754517 
L 400.257148 -168.734047 
L 400.245502 -171.713577 
L 400.36564 -174.693107 
L 400.611198 -177.672637 
L 400.970866 -180.652167 
L 401.432075 -183.631697 
L 401.982986 -186.611227 
L 402.612668 -189.590757 
L 403.309936 -192.570287 
L 404.061748 -195.549817 
L 404.852047 -198.529347 
L 405.661647 -201.508877 
L 406.469287 -204.488406 
L 407.253523 -207.467936 
L 407.994826 -210.447466 
L 408.67732 -213.426996 
L 409.289779 -216.406526 
L 409.825826 -219.386056 
L 410.283569 -222.365586 
L 410.665002 -225.345116 
L 410.975418 -228.324646 
L 411.222954 -231.304176 
L 411.418178 -234.283706 
L 411.573553 -237.263236 
L 411.702619 -240.242766 
L 411.818852 -243.222296 
L 411.934294 -246.201826 
L 412.058197 -249.181356 
L 412.195959 -252.160886 
L 412.34861 -255.140416 
L 412.513022 -258.119946 
L 412.682839 -261.099476 
L 412.849985 -264.079006 
L 413.006461 -267.058536 
L 413.146077 -270.038066 
L 413.265767 -273.017596 
L 413.366211 -275.997126 
L 413.451649 -278.976656 
L 413.528952 -281.956186 
L 413.606174 -284.935716 
L 413.690932 -287.915246 
L 413.788955 -290.894776 
L 413.90311 -293.874306 
L 414.033048 -296.853835 
L 414.175461 -299.833365 
L 414.32484 -302.812895 
L 414.474506 -305.792425 
L 414.617692 -308.771955 
L 414.748509 -311.751485 
L 414.862653 -314.731015 
L 414.95781 -317.710545 
L 415.03374 -320.690075 
L 415.092089 -323.669605 
L 415.135974 -326.649135 
L 415.169416 -329.628665 
L 415.196719 -332.608195 
L 415.221873 -335.587725 
L 415.248068 -338.567255 
L 415.277376 -341.546785 
L 415.310641 -344.526315 
L 415.347557 -347.505845 
L 415.386922 -350.485375 
L 415.426987 -353.464905 
L 415.465839 -356.444435 
L 415.50174 -359.423965 
L 415.533379 -362.403495 
L 415.559995 -365.383025 
L 415.581388 -368.362555 
L 415.597826 -371.342085 
L 415.609908 -374.321615 
L 415.656171 -374.321615 
L 415.656171 -374.321615 
L 415.668253 -371.342085 
L 415.684691 -368.362555 
L 415.706084 -365.383025 
L 415.7327 -362.403495 
L 415.764339 -359.423965 
L 415.80024 -356.444435 
L 415.839092 -353.464905 
L 415.879157 -350.485375 
L 415.918522 -347.505845 
L 415.955438 -344.526315 
L 415.988703 -341.546785 
L 416.018011 -338.567255 
L 416.044206 -335.587725 
L 416.06936 -332.608195 
L 416.096663 -329.628665 
L 416.130105 -326.649135 
L 416.17399 -323.669605 
L 416.232339 -320.690075 
L 416.308269 -317.710545 
L 416.403426 -314.731015 
L 416.51757 -311.751485 
L 416.648387 -308.771955 
L 416.791573 -305.792425 
L 416.941239 -302.812895 
L 417.090618 -299.833365 
L 417.233031 -296.853835 
L 417.362968 -293.874306 
L 417.477124 -290.894776 
L 417.575147 -287.915246 
L 417.659905 -284.935716 
L 417.737127 -281.956186 
L 417.81443 -278.976656 
L 417.899868 -275.997126 
L 418.000312 -273.017596 
L 418.120002 -270.038066 
L 418.259618 -267.058536 
L 418.416094 -264.079006 
L 418.58324 -261.099476 
L 418.753057 -258.119946 
L 418.917469 -255.140416 
L 419.07012 -252.160886 
L 419.207882 -249.181356 
L 419.331785 -246.201826 
L 419.447227 -243.222296 
L 419.56346 -240.242766 
L 419.692526 -237.263236 
L 419.847901 -234.283706 
L 420.043125 -231.304176 
L 420.29066 -228.324646 
L 420.601076 -225.345116 
L 420.98251 -222.365586 
L 421.440253 -219.386056 
L 421.9763 -216.406526 
L 422.588759 -213.426996 
L 423.271253 -210.447466 
L 424.012556 -207.467936 
L 424.796791 -204.488406 
L 425.604432 -201.508877 
L 426.414032 -198.529347 
L 427.204331 -195.549817 
L 427.956143 -192.570287 
L 428.653411 -189.590757 
L 429.283093 -186.611227 
L 429.834004 -183.631697 
L 430.295212 -180.652167 
L 430.654881 -177.672637 
L 430.900439 -174.693107 
L 431.020577 -171.713577 
L 431.008931 -168.734047 
L 430.868707 -165.754517 
L 430.616988 -162.774987 
L 430.287409 -159.795457 
L 429.930125 -156.815927 
L 429.608562 -153.836397 
L 429.393083 -150.856867 
L 429.352268 -147.877337 
L 429.542866 -144.897807 
L 429.999664 -141.918277 
L 430.726602 -138.938747 
L 431.690494 -135.959217 
L 432.818738 -132.979687 
L 434.002304 -130.000157 
L 435.1048 -127.020627 
L 435.977511 -124.041097 
L 436.478989 -121.061567 
L 436.496254 -118.082037 
L 435.963638 -115.102507 
L 434.875083 -112.122978 
L 433.28675 -109.143448 
L 431.30886 -106.163918 
L 429.088296 -103.184388 
L 426.785748 -100.204858 
L 424.552382 -97.225328 
L 422.51082 -94.245798 
L 420.743667 -91.266268 
L 419.290647 -88.286738 
L 418.153241 -85.307208 
L 417.304256 -82.327678 
L 416.69928 -79.348148 
z
" id="m9840707a65" style="stroke:#373737;stroke-width:1.5;"/>
    </defs>
    <g clip-path="url(#p5b7b478b95)">
     <use style="fill:#2b8e70;stroke:#373737;stroke-width:1.5;" x="0" xlink:href="#m9840707a65" y="509.319"/>
    </g>
   </g>
   <g id="PolyCollection_6">
    <defs>
     <path d="M 458.186122 -68.443735 
L 456.532815 -68.443735 
L 456.116509 -72.345548 
L 455.554157 -76.247361 
L 454.826103 -80.149174 
L 453.923928 -84.050987 
L 452.855875 -87.952799 
L 451.650957 -91.854612 
L 450.360408 -95.756425 
L 449.055446 -99.658238 
L 447.820982 -103.560051 
L 446.745856 -107.461864 
L 445.911119 -111.363677 
L 445.378527 -115.265489 
L 445.181541 -119.167302 
L 445.32069 -123.069115 
L 445.764211 -126.970928 
L 446.453706 -130.872741 
L 447.313529 -134.774554 
L 448.261891 -138.676367 
L 449.221539 -142.578179 
L 450.128183 -146.479992 
L 450.935536 -150.381805 
L 451.61668 -154.283618 
L 452.162218 -158.185431 
L 452.576236 -162.087244 
L 452.871297 -165.989057 
L 453.063647 -169.890869 
L 453.169491 -173.792682 
L 453.202747 -177.694495 
L 453.17425 -181.596308 
L 453.092019 -185.498121 
L 452.962036 -189.399934 
L 452.789002 -193.301747 
L 452.576764 -197.203559 
L 452.328339 -201.105372 
L 452.045742 -205.007185 
L 451.729927 -208.908998 
L 451.38114 -212.810811 
L 450.999774 -216.712624 
L 450.587622 -220.614437 
L 450.149184 -224.516249 
L 449.692626 -228.418062 
L 449.23003 -232.319875 
L 448.776796 -236.221688 
L 448.350269 -240.123501 
L 447.967894 -244.025314 
L 447.645329 -247.927127 
L 447.394881 -251.828939 
L 447.224554 -255.730752 
L 447.137779 -259.632565 
L 447.133731 -263.534378 
L 447.208038 -267.436191 
L 447.353621 -271.338004 
L 447.561494 -275.239817 
L 447.821419 -279.141629 
L 448.122432 -283.043442 
L 448.453319 -286.945255 
L 448.803156 -290.847068 
L 449.161958 -294.748881 
L 449.521419 -298.650694 
L 449.875623 -302.552507 
L 450.221538 -306.454319 
L 450.559106 -310.356132 
L 450.890836 -314.257945 
L 451.220897 -318.159758 
L 451.553891 -322.061571 
L 451.893547 -325.963384 
L 452.241641 -329.865196 
L 452.597381 -333.767009 
L 452.957365 -337.668822 
L 453.316091 -341.570635 
L 453.666858 -345.472448 
L 454.00284 -349.374261 
L 454.318093 -353.276074 
L 454.608306 -357.177886 
L 454.871219 -361.079699 
L 455.106657 -364.981512 
L 455.316272 -368.883325 
L 455.503053 -372.785138 
L 455.670752 -376.686951 
L 455.8233 -380.588764 
L 455.964328 -384.490576 
L 456.09682 -388.392389 
L 456.222929 -392.294202 
L 456.343951 -396.196015 
L 456.460399 -400.097828 
L 456.572161 -403.999641 
L 456.678676 -407.901454 
L 456.779113 -411.803266 
L 456.872529 -415.705079 
L 456.958007 -419.606892 
L 457.034766 -423.508705 
L 457.10226 -427.410518 
L 457.160244 -431.312331 
L 457.208813 -435.214144 
L 457.248403 -439.115956 
L 457.279755 -443.017769 
L 457.303838 -446.919582 
L 457.32176 -450.821395 
L 457.334666 -454.723208 
L 457.384271 -454.723208 
L 457.384271 -454.723208 
L 457.397177 -450.821395 
L 457.415099 -446.919582 
L 457.439182 -443.017769 
L 457.470534 -439.115956 
L 457.510124 -435.214144 
L 457.558693 -431.312331 
L 457.616677 -427.410518 
L 457.684171 -423.508705 
L 457.76093 -419.606892 
L 457.846408 -415.705079 
L 457.939824 -411.803266 
L 458.040261 -407.901454 
L 458.146776 -403.999641 
L 458.258538 -400.097828 
L 458.374986 -396.196015 
L 458.496008 -392.294202 
L 458.622117 -388.392389 
L 458.754609 -384.490576 
L 458.895637 -380.588764 
L 459.048185 -376.686951 
L 459.215884 -372.785138 
L 459.402665 -368.883325 
L 459.61228 -364.981512 
L 459.847718 -361.079699 
L 460.110631 -357.177886 
L 460.400844 -353.276074 
L 460.716097 -349.374261 
L 461.052079 -345.472448 
L 461.402846 -341.570635 
L 461.761572 -337.668822 
L 462.121556 -333.767009 
L 462.477296 -329.865196 
L 462.82539 -325.963384 
L 463.165046 -322.061571 
L 463.49804 -318.159758 
L 463.828101 -314.257945 
L 464.159831 -310.356132 
L 464.497399 -306.454319 
L 464.843314 -302.552507 
L 465.197518 -298.650694 
L 465.556979 -294.748881 
L 465.915781 -290.847068 
L 466.265618 -286.945255 
L 466.596505 -283.043442 
L 466.897518 -279.141629 
L 467.157443 -275.239817 
L 467.365316 -271.338004 
L 467.510899 -267.436191 
L 467.585206 -263.534378 
L 467.581158 -259.632565 
L 467.494383 -255.730752 
L 467.324056 -251.828939 
L 467.073608 -247.927127 
L 466.751043 -244.025314 
L 466.368668 -240.123501 
L 465.942141 -236.221688 
L 465.488907 -232.319875 
L 465.026311 -228.418062 
L 464.569753 -224.516249 
L 464.131315 -220.614437 
L 463.719163 -216.712624 
L 463.337797 -212.810811 
L 462.98901 -208.908998 
L 462.673195 -205.007185 
L 462.390598 -201.105372 
L 462.142173 -197.203559 
L 461.929935 -193.301747 
L 461.756901 -189.399934 
L 461.626918 -185.498121 
L 461.544687 -181.596308 
L 461.51619 -177.694495 
L 461.549446 -173.792682 
L 461.65529 -169.890869 
L 461.84764 -165.989057 
L 462.142701 -162.087244 
L 462.556719 -158.185431 
L 463.102257 -154.283618 
L 463.783401 -150.381805 
L 464.590754 -146.479992 
L 465.497398 -142.578179 
L 466.457046 -138.676367 
L 467.405408 -134.774554 
L 468.265231 -130.872741 
L 468.954726 -126.970928 
L 469.398247 -123.069115 
L 469.537396 -119.167302 
L 469.34041 -115.265489 
L 468.807818 -111.363677 
L 467.973081 -107.461864 
L 466.897955 -103.560051 
L 465.663491 -99.658238 
L 464.358529 -95.756425 
L 463.06798 -91.854612 
L 461.863062 -87.952799 
L 460.795009 -84.050987 
L 459.892834 -80.149174 
L 459.16478 -76.247361 
L 458.602428 -72.345548 
L 458.186122 -68.443735 
z
" id="ma7fa0d0afc" style="stroke:#373737;stroke-width:1.5;"/>
    </defs>
    <g clip-path="url(#p5b7b478b95)">
     <use style="fill:#be631d;stroke:#373737;stroke-width:1.5;" x="0" xlink:href="#ma7fa0d0afc" y="509.319"/>
    </g>
   </g>
   <g id="PolyCollection_7">
    <defs>
     <path d="M 520.678185 -96.776011 
L 519.220039 -96.776011 
L 518.768474 -97.757272 
L 518.115267 -98.738533 
L 517.215167 -99.719794 
L 516.034154 -100.701054 
L 514.559488 -101.682315 
L 512.808553 -102.663576 
L 510.833828 -103.644837 
L 508.721766 -104.626098 
L 506.584742 -105.607358 
L 504.547123 -106.588619 
L 502.728295 -107.56988 
L 501.226476 -108.551141 
L 500.106897 -109.532402 
L 499.396568 -110.513662 
L 499.085898 -111.494923 
L 499.135645 -112.476184 
L 499.486643 -113.457445 
L 500.069709 -114.438706 
L 500.813926 -115.419966 
L 501.652535 -116.401227 
L 502.526591 -117.382488 
L 503.386968 -118.363749 
L 504.195299 -119.34501 
L 504.924138 -120.32627 
L 505.556414 -121.307531 
L 506.084129 -122.288792 
L 506.506421 -123.270053 
L 506.82729 -124.251314 
L 507.053401 -125.232575 
L 507.19231 -126.213835 
L 507.251293 -127.195096 
L 507.236693 -128.176357 
L 507.153618 -129.157618 
L 507.005864 -130.138879 
L 506.796049 -131.120139 
L 506.526048 -132.1014 
L 506.197825 -133.082661 
L 505.81463 -134.063922 
L 505.382369 -135.045183 
L 504.910846 -136.026443 
L 504.414573 -137.007704 
L 503.912914 -137.988965 
L 503.429465 -138.970226 
L 502.990706 -139.951487 
L 502.624048 -140.932747 
L 502.355513 -141.914008 
L 502.207349 -142.895269 
L 502.195946 -143.87653 
L 502.330427 -144.857791 
L 502.612138 -145.839051 
L 503.035117 -146.820312 
L 503.587369 -147.801573 
L 504.2526 -148.782834 
L 505.01198 -149.764095 
L 505.845554 -150.745355 
L 506.73308 -151.726616 
L 507.65428 -152.707877 
L 508.5887 -153.689138 
L 509.515498 -154.670399 
L 510.413507 -155.651659 
L 511.261833 -156.63292 
L 512.041065 -157.614181 
L 512.734984 -158.595442 
L 513.332437 -159.576703 
L 513.828972 -160.557963 
L 514.227825 -161.539224 
L 514.539947 -162.520485 
L 514.78296 -163.501746 
L 514.979111 -164.483007 
L 515.15252 -165.464267 
L 515.326152 -166.445528 
L 515.519006 -167.426789 
L 515.744007 -168.40805 
L 516.006948 -169.389311 
L 516.306604 -170.370571 
L 516.635929 -171.351832 
L 516.983983 -172.333093 
L 517.338111 -173.314354 
L 517.685932 -174.295615 
L 518.016776 -175.276876 
L 518.322465 -176.258136 
L 518.597506 -177.239397 
L 518.838915 -178.220658 
L 519.045877 -179.201919 
L 519.219395 -180.18318 
L 519.36196 -181.16444 
L 519.477195 -182.145701 
L 519.569424 -183.126962 
L 519.64318 -184.108223 
L 519.702699 -185.089484 
L 519.751519 -186.070744 
L 519.792263 -187.052005 
L 519.826637 -188.033266 
L 519.855613 -189.014527 
L 519.8797 -189.995788 
L 519.899221 -190.977048 
L 519.91451 -191.958309 
L 519.926016 -192.93957 
L 519.934303 -193.920831 
L 519.963921 -193.920831 
L 519.963921 -193.920831 
L 519.972208 -192.93957 
L 519.983714 -191.958309 
L 519.999003 -190.977048 
L 520.018524 -189.995788 
L 520.042611 -189.014527 
L 520.071587 -188.033266 
L 520.105961 -187.052005 
L 520.146705 -186.070744 
L 520.195525 -185.089484 
L 520.255044 -184.108223 
L 520.3288 -183.126962 
L 520.421029 -182.145701 
L 520.536264 -181.16444 
L 520.678829 -180.18318 
L 520.852347 -179.201919 
L 521.059309 -178.220658 
L 521.300718 -177.239397 
L 521.575759 -176.258136 
L 521.881448 -175.276876 
L 522.212292 -174.295615 
L 522.560113 -173.314354 
L 522.914241 -172.333093 
L 523.262295 -171.351832 
L 523.591621 -170.370571 
L 523.891276 -169.389311 
L 524.154217 -168.40805 
L 524.379219 -167.426789 
L 524.572072 -166.445528 
L 524.745704 -165.464267 
L 524.919113 -164.483007 
L 525.115264 -163.501746 
L 525.358277 -162.520485 
L 525.670399 -161.539224 
L 526.069252 -160.557963 
L 526.565787 -159.576703 
L 527.16324 -158.595442 
L 527.857159 -157.614181 
L 528.636392 -156.63292 
L 529.484717 -155.651659 
L 530.382726 -154.670399 
L 531.309524 -153.689138 
L 532.243944 -152.707877 
L 533.165144 -151.726616 
L 534.05267 -150.745355 
L 534.886244 -149.764095 
L 535.645624 -148.782834 
L 536.310856 -147.801573 
L 536.863107 -146.820312 
L 537.286086 -145.839051 
L 537.567797 -144.857791 
L 537.702278 -143.87653 
L 537.690875 -142.895269 
L 537.542711 -141.914008 
L 537.274176 -140.932747 
L 536.907519 -139.951487 
L 536.468759 -138.970226 
L 535.98531 -137.988965 
L 535.483651 -137.007704 
L 534.987378 -136.026443 
L 534.515855 -135.045183 
L 534.083594 -134.063922 
L 533.700399 -133.082661 
L 533.372176 -132.1014 
L 533.102175 -131.120139 
L 532.89236 -130.138879 
L 532.744606 -129.157618 
L 532.661531 -128.176357 
L 532.646931 -127.195096 
L 532.705914 -126.213835 
L 532.844823 -125.232575 
L 533.070934 -124.251314 
L 533.391803 -123.270053 
L 533.814095 -122.288792 
L 534.34181 -121.307531 
L 534.974086 -120.32627 
L 535.702925 -119.34501 
L 536.511256 -118.363749 
L 537.371633 -117.382488 
L 538.245689 -116.401227 
L 539.084298 -115.419966 
L 539.828515 -114.438706 
L 540.411581 -113.457445 
L 540.762579 -112.476184 
L 540.812327 -111.494923 
L 540.501656 -110.513662 
L 539.791327 -109.532402 
L 538.671748 -108.551141 
L 537.169929 -107.56988 
L 535.351101 -106.588619 
L 533.313482 -105.607358 
L 531.176459 -104.626098 
L 529.064396 -103.644837 
L 527.089671 -102.663576 
L 525.338736 -101.682315 
L 523.86407 -100.701054 
L 522.683057 -99.719794 
L 521.782957 -98.738533 
L 521.12975 -97.757272 
L 520.678185 -96.776011 
z
" id="m7c337eef95" style="stroke:#373737;stroke-width:1.5;"/>
    </defs>
    <g clip-path="url(#p5b7b478b95)">
     <use style="fill:#2b8e70;stroke:#373737;stroke-width:1.5;" x="0" xlink:href="#m7c337eef95" y="509.319"/>
    </g>
   </g>
   <g id="PolyCollection_8">
    <defs>
     <path d="M 562.447851 -93.399161 
L 560.903231 -93.399161 
L 560.388881 -94.894467 
L 559.638625 -96.389773 
L 558.610256 -97.88508 
L 557.288896 -99.380386 
L 555.70297 -100.875692 
L 553.934566 -102.370999 
L 552.118619 -103.866305 
L 550.427733 -105.361611 
L 549.043869 -106.856918 
L 548.123105 -108.352224 
L 547.762955 -109.84753 
L 547.981754 -111.342837 
L 548.716024 -112.838143 
L 549.835996 -114.333449 
L 551.173932 -115.828755 
L 552.556703 -117.324062 
L 553.834193 -118.819368 
L 554.897888 -120.314674 
L 555.687997 -121.809981 
L 556.19083 -123.305287 
L 556.430016 -124.800593 
L 556.455271 -126.2959 
L 556.331289 -127.791206 
L 556.127943 -129.286512 
L 555.911913 -130.781819 
L 555.739551 -132.277125 
L 555.651071 -133.772431 
L 555.666703 -135.267738 
L 555.785612 -136.763044 
L 555.988084 -138.25835 
L 556.240626 -139.753657 
L 556.502724 -141.248963 
L 556.733498 -142.744269 
L 556.896642 -144.239576 
L 556.962838 -145.734882 
L 556.909846 -147.230188 
L 556.721274 -148.725495 
L 556.385264 -150.220801 
L 555.894022 -151.716107 
L 555.244468 -153.211414 
L 554.439684 -154.70672 
L 553.490581 -156.202026 
L 552.41727 -157.697333 
L 551.249883 -159.192639 
L 550.028818 -160.687945 
L 548.804335 -162.183252 
L 547.635258 -163.678558 
L 546.586364 -165.173864 
L 545.724113 -166.669171 
L 545.110765 -168.164477 
L 544.797465 -169.659783 
L 544.817347 -171.15509 
L 545.179904 -172.650396 
L 545.867742 -174.145702 
L 546.836491 -175.641009 
L 548.018209 -177.136315 
L 549.328108 -178.631621 
L 550.673954 -180.126928 
L 551.966898 -181.622234 
L 553.132054 -183.11754 
L 554.116962 -184.612847 
L 554.896368 -186.108153 
L 555.472487 -187.603459 
L 555.870977 -189.098766 
L 556.133782 -190.594072 
L 556.31058 -192.089378 
L 556.450598 -193.584685 
L 556.596107 -195.079991 
L 556.778272 -196.575297 
L 557.015396 -198.070604 
L 557.313179 -199.56591 
L 557.666437 -201.061216 
L 558.06174 -202.556523 
L 558.480497 -204.051829 
L 558.902102 -205.547135 
L 559.306818 -207.042442 
L 559.678102 -208.537748 
L 560.004145 -210.033054 
L 560.278505 -211.528361 
L 560.499888 -213.023667 
L 560.671289 -214.518973 
L 560.798802 -216.01428 
L 560.890437 -217.509586 
L 560.955134 -219.004892 
L 561.002006 -220.500199 
L 561.039718 -221.995505 
L 561.075862 -223.490811 
L 561.1163 -224.986118 
L 561.16457 -226.481424 
L 561.221565 -227.97673 
L 561.285665 -229.472037 
L 561.353359 -230.967343 
L 561.42023 -232.462649 
L 561.482023 -233.957956 
L 561.535508 -235.453262 
L 561.57894 -236.948568 
L 561.612079 -238.443875 
L 561.635869 -239.939181 
L 561.651957 -241.434487 
L 561.699125 -241.434487 
L 561.699125 -241.434487 
L 561.715213 -239.939181 
L 561.739004 -238.443875 
L 561.772142 -236.948568 
L 561.815574 -235.453262 
L 561.869059 -233.957956 
L 561.930852 -232.462649 
L 561.997723 -230.967343 
L 562.065417 -229.472037 
L 562.129517 -227.97673 
L 562.186512 -226.481424 
L 562.234782 -224.986118 
L 562.27522 -223.490811 
L 562.311364 -221.995505 
L 562.349076 -220.500199 
L 562.395948 -219.004892 
L 562.460645 -217.509586 
L 562.55228 -216.01428 
L 562.679793 -214.518973 
L 562.851194 -213.023667 
L 563.072578 -211.528361 
L 563.346937 -210.033054 
L 563.67298 -208.537748 
L 564.044264 -207.042442 
L 564.44898 -205.547135 
L 564.870585 -204.051829 
L 565.289342 -202.556523 
L 565.684645 -201.061216 
L 566.037903 -199.56591 
L 566.335686 -198.070604 
L 566.57281 -196.575297 
L 566.754975 -195.079991 
L 566.900484 -193.584685 
L 567.040502 -192.089378 
L 567.217301 -190.594072 
L 567.480105 -189.098766 
L 567.878595 -187.603459 
L 568.454714 -186.108153 
L 569.23412 -184.612847 
L 570.219029 -183.11754 
L 571.384184 -181.622234 
L 572.677128 -180.126928 
L 574.022974 -178.631621 
L 575.332873 -177.136315 
L 576.514591 -175.641009 
L 577.483341 -174.145702 
L 578.171178 -172.650396 
L 578.533735 -171.15509 
L 578.553617 -169.659783 
L 578.240317 -168.164477 
L 577.626969 -166.669171 
L 576.764718 -165.173864 
L 575.715824 -163.678558 
L 574.546747 -162.183252 
L 573.322264 -160.687945 
L 572.101199 -159.192639 
L 570.933812 -157.697333 
L 569.860501 -156.202026 
L 568.911398 -154.70672 
L 568.106614 -153.211414 
L 567.45706 -151.716107 
L 566.965818 -150.220801 
L 566.629808 -148.725495 
L 566.441236 -147.230188 
L 566.388244 -145.734882 
L 566.45444 -144.239576 
L 566.617584 -142.744269 
L 566.848358 -141.248963 
L 567.110456 -139.753657 
L 567.362998 -138.25835 
L 567.56547 -136.763044 
L 567.684379 -135.267738 
L 567.700011 -133.772431 
L 567.611531 -132.277125 
L 567.439169 -130.781819 
L 567.22314 -129.286512 
L 567.019793 -127.791206 
L 566.895811 -126.2959 
L 566.921066 -124.800593 
L 567.160253 -123.305287 
L 567.663085 -121.809981 
L 568.453195 -120.314674 
L 569.516889 -118.819368 
L 570.794379 -117.324062 
L 572.17715 -115.828755 
L 573.515086 -114.333449 
L 574.635058 -112.838143 
L 575.369328 -111.342837 
L 575.588127 -109.84753 
L 575.227977 -108.352224 
L 574.307213 -106.856918 
L 572.923349 -105.361611 
L 571.232463 -103.866305 
L 569.416516 -102.370999 
L 567.648112 -100.875692 
L 566.062186 -99.380386 
L 564.740826 -97.88508 
L 563.712457 -96.389773 
L 562.962201 -94.894467 
L 562.447851 -93.399161 
z
" id="mbf7ca8bac6" style="stroke:#373737;stroke-width:1.5;"/>
    </defs>
    <g clip-path="url(#p5b7b478b95)">
     <use style="fill:#be631d;stroke:#373737;stroke-width:1.5;" x="0" xlink:href="#mbf7ca8bac6" y="509.319"/>
    </g>
   </g>
   <g id="patch_3">
    <path clip-path="url(#p5b7b478b95)" d="M 123.548036 403.433598 
L 123.548036 403.433598 
L 123.548036 403.433598 
L 123.548036 403.433598 
z
" style="fill:#2b8e70;stroke:#373737;stroke-linejoin:miter;stroke-width:0.75;"/>
   </g>
   <g id="patch_4">
    <path clip-path="url(#p5b7b478b95)" d="M 123.548036 403.433598 
L 123.548036 403.433598 
L 123.548036 403.433598 
L 123.548036 403.433598 
z
" style="fill:#be631d;stroke:#373737;stroke-linejoin:miter;stroke-width:0.75;"/>
   </g>
   <g id="line2d_1">
    <path clip-path="url(#p5b7b478b95)" d="M 81.821607 403.433598 
L 123.548036 403.433598 
" style="fill:none;stroke:#373737;stroke-linecap:round;stroke-width:1.5;"/>
   </g>
   <g id="line2d_2">
    <path clip-path="url(#p5b7b478b95)" d="M 123.548036 403.433598 
L 165.274465 403.433598 
" style="fill:none;stroke:#373737;stroke-linecap:round;stroke-width:1.5;"/>
   </g>
   <g id="line2d_3">
    <path clip-path="url(#p5b7b478b95)" d="M 207.000894 401.645366 
L 207.000894 211.930256 
" style="fill:none;stroke:#373737;stroke-linecap:round;stroke-width:1.5;"/>
   </g>
   <g id="line2d_4">
    <path clip-path="url(#p5b7b478b95)" d="M 207.000894 393.130946 
L 207.000894 319.854094 
" style="fill:none;stroke:#373737;stroke-linecap:round;stroke-width:4.5;"/>
   </g>
   <g id="line2d_5">
    <path clip-path="url(#p5b7b478b95)" d="M 248.727323 400.9951 
L 248.727323 86.428915 
" style="fill:none;stroke:#373737;stroke-linecap:round;stroke-width:1.5;"/>
   </g>
   <g id="line2d_6">
    <path clip-path="url(#p5b7b478b95)" d="M 248.727323 386.628286 
L 248.727323 227.048941 
" style="fill:none;stroke:#373737;stroke-linecap:round;stroke-width:4.5;"/>
   </g>
   <g id="line2d_7">
    <path clip-path="url(#p5b7b478b95)" d="M 311.316967 401.320233 
L 311.316967 227.130224 
" style="fill:none;stroke:#373737;stroke-linecap:round;stroke-width:1.5;"/>
   </g>
   <g id="line2d_8">
    <path clip-path="url(#p5b7b478b95)" d="M 311.316967 390.875335 
L 311.316967 324.324673 
" style="fill:none;stroke:#373737;stroke-linecap:round;stroke-width:4.5;"/>
   </g>
   <g id="line2d_9">
    <path clip-path="url(#p5b7b478b95)" d="M 353.043396 399.450719 
L 353.043396 69.603281 
" style="fill:none;stroke:#373737;stroke-linecap:round;stroke-width:1.5;"/>
   </g>
   <g id="line2d_10">
    <path clip-path="url(#p5b7b478b95)" d="M 353.043396 380.836854 
L 353.043396 230.300271 
" style="fill:none;stroke:#373737;stroke-linecap:round;stroke-width:4.5;"/>
   </g>
   <g id="line2d_11">
    <path clip-path="url(#p5b7b478b95)" d="M 415.633039 400.751251 
L 415.633039 214.124904 
" style="fill:none;stroke:#373737;stroke-linecap:round;stroke-width:1.5;"/>
   </g>
   <g id="line2d_12">
    <path clip-path="url(#p5b7b478b95)" d="M 415.633039 388.74165 
L 415.633039 317.537521 
" style="fill:none;stroke:#373737;stroke-linecap:round;stroke-width:4.5;"/>
   </g>
   <g id="line2d_13">
    <path clip-path="url(#p5b7b478b95)" d="M 457.359468 400.019701 
L 457.359468 95.451356 
" style="fill:none;stroke:#373737;stroke-linecap:round;stroke-width:1.5;"/>
   </g>
   <g id="line2d_14">
    <path clip-path="url(#p5b7b478b95)" d="M 457.359468 381.019741 
L 457.359468 227.374074 
" style="fill:none;stroke:#373737;stroke-linecap:round;stroke-width:4.5;"/>
   </g>
   <g id="line2d_15">
    <path clip-path="url(#p5b7b478b95)" d="M 519.949112 403.433598 
L 519.949112 324.50756 
" style="fill:none;stroke:#373737;stroke-linecap:round;stroke-width:1.5;"/>
   </g>
   <g id="line2d_16">
    <path clip-path="url(#p5b7b478b95)" d="M 519.949112 394.512761 
L 519.949112 363.259351 
" style="fill:none;stroke:#373737;stroke-linecap:round;stroke-width:4.5;"/>
   </g>
   <g id="line2d_17">
    <path clip-path="url(#p5b7b478b95)" d="M 561.675541 403.108465 
L 561.675541 280.695887 
" style="fill:none;stroke:#373737;stroke-linecap:round;stroke-width:1.5;"/>
   </g>
   <g id="line2d_18">
    <path clip-path="url(#p5b7b478b95)" d="M 561.675541 392.643246 
L 561.675541 334.9931 
" style="fill:none;stroke:#373737;stroke-linecap:round;stroke-width:4.5;"/>
   </g>
   <g id="patch_5">
    <path d="M 71.39 461.854 
L 71.39 7.2 
" style="fill:none;stroke:#262626;stroke-linecap:square;stroke-linejoin:miter;stroke-width:0.8;"/>
   </g>
   <g id="patch_6">
    <path d="M 71.39 461.854 
L 592.970363 461.854 
" style="fill:none;stroke:#262626;stroke-linecap:square;stroke-linejoin:miter;stroke-width:0.8;"/>
   </g>
   <g id="PathCollection_1">
    <defs>
     <path d="M 0 1.5 
C 0.397805 1.5 0.77937 1.341951 1.06066 1.06066 
C 1.341951 0.77937 1.5 0.397805 1.5 0 
C 1.5 -0.397805 1.341951 -0.77937 1.06066 -1.06066 
C 0.77937 -1.341951 0.397805 -1.5 0 -1.5 
C -0.397805 -1.5 -0.77937 -1.341951 -1.06066 -1.06066 
C -1.341951 -0.77937 -1.5 -0.397805 -1.5 0 
C -1.5 0.397805 -1.341951 0.77937 -1.06066 1.06066 
C -0.77937 1.341951 -0.397805 1.5 0 1.5 
z
" id="m71d2e705ef" style="stroke:#373737;"/>
    </defs>
    <g clip-path="url(#p5b7b478b95)">
     <use style="fill:#ffffff;stroke:#373737;" x="207.000894" xlink:href="#m71d2e705ef" y="353.444398"/>
    </g>
   </g>
   <g id="PathCollection_2">
    <g clip-path="url(#p5b7b478b95)">
     <use style="fill:#ffffff;stroke:#373737;" x="248.727323" xlink:href="#m71d2e705ef" y="271.795371"/>
    </g>
   </g>
   <g id="PathCollection_3">
    <g clip-path="url(#p5b7b478b95)">
     <use style="fill:#ffffff;stroke:#373737;" x="311.316967" xlink:href="#m71d2e705ef" y="359.9877"/>
    </g>
   </g>
   <g id="PathCollection_4">
    <g clip-path="url(#p5b7b478b95)">
     <use style="fill:#ffffff;stroke:#373737;" x="353.043396" xlink:href="#m71d2e705ef" y="272.486279"/>
    </g>
   </g>
   <g id="PathCollection_5">
    <g clip-path="url(#p5b7b478b95)">
     <use style="fill:#ffffff;stroke:#373737;" x="415.633039" xlink:href="#m71d2e705ef" y="349.50216"/>
    </g>
   </g>
   <g id="PathCollection_6">
    <g clip-path="url(#p5b7b478b95)">
     <use style="fill:#ffffff;stroke:#373737;" x="457.359468" xlink:href="#m71d2e705ef" y="274.315152"/>
    </g>
   </g>
   <g id="PathCollection_7">
    <g clip-path="url(#p5b7b478b95)">
     <use style="fill:#ffffff;stroke:#373737;" x="519.949112" xlink:href="#m71d2e705ef" y="377.585524"/>
    </g>
   </g>
   <g id="PathCollection_8">
    <g clip-path="url(#p5b7b478b95)">
     <use style="fill:#ffffff;stroke:#373737;" x="561.675541" xlink:href="#m71d2e705ef" y="347.835853"/>
    </g>
   </g>
  </g>
  <g id="legend_1">
   <g id="text_13">
    <!-- workday -->
    <defs>
     <path d="M 16.15625 0 
L 0.296875 51.859375 
L 9.375 51.859375 
L 17.625 21.921875 
L 20.703125 10.796875 
Q 20.90625 11.625 23.390625 21.484375 
L 31.640625 51.859375 
L 40.671875 51.859375 
L 48.4375 21.78125 
L 51.03125 11.859375 
L 54 21.875 
L 62.890625 51.859375 
L 71.4375 51.859375 
L 55.21875 0 
L 46.09375 0 
L 37.84375 31.0625 
L 35.84375 39.890625 
L 25.34375 0 
z
" id="ArialMT-119"/>
     <path d="M 6.640625 0 
L 6.640625 71.578125 
L 15.4375 71.578125 
L 15.4375 30.765625 
L 36.234375 51.859375 
L 47.609375 51.859375 
L 27.78125 32.625 
L 49.609375 0 
L 38.765625 0 
L 21.625 26.515625 
L 15.4375 20.5625 
L 15.4375 0 
z
" id="ArialMT-107"/>
     <path d="M 40.4375 6.390625 
Q 35.546875 2.25 31.03125 0.53125 
Q 26.515625 -1.171875 21.34375 -1.171875 
Q 12.796875 -1.171875 8.203125 3 
Q 3.609375 7.171875 3.609375 13.671875 
Q 3.609375 17.484375 5.34375 20.625 
Q 7.078125 23.78125 9.890625 25.6875 
Q 12.703125 27.59375 16.21875 28.5625 
Q 18.796875 29.25 24.03125 29.890625 
Q 34.671875 31.15625 39.703125 32.90625 
Q 39.75 34.71875 39.75 35.203125 
Q 39.75 40.578125 37.25 42.78125 
Q 33.890625 45.75 27.25 45.75 
Q 21.046875 45.75 18.09375 43.578125 
Q 15.140625 41.40625 13.71875 35.890625 
L 5.125 37.0625 
Q 6.296875 42.578125 8.984375 45.96875 
Q 11.671875 49.359375 16.75 51.1875 
Q 21.828125 53.03125 28.515625 53.03125 
Q 35.15625 53.03125 39.296875 51.46875 
Q 43.453125 49.90625 45.40625 47.53125 
Q 47.359375 45.171875 48.140625 41.546875 
Q 48.578125 39.3125 48.578125 33.453125 
L 48.578125 21.734375 
Q 48.578125 9.46875 49.140625 6.21875 
Q 49.703125 2.984375 51.375 0 
L 42.1875 0 
Q 40.828125 2.734375 40.4375 6.390625 
z
M 39.703125 26.03125 
Q 34.90625 24.078125 25.34375 22.703125 
Q 19.921875 21.921875 17.671875 20.9375 
Q 15.4375 19.96875 14.203125 18.09375 
Q 12.984375 16.21875 12.984375 13.921875 
Q 12.984375 10.40625 15.640625 8.0625 
Q 18.3125 5.71875 23.4375 5.71875 
Q 28.515625 5.71875 32.46875 7.9375 
Q 36.421875 10.15625 38.28125 14.015625 
Q 39.703125 17 39.703125 22.796875 
z
" id="ArialMT-97"/>
     <path d="M 6.203125 -19.96875 
L 5.21875 -11.71875 
Q 8.109375 -12.5 10.25 -12.5 
Q 13.1875 -12.5 14.9375 -11.515625 
Q 16.703125 -10.546875 17.828125 -8.796875 
Q 18.65625 -7.46875 20.515625 -2.25 
Q 20.75 -1.515625 21.296875 -0.09375 
L 1.609375 51.859375 
L 11.078125 51.859375 
L 21.875 21.828125 
Q 23.96875 16.109375 25.640625 9.8125 
Q 27.15625 15.875 29.25 21.625 
L 40.328125 51.859375 
L 49.125 51.859375 
L 29.390625 -0.875 
Q 26.21875 -9.421875 24.46875 -12.640625 
Q 22.125 -17 19.09375 -19.015625 
Q 16.0625 -21.046875 11.859375 -21.046875 
Q 9.328125 -21.046875 6.203125 -19.96875 
z
" id="ArialMT-121"/>
    </defs>
    <g style="fill:#262626;" transform="translate(671.543 236.0695)scale(0.16 -0.16)">
     <use xlink:href="#ArialMT-119"/>
     <use x="72.216797" xlink:href="#ArialMT-111"/>
     <use x="127.832031" xlink:href="#ArialMT-114"/>
     <use x="161.132812" xlink:href="#ArialMT-107"/>
     <use x="211.132812" xlink:href="#ArialMT-100"/>
     <use x="266.748047" xlink:href="#ArialMT-97"/>
     <use x="322.363281" xlink:href="#ArialMT-121"/>
    </g>
   </g>
   <g id="patch_7">
    <path d="M 674.48175 258.8895 
L 706.48175 258.8895 
L 706.48175 247.6895 
L 674.48175 247.6895 
z
" style="fill:#2b8e70;stroke:#373737;stroke-linejoin:miter;stroke-width:0.75;"/>
   </g>
   <g id="text_14">
    <!-- 0 -->
    <g style="fill:#262626;" transform="translate(719.28175 258.8895)scale(0.16 -0.16)">
     <use xlink:href="#ArialMT-48"/>
    </g>
   </g>
   <g id="patch_8">
    <path d="M 674.48175 281.522 
L 706.48175 281.522 
L 706.48175 270.322 
L 674.48175 270.322 
z
" style="fill:#be631d;stroke:#373737;stroke-linejoin:miter;stroke-width:0.75;"/>
   </g>
   <g id="text_15">
    <!-- 1 -->
    <g style="fill:#262626;" transform="translate(719.28175 281.522)scale(0.16 -0.16)">
     <use xlink:href="#ArialMT-49"/>
    </g>
   </g>
  </g>
 </g>
 <defs>
  <clipPath id="p5b7b478b95">
   <rect height="454.654" width="521.580363" x="71.39" y="7.2"/>
  </clipPath>
 </defs>
</svg>
