<?xml version="1.0" encoding="utf-8" standalone="no"?>
<!DOCTYPE svg PUBLIC "-//W3C//DTD SVG 1.1//EN"
  "http://www.w3.org/Graphics/SVG/1.1/DTD/svg11.dtd">
<!-- Created with matplotlib (https://matplotlib.org/) -->
<svg height="540.169pt" version="1.1" viewBox="0 0 790.3655 540.169" width="790.3655pt" xmlns="http://www.w3.org/2000/svg" xmlns:xlink="http://www.w3.org/1999/xlink">
 <defs>
  <style type="text/css">
*{stroke-linecap:butt;stroke-linejoin:round;white-space:pre;}
  </style>
 </defs>
 <g id="figure_1">
  <g id="patch_1">
   <path d="M 0 540.169 
L 790.3655 540.169 
L 790.3655 0 
L 0 0 
z
" style="fill:#ffffff;"/>
  </g>
  <g id="axes_1">
   <g id="patch_2">
    <path d="M 71.8375 492.704 
L 637.817863 492.704 
L 637.817863 7.2 
L 71.8375 7.2 
z
" style="fill:#ffffff;"/>
   </g>
   <g id="matplotlib.axis_1">
    <g id="xtick_1">
     <g id="text_1">
      <!-- 1025-116 -->
      <defs>
       <path d="M 37.25 0 
L 28.46875 0 
L 28.46875 56 
Q 25.296875 52.984375 20.140625 49.953125 
Q 14.984375 46.921875 10.890625 45.40625 
L 10.890625 53.90625 
Q 18.265625 57.375 23.78125 62.296875 
Q 29.296875 67.234375 31.59375 71.875 
L 37.25 71.875 
z
" id="ArialMT-49"/>
       <path d="M 4.15625 35.296875 
Q 4.15625 48 6.765625 55.734375 
Q 9.375 63.484375 14.515625 67.671875 
Q 19.671875 71.875 27.484375 71.875 
Q 33.25 71.875 37.59375 69.546875 
Q 41.9375 67.234375 44.765625 62.859375 
Q 47.609375 58.5 49.21875 52.21875 
Q 50.828125 45.953125 50.828125 35.296875 
Q 50.828125 22.703125 48.234375 14.96875 
Q 45.65625 7.234375 40.5 3 
Q 35.359375 -1.21875 27.484375 -1.21875 
Q 17.140625 -1.21875 11.234375 6.203125 
Q 4.15625 15.140625 4.15625 35.296875 
z
M 13.1875 35.296875 
Q 13.1875 17.671875 17.3125 11.828125 
Q 21.4375 6 27.484375 6 
Q 33.546875 6 37.671875 11.859375 
Q 41.796875 17.71875 41.796875 35.296875 
Q 41.796875 52.984375 37.671875 58.78125 
Q 33.546875 64.59375 27.390625 64.59375 
Q 21.34375 64.59375 17.71875 59.46875 
Q 13.1875 52.9375 13.1875 35.296875 
z
" id="ArialMT-48"/>
       <path d="M 50.34375 8.453125 
L 50.34375 0 
L 3.03125 0 
Q 2.9375 3.171875 4.046875 6.109375 
Q 5.859375 10.9375 9.828125 15.625 
Q 13.8125 20.3125 21.34375 26.46875 
Q 33.015625 36.03125 37.109375 41.625 
Q 41.21875 47.21875 41.21875 52.203125 
Q 41.21875 57.421875 37.46875 61 
Q 33.734375 64.59375 27.734375 64.59375 
Q 21.390625 64.59375 17.578125 60.78125 
Q 13.765625 56.984375 13.71875 50.25 
L 4.6875 51.171875 
Q 5.609375 61.28125 11.65625 66.578125 
Q 17.71875 71.875 27.9375 71.875 
Q 38.234375 71.875 44.234375 66.15625 
Q 50.25 60.453125 50.25 52 
Q 50.25 47.703125 48.484375 43.546875 
Q 46.734375 39.40625 42.65625 34.8125 
Q 38.578125 30.21875 29.109375 22.21875 
Q 21.1875 15.578125 18.9375 13.203125 
Q 16.703125 10.84375 15.234375 8.453125 
z
" id="ArialMT-50"/>
       <path d="M 4.15625 18.75 
L 13.375 19.53125 
Q 14.40625 12.796875 18.140625 9.390625 
Q 21.875 6 27.15625 6 
Q 33.5 6 37.890625 10.78125 
Q 42.28125 15.578125 42.28125 23.484375 
Q 42.28125 31 38.0625 35.34375 
Q 33.84375 39.703125 27 39.703125 
Q 22.75 39.703125 19.328125 37.765625 
Q 15.921875 35.84375 13.96875 32.765625 
L 5.71875 33.84375 
L 12.640625 70.609375 
L 48.25 70.609375 
L 48.25 62.203125 
L 19.671875 62.203125 
L 15.828125 42.96875 
Q 22.265625 47.46875 29.34375 47.46875 
Q 38.71875 47.46875 45.15625 40.96875 
Q 51.609375 34.46875 51.609375 24.265625 
Q 51.609375 14.546875 45.953125 7.46875 
Q 39.0625 -1.21875 27.15625 -1.21875 
Q 17.390625 -1.21875 11.203125 4.25 
Q 5.03125 9.71875 4.15625 18.75 
z
" id="ArialMT-53"/>
       <path d="M 3.171875 21.484375 
L 3.171875 30.328125 
L 30.171875 30.328125 
L 30.171875 21.484375 
z
" id="ArialMT-45"/>
       <path d="M 49.75 54.046875 
L 41.015625 53.375 
Q 39.84375 58.546875 37.703125 60.890625 
Q 34.125 64.65625 28.90625 64.65625 
Q 24.703125 64.65625 21.53125 62.3125 
Q 17.390625 59.28125 14.984375 53.46875 
Q 12.59375 47.65625 12.5 36.921875 
Q 15.671875 41.75 20.265625 44.09375 
Q 24.859375 46.4375 29.890625 46.4375 
Q 38.671875 46.4375 44.84375 39.96875 
Q 51.03125 33.5 51.03125 23.25 
Q 51.03125 16.5 48.125 10.71875 
Q 45.21875 4.9375 40.140625 1.859375 
Q 35.0625 -1.21875 28.609375 -1.21875 
Q 17.625 -1.21875 10.6875 6.859375 
Q 3.765625 14.9375 3.765625 33.5 
Q 3.765625 54.25 11.421875 63.671875 
Q 18.109375 71.875 29.4375 71.875 
Q 37.890625 71.875 43.28125 67.140625 
Q 48.6875 62.40625 49.75 54.046875 
z
M 13.875 23.1875 
Q 13.875 18.65625 15.796875 14.5 
Q 17.71875 10.359375 21.1875 8.171875 
Q 24.65625 6 28.46875 6 
Q 34.03125 6 38.03125 10.484375 
Q 42.046875 14.984375 42.046875 22.703125 
Q 42.046875 30.125 38.078125 34.390625 
Q 34.125 38.671875 28.125 38.671875 
Q 22.171875 38.671875 18.015625 34.390625 
Q 13.875 30.125 13.875 23.1875 
z
" id="ArialMT-54"/>
      </defs>
      <g style="fill:#262626;" transform="translate(94.639286 511.1565)scale(0.16 -0.16)">
       <use xlink:href="#ArialMT-49"/>
       <use x="55.615234" xlink:href="#ArialMT-48"/>
       <use x="111.230469" xlink:href="#ArialMT-50"/>
       <use x="166.845703" xlink:href="#ArialMT-53"/>
       <use x="222.460938" xlink:href="#ArialMT-45"/>
       <use x="255.761719" xlink:href="#ArialMT-49"/>
       <use x="311.267578" xlink:href="#ArialMT-49"/>
       <use x="366.882812" xlink:href="#ArialMT-54"/>
      </g>
     </g>
    </g>
    <g id="xtick_2">
     <g id="text_2">
      <!-- 1034-216 -->
      <defs>
       <path d="M 4.203125 18.890625 
L 12.984375 20.0625 
Q 14.5 12.59375 18.140625 9.296875 
Q 21.78125 6 27 6 
Q 33.203125 6 37.46875 10.296875 
Q 41.75 14.59375 41.75 20.953125 
Q 41.75 27 37.796875 30.921875 
Q 33.84375 34.859375 27.734375 34.859375 
Q 25.25 34.859375 21.53125 33.890625 
L 22.515625 41.609375 
Q 23.390625 41.5 23.921875 41.5 
Q 29.546875 41.5 34.03125 44.421875 
Q 38.53125 47.359375 38.53125 53.46875 
Q 38.53125 58.296875 35.25 61.46875 
Q 31.984375 64.65625 26.8125 64.65625 
Q 21.6875 64.65625 18.265625 61.421875 
Q 14.84375 58.203125 13.875 51.765625 
L 5.078125 53.328125 
Q 6.6875 62.15625 12.390625 67.015625 
Q 18.109375 71.875 26.609375 71.875 
Q 32.46875 71.875 37.390625 69.359375 
Q 42.328125 66.84375 44.9375 62.5 
Q 47.5625 58.15625 47.5625 53.265625 
Q 47.5625 48.640625 45.0625 44.828125 
Q 42.578125 41.015625 37.703125 38.765625 
Q 44.046875 37.3125 47.5625 32.6875 
Q 51.078125 28.078125 51.078125 21.140625 
Q 51.078125 11.765625 44.234375 5.25 
Q 37.40625 -1.265625 26.953125 -1.265625 
Q 17.53125 -1.265625 11.296875 4.34375 
Q 5.078125 9.96875 4.203125 18.890625 
z
" id="ArialMT-51"/>
       <path d="M 32.328125 0 
L 32.328125 17.140625 
L 1.265625 17.140625 
L 1.265625 25.203125 
L 33.9375 71.578125 
L 41.109375 71.578125 
L 41.109375 25.203125 
L 50.78125 25.203125 
L 50.78125 17.140625 
L 41.109375 17.140625 
L 41.109375 0 
z
M 32.328125 25.203125 
L 32.328125 57.46875 
L 9.90625 25.203125 
z
" id="ArialMT-52"/>
      </defs>
      <g style="fill:#262626;" transform="translate(207.826609 511.1565)scale(0.16 -0.16)">
       <use xlink:href="#ArialMT-49"/>
       <use x="55.615234" xlink:href="#ArialMT-48"/>
       <use x="111.230469" xlink:href="#ArialMT-51"/>
       <use x="166.845703" xlink:href="#ArialMT-52"/>
       <use x="222.460938" xlink:href="#ArialMT-45"/>
       <use x="255.761719" xlink:href="#ArialMT-50"/>
       <use x="311.376953" xlink:href="#ArialMT-49"/>
       <use x="366.992188" xlink:href="#ArialMT-54"/>
      </g>
     </g>
    </g>
    <g id="xtick_3">
     <g id="text_3">
      <!-- 1034-216-1 -->
      <g style="fill:#262626;" transform="translate(313.910181 511.1565)scale(0.16 -0.16)">
       <use xlink:href="#ArialMT-49"/>
       <use x="55.615234" xlink:href="#ArialMT-48"/>
       <use x="111.230469" xlink:href="#ArialMT-51"/>
       <use x="166.845703" xlink:href="#ArialMT-52"/>
       <use x="222.460938" xlink:href="#ArialMT-45"/>
       <use x="255.761719" xlink:href="#ArialMT-50"/>
       <use x="311.376953" xlink:href="#ArialMT-49"/>
       <use x="366.992188" xlink:href="#ArialMT-54"/>
       <use x="422.607422" xlink:href="#ArialMT-45"/>
       <use x="455.908203" xlink:href="#ArialMT-49"/>
      </g>
     </g>
    </g>
    <g id="xtick_4">
     <g id="text_4">
      <!-- 1035-136 -->
      <g style="fill:#262626;" transform="translate(434.218754 511.1565)scale(0.16 -0.16)">
       <use xlink:href="#ArialMT-49"/>
       <use x="55.615234" xlink:href="#ArialMT-48"/>
       <use x="111.230469" xlink:href="#ArialMT-51"/>
       <use x="166.845703" xlink:href="#ArialMT-53"/>
       <use x="222.460938" xlink:href="#ArialMT-45"/>
       <use x="255.761719" xlink:href="#ArialMT-49"/>
       <use x="311.376953" xlink:href="#ArialMT-51"/>
       <use x="366.992188" xlink:href="#ArialMT-54"/>
      </g>
     </g>
    </g>
    <g id="xtick_5">
     <g id="text_5">
      <!-- 1038-276 -->
      <defs>
       <path d="M 17.671875 38.8125 
Q 12.203125 40.828125 9.5625 44.53125 
Q 6.9375 48.25 6.9375 53.421875 
Q 6.9375 61.234375 12.546875 66.546875 
Q 18.171875 71.875 27.484375 71.875 
Q 36.859375 71.875 42.578125 66.421875 
Q 48.296875 60.984375 48.296875 53.171875 
Q 48.296875 48.1875 45.671875 44.5 
Q 43.0625 40.828125 37.75 38.8125 
Q 44.34375 36.671875 47.78125 31.875 
Q 51.21875 27.09375 51.21875 20.453125 
Q 51.21875 11.28125 44.71875 5.03125 
Q 38.234375 -1.21875 27.640625 -1.21875 
Q 17.046875 -1.21875 10.546875 5.046875 
Q 4.046875 11.328125 4.046875 20.703125 
Q 4.046875 27.6875 7.59375 32.390625 
Q 11.140625 37.109375 17.671875 38.8125 
z
M 15.921875 53.71875 
Q 15.921875 48.640625 19.1875 45.40625 
Q 22.46875 42.1875 27.6875 42.1875 
Q 32.765625 42.1875 36.015625 45.375 
Q 39.265625 48.578125 39.265625 53.21875 
Q 39.265625 58.0625 35.90625 61.359375 
Q 32.5625 64.65625 27.59375 64.65625 
Q 22.5625 64.65625 19.234375 61.421875 
Q 15.921875 58.203125 15.921875 53.71875 
z
M 13.09375 20.65625 
Q 13.09375 16.890625 14.875 13.375 
Q 16.65625 9.859375 20.171875 7.921875 
Q 23.6875 6 27.734375 6 
Q 34.03125 6 38.125 10.046875 
Q 42.234375 14.109375 42.234375 20.359375 
Q 42.234375 26.703125 38.015625 30.859375 
Q 33.796875 35.015625 27.4375 35.015625 
Q 21.234375 35.015625 17.15625 30.90625 
Q 13.09375 26.8125 13.09375 20.65625 
z
" id="ArialMT-56"/>
       <path d="M 4.734375 62.203125 
L 4.734375 70.65625 
L 51.078125 70.65625 
L 51.078125 63.8125 
Q 44.234375 56.546875 37.515625 44.484375 
Q 30.8125 32.421875 27.15625 19.671875 
Q 24.515625 10.6875 23.78125 0 
L 14.75 0 
Q 14.890625 8.453125 18.0625 20.40625 
Q 21.234375 32.375 27.171875 43.484375 
Q 33.109375 54.59375 39.796875 62.203125 
z
" id="ArialMT-55"/>
      </defs>
      <g style="fill:#262626;" transform="translate(547.414827 511.1565)scale(0.16 -0.16)">
       <use xlink:href="#ArialMT-49"/>
       <use x="55.615234" xlink:href="#ArialMT-48"/>
       <use x="111.230469" xlink:href="#ArialMT-51"/>
       <use x="166.845703" xlink:href="#ArialMT-56"/>
       <use x="222.460938" xlink:href="#ArialMT-45"/>
       <use x="255.761719" xlink:href="#ArialMT-50"/>
       <use x="311.376953" xlink:href="#ArialMT-55"/>
       <use x="366.992188" xlink:href="#ArialMT-54"/>
      </g>
     </g>
    </g>
    <g id="text_6">
     <!-- Counter id -->
     <defs>
      <path d="M 58.796875 25.09375 
L 68.265625 22.703125 
Q 65.28125 11.03125 57.546875 4.90625 
Q 49.8125 -1.21875 38.625 -1.21875 
Q 27.046875 -1.21875 19.796875 3.484375 
Q 12.546875 8.203125 8.765625 17.140625 
Q 4.984375 26.078125 4.984375 36.328125 
Q 4.984375 47.515625 9.25 55.828125 
Q 13.53125 64.15625 21.40625 68.46875 
Q 29.296875 72.796875 38.765625 72.796875 
Q 49.515625 72.796875 56.828125 67.328125 
Q 64.15625 61.859375 67.046875 51.953125 
L 57.71875 49.75 
Q 55.21875 57.5625 50.484375 61.125 
Q 45.75 64.703125 38.578125 64.703125 
Q 30.328125 64.703125 24.78125 60.734375 
Q 19.234375 56.78125 16.984375 50.109375 
Q 14.75 43.453125 14.75 36.375 
Q 14.75 27.25 17.40625 20.4375 
Q 20.0625 13.625 25.671875 10.25 
Q 31.296875 6.890625 37.84375 6.890625 
Q 45.796875 6.890625 51.3125 11.46875 
Q 56.84375 16.0625 58.796875 25.09375 
z
" id="ArialMT-67"/>
      <path d="M 3.328125 25.921875 
Q 3.328125 40.328125 11.328125 47.265625 
Q 18.015625 53.03125 27.640625 53.03125 
Q 38.328125 53.03125 45.109375 46.015625 
Q 51.90625 39.015625 51.90625 26.65625 
Q 51.90625 16.65625 48.90625 10.90625 
Q 45.90625 5.171875 40.15625 2 
Q 34.421875 -1.171875 27.640625 -1.171875 
Q 16.75 -1.171875 10.03125 5.8125 
Q 3.328125 12.796875 3.328125 25.921875 
z
M 12.359375 25.921875 
Q 12.359375 15.96875 16.703125 11.015625 
Q 21.046875 6.0625 27.640625 6.0625 
Q 34.1875 6.0625 38.53125 11.03125 
Q 42.875 16.015625 42.875 26.21875 
Q 42.875 35.84375 38.5 40.796875 
Q 34.125 45.75 27.640625 45.75 
Q 21.046875 45.75 16.703125 40.8125 
Q 12.359375 35.890625 12.359375 25.921875 
z
" id="ArialMT-111"/>
      <path d="M 40.578125 0 
L 40.578125 7.625 
Q 34.515625 -1.171875 24.125 -1.171875 
Q 19.53125 -1.171875 15.546875 0.578125 
Q 11.578125 2.34375 9.640625 5 
Q 7.71875 7.671875 6.9375 11.53125 
Q 6.390625 14.109375 6.390625 19.734375 
L 6.390625 51.859375 
L 15.1875 51.859375 
L 15.1875 23.09375 
Q 15.1875 16.21875 15.71875 13.8125 
Q 16.546875 10.359375 19.234375 8.375 
Q 21.921875 6.390625 25.875 6.390625 
Q 29.828125 6.390625 33.296875 8.421875 
Q 36.765625 10.453125 38.203125 13.9375 
Q 39.65625 17.4375 39.65625 24.078125 
L 39.65625 51.859375 
L 48.4375 51.859375 
L 48.4375 0 
z
" id="ArialMT-117"/>
      <path d="M 6.59375 0 
L 6.59375 51.859375 
L 14.5 51.859375 
L 14.5 44.484375 
Q 20.21875 53.03125 31 53.03125 
Q 35.6875 53.03125 39.625 51.34375 
Q 43.5625 49.65625 45.515625 46.921875 
Q 47.46875 44.1875 48.25 40.4375 
Q 48.734375 37.984375 48.734375 31.890625 
L 48.734375 0 
L 39.9375 0 
L 39.9375 31.546875 
Q 39.9375 36.921875 38.90625 39.578125 
Q 37.890625 42.234375 35.28125 43.8125 
Q 32.671875 45.40625 29.15625 45.40625 
Q 23.53125 45.40625 19.453125 41.84375 
Q 15.375 38.28125 15.375 28.328125 
L 15.375 0 
z
" id="ArialMT-110"/>
      <path d="M 25.78125 7.859375 
L 27.046875 0.09375 
Q 23.34375 -0.6875 20.40625 -0.6875 
Q 15.625 -0.6875 12.984375 0.828125 
Q 10.359375 2.34375 9.28125 4.8125 
Q 8.203125 7.28125 8.203125 15.1875 
L 8.203125 45.015625 
L 1.765625 45.015625 
L 1.765625 51.859375 
L 8.203125 51.859375 
L 8.203125 64.703125 
L 16.9375 69.96875 
L 16.9375 51.859375 
L 25.78125 51.859375 
L 25.78125 45.015625 
L 16.9375 45.015625 
L 16.9375 14.703125 
Q 16.9375 10.9375 17.40625 9.859375 
Q 17.875 8.796875 18.921875 8.15625 
Q 19.96875 7.515625 21.921875 7.515625 
Q 23.390625 7.515625 25.78125 7.859375 
z
" id="ArialMT-116"/>
      <path d="M 42.09375 16.703125 
L 51.171875 15.578125 
Q 49.03125 7.625 43.21875 3.21875 
Q 37.40625 -1.171875 28.375 -1.171875 
Q 17 -1.171875 10.328125 5.828125 
Q 3.65625 12.84375 3.65625 25.484375 
Q 3.65625 38.578125 10.390625 45.796875 
Q 17.140625 53.03125 27.875 53.03125 
Q 38.28125 53.03125 44.875 45.953125 
Q 51.46875 38.875 51.46875 26.03125 
Q 51.46875 25.25 51.421875 23.6875 
L 12.75 23.6875 
Q 13.234375 15.140625 17.578125 10.59375 
Q 21.921875 6.0625 28.421875 6.0625 
Q 33.25 6.0625 36.671875 8.59375 
Q 40.09375 11.140625 42.09375 16.703125 
z
M 13.234375 30.90625 
L 42.1875 30.90625 
Q 41.609375 37.453125 38.875 40.71875 
Q 34.671875 45.796875 27.984375 45.796875 
Q 21.921875 45.796875 17.796875 41.75 
Q 13.671875 37.703125 13.234375 30.90625 
z
" id="ArialMT-101"/>
      <path d="M 6.5 0 
L 6.5 51.859375 
L 14.40625 51.859375 
L 14.40625 44 
Q 17.4375 49.515625 20 51.265625 
Q 22.5625 53.03125 25.640625 53.03125 
Q 30.078125 53.03125 34.671875 50.203125 
L 31.640625 42.046875 
Q 28.421875 43.953125 25.203125 43.953125 
Q 22.3125 43.953125 20.015625 42.21875 
Q 17.71875 40.484375 16.75 37.40625 
Q 15.28125 32.71875 15.28125 27.15625 
L 15.28125 0 
z
" id="ArialMT-114"/>
      <path id="ArialMT-32"/>
      <path d="M 6.640625 61.46875 
L 6.640625 71.578125 
L 15.4375 71.578125 
L 15.4375 61.46875 
z
M 6.640625 0 
L 6.640625 51.859375 
L 15.4375 51.859375 
L 15.4375 0 
z
" id="ArialMT-105"/>
      <path d="M 40.234375 0 
L 40.234375 6.546875 
Q 35.296875 -1.171875 25.734375 -1.171875 
Q 19.53125 -1.171875 14.328125 2.25 
Q 9.125 5.671875 6.265625 11.796875 
Q 3.421875 17.921875 3.421875 25.875 
Q 3.421875 33.640625 6 39.96875 
Q 8.59375 46.296875 13.765625 49.65625 
Q 18.953125 53.03125 25.34375 53.03125 
Q 30.03125 53.03125 33.6875 51.046875 
Q 37.359375 49.078125 39.65625 45.90625 
L 39.65625 71.578125 
L 48.390625 71.578125 
L 48.390625 0 
z
M 12.453125 25.875 
Q 12.453125 15.921875 16.640625 10.984375 
Q 20.84375 6.0625 26.5625 6.0625 
Q 32.328125 6.0625 36.34375 10.765625 
Q 40.375 15.484375 40.375 25.140625 
Q 40.375 35.796875 36.265625 40.765625 
Q 32.171875 45.75 26.171875 45.75 
Q 20.3125 45.75 16.375 40.96875 
Q 12.453125 36.1875 12.453125 25.875 
z
" id="ArialMT-100"/>
     </defs>
     <g style="fill:#262626;" transform="translate(317.920181 529.789)scale(0.16 -0.16)">
      <use xlink:href="#ArialMT-67"/>
      <use x="72.216797" xlink:href="#ArialMT-111"/>
      <use x="127.832031" xlink:href="#ArialMT-117"/>
      <use x="183.447266" xlink:href="#ArialMT-110"/>
      <use x="239.0625" xlink:href="#ArialMT-116"/>
      <use x="266.845703" xlink:href="#ArialMT-101"/>
      <use x="322.460938" xlink:href="#ArialMT-114"/>
      <use x="355.761719" xlink:href="#ArialMT-32"/>
      <use x="383.544922" xlink:href="#ArialMT-105"/>
      <use x="405.761719" xlink:href="#ArialMT-100"/>
     </g>
    </g>
   </g>
   <g id="matplotlib.axis_2">
    <g id="ytick_1">
     <g id="text_7">
      <!-- −250 -->
      <defs>
       <path d="M 52.828125 31.203125 
L 5.5625 31.203125 
L 5.5625 39.40625 
L 52.828125 39.40625 
z
" id="ArialMT-8722"/>
      </defs>
      <g style="fill:#262626;" transform="translate(28.8 489.637686)scale(0.16 -0.16)">
       <use xlink:href="#ArialMT-8722"/>
       <use x="58.398438" xlink:href="#ArialMT-50"/>
       <use x="114.013672" xlink:href="#ArialMT-53"/>
       <use x="169.628906" xlink:href="#ArialMT-48"/>
      </g>
     </g>
    </g>
    <g id="ytick_2">
     <g id="text_8">
      <!-- 0 -->
      <g style="fill:#262626;" transform="translate(55.94 429.214278)scale(0.16 -0.16)">
       <use xlink:href="#ArialMT-48"/>
      </g>
     </g>
    </g>
    <g id="ytick_3">
     <g id="text_9">
      <!-- 250 -->
      <g style="fill:#262626;" transform="translate(38.145 368.79087)scale(0.16 -0.16)">
       <use xlink:href="#ArialMT-50"/>
       <use x="55.615234" xlink:href="#ArialMT-53"/>
       <use x="111.230469" xlink:href="#ArialMT-48"/>
      </g>
     </g>
    </g>
    <g id="ytick_4">
     <g id="text_10">
      <!-- 500 -->
      <g style="fill:#262626;" transform="translate(38.145 308.367462)scale(0.16 -0.16)">
       <use xlink:href="#ArialMT-53"/>
       <use x="55.615234" xlink:href="#ArialMT-48"/>
       <use x="111.230469" xlink:href="#ArialMT-48"/>
      </g>
     </g>
    </g>
    <g id="ytick_5">
     <g id="text_11">
      <!-- 750 -->
      <g style="fill:#262626;" transform="translate(38.145 247.944054)scale(0.16 -0.16)">
       <use xlink:href="#ArialMT-55"/>
       <use x="55.615234" xlink:href="#ArialMT-53"/>
       <use x="111.230469" xlink:href="#ArialMT-48"/>
      </g>
     </g>
    </g>
    <g id="ytick_6">
     <g id="text_12">
      <!-- 1000 -->
      <g style="fill:#262626;" transform="translate(29.2475 187.520646)scale(0.16 -0.16)">
       <use xlink:href="#ArialMT-49"/>
       <use x="55.615234" xlink:href="#ArialMT-48"/>
       <use x="111.230469" xlink:href="#ArialMT-48"/>
       <use x="166.845703" xlink:href="#ArialMT-48"/>
      </g>
     </g>
    </g>
    <g id="ytick_7">
     <g id="text_13">
      <!-- 1250 -->
      <g style="fill:#262626;" transform="translate(29.2475 127.097237)scale(0.16 -0.16)">
       <use xlink:href="#ArialMT-49"/>
       <use x="55.615234" xlink:href="#ArialMT-50"/>
       <use x="111.230469" xlink:href="#ArialMT-53"/>
       <use x="166.845703" xlink:href="#ArialMT-48"/>
      </g>
     </g>
    </g>
    <g id="ytick_8">
     <g id="text_14">
      <!-- 1500 -->
      <g style="fill:#262626;" transform="translate(29.2475 66.673829)scale(0.16 -0.16)">
       <use xlink:href="#ArialMT-49"/>
       <use x="55.615234" xlink:href="#ArialMT-53"/>
       <use x="111.230469" xlink:href="#ArialMT-48"/>
       <use x="166.845703" xlink:href="#ArialMT-48"/>
      </g>
     </g>
    </g>
    <g id="text_15">
     <!-- Count [$h^{-1}$] -->
     <defs>
      <path d="M 6.78125 -19.875 
L 6.78125 71.578125 
L 26.171875 71.578125 
L 26.171875 64.3125 
L 15.578125 64.3125 
L 15.578125 -12.59375 
L 26.171875 -12.59375 
L 26.171875 -19.875 
z
" id="ArialMT-91"/>
      <path d="M 55.71875 33.015625 
L 49.3125 0 
L 40.28125 0 
L 46.6875 32.671875 
Q 47.125 34.96875 47.359375 36.71875 
Q 47.609375 38.484375 47.609375 39.5 
Q 47.609375 43.609375 45.015625 45.890625 
Q 42.4375 48.1875 37.796875 48.1875 
Q 30.5625 48.1875 25.265625 43.296875 
Q 19.96875 38.421875 18.40625 30.328125 
L 12.5 0 
L 3.515625 0 
L 18.3125 75.984375 
L 27.296875 75.984375 
L 21.484375 46.09375 
Q 24.90625 50.6875 30.21875 53.34375 
Q 35.546875 56 41.40625 56 
Q 48.640625 56 52.609375 52.09375 
Q 56.59375 48.1875 56.59375 41.109375 
Q 56.59375 39.359375 56.375 37.359375 
Q 56.15625 35.359375 55.71875 33.015625 
z
" id="DejaVuSans-Oblique-104"/>
      <path d="M 10.59375 35.5 
L 73.1875 35.5 
L 73.1875 27.203125 
L 10.59375 27.203125 
z
" id="DejaVuSans-8722"/>
      <path d="M 12.40625 8.296875 
L 28.515625 8.296875 
L 28.515625 63.921875 
L 10.984375 60.40625 
L 10.984375 69.390625 
L 28.421875 72.90625 
L 38.28125 72.90625 
L 38.28125 8.296875 
L 54.390625 8.296875 
L 54.390625 0 
L 12.40625 0 
z
" id="DejaVuSans-49"/>
      <path d="M 21.296875 -19.875 
L 1.90625 -19.875 
L 1.90625 -12.59375 
L 12.5 -12.59375 
L 12.5 64.3125 
L 1.90625 64.3125 
L 1.90625 71.578125 
L 21.296875 71.578125 
z
" id="ArialMT-93"/>
     </defs>
     <g style="fill:#262626;" transform="translate(21.6 292.112)rotate(-90)scale(0.16 -0.16)">
      <use transform="translate(0 0.684375)" xlink:href="#ArialMT-67"/>
      <use transform="translate(72.216797 0.684375)" xlink:href="#ArialMT-111"/>
      <use transform="translate(127.832031 0.684375)" xlink:href="#ArialMT-117"/>
      <use transform="translate(183.447266 0.684375)" xlink:href="#ArialMT-110"/>
      <use transform="translate(239.0625 0.684375)" xlink:href="#ArialMT-116"/>
      <use transform="translate(266.845703 0.684375)" xlink:href="#ArialMT-32"/>
      <use transform="translate(294.628906 0.684375)" xlink:href="#ArialMT-91"/>
      <use transform="translate(322.412109 0.684375)" xlink:href="#DejaVuSans-Oblique-104"/>
      <use transform="translate(393.238724 38.965625)scale(0.7)" xlink:href="#DejaVuSans-8722"/>
      <use transform="translate(451.891068 38.965625)scale(0.7)" xlink:href="#DejaVuSans-49"/>
      <use transform="translate(499.161576 0.684375)" xlink:href="#ArialMT-93"/>
     </g>
    </g>
   </g>
   <g id="PolyCollection_1">
    <defs>
     <path d="M 107.206645 -109.235112 
L 104.385999 -109.235112 
L 103.509172 -110.117939 
L 102.27868 -111.000765 
L 100.662062 -111.883591 
L 98.67835 -112.766418 
L 96.411991 -113.649244 
L 94.011549 -114.53207 
L 91.668671 -115.414897 
L 89.579746 -116.297723 
L 87.900334 -117.180549 
L 86.707183 -118.063376 
L 85.981499 -118.946202 
L 85.619968 -119.829028 
L 85.469687 -120.711855 
L 85.374356 -121.594681 
L 85.215765 -122.477507 
L 84.937863 -123.360334 
L 84.548575 -124.24316 
L 84.103116 -125.125987 
L 83.678153 -126.008813 
L 83.347132 -126.891639 
L 83.163951 -127.774466 
L 83.157107 -128.657292 
L 83.332055 -129.540118 
L 83.677351 -130.422945 
L 84.170574 -131.305771 
L 84.782061 -132.188597 
L 85.476691 -133.071424 
L 86.215211 -133.95425 
L 86.95647 -134.837076 
L 87.660957 -135.719903 
L 88.295016 -136.602729 
L 88.834696 -137.485555 
L 89.268409 -138.368382 
L 89.598078 -139.251208 
L 89.838747 -140.134035 
L 90.01668 -141.016861 
L 90.165869 -141.899687 
L 90.323043 -142.782514 
L 90.521804 -143.66534 
L 90.787071 -144.548166 
L 91.131292 -145.430993 
L 91.553554 -146.313819 
L 92.041818 -147.196645 
L 92.577529 -148.079472 
L 93.141101 -148.962298 
L 93.716615 -149.845124 
L 94.294487 -150.727951 
L 94.871676 -151.610777 
L 95.449796 -152.493603 
L 96.032167 -153.37643 
L 96.620987 -154.259256 
L 97.215632 -155.142083 
L 97.812501 -156.024909 
L 98.406206 -156.907735 
L 98.991385 -157.790562 
L 99.564236 -158.673388 
L 100.123044 -159.556214 
L 100.667471 -160.439041 
L 101.196969 -161.321867 
L 101.709055 -162.204693 
L 102.198314 -163.08752 
L 102.656644 -163.970346 
L 103.074742 -164.853172 
L 103.4443 -165.735999 
L 103.760153 -166.618825 
L 104.021687 -167.501651 
L 104.233178 -168.384478 
L 104.403054 -169.267304 
L 104.54237 -170.150131 
L 104.662851 -171.032957 
L 104.774899 -171.915783 
L 104.885926 -172.79861 
L 104.999355 -173.681436 
L 105.114502 -174.564262 
L 105.227393 -175.447089 
L 105.33226 -176.329915 
L 105.423335 -177.212741 
L 105.496418 -178.095568 
L 105.549841 -178.978394 
L 105.584637 -179.86122 
L 105.603999 -180.744047 
L 105.612267 -181.626873 
L 105.613845 -182.509699 
L 105.612357 -183.392526 
L 105.610267 -184.275352 
L 105.608979 -185.158179 
L 105.609244 -186.041005 
L 105.611625 -186.923831 
L 105.616766 -187.806658 
L 105.625366 -188.689484 
L 105.637918 -189.57231 
L 105.654388 -190.455137 
L 105.674035 -191.337963 
L 105.695485 -192.220789 
L 105.717028 -193.103616 
L 105.737017 -193.986442 
L 105.754216 -194.869268 
L 105.76798 -195.752095 
L 105.778253 -196.634921 
L 105.81439 -196.634921 
L 105.81439 -196.634921 
L 105.824663 -195.752095 
L 105.838428 -194.869268 
L 105.855627 -193.986442 
L 105.875616 -193.103616 
L 105.897158 -192.220789 
L 105.918608 -191.337963 
L 105.938256 -190.455137 
L 105.954725 -189.57231 
L 105.967277 -188.689484 
L 105.975878 -187.806658 
L 105.981018 -186.923831 
L 105.9834 -186.041005 
L 105.983665 -185.158179 
L 105.982377 -184.275352 
L 105.980287 -183.392526 
L 105.978798 -182.509699 
L 105.980376 -181.626873 
L 105.988645 -180.744047 
L 106.008006 -179.86122 
L 106.042803 -178.978394 
L 106.096225 -178.095568 
L 106.169309 -177.212741 
L 106.260384 -176.329915 
L 106.365251 -175.447089 
L 106.478141 -174.564262 
L 106.593289 -173.681436 
L 106.706717 -172.79861 
L 106.817745 -171.915783 
L 106.929793 -171.032957 
L 107.050274 -170.150131 
L 107.189589 -169.267304 
L 107.359465 -168.384478 
L 107.570956 -167.501651 
L 107.832491 -166.618825 
L 108.148343 -165.735999 
L 108.517902 -164.853172 
L 108.936 -163.970346 
L 109.39433 -163.08752 
L 109.883588 -162.204693 
L 110.395674 -161.321867 
L 110.925172 -160.439041 
L 111.4696 -159.556214 
L 112.028407 -158.673388 
L 112.601259 -157.790562 
L 113.186438 -156.907735 
L 113.780142 -156.024909 
L 114.377011 -155.142083 
L 114.971656 -154.259256 
L 115.560476 -153.37643 
L 116.142847 -152.493603 
L 116.720968 -151.610777 
L 117.298157 -150.727951 
L 117.876029 -149.845124 
L 118.451542 -148.962298 
L 119.015115 -148.079472 
L 119.550826 -147.196645 
L 120.039089 -146.313819 
L 120.461351 -145.430993 
L 120.805573 -144.548166 
L 121.070839 -143.66534 
L 121.269601 -142.782514 
L 121.426775 -141.899687 
L 121.575964 -141.016861 
L 121.753897 -140.134035 
L 121.994565 -139.251208 
L 122.324234 -138.368382 
L 122.757948 -137.485555 
L 123.297628 -136.602729 
L 123.931686 -135.719903 
L 124.636174 -134.837076 
L 125.377433 -133.95425 
L 126.115952 -133.071424 
L 126.810582 -132.188597 
L 127.422069 -131.305771 
L 127.915293 -130.422945 
L 128.260589 -129.540118 
L 128.435536 -128.657292 
L 128.428692 -127.774466 
L 128.245511 -126.891639 
L 127.91449 -126.008813 
L 127.489527 -125.125987 
L 127.044068 -124.24316 
L 126.65478 -123.360334 
L 126.376878 -122.477507 
L 126.218288 -121.594681 
L 126.122957 -120.711855 
L 125.972675 -119.829028 
L 125.611144 -118.946202 
L 124.88546 -118.063376 
L 123.692309 -117.180549 
L 122.012898 -116.297723 
L 119.923972 -115.414897 
L 117.581094 -114.53207 
L 115.180652 -113.649244 
L 112.914294 -112.766418 
L 110.930581 -111.883591 
L 109.313964 -111.000765 
L 108.083472 -110.117939 
L 107.206645 -109.235112 
z
" id="m2f81c9313a" style="stroke:#373737;stroke-width:1.5;"/>
    </defs>
    <g clip-path="url(#p52c866ff0c)">
     <use style="fill:#2b8e70;stroke:#373737;stroke-width:1.5;" x="0" xlink:href="#m2f81c9313a" y="540.169"/>
    </g>
   </g>
   <g id="PolyCollection_2">
    <defs>
     <path d="M 151.756853 -106.468957 
L 150.392648 -106.468957 
L 149.952603 -107.627387 
L 149.313293 -108.785817 
L 148.435109 -109.944246 
L 147.296098 -111.102676 
L 145.903834 -112.261106 
L 144.304247 -113.419536 
L 142.583592 -114.577965 
L 140.860988 -115.736395 
L 139.271498 -116.894825 
L 137.942985 -118.053255 
L 136.972536 -119.211684 
L 136.409007 -120.370114 
L 136.246696 -121.528544 
L 136.431647 -122.686974 
L 136.8781 -123.845403 
L 137.48955 -125.003833 
L 138.178003 -126.162263 
L 138.876412 -127.320693 
L 139.542277 -128.479122 
L 140.153647 -129.637552 
L 140.701006 -130.795982 
L 141.179092 -131.954412 
L 141.58172 -133.112842 
L 141.900719 -134.271271 
L 142.128215 -135.429701 
L 142.260359 -136.588131 
L 142.300424 -137.746561 
L 142.259923 -138.90499 
L 142.157386 -140.06342 
L 142.015367 -141.22185 
L 141.856672 -142.38028 
L 141.700818 -143.538709 
L 141.561423 -144.697139 
L 141.44489 -145.855569 
L 141.350426 -147.013999 
L 141.271288 -148.172428 
L 141.197002 -149.330858 
L 141.116104 -150.489288 
L 141.018894 -151.647718 
L 140.899568 -152.806147 
L 140.757285 -153.964577 
L 140.595998 -155.123007 
L 140.423235 -156.281437 
L 140.248291 -157.439866 
L 140.080372 -158.598296 
L 139.92711 -159.756726 
L 139.793705 -160.915156 
L 139.682733 -162.073585 
L 139.59459 -163.232015 
L 139.528467 -164.390445 
L 139.483709 -165.548875 
L 139.461333 -166.707305 
L 139.465359 -167.865734 
L 139.503585 -169.024164 
L 139.587492 -170.182594 
L 139.731137 -171.341024 
L 139.949175 -172.499453 
L 140.254359 -173.657883 
L 140.655007 -174.816313 
L 141.152974 -175.974743 
L 141.742548 -177.133172 
L 142.410515 -178.291602 
L 143.137414 -179.450032 
L 143.899744 -180.608462 
L 144.672682 -181.766891 
L 145.432775 -182.925321 
L 146.160087 -184.083751 
L 146.839486 -185.242181 
L 147.460997 -186.40061 
L 148.019389 -187.55904 
L 148.51328 -188.71747 
L 148.944071 -189.8759 
L 149.314929 -191.034329 
L 149.629914 -192.192759 
L 149.893304 -193.351189 
L 150.109139 -194.509619 
L 150.280995 -195.668048 
L 150.412028 -196.826478 
L 150.505282 -197.984908 
L 150.564181 -199.143338 
L 150.59308 -200.301768 
L 150.597689 -201.460197 
L 150.585189 -202.618627 
L 150.563906 -203.777057 
L 150.54256 -204.935487 
L 150.529193 -206.093916 
L 150.530023 -207.252346 
L 150.54854 -208.410776 
L 150.58508 -209.569206 
L 150.637015 -210.727635 
L 150.699515 -211.886065 
L 150.766674 -213.044495 
L 150.832697 -214.202925 
L 150.892866 -215.361354 
L 150.9441 -216.519784 
L 150.985071 -217.678214 
L 151.015947 -218.836644 
L 151.037928 -219.995073 
L 151.052736 -221.153503 
L 151.096766 -221.153503 
L 151.096766 -221.153503 
L 151.111574 -219.995073 
L 151.133554 -218.836644 
L 151.164431 -217.678214 
L 151.205402 -216.519784 
L 151.256636 -215.361354 
L 151.316804 -214.202925 
L 151.382827 -213.044495 
L 151.449987 -211.886065 
L 151.512487 -210.727635 
L 151.564421 -209.569206 
L 151.600961 -208.410776 
L 151.619479 -207.252346 
L 151.620309 -206.093916 
L 151.606941 -204.935487 
L 151.585596 -203.777057 
L 151.564313 -202.618627 
L 151.551812 -201.460197 
L 151.556422 -200.301768 
L 151.585321 -199.143338 
L 151.644219 -197.984908 
L 151.737473 -196.826478 
L 151.868507 -195.668048 
L 152.040362 -194.509619 
L 152.256197 -193.351189 
L 152.519588 -192.192759 
L 152.834572 -191.034329 
L 153.20543 -189.8759 
L 153.636222 -188.71747 
L 154.130112 -187.55904 
L 154.688505 -186.40061 
L 155.310016 -185.242181 
L 155.989415 -184.083751 
L 156.716726 -182.925321 
L 157.476819 -181.766891 
L 158.249758 -180.608462 
L 159.012087 -179.450032 
L 159.738986 -178.291602 
L 160.406954 -177.133172 
L 160.996528 -175.974743 
L 161.494495 -174.816313 
L 161.895143 -173.657883 
L 162.200326 -172.499453 
L 162.418365 -171.341024 
L 162.562009 -170.182594 
L 162.645916 -169.024164 
L 162.684143 -167.865734 
L 162.688168 -166.707305 
L 162.665792 -165.548875 
L 162.621035 -164.390445 
L 162.554912 -163.232015 
L 162.466769 -162.073585 
L 162.355797 -160.915156 
L 162.222391 -159.756726 
L 162.069129 -158.598296 
L 161.90121 -157.439866 
L 161.726267 -156.281437 
L 161.553504 -155.123007 
L 161.392217 -153.964577 
L 161.249934 -152.806147 
L 161.130608 -151.647718 
L 161.033398 -150.489288 
L 160.9525 -149.330858 
L 160.878213 -148.172428 
L 160.799076 -147.013999 
L 160.704611 -145.855569 
L 160.588078 -144.697139 
L 160.448684 -143.538709 
L 160.292829 -142.38028 
L 160.134135 -141.22185 
L 159.992116 -140.06342 
L 159.889579 -138.90499 
L 159.849078 -137.746561 
L 159.889143 -136.588131 
L 160.021286 -135.429701 
L 160.248782 -134.271271 
L 160.567781 -133.112842 
L 160.97041 -131.954412 
L 161.448496 -130.795982 
L 161.995854 -129.637552 
L 162.607225 -128.479122 
L 163.273089 -127.320693 
L 163.971498 -126.162263 
L 164.659952 -125.003833 
L 165.271402 -123.845403 
L 165.717854 -122.686974 
L 165.902806 -121.528544 
L 165.740495 -120.370114 
L 165.176966 -119.211684 
L 164.206516 -118.053255 
L 162.878004 -116.894825 
L 161.288514 -115.736395 
L 159.565909 -114.577965 
L 157.845254 -113.419536 
L 156.245667 -112.261106 
L 154.853404 -111.102676 
L 153.714393 -109.944246 
L 152.836209 -108.785817 
L 152.196899 -107.627387 
L 151.756853 -106.468957 
z
" id="m24149142ba" style="stroke:#373737;stroke-width:1.5;"/>
    </defs>
    <g clip-path="url(#p52c866ff0c)">
     <use style="fill:#be631d;stroke:#373737;stroke-width:1.5;" x="0" xlink:href="#m24149142ba" y="540.169"/>
    </g>
   </g>
   <g id="PolyCollection_3">
    <defs>
     <path d="M 220.023863 -95.335878 
L 217.960926 -95.335878 
L 217.40274 -97.436975 
L 216.625644 -99.538073 
L 215.587206 -101.63917 
L 214.256288 -103.740267 
L 212.622002 -105.841365 
L 210.702083 -107.942462 
L 208.548594 -110.043559 
L 206.249 -112.144657 
L 203.92125 -114.245754 
L 201.702738 -116.346851 
L 199.734442 -118.447948 
L 198.142836 -120.549046 
L 197.022955 -122.650143 
L 196.4259 -124.75124 
L 196.35318 -126.852338 
L 196.758763 -128.953435 
L 197.558076 -131.054532 
L 198.641769 -133.155629 
L 199.891362 -135.256727 
L 201.193901 -137.357824 
L 202.453415 -139.458921 
L 203.598012 -141.560019 
L 204.582477 -143.661116 
L 205.38707 -145.762213 
L 206.01361 -147.86331 
L 206.480022 -149.964408 
L 206.814332 -152.065505 
L 207.048861 -154.166602 
L 207.215102 -156.2677 
L 207.339659 -158.368797 
L 207.441482 -160.469894 
L 207.530563 -162.570992 
L 207.60809 -164.672089 
L 207.667925 -166.773186 
L 207.699098 -168.874283 
L 207.688855 -170.975381 
L 207.625794 -173.076478 
L 207.502616 -175.177575 
L 207.318091 -177.278673 
L 207.077999 -179.37977 
L 206.794918 -181.480867 
L 206.486942 -183.581964 
L 206.175523 -185.683062 
L 205.882836 -187.784159 
L 205.6291 -189.885256 
L 205.430327 -191.986354 
L 205.296839 -194.087451 
L 205.232762 -196.188548 
L 205.236472 -198.289645 
L 205.301813 -200.390743 
L 205.419785 -202.49184 
L 205.580378 -204.592937 
L 205.774248 -206.694035 
L 205.994044 -208.795132 
L 206.235228 -210.896229 
L 206.496351 -212.997327 
L 206.778778 -215.098424 
L 207.085909 -217.199521 
L 207.422035 -219.300618 
L 207.791001 -221.401716 
L 208.194936 -223.502813 
L 208.633302 -225.60391 
L 209.102484 -227.705008 
L 209.596013 -229.806105 
L 210.105342 -231.907202 
L 210.620978 -234.008299 
L 211.133645 -236.109397 
L 211.635202 -238.210494 
L 212.11915 -240.311591 
L 212.580697 -242.412689 
L 213.016545 -244.513786 
L 213.424585 -246.614883 
L 213.803708 -248.71598 
L 214.153805 -250.817078 
L 214.47595 -252.918175 
L 214.772601 -255.019272 
L 215.047679 -257.12037 
L 215.306379 -259.221467 
L 215.55468 -261.322564 
L 215.798606 -263.423661 
L 216.043385 -265.524759 
L 216.292677 -267.625856 
L 216.548021 -269.726953 
L 216.808627 -271.828051 
L 217.071525 -273.929148 
L 217.332041 -276.030245 
L 217.584499 -278.131343 
L 217.82302 -280.23244 
L 218.042279 -282.333537 
L 218.238112 -284.434634 
L 218.407902 -286.535732 
L 218.550712 -288.636829 
L 218.667181 -290.737926 
L 218.759249 -292.839024 
L 218.829768 -294.940121 
L 218.882093 -297.041218 
L 218.919692 -299.142315 
L 218.94585 -301.243413 
L 218.963468 -303.34451 
L 219.021321 -303.34451 
L 219.021321 -303.34451 
L 219.038938 -301.243413 
L 219.065097 -299.142315 
L 219.102696 -297.041218 
L 219.15502 -294.940121 
L 219.22554 -292.839024 
L 219.317608 -290.737926 
L 219.434077 -288.636829 
L 219.576886 -286.535732 
L 219.746677 -284.434634 
L 219.94251 -282.333537 
L 220.161769 -280.23244 
L 220.40029 -278.131343 
L 220.652748 -276.030245 
L 220.913264 -273.929148 
L 221.176162 -271.828051 
L 221.436768 -269.726953 
L 221.692112 -267.625856 
L 221.941403 -265.524759 
L 222.186183 -263.423661 
L 222.430109 -261.322564 
L 222.678409 -259.221467 
L 222.93711 -257.12037 
L 223.212188 -255.019272 
L 223.508839 -252.918175 
L 223.830984 -250.817078 
L 224.181081 -248.71598 
L 224.560203 -246.614883 
L 224.968244 -244.513786 
L 225.404092 -242.412689 
L 225.865639 -240.311591 
L 226.349586 -238.210494 
L 226.851144 -236.109397 
L 227.36381 -234.008299 
L 227.879447 -231.907202 
L 228.388776 -229.806105 
L 228.882304 -227.705008 
L 229.351487 -225.60391 
L 229.789852 -223.502813 
L 230.193787 -221.401716 
L 230.562754 -219.300618 
L 230.898879 -217.199521 
L 231.20601 -215.098424 
L 231.488437 -212.997327 
L 231.749561 -210.896229 
L 231.990745 -208.795132 
L 232.210541 -206.694035 
L 232.404411 -204.592937 
L 232.565003 -202.49184 
L 232.682976 -200.390743 
L 232.748316 -198.289645 
L 232.752026 -196.188548 
L 232.687949 -194.087451 
L 232.554462 -191.986354 
L 232.355689 -189.885256 
L 232.101953 -187.784159 
L 231.809266 -185.683062 
L 231.497847 -183.581964 
L 231.18987 -181.480867 
L 230.90679 -179.37977 
L 230.666697 -177.278673 
L 230.482173 -175.177575 
L 230.358995 -173.076478 
L 230.295934 -170.975381 
L 230.28569 -168.874283 
L 230.316863 -166.773186 
L 230.376699 -164.672089 
L 230.454225 -162.570992 
L 230.543306 -160.469894 
L 230.64513 -158.368797 
L 230.769686 -156.2677 
L 230.935927 -154.166602 
L 231.170456 -152.065505 
L 231.504767 -149.964408 
L 231.971178 -147.86331 
L 232.597719 -145.762213 
L 233.402312 -143.661116 
L 234.386777 -141.560019 
L 235.531373 -139.458921 
L 236.790888 -137.357824 
L 238.093426 -135.256727 
L 239.34302 -133.155629 
L 240.426713 -131.054532 
L 241.226026 -128.953435 
L 241.631609 -126.852338 
L 241.558888 -124.75124 
L 240.961834 -122.650143 
L 239.841953 -120.549046 
L 238.250347 -118.447948 
L 236.282051 -116.346851 
L 234.063539 -114.245754 
L 231.735789 -112.144657 
L 229.436195 -110.043559 
L 227.282706 -107.942462 
L 225.362787 -105.841365 
L 223.728501 -103.740267 
L 222.397582 -101.63917 
L 221.359145 -99.538073 
L 220.582049 -97.436975 
L 220.023863 -95.335878 
z
" id="m1b6bd67478" style="stroke:#373737;stroke-width:1.5;"/>
    </defs>
    <g clip-path="url(#p52c866ff0c)">
     <use style="fill:#2b8e70;stroke:#373737;stroke-width:1.5;" x="0" xlink:href="#m1b6bd67478" y="540.169"/>
    </g>
   </g>
   <g id="PolyCollection_4">
    <defs>
     <path d="M 265.193119 -90.445153 
L 263.348528 -90.445153 
L 262.789858 -93.335955 
L 261.997706 -96.226756 
L 260.934806 -99.117558 
L 259.587948 -102.00836 
L 257.98086 -104.899162 
L 256.182873 -107.789964 
L 254.309319 -110.680765 
L 252.511121 -113.571567 
L 250.953929 -116.462369 
L 249.79056 -119.353171 
L 249.133149 -122.243973 
L 249.032143 -125.134775 
L 249.467624 -128.025576 
L 250.354947 -130.916378 
L 251.562629 -133.80718 
L 252.93726 -136.697982 
L 254.329013 -139.588784 
L 255.6122 -142.479586 
L 256.697651 -145.370387 
L 257.536489 -148.261189 
L 258.117025 -151.151991 
L 258.457531 -154.042793 
L 258.597541 -156.933595 
L 258.589417 -159.824397 
L 258.490895 -162.715198 
L 258.358595 -165.606 
L 258.242295 -168.496802 
L 258.180044 -171.387604 
L 258.194595 -174.278406 
L 258.291844 -177.169208 
L 258.461743 -180.060009 
L 258.681646 -182.950811 
L 258.921356 -185.841613 
L 259.14871 -188.732415 
L 259.334414 -191.623217 
L 259.455214 -194.514018 
L 259.495061 -197.40482 
L 259.44454 -200.295622 
L 259.299293 -203.186424 
L 259.058253 -206.077226 
L 258.722388 -208.968028 
L 258.294278 -211.858829 
L 257.778486 -214.749631 
L 257.18236 -217.640433 
L 256.516778 -220.531235 
L 255.796419 -223.422037 
L 255.039344 -226.312839 
L 254.265934 -229.20364 
L 253.497453 -232.094442 
L 252.754609 -234.985244 
L 252.056438 -237.876046 
L 251.419663 -240.766848 
L 250.858522 -243.65765 
L 250.384902 -246.548451 
L 250.008592 -249.439253 
L 249.737495 -252.330055 
L 249.577734 -255.220857 
L 249.533663 -258.111659 
L 249.607775 -261.00246 
L 249.800516 -263.893262 
L 250.109962 -266.784064 
L 250.531372 -269.674866 
L 251.056719 -272.565668 
L 251.67438 -275.45647 
L 252.369251 -278.347271 
L 253.123476 -281.238073 
L 253.917789 -284.128875 
L 254.733269 -287.019677 
L 255.553076 -289.910479 
L 256.363707 -292.801281 
L 257.155398 -295.692082 
L 257.921598 -298.582884 
L 258.657723 -301.473686 
L 259.359659 -304.364488 
L 260.022549 -307.25529 
L 260.640273 -310.146092 
L 261.205791 -313.036893 
L 261.712197 -315.927695 
L 262.154121 -318.818497 
L 262.529035 -321.709299 
L 262.838054 -324.600101 
L 263.086037 -327.490903 
L 263.280975 -330.381704 
L 263.432851 -333.272506 
L 263.552259 -336.163308 
L 263.649084 -339.05411 
L 263.731482 -341.944912 
L 263.805309 -344.835713 
L 263.87402 -347.726515 
L 263.938964 -350.617317 
L 263.999958 -353.508119 
L 264.055962 -356.398921 
L 264.105714 -359.289723 
L 264.148214 -362.180524 
L 264.183005 -365.071326 
L 264.210248 -367.962128 
L 264.230633 -370.85293 
L 264.2452 -373.743732 
L 264.255138 -376.634534 
L 264.286509 -376.634534 
L 264.286509 -376.634534 
L 264.296447 -373.743732 
L 264.311014 -370.85293 
L 264.331398 -367.962128 
L 264.358641 -365.071326 
L 264.393433 -362.180524 
L 264.435933 -359.289723 
L 264.485684 -356.398921 
L 264.541688 -353.508119 
L 264.602683 -350.617317 
L 264.667627 -347.726515 
L 264.736337 -344.835713 
L 264.810165 -341.944912 
L 264.892563 -339.05411 
L 264.989388 -336.163308 
L 265.108796 -333.272506 
L 265.260672 -330.381704 
L 265.45561 -327.490903 
L 265.703593 -324.600101 
L 266.012611 -321.709299 
L 266.387525 -318.818497 
L 266.82945 -315.927695 
L 267.335856 -313.036893 
L 267.901374 -310.146092 
L 268.519098 -307.25529 
L 269.181988 -304.364488 
L 269.883924 -301.473686 
L 270.620048 -298.582884 
L 271.386249 -295.692082 
L 272.17794 -292.801281 
L 272.988571 -289.910479 
L 273.808378 -287.019677 
L 274.623858 -284.128875 
L 275.418171 -281.238073 
L 276.172395 -278.347271 
L 276.867267 -275.45647 
L 277.484927 -272.565668 
L 278.010274 -269.674866 
L 278.431685 -266.784064 
L 278.741131 -263.893262 
L 278.933872 -261.00246 
L 279.007984 -258.111659 
L 278.963913 -255.220857 
L 278.804152 -252.330055 
L 278.533055 -249.439253 
L 278.156745 -246.548451 
L 277.683125 -243.65765 
L 277.121983 -240.766848 
L 276.485208 -237.876046 
L 275.787038 -234.985244 
L 275.044194 -232.094442 
L 274.275713 -229.20364 
L 273.502303 -226.312839 
L 272.745228 -223.422037 
L 272.024869 -220.531235 
L 271.359286 -217.640433 
L 270.763161 -214.749631 
L 270.247369 -211.858829 
L 269.819259 -208.968028 
L 269.483393 -206.077226 
L 269.242354 -203.186424 
L 269.097107 -200.295622 
L 269.046586 -197.40482 
L 269.086432 -194.514018 
L 269.207233 -191.623217 
L 269.392937 -188.732415 
L 269.620291 -185.841613 
L 269.860001 -182.950811 
L 270.079903 -180.060009 
L 270.249803 -177.169208 
L 270.347052 -174.278406 
L 270.361603 -171.387604 
L 270.299351 -168.496802 
L 270.183051 -165.606 
L 270.050752 -162.715198 
L 269.95223 -159.824397 
L 269.944106 -156.933595 
L 270.084116 -154.042793 
L 270.424622 -151.151991 
L 271.005158 -148.261189 
L 271.843996 -145.370387 
L 272.929447 -142.479586 
L 274.212634 -139.588784 
L 275.604387 -136.697982 
L 276.979017 -133.80718 
L 278.186699 -130.916378 
L 279.074023 -128.025576 
L 279.509504 -125.134775 
L 279.408497 -122.243973 
L 278.751087 -119.353171 
L 277.587718 -116.462369 
L 276.030526 -113.571567 
L 274.232328 -110.680765 
L 272.358773 -107.789964 
L 270.560787 -104.899162 
L 268.953699 -102.00836 
L 267.60684 -99.117558 
L 266.54394 -96.226756 
L 265.751789 -93.335955 
L 265.193119 -90.445153 
z
" id="m10172adb78" style="stroke:#373737;stroke-width:1.5;"/>
    </defs>
    <g clip-path="url(#p52c866ff0c)">
     <use style="fill:#be631d;stroke:#373737;stroke-width:1.5;" x="0" xlink:href="#m10172adb78" y="540.169"/>
    </g>
   </g>
   <g id="PolyCollection_5">
    <defs>
     <path d="M 333.136136 -95.223378 
L 331.240797 -95.223378 
L 330.711286 -97.356045 
L 329.96705 -99.488711 
L 328.964379 -101.621377 
L 327.670437 -103.754043 
L 326.07243 -105.88671 
L 324.186135 -108.019376 
L 322.061619 -110.152042 
L 319.784105 -112.284708 
L 317.468708 -114.417374 
L 315.249097 -116.550041 
L 313.261666 -118.682707 
L 311.62804 -120.815373 
L 310.439327 -122.948039 
L 309.745135 -125.080705 
L 309.549252 -127.213372 
L 309.812306 -129.346038 
L 310.460212 -131.478704 
L 311.396267 -133.61137 
L 312.514443 -135.744036 
L 313.711757 -137.876703 
L 314.89828 -140.009369 
L 316.004034 -142.142035 
L 316.982565 -144.274701 
L 317.811321 -146.407368 
L 318.489131 -148.540034 
L 319.031281 -150.6727 
L 319.462917 -152.805366 
L 319.81178 -154.938032 
L 320.101479 -157.070699 
L 320.346522 -159.203365 
L 320.550057 -161.336031 
L 320.704756 -163.468697 
L 320.796553 -165.601363 
L 320.81032 -167.73403 
L 320.736026 -169.866696 
L 320.573809 -171.999362 
L 320.33664 -174.132028 
L 320.049828 -176.264694 
L 319.747438 -178.397361 
L 319.466479 -180.530027 
L 319.240284 -182.662693 
L 319.092692 -184.795359 
L 319.034406 -186.928026 
L 319.062271 -189.060692 
L 319.161477 -191.193358 
L 319.30992 -193.326024 
L 319.483513 -195.45869 
L 319.661143 -197.591357 
L 319.828198 -199.724023 
L 319.978125 -201.856689 
L 320.112014 -203.989355 
L 320.236689 -206.122021 
L 320.362044 -208.254688 
L 320.498383 -210.387354 
L 320.65434 -212.52002 
L 320.835708 -214.652686 
L 321.045192 -216.785352 
L 321.282916 -218.918019 
L 321.547339 -221.050685 
L 321.836269 -223.183351 
L 322.14767 -225.316017 
L 322.480101 -227.448684 
L 322.83273 -229.58135 
L 323.205011 -231.714016 
L 323.596161 -233.846682 
L 324.004672 -235.979348 
L 324.428001 -238.112015 
L 324.862568 -240.244681 
L 325.304059 -242.377347 
L 325.747926 -244.510013 
L 326.189907 -246.642679 
L 326.626412 -248.775346 
L 327.054633 -250.908012 
L 327.472392 -253.040678 
L 327.87781 -255.173344 
L 328.268971 -257.30601 
L 328.643727 -259.438677 
L 328.999736 -261.571343 
L 329.334716 -263.704009 
L 329.64682 -265.836675 
L 329.934976 -267.969342 
L 330.19908 -270.102008 
L 330.439978 -272.234674 
L 330.659251 -274.36734 
L 330.858877 -276.500006 
L 331.040861 -278.632673 
L 331.206931 -280.765339 
L 331.358348 -282.898005 
L 331.495844 -285.030671 
L 331.619692 -287.163337 
L 331.729868 -289.296004 
L 331.82625 -291.42867 
L 331.908831 -293.561336 
L 331.977887 -295.694002 
L 332.034075 -297.826669 
L 332.078443 -299.959335 
L 332.112374 -302.092001 
L 332.13746 -304.224667 
L 332.155367 -306.357333 
L 332.221567 -306.357333 
L 332.221567 -306.357333 
L 332.239474 -304.224667 
L 332.26456 -302.092001 
L 332.29849 -299.959335 
L 332.342859 -297.826669 
L 332.399047 -295.694002 
L 332.468103 -293.561336 
L 332.550684 -291.42867 
L 332.647066 -289.296004 
L 332.757241 -287.163337 
L 332.88109 -285.030671 
L 333.018586 -282.898005 
L 333.170002 -280.765339 
L 333.336073 -278.632673 
L 333.518057 -276.500006 
L 333.717682 -274.36734 
L 333.936956 -272.234674 
L 334.177854 -270.102008 
L 334.441958 -267.969342 
L 334.730114 -265.836675 
L 335.042218 -263.704009 
L 335.377198 -261.571343 
L 335.733207 -259.438677 
L 336.107963 -257.30601 
L 336.499124 -255.173344 
L 336.904542 -253.040678 
L 337.322301 -250.908012 
L 337.750522 -248.775346 
L 338.187027 -246.642679 
L 338.629008 -244.510013 
L 339.072874 -242.377347 
L 339.514366 -240.244681 
L 339.948933 -238.112015 
L 340.372261 -235.979348 
L 340.780773 -233.846682 
L 341.171923 -231.714016 
L 341.544203 -229.58135 
L 341.896833 -227.448684 
L 342.229264 -225.316017 
L 342.540665 -223.183351 
L 342.829595 -221.050685 
L 343.094018 -218.918019 
L 343.331741 -216.785352 
L 343.541226 -214.652686 
L 343.722593 -212.52002 
L 343.878551 -210.387354 
L 344.01489 -208.254688 
L 344.140245 -206.122021 
L 344.26492 -203.989355 
L 344.398808 -201.856689 
L 344.548736 -199.724023 
L 344.715791 -197.591357 
L 344.893421 -195.45869 
L 345.067014 -193.326024 
L 345.215457 -191.193358 
L 345.314663 -189.060692 
L 345.342528 -186.928026 
L 345.284241 -184.795359 
L 345.13665 -182.662693 
L 344.910455 -180.530027 
L 344.629496 -178.397361 
L 344.327106 -176.264694 
L 344.040294 -174.132028 
L 343.803125 -171.999362 
L 343.640908 -169.866696 
L 343.566614 -167.73403 
L 343.580381 -165.601363 
L 343.672178 -163.468697 
L 343.826876 -161.336031 
L 344.030412 -159.203365 
L 344.275454 -157.070699 
L 344.565154 -154.938032 
L 344.914017 -152.805366 
L 345.345653 -150.6727 
L 345.887803 -148.540034 
L 346.565612 -146.407368 
L 347.394368 -144.274701 
L 348.3729 -142.142035 
L 349.478653 -140.009369 
L 350.665177 -137.876703 
L 351.862491 -135.744036 
L 352.980667 -133.61137 
L 353.916722 -131.478704 
L 354.564628 -129.346038 
L 354.827681 -127.213372 
L 354.631799 -125.080705 
L 353.937607 -122.948039 
L 352.748894 -120.815373 
L 351.115268 -118.682707 
L 349.127836 -116.550041 
L 346.908226 -114.417374 
L 344.592829 -112.284708 
L 342.315315 -110.152042 
L 340.190799 -108.019376 
L 338.304504 -105.88671 
L 336.706497 -103.754043 
L 335.412555 -101.621377 
L 334.409884 -99.488711 
L 333.665648 -97.356045 
L 333.136136 -95.223378 
z
" id="mef898cd058" style="stroke:#373737;stroke-width:1.5;"/>
    </defs>
    <g clip-path="url(#p52c866ff0c)">
     <use style="fill:#2b8e70;stroke:#373737;stroke-width:1.5;" x="0" xlink:href="#mef898cd058" y="540.169"/>
    </g>
   </g>
   <g id="PolyCollection_6">
    <defs>
     <path d="M 378.396179 -89.745691 
L 376.537612 -89.745691 
L 375.984548 -92.684802 
L 375.205708 -95.623913 
L 374.167596 -98.563024 
L 372.860657 -101.502136 
L 371.311065 -104.441247 
L 369.588013 -107.380358 
L 367.802755 -110.319469 
L 366.097288 -113.258581 
L 364.6235 -116.197692 
L 363.516929 -119.136803 
L 362.871641 -122.075915 
L 362.72306 -125.015026 
L 363.043477 -127.954137 
L 363.75115 -130.893248 
L 364.729797 -133.83236 
L 365.852501 -136.771471 
L 367.003477 -139.710582 
L 368.092799 -142.649693 
L 369.062142 -145.588805 
L 369.882558 -148.527916 
L 370.547235 -151.467027 
L 371.062743 -154.406139 
L 371.441555 -157.34525 
L 371.697316 -160.284361 
L 371.843022 -163.223472 
L 371.891378 -166.162584 
L 371.856162 -169.101695 
L 371.753525 -172.040806 
L 371.602391 -174.979917 
L 371.423581 -177.919029 
L 371.237719 -180.85814 
L 371.062379 -183.797251 
L 370.909216 -186.736363 
L 370.781897 -189.675474 
L 370.675502 -192.614585 
L 370.577673 -195.553696 
L 370.471322 -198.492808 
L 370.338267 -201.431919 
L 370.162918 -204.37103 
L 369.935138 -207.310141 
L 369.651679 -210.249253 
L 369.316006 -213.188364 
L 368.936784 -216.127475 
L 368.525691 -219.066587 
L 368.09534 -222.005698 
L 367.658011 -224.944809 
L 367.225492 -227.88392 
L 366.809899 -230.823032 
L 366.424856 -233.762143 
L 366.086274 -236.701254 
L 365.812033 -239.640365 
L 365.620352 -242.579477 
L 365.527104 -245.518588 
L 365.542825 -248.457699 
L 365.670308 -251.396811 
L 365.903505 -254.335922 
L 366.228067 -257.275033 
L 366.623356 -260.214144 
L 367.065378 -263.153256 
L 367.529959 -266.092367 
L 367.995519 -269.031478 
L 368.445043 -271.970589 
L 368.867083 -274.909701 
L 369.255855 -277.848812 
L 369.610606 -280.787923 
L 369.934497 -283.727035 
L 370.233226 -286.666146 
L 370.513647 -289.605257 
L 370.782569 -292.544368 
L 371.045906 -295.48348 
L 371.308266 -298.422591 
L 371.572948 -301.361702 
L 371.842258 -304.300813 
L 372.117944 -307.239925 
L 372.401596 -310.179036 
L 372.694856 -313.118147 
L 372.999378 -316.057259 
L 373.31656 -318.99637 
L 373.647104 -321.935481 
L 373.990513 -324.874592 
L 374.344638 -327.813704 
L 374.705399 -330.752815 
L 375.066804 -333.691926 
L 375.421305 -336.631038 
L 375.76052 -339.570149 
L 376.076174 -342.50926 
L 376.361119 -345.448371 
L 376.610195 -348.387483 
L 376.820757 -351.326594 
L 376.992783 -354.265705 
L 377.128569 -357.204816 
L 377.232136 -360.143928 
L 377.308497 -363.083039 
L 377.36296 -366.02215 
L 377.400565 -368.961262 
L 377.425723 -371.900373 
L 377.442041 -374.839484 
L 377.452309 -377.778595 
L 377.458578 -380.717707 
L 377.475214 -380.717707 
L 377.475214 -380.717707 
L 377.481483 -377.778595 
L 377.491751 -374.839484 
L 377.508069 -371.900373 
L 377.533226 -368.961262 
L 377.570832 -366.02215 
L 377.625295 -363.083039 
L 377.701656 -360.143928 
L 377.805223 -357.204816 
L 377.941009 -354.265705 
L 378.113035 -351.326594 
L 378.323597 -348.387483 
L 378.572673 -345.448371 
L 378.857618 -342.50926 
L 379.173272 -339.570149 
L 379.512486 -336.631038 
L 379.866988 -333.691926 
L 380.228393 -330.752815 
L 380.589154 -327.813704 
L 380.943279 -324.874592 
L 381.286688 -321.935481 
L 381.617232 -318.99637 
L 381.934414 -316.057259 
L 382.238936 -313.118147 
L 382.532196 -310.179036 
L 382.815848 -307.239925 
L 383.091534 -304.300813 
L 383.360844 -301.361702 
L 383.625526 -298.422591 
L 383.887886 -295.48348 
L 384.151223 -292.544368 
L 384.420145 -289.605257 
L 384.700566 -286.666146 
L 384.999295 -283.727035 
L 385.323186 -280.787923 
L 385.677937 -277.848812 
L 386.066709 -274.909701 
L 386.488749 -271.970589 
L 386.938273 -269.031478 
L 387.403833 -266.092367 
L 387.868414 -263.153256 
L 388.310436 -260.214144 
L 388.705725 -257.275033 
L 389.030287 -254.335922 
L 389.263484 -251.396811 
L 389.390966 -248.457699 
L 389.406688 -245.518588 
L 389.31344 -242.579477 
L 389.121759 -239.640365 
L 388.847518 -236.701254 
L 388.508935 -233.762143 
L 388.123893 -230.823032 
L 387.7083 -227.88392 
L 387.275781 -224.944809 
L 386.838452 -222.005698 
L 386.408101 -219.066587 
L 385.997008 -216.127475 
L 385.617786 -213.188364 
L 385.282113 -210.249253 
L 384.998654 -207.310141 
L 384.770874 -204.37103 
L 384.595524 -201.431919 
L 384.46247 -198.492808 
L 384.356119 -195.553696 
L 384.25829 -192.614585 
L 384.151895 -189.675474 
L 384.024576 -186.736363 
L 383.871413 -183.797251 
L 383.696073 -180.85814 
L 383.510211 -177.919029 
L 383.331401 -174.979917 
L 383.180267 -172.040806 
L 383.07763 -169.101695 
L 383.042414 -166.162584 
L 383.09077 -163.223472 
L 383.236476 -160.284361 
L 383.492237 -157.34525 
L 383.871049 -154.406139 
L 384.386557 -151.467027 
L 385.051234 -148.527916 
L 385.87165 -145.588805 
L 386.840993 -142.649693 
L 387.930315 -139.710582 
L 389.081291 -136.771471 
L 390.203995 -133.83236 
L 391.182642 -130.893248 
L 391.890315 -127.954137 
L 392.210732 -125.015026 
L 392.062151 -122.075915 
L 391.416863 -119.136803 
L 390.310292 -116.197692 
L 388.836504 -113.258581 
L 387.131036 -110.319469 
L 385.345779 -107.380358 
L 383.622727 -104.441247 
L 382.073135 -101.502136 
L 380.766196 -98.563024 
L 379.728084 -95.623913 
L 378.949244 -92.684802 
L 378.396179 -89.745691 
z
" id="m0477d70f3f" style="stroke:#373737;stroke-width:1.5;"/>
    </defs>
    <g clip-path="url(#p52c866ff0c)">
     <use style="fill:#be631d;stroke:#373737;stroke-width:1.5;" x="0" xlink:href="#m0477d70f3f" y="540.169"/>
    </g>
   </g>
   <g id="PolyCollection_7">
    <defs>
     <path d="M 445.728948 -87.324822 
L 445.040131 -87.324822 
L 444.84487 -90.014995 
L 444.562095 -92.705168 
L 444.165219 -95.395341 
L 443.625475 -98.085514 
L 442.914364 -100.775687 
L 442.006998 -103.46586 
L 440.886115 -106.156033 
L 439.546232 -108.846206 
L 437.997299 -111.536379 
L 436.267081 -114.226552 
L 434.401605 -116.916725 
L 432.463267 -119.606898 
L 430.526552 -122.297071 
L 428.6718 -124.987244 
L 426.977821 -127.677417 
L 425.514437 -130.36759 
L 424.336035 -133.057763 
L 423.477052 -135.747936 
L 422.949888 -138.43811 
L 422.745325 -141.128283 
L 422.835071 -143.818456 
L 423.175733 -146.508629 
L 423.713438 -149.198802 
L 424.388353 -151.888975 
L 425.138638 -154.579148 
L 425.903608 -157.269321 
L 426.626222 -159.959494 
L 427.255137 -162.649667 
L 427.746678 -165.33984 
L 428.066906 -168.030013 
L 428.193818 -170.720186 
L 428.119436 -173.410359 
L 427.85137 -176.100532 
L 427.413357 -178.790705 
L 426.844334 -181.480878 
L 426.19583 -184.171051 
L 425.527766 -186.861224 
L 424.903053 -189.551397 
L 424.381688 -192.24157 
L 424.015132 -194.931743 
L 423.841766 -197.621916 
L 423.883979 -200.312089 
L 424.147189 -203.002262 
L 424.620722 -205.692435 
L 425.280218 -208.382608 
L 426.09103 -211.072781 
L 427.01207 -213.762954 
L 427.999592 -216.453127 
L 429.010577 -219.1433 
L 430.005516 -221.833473 
L 430.950543 -224.523647 
L 431.81892 -227.21382 
L 432.591909 -229.903993 
L 433.259088 -232.594166 
L 433.818122 -235.284339 
L 434.274033 -237.974512 
L 434.638036 -240.664685 
L 434.926014 -243.354858 
L 435.156756 -246.045031 
L 435.350081 -248.735204 
L 435.524998 -251.425377 
L 435.698053 -254.11555 
L 435.882017 -256.805723 
L 436.085083 -259.495896 
L 436.310683 -262.186069 
L 436.557998 -264.876242 
L 436.823094 -267.566415 
L 437.100517 -270.256588 
L 437.385037 -272.946761 
L 437.673195 -275.636934 
L 437.964298 -278.327107 
L 438.260645 -281.01728 
L 438.566952 -283.707453 
L 438.889112 -286.397626 
L 439.232633 -289.087799 
L 439.601129 -291.777972 
L 439.995228 -294.468145 
L 440.412129 -297.158318 
L 440.845861 -299.848491 
L 441.288119 -302.538664 
L 441.729438 -305.228837 
L 442.160415 -307.91901 
L 442.57273 -310.609184 
L 442.959803 -313.299357 
L 443.317049 -315.98953 
L 443.641799 -318.679703 
L 443.93298 -321.369876 
L 444.190724 -324.060049 
L 444.415993 -326.750222 
L 444.610289 -329.440395 
L 444.77548 -332.130568 
L 444.913707 -334.820741 
L 445.027339 -337.510914 
L 445.118942 -340.201087 
L 445.191226 -342.89126 
L 445.246968 -345.581433 
L 445.288916 -348.271606 
L 445.319682 -350.961779 
L 445.34165 -353.651952 
L 445.427429 -353.651952 
L 445.427429 -353.651952 
L 445.449397 -350.961779 
L 445.480163 -348.271606 
L 445.522111 -345.581433 
L 445.577853 -342.89126 
L 445.650137 -340.201087 
L 445.74174 -337.510914 
L 445.855372 -334.820741 
L 445.993599 -332.130568 
L 446.15879 -329.440395 
L 446.353086 -326.750222 
L 446.578355 -324.060049 
L 446.836099 -321.369876 
L 447.12728 -318.679703 
L 447.452029 -315.98953 
L 447.809276 -313.299357 
L 448.196348 -310.609184 
L 448.608664 -307.91901 
L 449.039641 -305.228837 
L 449.48096 -302.538664 
L 449.923218 -299.848491 
L 450.35695 -297.158318 
L 450.773851 -294.468145 
L 451.16795 -291.777972 
L 451.536446 -289.087799 
L 451.879967 -286.397626 
L 452.202127 -283.707453 
L 452.508434 -281.01728 
L 452.804781 -278.327107 
L 453.095884 -275.636934 
L 453.384042 -272.946761 
L 453.668562 -270.256588 
L 453.945984 -267.566415 
L 454.21108 -264.876242 
L 454.458396 -262.186069 
L 454.683996 -259.495896 
L 454.887062 -256.805723 
L 455.071026 -254.11555 
L 455.244081 -251.425377 
L 455.418998 -248.735204 
L 455.612323 -246.045031 
L 455.843065 -243.354858 
L 456.131043 -240.664685 
L 456.495046 -237.974512 
L 456.950957 -235.284339 
L 457.509991 -232.594166 
L 458.17717 -229.903993 
L 458.950159 -227.21382 
L 459.818536 -224.523647 
L 460.763563 -221.833473 
L 461.758502 -219.1433 
L 462.769487 -216.453127 
L 463.757009 -213.762954 
L 464.678049 -211.072781 
L 465.488861 -208.382608 
L 466.148357 -205.692435 
L 466.62189 -203.002262 
L 466.8851 -200.312089 
L 466.927313 -197.621916 
L 466.753947 -194.931743 
L 466.387391 -192.24157 
L 465.866026 -189.551397 
L 465.241313 -186.861224 
L 464.573249 -184.171051 
L 463.924745 -181.480878 
L 463.355722 -178.790705 
L 462.917708 -176.100532 
L 462.649643 -173.410359 
L 462.575261 -170.720186 
L 462.702173 -168.030013 
L 463.022401 -165.33984 
L 463.513942 -162.649667 
L 464.142857 -159.959494 
L 464.865471 -157.269321 
L 465.630441 -154.579148 
L 466.380726 -151.888975 
L 467.055641 -149.198802 
L 467.593346 -146.508629 
L 467.934008 -143.818456 
L 468.023754 -141.128283 
L 467.819191 -138.43811 
L 467.292027 -135.747936 
L 466.433044 -133.057763 
L 465.254642 -130.36759 
L 463.791258 -127.677417 
L 462.097279 -124.987244 
L 460.242526 -122.297071 
L 458.305812 -119.606898 
L 456.367474 -116.916725 
L 454.501998 -114.226552 
L 452.77178 -111.536379 
L 451.222847 -108.846206 
L 449.882964 -106.156033 
L 448.76208 -103.46586 
L 447.854715 -100.775687 
L 447.143604 -98.085514 
L 446.60386 -95.395341 
L 446.206984 -92.705168 
L 445.924209 -90.014995 
L 445.728948 -87.324822 
z
" id="mec9ec92e8e" style="stroke:#373737;stroke-width:1.5;"/>
    </defs>
    <g clip-path="url(#p52c866ff0c)">
     <use style="fill:#2b8e70;stroke:#373737;stroke-width:1.5;" x="0" xlink:href="#mec9ec92e8e" y="540.169"/>
    </g>
   </g>
   <g id="PolyCollection_8">
    <defs>
     <path d="M 491.228321 -69.533364 
L 490.097616 -69.533364 
L 489.823927 -73.991619 
L 489.454055 -78.449874 
L 488.971552 -82.908129 
L 488.364382 -87.366385 
L 487.627983 -91.82464 
L 486.768108 -96.282895 
L 485.802832 -100.741151 
L 484.763115 -105.199406 
L 483.691478 -109.657661 
L 482.638708 -114.115916 
L 481.658878 -118.574172 
L 480.803416 -123.032427 
L 480.115183 -127.490682 
L 479.623629 -131.948938 
L 479.341877 -136.407193 
L 479.266208 -140.865448 
L 479.377919 -145.323703 
L 479.647042 -149.781959 
L 480.037097 -154.240214 
L 480.509917 -158.698469 
L 481.029728 -163.156725 
L 481.565906 -167.61498 
L 482.094247 -172.073235 
L 482.596894 -176.53149 
L 483.061315 -180.989746 
L 483.478856 -185.448001 
L 483.843316 -189.906256 
L 484.149897 -194.364511 
L 484.39467 -198.822767 
L 484.574528 -203.281022 
L 484.68747 -207.739277 
L 484.732988 -212.197533 
L 484.71236 -216.655788 
L 484.6287 -221.114043 
L 484.486752 -225.572298 
L 484.292461 -230.030554 
L 484.052485 -234.488809 
L 483.773764 -238.947064 
L 483.463301 -243.40532 
L 483.128191 -247.863575 
L 482.775882 -252.32183 
L 482.414561 -256.780085 
L 482.053508 -261.238341 
L 481.703256 -265.696596 
L 481.375444 -270.154851 
L 481.082315 -274.613107 
L 480.835904 -279.071362 
L 480.647048 -283.529617 
L 480.524367 -287.987872 
L 480.473389 -292.446128 
L 480.495932 -296.904383 
L 480.589803 -301.362638 
L 480.748801 -305.820893 
L 480.962998 -310.279149 
L 481.219227 -314.737404 
L 481.501768 -319.195659 
L 481.793195 -323.653915 
L 482.075417 -328.11217 
L 482.330908 -332.570425 
L 482.54408 -337.02868 
L 482.702732 -341.486936 
L 482.799399 -345.945191 
L 482.832431 -350.403446 
L 482.806588 -354.861702 
L 482.732999 -359.319957 
L 482.628381 -363.778212 
L 482.513562 -368.236467 
L 482.411418 -372.694723 
L 482.344481 -377.152978 
L 482.332522 -381.611233 
L 482.39044 -386.069489 
L 482.526764 -390.527744 
L 482.742975 -394.985999 
L 483.03374 -399.444254 
L 483.388012 -403.90251 
L 483.790798 -408.360765 
L 484.225306 -412.81902 
L 484.675139 -417.277275 
L 485.126172 -421.735531 
L 485.567859 -426.193786 
L 485.993799 -430.652041 
L 486.401536 -435.110297 
L 486.791714 -439.568552 
L 487.166805 -444.026807 
L 487.52971 -448.485062 
L 487.882518 -452.943318 
L 488.225656 -457.401573 
L 488.557557 -461.859828 
L 488.874857 -466.318084 
L 489.173012 -470.776339 
L 489.447143 -475.234594 
L 489.692913 -479.692849 
L 489.907239 -484.151105 
L 490.088729 -488.60936 
L 490.237788 -493.067615 
L 490.356437 -497.525871 
L 490.447926 -501.984126 
L 490.516245 -506.442381 
L 490.565646 -510.900636 
L 490.760291 -510.900636 
L 490.760291 -510.900636 
L 490.809692 -506.442381 
L 490.878011 -501.984126 
L 490.9695 -497.525871 
L 491.088149 -493.067615 
L 491.237208 -488.60936 
L 491.418698 -484.151105 
L 491.633024 -479.692849 
L 491.878794 -475.234594 
L 492.152925 -470.776339 
L 492.45108 -466.318084 
L 492.76838 -461.859828 
L 493.100281 -457.401573 
L 493.443419 -452.943318 
L 493.796227 -448.485062 
L 494.159132 -444.026807 
L 494.534223 -439.568552 
L 494.924401 -435.110297 
L 495.332138 -430.652041 
L 495.758078 -426.193786 
L 496.199765 -421.735531 
L 496.650798 -417.277275 
L 497.100631 -412.81902 
L 497.535139 -408.360765 
L 497.937925 -403.90251 
L 498.292197 -399.444254 
L 498.582962 -394.985999 
L 498.799173 -390.527744 
L 498.935497 -386.069489 
L 498.993415 -381.611233 
L 498.981456 -377.152978 
L 498.914519 -372.694723 
L 498.812375 -368.236467 
L 498.697556 -363.778212 
L 498.592938 -359.319957 
L 498.519349 -354.861702 
L 498.493506 -350.403446 
L 498.526538 -345.945191 
L 498.623205 -341.486936 
L 498.781857 -337.02868 
L 498.995029 -332.570425 
L 499.25052 -328.11217 
L 499.532742 -323.653915 
L 499.824169 -319.195659 
L 500.10671 -314.737404 
L 500.362939 -310.279149 
L 500.577136 -305.820893 
L 500.736134 -301.362638 
L 500.830005 -296.904383 
L 500.852548 -292.446128 
L 500.80157 -287.987872 
L 500.678889 -283.529617 
L 500.490033 -279.071362 
L 500.243622 -274.613107 
L 499.950493 -270.154851 
L 499.622681 -265.696596 
L 499.272429 -261.238341 
L 498.911376 -256.780085 
L 498.550055 -252.32183 
L 498.197746 -247.863575 
L 497.862636 -243.40532 
L 497.552173 -238.947064 
L 497.273452 -234.488809 
L 497.033476 -230.030554 
L 496.839185 -225.572298 
L 496.697237 -221.114043 
L 496.613577 -216.655788 
L 496.592949 -212.197533 
L 496.638467 -207.739277 
L 496.751409 -203.281022 
L 496.931267 -198.822767 
L 497.17604 -194.364511 
L 497.482621 -189.906256 
L 497.847081 -185.448001 
L 498.264622 -180.989746 
L 498.729043 -176.53149 
L 499.23169 -172.073235 
L 499.760031 -167.61498 
L 500.296209 -163.156725 
L 500.81602 -158.698469 
L 501.28884 -154.240214 
L 501.678895 -149.781959 
L 501.948018 -145.323703 
L 502.059729 -140.865448 
L 501.98406 -136.407193 
L 501.702308 -131.948938 
L 501.210754 -127.490682 
L 500.522521 -123.032427 
L 499.667059 -118.574172 
L 498.687229 -114.115916 
L 497.634459 -109.657661 
L 496.562822 -105.199406 
L 495.523105 -100.741151 
L 494.557829 -96.282895 
L 493.697954 -91.82464 
L 492.961555 -87.366385 
L 492.354385 -82.908129 
L 491.871882 -78.449874 
L 491.50201 -73.991619 
L 491.228321 -69.533364 
z
" id="m50b4de1ff1" style="stroke:#373737;stroke-width:1.5;"/>
    </defs>
    <g clip-path="url(#p52c866ff0c)">
     <use style="fill:#be631d;stroke:#373737;stroke-width:1.5;" x="0" xlink:href="#m50b4de1ff1" y="540.169"/>
    </g>
   </g>
   <g id="PolyCollection_9">
    <defs>
     <path d="M 559.606624 -103.032554 
L 557.5546 -103.032554 
L 557.102016 -104.148104 
L 556.500892 -105.263654 
L 555.725028 -106.379204 
L 554.752326 -107.494754 
L 553.568439 -108.610304 
L 552.170552 -109.725854 
L 550.570739 -110.841404 
L 548.798284 -111.956954 
L 546.900361 -113.072504 
L 544.940657 -114.188054 
L 542.995777 -115.303603 
L 541.149627 -116.419153 
L 539.486341 -117.534703 
L 538.082599 -118.650253 
L 537.000349 -119.765803 
L 536.28093 -120.881353 
L 535.941398 -121.996903 
L 535.97352 -123.112453 
L 536.345499 -124.228003 
L 537.006081 -125.343553 
L 537.890396 -126.459103 
L 538.926681 -127.574653 
L 540.043013 -128.690203 
L 541.173278 -129.805753 
L 542.261781 -130.921303 
L 543.26619 -132.036853 
L 544.158704 -133.152403 
L 544.925601 -134.267953 
L 545.565454 -135.383503 
L 546.086409 -136.499053 
L 546.502992 -137.614602 
L 546.832861 -138.730152 
L 547.093909 -139.845702 
L 547.301991 -140.961252 
L 547.46949 -142.076802 
L 547.604733 -143.192352 
L 547.712221 -144.307902 
L 547.793468 -145.423452 
L 547.848206 -146.539002 
L 547.875699 -147.654552 
L 547.875885 -148.770102 
L 547.85019 -149.885652 
L 547.801882 -151.001202 
L 547.735964 -152.116752 
L 547.658674 -153.232302 
L 547.576703 -154.347852 
L 547.496294 -155.463402 
L 547.42237 -156.578952 
L 547.357824 -157.694502 
L 547.30308 -158.810052 
L 547.255977 -159.925601 
L 547.212014 -161.041151 
L 547.164921 -162.156701 
L 547.107522 -163.272251 
L 547.032783 -164.387801 
L 546.934937 -165.503351 
L 546.81054 -166.618901 
L 546.659328 -167.734451 
L 546.484744 -168.850001 
L 546.294052 -169.965551 
L 546.098002 -171.081101 
L 545.910093 -172.196651 
L 545.745505 -173.312201 
L 545.619847 -174.427751 
L 545.547878 -175.543301 
L 545.542337 -176.658851 
L 545.61302 -177.774401 
L 545.766155 -178.889951 
L 546.004125 -180.005501 
L 546.325503 -181.121051 
L 546.725372 -182.2366 
L 547.195847 -183.35215 
L 547.726759 -184.4677 
L 548.306422 -185.58325 
L 548.922426 -186.6988 
L 549.562402 -187.81435 
L 550.21471 -188.9299 
L 550.868975 -190.04545 
L 551.516455 -191.161 
L 552.150186 -192.27655 
L 552.764928 -193.3921 
L 553.356912 -194.50765 
L 553.923472 -195.6232 
L 554.462616 -196.73875 
L 554.972639 -197.8543 
L 555.451828 -198.96985 
L 555.898328 -200.0854 
L 556.310168 -201.20095 
L 556.685431 -202.3165 
L 557.022514 -203.43205 
L 557.320413 -204.547599 
L 557.578966 -205.663149 
L 557.799003 -206.778699 
L 557.98237 -207.894249 
L 558.131838 -209.009799 
L 558.2509 -210.125349 
L 558.343516 -211.240899 
L 558.413827 -212.356449 
L 558.465896 -213.471999 
L 558.695328 -213.471999 
L 558.695328 -213.471999 
L 558.747397 -212.356449 
L 558.817708 -211.240899 
L 558.910324 -210.125349 
L 559.029387 -209.009799 
L 559.178854 -207.894249 
L 559.362222 -206.778699 
L 559.582258 -205.663149 
L 559.840811 -204.547599 
L 560.13871 -203.43205 
L 560.475793 -202.3165 
L 560.851056 -201.20095 
L 561.262896 -200.0854 
L 561.709396 -198.96985 
L 562.188585 -197.8543 
L 562.698608 -196.73875 
L 563.237752 -195.6232 
L 563.804312 -194.50765 
L 564.396296 -193.3921 
L 565.011038 -192.27655 
L 565.64477 -191.161 
L 566.292249 -190.04545 
L 566.946514 -188.9299 
L 567.598822 -187.81435 
L 568.238798 -186.6988 
L 568.854802 -185.58325 
L 569.434465 -184.4677 
L 569.965377 -183.35215 
L 570.435852 -182.2366 
L 570.835721 -181.121051 
L 571.157099 -180.005501 
L 571.395069 -178.889951 
L 571.548204 -177.774401 
L 571.618887 -176.658851 
L 571.613347 -175.543301 
L 571.541377 -174.427751 
L 571.41572 -173.312201 
L 571.251131 -172.196651 
L 571.063222 -171.081101 
L 570.867172 -169.965551 
L 570.67648 -168.850001 
L 570.501896 -167.734451 
L 570.350684 -166.618901 
L 570.226287 -165.503351 
L 570.128441 -164.387801 
L 570.053702 -163.272251 
L 569.996304 -162.156701 
L 569.949211 -161.041151 
L 569.905247 -159.925601 
L 569.858145 -158.810052 
L 569.8034 -157.694502 
L 569.738855 -156.578952 
L 569.66493 -155.463402 
L 569.584521 -154.347852 
L 569.50255 -153.232302 
L 569.42526 -152.116752 
L 569.359342 -151.001202 
L 569.311034 -149.885652 
L 569.285339 -148.770102 
L 569.285525 -147.654552 
L 569.313018 -146.539002 
L 569.367756 -145.423452 
L 569.449003 -144.307902 
L 569.556491 -143.192352 
L 569.691735 -142.076802 
L 569.859233 -140.961252 
L 570.067315 -139.845702 
L 570.328363 -138.730152 
L 570.658233 -137.614602 
L 571.074816 -136.499053 
L 571.595771 -135.383503 
L 572.235623 -134.267953 
L 573.00252 -133.152403 
L 573.895034 -132.036853 
L 574.899443 -130.921303 
L 575.987946 -129.805753 
L 577.118211 -128.690203 
L 578.234543 -127.574653 
L 579.270828 -126.459103 
L 580.155143 -125.343553 
L 580.815725 -124.228003 
L 581.187704 -123.112453 
L 581.219827 -121.996903 
L 580.880294 -120.881353 
L 580.160875 -119.765803 
L 579.078625 -118.650253 
L 577.674883 -117.534703 
L 576.011598 -116.419153 
L 574.165447 -115.303603 
L 572.220567 -114.188054 
L 570.260863 -113.072504 
L 568.36294 -111.956954 
L 566.590485 -110.841404 
L 564.990672 -109.725854 
L 563.592785 -108.610304 
L 562.408899 -107.494754 
L 561.436196 -106.379204 
L 560.660332 -105.263654 
L 560.059209 -104.148104 
L 559.606624 -103.032554 
z
" id="m9ea92cf5f5" style="stroke:#373737;stroke-width:1.5;"/>
    </defs>
    <g clip-path="url(#p52c866ff0c)">
     <use style="fill:#2b8e70;stroke:#373737;stroke-width:1.5;" x="0" xlink:href="#m9ea92cf5f5" y="540.169"/>
    </g>
   </g>
   <g id="PolyCollection_10">
    <defs>
     <path d="M 604.727806 -98.24041 
L 602.990276 -98.24041 
L 602.500638 -100.15588 
L 601.821072 -102.071349 
L 600.924782 -103.986819 
L 599.80357 -105.902289 
L 598.476807 -107.817758 
L 596.997312 -109.733228 
L 595.451434 -111.648698 
L 593.951613 -113.564167 
L 592.621577 -115.479637 
L 591.57662 -117.395107 
L 590.903264 -119.310577 
L 590.64335 -121.226046 
L 590.786749 -123.141516 
L 591.274631 -125.056986 
L 592.012389 -126.972455 
L 592.888754 -128.887925 
L 593.79627 -130.803395 
L 594.648377 -132.718864 
L 595.389777 -134.634334 
L 595.998847 -136.549804 
L 596.482927 -138.465273 
L 596.868808 -140.380743 
L 597.191402 -142.296213 
L 597.483362 -144.211683 
L 597.767651 -146.127152 
L 598.053991 -148.042622 
L 598.339059 -149.958092 
L 598.609539 -151.873561 
L 598.846733 -153.789031 
L 599.031413 -155.704501 
L 599.147876 -157.61997 
L 599.186539 -159.53544 
L 599.144828 -161.45091 
L 599.026441 -163.366379 
L 598.839306 -165.281849 
L 598.592758 -167.197319 
L 598.294572 -169.112789 
L 597.948588 -171.028258 
L 597.553554 -172.943728 
L 597.103643 -174.859198 
L 596.590699 -176.774667 
L 596.007877 -178.690137 
L 595.353888 -180.605607 
L 594.636879 -182.521076 
L 593.876926 -184.436546 
L 593.106359 -186.352016 
L 592.367587 -188.267485 
L 591.708603 -190.182955 
L 591.176905 -192.098425 
L 590.812919 -194.013895 
L 590.644214 -195.929364 
L 590.681623 -197.844834 
L 590.918038 -199.760304 
L 591.330017 -201.675773 
L 591.881798 -203.591243 
L 592.530786 -205.506713 
L 593.233373 -207.422182 
L 593.950014 -209.337652 
L 594.648793 -211.253122 
L 595.307161 -213.168591 
L 595.911994 -215.084061 
L 596.45843 -216.999531 
L 596.948079 -218.915001 
L 597.387144 -220.83047 
L 597.784768 -222.74594 
L 598.151694 -224.66141 
L 598.499158 -226.576879 
L 598.837845 -228.492349 
L 599.176832 -230.407819 
L 599.522543 -232.323288 
L 599.877888 -234.238758 
L 600.241801 -236.154228 
L 600.609341 -238.069697 
L 600.972413 -239.985167 
L 601.321003 -241.900637 
L 601.64473 -243.816106 
L 601.93442 -245.731576 
L 602.183473 -247.647046 
L 602.388795 -249.562516 
L 602.551195 -251.477985 
L 602.675191 -253.393455 
L 602.76828 -255.308925 
L 602.839803 -257.224394 
L 602.899568 -259.139864 
L 602.956486 -261.055334 
L 603.017428 -262.970803 
L 603.08651 -264.886273 
L 603.164889 -266.801743 
L 603.251077 -268.717212 
L 603.341658 -270.632682 
L 603.432215 -272.548152 
L 603.518284 -274.463622 
L 603.596115 -276.379091 
L 603.663164 -278.294561 
L 603.718258 -280.210031 
L 603.761487 -282.1255 
L 603.793904 -284.04097 
L 603.817153 -285.95644 
L 603.833108 -287.871909 
L 603.884974 -287.871909 
L 603.884974 -287.871909 
L 603.900929 -285.95644 
L 603.924178 -284.04097 
L 603.956595 -282.1255 
L 603.999824 -280.210031 
L 604.054918 -278.294561 
L 604.121967 -276.379091 
L 604.199798 -274.463622 
L 604.285867 -272.548152 
L 604.376425 -270.632682 
L 604.467005 -268.717212 
L 604.553193 -266.801743 
L 604.631572 -264.886273 
L 604.700654 -262.970803 
L 604.761596 -261.055334 
L 604.818514 -259.139864 
L 604.878279 -257.224394 
L 604.949802 -255.308925 
L 605.042892 -253.393455 
L 605.166887 -251.477985 
L 605.329287 -249.562516 
L 605.534609 -247.647046 
L 605.783662 -245.731576 
L 606.073352 -243.816106 
L 606.397079 -241.900637 
L 606.74567 -239.985167 
L 607.108741 -238.069697 
L 607.476281 -236.154228 
L 607.840194 -234.238758 
L 608.195539 -232.323288 
L 608.54125 -230.407819 
L 608.880237 -228.492349 
L 609.218925 -226.576879 
L 609.566388 -224.66141 
L 609.933315 -222.74594 
L 610.330938 -220.83047 
L 610.770003 -218.915001 
L 611.259652 -216.999531 
L 611.806088 -215.084061 
L 612.410921 -213.168591 
L 613.069289 -211.253122 
L 613.768068 -209.337652 
L 614.484709 -207.422182 
L 615.187296 -205.506713 
L 615.836284 -203.591243 
L 616.388066 -201.675773 
L 616.800044 -199.760304 
L 617.036459 -197.844834 
L 617.073868 -195.929364 
L 616.905163 -194.013895 
L 616.541177 -192.098425 
L 616.009479 -190.182955 
L 615.350495 -188.267485 
L 614.611723 -186.352016 
L 613.841156 -184.436546 
L 613.081203 -182.521076 
L 612.364194 -180.605607 
L 611.710205 -178.690137 
L 611.127383 -176.774667 
L 610.61444 -174.859198 
L 610.164528 -172.943728 
L 609.769494 -171.028258 
L 609.42351 -169.112789 
L 609.125324 -167.197319 
L 608.878776 -165.281849 
L 608.691642 -163.366379 
L 608.573254 -161.45091 
L 608.531543 -159.53544 
L 608.570206 -157.61997 
L 608.686669 -155.704501 
L 608.87135 -153.789031 
L 609.108543 -151.873561 
L 609.379023 -149.958092 
L 609.664091 -148.042622 
L 609.950431 -146.127152 
L 610.23472 -144.211683 
L 610.52668 -142.296213 
L 610.849274 -140.380743 
L 611.235156 -138.465273 
L 611.719235 -136.549804 
L 612.328305 -134.634334 
L 613.069705 -132.718864 
L 613.921812 -130.803395 
L 614.829328 -128.887925 
L 615.705693 -126.972455 
L 616.443451 -125.056986 
L 616.931333 -123.141516 
L 617.074732 -121.226046 
L 616.814819 -119.310577 
L 616.141462 -117.395107 
L 615.096505 -115.479637 
L 613.766469 -113.564167 
L 612.266648 -111.648698 
L 610.72077 -109.733228 
L 609.241275 -107.817758 
L 607.914512 -105.902289 
L 606.7933 -103.986819 
L 605.89701 -102.071349 
L 605.217445 -100.15588 
L 604.727806 -98.24041 
z
" id="m78ec2ae766" style="stroke:#373737;stroke-width:1.5;"/>
    </defs>
    <g clip-path="url(#p52c866ff0c)">
     <use style="fill:#be631d;stroke:#373737;stroke-width:1.5;" x="0" xlink:href="#m78ec2ae766" y="540.169"/>
    </g>
   </g>
   <g id="patch_3">
    <path clip-path="url(#p52c866ff0c)" d="M 128.435536 423.488028 
L 128.435536 423.488028 
L 128.435536 423.488028 
L 128.435536 423.488028 
z
" style="fill:#2b8e70;stroke:#373737;stroke-linejoin:miter;stroke-width:0.75;"/>
   </g>
   <g id="patch_4">
    <path clip-path="url(#p52c866ff0c)" d="M 128.435536 423.488028 
L 128.435536 423.488028 
L 128.435536 423.488028 
L 128.435536 423.488028 
z
" style="fill:#be631d;stroke:#373737;stroke-linejoin:miter;stroke-width:0.75;"/>
   </g>
   <g id="line2d_1">
    <path clip-path="url(#p52c866ff0c)" d="M 105.796322 423.488028 
L 105.796322 367.173412 
" style="fill:none;stroke:#373737;stroke-linecap:round;stroke-width:1.5;"/>
   </g>
   <g id="line2d_2">
    <path clip-path="url(#p52c866ff0c)" d="M 105.796322 415.995526 
L 105.796322 396.116224 
" style="fill:none;stroke:#373737;stroke-linecap:round;stroke-width:4.5;"/>
   </g>
   <g id="line2d_3">
    <path clip-path="url(#p52c866ff0c)" d="M 151.074751 423.488028 
L 151.074751 329.227512 
" style="fill:none;stroke:#373737;stroke-linecap:round;stroke-width:1.5;"/>
   </g>
   <g id="line2d_4">
    <path clip-path="url(#p52c866ff0c)" d="M 151.074751 412.853508 
L 151.074751 373.215753 
" style="fill:none;stroke:#373737;stroke-linecap:round;stroke-width:4.5;"/>
   </g>
   <g id="line2d_5">
    <path clip-path="url(#p52c866ff0c)" d="M 218.992394 423.246335 
L 218.992394 258.411277 
" style="fill:none;stroke:#373737;stroke-linecap:round;stroke-width:1.5;"/>
   </g>
   <g id="line2d_6">
    <path clip-path="url(#p52c866ff0c)" d="M 218.992394 410.496996 
L 218.992394 333.09461 
" style="fill:none;stroke:#373737;stroke-linecap:round;stroke-width:4.5;"/>
   </g>
   <g id="line2d_7">
    <path clip-path="url(#p52c866ff0c)" d="M 264.270823 423.246335 
L 264.270823 190.011979 
" style="fill:none;stroke:#373737;stroke-linecap:round;stroke-width:1.5;"/>
   </g>
   <g id="line2d_8">
    <path clip-path="url(#p52c866ff0c)" d="M 264.270823 405.844393 
L 264.270823 277.505074 
" style="fill:none;stroke:#373737;stroke-linecap:round;stroke-width:4.5;"/>
   </g>
   <g id="line2d_9">
    <path clip-path="url(#p52c866ff0c)" d="M 332.188467 423.488028 
L 332.188467 255.26926 
" style="fill:none;stroke:#373737;stroke-linecap:round;stroke-width:1.5;"/>
   </g>
   <g id="line2d_10">
    <path clip-path="url(#p52c866ff0c)" d="M 332.188467 409.228104 
L 332.188467 333.27588 
" style="fill:none;stroke:#373737;stroke-linecap:round;stroke-width:4.5;"/>
   </g>
   <g id="line2d_11">
    <path clip-path="url(#p52c866ff0c)" d="M 377.466896 423.246335 
L 377.466896 186.628268 
" style="fill:none;stroke:#373737;stroke-linecap:round;stroke-width:1.5;"/>
   </g>
   <g id="line2d_12">
    <path clip-path="url(#p52c866ff0c)" d="M 377.466896 402.702376 
L 377.466896 281.553442 
" style="fill:none;stroke:#373737;stroke-linecap:round;stroke-width:4.5;"/>
   </g>
   <g id="line2d_13">
    <path clip-path="url(#p52c866ff0c)" d="M 445.384539 423.246335 
L 445.384539 216.114891 
" style="fill:none;stroke:#373737;stroke-linecap:round;stroke-width:1.5;"/>
   </g>
   <g id="line2d_14">
    <path clip-path="url(#p52c866ff0c)" d="M 445.384539 393.518018 
L 445.384539 318.411721 
" style="fill:none;stroke:#373737;stroke-linecap:round;stroke-width:4.5;"/>
   </g>
   <g id="line2d_15">
    <path clip-path="url(#p52c866ff0c)" d="M 490.662968 420.587705 
L 490.662968 79.316295 
" style="fill:none;stroke:#373737;stroke-linecap:round;stroke-width:1.5;"/>
   </g>
   <g id="line2d_16">
    <path clip-path="url(#p52c866ff0c)" d="M 490.662968 377.082851 
L 490.662968 187.474196 
" style="fill:none;stroke:#373737;stroke-linecap:round;stroke-width:4.5;"/>
   </g>
   <g id="line2d_17">
    <path clip-path="url(#p52c866ff0c)" d="M 558.580612 423.488028 
L 558.580612 340.345419 
" style="fill:none;stroke:#373737;stroke-linecap:round;stroke-width:1.5;"/>
   </g>
   <g id="line2d_18">
    <path clip-path="url(#p52c866ff0c)" d="M 558.580612 416.720607 
L 558.580612 368.140186 
" style="fill:none;stroke:#373737;stroke-linecap:round;stroke-width:4.5;"/>
   </g>
   <g id="line2d_19">
    <path clip-path="url(#p52c866ff0c)" d="M 603.859041 423.488028 
L 603.859041 270.737652 
" style="fill:none;stroke:#373737;stroke-linecap:round;stroke-width:1.5;"/>
   </g>
   <g id="line2d_20">
    <path clip-path="url(#p52c866ff0c)" d="M 603.859041 411.64504 
L 603.859041 338.59314 
" style="fill:none;stroke:#373737;stroke-linecap:round;stroke-width:4.5;"/>
   </g>
   <g id="patch_5">
    <path d="M 71.8375 492.704 
L 71.8375 7.2 
" style="fill:none;stroke:#262626;stroke-linecap:square;stroke-linejoin:miter;stroke-width:0.8;"/>
   </g>
   <g id="patch_6">
    <path d="M 71.8375 492.704 
L 637.817863 492.704 
" style="fill:none;stroke:#262626;stroke-linecap:square;stroke-linejoin:miter;stroke-width:0.8;"/>
   </g>
   <g id="PathCollection_1">
    <defs>
     <path d="M 0 1.5 
C 0.397805 1.5 0.77937 1.341951 1.06066 1.06066 
C 1.341951 0.77937 1.5 0.397805 1.5 0 
C 1.5 -0.397805 1.341951 -0.77937 1.06066 -1.06066 
C 0.77937 -1.341951 0.397805 -1.5 0 -1.5 
C -0.397805 -1.5 -0.77937 -1.341951 -1.06066 -1.06066 
C -1.341951 -0.77937 -1.5 -0.397805 -1.5 0 
C -1.5 0.397805 -1.341951 0.77937 -1.06066 1.06066 
C -0.77937 1.341951 -0.397805 1.5 0 1.5 
z
" id="m4f1a824601" style="stroke:#373737;"/>
    </defs>
    <g clip-path="url(#p52c866ff0c)">
     <use style="fill:#ffffff;stroke:#373737;" x="105.796322" xlink:href="#m4f1a824601" y="407.898789"/>
    </g>
   </g>
   <g id="PathCollection_2">
    <g clip-path="url(#p52c866ff0c)">
     <use style="fill:#ffffff;stroke:#373737;" x="151.074751" xlink:href="#m4f1a824601" y="392.067856"/>
    </g>
   </g>
   <g id="PathCollection_3">
    <g clip-path="url(#p52c866ff0c)">
     <use style="fill:#ffffff;stroke:#373737;" x="218.992394" xlink:href="#m4f1a824601" y="371.644744"/>
    </g>
   </g>
   <g id="PathCollection_4">
    <g clip-path="url(#p52c866ff0c)">
     <use style="fill:#ffffff;stroke:#373737;" x="264.270823" xlink:href="#m4f1a824601" y="312.792344"/>
    </g>
   </g>
   <g id="PathCollection_5">
    <g clip-path="url(#p52c866ff0c)">
     <use style="fill:#ffffff;stroke:#373737;" x="332.188467" xlink:href="#m4f1a824601" y="375.028455"/>
    </g>
   </g>
   <g id="PathCollection_6">
    <g clip-path="url(#p52c866ff0c)">
     <use style="fill:#ffffff;stroke:#373737;" x="377.466896" xlink:href="#m4f1a824601" y="323.185171"/>
    </g>
   </g>
   <g id="PathCollection_7">
    <g clip-path="url(#p52c866ff0c)">
     <use style="fill:#ffffff;stroke:#373737;" x="445.384539" xlink:href="#m4f1a824601" y="349.046389"/>
    </g>
   </g>
   <g id="PathCollection_8">
    <g clip-path="url(#p52c866ff0c)">
     <use style="fill:#ffffff;stroke:#373737;" x="490.662968" xlink:href="#m4f1a824601" y="264.091078"/>
    </g>
   </g>
   <g id="PathCollection_9">
    <g clip-path="url(#p52c866ff0c)">
     <use style="fill:#ffffff;stroke:#373737;" x="558.580612" xlink:href="#m4f1a824601" y="395.209873"/>
    </g>
   </g>
   <g id="PathCollection_10">
    <g clip-path="url(#p52c866ff0c)">
     <use style="fill:#ffffff;stroke:#373737;" x="603.859041" xlink:href="#m4f1a824601" y="359.680909"/>
    </g>
   </g>
  </g>
  <g id="legend_1">
   <g id="text_16">
    <!-- workday -->
    <defs>
     <path d="M 16.15625 0 
L 0.296875 51.859375 
L 9.375 51.859375 
L 17.625 21.921875 
L 20.703125 10.796875 
Q 20.90625 11.625 23.390625 21.484375 
L 31.640625 51.859375 
L 40.671875 51.859375 
L 48.4375 21.78125 
L 51.03125 11.859375 
L 54 21.875 
L 62.890625 51.859375 
L 71.4375 51.859375 
L 55.21875 0 
L 46.09375 0 
L 37.84375 31.0625 
L 35.84375 39.890625 
L 25.34375 0 
z
" id="ArialMT-119"/>
     <path d="M 6.640625 0 
L 6.640625 71.578125 
L 15.4375 71.578125 
L 15.4375 30.765625 
L 36.234375 51.859375 
L 47.609375 51.859375 
L 27.78125 32.625 
L 49.609375 0 
L 38.765625 0 
L 21.625 26.515625 
L 15.4375 20.5625 
L 15.4375 0 
z
" id="ArialMT-107"/>
     <path d="M 40.4375 6.390625 
Q 35.546875 2.25 31.03125 0.53125 
Q 26.515625 -1.171875 21.34375 -1.171875 
Q 12.796875 -1.171875 8.203125 3 
Q 3.609375 7.171875 3.609375 13.671875 
Q 3.609375 17.484375 5.34375 20.625 
Q 7.078125 23.78125 9.890625 25.6875 
Q 12.703125 27.59375 16.21875 28.5625 
Q 18.796875 29.25 24.03125 29.890625 
Q 34.671875 31.15625 39.703125 32.90625 
Q 39.75 34.71875 39.75 35.203125 
Q 39.75 40.578125 37.25 42.78125 
Q 33.890625 45.75 27.25 45.75 
Q 21.046875 45.75 18.09375 43.578125 
Q 15.140625 41.40625 13.71875 35.890625 
L 5.125 37.0625 
Q 6.296875 42.578125 8.984375 45.96875 
Q 11.671875 49.359375 16.75 51.1875 
Q 21.828125 53.03125 28.515625 53.03125 
Q 35.15625 53.03125 39.296875 51.46875 
Q 43.453125 49.90625 45.40625 47.53125 
Q 47.359375 45.171875 48.140625 41.546875 
Q 48.578125 39.3125 48.578125 33.453125 
L 48.578125 21.734375 
Q 48.578125 9.46875 49.140625 6.21875 
Q 49.703125 2.984375 51.375 0 
L 42.1875 0 
Q 40.828125 2.734375 40.4375 6.390625 
z
M 39.703125 26.03125 
Q 34.90625 24.078125 25.34375 22.703125 
Q 19.921875 21.921875 17.671875 20.9375 
Q 15.4375 19.96875 14.203125 18.09375 
Q 12.984375 16.21875 12.984375 13.921875 
Q 12.984375 10.40625 15.640625 8.0625 
Q 18.3125 5.71875 23.4375 5.71875 
Q 28.515625 5.71875 32.46875 7.9375 
Q 36.421875 10.15625 38.28125 14.015625 
Q 39.703125 17 39.703125 22.796875 
z
" id="ArialMT-97"/>
     <path d="M 6.203125 -19.96875 
L 5.21875 -11.71875 
Q 8.109375 -12.5 10.25 -12.5 
Q 13.1875 -12.5 14.9375 -11.515625 
Q 16.703125 -10.546875 17.828125 -8.796875 
Q 18.65625 -7.46875 20.515625 -2.25 
Q 20.75 -1.515625 21.296875 -0.09375 
L 1.609375 51.859375 
L 11.078125 51.859375 
L 21.875 21.828125 
Q 23.96875 16.109375 25.640625 9.8125 
Q 27.15625 15.875 29.25 21.625 
L 40.328125 51.859375 
L 49.125 51.859375 
L 29.390625 -0.875 
Q 26.21875 -9.421875 24.46875 -12.640625 
Q 22.125 -17 19.09375 -19.015625 
Q 16.0625 -21.046875 11.859375 -21.046875 
Q 9.328125 -21.046875 6.203125 -19.96875 
z
" id="ArialMT-121"/>
    </defs>
    <g style="fill:#262626;" transform="translate(716.3905 251.4945)scale(0.16 -0.16)">
     <use xlink:href="#ArialMT-119"/>
     <use x="72.216797" xlink:href="#ArialMT-111"/>
     <use x="127.832031" xlink:href="#ArialMT-114"/>
     <use x="161.132812" xlink:href="#ArialMT-107"/>
     <use x="211.132812" xlink:href="#ArialMT-100"/>
     <use x="266.748047" xlink:href="#ArialMT-97"/>
     <use x="322.363281" xlink:href="#ArialMT-121"/>
    </g>
   </g>
   <g id="patch_7">
    <path d="M 719.32925 274.3145 
L 751.32925 274.3145 
L 751.32925 263.1145 
L 719.32925 263.1145 
z
" style="fill:#2b8e70;stroke:#373737;stroke-linejoin:miter;stroke-width:0.75;"/>
   </g>
   <g id="text_17">
    <!-- 0 -->
    <g style="fill:#262626;" transform="translate(764.12925 274.3145)scale(0.16 -0.16)">
     <use xlink:href="#ArialMT-48"/>
    </g>
   </g>
   <g id="patch_8">
    <path d="M 719.32925 296.947 
L 751.32925 296.947 
L 751.32925 285.747 
L 719.32925 285.747 
z
" style="fill:#be631d;stroke:#373737;stroke-linejoin:miter;stroke-width:0.75;"/>
   </g>
   <g id="text_18">
    <!-- 1 -->
    <g style="fill:#262626;" transform="translate(764.12925 296.947)scale(0.16 -0.16)">
     <use xlink:href="#ArialMT-49"/>
    </g>
   </g>
  </g>
 </g>
 <defs>
  <clipPath id="p52c866ff0c">
   <rect height="485.504" width="565.980363" x="71.8375" y="7.2"/>
  </clipPath>
 </defs>
</svg>
