<?xml version="1.0" encoding="utf-8" standalone="no"?>
<!DOCTYPE svg PUBLIC "-//W3C//DTD SVG 1.1//EN"
  "http://www.w3.org/Graphics/SVG/1.1/DTD/svg11.dtd">
<!-- Created with matplotlib (https://matplotlib.org/) -->
<svg height="540.169pt" version="1.1" viewBox="0 0 744.32785 540.169" width="744.32785pt" xmlns="http://www.w3.org/2000/svg" xmlns:xlink="http://www.w3.org/1999/xlink">
 <defs>
  <style type="text/css">
*{stroke-linecap:butt;stroke-linejoin:round;white-space:pre;}
  </style>
 </defs>
 <g id="figure_1">
  <g id="patch_1">
   <path d="M 0 540.169 
L 744.32785 540.169 
L 744.32785 0 
L 0 0 
z
" style="fill:#ffffff;"/>
  </g>
  <g id="axes_1">
   <g id="patch_2">
    <path d="M 71.8375 492.704 
L 737.12785 492.704 
L 737.12785 7.2 
L 71.8375 7.2 
z
" style="fill:#ffffff;"/>
   </g>
   <g id="matplotlib.axis_1">
    <g id="xtick_1">
     <g id="text_1">
      <!-- 1038-276-1 -->
      <defs>
       <path d="M 37.25 0 
L 28.46875 0 
L 28.46875 56 
Q 25.296875 52.984375 20.140625 49.953125 
Q 14.984375 46.921875 10.890625 45.40625 
L 10.890625 53.90625 
Q 18.265625 57.375 23.78125 62.296875 
Q 29.296875 67.234375 31.59375 71.875 
L 37.25 71.875 
z
" id="ArialMT-49"/>
       <path d="M 4.15625 35.296875 
Q 4.15625 48 6.765625 55.734375 
Q 9.375 63.484375 14.515625 67.671875 
Q 19.671875 71.875 27.484375 71.875 
Q 33.25 71.875 37.59375 69.546875 
Q 41.9375 67.234375 44.765625 62.859375 
Q 47.609375 58.5 49.21875 52.21875 
Q 50.828125 45.953125 50.828125 35.296875 
Q 50.828125 22.703125 48.234375 14.96875 
Q 45.65625 7.234375 40.5 3 
Q 35.359375 -1.21875 27.484375 -1.21875 
Q 17.140625 -1.21875 11.234375 6.203125 
Q 4.15625 15.140625 4.15625 35.296875 
z
M 13.1875 35.296875 
Q 13.1875 17.671875 17.3125 11.828125 
Q 21.4375 6 27.484375 6 
Q 33.546875 6 37.671875 11.859375 
Q 41.796875 17.71875 41.796875 35.296875 
Q 41.796875 52.984375 37.671875 58.78125 
Q 33.546875 64.59375 27.390625 64.59375 
Q 21.34375 64.59375 17.71875 59.46875 
Q 13.1875 52.9375 13.1875 35.296875 
z
" id="ArialMT-48"/>
       <path d="M 4.203125 18.890625 
L 12.984375 20.0625 
Q 14.5 12.59375 18.140625 9.296875 
Q 21.78125 6 27 6 
Q 33.203125 6 37.46875 10.296875 
Q 41.75 14.59375 41.75 20.953125 
Q 41.75 27 37.796875 30.921875 
Q 33.84375 34.859375 27.734375 34.859375 
Q 25.25 34.859375 21.53125 33.890625 
L 22.515625 41.609375 
Q 23.390625 41.5 23.921875 41.5 
Q 29.546875 41.5 34.03125 44.421875 
Q 38.53125 47.359375 38.53125 53.46875 
Q 38.53125 58.296875 35.25 61.46875 
Q 31.984375 64.65625 26.8125 64.65625 
Q 21.6875 64.65625 18.265625 61.421875 
Q 14.84375 58.203125 13.875 51.765625 
L 5.078125 53.328125 
Q 6.6875 62.15625 12.390625 67.015625 
Q 18.109375 71.875 26.609375 71.875 
Q 32.46875 71.875 37.390625 69.359375 
Q 42.328125 66.84375 44.9375 62.5 
Q 47.5625 58.15625 47.5625 53.265625 
Q 47.5625 48.640625 45.0625 44.828125 
Q 42.578125 41.015625 37.703125 38.765625 
Q 44.046875 37.3125 47.5625 32.6875 
Q 51.078125 28.078125 51.078125 21.140625 
Q 51.078125 11.765625 44.234375 5.25 
Q 37.40625 -1.265625 26.953125 -1.265625 
Q 17.53125 -1.265625 11.296875 4.34375 
Q 5.078125 9.96875 4.203125 18.890625 
z
" id="ArialMT-51"/>
       <path d="M 17.671875 38.8125 
Q 12.203125 40.828125 9.5625 44.53125 
Q 6.9375 48.25 6.9375 53.421875 
Q 6.9375 61.234375 12.546875 66.546875 
Q 18.171875 71.875 27.484375 71.875 
Q 36.859375 71.875 42.578125 66.421875 
Q 48.296875 60.984375 48.296875 53.171875 
Q 48.296875 48.1875 45.671875 44.5 
Q 43.0625 40.828125 37.75 38.8125 
Q 44.34375 36.671875 47.78125 31.875 
Q 51.21875 27.09375 51.21875 20.453125 
Q 51.21875 11.28125 44.71875 5.03125 
Q 38.234375 -1.21875 27.640625 -1.21875 
Q 17.046875 -1.21875 10.546875 5.046875 
Q 4.046875 11.328125 4.046875 20.703125 
Q 4.046875 27.6875 7.59375 32.390625 
Q 11.140625 37.109375 17.671875 38.8125 
z
M 15.921875 53.71875 
Q 15.921875 48.640625 19.1875 45.40625 
Q 22.46875 42.1875 27.6875 42.1875 
Q 32.765625 42.1875 36.015625 45.375 
Q 39.265625 48.578125 39.265625 53.21875 
Q 39.265625 58.0625 35.90625 61.359375 
Q 32.5625 64.65625 27.59375 64.65625 
Q 22.5625 64.65625 19.234375 61.421875 
Q 15.921875 58.203125 15.921875 53.71875 
z
M 13.09375 20.65625 
Q 13.09375 16.890625 14.875 13.375 
Q 16.65625 9.859375 20.171875 7.921875 
Q 23.6875 6 27.734375 6 
Q 34.03125 6 38.125 10.046875 
Q 42.234375 14.109375 42.234375 20.359375 
Q 42.234375 26.703125 38.015625 30.859375 
Q 33.796875 35.015625 27.4375 35.015625 
Q 21.234375 35.015625 17.15625 30.90625 
Q 13.09375 26.8125 13.09375 20.65625 
z
" id="ArialMT-56"/>
       <path d="M 3.171875 21.484375 
L 3.171875 30.328125 
L 30.171875 30.328125 
L 30.171875 21.484375 
z
" id="ArialMT-45"/>
       <path d="M 50.34375 8.453125 
L 50.34375 0 
L 3.03125 0 
Q 2.9375 3.171875 4.046875 6.109375 
Q 5.859375 10.9375 9.828125 15.625 
Q 13.8125 20.3125 21.34375 26.46875 
Q 33.015625 36.03125 37.109375 41.625 
Q 41.21875 47.21875 41.21875 52.203125 
Q 41.21875 57.421875 37.46875 61 
Q 33.734375 64.59375 27.734375 64.59375 
Q 21.390625 64.59375 17.578125 60.78125 
Q 13.765625 56.984375 13.71875 50.25 
L 4.6875 51.171875 
Q 5.609375 61.28125 11.65625 66.578125 
Q 17.71875 71.875 27.9375 71.875 
Q 38.234375 71.875 44.234375 66.15625 
Q 50.25 60.453125 50.25 52 
Q 50.25 47.703125 48.484375 43.546875 
Q 46.734375 39.40625 42.65625 34.8125 
Q 38.578125 30.21875 29.109375 22.21875 
Q 21.1875 15.578125 18.9375 13.203125 
Q 16.703125 10.84375 15.234375 8.453125 
z
" id="ArialMT-50"/>
       <path d="M 4.734375 62.203125 
L 4.734375 70.65625 
L 51.078125 70.65625 
L 51.078125 63.8125 
Q 44.234375 56.546875 37.515625 44.484375 
Q 30.8125 32.421875 27.15625 19.671875 
Q 24.515625 10.6875 23.78125 0 
L 14.75 0 
Q 14.890625 8.453125 18.0625 20.40625 
Q 21.234375 32.375 27.171875 43.484375 
Q 33.109375 54.59375 39.796875 62.203125 
z
" id="ArialMT-55"/>
       <path d="M 49.75 54.046875 
L 41.015625 53.375 
Q 39.84375 58.546875 37.703125 60.890625 
Q 34.125 64.65625 28.90625 64.65625 
Q 24.703125 64.65625 21.53125 62.3125 
Q 17.390625 59.28125 14.984375 53.46875 
Q 12.59375 47.65625 12.5 36.921875 
Q 15.671875 41.75 20.265625 44.09375 
Q 24.859375 46.4375 29.890625 46.4375 
Q 38.671875 46.4375 44.84375 39.96875 
Q 51.03125 33.5 51.03125 23.25 
Q 51.03125 16.5 48.125 10.71875 
Q 45.21875 4.9375 40.140625 1.859375 
Q 35.0625 -1.21875 28.609375 -1.21875 
Q 17.625 -1.21875 10.6875 6.859375 
Q 3.765625 14.9375 3.765625 33.5 
Q 3.765625 54.25 11.421875 63.671875 
Q 18.109375 71.875 29.4375 71.875 
Q 37.890625 71.875 43.28125 67.140625 
Q 48.6875 62.40625 49.75 54.046875 
z
M 13.875 23.1875 
Q 13.875 18.65625 15.796875 14.5 
Q 17.71875 10.359375 21.1875 8.171875 
Q 24.65625 6 28.46875 6 
Q 34.03125 6 38.03125 10.484375 
Q 42.046875 14.984375 42.046875 22.703125 
Q 42.046875 30.125 38.078125 34.390625 
Q 34.125 38.671875 28.125 38.671875 
Q 22.171875 38.671875 18.015625 34.390625 
Q 13.875 30.125 13.875 23.1875 
z
" id="ArialMT-54"/>
      </defs>
      <g style="fill:#262626;" transform="translate(97.449035 511.1565)scale(0.16 -0.16)">
       <use xlink:href="#ArialMT-49"/>
       <use x="55.615234" xlink:href="#ArialMT-48"/>
       <use x="111.230469" xlink:href="#ArialMT-51"/>
       <use x="166.845703" xlink:href="#ArialMT-56"/>
       <use x="222.460938" xlink:href="#ArialMT-45"/>
       <use x="255.761719" xlink:href="#ArialMT-50"/>
       <use x="311.376953" xlink:href="#ArialMT-55"/>
       <use x="366.992188" xlink:href="#ArialMT-54"/>
       <use x="422.607422" xlink:href="#ArialMT-45"/>
       <use x="455.908203" xlink:href="#ArialMT-49"/>
      </g>
     </g>
    </g>
    <g id="xtick_2">
     <g id="text_2">
      <!-- 1935-230 -->
      <defs>
       <path d="M 5.46875 16.546875 
L 13.921875 17.328125 
Q 14.984375 11.375 18.015625 8.6875 
Q 21.046875 6 25.78125 6 
Q 29.828125 6 32.875 7.859375 
Q 35.9375 9.71875 37.890625 12.8125 
Q 39.84375 15.921875 41.15625 21.1875 
Q 42.484375 26.46875 42.484375 31.9375 
Q 42.484375 32.515625 42.4375 33.6875 
Q 39.796875 29.5 35.234375 26.875 
Q 30.671875 24.265625 25.34375 24.265625 
Q 16.453125 24.265625 10.296875 30.703125 
Q 4.15625 37.15625 4.15625 47.703125 
Q 4.15625 58.59375 10.578125 65.234375 
Q 17 71.875 26.65625 71.875 
Q 33.640625 71.875 39.421875 68.109375 
Q 45.21875 64.359375 48.21875 57.390625 
Q 51.21875 50.4375 51.21875 37.25 
Q 51.21875 23.53125 48.234375 15.40625 
Q 45.265625 7.28125 39.375 3.03125 
Q 33.5 -1.21875 25.59375 -1.21875 
Q 17.1875 -1.21875 11.859375 3.4375 
Q 6.546875 8.109375 5.46875 16.546875 
z
M 41.453125 48.140625 
Q 41.453125 55.71875 37.421875 60.15625 
Q 33.40625 64.59375 27.734375 64.59375 
Q 21.875 64.59375 17.53125 59.8125 
Q 13.1875 55.03125 13.1875 47.40625 
Q 13.1875 40.578125 17.3125 36.296875 
Q 21.4375 32.03125 27.484375 32.03125 
Q 33.59375 32.03125 37.515625 36.296875 
Q 41.453125 40.578125 41.453125 48.140625 
z
" id="ArialMT-57"/>
       <path d="M 4.15625 18.75 
L 13.375 19.53125 
Q 14.40625 12.796875 18.140625 9.390625 
Q 21.875 6 27.15625 6 
Q 33.5 6 37.890625 10.78125 
Q 42.28125 15.578125 42.28125 23.484375 
Q 42.28125 31 38.0625 35.34375 
Q 33.84375 39.703125 27 39.703125 
Q 22.75 39.703125 19.328125 37.765625 
Q 15.921875 35.84375 13.96875 32.765625 
L 5.71875 33.84375 
L 12.640625 70.609375 
L 48.25 70.609375 
L 48.25 62.203125 
L 19.671875 62.203125 
L 15.828125 42.96875 
Q 22.265625 47.46875 29.34375 47.46875 
Q 38.71875 47.46875 45.15625 40.96875 
Q 51.609375 34.46875 51.609375 24.265625 
Q 51.609375 14.546875 45.953125 7.46875 
Q 39.0625 -1.21875 27.15625 -1.21875 
Q 17.390625 -1.21875 11.203125 4.25 
Q 5.03125 9.71875 4.15625 18.75 
z
" id="ArialMT-53"/>
      </defs>
      <g style="fill:#262626;" transform="translate(237.619605 511.1565)scale(0.16 -0.16)">
       <use xlink:href="#ArialMT-49"/>
       <use x="55.615234" xlink:href="#ArialMT-57"/>
       <use x="111.230469" xlink:href="#ArialMT-51"/>
       <use x="166.845703" xlink:href="#ArialMT-53"/>
       <use x="222.460938" xlink:href="#ArialMT-45"/>
       <use x="255.761719" xlink:href="#ArialMT-50"/>
       <use x="311.376953" xlink:href="#ArialMT-51"/>
       <use x="366.992188" xlink:href="#ArialMT-48"/>
      </g>
     </g>
    </g>
    <g id="xtick_3">
     <g id="text_3">
      <!-- 1935-230-1 -->
      <g style="fill:#262626;" transform="translate(363.565175 511.1565)scale(0.16 -0.16)">
       <use xlink:href="#ArialMT-49"/>
       <use x="55.615234" xlink:href="#ArialMT-57"/>
       <use x="111.230469" xlink:href="#ArialMT-51"/>
       <use x="166.845703" xlink:href="#ArialMT-53"/>
       <use x="222.460938" xlink:href="#ArialMT-45"/>
       <use x="255.761719" xlink:href="#ArialMT-50"/>
       <use x="311.376953" xlink:href="#ArialMT-51"/>
       <use x="366.992188" xlink:href="#ArialMT-48"/>
       <use x="422.607422" xlink:href="#ArialMT-45"/>
       <use x="455.908203" xlink:href="#ArialMT-49"/>
      </g>
     </g>
    </g>
    <g id="xtick_4">
     <g id="text_4">
      <!-- 1946-230 -->
      <defs>
       <path d="M 32.328125 0 
L 32.328125 17.140625 
L 1.265625 17.140625 
L 1.265625 25.203125 
L 33.9375 71.578125 
L 41.109375 71.578125 
L 41.109375 25.203125 
L 50.78125 25.203125 
L 50.78125 17.140625 
L 41.109375 17.140625 
L 41.109375 0 
z
M 32.328125 25.203125 
L 32.328125 57.46875 
L 9.90625 25.203125 
z
" id="ArialMT-52"/>
      </defs>
      <g style="fill:#262626;" transform="translate(503.735745 511.1565)scale(0.16 -0.16)">
       <use xlink:href="#ArialMT-49"/>
       <use x="55.615234" xlink:href="#ArialMT-57"/>
       <use x="111.230469" xlink:href="#ArialMT-52"/>
       <use x="166.845703" xlink:href="#ArialMT-54"/>
       <use x="222.460938" xlink:href="#ArialMT-45"/>
       <use x="255.761719" xlink:href="#ArialMT-50"/>
       <use x="311.376953" xlink:href="#ArialMT-51"/>
       <use x="366.992188" xlink:href="#ArialMT-48"/>
      </g>
     </g>
    </g>
    <g id="xtick_5">
     <g id="text_5">
      <!-- 1947-211 -->
      <g style="fill:#262626;" transform="translate(636.802565 511.1565)scale(0.16 -0.16)">
       <use xlink:href="#ArialMT-49"/>
       <use x="55.615234" xlink:href="#ArialMT-57"/>
       <use x="111.230469" xlink:href="#ArialMT-52"/>
       <use x="166.845703" xlink:href="#ArialMT-55"/>
       <use x="222.460938" xlink:href="#ArialMT-45"/>
       <use x="255.761719" xlink:href="#ArialMT-50"/>
       <use x="311.376953" xlink:href="#ArialMT-49"/>
       <use x="366.882812" xlink:href="#ArialMT-49"/>
      </g>
     </g>
    </g>
    <g id="text_6">
     <!-- Counter id -->
     <defs>
      <path d="M 58.796875 25.09375 
L 68.265625 22.703125 
Q 65.28125 11.03125 57.546875 4.90625 
Q 49.8125 -1.21875 38.625 -1.21875 
Q 27.046875 -1.21875 19.796875 3.484375 
Q 12.546875 8.203125 8.765625 17.140625 
Q 4.984375 26.078125 4.984375 36.328125 
Q 4.984375 47.515625 9.25 55.828125 
Q 13.53125 64.15625 21.40625 68.46875 
Q 29.296875 72.796875 38.765625 72.796875 
Q 49.515625 72.796875 56.828125 67.328125 
Q 64.15625 61.859375 67.046875 51.953125 
L 57.71875 49.75 
Q 55.21875 57.5625 50.484375 61.125 
Q 45.75 64.703125 38.578125 64.703125 
Q 30.328125 64.703125 24.78125 60.734375 
Q 19.234375 56.78125 16.984375 50.109375 
Q 14.75 43.453125 14.75 36.375 
Q 14.75 27.25 17.40625 20.4375 
Q 20.0625 13.625 25.671875 10.25 
Q 31.296875 6.890625 37.84375 6.890625 
Q 45.796875 6.890625 51.3125 11.46875 
Q 56.84375 16.0625 58.796875 25.09375 
z
" id="ArialMT-67"/>
      <path d="M 3.328125 25.921875 
Q 3.328125 40.328125 11.328125 47.265625 
Q 18.015625 53.03125 27.640625 53.03125 
Q 38.328125 53.03125 45.109375 46.015625 
Q 51.90625 39.015625 51.90625 26.65625 
Q 51.90625 16.65625 48.90625 10.90625 
Q 45.90625 5.171875 40.15625 2 
Q 34.421875 -1.171875 27.640625 -1.171875 
Q 16.75 -1.171875 10.03125 5.8125 
Q 3.328125 12.796875 3.328125 25.921875 
z
M 12.359375 25.921875 
Q 12.359375 15.96875 16.703125 11.015625 
Q 21.046875 6.0625 27.640625 6.0625 
Q 34.1875 6.0625 38.53125 11.03125 
Q 42.875 16.015625 42.875 26.21875 
Q 42.875 35.84375 38.5 40.796875 
Q 34.125 45.75 27.640625 45.75 
Q 21.046875 45.75 16.703125 40.8125 
Q 12.359375 35.890625 12.359375 25.921875 
z
" id="ArialMT-111"/>
      <path d="M 40.578125 0 
L 40.578125 7.625 
Q 34.515625 -1.171875 24.125 -1.171875 
Q 19.53125 -1.171875 15.546875 0.578125 
Q 11.578125 2.34375 9.640625 5 
Q 7.71875 7.671875 6.9375 11.53125 
Q 6.390625 14.109375 6.390625 19.734375 
L 6.390625 51.859375 
L 15.1875 51.859375 
L 15.1875 23.09375 
Q 15.1875 16.21875 15.71875 13.8125 
Q 16.546875 10.359375 19.234375 8.375 
Q 21.921875 6.390625 25.875 6.390625 
Q 29.828125 6.390625 33.296875 8.421875 
Q 36.765625 10.453125 38.203125 13.9375 
Q 39.65625 17.4375 39.65625 24.078125 
L 39.65625 51.859375 
L 48.4375 51.859375 
L 48.4375 0 
z
" id="ArialMT-117"/>
      <path d="M 6.59375 0 
L 6.59375 51.859375 
L 14.5 51.859375 
L 14.5 44.484375 
Q 20.21875 53.03125 31 53.03125 
Q 35.6875 53.03125 39.625 51.34375 
Q 43.5625 49.65625 45.515625 46.921875 
Q 47.46875 44.1875 48.25 40.4375 
Q 48.734375 37.984375 48.734375 31.890625 
L 48.734375 0 
L 39.9375 0 
L 39.9375 31.546875 
Q 39.9375 36.921875 38.90625 39.578125 
Q 37.890625 42.234375 35.28125 43.8125 
Q 32.671875 45.40625 29.15625 45.40625 
Q 23.53125 45.40625 19.453125 41.84375 
Q 15.375 38.28125 15.375 28.328125 
L 15.375 0 
z
" id="ArialMT-110"/>
      <path d="M 25.78125 7.859375 
L 27.046875 0.09375 
Q 23.34375 -0.6875 20.40625 -0.6875 
Q 15.625 -0.6875 12.984375 0.828125 
Q 10.359375 2.34375 9.28125 4.8125 
Q 8.203125 7.28125 8.203125 15.1875 
L 8.203125 45.015625 
L 1.765625 45.015625 
L 1.765625 51.859375 
L 8.203125 51.859375 
L 8.203125 64.703125 
L 16.9375 69.96875 
L 16.9375 51.859375 
L 25.78125 51.859375 
L 25.78125 45.015625 
L 16.9375 45.015625 
L 16.9375 14.703125 
Q 16.9375 10.9375 17.40625 9.859375 
Q 17.875 8.796875 18.921875 8.15625 
Q 19.96875 7.515625 21.921875 7.515625 
Q 23.390625 7.515625 25.78125 7.859375 
z
" id="ArialMT-116"/>
      <path d="M 42.09375 16.703125 
L 51.171875 15.578125 
Q 49.03125 7.625 43.21875 3.21875 
Q 37.40625 -1.171875 28.375 -1.171875 
Q 17 -1.171875 10.328125 5.828125 
Q 3.65625 12.84375 3.65625 25.484375 
Q 3.65625 38.578125 10.390625 45.796875 
Q 17.140625 53.03125 27.875 53.03125 
Q 38.28125 53.03125 44.875 45.953125 
Q 51.46875 38.875 51.46875 26.03125 
Q 51.46875 25.25 51.421875 23.6875 
L 12.75 23.6875 
Q 13.234375 15.140625 17.578125 10.59375 
Q 21.921875 6.0625 28.421875 6.0625 
Q 33.25 6.0625 36.671875 8.59375 
Q 40.09375 11.140625 42.09375 16.703125 
z
M 13.234375 30.90625 
L 42.1875 30.90625 
Q 41.609375 37.453125 38.875 40.71875 
Q 34.671875 45.796875 27.984375 45.796875 
Q 21.921875 45.796875 17.796875 41.75 
Q 13.671875 37.703125 13.234375 30.90625 
z
" id="ArialMT-101"/>
      <path d="M 6.5 0 
L 6.5 51.859375 
L 14.40625 51.859375 
L 14.40625 44 
Q 17.4375 49.515625 20 51.265625 
Q 22.5625 53.03125 25.640625 53.03125 
Q 30.078125 53.03125 34.671875 50.203125 
L 31.640625 42.046875 
Q 28.421875 43.953125 25.203125 43.953125 
Q 22.3125 43.953125 20.015625 42.21875 
Q 17.71875 40.484375 16.75 37.40625 
Q 15.28125 32.71875 15.28125 27.15625 
L 15.28125 0 
z
" id="ArialMT-114"/>
      <path id="ArialMT-32"/>
      <path d="M 6.640625 61.46875 
L 6.640625 71.578125 
L 15.4375 71.578125 
L 15.4375 61.46875 
z
M 6.640625 0 
L 6.640625 51.859375 
L 15.4375 51.859375 
L 15.4375 0 
z
" id="ArialMT-105"/>
      <path d="M 40.234375 0 
L 40.234375 6.546875 
Q 35.296875 -1.171875 25.734375 -1.171875 
Q 19.53125 -1.171875 14.328125 2.25 
Q 9.125 5.671875 6.265625 11.796875 
Q 3.421875 17.921875 3.421875 25.875 
Q 3.421875 33.640625 6 39.96875 
Q 8.59375 46.296875 13.765625 49.65625 
Q 18.953125 53.03125 25.34375 53.03125 
Q 30.03125 53.03125 33.6875 51.046875 
Q 37.359375 49.078125 39.65625 45.90625 
L 39.65625 71.578125 
L 48.390625 71.578125 
L 48.390625 0 
z
M 12.453125 25.875 
Q 12.453125 15.921875 16.640625 10.984375 
Q 20.84375 6.0625 26.5625 6.0625 
Q 32.328125 6.0625 36.34375 10.765625 
Q 40.375 15.484375 40.375 25.140625 
Q 40.375 35.796875 36.265625 40.765625 
Q 32.171875 45.75 26.171875 45.75 
Q 20.3125 45.75 16.375 40.96875 
Q 12.453125 36.1875 12.453125 25.875 
z
" id="ArialMT-100"/>
     </defs>
     <g style="fill:#262626;" transform="translate(367.575175 529.789)scale(0.16 -0.16)">
      <use xlink:href="#ArialMT-67"/>
      <use x="72.216797" xlink:href="#ArialMT-111"/>
      <use x="127.832031" xlink:href="#ArialMT-117"/>
      <use x="183.447266" xlink:href="#ArialMT-110"/>
      <use x="239.0625" xlink:href="#ArialMT-116"/>
      <use x="266.845703" xlink:href="#ArialMT-101"/>
      <use x="322.460938" xlink:href="#ArialMT-114"/>
      <use x="355.761719" xlink:href="#ArialMT-32"/>
      <use x="383.544922" xlink:href="#ArialMT-105"/>
      <use x="405.761719" xlink:href="#ArialMT-100"/>
     </g>
    </g>
   </g>
   <g id="matplotlib.axis_2">
    <g id="ytick_1">
     <g id="text_7">
      <!-- −100 -->
      <defs>
       <path d="M 52.828125 31.203125 
L 5.5625 31.203125 
L 5.5625 39.40625 
L 52.828125 39.40625 
z
" id="ArialMT-8722"/>
      </defs>
      <g style="fill:#262626;" transform="translate(28.8 497.953394)scale(0.16 -0.16)">
       <use xlink:href="#ArialMT-8722"/>
       <use x="58.398438" xlink:href="#ArialMT-49"/>
       <use x="114.013672" xlink:href="#ArialMT-48"/>
       <use x="169.628906" xlink:href="#ArialMT-48"/>
      </g>
     </g>
    </g>
    <g id="ytick_2">
     <g id="text_8">
      <!-- 0 -->
      <g style="fill:#262626;" transform="translate(55.94 439.291131)scale(0.16 -0.16)">
       <use xlink:href="#ArialMT-48"/>
      </g>
     </g>
    </g>
    <g id="ytick_3">
     <g id="text_9">
      <!-- 100 -->
      <g style="fill:#262626;" transform="translate(38.145 380.628869)scale(0.16 -0.16)">
       <use xlink:href="#ArialMT-49"/>
       <use x="55.615234" xlink:href="#ArialMT-48"/>
       <use x="111.230469" xlink:href="#ArialMT-48"/>
      </g>
     </g>
    </g>
    <g id="ytick_4">
     <g id="text_10">
      <!-- 200 -->
      <g style="fill:#262626;" transform="translate(38.145 321.966606)scale(0.16 -0.16)">
       <use xlink:href="#ArialMT-50"/>
       <use x="55.615234" xlink:href="#ArialMT-48"/>
       <use x="111.230469" xlink:href="#ArialMT-48"/>
      </g>
     </g>
    </g>
    <g id="ytick_5">
     <g id="text_11">
      <!-- 300 -->
      <g style="fill:#262626;" transform="translate(38.145 263.304344)scale(0.16 -0.16)">
       <use xlink:href="#ArialMT-51"/>
       <use x="55.615234" xlink:href="#ArialMT-48"/>
       <use x="111.230469" xlink:href="#ArialMT-48"/>
      </g>
     </g>
    </g>
    <g id="ytick_6">
     <g id="text_12">
      <!-- 400 -->
      <g style="fill:#262626;" transform="translate(38.145 204.642082)scale(0.16 -0.16)">
       <use xlink:href="#ArialMT-52"/>
       <use x="55.615234" xlink:href="#ArialMT-48"/>
       <use x="111.230469" xlink:href="#ArialMT-48"/>
      </g>
     </g>
    </g>
    <g id="ytick_7">
     <g id="text_13">
      <!-- 500 -->
      <g style="fill:#262626;" transform="translate(38.145 145.979819)scale(0.16 -0.16)">
       <use xlink:href="#ArialMT-53"/>
       <use x="55.615234" xlink:href="#ArialMT-48"/>
       <use x="111.230469" xlink:href="#ArialMT-48"/>
      </g>
     </g>
    </g>
    <g id="ytick_8">
     <g id="text_14">
      <!-- 600 -->
      <g style="fill:#262626;" transform="translate(38.145 87.317557)scale(0.16 -0.16)">
       <use xlink:href="#ArialMT-54"/>
       <use x="55.615234" xlink:href="#ArialMT-48"/>
       <use x="111.230469" xlink:href="#ArialMT-48"/>
      </g>
     </g>
    </g>
    <g id="ytick_9">
     <g id="text_15">
      <!-- 700 -->
      <g style="fill:#262626;" transform="translate(38.145 28.655295)scale(0.16 -0.16)">
       <use xlink:href="#ArialMT-55"/>
       <use x="55.615234" xlink:href="#ArialMT-48"/>
       <use x="111.230469" xlink:href="#ArialMT-48"/>
      </g>
     </g>
    </g>
    <g id="text_16">
     <!-- Count [$h^{-1}$] -->
     <defs>
      <path d="M 6.78125 -19.875 
L 6.78125 71.578125 
L 26.171875 71.578125 
L 26.171875 64.3125 
L 15.578125 64.3125 
L 15.578125 -12.59375 
L 26.171875 -12.59375 
L 26.171875 -19.875 
z
" id="ArialMT-91"/>
      <path d="M 55.71875 33.015625 
L 49.3125 0 
L 40.28125 0 
L 46.6875 32.671875 
Q 47.125 34.96875 47.359375 36.71875 
Q 47.609375 38.484375 47.609375 39.5 
Q 47.609375 43.609375 45.015625 45.890625 
Q 42.4375 48.1875 37.796875 48.1875 
Q 30.5625 48.1875 25.265625 43.296875 
Q 19.96875 38.421875 18.40625 30.328125 
L 12.5 0 
L 3.515625 0 
L 18.3125 75.984375 
L 27.296875 75.984375 
L 21.484375 46.09375 
Q 24.90625 50.6875 30.21875 53.34375 
Q 35.546875 56 41.40625 56 
Q 48.640625 56 52.609375 52.09375 
Q 56.59375 48.1875 56.59375 41.109375 
Q 56.59375 39.359375 56.375 37.359375 
Q 56.15625 35.359375 55.71875 33.015625 
z
" id="DejaVuSans-Oblique-104"/>
      <path d="M 10.59375 35.5 
L 73.1875 35.5 
L 73.1875 27.203125 
L 10.59375 27.203125 
z
" id="DejaVuSans-8722"/>
      <path d="M 12.40625 8.296875 
L 28.515625 8.296875 
L 28.515625 63.921875 
L 10.984375 60.40625 
L 10.984375 69.390625 
L 28.421875 72.90625 
L 38.28125 72.90625 
L 38.28125 8.296875 
L 54.390625 8.296875 
L 54.390625 0 
L 12.40625 0 
z
" id="DejaVuSans-49"/>
      <path d="M 21.296875 -19.875 
L 1.90625 -19.875 
L 1.90625 -12.59375 
L 12.5 -12.59375 
L 12.5 64.3125 
L 1.90625 64.3125 
L 1.90625 71.578125 
L 21.296875 71.578125 
z
" id="ArialMT-93"/>
     </defs>
     <g style="fill:#262626;" transform="translate(21.6 292.112)rotate(-90)scale(0.16 -0.16)">
      <use transform="translate(0 0.684375)" xlink:href="#ArialMT-67"/>
      <use transform="translate(72.216797 0.684375)" xlink:href="#ArialMT-111"/>
      <use transform="translate(127.832031 0.684375)" xlink:href="#ArialMT-117"/>
      <use transform="translate(183.447266 0.684375)" xlink:href="#ArialMT-110"/>
      <use transform="translate(239.0625 0.684375)" xlink:href="#ArialMT-116"/>
      <use transform="translate(266.845703 0.684375)" xlink:href="#ArialMT-32"/>
      <use transform="translate(294.628906 0.684375)" xlink:href="#ArialMT-91"/>
      <use transform="translate(322.412109 0.684375)" xlink:href="#DejaVuSans-Oblique-104"/>
      <use transform="translate(393.238724 38.965625)scale(0.7)" xlink:href="#DejaVuSans-8722"/>
      <use transform="translate(451.891068 38.965625)scale(0.7)" xlink:href="#DejaVuSans-49"/>
      <use transform="translate(499.161576 0.684375)" xlink:href="#ArialMT-93"/>
     </g>
    </g>
   </g>
   <g id="PolyCollection_1">
    <defs>
     <path d="M 138.415351 -69.533364 
L 138.317719 -69.533364 
L 138.284432 -73.991619 
L 138.235753 -78.449874 
L 138.169143 -82.908129 
L 138.084075 -87.366385 
L 137.983063 -91.82464 
L 137.872177 -96.282895 
L 137.760696 -100.741151 
L 137.659739 -105.199406 
L 137.580136 -109.657661 
L 137.530077 -114.115916 
L 137.51328 -118.574172 
L 137.528259 -123.032427 
L 137.568893 -127.490682 
L 137.626076 -131.948938 
L 137.689875 -136.407193 
L 137.751549 -140.865448 
L 137.804933 -145.323703 
L 137.846942 -149.781959 
L 137.877287 -154.240214 
L 137.897648 -158.698469 
L 137.910651 -163.156725 
L 137.918955 -167.61498 
L 137.924637 -172.073235 
L 137.928947 -176.53149 
L 137.932365 -180.989746 
L 137.93484 -185.448001 
L 137.93607 -189.906256 
L 137.9357 -194.364511 
L 137.933422 -198.822767 
L 137.928973 -203.281022 
L 137.922107 -207.739277 
L 137.912582 -212.197533 
L 137.900217 -216.655788 
L 137.885001 -221.114043 
L 137.867223 -225.572298 
L 137.847567 -230.030554 
L 137.827122 -234.488809 
L 137.807278 -238.947064 
L 137.789554 -243.40532 
L 137.775388 -247.863575 
L 137.765966 -252.32183 
L 137.762135 -256.780085 
L 137.764394 -261.238341 
L 137.772935 -265.696596 
L 137.787692 -270.154851 
L 137.808351 -274.613107 
L 137.834337 -279.071362 
L 137.864781 -283.529617 
L 137.898535 -287.987872 
L 137.934249 -292.446128 
L 137.970505 -296.904383 
L 138.005983 -301.362638 
L 138.039597 -305.820893 
L 138.07057 -310.279149 
L 138.098428 -314.737404 
L 138.122949 -319.195659 
L 138.144093 -323.653915 
L 138.161954 -328.11217 
L 138.17675 -332.570425 
L 138.188817 -337.02868 
L 138.198606 -341.486936 
L 138.206636 -345.945191 
L 138.213421 -350.403446 
L 138.219392 -354.861702 
L 138.224847 -359.319957 
L 138.229942 -363.778212 
L 138.23474 -368.236467 
L 138.239276 -372.694723 
L 138.243607 -377.152978 
L 138.247839 -381.611233 
L 138.252107 -386.069489 
L 138.256535 -390.527744 
L 138.261204 -394.985999 
L 138.266131 -399.444254 
L 138.271274 -403.90251 
L 138.276555 -408.360765 
L 138.28187 -412.81902 
L 138.287108 -417.277275 
L 138.292164 -421.735531 
L 138.296946 -426.193786 
L 138.301402 -430.652041 
L 138.30554 -435.110297 
L 138.309442 -439.568552 
L 138.313256 -444.026807 
L 138.317168 -448.485062 
L 138.321351 -452.943318 
L 138.32591 -457.401573 
L 138.33085 -461.859828 
L 138.336059 -466.318084 
L 138.341336 -470.776339 
L 138.34643 -475.234594 
L 138.351099 -479.692849 
L 138.355156 -484.151105 
L 138.358495 -488.60936 
L 138.361097 -493.067615 
L 138.363019 -497.525871 
L 138.364364 -501.984126 
L 138.365256 -506.442381 
L 138.365816 -510.900636 
L 138.367254 -510.900636 
L 138.367254 -510.900636 
L 138.367814 -506.442381 
L 138.368706 -501.984126 
L 138.370051 -497.525871 
L 138.371973 -493.067615 
L 138.374575 -488.60936 
L 138.377914 -484.151105 
L 138.381971 -479.692849 
L 138.38664 -475.234594 
L 138.391734 -470.776339 
L 138.397011 -466.318084 
L 138.40222 -461.859828 
L 138.40716 -457.401573 
L 138.411719 -452.943318 
L 138.415902 -448.485062 
L 138.419814 -444.026807 
L 138.423628 -439.568552 
L 138.42753 -435.110297 
L 138.431668 -430.652041 
L 138.436124 -426.193786 
L 138.440906 -421.735531 
L 138.445962 -417.277275 
L 138.4512 -412.81902 
L 138.456515 -408.360765 
L 138.461796 -403.90251 
L 138.466939 -399.444254 
L 138.471866 -394.985999 
L 138.476535 -390.527744 
L 138.480963 -386.069489 
L 138.485231 -381.611233 
L 138.489463 -377.152978 
L 138.493794 -372.694723 
L 138.49833 -368.236467 
L 138.503128 -363.778212 
L 138.508223 -359.319957 
L 138.513678 -354.861702 
L 138.519649 -350.403446 
L 138.526434 -345.945191 
L 138.534464 -341.486936 
L 138.544253 -337.02868 
L 138.55632 -332.570425 
L 138.571116 -328.11217 
L 138.588977 -323.653915 
L 138.610121 -319.195659 
L 138.634642 -314.737404 
L 138.6625 -310.279149 
L 138.693473 -305.820893 
L 138.727087 -301.362638 
L 138.762565 -296.904383 
L 138.798821 -292.446128 
L 138.834535 -287.987872 
L 138.868289 -283.529617 
L 138.898733 -279.071362 
L 138.924719 -274.613107 
L 138.945378 -270.154851 
L 138.960135 -265.696596 
L 138.968676 -261.238341 
L 138.970935 -256.780085 
L 138.967104 -252.32183 
L 138.957682 -247.863575 
L 138.943516 -243.40532 
L 138.925792 -238.947064 
L 138.905948 -234.488809 
L 138.885503 -230.030554 
L 138.865847 -225.572298 
L 138.848069 -221.114043 
L 138.832853 -216.655788 
L 138.820488 -212.197533 
L 138.810963 -207.739277 
L 138.804097 -203.281022 
L 138.799648 -198.822767 
L 138.79737 -194.364511 
L 138.797 -189.906256 
L 138.79823 -185.448001 
L 138.800705 -180.989746 
L 138.804123 -176.53149 
L 138.808433 -172.073235 
L 138.814115 -167.61498 
L 138.822419 -163.156725 
L 138.835422 -158.698469 
L 138.855783 -154.240214 
L 138.886128 -149.781959 
L 138.928137 -145.323703 
L 138.981521 -140.865448 
L 139.043195 -136.407193 
L 139.106994 -131.948938 
L 139.164177 -127.490682 
L 139.204811 -123.032427 
L 139.21979 -118.574172 
L 139.202993 -114.115916 
L 139.152934 -109.657661 
L 139.073331 -105.199406 
L 138.972374 -100.741151 
L 138.860893 -96.282895 
L 138.750007 -91.82464 
L 138.648995 -87.366385 
L 138.563927 -82.908129 
L 138.497317 -78.449874 
L 138.448638 -73.991619 
L 138.415351 -69.533364 
z
" id="mc84d4f1a15" style="stroke:#373737;stroke-width:1.5;"/>
    </defs>
    <g clip-path="url(#pb7738f61d5)">
     <use style="fill:#2b8e70;stroke:#373737;stroke-width:1.5;" x="0" xlink:href="#mc84d4f1a15" y="540.169"/>
    </g>
   </g>
   <g id="PolyCollection_2">
    <defs>
     <path d="M 271.509501 -81.157232 
L 271.339709 -81.157232 
L 271.277288 -84.43851 
L 271.184304 -87.719788 
L 271.055877 -91.001066 
L 270.891902 -94.282345 
L 270.699213 -97.563623 
L 270.492268 -100.844901 
L 270.29154 -104.126179 
L 270.119635 -107.407457 
L 269.996134 -110.688735 
L 269.932897 -113.970014 
L 269.931478 -117.251292 
L 269.983504 -120.53257 
L 270.073661 -123.813848 
L 270.183996 -127.095126 
L 270.297982 -130.376404 
L 270.403201 -133.657683 
L 270.492294 -136.938961 
L 270.562476 -140.220239 
L 270.614284 -143.501517 
L 270.650182 -146.782795 
L 270.673417 -150.064074 
L 270.687274 -153.345352 
L 270.694705 -156.62663 
L 270.698235 -159.907908 
L 270.700026 -163.189186 
L 270.701988 -166.470464 
L 270.705846 -169.751743 
L 270.713092 -173.033021 
L 270.724839 -176.314299 
L 270.741619 -179.595577 
L 270.763244 -182.876855 
L 270.788788 -186.158133 
L 270.816744 -189.439412 
L 270.845289 -192.72069 
L 270.872611 -196.001968 
L 270.897189 -199.283246 
L 270.917999 -202.564524 
L 270.93461 -205.845802 
L 270.947175 -209.127081 
L 270.956342 -212.408359 
L 270.963077 -215.689637 
L 270.968461 -218.970915 
L 270.973495 -222.252193 
L 270.978975 -225.533471 
L 270.985451 -228.81475 
L 270.993268 -232.096028 
L 271.002629 -235.377306 
L 271.013649 -238.658584 
L 271.026355 -241.939862 
L 271.040658 -245.221141 
L 271.056332 -248.502419 
L 271.073032 -251.783697 
L 271.090363 -255.064975 
L 271.107977 -258.346253 
L 271.125659 -261.627531 
L 271.143351 -264.90881 
L 271.161111 -268.190088 
L 271.179005 -271.471366 
L 271.196989 -274.752644 
L 271.21483 -278.033922 
L 271.232101 -281.3152 
L 271.248257 -284.596479 
L 271.262752 -287.877757 
L 271.275164 -291.159035 
L 271.285277 -294.440313 
L 271.293109 -297.721591 
L 271.298886 -301.002869 
L 271.302977 -304.284148 
L 271.305811 -307.565426 
L 271.307785 -310.846704 
L 271.309201 -314.127982 
L 271.31023 -317.40926 
L 271.310925 -320.690538 
L 271.311279 -323.971817 
L 271.311291 -327.253095 
L 271.311029 -330.534373 
L 271.310641 -333.815651 
L 271.310341 -337.096929 
L 271.310365 -340.378208 
L 271.310933 -343.659486 
L 271.312227 -346.940764 
L 271.31439 -350.222042 
L 271.317534 -353.50332 
L 271.321745 -356.784598 
L 271.327088 -360.065877 
L 271.333594 -363.347155 
L 271.34124 -366.628433 
L 271.349917 -369.909711 
L 271.35941 -373.190989 
L 271.369381 -376.472267 
L 271.379396 -379.753546 
L 271.388977 -383.034824 
L 271.397673 -386.316102 
L 271.405141 -389.59738 
L 271.411196 -392.878658 
L 271.415821 -396.159936 
L 271.419146 -399.441215 
L 271.421392 -402.722493 
L 271.422817 -406.003771 
L 271.426393 -406.003771 
L 271.426393 -406.003771 
L 271.427818 -402.722493 
L 271.430064 -399.441215 
L 271.433389 -396.159936 
L 271.438014 -392.878658 
L 271.444069 -389.59738 
L 271.451537 -386.316102 
L 271.460233 -383.034824 
L 271.469814 -379.753546 
L 271.479829 -376.472267 
L 271.4898 -373.190989 
L 271.499293 -369.909711 
L 271.50797 -366.628433 
L 271.515616 -363.347155 
L 271.522122 -360.065877 
L 271.527465 -356.784598 
L 271.531676 -353.50332 
L 271.53482 -350.222042 
L 271.536983 -346.940764 
L 271.538277 -343.659486 
L 271.538845 -340.378208 
L 271.538869 -337.096929 
L 271.538569 -333.815651 
L 271.538181 -330.534373 
L 271.537919 -327.253095 
L 271.537931 -323.971817 
L 271.538285 -320.690538 
L 271.53898 -317.40926 
L 271.540009 -314.127982 
L 271.541425 -310.846704 
L 271.543399 -307.565426 
L 271.546233 -304.284148 
L 271.550324 -301.002869 
L 271.556101 -297.721591 
L 271.563933 -294.440313 
L 271.574046 -291.159035 
L 271.586458 -287.877757 
L 271.600953 -284.596479 
L 271.617109 -281.3152 
L 271.63438 -278.033922 
L 271.652221 -274.752644 
L 271.670205 -271.471366 
L 271.688099 -268.190088 
L 271.705859 -264.90881 
L 271.723551 -261.627531 
L 271.741233 -258.346253 
L 271.758847 -255.064975 
L 271.776178 -251.783697 
L 271.792878 -248.502419 
L 271.808552 -245.221141 
L 271.822855 -241.939862 
L 271.835561 -238.658584 
L 271.846581 -235.377306 
L 271.855942 -232.096028 
L 271.863759 -228.81475 
L 271.870235 -225.533471 
L 271.875715 -222.252193 
L 271.880749 -218.970915 
L 271.886133 -215.689637 
L 271.892868 -212.408359 
L 271.902035 -209.127081 
L 271.9146 -205.845802 
L 271.931211 -202.564524 
L 271.952021 -199.283246 
L 271.976599 -196.001968 
L 272.003921 -192.72069 
L 272.032466 -189.439412 
L 272.060422 -186.158133 
L 272.085966 -182.876855 
L 272.107591 -179.595577 
L 272.124371 -176.314299 
L 272.136118 -173.033021 
L 272.143364 -169.751743 
L 272.147222 -166.470464 
L 272.149184 -163.189186 
L 272.150975 -159.907908 
L 272.154505 -156.62663 
L 272.161936 -153.345352 
L 272.175793 -150.064074 
L 272.199028 -146.782795 
L 272.234926 -143.501517 
L 272.286734 -140.220239 
L 272.356916 -136.938961 
L 272.446009 -133.657683 
L 272.551228 -130.376404 
L 272.665214 -127.095126 
L 272.775549 -123.813848 
L 272.865706 -120.53257 
L 272.917732 -117.251292 
L 272.916313 -113.970014 
L 272.853076 -110.688735 
L 272.729575 -107.407457 
L 272.55767 -104.126179 
L 272.356942 -100.844901 
L 272.149997 -97.563623 
L 271.957308 -94.282345 
L 271.793333 -91.001066 
L 271.664906 -87.719788 
L 271.571922 -84.43851 
L 271.509501 -81.157232 
z
" id="m11e9cf0333" style="stroke:#373737;stroke-width:1.5;"/>
    </defs>
    <g clip-path="url(#pb7738f61d5)">
     <use style="fill:#be631d;stroke:#373737;stroke-width:1.5;" x="0" xlink:href="#m11e9cf0333" y="540.169"/>
    </g>
   </g>
   <g id="PolyCollection_3">
    <defs>
     <path d="M 410.599508 -105.953055 
L 398.365842 -105.953055 
L 394.84834 -106.031388 
L 390.146501 -106.109721 
L 384.31719 -106.188054 
L 377.646276 -106.266387 
L 370.649117 -106.34472 
L 363.994777 -106.423053 
L 358.361992 -106.501386 
L 354.268796 -106.579719 
L 351.938736 -106.658053 
L 351.259447 -106.736386 
L 351.852587 -106.814719 
L 353.224258 -106.893052 
L 354.928471 -106.971385 
L 356.674166 -107.049718 
L 358.340329 -107.128051 
L 359.914181 -107.206384 
L 361.404833 -107.284717 
L 362.788531 -107.36305 
L 364.012119 -107.441384 
L 365.039491 -107.519717 
L 365.898539 -107.59805 
L 366.689303 -107.676383 
L 367.543298 -107.754716 
L 368.558324 -107.833049 
L 369.749856 -107.911382 
L 371.049158 -107.989715 
L 372.348115 -108.068048 
L 373.56182 -108.146382 
L 374.670587 -108.224715 
L 375.718241 -108.303048 
L 376.772092 -108.381381 
L 377.873153 -108.459714 
L 379.008612 -108.538047 
L 380.121735 -108.61638 
L 381.149403 -108.694713 
L 382.060866 -108.773046 
L 382.872855 -108.851379 
L 383.633464 -108.929713 
L 384.387897 -109.008046 
L 385.149755 -109.086379 
L 385.896004 -109.164712 
L 386.586994 -109.243045 
L 387.196456 -109.321378 
L 387.730993 -109.399711 
L 388.226798 -109.478044 
L 388.727008 -109.556377 
L 389.255515 -109.63471 
L 389.804437 -109.713044 
L 390.342619 -109.791377 
L 390.838491 -109.86971 
L 391.281783 -109.948043 
L 391.690233 -110.026376 
L 392.097852 -110.104709 
L 392.53335 -110.183042 
L 393.003037 -110.261375 
L 393.48879 -110.339708 
L 393.961448 -110.418042 
L 394.4002 -110.496375 
L 394.805391 -110.574708 
L 395.197163 -110.653041 
L 395.601734 -110.731374 
L 396.034663 -110.809707 
L 396.491584 -110.88804 
L 396.951403 -110.966373 
L 397.388927 -111.044706 
L 397.788402 -111.123039 
L 398.149843 -111.201373 
L 398.485293 -111.279706 
L 398.808649 -111.358039 
L 399.126167 -111.436372 
L 399.433458 -111.514705 
L 399.719965 -111.593038 
L 399.977089 -111.671371 
L 400.204267 -111.749704 
L 400.409248 -111.828037 
L 400.602995 -111.90637 
L 400.793008 -111.984704 
L 400.979557 -112.063037 
L 401.15695 -112.14137 
L 401.318551 -112.219703 
L 401.461961 -112.298036 
L 401.590992 -112.376369 
L 401.713478 -112.454702 
L 401.836729 -112.533035 
L 401.963838 -112.611368 
L 402.093261 -112.689702 
L 402.221782 -112.768035 
L 402.348757 -112.846368 
L 402.478774 -112.924701 
L 402.620892 -113.003034 
L 402.78477 -113.081367 
L 402.975738 -113.1597 
L 403.191405 -113.238033 
L 403.421406 -113.316366 
L 403.650255 -113.394699 
L 403.861811 -113.473033 
L 404.043445 -113.551366 
L 404.188446 -113.629699 
L 404.296261 -113.708032 
L 404.669089 -113.708032 
L 404.669089 -113.708032 
L 404.776904 -113.629699 
L 404.921905 -113.551366 
L 405.103539 -113.473033 
L 405.315095 -113.394699 
L 405.543944 -113.316366 
L 405.773945 -113.238033 
L 405.989612 -113.1597 
L 406.18058 -113.081367 
L 406.344458 -113.003034 
L 406.486576 -112.924701 
L 406.616593 -112.846368 
L 406.743568 -112.768035 
L 406.872089 -112.689702 
L 407.001512 -112.611368 
L 407.128621 -112.533035 
L 407.251872 -112.454702 
L 407.374358 -112.376369 
L 407.503389 -112.298036 
L 407.646799 -112.219703 
L 407.8084 -112.14137 
L 407.985793 -112.063037 
L 408.172342 -111.984704 
L 408.362355 -111.90637 
L 408.556102 -111.828037 
L 408.761083 -111.749704 
L 408.988261 -111.671371 
L 409.245385 -111.593038 
L 409.531892 -111.514705 
L 409.839183 -111.436372 
L 410.156701 -111.358039 
L 410.480057 -111.279706 
L 410.815507 -111.201373 
L 411.176948 -111.123039 
L 411.576423 -111.044706 
L 412.013947 -110.966373 
L 412.473766 -110.88804 
L 412.930687 -110.809707 
L 413.363616 -110.731374 
L 413.768187 -110.653041 
L 414.159959 -110.574708 
L 414.56515 -110.496375 
L 415.003902 -110.418042 
L 415.47656 -110.339708 
L 415.962313 -110.261375 
L 416.432 -110.183042 
L 416.867498 -110.104709 
L 417.275117 -110.026376 
L 417.683567 -109.948043 
L 418.126859 -109.86971 
L 418.622731 -109.791377 
L 419.160913 -109.713044 
L 419.709835 -109.63471 
L 420.238342 -109.556377 
L 420.738552 -109.478044 
L 421.234357 -109.399711 
L 421.768894 -109.321378 
L 422.378356 -109.243045 
L 423.069346 -109.164712 
L 423.815595 -109.086379 
L 424.577453 -109.008046 
L 425.331886 -108.929713 
L 426.092495 -108.851379 
L 426.904484 -108.773046 
L 427.815947 -108.694713 
L 428.843615 -108.61638 
L 429.956738 -108.538047 
L 431.092197 -108.459714 
L 432.193258 -108.381381 
L 433.247109 -108.303048 
L 434.294763 -108.224715 
L 435.40353 -108.146382 
L 436.617235 -108.068048 
L 437.916192 -107.989715 
L 439.215494 -107.911382 
L 440.407026 -107.833049 
L 441.422052 -107.754716 
L 442.276047 -107.676383 
L 443.066811 -107.59805 
L 443.925859 -107.519717 
L 444.953231 -107.441384 
L 446.176819 -107.36305 
L 447.560517 -107.284717 
L 449.051169 -107.206384 
L 450.625021 -107.128051 
L 452.291184 -107.049718 
L 454.036879 -106.971385 
L 455.741092 -106.893052 
L 457.112763 -106.814719 
L 457.705903 -106.736386 
L 457.026614 -106.658053 
L 454.696554 -106.579719 
L 450.603358 -106.501386 
L 444.970573 -106.423053 
L 438.316233 -106.34472 
L 431.319074 -106.266387 
L 424.64816 -106.188054 
L 418.818849 -106.109721 
L 414.11701 -106.031388 
L 410.599508 -105.953055 
z
" id="md64d52dacc" style="stroke:#373737;stroke-width:1.5;"/>
    </defs>
    <g clip-path="url(#pb7738f61d5)">
     <use style="fill:#7c78ab;stroke:#373737;stroke-width:1.5;" x="0" xlink:href="#md64d52dacc" y="540.169"/>
    </g>
   </g>
   <g id="PolyCollection_4">
    <defs>
     <path d="M 538.015179 -100.397379 
L 537.066311 -100.397379 
L 536.740849 -101.192347 
L 536.271314 -101.987315 
L 535.642557 -102.782283 
L 534.862987 -103.577251 
L 533.971375 -104.372219 
L 533.036152 -105.167187 
L 532.14534 -105.962155 
L 531.389041 -106.757123 
L 530.839865 -107.552091 
L 530.537994 -108.347059 
L 530.485734 -109.142027 
L 530.652384 -109.936995 
L 530.986195 -110.731963 
L 531.428222 -111.526931 
L 531.923497 -112.321899 
L 532.427382 -113.116867 
L 532.907411 -113.911835 
L 533.342339 -114.706803 
L 533.720152 -115.501771 
L 534.036109 -116.29674 
L 534.291106 -117.091708 
L 534.490268 -117.886676 
L 534.641588 -118.681644 
L 534.754591 -119.476612 
L 534.839075 -120.27158 
L 534.904061 -121.066548 
L 534.957056 -121.861516 
L 535.003705 -122.656484 
L 535.047876 -123.451452 
L 535.0921 -124.24642 
L 535.138174 -125.041388 
L 535.187679 -125.836356 
L 535.242152 -126.631324 
L 535.302878 -127.426292 
L 535.370421 -128.22126 
L 535.444219 -129.016228 
L 535.522506 -129.811196 
L 535.602666 -130.606164 
L 535.681876 -131.401133 
L 535.757762 -132.196101 
L 535.828808 -132.991069 
L 535.894404 -133.786037 
L 535.95465 -134.581005 
L 536.010059 -135.375973 
L 536.061375 -136.170941 
L 536.109525 -136.965909 
L 536.155656 -137.760877 
L 536.201118 -138.555845 
L 536.247308 -139.350813 
L 536.295387 -140.145781 
L 536.345981 -140.940749 
L 536.399021 -141.735717 
L 536.453818 -142.530685 
L 536.509342 -143.325653 
L 536.564579 -144.120621 
L 536.6188 -144.915589 
L 536.671638 -145.710557 
L 536.722956 -146.505525 
L 536.772612 -147.300494 
L 536.820256 -148.095462 
L 536.865245 -148.89043 
L 536.906717 -149.685398 
L 536.943785 -150.480366 
L 536.975772 -151.275334 
L 537.002414 -152.070302 
L 537.023991 -152.86527 
L 537.041352 -153.660238 
L 537.055847 -154.455206 
L 537.069156 -155.250174 
L 537.083041 -156.045142 
L 537.099054 -156.84011 
L 537.118257 -157.635078 
L 537.141022 -158.430046 
L 537.166981 -159.225014 
L 537.195123 -160.019982 
L 537.224011 -160.81495 
L 537.252063 -161.609918 
L 537.277816 -162.404886 
L 537.30016 -163.199855 
L 537.3185 -163.994823 
L 537.332848 -164.789791 
L 537.343827 -165.584759 
L 537.352575 -166.379727 
L 537.360541 -167.174695 
L 537.369208 -167.969663 
L 537.379793 -168.764631 
L 537.392999 -169.559599 
L 537.408881 -170.354567 
L 537.426874 -171.149535 
L 537.445953 -171.944503 
L 537.464889 -172.739471 
L 537.482516 -173.534439 
L 537.497941 -174.329407 
L 537.510657 -175.124375 
L 537.520546 -175.919343 
L 537.527811 -176.714311 
L 537.532854 -177.509279 
L 537.536165 -178.304247 
L 537.538218 -179.099216 
L 537.543272 -179.099216 
L 537.543272 -179.099216 
L 537.545325 -178.304247 
L 537.548636 -177.509279 
L 537.553679 -176.714311 
L 537.560944 -175.919343 
L 537.570833 -175.124375 
L 537.583549 -174.329407 
L 537.598974 -173.534439 
L 537.616601 -172.739471 
L 537.635537 -171.944503 
L 537.654616 -171.149535 
L 537.672609 -170.354567 
L 537.688491 -169.559599 
L 537.701697 -168.764631 
L 537.712282 -167.969663 
L 537.720949 -167.174695 
L 537.728915 -166.379727 
L 537.737663 -165.584759 
L 537.748642 -164.789791 
L 537.76299 -163.994823 
L 537.78133 -163.199855 
L 537.803674 -162.404886 
L 537.829427 -161.609918 
L 537.857479 -160.81495 
L 537.886367 -160.019982 
L 537.914509 -159.225014 
L 537.940468 -158.430046 
L 537.963233 -157.635078 
L 537.982436 -156.84011 
L 537.998449 -156.045142 
L 538.012334 -155.250174 
L 538.025643 -154.455206 
L 538.040138 -153.660238 
L 538.057499 -152.86527 
L 538.079076 -152.070302 
L 538.105718 -151.275334 
L 538.137705 -150.480366 
L 538.174773 -149.685398 
L 538.216245 -148.89043 
L 538.261234 -148.095462 
L 538.308878 -147.300494 
L 538.358534 -146.505525 
L 538.409852 -145.710557 
L 538.46269 -144.915589 
L 538.516911 -144.120621 
L 538.572148 -143.325653 
L 538.627672 -142.530685 
L 538.682469 -141.735717 
L 538.735509 -140.940749 
L 538.786103 -140.145781 
L 538.834182 -139.350813 
L 538.880372 -138.555845 
L 538.925834 -137.760877 
L 538.971965 -136.965909 
L 539.020115 -136.170941 
L 539.071431 -135.375973 
L 539.12684 -134.581005 
L 539.187086 -133.786037 
L 539.252682 -132.991069 
L 539.323728 -132.196101 
L 539.399614 -131.401133 
L 539.478824 -130.606164 
L 539.558984 -129.811196 
L 539.637271 -129.016228 
L 539.711069 -128.22126 
L 539.778612 -127.426292 
L 539.839338 -126.631324 
L 539.893811 -125.836356 
L 539.943316 -125.041388 
L 539.98939 -124.24642 
L 540.033614 -123.451452 
L 540.077785 -122.656484 
L 540.124434 -121.861516 
L 540.177429 -121.066548 
L 540.242415 -120.27158 
L 540.326899 -119.476612 
L 540.439902 -118.681644 
L 540.591222 -117.886676 
L 540.790384 -117.091708 
L 541.045381 -116.29674 
L 541.361338 -115.501771 
L 541.739151 -114.706803 
L 542.174079 -113.911835 
L 542.654108 -113.116867 
L 543.157993 -112.321899 
L 543.653268 -111.526931 
L 544.095295 -110.731963 
L 544.429106 -109.936995 
L 544.595756 -109.142027 
L 544.543496 -108.347059 
L 544.241625 -107.552091 
L 543.692449 -106.757123 
L 542.93615 -105.962155 
L 542.045338 -105.167187 
L 541.110115 -104.372219 
L 540.218503 -103.577251 
L 539.438933 -102.782283 
L 538.810176 -101.987315 
L 538.340641 -101.192347 
L 538.015179 -100.397379 
z
" id="ma5c12301bd" style="stroke:#373737;stroke-width:1.5;"/>
    </defs>
    <g clip-path="url(#pb7738f61d5)">
     <use style="fill:#cf418a;stroke:#373737;stroke-width:1.5;" x="0" xlink:href="#ma5c12301bd" y="540.169"/>
    </g>
   </g>
   <g id="PolyCollection_5">
    <defs>
     <path d="M 671.237465 -100.461815 
L 669.960165 -100.461815 
L 669.634579 -101.095494 
L 669.200669 -101.729172 
L 668.651082 -102.36285 
L 667.9908 -102.996529 
L 667.240376 -103.630207 
L 666.436702 -104.263885 
L 665.630408 -104.897564 
L 664.879808 -105.531242 
L 664.242338 -106.16492 
L 663.765315 -106.798599 
L 663.478225 -107.432277 
L 663.388479 -108.065955 
L 663.481564 -108.699633 
L 663.725336 -109.333312 
L 664.077051 -109.96699 
L 664.491165 -110.600668 
L 664.926034 -111.234347 
L 665.348309 -111.868025 
L 665.734692 -112.501703 
L 666.07152 -113.135382 
L 666.353039 -113.76906 
L 666.579279 -114.402738 
L 666.754123 -115.036417 
L 666.883837 -115.670095 
L 666.976011 -116.303773 
L 667.038744 -116.937451 
L 667.07993 -117.57113 
L 667.106627 -118.204808 
L 667.124577 -118.838486 
L 667.137966 -119.472165 
L 667.1495 -120.105843 
L 667.160743 -120.739521 
L 667.172625 -121.3732 
L 667.185957 -122.006878 
L 667.201827 -122.640556 
L 667.22182 -123.274234 
L 667.248046 -123.907913 
L 667.283035 -124.541591 
L 667.329527 -125.175269 
L 667.390197 -125.808948 
L 667.467324 -126.442626 
L 667.562405 -127.076304 
L 667.675784 -127.709983 
L 667.806368 -128.343661 
L 667.951545 -128.977339 
L 668.107393 -129.611018 
L 668.269158 -130.244696 
L 668.431936 -130.878374 
L 668.591367 -131.512052 
L 668.744174 -132.145731 
L 668.888399 -132.779409 
L 669.023321 -133.413087 
L 669.149094 -134.046766 
L 669.266273 -134.680444 
L 669.375358 -135.314122 
L 669.476492 -135.947801 
L 669.569354 -136.581479 
L 669.653251 -137.215157 
L 669.727335 -137.848836 
L 669.790891 -138.482514 
L 669.843603 -139.116192 
L 669.88576 -139.74987 
L 669.918355 -140.383549 
L 669.943048 -141.017227 
L 669.962004 -141.650905 
L 669.97762 -142.284584 
L 669.992192 -142.918262 
L 670.007588 -143.55194 
L 670.025002 -144.185619 
L 670.044849 -144.819297 
L 670.066815 -145.452975 
L 670.090058 -146.086654 
L 670.113491 -146.720332 
L 670.136093 -147.35401 
L 670.157153 -147.987688 
L 670.176404 -148.621367 
L 670.19403 -149.255045 
L 670.210554 -149.888723 
L 670.226652 -150.522402 
L 670.242967 -151.15608 
L 670.259964 -151.789758 
L 670.277864 -152.423437 
L 670.296676 -153.057115 
L 670.316281 -153.690793 
L 670.336543 -154.324471 
L 670.357376 -154.95815 
L 670.37877 -155.591828 
L 670.400736 -156.225506 
L 670.423223 -156.859185 
L 670.446037 -157.492863 
L 670.46879 -158.126541 
L 670.490927 -158.76022 
L 670.511796 -159.393898 
L 670.530766 -160.027576 
L 670.547332 -160.661255 
L 670.5612 -161.294933 
L 670.572312 -161.928611 
L 670.580828 -162.562289 
L 670.587066 -163.195968 
L 670.610564 -163.195968 
L 670.610564 -163.195968 
L 670.616802 -162.562289 
L 670.625318 -161.928611 
L 670.63643 -161.294933 
L 670.650298 -160.661255 
L 670.666864 -160.027576 
L 670.685834 -159.393898 
L 670.706703 -158.76022 
L 670.72884 -158.126541 
L 670.751593 -157.492863 
L 670.774407 -156.859185 
L 670.796894 -156.225506 
L 670.81886 -155.591828 
L 670.840254 -154.95815 
L 670.861087 -154.324471 
L 670.881349 -153.690793 
L 670.900954 -153.057115 
L 670.919766 -152.423437 
L 670.937666 -151.789758 
L 670.954663 -151.15608 
L 670.970978 -150.522402 
L 670.987076 -149.888723 
L 671.0036 -149.255045 
L 671.021226 -148.621367 
L 671.040477 -147.987688 
L 671.061537 -147.35401 
L 671.084139 -146.720332 
L 671.107572 -146.086654 
L 671.130815 -145.452975 
L 671.152781 -144.819297 
L 671.172628 -144.185619 
L 671.190042 -143.55194 
L 671.205438 -142.918262 
L 671.22001 -142.284584 
L 671.235626 -141.650905 
L 671.254582 -141.017227 
L 671.279275 -140.383549 
L 671.31187 -139.74987 
L 671.354027 -139.116192 
L 671.406739 -138.482514 
L 671.470295 -137.848836 
L 671.544379 -137.215157 
L 671.628276 -136.581479 
L 671.721138 -135.947801 
L 671.822272 -135.314122 
L 671.931357 -134.680444 
L 672.048536 -134.046766 
L 672.174309 -133.413087 
L 672.309231 -132.779409 
L 672.453456 -132.145731 
L 672.606263 -131.512052 
L 672.765694 -130.878374 
L 672.928472 -130.244696 
L 673.090237 -129.611018 
L 673.246085 -128.977339 
L 673.391262 -128.343661 
L 673.521846 -127.709983 
L 673.635225 -127.076304 
L 673.730306 -126.442626 
L 673.807433 -125.808948 
L 673.868103 -125.175269 
L 673.914595 -124.541591 
L 673.949584 -123.907913 
L 673.97581 -123.274234 
L 673.995803 -122.640556 
L 674.011673 -122.006878 
L 674.025005 -121.3732 
L 674.036887 -120.739521 
L 674.04813 -120.105843 
L 674.059664 -119.472165 
L 674.073053 -118.838486 
L 674.091003 -118.204808 
L 674.1177 -117.57113 
L 674.158886 -116.937451 
L 674.221619 -116.303773 
L 674.313793 -115.670095 
L 674.443507 -115.036417 
L 674.618351 -114.402738 
L 674.844591 -113.76906 
L 675.12611 -113.135382 
L 675.462938 -112.501703 
L 675.849321 -111.868025 
L 676.271596 -111.234347 
L 676.706465 -110.600668 
L 677.120579 -109.96699 
L 677.472294 -109.333312 
L 677.716066 -108.699633 
L 677.809151 -108.065955 
L 677.719405 -107.432277 
L 677.432315 -106.798599 
L 676.955292 -106.16492 
L 676.317822 -105.531242 
L 675.567222 -104.897564 
L 674.760928 -104.263885 
L 673.957254 -103.630207 
L 673.20683 -102.996529 
L 672.546548 -102.36285 
L 671.996961 -101.729172 
L 671.563051 -101.095494 
L 671.237465 -100.461815 
z
" id="me124783239" style="stroke:#373737;stroke-width:1.5;"/>
    </defs>
    <g clip-path="url(#pb7738f61d5)">
     <use style="fill:#65952f;stroke:#373737;stroke-width:1.5;" x="0" xlink:href="#me124783239" y="540.169"/>
    </g>
   </g>
   <g id="line2d_1">
    <path clip-path="url(#pb7738f61d5)" d="M 138.366535 433.564881 
L 138.366535 66.339119 
" style="fill:none;stroke:#373737;stroke-linecap:round;stroke-width:1.5;"/>
   </g>
   <g id="line2d_2">
    <path clip-path="url(#pb7738f61d5)" d="M 138.366535 411.273221 
L 138.366535 268.137301 
" style="fill:none;stroke:#373737;stroke-linecap:round;stroke-width:4.5;"/>
   </g>
   <g id="line2d_3">
    <path clip-path="url(#pb7738f61d5)" d="M 271.424605 433.564881 
L 271.424605 179.557285 
" style="fill:none;stroke:#373737;stroke-linecap:round;stroke-width:1.5;"/>
   </g>
   <g id="line2d_4">
    <path clip-path="url(#pb7738f61d5)" d="M 271.424605 423.005674 
L 271.424605 325.626318 
" style="fill:none;stroke:#373737;stroke-linecap:round;stroke-width:4.5;"/>
   </g>
   <g id="line2d_5">
    <path clip-path="url(#pb7738f61d5)" d="M 404.482675 433.564881 
L 404.482675 427.698655 
" style="fill:none;stroke:#373737;stroke-linecap:round;stroke-width:1.5;"/>
   </g>
   <g id="line2d_6">
    <path clip-path="url(#pb7738f61d5)" d="M 404.482675 433.564881 
L 404.482675 431.218391 
" style="fill:none;stroke:#373737;stroke-linecap:round;stroke-width:4.5;"/>
   </g>
   <g id="line2d_7">
    <path clip-path="url(#pb7738f61d5)" d="M 537.540745 433.564881 
L 537.540745 381.94209 
" style="fill:none;stroke:#373737;stroke-linecap:round;stroke-width:1.5;"/>
   </g>
   <g id="line2d_8">
    <path clip-path="url(#pb7738f61d5)" d="M 537.540745 431.805013 
L 537.540745 411.859844 
" style="fill:none;stroke:#373737;stroke-linecap:round;stroke-width:4.5;"/>
   </g>
   <g id="line2d_9">
    <path clip-path="url(#pb7738f61d5)" d="M 670.598815 433.564881 
L 670.598815 390.154807 
" style="fill:none;stroke:#373737;stroke-linecap:round;stroke-width:1.5;"/>
   </g>
   <g id="line2d_10">
    <path clip-path="url(#pb7738f61d5)" d="M 670.598815 432.391636 
L 670.598815 415.37958 
" style="fill:none;stroke:#373737;stroke-linecap:round;stroke-width:4.5;"/>
   </g>
   <g id="patch_3">
    <path d="M 71.8375 492.704 
L 71.8375 7.2 
" style="fill:none;stroke:#262626;stroke-linecap:square;stroke-linejoin:miter;stroke-width:0.8;"/>
   </g>
   <g id="patch_4">
    <path d="M 71.8375 492.704 
L 737.12785 492.704 
" style="fill:none;stroke:#262626;stroke-linecap:square;stroke-linejoin:miter;stroke-width:0.8;"/>
   </g>
   <g id="PathCollection_1">
    <defs>
     <path d="M 0 1.5 
C 0.397805 1.5 0.77937 1.341951 1.06066 1.06066 
C 1.341951 0.77937 1.5 0.397805 1.5 0 
C 1.5 -0.397805 1.341951 -0.77937 1.06066 -1.06066 
C 0.77937 -1.341951 0.397805 -1.5 0 -1.5 
C -0.397805 -1.5 -0.77937 -1.341951 -1.06066 -1.06066 
C -1.341951 -0.77937 -1.5 -0.397805 -1.5 0 
C -1.5 0.397805 -1.341951 0.77937 -1.06066 1.06066 
C -0.77937 1.341951 -0.397805 1.5 0 1.5 
z
" id="md97b27bb54" style="stroke:#373737;"/>
    </defs>
    <g clip-path="url(#pb7738f61d5)">
     <use style="fill:#ffffff;stroke:#373737;" x="138.366535" xlink:href="#md97b27bb54" y="330.612611"/>
    </g>
   </g>
   <g id="PathCollection_2">
    <g clip-path="url(#pb7738f61d5)">
     <use style="fill:#ffffff;stroke:#373737;" x="271.424605" xlink:href="#md97b27bb54" y="382.528713"/>
    </g>
   </g>
   <g id="PathCollection_3">
    <g clip-path="url(#pb7738f61d5)">
     <use style="fill:#ffffff;stroke:#373737;" x="404.482675" xlink:href="#md97b27bb54" y="432.391636"/>
    </g>
   </g>
   <g id="PathCollection_4">
    <g clip-path="url(#pb7738f61d5)">
     <use style="fill:#ffffff;stroke:#373737;" x="537.540745" xlink:href="#md97b27bb54" y="425.352164"/>
    </g>
   </g>
   <g id="PathCollection_5">
    <g clip-path="url(#pb7738f61d5)">
     <use style="fill:#ffffff;stroke:#373737;" x="670.598815" xlink:href="#md97b27bb54" y="425.645476"/>
    </g>
   </g>
  </g>
 </g>
 <defs>
  <clipPath id="pb7738f61d5">
   <rect height="485.504" width="665.29035" x="71.8375" y="7.2"/>
  </clipPath>
 </defs>
</svg>
