<?xml version="1.0" encoding="utf-8" standalone="no"?>
<!DOCTYPE svg PUBLIC "-//W3C//DTD SVG 1.1//EN"
  "http://www.w3.org/Graphics/SVG/1.1/DTD/svg11.dtd">
<!-- Created with matplotlib (https://matplotlib.org/) -->
<svg height="509.319pt" version="1.1" viewBox="0 0 744.7655 509.319" width="744.7655pt" xmlns="http://www.w3.org/2000/svg" xmlns:xlink="http://www.w3.org/1999/xlink">
 <defs>
  <style type="text/css">
*{stroke-linecap:butt;stroke-linejoin:round;white-space:pre;}
  </style>
 </defs>
 <g id="figure_1">
  <g id="patch_1">
   <path d="M 0 509.319 
L 744.7655 509.319 
L 744.7655 0 
L 0 0 
z
" style="fill:#ffffff;"/>
  </g>
  <g id="axes_1">
   <g id="patch_2">
    <path d="M 71.8375 461.854 
L 559.207148 461.854 
L 559.207148 7.2 
L 71.8375 7.2 
z
" style="fill:#ffffff;"/>
   </g>
   <g id="matplotlib.axis_1">
    <g id="xtick_1">
     <g id="text_1">
      <!-- 1025-116 -->
      <defs>
       <path d="M 37.25 0 
L 28.46875 0 
L 28.46875 56 
Q 25.296875 52.984375 20.140625 49.953125 
Q 14.984375 46.921875 10.890625 45.40625 
L 10.890625 53.90625 
Q 18.265625 57.375 23.78125 62.296875 
Q 29.296875 67.234375 31.59375 71.875 
L 37.25 71.875 
z
" id="ArialMT-49"/>
       <path d="M 4.15625 35.296875 
Q 4.15625 48 6.765625 55.734375 
Q 9.375 63.484375 14.515625 67.671875 
Q 19.671875 71.875 27.484375 71.875 
Q 33.25 71.875 37.59375 69.546875 
Q 41.9375 67.234375 44.765625 62.859375 
Q 47.609375 58.5 49.21875 52.21875 
Q 50.828125 45.953125 50.828125 35.296875 
Q 50.828125 22.703125 48.234375 14.96875 
Q 45.65625 7.234375 40.5 3 
Q 35.359375 -1.21875 27.484375 -1.21875 
Q 17.140625 -1.21875 11.234375 6.203125 
Q 4.15625 15.140625 4.15625 35.296875 
z
M 13.1875 35.296875 
Q 13.1875 17.671875 17.3125 11.828125 
Q 21.4375 6 27.484375 6 
Q 33.546875 6 37.671875 11.859375 
Q 41.796875 17.71875 41.796875 35.296875 
Q 41.796875 52.984375 37.671875 58.78125 
Q 33.546875 64.59375 27.390625 64.59375 
Q 21.34375 64.59375 17.71875 59.46875 
Q 13.1875 52.9375 13.1875 35.296875 
z
" id="ArialMT-48"/>
       <path d="M 50.34375 8.453125 
L 50.34375 0 
L 3.03125 0 
Q 2.9375 3.171875 4.046875 6.109375 
Q 5.859375 10.9375 9.828125 15.625 
Q 13.8125 20.3125 21.34375 26.46875 
Q 33.015625 36.03125 37.109375 41.625 
Q 41.21875 47.21875 41.21875 52.203125 
Q 41.21875 57.421875 37.46875 61 
Q 33.734375 64.59375 27.734375 64.59375 
Q 21.390625 64.59375 17.578125 60.78125 
Q 13.765625 56.984375 13.71875 50.25 
L 4.6875 51.171875 
Q 5.609375 61.28125 11.65625 66.578125 
Q 17.71875 71.875 27.9375 71.875 
Q 38.234375 71.875 44.234375 66.15625 
Q 50.25 60.453125 50.25 52 
Q 50.25 47.703125 48.484375 43.546875 
Q 46.734375 39.40625 42.65625 34.8125 
Q 38.578125 30.21875 29.109375 22.21875 
Q 21.1875 15.578125 18.9375 13.203125 
Q 16.703125 10.84375 15.234375 8.453125 
z
" id="ArialMT-50"/>
       <path d="M 4.15625 18.75 
L 13.375 19.53125 
Q 14.40625 12.796875 18.140625 9.390625 
Q 21.875 6 27.15625 6 
Q 33.5 6 37.890625 10.78125 
Q 42.28125 15.578125 42.28125 23.484375 
Q 42.28125 31 38.0625 35.34375 
Q 33.84375 39.703125 27 39.703125 
Q 22.75 39.703125 19.328125 37.765625 
Q 15.921875 35.84375 13.96875 32.765625 
L 5.71875 33.84375 
L 12.640625 70.609375 
L 48.25 70.609375 
L 48.25 62.203125 
L 19.671875 62.203125 
L 15.828125 42.96875 
Q 22.265625 47.46875 29.34375 47.46875 
Q 38.71875 47.46875 45.15625 40.96875 
Q 51.609375 34.46875 51.609375 24.265625 
Q 51.609375 14.546875 45.953125 7.46875 
Q 39.0625 -1.21875 27.15625 -1.21875 
Q 17.390625 -1.21875 11.203125 4.25 
Q 5.03125 9.71875 4.15625 18.75 
z
" id="ArialMT-53"/>
       <path d="M 3.171875 21.484375 
L 3.171875 30.328125 
L 30.171875 30.328125 
L 30.171875 21.484375 
z
" id="ArialMT-45"/>
       <path d="M 49.75 54.046875 
L 41.015625 53.375 
Q 39.84375 58.546875 37.703125 60.890625 
Q 34.125 64.65625 28.90625 64.65625 
Q 24.703125 64.65625 21.53125 62.3125 
Q 17.390625 59.28125 14.984375 53.46875 
Q 12.59375 47.65625 12.5 36.921875 
Q 15.671875 41.75 20.265625 44.09375 
Q 24.859375 46.4375 29.890625 46.4375 
Q 38.671875 46.4375 44.84375 39.96875 
Q 51.03125 33.5 51.03125 23.25 
Q 51.03125 16.5 48.125 10.71875 
Q 45.21875 4.9375 40.140625 1.859375 
Q 35.0625 -1.21875 28.609375 -1.21875 
Q 17.625 -1.21875 10.6875 6.859375 
Q 3.765625 14.9375 3.765625 33.5 
Q 3.765625 54.25 11.421875 63.671875 
Q 18.109375 71.875 29.4375 71.875 
Q 37.890625 71.875 43.28125 67.140625 
Q 48.6875 62.40625 49.75 54.046875 
z
M 13.875 23.1875 
Q 13.875 18.65625 15.796875 14.5 
Q 17.71875 10.359375 21.1875 8.171875 
Q 24.65625 6 28.46875 6 
Q 34.03125 6 38.03125 10.484375 
Q 42.046875 14.984375 42.046875 22.703125 
Q 42.046875 30.125 38.078125 34.390625 
Q 34.125 38.671875 28.125 38.671875 
Q 22.171875 38.671875 18.015625 34.390625 
Q 13.875 30.125 13.875 23.1875 
z
" id="ArialMT-54"/>
      </defs>
      <g style="fill:#262626;" transform="translate(86.778215 480.3065)scale(0.16 -0.16)">
       <use xlink:href="#ArialMT-49"/>
       <use x="55.615234" xlink:href="#ArialMT-48"/>
       <use x="111.230469" xlink:href="#ArialMT-50"/>
       <use x="166.845703" xlink:href="#ArialMT-53"/>
       <use x="222.460938" xlink:href="#ArialMT-45"/>
       <use x="255.761719" xlink:href="#ArialMT-49"/>
       <use x="311.267578" xlink:href="#ArialMT-49"/>
       <use x="366.882812" xlink:href="#ArialMT-54"/>
      </g>
     </g>
    </g>
    <g id="xtick_2">
     <g id="text_2">
      <!-- 1034-216 -->
      <defs>
       <path d="M 4.203125 18.890625 
L 12.984375 20.0625 
Q 14.5 12.59375 18.140625 9.296875 
Q 21.78125 6 27 6 
Q 33.203125 6 37.46875 10.296875 
Q 41.75 14.59375 41.75 20.953125 
Q 41.75 27 37.796875 30.921875 
Q 33.84375 34.859375 27.734375 34.859375 
Q 25.25 34.859375 21.53125 33.890625 
L 22.515625 41.609375 
Q 23.390625 41.5 23.921875 41.5 
Q 29.546875 41.5 34.03125 44.421875 
Q 38.53125 47.359375 38.53125 53.46875 
Q 38.53125 58.296875 35.25 61.46875 
Q 31.984375 64.65625 26.8125 64.65625 
Q 21.6875 64.65625 18.265625 61.421875 
Q 14.84375 58.203125 13.875 51.765625 
L 5.078125 53.328125 
Q 6.6875 62.15625 12.390625 67.015625 
Q 18.109375 71.875 26.609375 71.875 
Q 32.46875 71.875 37.390625 69.359375 
Q 42.328125 66.84375 44.9375 62.5 
Q 47.5625 58.15625 47.5625 53.265625 
Q 47.5625 48.640625 45.0625 44.828125 
Q 42.578125 41.015625 37.703125 38.765625 
Q 44.046875 37.3125 47.5625 32.6875 
Q 51.078125 28.078125 51.078125 21.140625 
Q 51.078125 11.765625 44.234375 5.25 
Q 37.40625 -1.265625 26.953125 -1.265625 
Q 17.53125 -1.265625 11.296875 4.34375 
Q 5.078125 9.96875 4.203125 18.890625 
z
" id="ArialMT-51"/>
       <path d="M 32.328125 0 
L 32.328125 17.140625 
L 1.265625 17.140625 
L 1.265625 25.203125 
L 33.9375 71.578125 
L 41.109375 71.578125 
L 41.109375 25.203125 
L 50.78125 25.203125 
L 50.78125 17.140625 
L 41.109375 17.140625 
L 41.109375 0 
z
M 32.328125 25.203125 
L 32.328125 57.46875 
L 9.90625 25.203125 
z
" id="ArialMT-52"/>
      </defs>
      <g style="fill:#262626;" transform="translate(184.243394 480.3065)scale(0.16 -0.16)">
       <use xlink:href="#ArialMT-49"/>
       <use x="55.615234" xlink:href="#ArialMT-48"/>
       <use x="111.230469" xlink:href="#ArialMT-51"/>
       <use x="166.845703" xlink:href="#ArialMT-52"/>
       <use x="222.460938" xlink:href="#ArialMT-45"/>
       <use x="255.761719" xlink:href="#ArialMT-50"/>
       <use x="311.376953" xlink:href="#ArialMT-49"/>
       <use x="366.992188" xlink:href="#ArialMT-54"/>
      </g>
     </g>
    </g>
    <g id="xtick_3">
     <g id="text_3">
      <!-- 1034-216-1 -->
      <g style="fill:#262626;" transform="translate(274.604824 480.3065)scale(0.16 -0.16)">
       <use xlink:href="#ArialMT-49"/>
       <use x="55.615234" xlink:href="#ArialMT-48"/>
       <use x="111.230469" xlink:href="#ArialMT-51"/>
       <use x="166.845703" xlink:href="#ArialMT-52"/>
       <use x="222.460938" xlink:href="#ArialMT-45"/>
       <use x="255.761719" xlink:href="#ArialMT-50"/>
       <use x="311.376953" xlink:href="#ArialMT-49"/>
       <use x="366.992188" xlink:href="#ArialMT-54"/>
       <use x="422.607422" xlink:href="#ArialMT-45"/>
       <use x="455.908203" xlink:href="#ArialMT-49"/>
      </g>
     </g>
    </g>
    <g id="xtick_4">
     <g id="text_4">
      <!-- 1035-136 -->
      <g style="fill:#262626;" transform="translate(379.191254 480.3065)scale(0.16 -0.16)">
       <use xlink:href="#ArialMT-49"/>
       <use x="55.615234" xlink:href="#ArialMT-48"/>
       <use x="111.230469" xlink:href="#ArialMT-51"/>
       <use x="166.845703" xlink:href="#ArialMT-53"/>
       <use x="222.460938" xlink:href="#ArialMT-45"/>
       <use x="255.761719" xlink:href="#ArialMT-49"/>
       <use x="311.376953" xlink:href="#ArialMT-51"/>
       <use x="366.992188" xlink:href="#ArialMT-54"/>
      </g>
     </g>
    </g>
    <g id="xtick_5">
     <g id="text_5">
      <!-- 1038-276 -->
      <defs>
       <path d="M 17.671875 38.8125 
Q 12.203125 40.828125 9.5625 44.53125 
Q 6.9375 48.25 6.9375 53.421875 
Q 6.9375 61.234375 12.546875 66.546875 
Q 18.171875 71.875 27.484375 71.875 
Q 36.859375 71.875 42.578125 66.421875 
Q 48.296875 60.984375 48.296875 53.171875 
Q 48.296875 48.1875 45.671875 44.5 
Q 43.0625 40.828125 37.75 38.8125 
Q 44.34375 36.671875 47.78125 31.875 
Q 51.21875 27.09375 51.21875 20.453125 
Q 51.21875 11.28125 44.71875 5.03125 
Q 38.234375 -1.21875 27.640625 -1.21875 
Q 17.046875 -1.21875 10.546875 5.046875 
Q 4.046875 11.328125 4.046875 20.703125 
Q 4.046875 27.6875 7.59375 32.390625 
Q 11.140625 37.109375 17.671875 38.8125 
z
M 15.921875 53.71875 
Q 15.921875 48.640625 19.1875 45.40625 
Q 22.46875 42.1875 27.6875 42.1875 
Q 32.765625 42.1875 36.015625 45.375 
Q 39.265625 48.578125 39.265625 53.21875 
Q 39.265625 58.0625 35.90625 61.359375 
Q 32.5625 64.65625 27.59375 64.65625 
Q 22.5625 64.65625 19.234375 61.421875 
Q 15.921875 58.203125 15.921875 53.71875 
z
M 13.09375 20.65625 
Q 13.09375 16.890625 14.875 13.375 
Q 16.65625 9.859375 20.171875 7.921875 
Q 23.6875 6 27.734375 6 
Q 34.03125 6 38.125 10.046875 
Q 42.234375 14.109375 42.234375 20.359375 
Q 42.234375 26.703125 38.015625 30.859375 
Q 33.796875 35.015625 27.4375 35.015625 
Q 21.234375 35.015625 17.15625 30.90625 
Q 13.09375 26.8125 13.09375 20.65625 
z
" id="ArialMT-56"/>
       <path d="M 4.734375 62.203125 
L 4.734375 70.65625 
L 51.078125 70.65625 
L 51.078125 63.8125 
Q 44.234375 56.546875 37.515625 44.484375 
Q 30.8125 32.421875 27.15625 19.671875 
Q 24.515625 10.6875 23.78125 0 
L 14.75 0 
Q 14.890625 8.453125 18.0625 20.40625 
Q 21.234375 32.375 27.171875 43.484375 
Q 33.109375 54.59375 39.796875 62.203125 
z
" id="ArialMT-55"/>
      </defs>
      <g style="fill:#262626;" transform="translate(476.665183 480.3065)scale(0.16 -0.16)">
       <use xlink:href="#ArialMT-49"/>
       <use x="55.615234" xlink:href="#ArialMT-48"/>
       <use x="111.230469" xlink:href="#ArialMT-51"/>
       <use x="166.845703" xlink:href="#ArialMT-56"/>
       <use x="222.460938" xlink:href="#ArialMT-45"/>
       <use x="255.761719" xlink:href="#ArialMT-50"/>
       <use x="311.376953" xlink:href="#ArialMT-55"/>
       <use x="366.992188" xlink:href="#ArialMT-54"/>
      </g>
     </g>
    </g>
    <g id="text_6">
     <!-- Counter id -->
     <defs>
      <path d="M 58.796875 25.09375 
L 68.265625 22.703125 
Q 65.28125 11.03125 57.546875 4.90625 
Q 49.8125 -1.21875 38.625 -1.21875 
Q 27.046875 -1.21875 19.796875 3.484375 
Q 12.546875 8.203125 8.765625 17.140625 
Q 4.984375 26.078125 4.984375 36.328125 
Q 4.984375 47.515625 9.25 55.828125 
Q 13.53125 64.15625 21.40625 68.46875 
Q 29.296875 72.796875 38.765625 72.796875 
Q 49.515625 72.796875 56.828125 67.328125 
Q 64.15625 61.859375 67.046875 51.953125 
L 57.71875 49.75 
Q 55.21875 57.5625 50.484375 61.125 
Q 45.75 64.703125 38.578125 64.703125 
Q 30.328125 64.703125 24.78125 60.734375 
Q 19.234375 56.78125 16.984375 50.109375 
Q 14.75 43.453125 14.75 36.375 
Q 14.75 27.25 17.40625 20.4375 
Q 20.0625 13.625 25.671875 10.25 
Q 31.296875 6.890625 37.84375 6.890625 
Q 45.796875 6.890625 51.3125 11.46875 
Q 56.84375 16.0625 58.796875 25.09375 
z
" id="ArialMT-67"/>
      <path d="M 3.328125 25.921875 
Q 3.328125 40.328125 11.328125 47.265625 
Q 18.015625 53.03125 27.640625 53.03125 
Q 38.328125 53.03125 45.109375 46.015625 
Q 51.90625 39.015625 51.90625 26.65625 
Q 51.90625 16.65625 48.90625 10.90625 
Q 45.90625 5.171875 40.15625 2 
Q 34.421875 -1.171875 27.640625 -1.171875 
Q 16.75 -1.171875 10.03125 5.8125 
Q 3.328125 12.796875 3.328125 25.921875 
z
M 12.359375 25.921875 
Q 12.359375 15.96875 16.703125 11.015625 
Q 21.046875 6.0625 27.640625 6.0625 
Q 34.1875 6.0625 38.53125 11.03125 
Q 42.875 16.015625 42.875 26.21875 
Q 42.875 35.84375 38.5 40.796875 
Q 34.125 45.75 27.640625 45.75 
Q 21.046875 45.75 16.703125 40.8125 
Q 12.359375 35.890625 12.359375 25.921875 
z
" id="ArialMT-111"/>
      <path d="M 40.578125 0 
L 40.578125 7.625 
Q 34.515625 -1.171875 24.125 -1.171875 
Q 19.53125 -1.171875 15.546875 0.578125 
Q 11.578125 2.34375 9.640625 5 
Q 7.71875 7.671875 6.9375 11.53125 
Q 6.390625 14.109375 6.390625 19.734375 
L 6.390625 51.859375 
L 15.1875 51.859375 
L 15.1875 23.09375 
Q 15.1875 16.21875 15.71875 13.8125 
Q 16.546875 10.359375 19.234375 8.375 
Q 21.921875 6.390625 25.875 6.390625 
Q 29.828125 6.390625 33.296875 8.421875 
Q 36.765625 10.453125 38.203125 13.9375 
Q 39.65625 17.4375 39.65625 24.078125 
L 39.65625 51.859375 
L 48.4375 51.859375 
L 48.4375 0 
z
" id="ArialMT-117"/>
      <path d="M 6.59375 0 
L 6.59375 51.859375 
L 14.5 51.859375 
L 14.5 44.484375 
Q 20.21875 53.03125 31 53.03125 
Q 35.6875 53.03125 39.625 51.34375 
Q 43.5625 49.65625 45.515625 46.921875 
Q 47.46875 44.1875 48.25 40.4375 
Q 48.734375 37.984375 48.734375 31.890625 
L 48.734375 0 
L 39.9375 0 
L 39.9375 31.546875 
Q 39.9375 36.921875 38.90625 39.578125 
Q 37.890625 42.234375 35.28125 43.8125 
Q 32.671875 45.40625 29.15625 45.40625 
Q 23.53125 45.40625 19.453125 41.84375 
Q 15.375 38.28125 15.375 28.328125 
L 15.375 0 
z
" id="ArialMT-110"/>
      <path d="M 25.78125 7.859375 
L 27.046875 0.09375 
Q 23.34375 -0.6875 20.40625 -0.6875 
Q 15.625 -0.6875 12.984375 0.828125 
Q 10.359375 2.34375 9.28125 4.8125 
Q 8.203125 7.28125 8.203125 15.1875 
L 8.203125 45.015625 
L 1.765625 45.015625 
L 1.765625 51.859375 
L 8.203125 51.859375 
L 8.203125 64.703125 
L 16.9375 69.96875 
L 16.9375 51.859375 
L 25.78125 51.859375 
L 25.78125 45.015625 
L 16.9375 45.015625 
L 16.9375 14.703125 
Q 16.9375 10.9375 17.40625 9.859375 
Q 17.875 8.796875 18.921875 8.15625 
Q 19.96875 7.515625 21.921875 7.515625 
Q 23.390625 7.515625 25.78125 7.859375 
z
" id="ArialMT-116"/>
      <path d="M 42.09375 16.703125 
L 51.171875 15.578125 
Q 49.03125 7.625 43.21875 3.21875 
Q 37.40625 -1.171875 28.375 -1.171875 
Q 17 -1.171875 10.328125 5.828125 
Q 3.65625 12.84375 3.65625 25.484375 
Q 3.65625 38.578125 10.390625 45.796875 
Q 17.140625 53.03125 27.875 53.03125 
Q 38.28125 53.03125 44.875 45.953125 
Q 51.46875 38.875 51.46875 26.03125 
Q 51.46875 25.25 51.421875 23.6875 
L 12.75 23.6875 
Q 13.234375 15.140625 17.578125 10.59375 
Q 21.921875 6.0625 28.421875 6.0625 
Q 33.25 6.0625 36.671875 8.59375 
Q 40.09375 11.140625 42.09375 16.703125 
z
M 13.234375 30.90625 
L 42.1875 30.90625 
Q 41.609375 37.453125 38.875 40.71875 
Q 34.671875 45.796875 27.984375 45.796875 
Q 21.921875 45.796875 17.796875 41.75 
Q 13.671875 37.703125 13.234375 30.90625 
z
" id="ArialMT-101"/>
      <path d="M 6.5 0 
L 6.5 51.859375 
L 14.40625 51.859375 
L 14.40625 44 
Q 17.4375 49.515625 20 51.265625 
Q 22.5625 53.03125 25.640625 53.03125 
Q 30.078125 53.03125 34.671875 50.203125 
L 31.640625 42.046875 
Q 28.421875 43.953125 25.203125 43.953125 
Q 22.3125 43.953125 20.015625 42.21875 
Q 17.71875 40.484375 16.75 37.40625 
Q 15.28125 32.71875 15.28125 27.15625 
L 15.28125 0 
z
" id="ArialMT-114"/>
      <path id="ArialMT-32"/>
      <path d="M 6.640625 61.46875 
L 6.640625 71.578125 
L 15.4375 71.578125 
L 15.4375 61.46875 
z
M 6.640625 0 
L 6.640625 51.859375 
L 15.4375 51.859375 
L 15.4375 0 
z
" id="ArialMT-105"/>
      <path d="M 40.234375 0 
L 40.234375 6.546875 
Q 35.296875 -1.171875 25.734375 -1.171875 
Q 19.53125 -1.171875 14.328125 2.25 
Q 9.125 5.671875 6.265625 11.796875 
Q 3.421875 17.921875 3.421875 25.875 
Q 3.421875 33.640625 6 39.96875 
Q 8.59375 46.296875 13.765625 49.65625 
Q 18.953125 53.03125 25.34375 53.03125 
Q 30.03125 53.03125 33.6875 51.046875 
Q 37.359375 49.078125 39.65625 45.90625 
L 39.65625 71.578125 
L 48.390625 71.578125 
L 48.390625 0 
z
M 12.453125 25.875 
Q 12.453125 15.921875 16.640625 10.984375 
Q 20.84375 6.0625 26.5625 6.0625 
Q 32.328125 6.0625 36.34375 10.765625 
Q 40.375 15.484375 40.375 25.140625 
Q 40.375 35.796875 36.265625 40.765625 
Q 32.171875 45.75 26.171875 45.75 
Q 20.3125 45.75 16.375 40.96875 
Q 12.453125 36.1875 12.453125 25.875 
z
" id="ArialMT-100"/>
     </defs>
     <g style="fill:#262626;" transform="translate(278.614824 498.939)scale(0.16 -0.16)">
      <use xlink:href="#ArialMT-67"/>
      <use x="72.216797" xlink:href="#ArialMT-111"/>
      <use x="127.832031" xlink:href="#ArialMT-117"/>
      <use x="183.447266" xlink:href="#ArialMT-110"/>
      <use x="239.0625" xlink:href="#ArialMT-116"/>
      <use x="266.845703" xlink:href="#ArialMT-101"/>
      <use x="322.460938" xlink:href="#ArialMT-114"/>
      <use x="355.761719" xlink:href="#ArialMT-32"/>
      <use x="383.544922" xlink:href="#ArialMT-105"/>
      <use x="405.761719" xlink:href="#ArialMT-100"/>
     </g>
    </g>
   </g>
   <g id="matplotlib.axis_2">
    <g id="ytick_1">
     <g id="text_7">
      <!-- −250 -->
      <defs>
       <path d="M 52.828125 31.203125 
L 5.5625 31.203125 
L 5.5625 39.40625 
L 52.828125 39.40625 
z
" id="ArialMT-8722"/>
      </defs>
      <g style="fill:#262626;" transform="translate(28.8 445.691276)scale(0.16 -0.16)">
       <use xlink:href="#ArialMT-8722"/>
       <use x="58.398438" xlink:href="#ArialMT-50"/>
       <use x="114.013672" xlink:href="#ArialMT-53"/>
       <use x="169.628906" xlink:href="#ArialMT-48"/>
      </g>
     </g>
    </g>
    <g id="ytick_2">
     <g id="text_8">
      <!-- 0 -->
      <g style="fill:#262626;" transform="translate(55.94 390.335072)scale(0.16 -0.16)">
       <use xlink:href="#ArialMT-48"/>
      </g>
     </g>
    </g>
    <g id="ytick_3">
     <g id="text_9">
      <!-- 250 -->
      <g style="fill:#262626;" transform="translate(38.145 334.978869)scale(0.16 -0.16)">
       <use xlink:href="#ArialMT-50"/>
       <use x="55.615234" xlink:href="#ArialMT-53"/>
       <use x="111.230469" xlink:href="#ArialMT-48"/>
      </g>
     </g>
    </g>
    <g id="ytick_4">
     <g id="text_10">
      <!-- 500 -->
      <g style="fill:#262626;" transform="translate(38.145 279.622665)scale(0.16 -0.16)">
       <use xlink:href="#ArialMT-53"/>
       <use x="55.615234" xlink:href="#ArialMT-48"/>
       <use x="111.230469" xlink:href="#ArialMT-48"/>
      </g>
     </g>
    </g>
    <g id="ytick_5">
     <g id="text_11">
      <!-- 750 -->
      <g style="fill:#262626;" transform="translate(38.145 224.266462)scale(0.16 -0.16)">
       <use xlink:href="#ArialMT-55"/>
       <use x="55.615234" xlink:href="#ArialMT-53"/>
       <use x="111.230469" xlink:href="#ArialMT-48"/>
      </g>
     </g>
    </g>
    <g id="ytick_6">
     <g id="text_12">
      <!-- 1000 -->
      <g style="fill:#262626;" transform="translate(29.2475 168.910258)scale(0.16 -0.16)">
       <use xlink:href="#ArialMT-49"/>
       <use x="55.615234" xlink:href="#ArialMT-48"/>
       <use x="111.230469" xlink:href="#ArialMT-48"/>
       <use x="166.845703" xlink:href="#ArialMT-48"/>
      </g>
     </g>
    </g>
    <g id="ytick_7">
     <g id="text_13">
      <!-- 1250 -->
      <g style="fill:#262626;" transform="translate(29.2475 113.554055)scale(0.16 -0.16)">
       <use xlink:href="#ArialMT-49"/>
       <use x="55.615234" xlink:href="#ArialMT-50"/>
       <use x="111.230469" xlink:href="#ArialMT-53"/>
       <use x="166.845703" xlink:href="#ArialMT-48"/>
      </g>
     </g>
    </g>
    <g id="ytick_8">
     <g id="text_14">
      <!-- 1500 -->
      <g style="fill:#262626;" transform="translate(29.2475 58.197852)scale(0.16 -0.16)">
       <use xlink:href="#ArialMT-49"/>
       <use x="55.615234" xlink:href="#ArialMT-53"/>
       <use x="111.230469" xlink:href="#ArialMT-48"/>
       <use x="166.845703" xlink:href="#ArialMT-48"/>
      </g>
     </g>
    </g>
    <g id="text_15">
     <!-- Count [$h^{-1}$] -->
     <defs>
      <path d="M 6.78125 -19.875 
L 6.78125 71.578125 
L 26.171875 71.578125 
L 26.171875 64.3125 
L 15.578125 64.3125 
L 15.578125 -12.59375 
L 26.171875 -12.59375 
L 26.171875 -19.875 
z
" id="ArialMT-91"/>
      <path d="M 55.71875 33.015625 
L 49.3125 0 
L 40.28125 0 
L 46.6875 32.671875 
Q 47.125 34.96875 47.359375 36.71875 
Q 47.609375 38.484375 47.609375 39.5 
Q 47.609375 43.609375 45.015625 45.890625 
Q 42.4375 48.1875 37.796875 48.1875 
Q 30.5625 48.1875 25.265625 43.296875 
Q 19.96875 38.421875 18.40625 30.328125 
L 12.5 0 
L 3.515625 0 
L 18.3125 75.984375 
L 27.296875 75.984375 
L 21.484375 46.09375 
Q 24.90625 50.6875 30.21875 53.34375 
Q 35.546875 56 41.40625 56 
Q 48.640625 56 52.609375 52.09375 
Q 56.59375 48.1875 56.59375 41.109375 
Q 56.59375 39.359375 56.375 37.359375 
Q 56.15625 35.359375 55.71875 33.015625 
z
" id="DejaVuSans-Oblique-104"/>
      <path d="M 10.59375 35.5 
L 73.1875 35.5 
L 73.1875 27.203125 
L 10.59375 27.203125 
z
" id="DejaVuSans-8722"/>
      <path d="M 12.40625 8.296875 
L 28.515625 8.296875 
L 28.515625 63.921875 
L 10.984375 60.40625 
L 10.984375 69.390625 
L 28.421875 72.90625 
L 38.28125 72.90625 
L 38.28125 8.296875 
L 54.390625 8.296875 
L 54.390625 0 
L 12.40625 0 
z
" id="DejaVuSans-49"/>
      <path d="M 21.296875 -19.875 
L 1.90625 -19.875 
L 1.90625 -12.59375 
L 12.5 -12.59375 
L 12.5 64.3125 
L 1.90625 64.3125 
L 1.90625 71.578125 
L 21.296875 71.578125 
z
" id="ArialMT-93"/>
     </defs>
     <g style="fill:#262626;" transform="translate(21.6 276.687)rotate(-90)scale(0.16 -0.16)">
      <use transform="translate(0 0.684375)" xlink:href="#ArialMT-67"/>
      <use transform="translate(72.216797 0.684375)" xlink:href="#ArialMT-111"/>
      <use transform="translate(127.832031 0.684375)" xlink:href="#ArialMT-117"/>
      <use transform="translate(183.447266 0.684375)" xlink:href="#ArialMT-110"/>
      <use transform="translate(239.0625 0.684375)" xlink:href="#ArialMT-116"/>
      <use transform="translate(266.845703 0.684375)" xlink:href="#ArialMT-32"/>
      <use transform="translate(294.628906 0.684375)" xlink:href="#ArialMT-91"/>
      <use transform="translate(322.412109 0.684375)" xlink:href="#DejaVuSans-Oblique-104"/>
      <use transform="translate(393.238724 38.965625)scale(0.7)" xlink:href="#DejaVuSans-8722"/>
      <use transform="translate(451.891068 38.965625)scale(0.7)" xlink:href="#DejaVuSans-49"/>
      <use transform="translate(499.161576 0.684375)" xlink:href="#ArialMT-93"/>
     </g>
    </g>
   </g>
   <g id="PolyCollection_1">
    <defs>
     <path d="M 101.610453 -115.627055 
L 100.548904 -115.627055 
L 100.200988 -116.682832 
L 99.692501 -117.738609 
L 98.989426 -118.794386 
L 98.070095 -119.850163 
L 96.93389 -120.90594 
L 95.607637 -121.961717 
L 94.147102 -123.017494 
L 92.632061 -124.073271 
L 91.15529 -125.129048 
L 89.807871 -126.184825 
L 88.664665 -127.240602 
L 87.77383 -128.296379 
L 87.153006 -129.352156 
L 86.792532 -130.407933 
L 86.663872 -131.46371 
L 86.729989 -132.519487 
L 86.954219 -133.575264 
L 87.305269 -134.631041 
L 87.757619 -135.686818 
L 88.288452 -136.742595 
L 88.873339 -137.798372 
L 89.483183 -138.854149 
L 90.084123 -139.909926 
L 90.640736 -140.965703 
L 91.12144 -142.02148 
L 91.504132 -143.077257 
L 91.780042 -144.133034 
L 91.954515 -145.188811 
L 92.044597 -146.244588 
L 92.074291 -147.300365 
L 92.068948 -148.356142 
L 92.050259 -149.411919 
L 92.032889 -150.467696 
L 92.023206 -151.523473 
L 92.020003 -152.57925 
L 92.016723 -153.635027 
L 92.004494 -154.690804 
L 91.975245 -155.746581 
L 91.924255 -156.802358 
L 91.851686 -157.858135 
L 91.762886 -158.913912 
L 91.66755 -159.969689 
L 91.578016 -161.025466 
L 91.507073 -162.081243 
L 91.465682 -163.13702 
L 91.460916 -164.192797 
L 91.49445 -165.248574 
L 91.561904 -166.304351 
L 91.653346 -167.360128 
L 91.755111 -168.415905 
L 91.852781 -169.471682 
L 91.934802 -170.527459 
L 91.995851 -171.583236 
L 92.039043 -172.639013 
L 92.076308 -173.69479 
L 92.126753 -174.750567 
L 92.213437 -175.806344 
L 92.359306 -176.862121 
L 92.583221 -177.917898 
L 92.896831 -178.973675 
L 93.302762 -180.029452 
L 93.794311 -181.085229 
L 94.356527 -182.141006 
L 94.968424 -183.196783 
L 95.605869 -184.25256 
L 96.244657 -185.308337 
L 96.863231 -186.364114 
L 97.444631 -187.419891 
L 97.977431 -188.475668 
L 98.455669 -189.531445 
L 98.877978 -190.587222 
L 99.246244 -191.642999 
L 99.564159 -192.698776 
L 99.835936 -193.754553 
L 100.065401 -194.81033 
L 100.255526 -195.866107 
L 100.408401 -196.921884 
L 100.525559 -197.977661 
L 100.608533 -199.033438 
L 100.659501 -200.089215 
L 100.681867 -201.144992 
L 100.680637 -202.200769 
L 100.662471 -203.256546 
L 100.635335 -204.312323 
L 100.607745 -205.3681 
L 100.587716 -206.423877 
L 100.581617 -207.479654 
L 100.593211 -208.535431 
L 100.623152 -209.591208 
L 100.669088 -210.646985 
L 100.726358 -211.702762 
L 100.789096 -212.758539 
L 100.851451 -213.814316 
L 100.908594 -214.870093 
L 100.95733 -215.92587 
L 100.996241 -216.981647 
L 101.025434 -218.037424 
L 101.046071 -219.093201 
L 101.05984 -220.148978 
L 101.099517 -220.148978 
L 101.099517 -220.148978 
L 101.113287 -219.093201 
L 101.133924 -218.037424 
L 101.163117 -216.981647 
L 101.202028 -215.92587 
L 101.250764 -214.870093 
L 101.307907 -213.814316 
L 101.370261 -212.758539 
L 101.433 -211.702762 
L 101.490269 -210.646985 
L 101.536205 -209.591208 
L 101.566147 -208.535431 
L 101.577741 -207.479654 
L 101.571642 -206.423877 
L 101.551613 -205.3681 
L 101.524023 -204.312323 
L 101.496887 -203.256546 
L 101.478721 -202.200769 
L 101.477491 -201.144992 
L 101.499857 -200.089215 
L 101.550825 -199.033438 
L 101.633799 -197.977661 
L 101.750957 -196.921884 
L 101.903832 -195.866107 
L 102.093957 -194.81033 
L 102.323422 -193.754553 
L 102.595199 -192.698776 
L 102.913114 -191.642999 
L 103.28138 -190.587222 
L 103.703689 -189.531445 
L 104.181927 -188.475668 
L 104.714727 -187.419891 
L 105.296127 -186.364114 
L 105.914701 -185.308337 
L 106.553488 -184.25256 
L 107.190933 -183.196783 
L 107.80283 -182.141006 
L 108.365047 -181.085229 
L 108.856595 -180.029452 
L 109.262527 -178.973675 
L 109.576136 -177.917898 
L 109.800052 -176.862121 
L 109.945921 -175.806344 
L 110.032605 -174.750567 
L 110.08305 -173.69479 
L 110.120314 -172.639013 
L 110.163507 -171.583236 
L 110.224556 -170.527459 
L 110.306576 -169.471682 
L 110.404247 -168.415905 
L 110.506012 -167.360128 
L 110.597454 -166.304351 
L 110.664908 -165.248574 
L 110.698442 -164.192797 
L 110.693676 -163.13702 
L 110.652285 -162.081243 
L 110.581342 -161.025466 
L 110.491807 -159.969689 
L 110.396472 -158.913912 
L 110.307672 -157.858135 
L 110.235103 -156.802358 
L 110.184113 -155.746581 
L 110.154864 -154.690804 
L 110.142635 -153.635027 
L 110.139355 -152.57925 
L 110.136152 -151.523473 
L 110.126468 -150.467696 
L 110.109098 -149.411919 
L 110.09041 -148.356142 
L 110.085067 -147.300365 
L 110.114761 -146.244588 
L 110.204843 -145.188811 
L 110.379316 -144.133034 
L 110.655225 -143.077257 
L 111.037918 -142.02148 
L 111.518622 -140.965703 
L 112.075235 -139.909926 
L 112.676175 -138.854149 
L 113.286019 -137.798372 
L 113.870905 -136.742595 
L 114.401738 -135.686818 
L 114.854089 -134.631041 
L 115.205138 -133.575264 
L 115.429369 -132.519487 
L 115.495485 -131.46371 
L 115.366826 -130.407933 
L 115.006352 -129.352156 
L 114.385528 -128.296379 
L 113.494693 -127.240602 
L 112.351487 -126.184825 
L 111.004068 -125.129048 
L 109.527296 -124.073271 
L 108.012256 -123.017494 
L 106.55172 -121.961717 
L 105.225468 -120.90594 
L 104.089263 -119.850163 
L 103.169932 -118.794386 
L 102.466856 -117.738609 
L 101.95837 -116.682832 
L 101.610453 -115.627055 
z
" id="md86f00bc30" style="stroke:#373737;stroke-width:1.5;"/>
    </defs>
    <g clip-path="url(#p51a238dfce)">
     <use style="fill:#2b8e70;stroke:#373737;stroke-width:1.5;" x="0" xlink:href="#md86f00bc30" y="509.319"/>
    </g>
   </g>
   <g id="PolyCollection_2">
    <defs>
     <path d="M 141.428304 -115.871544 
L 138.710197 -115.871544 
L 137.968684 -116.783711 
L 136.951313 -117.695879 
L 135.623507 -118.608047 
L 133.978001 -119.520215 
L 132.046488 -120.432382 
L 129.906532 -121.34455 
L 127.680325 -122.256718 
L 125.523306 -123.168886 
L 123.60331 -124.081053 
L 122.073805 -124.993221 
L 121.047151 -125.905389 
L 120.574465 -126.817557 
L 120.63735 -127.729724 
L 121.153636 -128.641892 
L 121.995462 -129.55406 
L 123.014799 -130.466228 
L 124.069846 -131.378395 
L 125.046226 -132.290563 
L 125.869016 -133.202731 
L 126.504668 -134.114899 
L 126.954578 -135.027066 
L 127.243804 -135.939234 
L 127.408743 -136.851402 
L 127.486808 -137.76357 
L 127.50969 -138.675737 
L 127.500416 -139.587905 
L 127.473372 -140.500073 
L 127.436095 -141.412241 
L 127.391735 -142.324408 
L 127.341467 -143.236576 
L 127.286509 -144.148744 
L 127.229661 -145.060912 
L 127.176334 -145.973079 
L 127.135027 -146.885247 
L 127.117147 -147.797415 
L 127.136122 -148.709583 
L 127.205857 -149.62175 
L 127.338762 -150.533918 
L 127.543742 -151.446086 
L 127.824602 -152.358254 
L 128.179267 -153.270421 
L 128.599998 -154.182589 
L 129.074542 -155.094757 
L 129.587856 -156.006925 
L 130.123939 -156.919092 
L 130.667294 -157.83126 
L 131.203777 -158.743428 
L 131.720802 -159.655596 
L 132.207173 -160.567763 
L 132.652893 -161.479931 
L 133.04928 -162.392099 
L 133.389558 -163.304267 
L 133.669843 -164.216434 
L 133.890269 -165.128602 
L 134.055865 -166.04077 
L 134.176837 -166.952938 
L 134.268019 -167.865105 
L 134.347473 -168.777273 
L 134.434429 -169.689441 
L 134.54694 -170.601609 
L 134.699663 -171.513776 
L 134.902197 -172.425944 
L 135.158205 -173.338112 
L 135.4654 -174.25028 
L 135.81628 -175.162447 
L 136.199378 -176.074615 
L 136.600755 -176.986783 
L 137.005517 -177.898951 
L 137.399206 -178.811118 
L 137.76899 -179.723286 
L 138.10462 -180.635454 
L 138.399145 -181.547622 
L 138.649312 -182.459789 
L 138.855609 -183.371957 
L 139.021874 -184.284125 
L 139.154494 -185.196293 
L 139.261262 -186.10846 
L 139.350097 -187.020628 
L 139.427848 -187.932796 
L 139.499446 -188.844964 
L 139.567541 -189.757131 
L 139.632685 -190.669299 
L 139.693936 -191.581467 
L 139.749683 -192.493635 
L 139.798458 -193.405802 
L 139.839509 -194.31797 
L 139.873038 -195.230138 
L 139.900105 -196.142306 
L 139.922286 -197.054473 
L 139.941252 -197.966641 
L 139.958391 -198.878809 
L 139.974582 -199.790977 
L 139.990156 -200.703144 
L 140.004996 -201.615312 
L 140.018729 -202.52748 
L 140.030931 -203.439648 
L 140.041274 -204.351815 
L 140.049621 -205.263983 
L 140.056027 -206.176151 
L 140.082474 -206.176151 
L 140.082474 -206.176151 
L 140.08888 -205.263983 
L 140.097227 -204.351815 
L 140.107571 -203.439648 
L 140.119772 -202.52748 
L 140.133506 -201.615312 
L 140.148346 -200.703144 
L 140.16392 -199.790977 
L 140.180111 -198.878809 
L 140.197249 -197.966641 
L 140.216215 -197.054473 
L 140.238397 -196.142306 
L 140.265463 -195.230138 
L 140.298993 -194.31797 
L 140.340044 -193.405802 
L 140.388819 -192.493635 
L 140.444566 -191.581467 
L 140.505816 -190.669299 
L 140.570961 -189.757131 
L 140.639056 -188.844964 
L 140.710653 -187.932796 
L 140.788404 -187.020628 
L 140.877239 -186.10846 
L 140.984008 -185.196293 
L 141.116628 -184.284125 
L 141.282893 -183.371957 
L 141.489189 -182.459789 
L 141.739356 -181.547622 
L 142.033881 -180.635454 
L 142.369512 -179.723286 
L 142.739295 -178.811118 
L 143.132985 -177.898951 
L 143.537747 -176.986783 
L 143.939123 -176.074615 
L 144.322221 -175.162447 
L 144.673102 -174.25028 
L 144.980297 -173.338112 
L 145.236305 -172.425944 
L 145.438839 -171.513776 
L 145.591562 -170.601609 
L 145.704072 -169.689441 
L 145.791029 -168.777273 
L 145.870483 -167.865105 
L 145.961664 -166.952938 
L 146.082637 -166.04077 
L 146.248232 -165.128602 
L 146.468658 -164.216434 
L 146.748944 -163.304267 
L 147.089221 -162.392099 
L 147.485609 -161.479931 
L 147.931329 -160.567763 
L 148.4177 -159.655596 
L 148.934724 -158.743428 
L 149.471207 -157.83126 
L 150.014563 -156.919092 
L 150.550645 -156.006925 
L 151.06396 -155.094757 
L 151.538504 -154.182589 
L 151.959235 -153.270421 
L 152.313899 -152.358254 
L 152.59476 -151.446086 
L 152.79974 -150.533918 
L 152.932645 -149.62175 
L 153.00238 -148.709583 
L 153.021355 -147.797415 
L 153.003475 -146.885247 
L 152.962167 -145.973079 
L 152.908841 -145.060912 
L 152.851992 -144.148744 
L 152.797034 -143.236576 
L 152.746766 -142.324408 
L 152.702406 -141.412241 
L 152.665129 -140.500073 
L 152.638085 -139.587905 
L 152.628811 -138.675737 
L 152.651693 -137.76357 
L 152.729758 -136.851402 
L 152.894698 -135.939234 
L 153.183923 -135.027066 
L 153.633833 -134.114899 
L 154.269485 -133.202731 
L 155.092276 -132.290563 
L 156.068656 -131.378395 
L 157.123703 -130.466228 
L 158.143039 -129.55406 
L 158.984866 -128.641892 
L 159.501151 -127.729724 
L 159.564037 -126.817557 
L 159.091351 -125.905389 
L 158.064696 -124.993221 
L 156.535191 -124.081053 
L 154.615195 -123.168886 
L 152.458177 -122.256718 
L 150.231969 -121.34455 
L 148.092014 -120.432382 
L 146.1605 -119.520215 
L 144.514994 -118.608047 
L 143.187189 -117.695879 
L 142.169818 -116.783711 
L 141.428304 -115.871544 
z
" id="m2757558787" style="stroke:#373737;stroke-width:1.5;"/>
    </defs>
    <g clip-path="url(#p51a238dfce)">
     <use style="fill:#be631d;stroke:#373737;stroke-width:1.5;" x="0" xlink:href="#m2757558787" y="509.319"/>
    </g>
   </g>
   <g id="PolyCollection_3">
    <defs>
     <path d="M 199.542988 -101.773955 
L 197.564229 -101.773955 
L 196.920937 -104.400119 
L 195.985719 -107.026283 
L 194.702708 -109.652447 
L 193.04487 -112.278611 
L 191.032609 -114.904775 
L 188.747317 -117.530939 
L 186.333754 -120.157103 
L 183.987143 -122.783267 
L 181.925076 -125.409431 
L 180.349533 -128.035595 
L 179.40837 -130.661759 
L 179.166749 -133.287923 
L 179.596385 -135.914087 
L 180.585109 -138.540251 
L 181.963125 -141.166415 
L 183.537879 -143.792579 
L 185.128033 -146.418744 
L 186.588836 -149.044908 
L 187.825012 -151.671072 
L 188.791422 -154.297236 
L 189.484855 -156.9234 
L 189.931541 -159.549564 
L 190.174508 -162.175728 
L 190.263385 -164.801892 
L 190.247472 -167.428056 
L 190.171606 -170.05422 
L 190.073789 -172.680384 
L 189.983716 -175.306548 
L 189.921836 -177.932712 
L 189.899069 -180.558876 
L 189.917471 -183.18504 
L 189.971943 -185.811204 
L 190.052725 -188.437368 
L 190.148096 -191.063532 
L 190.246626 -193.689696 
L 190.338511 -196.315861 
L 190.415808 -198.942025 
L 190.47179 -201.568189 
L 190.499841 -204.194353 
L 190.492423 -206.820517 
L 190.440628 -209.446681 
L 190.334566 -212.072845 
L 190.164622 -214.699009 
L 189.923251 -217.325173 
L 189.606774 -219.951337 
L 189.216629 -222.577501 
L 188.759666 -225.203665 
L 188.247468 -227.829829 
L 187.695007 -230.455993 
L 187.119157 -233.082157 
L 186.537573 -235.708321 
L 185.96817 -238.334485 
L 185.429122 -240.960649 
L 184.939054 -243.586813 
L 184.517017 -246.212978 
L 184.181991 -248.839142 
L 183.95191 -251.465306 
L 183.842419 -254.09147 
L 183.865627 -256.717634 
L 184.029084 -259.343798 
L 184.335014 -261.969962 
L 184.779764 -264.596126 
L 185.353451 -267.22229 
L 186.039894 -269.848454 
L 186.817088 -272.474618 
L 187.658493 -275.100782 
L 188.535244 -277.726946 
L 189.419087 -280.35311 
L 190.285486 -282.979274 
L 191.116143 -285.605438 
L 191.900233 -288.231602 
L 192.633979 -290.857766 
L 193.318706 -293.483931 
L 193.958019 -296.110095 
L 194.554985 -298.736259 
L 195.110176 -301.362423 
L 195.621076 -303.988587 
L 196.082866 -306.614751 
L 196.49015 -309.240915 
L 196.838962 -311.867079 
L 197.128378 -314.493243 
L 197.361299 -317.119407 
L 197.544262 -319.745571 
L 197.686448 -322.371735 
L 197.798215 -324.997899 
L 197.889574 -327.624063 
L 197.968919 -330.250227 
L 198.042247 -332.876391 
L 198.112917 -335.502555 
L 198.181913 -338.128719 
L 198.248458 -340.754883 
L 198.310793 -343.381048 
L 198.366945 -346.007212 
L 198.415325 -348.633376 
L 198.455083 -351.25954 
L 198.4862 -353.885704 
L 198.509381 -356.511868 
L 198.525809 -359.138032 
L 198.536885 -361.764196 
L 198.570332 -361.764196 
L 198.570332 -361.764196 
L 198.581408 -359.138032 
L 198.597837 -356.511868 
L 198.621017 -353.885704 
L 198.652134 -351.25954 
L 198.691892 -348.633376 
L 198.740272 -346.007212 
L 198.796424 -343.381048 
L 198.858759 -340.754883 
L 198.925304 -338.128719 
L 198.9943 -335.502555 
L 199.06497 -332.876391 
L 199.138298 -330.250227 
L 199.217643 -327.624063 
L 199.309002 -324.997899 
L 199.420769 -322.371735 
L 199.562955 -319.745571 
L 199.745918 -317.119407 
L 199.978839 -314.493243 
L 200.268255 -311.867079 
L 200.617067 -309.240915 
L 201.024351 -306.614751 
L 201.486141 -303.988587 
L 201.997041 -301.362423 
L 202.552232 -298.736259 
L 203.149198 -296.110095 
L 203.788511 -293.483931 
L 204.473238 -290.857766 
L 205.206984 -288.231602 
L 205.991074 -285.605438 
L 206.821731 -282.979274 
L 207.68813 -280.35311 
L 208.571973 -277.726946 
L 209.448724 -275.100782 
L 210.290129 -272.474618 
L 211.067323 -269.848454 
L 211.753766 -267.22229 
L 212.327453 -264.596126 
L 212.772203 -261.969962 
L 213.078133 -259.343798 
L 213.24159 -256.717634 
L 213.264799 -254.09147 
L 213.155307 -251.465306 
L 212.925227 -248.839142 
L 212.5902 -246.212978 
L 212.168163 -243.586813 
L 211.678095 -240.960649 
L 211.139047 -238.334485 
L 210.569644 -235.708321 
L 209.98806 -233.082157 
L 209.41221 -230.455993 
L 208.859749 -227.829829 
L 208.347551 -225.203665 
L 207.890588 -222.577501 
L 207.500443 -219.951337 
L 207.183966 -217.325173 
L 206.942595 -214.699009 
L 206.772651 -212.072845 
L 206.66659 -209.446681 
L 206.614794 -206.820517 
L 206.607376 -204.194353 
L 206.635427 -201.568189 
L 206.691409 -198.942025 
L 206.768706 -196.315861 
L 206.860591 -193.689696 
L 206.959121 -191.063532 
L 207.054492 -188.437368 
L 207.135274 -185.811204 
L 207.189747 -183.18504 
L 207.208148 -180.558876 
L 207.185381 -177.932712 
L 207.123501 -175.306548 
L 207.033428 -172.680384 
L 206.935611 -170.05422 
L 206.859745 -167.428056 
L 206.843832 -164.801892 
L 206.932709 -162.175728 
L 207.175676 -159.549564 
L 207.622362 -156.9234 
L 208.315795 -154.297236 
L 209.282205 -151.671072 
L 210.518381 -149.044908 
L 211.979185 -146.418744 
L 213.569338 -143.792579 
L 215.144092 -141.166415 
L 216.522108 -138.540251 
L 217.510832 -135.914087 
L 217.940468 -133.287923 
L 217.698847 -130.661759 
L 216.757684 -128.035595 
L 215.182141 -125.409431 
L 213.120074 -122.783267 
L 210.773463 -120.157103 
L 208.3599 -117.530939 
L 206.074608 -114.904775 
L 204.062347 -112.278611 
L 202.404509 -109.652447 
L 201.121498 -107.026283 
L 200.18628 -104.400119 
L 199.542988 -101.773955 
z
" id="m9ba3a6e203" style="stroke:#373737;stroke-width:1.5;"/>
    </defs>
    <g clip-path="url(#p51a238dfce)">
     <use style="fill:#2b8e70;stroke:#373737;stroke-width:1.5;" x="0" xlink:href="#m9ba3a6e203" y="509.319"/>
    </g>
   </g>
   <g id="PolyCollection_4">
    <defs>
     <path d="M 238.952031 -98.024004 
L 236.13433 -98.024004 
L 235.500074 -100.381486 
L 234.665728 -102.738968 
L 233.606958 -105.09645 
L 232.312268 -107.453932 
L 230.788815 -109.811414 
L 229.067075 -112.168897 
L 227.203095 -114.526379 
L 225.277315 -116.883861 
L 223.38938 -119.241343 
L 221.649159 -121.598825 
L 220.164966 -123.956307 
L 219.030737 -126.313789 
L 218.31424 -128.671271 
L 218.048394 -131.028753 
L 218.227211 -133.386235 
L 218.807013 -135.743717 
L 219.712616 -138.101199 
L 220.847254 -140.458681 
L 222.104491 -142.816163 
L 223.380182 -145.173645 
L 224.5828 -147.531127 
L 225.640963 -149.888609 
L 226.507623 -152.246091 
L 227.160961 -154.603573 
L 227.602489 -156.961055 
L 227.853062 -159.318537 
L 227.947619 -161.676019 
L 227.929349 -164.033501 
L 227.843935 -166.390983 
L 227.734353 -168.748465 
L 227.636622 -171.105947 
L 227.576814 -173.463429 
L 227.569466 -175.820911 
L 227.617458 -178.178393 
L 227.713214 -180.535875 
L 227.840948 -182.893357 
L 227.97953 -185.250839 
L 228.105533 -187.608321 
L 228.196014 -189.965803 
L 228.230738 -192.323285 
L 228.193688 -194.680767 
L 228.073912 -197.038249 
L 227.865834 -199.395731 
L 227.569255 -201.753213 
L 227.18921 -204.110695 
L 226.735777 -206.468178 
L 226.223813 -208.82566 
L 225.672548 -211.183142 
L 225.104878 -213.540624 
L 224.546303 -215.898106 
L 224.023485 -218.255588 
L 223.56254 -220.61307 
L 223.187243 -222.970552 
L 222.91737 -225.328034 
L 222.767394 -227.685516 
L 222.745651 -230.042998 
L 222.854049 -232.40048 
L 223.088286 -234.757962 
L 223.438468 -237.115444 
L 223.890056 -239.472926 
L 224.425005 -241.830408 
L 225.023038 -244.18789 
L 225.662972 -246.545372 
L 226.324018 -248.902854 
L 226.986996 -251.260336 
L 227.635345 -253.617818 
L 228.255869 -255.9753 
L 228.839143 -258.332782 
L 229.379577 -260.690264 
L 229.875178 -263.047746 
L 230.327084 -265.405228 
L 230.738979 -267.76271 
L 231.116474 -270.120192 
L 231.46651 -272.477674 
L 231.796798 -274.835156 
L 232.115276 -277.192638 
L 232.429564 -279.55012 
L 232.746387 -281.907602 
L 233.07101 -284.265084 
L 233.406716 -286.622566 
L 233.754448 -288.980048 
L 234.112653 -291.33753 
L 234.477433 -293.695012 
L 234.842967 -296.052494 
L 235.202182 -298.409976 
L 235.547558 -300.767458 
L 235.87195 -303.124941 
L 236.169308 -305.482423 
L 236.435188 -307.839905 
L 236.66703 -310.197387 
L 236.864166 -312.554869 
L 237.027636 -314.912351 
L 237.159842 -317.269833 
L 237.264132 -319.627315 
L 237.344387 -321.984797 
L 237.404633 -324.342279 
L 237.448752 -326.699761 
L 237.480266 -329.057243 
L 237.502222 -331.414725 
L 237.584139 -331.414725 
L 237.584139 -331.414725 
L 237.606094 -329.057243 
L 237.637609 -326.699761 
L 237.681728 -324.342279 
L 237.741974 -321.984797 
L 237.822228 -319.627315 
L 237.926519 -317.269833 
L 238.058724 -314.912351 
L 238.222194 -312.554869 
L 238.419331 -310.197387 
L 238.651172 -307.839905 
L 238.917053 -305.482423 
L 239.214411 -303.124941 
L 239.538803 -300.767458 
L 239.884179 -298.409976 
L 240.243394 -296.052494 
L 240.608928 -293.695012 
L 240.973708 -291.33753 
L 241.331913 -288.980048 
L 241.679644 -286.622566 
L 242.015351 -284.265084 
L 242.339973 -281.907602 
L 242.656797 -279.55012 
L 242.971085 -277.192638 
L 243.289563 -274.835156 
L 243.61985 -272.477674 
L 243.969886 -270.120192 
L 244.347382 -267.76271 
L 244.759277 -265.405228 
L 245.211183 -263.047746 
L 245.706784 -260.690264 
L 246.247218 -258.332782 
L 246.830492 -255.9753 
L 247.451016 -253.617818 
L 248.099365 -251.260336 
L 248.762343 -248.902854 
L 249.423389 -246.545372 
L 250.063322 -244.18789 
L 250.661356 -241.830408 
L 251.196305 -239.472926 
L 251.647893 -237.115444 
L 251.998075 -234.757962 
L 252.232311 -232.40048 
L 252.34071 -230.042998 
L 252.318966 -227.685516 
L 252.16899 -225.328034 
L 251.899118 -222.970552 
L 251.523821 -220.61307 
L 251.062875 -218.255588 
L 250.540058 -215.898106 
L 249.981482 -213.540624 
L 249.413813 -211.183142 
L 248.862547 -208.82566 
L 248.350584 -206.468178 
L 247.89715 -204.110695 
L 247.517106 -201.753213 
L 247.220527 -199.395731 
L 247.012449 -197.038249 
L 246.892673 -194.680767 
L 246.855623 -192.323285 
L 246.890346 -189.965803 
L 246.980828 -187.608321 
L 247.106831 -185.250839 
L 247.245413 -182.893357 
L 247.373146 -180.535875 
L 247.468903 -178.178393 
L 247.516895 -175.820911 
L 247.509546 -173.463429 
L 247.449738 -171.105947 
L 247.352008 -168.748465 
L 247.242425 -166.390983 
L 247.157012 -164.033501 
L 247.138742 -161.676019 
L 247.233298 -159.318537 
L 247.483872 -156.961055 
L 247.925399 -154.603573 
L 248.578738 -152.246091 
L 249.445398 -149.888609 
L 250.503561 -147.531127 
L 251.706178 -145.173645 
L 252.981869 -142.816163 
L 254.239107 -140.458681 
L 255.373745 -138.101199 
L 256.279348 -135.743717 
L 256.85915 -133.386235 
L 257.037966 -131.028753 
L 256.772121 -128.671271 
L 256.055623 -126.313789 
L 254.921394 -123.956307 
L 253.437202 -121.598825 
L 251.696981 -119.241343 
L 249.809046 -116.883861 
L 247.883266 -114.526379 
L 246.019286 -112.168897 
L 244.297546 -109.811414 
L 242.774093 -107.453932 
L 241.479402 -105.09645 
L 240.420633 -102.738968 
L 239.586287 -100.381486 
L 238.952031 -98.024004 
z
" id="m642d8d684e" style="stroke:#373737;stroke-width:1.5;"/>
    </defs>
    <g clip-path="url(#p51a238dfce)">
     <use style="fill:#be631d;stroke:#373737;stroke-width:1.5;" x="0" xlink:href="#m642d8d684e" y="509.319"/>
    </g>
   </g>
   <g id="PolyCollection_5">
    <defs>
     <path d="M 296.974241 -101.136784 
L 295.080835 -101.136784 
L 294.462761 -103.804896 
L 293.562843 -106.473009 
L 292.326677 -109.141121 
L 290.727701 -111.809233 
L 288.785194 -114.477345 
L 286.577207 -117.145457 
L 284.24237 -119.813569 
L 281.966636 -122.481682 
L 279.955374 -125.149794 
L 278.396417 -127.817906 
L 277.423683 -130.486018 
L 277.091719 -133.15413 
L 277.368444 -135.822242 
L 278.147581 -138.490355 
L 279.276072 -141.158467 
L 280.587639 -143.826579 
L 281.933028 -146.494691 
L 283.200027 -149.162803 
L 284.320619 -151.830915 
L 285.266825 -154.499028 
L 286.039429 -157.16714 
L 286.654533 -159.835252 
L 287.132061 -162.503364 
L 287.488629 -165.171476 
L 287.735395 -167.839588 
L 287.879923 -170.507701 
L 287.930157 -173.175813 
L 287.898268 -175.843925 
L 287.802515 -178.512037 
L 287.666194 -181.180149 
L 287.513911 -183.848261 
L 287.366517 -186.516374 
L 287.23652 -189.184486 
L 287.125643 -191.852598 
L 287.025349 -194.52071 
L 286.920114 -197.188822 
L 286.792302 -199.856934 
L 286.627122 -202.525047 
L 286.41629 -205.193159 
L 286.159589 -207.861271 
L 285.864219 -210.529383 
L 285.542458 -213.197495 
L 285.208508 -215.865607 
L 284.875573 -218.53372 
L 284.554024 -221.201832 
L 284.251184 -223.869944 
L 283.972696 -226.538056 
L 283.724862 -229.206168 
L 283.516937 -231.87428 
L 283.3623 -234.542393 
L 283.277753 -237.210505 
L 283.280901 -239.878617 
L 283.386285 -242.546729 
L 283.601445 -245.214841 
L 283.92416 -247.882953 
L 284.341741 -250.551066 
L 284.832573 -253.219178 
L 285.369441 -255.88729 
L 285.923685 -258.555402 
L 286.469173 -261.223514 
L 286.985274 -263.891626 
L 287.45845 -266.559739 
L 287.882505 -269.227851 
L 288.257798 -271.895963 
L 288.5898 -274.564075 
L 288.88736 -277.232187 
L 289.16089 -279.900299 
L 289.420653 -282.568412 
L 289.67532 -285.236524 
L 289.930988 -287.904636 
L 290.190794 -290.572748 
L 290.455205 -293.24086 
L 290.72286 -295.908972 
L 290.991722 -298.577085 
L 291.260213 -301.245197 
L 291.528053 -303.913309 
L 291.796606 -306.581421 
L 292.068706 -309.249533 
L 292.348016 -311.917645 
L 292.638065 -314.585758 
L 292.94116 -317.25387 
L 293.257383 -319.921982 
L 293.583931 -322.590094 
L 293.914996 -325.258206 
L 294.242296 -327.926318 
L 294.556176 -330.594431 
L 294.847065 -333.262543 
L 295.10693 -335.930655 
L 295.330381 -338.598767 
L 295.515202 -341.266879 
L 295.662248 -343.934991 
L 295.774846 -346.603104 
L 295.857903 -349.271216 
L 295.916992 -351.939328 
L 295.957588 -354.60744 
L 295.984555 -357.275552 
L 296.001894 -359.943664 
L 296.012692 -362.611777 
L 296.019204 -365.279889 
L 296.035872 -365.279889 
L 296.035872 -365.279889 
L 296.042385 -362.611777 
L 296.053182 -359.943664 
L 296.070521 -357.275552 
L 296.097489 -354.60744 
L 296.138085 -351.939328 
L 296.197173 -349.271216 
L 296.28023 -346.603104 
L 296.392828 -343.934991 
L 296.539875 -341.266879 
L 296.724695 -338.598767 
L 296.948146 -335.930655 
L 297.208012 -333.262543 
L 297.498901 -330.594431 
L 297.81278 -327.926318 
L 298.14008 -325.258206 
L 298.471146 -322.590094 
L 298.797693 -319.921982 
L 299.113916 -317.25387 
L 299.417011 -314.585758 
L 299.707061 -311.917645 
L 299.98637 -309.249533 
L 300.25847 -306.581421 
L 300.527023 -303.913309 
L 300.794863 -301.245197 
L 301.063354 -298.577085 
L 301.332216 -295.908972 
L 301.599871 -293.24086 
L 301.864283 -290.572748 
L 302.124089 -287.904636 
L 302.379756 -285.236524 
L 302.634424 -282.568412 
L 302.894186 -279.900299 
L 303.167716 -277.232187 
L 303.465277 -274.564075 
L 303.797279 -271.895963 
L 304.172571 -269.227851 
L 304.596627 -266.559739 
L 305.069802 -263.891626 
L 305.585903 -261.223514 
L 306.131391 -258.555402 
L 306.685635 -255.88729 
L 307.222503 -253.219178 
L 307.713335 -250.551066 
L 308.130916 -247.882953 
L 308.453631 -245.214841 
L 308.668791 -242.546729 
L 308.774176 -239.878617 
L 308.777323 -237.210505 
L 308.692776 -234.542393 
L 308.538139 -231.87428 
L 308.330214 -229.206168 
L 308.08238 -226.538056 
L 307.803892 -223.869944 
L 307.501053 -221.201832 
L 307.179503 -218.53372 
L 306.846568 -215.865607 
L 306.512619 -213.197495 
L 306.190857 -210.529383 
L 305.895488 -207.861271 
L 305.638786 -205.193159 
L 305.427955 -202.525047 
L 305.262775 -199.856934 
L 305.134962 -197.188822 
L 305.029727 -194.52071 
L 304.929433 -191.852598 
L 304.818556 -189.184486 
L 304.688559 -186.516374 
L 304.541165 -183.848261 
L 304.388882 -181.180149 
L 304.252561 -178.512037 
L 304.156809 -175.843925 
L 304.124919 -173.175813 
L 304.175153 -170.507701 
L 304.319682 -167.839588 
L 304.566448 -165.171476 
L 304.923016 -162.503364 
L 305.400543 -159.835252 
L 306.015647 -157.16714 
L 306.788251 -154.499028 
L 307.734457 -151.830915 
L 308.855049 -149.162803 
L 310.122048 -146.494691 
L 311.467438 -143.826579 
L 312.779004 -141.158467 
L 313.907495 -138.490355 
L 314.686633 -135.822242 
L 314.963357 -133.15413 
L 314.631393 -130.486018 
L 313.65866 -127.817906 
L 312.099702 -125.149794 
L 310.08844 -122.481682 
L 307.812707 -119.813569 
L 305.477869 -117.145457 
L 303.269882 -114.477345 
L 301.327376 -111.809233 
L 299.728399 -109.141121 
L 298.492234 -106.473009 
L 297.592315 -103.804896 
L 296.974241 -101.136784 
z
" id="m6ff0811fee" style="stroke:#373737;stroke-width:1.5;"/>
    </defs>
    <g clip-path="url(#p51a238dfce)">
     <use style="fill:#2b8e70;stroke:#373737;stroke-width:1.5;" x="0" xlink:href="#m6ff0811fee" y="509.319"/>
    </g>
   </g>
   <g id="PolyCollection_6">
    <defs>
     <path d="M 336.37829 -97.333352 
L 333.65593 -97.333352 
L 332.999704 -99.872532 
L 332.123729 -102.411713 
L 331.000653 -104.950894 
L 329.619351 -107.490074 
L 327.992114 -110.029255 
L 326.159916 -112.568436 
L 324.194025 -115.107616 
L 322.192689 -117.646797 
L 320.272546 -120.185978 
L 318.555613 -122.725158 
L 317.153896 -125.264339 
L 316.154458 -127.80352 
L 315.607871 -130.3427 
L 315.522324 -132.881881 
L 315.86441 -135.421062 
L 316.566084 -137.960243 
L 317.536003 -140.499423 
L 318.672685 -143.038604 
L 319.876892 -145.577785 
L 321.061219 -148.116965 
L 322.155864 -150.656146 
L 323.110582 -153.195327 
L 323.893629 -155.734507 
L 324.488931 -158.273688 
L 324.8927 -160.812869 
L 325.110453 -163.352049 
L 325.154934 -165.89123 
L 325.044978 -168.430411 
L 324.805031 -170.969591 
L 324.464827 -173.508772 
L 324.058725 -176.047953 
L 323.624321 -178.587133 
L 323.200185 -181.126314 
L 322.82285 -183.665495 
L 322.523448 -186.204675 
L 322.324569 -188.743856 
L 322.237946 -191.283037 
L 322.26349 -193.822217 
L 322.389906 -196.361398 
L 322.596847 -198.900579 
L 322.85821 -201.439759 
L 323.145979 -203.97894 
L 323.433937 -206.518121 
L 323.700647 -209.057301 
L 323.931289 -211.596482 
L 324.118235 -214.135663 
L 324.260457 -216.674843 
L 324.362124 -219.214024 
L 324.430781 -221.753205 
L 324.475574 -224.292385 
L 324.505845 -226.831566 
L 324.530298 -229.370747 
L 324.55677 -231.909927 
L 324.592453 -234.449108 
L 324.644346 -236.988289 
L 324.719663 -239.527469 
L 324.82597 -242.06665 
L 324.970931 -244.605831 
L 325.161671 -247.145012 
L 325.403881 -249.684192 
L 325.700868 -252.223373 
L 326.052767 -254.762554 
L 326.456113 -257.301734 
L 326.903853 -259.840915 
L 327.385819 -262.380096 
L 327.889572 -264.919276 
L 328.401465 -267.458457 
L 328.90777 -269.997638 
L 329.395732 -272.536818 
L 329.854435 -275.075999 
L 330.275446 -277.61518 
L 330.653237 -280.15436 
L 330.985375 -282.693541 
L 331.272519 -285.232722 
L 331.518225 -287.771902 
L 331.72854 -290.311083 
L 331.911407 -292.850264 
L 332.075885 -295.389444 
L 332.231241 -297.928625 
L 332.386015 -300.467806 
L 332.547156 -303.006986 
L 332.719354 -305.546167 
L 332.904667 -308.085348 
L 333.102479 -310.624528 
L 333.309806 -313.163709 
L 333.521861 -315.70289 
L 333.732802 -318.24207 
L 333.93653 -320.781251 
L 334.127422 -323.320432 
L 334.300908 -325.859612 
L 334.453831 -328.398793 
L 334.584586 -330.937974 
L 334.693047 -333.477154 
L 334.780334 -336.016335 
L 334.848491 -338.555516 
L 334.900128 -341.094696 
L 334.938085 -343.633877 
L 334.965152 -346.173058 
L 334.983875 -348.712238 
L 335.050345 -348.712238 
L 335.050345 -348.712238 
L 335.069068 -346.173058 
L 335.096135 -343.633877 
L 335.134092 -341.094696 
L 335.185729 -338.555516 
L 335.253886 -336.016335 
L 335.341173 -333.477154 
L 335.449634 -330.937974 
L 335.580389 -328.398793 
L 335.733312 -325.859612 
L 335.906798 -323.320432 
L 336.09769 -320.781251 
L 336.301419 -318.24207 
L 336.512359 -315.70289 
L 336.724414 -313.163709 
L 336.931741 -310.624528 
L 337.129553 -308.085348 
L 337.314866 -305.546167 
L 337.487064 -303.006986 
L 337.648205 -300.467806 
L 337.802979 -297.928625 
L 337.958335 -295.389444 
L 338.122813 -292.850264 
L 338.30568 -290.311083 
L 338.515995 -287.771902 
L 338.761701 -285.232722 
L 339.048845 -282.693541 
L 339.380983 -280.15436 
L 339.758774 -277.61518 
L 340.179785 -275.075999 
L 340.638488 -272.536818 
L 341.12645 -269.997638 
L 341.632755 -267.458457 
L 342.144648 -264.919276 
L 342.648401 -262.380096 
L 343.130367 -259.840915 
L 343.578107 -257.301734 
L 343.981453 -254.762554 
L 344.333352 -252.223373 
L 344.630339 -249.684192 
L 344.872549 -247.145012 
L 345.063289 -244.605831 
L 345.20825 -242.06665 
L 345.314557 -239.527469 
L 345.389874 -236.988289 
L 345.441767 -234.449108 
L 345.47745 -231.909927 
L 345.503922 -229.370747 
L 345.528375 -226.831566 
L 345.558646 -224.292385 
L 345.603439 -221.753205 
L 345.672096 -219.214024 
L 345.773763 -216.674843 
L 345.915985 -214.135663 
L 346.102931 -211.596482 
L 346.333573 -209.057301 
L 346.600283 -206.518121 
L 346.888241 -203.97894 
L 347.17601 -201.439759 
L 347.437373 -198.900579 
L 347.644314 -196.361398 
L 347.77073 -193.822217 
L 347.796274 -191.283037 
L 347.709651 -188.743856 
L 347.510772 -186.204675 
L 347.21137 -183.665495 
L 346.834035 -181.126314 
L 346.409899 -178.587133 
L 345.975496 -176.047953 
L 345.569393 -173.508772 
L 345.229189 -170.969591 
L 344.989242 -168.430411 
L 344.879286 -165.89123 
L 344.923767 -163.352049 
L 345.14152 -160.812869 
L 345.545289 -158.273688 
L 346.140591 -155.734507 
L 346.923639 -153.195327 
L 347.878356 -150.656146 
L 348.973001 -148.116965 
L 350.157328 -145.577785 
L 351.361536 -143.038604 
L 352.498217 -140.499423 
L 353.468136 -137.960243 
L 354.16981 -135.421062 
L 354.511896 -132.881881 
L 354.426349 -130.3427 
L 353.879762 -127.80352 
L 352.880324 -125.264339 
L 351.478607 -122.725158 
L 349.761674 -120.185978 
L 347.841531 -117.646797 
L 345.840195 -115.107616 
L 343.874304 -112.568436 
L 342.042106 -110.029255 
L 340.414869 -107.490074 
L 339.033567 -104.950894 
L 337.910492 -102.411713 
L 337.034516 -99.872532 
L 336.37829 -97.333352 
z
" id="m42db94a65c" style="stroke:#373737;stroke-width:1.5;"/>
    </defs>
    <g clip-path="url(#p51a238dfce)">
     <use style="fill:#be631d;stroke:#373737;stroke-width:1.5;" x="0" xlink:href="#m42db94a65c" y="509.319"/>
    </g>
   </g>
   <g id="PolyCollection_7">
    <defs>
     <path d="M 394.11808 -83.497806 
L 392.884856 -83.497806 
L 392.528071 -87.517555 
L 392.017121 -91.537303 
L 391.314363 -95.557052 
L 390.386644 -99.5768 
L 389.212122 -103.596549 
L 387.787543 -107.616297 
L 386.134462 -111.636046 
L 384.302707 -115.655794 
L 382.369556 -119.675543 
L 380.433879 -123.695291 
L 378.605576 -127.71504 
L 376.991861 -131.734788 
L 375.682872 -135.754537 
L 374.739448 -139.774285 
L 374.185539 -143.794034 
L 374.006682 -147.813782 
L 374.154621 -151.833531 
L 374.556841 -155.853279 
L 375.128866 -159.873028 
L 375.786861 -163.892776 
L 376.458346 -167.912525 
L 377.089512 -171.932273 
L 377.648492 -175.952022 
L 378.124733 -179.97177 
L 378.52526 -183.991519 
L 378.86894 -188.011267 
L 379.180014 -192.031016 
L 379.482029 -196.050765 
L 379.793063 -200.070513 
L 380.122788 -204.090262 
L 380.471513 -208.11001 
L 380.831005 -212.129759 
L 381.186617 -216.149507 
L 381.520118 -220.169256 
L 381.812641 -224.189004 
L 382.047282 -228.208753 
L 382.211063 -232.228501 
L 382.296201 -236.24825 
L 382.300724 -240.267998 
L 382.228604 -244.287747 
L 382.089514 -248.307495 
L 381.898314 -252.327244 
L 381.67424 -256.346992 
L 381.439754 -260.366741 
L 381.219021 -264.386489 
L 381.036041 -268.406238 
L 380.91261 -272.425986 
L 380.866374 -276.445735 
L 380.909287 -280.465483 
L 381.046749 -284.485232 
L 381.277537 -288.50498 
L 381.594477 -292.524729 
L 381.98561 -296.544477 
L 382.435532 -300.564226 
L 382.926597 -304.583974 
L 383.439805 -308.603723 
L 383.955388 -312.623471 
L 384.453236 -316.64322 
L 384.913415 -320.662968 
L 385.316998 -324.682717 
L 385.647299 -328.702466 
L 385.891452 -332.722214 
L 386.042096 -336.741963 
L 386.098851 -340.761711 
L 386.069225 -344.78146 
L 385.968685 -348.801208 
L 385.819718 -352.820957 
L 385.649925 -356.840705 
L 385.489306 -360.860454 
L 385.367099 -364.880202 
L 385.308587 -368.899951 
L 385.332342 -372.919699 
L 385.448323 -376.939448 
L 385.657116 -380.959196 
L 385.950437 -384.978945 
L 386.312808 -388.998693 
L 386.724147 -393.018442 
L 387.16284 -397.03819 
L 387.608806 -401.057939 
L 388.046068 -405.077687 
L 388.464413 -409.097436 
L 388.859906 -413.117184 
L 389.234221 -417.136933 
L 389.592977 -421.156681 
L 389.943468 -425.17643 
L 390.292292 -429.196178 
L 390.643383 -433.215927 
L 390.996842 -437.235675 
L 391.348781 -441.255424 
L 391.692093 -445.275172 
L 392.017909 -449.294921 
L 392.317316 -453.314669 
L 392.582927 -457.334418 
L 392.809986 -461.354167 
L 392.996836 -465.373915 
L 393.144774 -469.393664 
L 393.257441 -473.413412 
L 393.339974 -477.433161 
L 393.398132 -481.452909 
L 393.604803 -481.452909 
L 393.604803 -481.452909 
L 393.662961 -477.433161 
L 393.745495 -473.413412 
L 393.858162 -469.393664 
L 394.006099 -465.373915 
L 394.192949 -461.354167 
L 394.420009 -457.334418 
L 394.68562 -453.314669 
L 394.985026 -449.294921 
L 395.310842 -445.275172 
L 395.654154 -441.255424 
L 396.006093 -437.235675 
L 396.359553 -433.215927 
L 396.710643 -429.196178 
L 397.059468 -425.17643 
L 397.409959 -421.156681 
L 397.768714 -417.136933 
L 398.143029 -413.117184 
L 398.538523 -409.097436 
L 398.956868 -405.077687 
L 399.39413 -401.057939 
L 399.840096 -397.03819 
L 400.278788 -393.018442 
L 400.690127 -388.998693 
L 401.052498 -384.978945 
L 401.345819 -380.959196 
L 401.554613 -376.939448 
L 401.670594 -372.919699 
L 401.694349 -368.899951 
L 401.635837 -364.880202 
L 401.51363 -360.860454 
L 401.353011 -356.840705 
L 401.183217 -352.820957 
L 401.034251 -348.801208 
L 400.933711 -344.78146 
L 400.904085 -340.761711 
L 400.960839 -336.741963 
L 401.111483 -332.722214 
L 401.355636 -328.702466 
L 401.685938 -324.682717 
L 402.089521 -320.662968 
L 402.5497 -316.64322 
L 403.047547 -312.623471 
L 403.563131 -308.603723 
L 404.076339 -304.583974 
L 404.567403 -300.564226 
L 405.017326 -296.544477 
L 405.408459 -292.524729 
L 405.725399 -288.50498 
L 405.956187 -284.485232 
L 406.093648 -280.465483 
L 406.136562 -276.445735 
L 406.090326 -272.425986 
L 405.966895 -268.406238 
L 405.783915 -264.386489 
L 405.563182 -260.366741 
L 405.328696 -256.346992 
L 405.104622 -252.327244 
L 404.913422 -248.307495 
L 404.774332 -244.287747 
L 404.702211 -240.267998 
L 404.706735 -236.24825 
L 404.791873 -232.228501 
L 404.955654 -228.208753 
L 405.190294 -224.189004 
L 405.482818 -220.169256 
L 405.816319 -216.149507 
L 406.17193 -212.129759 
L 406.531423 -208.11001 
L 406.880147 -204.090262 
L 407.209873 -200.070513 
L 407.520907 -196.050765 
L 407.822922 -192.031016 
L 408.133996 -188.011267 
L 408.477676 -183.991519 
L 408.878202 -179.97177 
L 409.354444 -175.952022 
L 409.913424 -171.932273 
L 410.54459 -167.912525 
L 411.216075 -163.892776 
L 411.87407 -159.873028 
L 412.446095 -155.853279 
L 412.848315 -151.833531 
L 412.996254 -147.813782 
L 412.817397 -143.794034 
L 412.263488 -139.774285 
L 411.320064 -135.754537 
L 410.011074 -131.734788 
L 408.39736 -127.71504 
L 406.569057 -123.695291 
L 404.63338 -119.675543 
L 402.700228 -115.655794 
L 400.868473 -111.636046 
L 399.215393 -107.616297 
L 397.790813 -103.596549 
L 396.616292 -99.5768 
L 395.688573 -95.557052 
L 394.985814 -91.537303 
L 394.474864 -87.517555 
L 394.11808 -83.497806 
z
" id="m3edc3b12cc" style="stroke:#373737;stroke-width:1.5;"/>
    </defs>
    <g clip-path="url(#p51a238dfce)">
     <use style="fill:#2b8e70;stroke:#373737;stroke-width:1.5;" x="0" xlink:href="#m3edc3b12cc" y="509.319"/>
    </g>
   </g>
   <g id="PolyCollection_8">
    <defs>
     <path d="M 433.088378 -68.131091 
L 431.893701 -68.131091 
L 431.684384 -72.230907 
L 431.418943 -76.330723 
L 431.088476 -80.430539 
L 430.684605 -84.530355 
L 430.200135 -88.630171 
L 429.629788 -92.729987 
L 428.970941 -96.829802 
L 428.224312 -100.929618 
L 427.394506 -105.029434 
L 426.490362 -109.12925 
L 425.525023 -113.229066 
L 424.515698 -117.328882 
L 423.483096 -121.428698 
L 422.450557 -125.528514 
L 421.442916 -129.62833 
L 420.485197 -133.728146 
L 419.601215 -137.827962 
L 418.812211 -141.927778 
L 418.135613 -146.027594 
L 417.584037 -150.12741 
L 417.16457 -154.227226 
L 416.878425 -158.327041 
L 416.720946 -162.426857 
L 416.681985 -166.526673 
L 416.746606 -170.626489 
L 416.896061 -174.726305 
L 417.108988 -178.826121 
L 417.362727 -182.925937 
L 417.634701 -187.025753 
L 417.903757 -191.125569 
L 418.151387 -195.225385 
L 418.362752 -199.325201 
L 418.527429 -203.425017 
L 418.639841 -207.524833 
L 418.699314 -211.624649 
L 418.709778 -215.724465 
L 418.679114 -219.824281 
L 418.618231 -223.924096 
L 418.539937 -228.023912 
L 418.457735 -232.123728 
L 418.384648 -236.223544 
L 418.332207 -240.32336 
L 418.309674 -244.423176 
L 418.323587 -248.522992 
L 418.377621 -252.622808 
L 418.472753 -256.722624 
L 418.607668 -260.82244 
L 418.779291 -264.922256 
L 418.983369 -269.022072 
L 419.214985 -273.121888 
L 419.468943 -277.221704 
L 419.73998 -281.32152 
L 420.022819 -285.421335 
L 420.312099 -289.521151 
L 420.602256 -293.620967 
L 420.887432 -297.720783 
L 421.161492 -301.820599 
L 421.418201 -305.920415 
L 421.651578 -310.020231 
L 421.856414 -314.120047 
L 422.028883 -318.219863 
L 422.167182 -322.319679 
L 422.272079 -326.419495 
L 422.347288 -330.519311 
L 422.399581 -334.619127 
L 422.438592 -338.718943 
L 422.476304 -342.818759 
L 422.526251 -346.918574 
L 422.602507 -351.01839 
L 422.718565 -355.118206 
L 422.886216 -359.218022 
L 423.114553 -363.317838 
L 423.409203 -367.417654 
L 423.771855 -371.51747 
L 424.20014 -375.617286 
L 424.687855 -379.717102 
L 425.225492 -383.816918 
L 425.801017 -387.916734 
L 426.400797 -392.01655 
L 427.010584 -396.116366 
L 427.616454 -400.216182 
L 428.205625 -404.315998 
L 428.7671 -408.415814 
L 429.292081 -412.515629 
L 429.774178 -416.615445 
L 430.209405 -420.715261 
L 430.596011 -424.815077 
L 430.934191 -428.914893 
L 431.225715 -433.014709 
L 431.473543 -437.114525 
L 431.681432 -441.214341 
L 431.853599 -445.314157 
L 431.994429 -449.413973 
L 432.108244 -453.513789 
L 432.199144 -457.613605 
L 432.270895 -461.713421 
L 432.326869 -465.813237 
L 432.37002 -469.913053 
L 432.402887 -474.012868 
L 432.579193 -474.012868 
L 432.579193 -474.012868 
L 432.612059 -469.913053 
L 432.65521 -465.813237 
L 432.711184 -461.713421 
L 432.782935 -457.613605 
L 432.873835 -453.513789 
L 432.98765 -449.413973 
L 433.12848 -445.314157 
L 433.300648 -441.214341 
L 433.508537 -437.114525 
L 433.756364 -433.014709 
L 434.047888 -428.914893 
L 434.386068 -424.815077 
L 434.772674 -420.715261 
L 435.207902 -416.615445 
L 435.689999 -412.515629 
L 436.21498 -408.415814 
L 436.776454 -404.315998 
L 437.365626 -400.216182 
L 437.971495 -396.116366 
L 438.581282 -392.01655 
L 439.181063 -387.916734 
L 439.756588 -383.816918 
L 440.294225 -379.717102 
L 440.781939 -375.617286 
L 441.210225 -371.51747 
L 441.572877 -367.417654 
L 441.867526 -363.317838 
L 442.095864 -359.218022 
L 442.263514 -355.118206 
L 442.379572 -351.01839 
L 442.455828 -346.918574 
L 442.505775 -342.818759 
L 442.543487 -338.718943 
L 442.582498 -334.619127 
L 442.634791 -330.519311 
L 442.71 -326.419495 
L 442.814897 -322.319679 
L 442.953196 -318.219863 
L 443.125665 -314.120047 
L 443.330501 -310.020231 
L 443.563879 -305.920415 
L 443.820588 -301.820599 
L 444.094647 -297.720783 
L 444.379823 -293.620967 
L 444.66998 -289.521151 
L 444.95926 -285.421335 
L 445.242099 -281.32152 
L 445.513136 -277.221704 
L 445.767094 -273.121888 
L 445.99871 -269.022072 
L 446.202788 -264.922256 
L 446.374411 -260.82244 
L 446.509326 -256.722624 
L 446.604459 -252.622808 
L 446.658492 -248.522992 
L 446.672405 -244.423176 
L 446.649872 -240.32336 
L 446.597431 -236.223544 
L 446.524345 -232.123728 
L 446.442142 -228.023912 
L 446.363849 -223.924096 
L 446.302965 -219.824281 
L 446.272302 -215.724465 
L 446.282765 -211.624649 
L 446.342238 -207.524833 
L 446.45465 -203.425017 
L 446.619327 -199.325201 
L 446.830692 -195.225385 
L 447.078323 -191.125569 
L 447.347379 -187.025753 
L 447.619353 -182.925937 
L 447.873091 -178.826121 
L 448.086018 -174.726305 
L 448.235474 -170.626489 
L 448.300094 -166.526673 
L 448.261133 -162.426857 
L 448.103654 -158.327041 
L 447.817509 -154.227226 
L 447.398043 -150.12741 
L 446.846466 -146.027594 
L 446.169869 -141.927778 
L 445.380864 -137.827962 
L 444.496882 -133.728146 
L 443.539163 -129.62833 
L 442.531523 -125.528514 
L 441.498983 -121.428698 
L 440.466382 -117.328882 
L 439.457056 -113.229066 
L 438.491717 -109.12925 
L 437.587573 -105.029434 
L 436.757768 -100.929618 
L 436.011138 -96.829802 
L 435.352291 -92.729987 
L 434.781944 -88.630171 
L 434.297475 -84.530355 
L 433.893604 -80.430539 
L 433.563137 -76.330723 
L 433.297695 -72.230907 
L 433.088378 -68.131091 
z
" id="m3bfc854406" style="stroke:#373737;stroke-width:1.5;"/>
    </defs>
    <g clip-path="url(#p51a238dfce)">
     <use style="fill:#be631d;stroke:#373737;stroke-width:1.5;" x="0" xlink:href="#m3bfc854406" y="509.319"/>
    </g>
   </g>
   <g id="PolyCollection_9">
    <defs>
     <path d="M 491.881092 -108.24974 
L 490.069703 -108.24974 
L 489.529575 -109.995814 
L 488.763207 -111.741888 
L 487.730288 -113.487963 
L 486.409926 -115.234037 
L 484.812658 -116.980111 
L 482.989593 -118.726186 
L 481.035105 -120.47226 
L 479.080341 -122.218334 
L 477.277083 -123.964409 
L 475.774334 -125.710483 
L 474.692679 -127.456557 
L 474.10274 -129.202632 
L 474.013386 -130.948706 
L 474.372755 -132.69478 
L 475.081591 -134.440855 
L 476.014977 -136.186929 
L 477.046597 -137.933003 
L 478.069554 -139.679078 
L 479.009465 -141.425152 
L 479.828204 -143.171226 
L 480.519365 -144.917301 
L 481.09835 -146.663375 
L 481.590745 -148.409449 
L 482.022148 -150.155524 
L 482.411419 -151.901598 
L 482.767901 -153.647672 
L 483.091934 -155.393747 
L 483.377373 -157.139821 
L 483.614726 -158.885895 
L 483.793937 -160.63197 
L 483.906333 -162.378044 
L 483.945727 -164.124118 
L 483.908892 -165.870193 
L 483.795604 -167.616267 
L 483.608379 -169.362341 
L 483.351943 -171.108416 
L 483.032499 -172.85449 
L 482.656942 -174.600564 
L 482.232304 -176.346639 
L 481.765685 -178.092713 
L 481.26484 -179.838787 
L 480.739327 -181.584862 
L 480.201935 -183.330936 
L 479.669869 -185.07701 
L 479.165221 -186.823084 
L 478.714329 -188.569159 
L 478.345899 -190.315233 
L 478.088036 -192.061307 
L 477.964633 -193.807382 
L 477.991757 -195.553456 
L 478.174742 -197.29953 
L 478.506652 -199.045605 
L 478.968525 -200.791679 
L 479.531473 -202.537753 
L 480.160291 -204.283828 
L 480.817945 -206.029902 
L 481.47007 -207.775976 
L 482.088669 -209.522051 
L 482.654428 -211.268125 
L 483.157405 -213.014199 
L 483.59625 -214.760274 
L 483.976418 -216.506348 
L 484.30797 -218.252422 
L 484.603496 -219.998497 
L 484.876488 -221.744571 
L 485.140209 -223.490645 
L 485.406878 -225.23672 
L 485.686949 -226.982794 
L 485.988305 -228.728868 
L 486.315381 -230.474943 
L 486.668427 -232.221017 
L 487.04317 -233.967091 
L 487.431099 -235.713166 
L 487.820437 -237.45924 
L 488.19766 -239.205314 
L 488.549317 -240.951389 
L 488.863808 -242.697463 
L 489.132868 -244.443537 
L 489.352542 -246.189612 
L 489.523558 -247.935686 
L 489.651073 -249.68176 
L 489.743825 -251.427835 
L 489.812823 -253.173909 
L 489.869748 -254.919983 
L 489.925311 -256.666058 
L 489.987846 -258.412132 
L 490.062367 -260.158206 
L 490.150249 -261.90428 
L 490.249556 -263.650355 
L 490.355888 -265.396429 
L 490.463541 -267.142503 
L 490.566701 -268.888578 
L 490.660446 -270.634652 
L 490.741386 -272.380726 
L 490.807892 -274.126801 
L 490.859967 -275.872875 
L 490.898862 -277.618949 
L 490.926597 -279.365024 
L 490.945488 -281.111098 
L 491.005307 -281.111098 
L 491.005307 -281.111098 
L 491.024198 -279.365024 
L 491.051933 -277.618949 
L 491.090828 -275.872875 
L 491.142903 -274.126801 
L 491.209409 -272.380726 
L 491.290349 -270.634652 
L 491.384094 -268.888578 
L 491.487254 -267.142503 
L 491.594906 -265.396429 
L 491.701239 -263.650355 
L 491.800546 -261.90428 
L 491.888428 -260.158206 
L 491.962949 -258.412132 
L 492.025484 -256.666058 
L 492.081047 -254.919983 
L 492.137972 -253.173909 
L 492.20697 -251.427835 
L 492.299722 -249.68176 
L 492.427237 -247.935686 
L 492.598253 -246.189612 
L 492.817927 -244.443537 
L 493.086987 -242.697463 
L 493.401478 -240.951389 
L 493.753134 -239.205314 
L 494.130358 -237.45924 
L 494.519696 -235.713166 
L 494.907625 -233.967091 
L 495.282368 -232.221017 
L 495.635414 -230.474943 
L 495.96249 -228.728868 
L 496.263846 -226.982794 
L 496.543917 -225.23672 
L 496.810586 -223.490645 
L 497.074306 -221.744571 
L 497.347299 -219.998497 
L 497.642825 -218.252422 
L 497.974377 -216.506348 
L 498.354545 -214.760274 
L 498.79339 -213.014199 
L 499.296367 -211.268125 
L 499.862126 -209.522051 
L 500.480725 -207.775976 
L 501.132849 -206.029902 
L 501.790504 -204.283828 
L 502.419322 -202.537753 
L 502.98227 -200.791679 
L 503.444143 -199.045605 
L 503.776053 -197.29953 
L 503.959037 -195.553456 
L 503.986162 -193.807382 
L 503.862759 -192.061307 
L 503.604896 -190.315233 
L 503.236466 -188.569159 
L 502.785574 -186.823084 
L 502.280926 -185.07701 
L 501.74886 -183.330936 
L 501.211468 -181.584862 
L 500.685955 -179.838787 
L 500.185109 -178.092713 
L 499.718491 -176.346639 
L 499.293853 -174.600564 
L 498.918296 -172.85449 
L 498.598852 -171.108416 
L 498.342416 -169.362341 
L 498.155191 -167.616267 
L 498.041903 -165.870193 
L 498.005068 -164.124118 
L 498.044462 -162.378044 
L 498.156858 -160.63197 
L 498.336069 -158.885895 
L 498.573422 -157.139821 
L 498.858861 -155.393747 
L 499.182894 -153.647672 
L 499.539376 -151.901598 
L 499.928647 -150.155524 
L 500.36005 -148.409449 
L 500.852445 -146.663375 
L 501.43143 -144.917301 
L 502.12259 -143.171226 
L 502.94133 -141.425152 
L 503.881241 -139.679078 
L 504.904198 -137.933003 
L 505.935818 -136.186929 
L 506.869204 -134.440855 
L 507.578039 -132.69478 
L 507.937409 -130.948706 
L 507.848055 -129.202632 
L 507.258116 -127.456557 
L 506.176461 -125.710483 
L 504.673712 -123.964409 
L 502.870454 -122.218334 
L 500.91569 -120.47226 
L 498.961201 -118.726186 
L 497.138137 -116.980111 
L 495.540868 -115.234037 
L 494.220507 -113.487963 
L 493.187588 -111.741888 
L 492.42122 -109.995814 
L 491.881092 -108.24974 
z
" id="m10f83c474d" style="stroke:#373737;stroke-width:1.5;"/>
    </defs>
    <g clip-path="url(#p51a238dfce)">
     <use style="fill:#2b8e70;stroke:#373737;stroke-width:1.5;" x="0" xlink:href="#m10f83c474d" y="509.319"/>
    </g>
   </g>
   <g id="PolyCollection_10">
    <defs>
     <path d="M 531.401014 -107.925766 
L 528.528925 -107.925766 
L 527.871213 -109.418938 
L 527.003351 -110.91211 
L 525.900238 -112.405282 
L 524.551208 -113.898454 
L 522.966442 -115.391626 
L 521.181931 -116.884798 
L 519.261562 -118.37797 
L 517.295146 -119.871142 
L 515.391828 -121.364314 
L 513.669262 -122.857486 
L 512.2399 -124.350658 
L 511.196578 -125.84383 
L 510.599958 -127.337002 
L 510.470183 -128.830174 
L 510.784367 -130.323346 
L 511.480366 -131.816518 
L 512.466076 -133.30969 
L 513.632463 -134.802862 
L 514.867927 -136.296034 
L 516.071599 -137.789206 
L 517.163587 -139.282378 
L 518.090968 -140.77555 
L 518.829223 -142.268722 
L 519.379559 -143.761894 
L 519.763207 -145.255066 
L 520.014007 -146.748238 
L 520.170676 -148.24141 
L 520.269951 -149.734582 
L 520.341438 -151.227754 
L 520.404642 -152.720926 
L 520.468197 -154.214098 
L 520.531013 -155.70727 
L 520.584784 -157.200442 
L 520.617234 -158.693614 
L 520.615458 -160.186786 
L 520.568856 -161.679958 
L 520.471303 -163.17313 
L 520.322393 -164.666302 
L 520.127719 -166.159474 
L 519.898255 -167.652646 
L 519.648983 -169.145818 
L 519.396961 -170.63899 
L 519.159032 -172.132162 
L 518.949494 -173.625334 
L 518.778006 -175.118506 
L 518.648089 -176.611678 
L 518.556499 -178.10485 
L 518.493674 -179.598022 
L 518.44529 -181.091194 
L 518.394787 -182.584366 
L 518.326505 -184.077538 
L 518.228943 -185.57071 
L 518.097579 -187.063882 
L 517.936706 -188.557054 
L 517.759896 -190.050226 
L 517.588922 -191.543398 
L 517.45127 -193.03657 
L 517.376601 -194.529742 
L 517.392774 -196.022914 
L 517.522098 -197.516086 
L 517.778425 -199.009258 
L 518.165559 -200.50243 
L 518.677132 -201.995602 
L 519.297863 -203.488774 
L 520.005843 -204.981946 
L 520.775351 -206.475118 
L 521.579685 -207.96829 
L 522.393574 -209.461462 
L 523.194892 -210.954634 
L 523.965614 -212.447806 
L 524.692074 -213.940978 
L 525.364718 -215.43415 
L 525.977578 -216.927322 
L 526.527657 -218.420494 
L 527.014361 -219.913666 
L 527.439032 -221.406838 
L 527.804602 -222.90001 
L 528.115306 -224.393182 
L 528.376422 -225.886354 
L 528.593997 -227.379526 
L 528.774532 -228.872698 
L 528.92464 -230.36587 
L 529.050686 -231.859042 
L 529.15845 -233.352214 
L 529.252852 -234.845386 
L 529.33776 -236.338558 
L 529.415913 -237.83173 
L 529.488964 -239.324902 
L 529.55762 -240.818074 
L 529.621868 -242.311246 
L 529.681242 -243.804418 
L 529.735088 -245.29759 
L 529.782795 -246.790762 
L 529.823962 -248.283934 
L 529.858489 -249.777106 
L 529.886596 -251.270278 
L 529.908788 -252.76345 
L 529.92577 -254.256622 
L 529.938363 -255.749794 
L 529.991575 -255.749794 
L 529.991575 -255.749794 
L 530.004168 -254.256622 
L 530.021151 -252.76345 
L 530.043342 -251.270278 
L 530.07145 -249.777106 
L 530.105976 -248.283934 
L 530.147143 -246.790762 
L 530.194851 -245.29759 
L 530.248697 -243.804418 
L 530.308071 -242.311246 
L 530.372319 -240.818074 
L 530.440974 -239.324902 
L 530.514025 -237.83173 
L 530.592179 -236.338558 
L 530.677087 -234.845386 
L 530.771488 -233.352214 
L 530.879253 -231.859042 
L 531.005298 -230.36587 
L 531.155406 -228.872698 
L 531.335942 -227.379526 
L 531.553516 -225.886354 
L 531.814632 -224.393182 
L 532.125336 -222.90001 
L 532.490907 -221.406838 
L 532.915578 -219.913666 
L 533.402281 -218.420494 
L 533.952361 -216.927322 
L 534.565221 -215.43415 
L 535.237865 -213.940978 
L 535.964325 -212.447806 
L 536.735047 -210.954634 
L 537.536365 -209.461462 
L 538.350253 -207.96829 
L 539.154588 -206.475118 
L 539.924096 -204.981946 
L 540.632075 -203.488774 
L 541.252806 -201.995602 
L 541.764379 -200.50243 
L 542.151513 -199.009258 
L 542.407841 -197.516086 
L 542.537164 -196.022914 
L 542.553338 -194.529742 
L 542.478669 -193.03657 
L 542.341016 -191.543398 
L 542.170043 -190.050226 
L 541.993232 -188.557054 
L 541.83236 -187.063882 
L 541.700996 -185.57071 
L 541.603434 -184.077538 
L 541.535151 -182.584366 
L 541.484649 -181.091194 
L 541.436265 -179.598022 
L 541.373439 -178.10485 
L 541.281849 -176.611678 
L 541.151933 -175.118506 
L 540.980445 -173.625334 
L 540.770907 -172.132162 
L 540.532978 -170.63899 
L 540.280955 -169.145818 
L 540.031684 -167.652646 
L 539.802219 -166.159474 
L 539.607546 -164.666302 
L 539.458636 -163.17313 
L 539.361083 -161.679958 
L 539.31448 -160.186786 
L 539.312705 -158.693614 
L 539.345155 -157.200442 
L 539.398926 -155.70727 
L 539.461741 -154.214098 
L 539.525297 -152.720926 
L 539.588501 -151.227754 
L 539.659988 -149.734582 
L 539.759262 -148.24141 
L 539.915932 -146.748238 
L 540.166731 -145.255066 
L 540.55038 -143.761894 
L 541.100716 -142.268722 
L 541.83897 -140.77555 
L 542.766352 -139.282378 
L 543.858339 -137.789206 
L 545.062012 -136.296034 
L 546.297476 -134.802862 
L 547.463863 -133.30969 
L 548.449573 -131.816518 
L 549.145571 -130.323346 
L 549.459755 -128.830174 
L 549.329981 -127.337002 
L 548.73336 -125.84383 
L 547.690038 -124.350658 
L 546.260676 -122.857486 
L 544.538111 -121.364314 
L 542.634793 -119.871142 
L 540.668376 -118.37797 
L 538.748008 -116.884798 
L 536.963497 -115.391626 
L 535.378731 -113.898454 
L 534.029701 -112.405282 
L 532.926587 -110.91211 
L 532.058726 -109.418938 
L 531.401014 -107.925766 
z
" id="mb5537d8348" style="stroke:#373737;stroke-width:1.5;"/>
    </defs>
    <g clip-path="url(#p51a238dfce)">
     <use style="fill:#be631d;stroke:#373737;stroke-width:1.5;" x="0" xlink:href="#mb5537d8348" y="509.319"/>
    </g>
   </g>
   <g id="patch_3">
    <path clip-path="url(#p51a238dfce)" d="M 120.574465 384.608822 
L 120.574465 384.608822 
L 120.574465 384.608822 
L 120.574465 384.608822 
z
" style="fill:#2b8e70;stroke:#373737;stroke-linejoin:miter;stroke-width:0.75;"/>
   </g>
   <g id="patch_4">
    <path clip-path="url(#p51a238dfce)" d="M 120.574465 384.608822 
L 120.574465 384.608822 
L 120.574465 384.608822 
L 120.574465 384.608822 
z
" style="fill:#be631d;stroke:#373737;stroke-linejoin:miter;stroke-width:0.75;"/>
   </g>
   <g id="line2d_1">
    <path clip-path="url(#p51a238dfce)" d="M 101.079679 384.608822 
L 101.079679 298.253145 
" style="fill:none;stroke:#373737;stroke-linecap:round;stroke-width:1.5;"/>
   </g>
   <g id="line2d_2">
    <path clip-path="url(#p51a238dfce)" d="M 101.079679 374.86613 
L 101.079679 340.932778 
" style="fill:none;stroke:#373737;stroke-linecap:round;stroke-width:4.5;"/>
   </g>
   <g id="line2d_3">
    <path clip-path="url(#p51a238dfce)" d="M 140.069251 384.608822 
L 140.069251 320.617051 
" style="fill:none;stroke:#373737;stroke-linecap:round;stroke-width:1.5;"/>
   </g>
   <g id="line2d_4">
    <path clip-path="url(#p51a238dfce)" d="M 140.069251 381.342806 
L 140.069251 355.159322 
" style="fill:none;stroke:#373737;stroke-linecap:round;stroke-width:4.5;"/>
   </g>
   <g id="line2d_5">
    <path clip-path="url(#p51a238dfce)" d="M 198.553609 384.387397 
L 198.553609 170.712452 
" style="fill:none;stroke:#373737;stroke-linecap:round;stroke-width:1.5;"/>
   </g>
   <g id="line2d_6">
    <path clip-path="url(#p51a238dfce)" d="M 198.553609 369.551935 
L 198.553609 255.961005 
" style="fill:none;stroke:#373737;stroke-linecap:round;stroke-width:4.5;"/>
   </g>
   <g id="line2d_7">
    <path clip-path="url(#p51a238dfce)" d="M 237.54318 384.387397 
L 237.54318 204.811873 
" style="fill:none;stroke:#373737;stroke-linecap:round;stroke-width:1.5;"/>
   </g>
   <g id="line2d_8">
    <path clip-path="url(#p51a238dfce)" d="M 237.54318 374.201856 
L 237.54318 276.332088 
" style="fill:none;stroke:#373737;stroke-linecap:round;stroke-width:4.5;"/>
   </g>
   <g id="line2d_9">
    <path clip-path="url(#p51a238dfce)" d="M 296.027538 384.608822 
L 296.027538 167.612505 
" style="fill:none;stroke:#373737;stroke-linecap:round;stroke-width:1.5;"/>
   </g>
   <g id="line2d_10">
    <path clip-path="url(#p51a238dfce)" d="M 296.027538 367.337687 
L 296.027538 262.382325 
" style="fill:none;stroke:#373737;stroke-linecap:round;stroke-width:4.5;"/>
   </g>
   <g id="line2d_11">
    <path clip-path="url(#p51a238dfce)" d="M 335.01711 384.608822 
L 335.01711 187.983588 
" style="fill:none;stroke:#373737;stroke-linecap:round;stroke-width:1.5;"/>
   </g>
   <g id="line2d_12">
    <path clip-path="url(#p51a238dfce)" d="M 335.01711 373.094732 
L 335.01711 280.317735 
" style="fill:none;stroke:#373737;stroke-linecap:round;stroke-width:4.5;"/>
   </g>
   <g id="line2d_13">
    <path clip-path="url(#p51a238dfce)" d="M 393.501468 384.387397 
L 393.501468 69.299887 
" style="fill:none;stroke:#373737;stroke-linecap:round;stroke-width:1.5;"/>
   </g>
   <g id="line2d_14">
    <path clip-path="url(#p51a238dfce)" d="M 393.501468 348.793359 
L 393.501468 204.092243 
" style="fill:none;stroke:#373737;stroke-linecap:round;stroke-width:4.5;"/>
   </g>
   <g id="line2d_15">
    <path clip-path="url(#p51a238dfce)" d="M 432.49104 379.958901 
L 432.49104 96.53514 
" style="fill:none;stroke:#373737;stroke-linecap:round;stroke-width:1.5;"/>
   </g>
   <g id="line2d_16">
    <path clip-path="url(#p51a238dfce)" d="M 432.49104 342.593464 
L 432.49104 205.033298 
" style="fill:none;stroke:#373737;stroke-linecap:round;stroke-width:4.5;"/>
   </g>
   <g id="line2d_17">
    <path clip-path="url(#p51a238dfce)" d="M 490.975397 384.608822 
L 490.975397 244.66834 
" style="fill:none;stroke:#373737;stroke-linecap:round;stroke-width:1.5;"/>
   </g>
   <g id="line2d_18">
    <path clip-path="url(#p51a238dfce)" d="M 490.975397 374.700062 
L 490.975397 310.43151 
" style="fill:none;stroke:#373737;stroke-linecap:round;stroke-width:4.5;"/>
   </g>
   <g id="line2d_19">
    <path clip-path="url(#p51a238dfce)" d="M 529.964969 384.608822 
L 529.964969 270.353618 
" style="fill:none;stroke:#373737;stroke-linecap:round;stroke-width:1.5;"/>
   </g>
   <g id="line2d_20">
    <path clip-path="url(#p51a238dfce)" d="M 529.964969 380.235682 
L 529.964969 318.568871 
" style="fill:none;stroke:#373737;stroke-linecap:round;stroke-width:4.5;"/>
   </g>
   <g id="patch_5">
    <path d="M 71.8375 461.854 
L 71.8375 7.2 
" style="fill:none;stroke:#262626;stroke-linecap:square;stroke-linejoin:miter;stroke-width:0.8;"/>
   </g>
   <g id="patch_6">
    <path d="M 71.8375 461.854 
L 559.207148 461.854 
" style="fill:none;stroke:#262626;stroke-linecap:square;stroke-linejoin:miter;stroke-width:0.8;"/>
   </g>
   <g id="PathCollection_1">
    <defs>
     <path d="M 0 1.5 
C 0.397805 1.5 0.77937 1.341951 1.06066 1.06066 
C 1.341951 0.77937 1.5 0.397805 1.5 0 
C 1.5 -0.397805 1.341951 -0.77937 1.06066 -1.06066 
C 0.77937 -1.341951 0.397805 -1.5 0 -1.5 
C -0.397805 -1.5 -0.77937 -1.341951 -1.06066 -1.06066 
C -1.341951 -0.77937 -1.5 -0.397805 -1.5 0 
C -1.5 0.397805 -1.341951 0.77937 -1.06066 1.06066 
C -0.77937 1.341951 -0.397805 1.5 0 1.5 
z
" id="me2739396a9" style="stroke:#373737;"/>
    </defs>
    <g clip-path="url(#p51a238dfce)">
     <use style="fill:#ffffff;stroke:#373737;" x="101.079679" xlink:href="#me2739396a9" y="358.702119"/>
    </g>
   </g>
   <g id="PathCollection_2">
    <g clip-path="url(#p51a238dfce)">
     <use style="fill:#ffffff;stroke:#373737;" x="140.069251" xlink:href="#me2739396a9" y="367.891249"/>
    </g>
   </g>
   <g id="PathCollection_3">
    <g clip-path="url(#p51a238dfce)">
     <use style="fill:#ffffff;stroke:#373737;" x="198.553609" xlink:href="#me2739396a9" y="305.338739"/>
    </g>
   </g>
   <g id="PathCollection_4">
    <g clip-path="url(#p51a238dfce)">
     <use style="fill:#ffffff;stroke:#373737;" x="237.54318" xlink:href="#me2739396a9" y="320.838476"/>
    </g>
   </g>
   <g id="PathCollection_5">
    <g clip-path="url(#p51a238dfce)">
     <use style="fill:#ffffff;stroke:#373737;" x="296.027538" xlink:href="#me2739396a9" y="306.888713"/>
    </g>
   </g>
   <g id="PathCollection_6">
    <g clip-path="url(#p51a238dfce)">
     <use style="fill:#ffffff;stroke:#373737;" x="335.01711" xlink:href="#me2739396a9" y="322.167025"/>
    </g>
   </g>
   <g id="PathCollection_7">
    <g clip-path="url(#p51a238dfce)">
     <use style="fill:#ffffff;stroke:#373737;" x="393.501468" xlink:href="#me2739396a9" y="282.86412"/>
    </g>
   </g>
   <g id="PathCollection_8">
    <g clip-path="url(#p51a238dfce)">
     <use style="fill:#ffffff;stroke:#373737;" x="432.49104" xlink:href="#me2739396a9" y="268.471507"/>
    </g>
   </g>
   <g id="PathCollection_9">
    <g clip-path="url(#p51a238dfce)">
     <use style="fill:#ffffff;stroke:#373737;" x="490.975397" xlink:href="#me2739396a9" y="336.116788"/>
    </g>
   </g>
   <g id="PathCollection_10">
    <g clip-path="url(#p51a238dfce)">
     <use style="fill:#ffffff;stroke:#373737;" x="529.964969" xlink:href="#me2739396a9" y="348.516578"/>
    </g>
   </g>
  </g>
  <g id="legend_1">
   <g id="text_16">
    <!-- weather -->
    <defs>
     <path d="M 16.15625 0 
L 0.296875 51.859375 
L 9.375 51.859375 
L 17.625 21.921875 
L 20.703125 10.796875 
Q 20.90625 11.625 23.390625 21.484375 
L 31.640625 51.859375 
L 40.671875 51.859375 
L 48.4375 21.78125 
L 51.03125 11.859375 
L 54 21.875 
L 62.890625 51.859375 
L 71.4375 51.859375 
L 55.21875 0 
L 46.09375 0 
L 37.84375 31.0625 
L 35.84375 39.890625 
L 25.34375 0 
z
" id="ArialMT-119"/>
     <path d="M 40.4375 6.390625 
Q 35.546875 2.25 31.03125 0.53125 
Q 26.515625 -1.171875 21.34375 -1.171875 
Q 12.796875 -1.171875 8.203125 3 
Q 3.609375 7.171875 3.609375 13.671875 
Q 3.609375 17.484375 5.34375 20.625 
Q 7.078125 23.78125 9.890625 25.6875 
Q 12.703125 27.59375 16.21875 28.5625 
Q 18.796875 29.25 24.03125 29.890625 
Q 34.671875 31.15625 39.703125 32.90625 
Q 39.75 34.71875 39.75 35.203125 
Q 39.75 40.578125 37.25 42.78125 
Q 33.890625 45.75 27.25 45.75 
Q 21.046875 45.75 18.09375 43.578125 
Q 15.140625 41.40625 13.71875 35.890625 
L 5.125 37.0625 
Q 6.296875 42.578125 8.984375 45.96875 
Q 11.671875 49.359375 16.75 51.1875 
Q 21.828125 53.03125 28.515625 53.03125 
Q 35.15625 53.03125 39.296875 51.46875 
Q 43.453125 49.90625 45.40625 47.53125 
Q 47.359375 45.171875 48.140625 41.546875 
Q 48.578125 39.3125 48.578125 33.453125 
L 48.578125 21.734375 
Q 48.578125 9.46875 49.140625 6.21875 
Q 49.703125 2.984375 51.375 0 
L 42.1875 0 
Q 40.828125 2.734375 40.4375 6.390625 
z
M 39.703125 26.03125 
Q 34.90625 24.078125 25.34375 22.703125 
Q 19.921875 21.921875 17.671875 20.9375 
Q 15.4375 19.96875 14.203125 18.09375 
Q 12.984375 16.21875 12.984375 13.921875 
Q 12.984375 10.40625 15.640625 8.0625 
Q 18.3125 5.71875 23.4375 5.71875 
Q 28.515625 5.71875 32.46875 7.9375 
Q 36.421875 10.15625 38.28125 14.015625 
Q 39.703125 17 39.703125 22.796875 
z
" id="ArialMT-97"/>
     <path d="M 6.59375 0 
L 6.59375 71.578125 
L 15.375 71.578125 
L 15.375 45.90625 
Q 21.53125 53.03125 30.90625 53.03125 
Q 36.671875 53.03125 40.921875 50.75 
Q 45.171875 48.484375 47 44.484375 
Q 48.828125 40.484375 48.828125 32.859375 
L 48.828125 0 
L 40.046875 0 
L 40.046875 32.859375 
Q 40.046875 39.453125 37.1875 42.453125 
Q 34.328125 45.453125 29.109375 45.453125 
Q 25.203125 45.453125 21.75 43.421875 
Q 18.3125 41.40625 16.84375 37.9375 
Q 15.375 34.46875 15.375 28.375 
L 15.375 0 
z
" id="ArialMT-104"/>
    </defs>
    <g style="fill:#262626;" transform="translate(661.71175 236.0695)scale(0.16 -0.16)">
     <use xlink:href="#ArialMT-119"/>
     <use x="72.216797" xlink:href="#ArialMT-101"/>
     <use x="127.832031" xlink:href="#ArialMT-97"/>
     <use x="183.447266" xlink:href="#ArialMT-116"/>
     <use x="211.230469" xlink:href="#ArialMT-104"/>
     <use x="266.845703" xlink:href="#ArialMT-101"/>
     <use x="322.460938" xlink:href="#ArialMT-114"/>
    </g>
   </g>
   <g id="patch_7">
    <path d="M 649.9755 258.702 
L 681.9755 258.702 
L 681.9755 247.502 
L 649.9755 247.502 
z
" style="fill:#2b8e70;stroke:#373737;stroke-linejoin:miter;stroke-width:0.75;"/>
   </g>
   <g id="text_17">
    <!-- good -->
    <defs>
     <path d="M 4.984375 -4.296875 
L 13.53125 -5.5625 
Q 14.0625 -9.515625 16.5 -11.328125 
Q 19.78125 -13.765625 25.4375 -13.765625 
Q 31.546875 -13.765625 34.859375 -11.328125 
Q 38.1875 -8.890625 39.359375 -4.5 
Q 40.046875 -1.8125 39.984375 6.78125 
Q 34.234375 0 25.640625 0 
Q 14.9375 0 9.078125 7.71875 
Q 3.21875 15.4375 3.21875 26.21875 
Q 3.21875 33.640625 5.90625 39.90625 
Q 8.59375 46.1875 13.6875 49.609375 
Q 18.796875 53.03125 25.6875 53.03125 
Q 34.859375 53.03125 40.828125 45.609375 
L 40.828125 51.859375 
L 48.921875 51.859375 
L 48.921875 7.03125 
Q 48.921875 -5.078125 46.453125 -10.125 
Q 44 -15.1875 38.640625 -18.109375 
Q 33.296875 -21.046875 25.484375 -21.046875 
Q 16.21875 -21.046875 10.5 -16.875 
Q 4.78125 -12.703125 4.984375 -4.296875 
z
M 12.25 26.859375 
Q 12.25 16.65625 16.296875 11.96875 
Q 20.359375 7.28125 26.46875 7.28125 
Q 32.515625 7.28125 36.609375 11.9375 
Q 40.71875 16.609375 40.71875 26.5625 
Q 40.71875 36.078125 36.5 40.90625 
Q 32.28125 45.75 26.3125 45.75 
Q 20.453125 45.75 16.34375 40.984375 
Q 12.25 36.234375 12.25 26.859375 
z
" id="ArialMT-103"/>
    </defs>
    <g style="fill:#262626;" transform="translate(694.7755 258.702)scale(0.16 -0.16)">
     <use xlink:href="#ArialMT-103"/>
     <use x="55.615234" xlink:href="#ArialMT-111"/>
     <use x="111.230469" xlink:href="#ArialMT-111"/>
     <use x="166.845703" xlink:href="#ArialMT-100"/>
    </g>
   </g>
   <g id="patch_8">
    <path d="M 649.9755 281.522 
L 681.9755 281.522 
L 681.9755 270.322 
L 649.9755 270.322 
z
" style="fill:#be631d;stroke:#373737;stroke-linejoin:miter;stroke-width:0.75;"/>
   </g>
   <g id="text_18">
    <!-- bad -->
    <defs>
     <path d="M 14.703125 0 
L 6.546875 0 
L 6.546875 71.578125 
L 15.328125 71.578125 
L 15.328125 46.046875 
Q 20.90625 53.03125 29.546875 53.03125 
Q 34.328125 53.03125 38.59375 51.09375 
Q 42.875 49.171875 45.625 45.671875 
Q 48.390625 42.1875 49.953125 37.25 
Q 51.515625 32.328125 51.515625 26.703125 
Q 51.515625 13.375 44.921875 6.09375 
Q 38.328125 -1.171875 29.109375 -1.171875 
Q 19.921875 -1.171875 14.703125 6.5 
z
M 14.59375 26.3125 
Q 14.59375 17 17.140625 12.84375 
Q 21.296875 6.0625 28.375 6.0625 
Q 34.125 6.0625 38.328125 11.0625 
Q 42.53125 16.0625 42.53125 25.984375 
Q 42.53125 36.140625 38.5 40.96875 
Q 34.46875 45.796875 28.765625 45.796875 
Q 23 45.796875 18.796875 40.796875 
Q 14.59375 35.796875 14.59375 26.3125 
z
" id="ArialMT-98"/>
    </defs>
    <g style="fill:#262626;" transform="translate(694.7755 281.522)scale(0.16 -0.16)">
     <use xlink:href="#ArialMT-98"/>
     <use x="55.615234" xlink:href="#ArialMT-97"/>
     <use x="111.230469" xlink:href="#ArialMT-100"/>
    </g>
   </g>
  </g>
 </g>
 <defs>
  <clipPath id="p51a238dfce">
   <rect height="454.654" width="487.369648" x="71.8375" y="7.2"/>
  </clipPath>
 </defs>
</svg>
