<?xml version="1.0" encoding="utf-8" standalone="no"?>
<!DOCTYPE svg PUBLIC "-//W3C//DTD SVG 1.1//EN"
  "http://www.w3.org/Graphics/SVG/1.1/DTD/svg11.dtd">
<!-- Created with matplotlib (https://matplotlib.org/) -->
<svg height="509.319pt" version="1.1" viewBox="0 0 698.7091 509.319" width="698.7091pt" xmlns="http://www.w3.org/2000/svg" xmlns:xlink="http://www.w3.org/1999/xlink">
 <defs>
  <style type="text/css">
*{stroke-linecap:butt;stroke-linejoin:round;white-space:pre;}
  </style>
 </defs>
 <g id="figure_1">
  <g id="patch_1">
   <path d="M 0 509.319 
L 698.7091 509.319 
L 698.7091 0 
L 0 0 
z
" style="fill:#ffffff;"/>
  </g>
  <g id="axes_1">
   <g id="patch_2">
    <path d="M 71.8375 461.854 
L 691.5091 461.854 
L 691.5091 7.2 
L 71.8375 7.2 
z
" style="fill:#ffffff;"/>
   </g>
   <g id="matplotlib.axis_1">
    <g id="xtick_1">
     <g id="text_1">
      <!-- 1025-116 -->
      <defs>
       <path d="M 37.25 0 
L 28.46875 0 
L 28.46875 56 
Q 25.296875 52.984375 20.140625 49.953125 
Q 14.984375 46.921875 10.890625 45.40625 
L 10.890625 53.90625 
Q 18.265625 57.375 23.78125 62.296875 
Q 29.296875 67.234375 31.59375 71.875 
L 37.25 71.875 
z
" id="ArialMT-49"/>
       <path d="M 4.15625 35.296875 
Q 4.15625 48 6.765625 55.734375 
Q 9.375 63.484375 14.515625 67.671875 
Q 19.671875 71.875 27.484375 71.875 
Q 33.25 71.875 37.59375 69.546875 
Q 41.9375 67.234375 44.765625 62.859375 
Q 47.609375 58.5 49.21875 52.21875 
Q 50.828125 45.953125 50.828125 35.296875 
Q 50.828125 22.703125 48.234375 14.96875 
Q 45.65625 7.234375 40.5 3 
Q 35.359375 -1.21875 27.484375 -1.21875 
Q 17.140625 -1.21875 11.234375 6.203125 
Q 4.15625 15.140625 4.15625 35.296875 
z
M 13.1875 35.296875 
Q 13.1875 17.671875 17.3125 11.828125 
Q 21.4375 6 27.484375 6 
Q 33.546875 6 37.671875 11.859375 
Q 41.796875 17.71875 41.796875 35.296875 
Q 41.796875 52.984375 37.671875 58.78125 
Q 33.546875 64.59375 27.390625 64.59375 
Q 21.34375 64.59375 17.71875 59.46875 
Q 13.1875 52.9375 13.1875 35.296875 
z
" id="ArialMT-48"/>
       <path d="M 50.34375 8.453125 
L 50.34375 0 
L 3.03125 0 
Q 2.9375 3.171875 4.046875 6.109375 
Q 5.859375 10.9375 9.828125 15.625 
Q 13.8125 20.3125 21.34375 26.46875 
Q 33.015625 36.03125 37.109375 41.625 
Q 41.21875 47.21875 41.21875 52.203125 
Q 41.21875 57.421875 37.46875 61 
Q 33.734375 64.59375 27.734375 64.59375 
Q 21.390625 64.59375 17.578125 60.78125 
Q 13.765625 56.984375 13.71875 50.25 
L 4.6875 51.171875 
Q 5.609375 61.28125 11.65625 66.578125 
Q 17.71875 71.875 27.9375 71.875 
Q 38.234375 71.875 44.234375 66.15625 
Q 50.25 60.453125 50.25 52 
Q 50.25 47.703125 48.484375 43.546875 
Q 46.734375 39.40625 42.65625 34.8125 
Q 38.578125 30.21875 29.109375 22.21875 
Q 21.1875 15.578125 18.9375 13.203125 
Q 16.703125 10.84375 15.234375 8.453125 
z
" id="ArialMT-50"/>
       <path d="M 4.15625 18.75 
L 13.375 19.53125 
Q 14.40625 12.796875 18.140625 9.390625 
Q 21.875 6 27.15625 6 
Q 33.5 6 37.890625 10.78125 
Q 42.28125 15.578125 42.28125 23.484375 
Q 42.28125 31 38.0625 35.34375 
Q 33.84375 39.703125 27 39.703125 
Q 22.75 39.703125 19.328125 37.765625 
Q 15.921875 35.84375 13.96875 32.765625 
L 5.71875 33.84375 
L 12.640625 70.609375 
L 48.25 70.609375 
L 48.25 62.203125 
L 19.671875 62.203125 
L 15.828125 42.96875 
Q 22.265625 47.46875 29.34375 47.46875 
Q 38.71875 47.46875 45.15625 40.96875 
Q 51.609375 34.46875 51.609375 24.265625 
Q 51.609375 14.546875 45.953125 7.46875 
Q 39.0625 -1.21875 27.15625 -1.21875 
Q 17.390625 -1.21875 11.203125 4.25 
Q 5.03125 9.71875 4.15625 18.75 
z
" id="ArialMT-53"/>
       <path d="M 3.171875 21.484375 
L 3.171875 30.328125 
L 30.171875 30.328125 
L 30.171875 21.484375 
z
" id="ArialMT-45"/>
       <path d="M 49.75 54.046875 
L 41.015625 53.375 
Q 39.84375 58.546875 37.703125 60.890625 
Q 34.125 64.65625 28.90625 64.65625 
Q 24.703125 64.65625 21.53125 62.3125 
Q 17.390625 59.28125 14.984375 53.46875 
Q 12.59375 47.65625 12.5 36.921875 
Q 15.671875 41.75 20.265625 44.09375 
Q 24.859375 46.4375 29.890625 46.4375 
Q 38.671875 46.4375 44.84375 39.96875 
Q 51.03125 33.5 51.03125 23.25 
Q 51.03125 16.5 48.125 10.71875 
Q 45.21875 4.9375 40.140625 1.859375 
Q 35.0625 -1.21875 28.609375 -1.21875 
Q 17.625 -1.21875 10.6875 6.859375 
Q 3.765625 14.9375 3.765625 33.5 
Q 3.765625 54.25 11.421875 63.671875 
Q 18.109375 71.875 29.4375 71.875 
Q 37.890625 71.875 43.28125 67.140625 
Q 48.6875 62.40625 49.75 54.046875 
z
M 13.875 23.1875 
Q 13.875 18.65625 15.796875 14.5 
Q 17.71875 10.359375 21.1875 8.171875 
Q 24.65625 6 28.46875 6 
Q 34.03125 6 38.03125 10.484375 
Q 42.046875 14.984375 42.046875 22.703125 
Q 42.046875 30.125 38.078125 34.390625 
Q 34.125 38.671875 28.125 38.671875 
Q 22.171875 38.671875 18.015625 34.390625 
Q 13.875 30.125 13.875 23.1875 
z
" id="ArialMT-54"/>
      </defs>
      <g style="fill:#262626;" transform="translate(100.00841 480.3065)scale(0.16 -0.16)">
       <use xlink:href="#ArialMT-49"/>
       <use x="55.615234" xlink:href="#ArialMT-48"/>
       <use x="111.230469" xlink:href="#ArialMT-50"/>
       <use x="166.845703" xlink:href="#ArialMT-53"/>
       <use x="222.460938" xlink:href="#ArialMT-45"/>
       <use x="255.761719" xlink:href="#ArialMT-49"/>
       <use x="311.267578" xlink:href="#ArialMT-49"/>
       <use x="366.882812" xlink:href="#ArialMT-54"/>
      </g>
     </g>
    </g>
    <g id="xtick_2">
     <g id="text_2">
      <!-- 1034-216 -->
      <defs>
       <path d="M 4.203125 18.890625 
L 12.984375 20.0625 
Q 14.5 12.59375 18.140625 9.296875 
Q 21.78125 6 27 6 
Q 33.203125 6 37.46875 10.296875 
Q 41.75 14.59375 41.75 20.953125 
Q 41.75 27 37.796875 30.921875 
Q 33.84375 34.859375 27.734375 34.859375 
Q 25.25 34.859375 21.53125 33.890625 
L 22.515625 41.609375 
Q 23.390625 41.5 23.921875 41.5 
Q 29.546875 41.5 34.03125 44.421875 
Q 38.53125 47.359375 38.53125 53.46875 
Q 38.53125 58.296875 35.25 61.46875 
Q 31.984375 64.65625 26.8125 64.65625 
Q 21.6875 64.65625 18.265625 61.421875 
Q 14.84375 58.203125 13.875 51.765625 
L 5.078125 53.328125 
Q 6.6875 62.15625 12.390625 67.015625 
Q 18.109375 71.875 26.609375 71.875 
Q 32.46875 71.875 37.390625 69.359375 
Q 42.328125 66.84375 44.9375 62.5 
Q 47.5625 58.15625 47.5625 53.265625 
Q 47.5625 48.640625 45.0625 44.828125 
Q 42.578125 41.015625 37.703125 38.765625 
Q 44.046875 37.3125 47.5625 32.6875 
Q 51.078125 28.078125 51.078125 21.140625 
Q 51.078125 11.765625 44.234375 5.25 
Q 37.40625 -1.265625 26.953125 -1.265625 
Q 17.53125 -1.265625 11.296875 4.34375 
Q 5.078125 9.96875 4.203125 18.890625 
z
" id="ArialMT-51"/>
       <path d="M 32.328125 0 
L 32.328125 17.140625 
L 1.265625 17.140625 
L 1.265625 25.203125 
L 33.9375 71.578125 
L 41.109375 71.578125 
L 41.109375 25.203125 
L 50.78125 25.203125 
L 50.78125 17.140625 
L 41.109375 17.140625 
L 41.109375 0 
z
M 32.328125 25.203125 
L 32.328125 57.46875 
L 9.90625 25.203125 
z
" id="ArialMT-52"/>
      </defs>
      <g style="fill:#262626;" transform="translate(223.93398 480.3065)scale(0.16 -0.16)">
       <use xlink:href="#ArialMT-49"/>
       <use x="55.615234" xlink:href="#ArialMT-48"/>
       <use x="111.230469" xlink:href="#ArialMT-51"/>
       <use x="166.845703" xlink:href="#ArialMT-52"/>
       <use x="222.460938" xlink:href="#ArialMT-45"/>
       <use x="255.761719" xlink:href="#ArialMT-50"/>
       <use x="311.376953" xlink:href="#ArialMT-49"/>
       <use x="366.992188" xlink:href="#ArialMT-54"/>
      </g>
     </g>
    </g>
    <g id="xtick_3">
     <g id="text_3">
      <!-- 1034-216-1 -->
      <g style="fill:#262626;" transform="translate(340.7558 480.3065)scale(0.16 -0.16)">
       <use xlink:href="#ArialMT-49"/>
       <use x="55.615234" xlink:href="#ArialMT-48"/>
       <use x="111.230469" xlink:href="#ArialMT-51"/>
       <use x="166.845703" xlink:href="#ArialMT-52"/>
       <use x="222.460938" xlink:href="#ArialMT-45"/>
       <use x="255.761719" xlink:href="#ArialMT-50"/>
       <use x="311.376953" xlink:href="#ArialMT-49"/>
       <use x="366.992188" xlink:href="#ArialMT-54"/>
       <use x="422.607422" xlink:href="#ArialMT-45"/>
       <use x="455.908203" xlink:href="#ArialMT-49"/>
      </g>
     </g>
    </g>
    <g id="xtick_4">
     <g id="text_4">
      <!-- 1035-136 -->
      <g style="fill:#262626;" transform="translate(471.80262 480.3065)scale(0.16 -0.16)">
       <use xlink:href="#ArialMT-49"/>
       <use x="55.615234" xlink:href="#ArialMT-48"/>
       <use x="111.230469" xlink:href="#ArialMT-51"/>
       <use x="166.845703" xlink:href="#ArialMT-53"/>
       <use x="222.460938" xlink:href="#ArialMT-45"/>
       <use x="255.761719" xlink:href="#ArialMT-49"/>
       <use x="311.376953" xlink:href="#ArialMT-51"/>
       <use x="366.992188" xlink:href="#ArialMT-54"/>
      </g>
     </g>
    </g>
    <g id="xtick_5">
     <g id="text_5">
      <!-- 1038-276 -->
      <defs>
       <path d="M 17.671875 38.8125 
Q 12.203125 40.828125 9.5625 44.53125 
Q 6.9375 48.25 6.9375 53.421875 
Q 6.9375 61.234375 12.546875 66.546875 
Q 18.171875 71.875 27.484375 71.875 
Q 36.859375 71.875 42.578125 66.421875 
Q 48.296875 60.984375 48.296875 53.171875 
Q 48.296875 48.1875 45.671875 44.5 
Q 43.0625 40.828125 37.75 38.8125 
Q 44.34375 36.671875 47.78125 31.875 
Q 51.21875 27.09375 51.21875 20.453125 
Q 51.21875 11.28125 44.71875 5.03125 
Q 38.234375 -1.21875 27.640625 -1.21875 
Q 17.046875 -1.21875 10.546875 5.046875 
Q 4.046875 11.328125 4.046875 20.703125 
Q 4.046875 27.6875 7.59375 32.390625 
Q 11.140625 37.109375 17.671875 38.8125 
z
M 15.921875 53.71875 
Q 15.921875 48.640625 19.1875 45.40625 
Q 22.46875 42.1875 27.6875 42.1875 
Q 32.765625 42.1875 36.015625 45.375 
Q 39.265625 48.578125 39.265625 53.21875 
Q 39.265625 58.0625 35.90625 61.359375 
Q 32.5625 64.65625 27.59375 64.65625 
Q 22.5625 64.65625 19.234375 61.421875 
Q 15.921875 58.203125 15.921875 53.71875 
z
M 13.09375 20.65625 
Q 13.09375 16.890625 14.875 13.375 
Q 16.65625 9.859375 20.171875 7.921875 
Q 23.6875 6 27.734375 6 
Q 34.03125 6 38.125 10.046875 
Q 42.234375 14.109375 42.234375 20.359375 
Q 42.234375 26.703125 38.015625 30.859375 
Q 33.796875 35.015625 27.4375 35.015625 
Q 21.234375 35.015625 17.15625 30.90625 
Q 13.09375 26.8125 13.09375 20.65625 
z
" id="ArialMT-56"/>
       <path d="M 4.734375 62.203125 
L 4.734375 70.65625 
L 51.078125 70.65625 
L 51.078125 63.8125 
Q 44.234375 56.546875 37.515625 44.484375 
Q 30.8125 32.421875 27.15625 19.671875 
Q 24.515625 10.6875 23.78125 0 
L 14.75 0 
Q 14.890625 8.453125 18.0625 20.40625 
Q 21.234375 32.375 27.171875 43.484375 
Q 33.109375 54.59375 39.796875 62.203125 
z
" id="ArialMT-55"/>
      </defs>
      <g style="fill:#262626;" transform="translate(595.73694 480.3065)scale(0.16 -0.16)">
       <use xlink:href="#ArialMT-49"/>
       <use x="55.615234" xlink:href="#ArialMT-48"/>
       <use x="111.230469" xlink:href="#ArialMT-51"/>
       <use x="166.845703" xlink:href="#ArialMT-56"/>
       <use x="222.460938" xlink:href="#ArialMT-45"/>
       <use x="255.761719" xlink:href="#ArialMT-50"/>
       <use x="311.376953" xlink:href="#ArialMT-55"/>
       <use x="366.992188" xlink:href="#ArialMT-54"/>
      </g>
     </g>
    </g>
    <g id="text_6">
     <!-- Counter id -->
     <defs>
      <path d="M 58.796875 25.09375 
L 68.265625 22.703125 
Q 65.28125 11.03125 57.546875 4.90625 
Q 49.8125 -1.21875 38.625 -1.21875 
Q 27.046875 -1.21875 19.796875 3.484375 
Q 12.546875 8.203125 8.765625 17.140625 
Q 4.984375 26.078125 4.984375 36.328125 
Q 4.984375 47.515625 9.25 55.828125 
Q 13.53125 64.15625 21.40625 68.46875 
Q 29.296875 72.796875 38.765625 72.796875 
Q 49.515625 72.796875 56.828125 67.328125 
Q 64.15625 61.859375 67.046875 51.953125 
L 57.71875 49.75 
Q 55.21875 57.5625 50.484375 61.125 
Q 45.75 64.703125 38.578125 64.703125 
Q 30.328125 64.703125 24.78125 60.734375 
Q 19.234375 56.78125 16.984375 50.109375 
Q 14.75 43.453125 14.75 36.375 
Q 14.75 27.25 17.40625 20.4375 
Q 20.0625 13.625 25.671875 10.25 
Q 31.296875 6.890625 37.84375 6.890625 
Q 45.796875 6.890625 51.3125 11.46875 
Q 56.84375 16.0625 58.796875 25.09375 
z
" id="ArialMT-67"/>
      <path d="M 3.328125 25.921875 
Q 3.328125 40.328125 11.328125 47.265625 
Q 18.015625 53.03125 27.640625 53.03125 
Q 38.328125 53.03125 45.109375 46.015625 
Q 51.90625 39.015625 51.90625 26.65625 
Q 51.90625 16.65625 48.90625 10.90625 
Q 45.90625 5.171875 40.15625 2 
Q 34.421875 -1.171875 27.640625 -1.171875 
Q 16.75 -1.171875 10.03125 5.8125 
Q 3.328125 12.796875 3.328125 25.921875 
z
M 12.359375 25.921875 
Q 12.359375 15.96875 16.703125 11.015625 
Q 21.046875 6.0625 27.640625 6.0625 
Q 34.1875 6.0625 38.53125 11.03125 
Q 42.875 16.015625 42.875 26.21875 
Q 42.875 35.84375 38.5 40.796875 
Q 34.125 45.75 27.640625 45.75 
Q 21.046875 45.75 16.703125 40.8125 
Q 12.359375 35.890625 12.359375 25.921875 
z
" id="ArialMT-111"/>
      <path d="M 40.578125 0 
L 40.578125 7.625 
Q 34.515625 -1.171875 24.125 -1.171875 
Q 19.53125 -1.171875 15.546875 0.578125 
Q 11.578125 2.34375 9.640625 5 
Q 7.71875 7.671875 6.9375 11.53125 
Q 6.390625 14.109375 6.390625 19.734375 
L 6.390625 51.859375 
L 15.1875 51.859375 
L 15.1875 23.09375 
Q 15.1875 16.21875 15.71875 13.8125 
Q 16.546875 10.359375 19.234375 8.375 
Q 21.921875 6.390625 25.875 6.390625 
Q 29.828125 6.390625 33.296875 8.421875 
Q 36.765625 10.453125 38.203125 13.9375 
Q 39.65625 17.4375 39.65625 24.078125 
L 39.65625 51.859375 
L 48.4375 51.859375 
L 48.4375 0 
z
" id="ArialMT-117"/>
      <path d="M 6.59375 0 
L 6.59375 51.859375 
L 14.5 51.859375 
L 14.5 44.484375 
Q 20.21875 53.03125 31 53.03125 
Q 35.6875 53.03125 39.625 51.34375 
Q 43.5625 49.65625 45.515625 46.921875 
Q 47.46875 44.1875 48.25 40.4375 
Q 48.734375 37.984375 48.734375 31.890625 
L 48.734375 0 
L 39.9375 0 
L 39.9375 31.546875 
Q 39.9375 36.921875 38.90625 39.578125 
Q 37.890625 42.234375 35.28125 43.8125 
Q 32.671875 45.40625 29.15625 45.40625 
Q 23.53125 45.40625 19.453125 41.84375 
Q 15.375 38.28125 15.375 28.328125 
L 15.375 0 
z
" id="ArialMT-110"/>
      <path d="M 25.78125 7.859375 
L 27.046875 0.09375 
Q 23.34375 -0.6875 20.40625 -0.6875 
Q 15.625 -0.6875 12.984375 0.828125 
Q 10.359375 2.34375 9.28125 4.8125 
Q 8.203125 7.28125 8.203125 15.1875 
L 8.203125 45.015625 
L 1.765625 45.015625 
L 1.765625 51.859375 
L 8.203125 51.859375 
L 8.203125 64.703125 
L 16.9375 69.96875 
L 16.9375 51.859375 
L 25.78125 51.859375 
L 25.78125 45.015625 
L 16.9375 45.015625 
L 16.9375 14.703125 
Q 16.9375 10.9375 17.40625 9.859375 
Q 17.875 8.796875 18.921875 8.15625 
Q 19.96875 7.515625 21.921875 7.515625 
Q 23.390625 7.515625 25.78125 7.859375 
z
" id="ArialMT-116"/>
      <path d="M 42.09375 16.703125 
L 51.171875 15.578125 
Q 49.03125 7.625 43.21875 3.21875 
Q 37.40625 -1.171875 28.375 -1.171875 
Q 17 -1.171875 10.328125 5.828125 
Q 3.65625 12.84375 3.65625 25.484375 
Q 3.65625 38.578125 10.390625 45.796875 
Q 17.140625 53.03125 27.875 53.03125 
Q 38.28125 53.03125 44.875 45.953125 
Q 51.46875 38.875 51.46875 26.03125 
Q 51.46875 25.25 51.421875 23.6875 
L 12.75 23.6875 
Q 13.234375 15.140625 17.578125 10.59375 
Q 21.921875 6.0625 28.421875 6.0625 
Q 33.25 6.0625 36.671875 8.59375 
Q 40.09375 11.140625 42.09375 16.703125 
z
M 13.234375 30.90625 
L 42.1875 30.90625 
Q 41.609375 37.453125 38.875 40.71875 
Q 34.671875 45.796875 27.984375 45.796875 
Q 21.921875 45.796875 17.796875 41.75 
Q 13.671875 37.703125 13.234375 30.90625 
z
" id="ArialMT-101"/>
      <path d="M 6.5 0 
L 6.5 51.859375 
L 14.40625 51.859375 
L 14.40625 44 
Q 17.4375 49.515625 20 51.265625 
Q 22.5625 53.03125 25.640625 53.03125 
Q 30.078125 53.03125 34.671875 50.203125 
L 31.640625 42.046875 
Q 28.421875 43.953125 25.203125 43.953125 
Q 22.3125 43.953125 20.015625 42.21875 
Q 17.71875 40.484375 16.75 37.40625 
Q 15.28125 32.71875 15.28125 27.15625 
L 15.28125 0 
z
" id="ArialMT-114"/>
      <path id="ArialMT-32"/>
      <path d="M 6.640625 61.46875 
L 6.640625 71.578125 
L 15.4375 71.578125 
L 15.4375 61.46875 
z
M 6.640625 0 
L 6.640625 51.859375 
L 15.4375 51.859375 
L 15.4375 0 
z
" id="ArialMT-105"/>
      <path d="M 40.234375 0 
L 40.234375 6.546875 
Q 35.296875 -1.171875 25.734375 -1.171875 
Q 19.53125 -1.171875 14.328125 2.25 
Q 9.125 5.671875 6.265625 11.796875 
Q 3.421875 17.921875 3.421875 25.875 
Q 3.421875 33.640625 6 39.96875 
Q 8.59375 46.296875 13.765625 49.65625 
Q 18.953125 53.03125 25.34375 53.03125 
Q 30.03125 53.03125 33.6875 51.046875 
Q 37.359375 49.078125 39.65625 45.90625 
L 39.65625 71.578125 
L 48.390625 71.578125 
L 48.390625 0 
z
M 12.453125 25.875 
Q 12.453125 15.921875 16.640625 10.984375 
Q 20.84375 6.0625 26.5625 6.0625 
Q 32.328125 6.0625 36.34375 10.765625 
Q 40.375 15.484375 40.375 25.140625 
Q 40.375 35.796875 36.265625 40.765625 
Q 32.171875 45.75 26.171875 45.75 
Q 20.3125 45.75 16.375 40.96875 
Q 12.453125 36.1875 12.453125 25.875 
z
" id="ArialMT-100"/>
     </defs>
     <g style="fill:#262626;" transform="translate(344.7658 498.939)scale(0.16 -0.16)">
      <use xlink:href="#ArialMT-67"/>
      <use x="72.216797" xlink:href="#ArialMT-111"/>
      <use x="127.832031" xlink:href="#ArialMT-117"/>
      <use x="183.447266" xlink:href="#ArialMT-110"/>
      <use x="239.0625" xlink:href="#ArialMT-116"/>
      <use x="266.845703" xlink:href="#ArialMT-101"/>
      <use x="322.460938" xlink:href="#ArialMT-114"/>
      <use x="355.761719" xlink:href="#ArialMT-32"/>
      <use x="383.544922" xlink:href="#ArialMT-105"/>
      <use x="405.761719" xlink:href="#ArialMT-100"/>
     </g>
    </g>
   </g>
   <g id="matplotlib.axis_2">
    <g id="ytick_1">
     <g id="text_7">
      <!-- −250 -->
      <defs>
       <path d="M 52.828125 31.203125 
L 5.5625 31.203125 
L 5.5625 39.40625 
L 52.828125 39.40625 
z
" id="ArialMT-8722"/>
      </defs>
      <g style="fill:#262626;" transform="translate(28.8 462.710885)scale(0.16 -0.16)">
       <use xlink:href="#ArialMT-8722"/>
       <use x="58.398438" xlink:href="#ArialMT-50"/>
       <use x="114.013672" xlink:href="#ArialMT-53"/>
       <use x="169.628906" xlink:href="#ArialMT-48"/>
      </g>
     </g>
    </g>
    <g id="ytick_2">
     <g id="text_8">
      <!-- 0 -->
      <g style="fill:#262626;" transform="translate(55.94 404.929681)scale(0.16 -0.16)">
       <use xlink:href="#ArialMT-48"/>
      </g>
     </g>
    </g>
    <g id="ytick_3">
     <g id="text_9">
      <!-- 250 -->
      <g style="fill:#262626;" transform="translate(38.145 347.148477)scale(0.16 -0.16)">
       <use xlink:href="#ArialMT-50"/>
       <use x="55.615234" xlink:href="#ArialMT-53"/>
       <use x="111.230469" xlink:href="#ArialMT-48"/>
      </g>
     </g>
    </g>
    <g id="ytick_4">
     <g id="text_10">
      <!-- 500 -->
      <g style="fill:#262626;" transform="translate(38.145 289.367273)scale(0.16 -0.16)">
       <use xlink:href="#ArialMT-53"/>
       <use x="55.615234" xlink:href="#ArialMT-48"/>
       <use x="111.230469" xlink:href="#ArialMT-48"/>
      </g>
     </g>
    </g>
    <g id="ytick_5">
     <g id="text_11">
      <!-- 750 -->
      <g style="fill:#262626;" transform="translate(38.145 231.586069)scale(0.16 -0.16)">
       <use xlink:href="#ArialMT-55"/>
       <use x="55.615234" xlink:href="#ArialMT-53"/>
       <use x="111.230469" xlink:href="#ArialMT-48"/>
      </g>
     </g>
    </g>
    <g id="ytick_6">
     <g id="text_12">
      <!-- 1000 -->
      <g style="fill:#262626;" transform="translate(29.2475 173.804865)scale(0.16 -0.16)">
       <use xlink:href="#ArialMT-49"/>
       <use x="55.615234" xlink:href="#ArialMT-48"/>
       <use x="111.230469" xlink:href="#ArialMT-48"/>
       <use x="166.845703" xlink:href="#ArialMT-48"/>
      </g>
     </g>
    </g>
    <g id="ytick_7">
     <g id="text_13">
      <!-- 1250 -->
      <g style="fill:#262626;" transform="translate(29.2475 116.023662)scale(0.16 -0.16)">
       <use xlink:href="#ArialMT-49"/>
       <use x="55.615234" xlink:href="#ArialMT-50"/>
       <use x="111.230469" xlink:href="#ArialMT-53"/>
       <use x="166.845703" xlink:href="#ArialMT-48"/>
      </g>
     </g>
    </g>
    <g id="ytick_8">
     <g id="text_14">
      <!-- 1500 -->
      <g style="fill:#262626;" transform="translate(29.2475 58.242458)scale(0.16 -0.16)">
       <use xlink:href="#ArialMT-49"/>
       <use x="55.615234" xlink:href="#ArialMT-53"/>
       <use x="111.230469" xlink:href="#ArialMT-48"/>
       <use x="166.845703" xlink:href="#ArialMT-48"/>
      </g>
     </g>
    </g>
    <g id="text_15">
     <!-- Count [$h^{-1}$] -->
     <defs>
      <path d="M 6.78125 -19.875 
L 6.78125 71.578125 
L 26.171875 71.578125 
L 26.171875 64.3125 
L 15.578125 64.3125 
L 15.578125 -12.59375 
L 26.171875 -12.59375 
L 26.171875 -19.875 
z
" id="ArialMT-91"/>
      <path d="M 55.71875 33.015625 
L 49.3125 0 
L 40.28125 0 
L 46.6875 32.671875 
Q 47.125 34.96875 47.359375 36.71875 
Q 47.609375 38.484375 47.609375 39.5 
Q 47.609375 43.609375 45.015625 45.890625 
Q 42.4375 48.1875 37.796875 48.1875 
Q 30.5625 48.1875 25.265625 43.296875 
Q 19.96875 38.421875 18.40625 30.328125 
L 12.5 0 
L 3.515625 0 
L 18.3125 75.984375 
L 27.296875 75.984375 
L 21.484375 46.09375 
Q 24.90625 50.6875 30.21875 53.34375 
Q 35.546875 56 41.40625 56 
Q 48.640625 56 52.609375 52.09375 
Q 56.59375 48.1875 56.59375 41.109375 
Q 56.59375 39.359375 56.375 37.359375 
Q 56.15625 35.359375 55.71875 33.015625 
z
" id="DejaVuSans-Oblique-104"/>
      <path d="M 10.59375 35.5 
L 73.1875 35.5 
L 73.1875 27.203125 
L 10.59375 27.203125 
z
" id="DejaVuSans-8722"/>
      <path d="M 12.40625 8.296875 
L 28.515625 8.296875 
L 28.515625 63.921875 
L 10.984375 60.40625 
L 10.984375 69.390625 
L 28.421875 72.90625 
L 38.28125 72.90625 
L 38.28125 8.296875 
L 54.390625 8.296875 
L 54.390625 0 
L 12.40625 0 
z
" id="DejaVuSans-49"/>
      <path d="M 21.296875 -19.875 
L 1.90625 -19.875 
L 1.90625 -12.59375 
L 12.5 -12.59375 
L 12.5 64.3125 
L 1.90625 64.3125 
L 1.90625 71.578125 
L 21.296875 71.578125 
z
" id="ArialMT-93"/>
     </defs>
     <g style="fill:#262626;" transform="translate(21.6 276.687)rotate(-90)scale(0.16 -0.16)">
      <use transform="translate(0 0.684375)" xlink:href="#ArialMT-67"/>
      <use transform="translate(72.216797 0.684375)" xlink:href="#ArialMT-111"/>
      <use transform="translate(127.832031 0.684375)" xlink:href="#ArialMT-117"/>
      <use transform="translate(183.447266 0.684375)" xlink:href="#ArialMT-110"/>
      <use transform="translate(239.0625 0.684375)" xlink:href="#ArialMT-116"/>
      <use transform="translate(266.845703 0.684375)" xlink:href="#ArialMT-32"/>
      <use transform="translate(294.628906 0.684375)" xlink:href="#ArialMT-91"/>
      <use transform="translate(322.412109 0.684375)" xlink:href="#DejaVuSans-Oblique-104"/>
      <use transform="translate(393.238724 38.965625)scale(0.7)" xlink:href="#DejaVuSans-8722"/>
      <use transform="translate(451.891068 38.965625)scale(0.7)" xlink:href="#DejaVuSans-49"/>
      <use transform="translate(499.161576 0.684375)" xlink:href="#ArialMT-93"/>
     </g>
    </g>
   </g>
   <g id="PolyCollection_1">
    <defs>
     <path d="M 136.320821 -101.512911 
L 131.288499 -101.512911 
L 129.507376 -102.597193 
L 126.878339 -103.681476 
L 123.259069 -104.765759 
L 118.620202 -105.850042 
L 113.098083 -106.934325 
L 107.014584 -108.018607 
L 100.845783 -109.10289 
L 95.138147 -110.187173 
L 90.392581 -111.271456 
L 86.95288 -112.355738 
L 84.936569 -113.440021 
L 84.230932 -114.524304 
L 84.552056 -115.608587 
L 85.541846 -116.692869 
L 86.86718 -117.777152 
L 88.289837 -118.861435 
L 89.69129 -119.945718 
L 91.054582 -121.030001 
L 92.419148 -122.114283 
L 93.829669 -123.198566 
L 95.29734 -124.282849 
L 96.783862 -125.367132 
L 98.20893 -126.451414 
L 99.47412 -127.535697 
L 100.492178 -128.61998 
L 101.211158 -129.704263 
L 101.626729 -130.788545 
L 101.781066 -131.872828 
L 101.751061 -132.957111 
L 101.630785 -134.041394 
L 101.513175 -135.125677 
L 101.474581 -136.209959 
L 101.564197 -137.294242 
L 101.799246 -138.378525 
L 102.166136 -139.462808 
L 102.627246 -140.54709 
L 103.13208 -141.631373 
L 103.630311 -142.715656 
L 104.083355 -143.799939 
L 104.47138 -144.884221 
L 104.794176 -145.968504 
L 105.066641 -147.052787 
L 105.311437 -148.13707 
L 105.551809 -149.221353 
L 105.806521 -150.305635 
L 106.087249 -151.389918 
L 106.397642 -152.474201 
L 106.733288 -153.558484 
L 107.082554 -154.642766 
L 107.429019 -155.727049 
L 107.756059 -156.811332 
L 108.05317 -157.895615 
L 108.322358 -158.979898 
L 108.582304 -160.06418 
L 108.868433 -161.148463 
L 109.228394 -162.232746 
L 109.714006 -163.317029 
L 110.371847 -164.401311 
L 111.234752 -165.485594 
L 112.315938 -166.569877 
L 113.606531 -167.65416 
L 115.076574 -168.738442 
L 116.67913 -169.822725 
L 118.356804 -170.907008 
L 120.049558 -171.991291 
L 121.702335 -173.075574 
L 123.270866 -174.159856 
L 124.724561 -175.244139 
L 126.046302 -176.328422 
L 127.229985 -177.412705 
L 128.277155 -178.496987 
L 129.193926 -179.58127 
L 129.988756 -180.665553 
L 130.671027 -181.749836 
L 131.250039 -182.834118 
L 131.73417 -183.918401 
L 132.130189 -185.002684 
L 132.442969 -186.086967 
L 132.675851 -187.17125 
L 132.831742 -188.255532 
L 132.914791 -189.339815 
L 132.932251 -190.424098 
L 132.895961 -191.508381 
L 132.822894 -192.592663 
L 132.734301 -193.676946 
L 132.653342 -194.761229 
L 132.601559 -195.845512 
L 132.595034 -196.929794 
L 132.641344 -198.014077 
L 132.738334 -199.09836 
L 132.875155 -200.182643 
L 133.035285 -201.266926 
L 133.200579 -202.351208 
L 133.355105 -203.435491 
L 133.487755 -204.519774 
L 133.593164 -205.604057 
L 133.671094 -206.688339 
L 133.724875 -207.772622 
L 133.7596 -208.856905 
L 133.84972 -208.856905 
L 133.84972 -208.856905 
L 133.884445 -207.772622 
L 133.938226 -206.688339 
L 134.016156 -205.604057 
L 134.121565 -204.519774 
L 134.254215 -203.435491 
L 134.408741 -202.351208 
L 134.574035 -201.266926 
L 134.734165 -200.182643 
L 134.870986 -199.09836 
L 134.967976 -198.014077 
L 135.014286 -196.929794 
L 135.007761 -195.845512 
L 134.955978 -194.761229 
L 134.875019 -193.676946 
L 134.786426 -192.592663 
L 134.713359 -191.508381 
L 134.677069 -190.424098 
L 134.694529 -189.339815 
L 134.777578 -188.255532 
L 134.933469 -187.17125 
L 135.166351 -186.086967 
L 135.479131 -185.002684 
L 135.87515 -183.918401 
L 136.359281 -182.834118 
L 136.938293 -181.749836 
L 137.620564 -180.665553 
L 138.415394 -179.58127 
L 139.332165 -178.496987 
L 140.379335 -177.412705 
L 141.563018 -176.328422 
L 142.884759 -175.244139 
L 144.338454 -174.159856 
L 145.906985 -173.075574 
L 147.559762 -171.991291 
L 149.252516 -170.907008 
L 150.93019 -169.822725 
L 152.532746 -168.738442 
L 154.002789 -167.65416 
L 155.293382 -166.569877 
L 156.374568 -165.485594 
L 157.237473 -164.401311 
L 157.895314 -163.317029 
L 158.380926 -162.232746 
L 158.740887 -161.148463 
L 159.027016 -160.06418 
L 159.286962 -158.979898 
L 159.55615 -157.895615 
L 159.853261 -156.811332 
L 160.180301 -155.727049 
L 160.526766 -154.642766 
L 160.876032 -153.558484 
L 161.211678 -152.474201 
L 161.522071 -151.389918 
L 161.802799 -150.305635 
L 162.057511 -149.221353 
L 162.297883 -148.13707 
L 162.542679 -147.052787 
L 162.815144 -145.968504 
L 163.13794 -144.884221 
L 163.525965 -143.799939 
L 163.979009 -142.715656 
L 164.47724 -141.631373 
L 164.982074 -140.54709 
L 165.443184 -139.462808 
L 165.810074 -138.378525 
L 166.045123 -137.294242 
L 166.134739 -136.209959 
L 166.096145 -135.125677 
L 165.978535 -134.041394 
L 165.858259 -132.957111 
L 165.828254 -131.872828 
L 165.982591 -130.788545 
L 166.398162 -129.704263 
L 167.117142 -128.61998 
L 168.1352 -127.535697 
L 169.40039 -126.451414 
L 170.825458 -125.367132 
L 172.31198 -124.282849 
L 173.779651 -123.198566 
L 175.190172 -122.114283 
L 176.554738 -121.030001 
L 177.91803 -119.945718 
L 179.319483 -118.861435 
L 180.74214 -117.777152 
L 182.067474 -116.692869 
L 183.057264 -115.608587 
L 183.378388 -114.524304 
L 182.672751 -113.440021 
L 180.65644 -112.355738 
L 177.216739 -111.271456 
L 172.471173 -110.187173 
L 166.763537 -109.10289 
L 160.594736 -108.018607 
L 154.511237 -106.934325 
L 148.989118 -105.850042 
L 144.350251 -104.765759 
L 140.730981 -103.681476 
L 138.101944 -102.597193 
L 136.320821 -101.512911 
z
" id="m29e270d5ef" style="stroke:#373737;stroke-width:1.5;"/>
    </defs>
    <g clip-path="url(#p1c65ace3ff)">
     <use style="fill:#2b8e70;stroke:#373737;stroke-width:1.5;" x="0" xlink:href="#m29e270d5ef" y="509.319"/>
    </g>
   </g>
   <g id="PolyCollection_2">
    <defs>
     <path d="M 258.872986 -87.742592 
L 256.604974 -87.742592 
L 255.826458 -90.452123 
L 254.682088 -93.161655 
L 253.106168 -95.871187 
L 251.077878 -98.580719 
L 248.646627 -101.290251 
L 245.947058 -103.999783 
L 243.194711 -106.709314 
L 240.658098 -109.418846 
L 238.610942 -112.128378 
L 237.27642 -114.83791 
L 236.779597 -117.547442 
L 237.122453 -120.256974 
L 238.188467 -122.966505 
L 239.773827 -125.676037 
L 241.634195 -128.385569 
L 243.532743 -131.095101 
L 245.277266 -133.804633 
L 246.739919 -136.514165 
L 247.859533 -139.223696 
L 248.631182 -141.933228 
L 249.089595 -144.64276 
L 249.292304 -147.352292 
L 249.306159 -150.061824 
L 249.198268 -152.771356 
L 249.030452 -155.480887 
L 248.855612 -158.190419 
L 248.714776 -160.899951 
L 248.634593 -163.609483 
L 248.625979 -166.319015 
L 248.684811 -169.028547 
L 248.795102 -171.738078 
L 248.934067 -174.44761 
L 249.077714 -177.157142 
L 249.205407 -179.866674 
L 249.302293 -182.576206 
L 249.3594 -185.285737 
L 249.372026 -187.995269 
L 249.337463 -190.704801 
L 249.253117 -193.414333 
L 249.115665 -196.123865 
L 248.921473 -198.833397 
L 248.667961 -201.542928 
L 248.355369 -204.25246 
L 247.988182 -206.961992 
L 247.575667 -209.671524 
L 247.131254 -212.381056 
L 246.670922 -215.090588 
L 246.211139 -217.800119 
L 245.767006 -220.509651 
L 245.351122 -223.219183 
L 244.973362 -225.928715 
L 244.641414 -228.638247 
L 244.361677 -231.347779 
L 244.140114 -234.05731 
L 243.982791 -236.766842 
L 243.896025 -239.476374 
L 243.886242 -242.185906 
L 243.959665 -244.895438 
L 244.121937 -247.60497 
L 244.377612 -250.314501 
L 244.729436 -253.024033 
L 245.177346 -255.733565 
L 245.717301 -258.443097 
L 246.340273 -261.152629 
L 247.031887 -263.862161 
L 247.773101 -266.571692 
L 248.542086 -269.281224 
L 249.316998 -271.990756 
L 250.078986 -274.700288 
L 250.814547 -277.40982 
L 251.516512 -280.119352 
L 252.183345 -282.828883 
L 252.817011 -285.538415 
L 253.42015 -288.247947 
L 253.993518 -290.957479 
L 254.534504 -293.667011 
L 255.037108 -296.376542 
L 255.493272 -299.086074 
L 255.895011 -301.795606 
L 256.236605 -304.505138 
L 256.516222 -307.21467 
L 256.736557 -309.924202 
L 256.904446 -312.633733 
L 257.029666 -315.343265 
L 257.123315 -318.052797 
L 257.196167 -320.762329 
L 257.257341 -323.471861 
L 257.313471 -326.181393 
L 257.368428 -328.890924 
L 257.423544 -331.600456 
L 257.47821 -334.309988 
L 257.530656 -337.01952 
L 257.578757 -339.729052 
L 257.620687 -342.438584 
L 257.655331 -345.148115 
L 257.682431 -347.857647 
L 257.702487 -350.567179 
L 257.716528 -353.276711 
L 257.725825 -355.986243 
L 257.752135 -355.986243 
L 257.752135 -355.986243 
L 257.761432 -353.276711 
L 257.775473 -350.567179 
L 257.795529 -347.857647 
L 257.822629 -345.148115 
L 257.857273 -342.438584 
L 257.899203 -339.729052 
L 257.947304 -337.01952 
L 257.99975 -334.309988 
L 258.054416 -331.600456 
L 258.109532 -328.890924 
L 258.164489 -326.181393 
L 258.220619 -323.471861 
L 258.281793 -320.762329 
L 258.354645 -318.052797 
L 258.448294 -315.343265 
L 258.573514 -312.633733 
L 258.741403 -309.924202 
L 258.961738 -307.21467 
L 259.241355 -304.505138 
L 259.582949 -301.795606 
L 259.984688 -299.086074 
L 260.440852 -296.376542 
L 260.943456 -293.667011 
L 261.484442 -290.957479 
L 262.05781 -288.247947 
L 262.660949 -285.538415 
L 263.294615 -282.828883 
L 263.961448 -280.119352 
L 264.663413 -277.40982 
L 265.398974 -274.700288 
L 266.160962 -271.990756 
L 266.935874 -269.281224 
L 267.704859 -266.571692 
L 268.446073 -263.862161 
L 269.137687 -261.152629 
L 269.760659 -258.443097 
L 270.300614 -255.733565 
L 270.748524 -253.024033 
L 271.100348 -250.314501 
L 271.356023 -247.60497 
L 271.518295 -244.895438 
L 271.591718 -242.185906 
L 271.581935 -239.476374 
L 271.495169 -236.766842 
L 271.337846 -234.05731 
L 271.116283 -231.347779 
L 270.836546 -228.638247 
L 270.504598 -225.928715 
L 270.126838 -223.219183 
L 269.710954 -220.509651 
L 269.266821 -217.800119 
L 268.807038 -215.090588 
L 268.346706 -212.381056 
L 267.902293 -209.671524 
L 267.489778 -206.961992 
L 267.122591 -204.25246 
L 266.809999 -201.542928 
L 266.556487 -198.833397 
L 266.362295 -196.123865 
L 266.224843 -193.414333 
L 266.140497 -190.704801 
L 266.105934 -187.995269 
L 266.11856 -185.285737 
L 266.175667 -182.576206 
L 266.272553 -179.866674 
L 266.400246 -177.157142 
L 266.543893 -174.44761 
L 266.682858 -171.738078 
L 266.793149 -169.028547 
L 266.851981 -166.319015 
L 266.843367 -163.609483 
L 266.763184 -160.899951 
L 266.622348 -158.190419 
L 266.447508 -155.480887 
L 266.279692 -152.771356 
L 266.171801 -150.061824 
L 266.185656 -147.352292 
L 266.388365 -144.64276 
L 266.846778 -141.933228 
L 267.618427 -139.223696 
L 268.738041 -136.514165 
L 270.200694 -133.804633 
L 271.945217 -131.095101 
L 273.843765 -128.385569 
L 275.704133 -125.676037 
L 277.289493 -122.966505 
L 278.355507 -120.256974 
L 278.698363 -117.547442 
L 278.20154 -114.83791 
L 276.867018 -112.128378 
L 274.819862 -109.418846 
L 272.283249 -106.709314 
L 269.530902 -103.999783 
L 266.831333 -101.290251 
L 264.400082 -98.580719 
L 262.371792 -95.871187 
L 260.795872 -93.161655 
L 259.651502 -90.452123 
L 258.872986 -87.742592 
z
" id="m156074663f" style="stroke:#373737;stroke-width:1.5;"/>
    </defs>
    <g clip-path="url(#p1c65ace3ff)">
     <use style="fill:#be631d;stroke:#373737;stroke-width:1.5;" x="0" xlink:href="#m156074663f" y="509.319"/>
    </g>
   </g>
   <g id="PolyCollection_3">
    <defs>
     <path d="M 382.760606 -87.095588 
L 380.585994 -87.095588 
L 379.836699 -89.848541 
L 378.733609 -92.601493 
L 377.212579 -95.354445 
L 375.252886 -98.107398 
L 372.901817 -100.86035 
L 370.288903 -103.613302 
L 367.620883 -106.366255 
L 365.153395 -109.119207 
L 363.14362 -111.872159 
L 361.796284 -114.625112 
L 361.219538 -117.378064 
L 361.404835 -120.131016 
L 362.236548 -122.883969 
L 363.526551 -125.636921 
L 365.061034 -128.389873 
L 366.644505 -131.142826 
L 368.129596 -133.895778 
L 369.428148 -136.64873 
L 370.505852 -139.401683 
L 371.366794 -142.154635 
L 372.035062 -144.907587 
L 372.539017 -147.66054 
L 372.901269 -150.413492 
L 373.135091 -153.166444 
L 373.246359 -155.919397 
L 373.23906 -158.672349 
L 373.12192 -161.425301 
L 372.913582 -164.178254 
L 372.644275 -166.931206 
L 372.352999 -169.684158 
L 372.080777 -172.43711 
L 371.862021 -175.190063 
L 371.716857 -177.943015 
L 371.646992 -180.695967 
L 371.636469 -183.44892 
L 371.656885 -186.201872 
L 371.675253 -188.954824 
L 371.662014 -191.707777 
L 371.597049 -194.460729 
L 371.4725 -197.213681 
L 371.292289 -199.966634 
L 371.069094 -202.719586 
L 370.819958 -205.472538 
L 370.561848 -208.225491 
L 370.308335 -210.978443 
L 370.068218 -213.731395 
L 369.846384 -216.484348 
L 369.646456 -219.2373 
L 369.474138 -221.990252 
L 369.339791 -224.743205 
L 369.259009 -227.496157 
L 369.250688 -230.249109 
L 369.333079 -233.002062 
L 369.51912 -235.755014 
L 369.812612 -238.507966 
L 370.206451 -241.260919 
L 370.68339 -244.013871 
L 371.218921 -246.766823 
L 371.785332 -249.519776 
L 372.355804 -252.272728 
L 372.907655 -255.02568 
L 373.424277 -257.778633 
L 373.895746 -260.531585 
L 374.318414 -263.284537 
L 374.693838 -266.03749 
L 375.027395 -268.790442 
L 375.326763 -271.543394 
L 375.600442 -274.296346 
L 375.856443 -277.049299 
L 376.101329 -279.802251 
L 376.339782 -282.555203 
L 376.57473 -285.308156 
L 376.807917 -288.061108 
L 377.040664 -290.81406 
L 377.274518 -293.567013 
L 377.511577 -296.319965 
L 377.754457 -299.072917 
L 378.005978 -301.82587 
L 378.2687 -304.578822 
L 378.544403 -307.331774 
L 378.833544 -310.084727 
L 379.134747 -312.837679 
L 379.444404 -315.590631 
L 379.756576 -318.343584 
L 380.063353 -321.096536 
L 380.355732 -323.849488 
L 380.624877 -326.602441 
L 380.86346 -329.355393 
L 381.066729 -332.108345 
L 381.23302 -334.861298 
L 381.363637 -337.61425 
L 381.462207 -340.367202 
L 381.533762 -343.120155 
L 381.58381 -345.873107 
L 381.617596 -348.626059 
L 381.639647 -351.379012 
L 381.653577 -354.131964 
L 381.662099 -356.884916 
L 381.667145 -359.637869 
L 381.679455 -359.637869 
L 381.679455 -359.637869 
L 381.684501 -356.884916 
L 381.693023 -354.131964 
L 381.706953 -351.379012 
L 381.729004 -348.626059 
L 381.76279 -345.873107 
L 381.812838 -343.120155 
L 381.884393 -340.367202 
L 381.982963 -337.61425 
L 382.11358 -334.861298 
L 382.279871 -332.108345 
L 382.48314 -329.355393 
L 382.721723 -326.602441 
L 382.990868 -323.849488 
L 383.283247 -321.096536 
L 383.590024 -318.343584 
L 383.902196 -315.590631 
L 384.211853 -312.837679 
L 384.513056 -310.084727 
L 384.802197 -307.331774 
L 385.0779 -304.578822 
L 385.340622 -301.82587 
L 385.592143 -299.072917 
L 385.835023 -296.319965 
L 386.072082 -293.567013 
L 386.305936 -290.81406 
L 386.538683 -288.061108 
L 386.77187 -285.308156 
L 387.006818 -282.555203 
L 387.245271 -279.802251 
L 387.490157 -277.049299 
L 387.746158 -274.296346 
L 388.019837 -271.543394 
L 388.319205 -268.790442 
L 388.652762 -266.03749 
L 389.028186 -263.284537 
L 389.450854 -260.531585 
L 389.922323 -257.778633 
L 390.438945 -255.02568 
L 390.990796 -252.272728 
L 391.561268 -249.519776 
L 392.127679 -246.766823 
L 392.66321 -244.013871 
L 393.140149 -241.260919 
L 393.533988 -238.507966 
L 393.82748 -235.755014 
L 394.013521 -233.002062 
L 394.095912 -230.249109 
L 394.087591 -227.496157 
L 394.006809 -224.743205 
L 393.872462 -221.990252 
L 393.700144 -219.2373 
L 393.500216 -216.484348 
L 393.278382 -213.731395 
L 393.038265 -210.978443 
L 392.784752 -208.225491 
L 392.526642 -205.472538 
L 392.277506 -202.719586 
L 392.054311 -199.966634 
L 391.8741 -197.213681 
L 391.749551 -194.460729 
L 391.684586 -191.707777 
L 391.671347 -188.954824 
L 391.689715 -186.201872 
L 391.710131 -183.44892 
L 391.699608 -180.695967 
L 391.629743 -177.943015 
L 391.484579 -175.190063 
L 391.265823 -172.43711 
L 390.993601 -169.684158 
L 390.702325 -166.931206 
L 390.433018 -164.178254 
L 390.22468 -161.425301 
L 390.10754 -158.672349 
L 390.100241 -155.919397 
L 390.211509 -153.166444 
L 390.445331 -150.413492 
L 390.807583 -147.66054 
L 391.311538 -144.907587 
L 391.979806 -142.154635 
L 392.840748 -139.401683 
L 393.918452 -136.64873 
L 395.217004 -133.895778 
L 396.702095 -131.142826 
L 398.285566 -128.389873 
L 399.820049 -125.636921 
L 401.110052 -122.883969 
L 401.941765 -120.131016 
L 402.127062 -117.378064 
L 401.550316 -114.625112 
L 400.20298 -111.872159 
L 398.193205 -109.119207 
L 395.725717 -106.366255 
L 393.057697 -103.613302 
L 390.444783 -100.86035 
L 388.093714 -98.107398 
L 386.134021 -95.354445 
L 384.612991 -92.601493 
L 383.509901 -89.848541 
L 382.760606 -87.095588 
z
" id="m51de4d52fe" style="stroke:#373737;stroke-width:1.5;"/>
    </defs>
    <g clip-path="url(#p1c65ace3ff)">
     <use style="fill:#7c78ab;stroke:#373737;stroke-width:1.5;" x="0" xlink:href="#m51de4d52fe" y="509.319"/>
    </g>
   </g>
   <g id="PolyCollection_4">
    <defs>
     <path d="M 505.950591 -68.131091 
L 505.264649 -68.131091 
L 505.060804 -72.306059 
L 504.766544 -76.481027 
L 504.359166 -80.655994 
L 503.818623 -84.830962 
L 503.131747 -89.00593 
L 502.296746 -93.180898 
L 501.327011 -97.355866 
L 500.253152 -101.530834 
L 499.122298 -105.705802 
L 497.994258 -109.88077 
L 496.934803 -114.055737 
L 496.007153 -118.230705 
L 495.263284 -122.405673 
L 494.736818 -126.580641 
L 494.438973 -130.755609 
L 494.358294 -134.930577 
L 494.464043 -139.105545 
L 494.712319 -143.280512 
L 495.05352 -147.45548 
L 495.439639 -151.630448 
L 495.830179 -155.805416 
L 496.195916 -159.980384 
L 496.520258 -164.155352 
L 496.798432 -168.33032 
L 497.035006 -172.505287 
L 497.240452 -176.680255 
L 497.427464 -180.855223 
L 497.607681 -185.030191 
L 497.789276 -189.205159 
L 497.975687 -193.380127 
L 498.165493 -197.555095 
L 498.353247 -201.730062 
L 498.530945 -205.90503 
L 498.689709 -210.079998 
L 498.821348 -214.254966 
L 498.919531 -218.429934 
L 498.98044 -222.604902 
L 499.002958 -226.77987 
L 498.988487 -230.954837 
L 498.940612 -235.129805 
L 498.864747 -239.304773 
L 498.767889 -243.479741 
L 498.65845 -247.654709 
L 498.546107 -251.829677 
L 498.441523 -256.004645 
L 498.355839 -260.179612 
L 498.2999 -264.35458 
L 498.283308 -268.529548 
L 498.313443 -272.704516 
L 498.394676 -276.879484 
L 498.527925 -281.054452 
L 498.71062 -285.22942 
L 498.937042 -289.404388 
L 499.198884 -293.579355 
L 499.485899 -297.754323 
L 499.786481 -301.929291 
L 500.088168 -306.104259 
L 500.378107 -310.279227 
L 500.643574 -314.454195 
L 500.872661 -318.629163 
L 501.055155 -322.80413 
L 501.183555 -326.979098 
L 501.254091 -331.154066 
L 501.267562 -335.329034 
L 501.229774 -339.504002 
L 501.151447 -343.67897 
L 501.047507 -347.853938 
L 500.935777 -352.028905 
L 500.83521 -356.203873 
L 500.763866 -360.378841 
L 500.736923 -364.553809 
L 500.764991 -368.728777 
L 500.853015 -372.903745 
L 500.999913 -377.078713 
L 501.199033 -381.25368 
L 501.439335 -385.428648 
L 501.707115 -389.603616 
L 501.987998 -393.778584 
L 502.268877 -397.953552 
L 502.539506 -402.12852 
L 502.793497 -406.303488 
L 503.028601 -410.478455 
L 503.246256 -414.653423 
L 503.450517 -418.828391 
L 503.646626 -423.003359 
L 503.839497 -427.178327 
L 504.032455 -431.353295 
L 504.226461 -435.528263 
L 504.419941 -439.70323 
L 504.609224 -443.878198 
L 504.789398 -448.053166 
L 504.955355 -452.228134 
L 505.102769 -456.403102 
L 505.228785 -460.57807 
L 505.332342 -464.753038 
L 505.414102 -468.928006 
L 505.476105 -473.102973 
L 505.521267 -477.277941 
L 505.552866 -481.452909 
L 505.662374 -481.452909 
L 505.662374 -481.452909 
L 505.693973 -477.277941 
L 505.739135 -473.102973 
L 505.801138 -468.928006 
L 505.882898 -464.753038 
L 505.986455 -460.57807 
L 506.112471 -456.403102 
L 506.259885 -452.228134 
L 506.425842 -448.053166 
L 506.606016 -443.878198 
L 506.795299 -439.70323 
L 506.988779 -435.528263 
L 507.182785 -431.353295 
L 507.375743 -427.178327 
L 507.568614 -423.003359 
L 507.764723 -418.828391 
L 507.968984 -414.653423 
L 508.186639 -410.478455 
L 508.421743 -406.303488 
L 508.675734 -402.12852 
L 508.946363 -397.953552 
L 509.227242 -393.778584 
L 509.508125 -389.603616 
L 509.775905 -385.428648 
L 510.016207 -381.25368 
L 510.215327 -377.078713 
L 510.362225 -372.903745 
L 510.450249 -368.728777 
L 510.478317 -364.553809 
L 510.451374 -360.378841 
L 510.38003 -356.203873 
L 510.279463 -352.028905 
L 510.167733 -347.853938 
L 510.063793 -343.67897 
L 509.985466 -339.504002 
L 509.947678 -335.329034 
L 509.961149 -331.154066 
L 510.031685 -326.979098 
L 510.160085 -322.80413 
L 510.342579 -318.629163 
L 510.571666 -314.454195 
L 510.837133 -310.279227 
L 511.127072 -306.104259 
L 511.428759 -301.929291 
L 511.729341 -297.754323 
L 512.016356 -293.579355 
L 512.278198 -289.404388 
L 512.50462 -285.22942 
L 512.687315 -281.054452 
L 512.820564 -276.879484 
L 512.901797 -272.704516 
L 512.931932 -268.529548 
L 512.91534 -264.35458 
L 512.859401 -260.179612 
L 512.773717 -256.004645 
L 512.669133 -251.829677 
L 512.55679 -247.654709 
L 512.447351 -243.479741 
L 512.350493 -239.304773 
L 512.274628 -235.129805 
L 512.226753 -230.954837 
L 512.212282 -226.77987 
L 512.2348 -222.604902 
L 512.295709 -218.429934 
L 512.393892 -214.254966 
L 512.525531 -210.079998 
L 512.684295 -205.90503 
L 512.861993 -201.730062 
L 513.049747 -197.555095 
L 513.239553 -193.380127 
L 513.425964 -189.205159 
L 513.607559 -185.030191 
L 513.787776 -180.855223 
L 513.974788 -176.680255 
L 514.180234 -172.505287 
L 514.416808 -168.33032 
L 514.694982 -164.155352 
L 515.019324 -159.980384 
L 515.385061 -155.805416 
L 515.775601 -151.630448 
L 516.16172 -147.45548 
L 516.502921 -143.280512 
L 516.751197 -139.105545 
L 516.856946 -134.930577 
L 516.776267 -130.755609 
L 516.478422 -126.580641 
L 515.951956 -122.405673 
L 515.208087 -118.230705 
L 514.280437 -114.055737 
L 513.220982 -109.88077 
L 512.092942 -105.705802 
L 510.962088 -101.530834 
L 509.888229 -97.355866 
L 508.918494 -93.180898 
L 508.083493 -89.00593 
L 507.396617 -84.830962 
L 506.856074 -80.655994 
L 506.448696 -76.481027 
L 506.154436 -72.306059 
L 505.950591 -68.131091 
z
" id="m8aa5d4a64a" style="stroke:#373737;stroke-width:1.5;"/>
    </defs>
    <g clip-path="url(#p1c65ace3ff)">
     <use style="fill:#cf418a;stroke:#373737;stroke-width:1.5;" x="0" xlink:href="#m8aa5d4a64a" y="509.319"/>
    </g>
   </g>
   <g id="PolyCollection_5">
    <defs>
     <path d="M 631.427064 -94.582595 
L 627.656816 -94.582595 
L 626.433993 -96.371856 
L 624.667934 -98.161117 
L 622.26865 -99.950378 
L 619.209701 -101.739639 
L 615.562005 -103.5289 
L 611.513955 -105.318161 
L 607.366155 -107.107422 
L 603.494833 -108.896683 
L 600.287937 -110.685943 
L 598.068562 -112.475204 
L 597.026904 -114.264465 
L 597.181025 -116.053726 
L 598.378109 -117.842987 
L 600.334924 -119.632248 
L 602.704193 -121.421509 
L 605.14713 -123.21077 
L 607.393161 -125.000031 
L 609.274451 -126.789292 
L 610.731857 -128.578553 
L 611.796874 -130.367814 
L 612.558988 -132.157074 
L 613.129137 -133.946335 
L 613.608377 -135.735596 
L 614.067533 -137.524857 
L 614.539612 -139.314118 
L 615.02325 -141.103379 
L 615.493094 -142.89264 
L 615.91237 -144.681901 
L 616.243832 -146.471162 
L 616.457105 -148.260423 
L 616.532391 -150.049684 
L 616.461595 -151.838945 
L 616.248114 -153.628205 
L 615.905893 -155.417466 
L 615.457597 -157.206727 
L 614.931453 -158.995988 
L 614.356619 -160.785249 
L 613.757764 -162.57451 
L 613.150256 -164.363771 
L 612.537657 -166.153032 
L 611.912736 -167.942293 
L 611.262215 -169.731554 
L 610.574277 -171.520815 
L 609.84698 -173.310075 
L 609.095351 -175.099336 
L 608.355109 -176.888597 
L 607.681668 -178.677858 
L 607.144036 -180.467119 
L 606.814413 -182.25638 
L 606.755449 -184.045641 
L 607.007941 -185.834902 
L 607.581961 -187.624163 
L 608.453712 -189.413424 
L 609.568998 -191.202685 
L 610.852433 -192.991946 
L 612.220023 -194.781206 
L 613.592024 -196.570467 
L 614.903216 -198.359728 
L 616.10875 -200.148989 
L 617.185142 -201.93825 
L 618.127283 -203.727511 
L 618.943161 -205.516772 
L 619.648252 -207.306033 
L 620.261093 -209.095294 
L 620.800805 -210.884555 
L 621.28638 -212.673816 
L 621.736891 -214.463077 
L 622.171526 -216.252337 
L 622.608678 -218.041598 
L 623.063944 -219.830859 
L 623.547588 -221.62012 
L 624.062392 -223.409381 
L 624.602759 -225.198642 
L 625.155464 -226.987903 
L 625.701872 -228.777164 
L 626.221048 -230.566425 
L 626.693021 -232.355686 
L 627.101628 -234.144947 
L 627.436611 -235.934208 
L 627.694814 -237.723468 
L 627.88046 -239.512729 
L 628.004483 -241.30199 
L 628.082961 -243.091251 
L 628.134783 -244.880512 
L 628.178885 -246.669773 
L 628.231497 -248.459034 
L 628.303943 -250.248295 
L 628.401412 -252.037556 
L 628.522919 -253.826817 
L 628.662401 -255.616078 
L 628.81061 -257.405339 
L 628.957317 -259.194599 
L 629.093329 -260.98386 
L 629.211906 -262.773121 
L 629.3094 -264.562382 
L 629.385157 -266.351643 
L 629.440869 -268.140904 
L 629.479686 -269.930165 
L 629.505326 -271.719426 
L 629.578554 -271.719426 
L 629.578554 -271.719426 
L 629.604194 -269.930165 
L 629.643011 -268.140904 
L 629.698723 -266.351643 
L 629.77448 -264.562382 
L 629.871974 -262.773121 
L 629.990551 -260.98386 
L 630.126563 -259.194599 
L 630.27327 -257.405339 
L 630.421479 -255.616078 
L 630.560961 -253.826817 
L 630.682468 -252.037556 
L 630.779937 -250.248295 
L 630.852383 -248.459034 
L 630.904995 -246.669773 
L 630.949097 -244.880512 
L 631.000919 -243.091251 
L 631.079397 -241.30199 
L 631.20342 -239.512729 
L 631.389066 -237.723468 
L 631.647269 -235.934208 
L 631.982252 -234.144947 
L 632.390859 -232.355686 
L 632.862832 -230.566425 
L 633.382008 -228.777164 
L 633.928416 -226.987903 
L 634.481121 -225.198642 
L 635.021488 -223.409381 
L 635.536292 -221.62012 
L 636.019936 -219.830859 
L 636.475202 -218.041598 
L 636.912354 -216.252337 
L 637.346989 -214.463077 
L 637.7975 -212.673816 
L 638.283075 -210.884555 
L 638.822787 -209.095294 
L 639.435628 -207.306033 
L 640.140719 -205.516772 
L 640.956597 -203.727511 
L 641.898738 -201.93825 
L 642.97513 -200.148989 
L 644.180664 -198.359728 
L 645.491856 -196.570467 
L 646.863857 -194.781206 
L 648.231447 -192.991946 
L 649.514882 -191.202685 
L 650.630168 -189.413424 
L 651.501919 -187.624163 
L 652.075939 -185.834902 
L 652.328431 -184.045641 
L 652.269467 -182.25638 
L 651.939844 -180.467119 
L 651.402212 -178.677858 
L 650.728771 -176.888597 
L 649.988529 -175.099336 
L 649.2369 -173.310075 
L 648.509603 -171.520815 
L 647.821665 -169.731554 
L 647.171144 -167.942293 
L 646.546223 -166.153032 
L 645.933624 -164.363771 
L 645.326116 -162.57451 
L 644.727261 -160.785249 
L 644.152427 -158.995988 
L 643.626283 -157.206727 
L 643.177987 -155.417466 
L 642.835766 -153.628205 
L 642.622285 -151.838945 
L 642.551489 -150.049684 
L 642.626775 -148.260423 
L 642.840048 -146.471162 
L 643.17151 -144.681901 
L 643.590786 -142.89264 
L 644.06063 -141.103379 
L 644.544268 -139.314118 
L 645.016347 -137.524857 
L 645.475503 -135.735596 
L 645.954743 -133.946335 
L 646.524892 -132.157074 
L 647.287006 -130.367814 
L 648.352023 -128.578553 
L 649.809429 -126.789292 
L 651.690719 -125.000031 
L 653.93675 -123.21077 
L 656.379687 -121.421509 
L 658.748956 -119.632248 
L 660.705771 -117.842987 
L 661.902855 -116.053726 
L 662.056976 -114.264465 
L 661.015318 -112.475204 
L 658.795943 -110.685943 
L 655.589047 -108.896683 
L 651.717725 -107.107422 
L 647.569925 -105.318161 
L 643.521875 -103.5289 
L 639.874179 -101.739639 
L 636.81523 -99.950378 
L 634.415946 -98.161117 
L 632.649887 -96.371856 
L 631.427064 -94.582595 
z
" id="m6970d2a523" style="stroke:#373737;stroke-width:1.5;"/>
    </defs>
    <g clip-path="url(#p1c65ace3ff)">
     <use style="fill:#65952f;stroke:#373737;stroke-width:1.5;" x="0" xlink:href="#m6970d2a523" y="509.319"/>
    </g>
   </g>
   <g id="line2d_1">
    <path clip-path="url(#p1c65ace3ff)" d="M 133.80466 399.203431 
L 133.80466 309.064753 
" style="fill:none;stroke:#373737;stroke-linecap:round;stroke-width:1.5;"/>
   </g>
   <g id="line2d_2">
    <path clip-path="url(#p1c65ace3ff)" d="M 133.80466 390.651813 
L 133.80466 356.90759 
" style="fill:none;stroke:#373737;stroke-linecap:round;stroke-width:4.5;"/>
   </g>
   <g id="line2d_3">
    <path clip-path="url(#p1c65ace3ff)" d="M 257.73898 398.972306 
L 257.73898 175.936859 
" style="fill:none;stroke:#373737;stroke-linecap:round;stroke-width:1.5;"/>
   </g>
   <g id="line2d_4">
    <path clip-path="url(#p1c65ace3ff)" d="M 257.73898 384.642568 
L 257.73898 269.311285 
" style="fill:none;stroke:#373737;stroke-linecap:round;stroke-width:4.5;"/>
   </g>
   <g id="line2d_5">
    <path clip-path="url(#p1c65ace3ff)" d="M 381.6733 399.203431 
L 381.6733 172.701112 
" style="fill:none;stroke:#373737;stroke-linecap:round;stroke-width:1.5;"/>
   </g>
   <g id="line2d_6">
    <path clip-path="url(#p1c65ace3ff)" d="M 381.6733 382.562445 
L 381.6733 274.800499 
" style="fill:none;stroke:#373737;stroke-linecap:round;stroke-width:4.5;"/>
   </g>
   <g id="line2d_7">
    <path clip-path="url(#p1c65ace3ff)" d="M 505.60762 398.972306 
L 505.60762 70.081694 
" style="fill:none;stroke:#373737;stroke-linecap:round;stroke-width:1.5;"/>
   </g>
   <g id="line2d_8">
    <path clip-path="url(#p1c65ace3ff)" d="M 505.60762 360.201119 
L 505.60762 210.778925 
" style="fill:none;stroke:#373737;stroke-linecap:round;stroke-width:4.5;"/>
   </g>
   <g id="line2d_9">
    <path clip-path="url(#p1c65ace3ff)" d="M 629.54194 399.203431 
L 629.54194 253.132548 
" style="fill:none;stroke:#373737;stroke-linecap:round;stroke-width:1.5;"/>
   </g>
   <g id="line2d_10">
    <path clip-path="url(#p1c65ace3ff)" d="M 629.54194 390.882938 
L 629.54194 324.087866 
" style="fill:none;stroke:#373737;stroke-linecap:round;stroke-width:4.5;"/>
   </g>
   <g id="patch_3">
    <path d="M 71.8375 461.854 
L 71.8375 7.2 
" style="fill:none;stroke:#262626;stroke-linecap:square;stroke-linejoin:miter;stroke-width:0.8;"/>
   </g>
   <g id="patch_4">
    <path d="M 71.8375 461.854 
L 691.5091 461.854 
" style="fill:none;stroke:#262626;stroke-linecap:square;stroke-linejoin:miter;stroke-width:0.8;"/>
   </g>
   <g id="PathCollection_1">
    <defs>
     <path d="M 0 1.5 
C 0.397805 1.5 0.77937 1.341951 1.06066 1.06066 
C 1.341951 0.77937 1.5 0.397805 1.5 0 
C 1.5 -0.397805 1.341951 -0.77937 1.06066 -1.06066 
C 0.77937 -1.341951 0.397805 -1.5 0 -1.5 
C -0.397805 -1.5 -0.77937 -1.341951 -1.06066 -1.06066 
C -1.341951 -0.77937 -1.5 -0.397805 -1.5 0 
C -1.5 0.397805 -1.341951 0.77937 -1.06066 1.06066 
C -0.77937 1.341951 -0.397805 1.5 0 1.5 
z
" id="m381b39d9e7" style="stroke:#373737;"/>
    </defs>
    <g clip-path="url(#p1c65ace3ff)">
     <use style="fill:#ffffff;stroke:#373737;" x="133.80466" xlink:href="#m381b39d9e7" y="375.282013"/>
    </g>
   </g>
   <g id="PathCollection_2">
    <g clip-path="url(#p1c65ace3ff)">
     <use style="fill:#ffffff;stroke:#373737;" x="257.73898" xlink:href="#m381b39d9e7" y="319.46537"/>
    </g>
   </g>
   <g id="PathCollection_3">
    <g clip-path="url(#p1c65ace3ff)">
     <use style="fill:#ffffff;stroke:#373737;" x="381.6733" xlink:href="#m381b39d9e7" y="325.127928"/>
    </g>
   </g>
   <g id="PathCollection_4">
    <g clip-path="url(#p1c65ace3ff)">
     <use style="fill:#ffffff;stroke:#373737;" x="505.60762" xlink:href="#m381b39d9e7" y="289.188019"/>
    </g>
   </g>
   <g id="PathCollection_5">
    <g clip-path="url(#p1c65ace3ff)">
     <use style="fill:#ffffff;stroke:#373737;" x="629.54194" xlink:href="#m381b39d9e7" y="352.862906"/>
    </g>
   </g>
  </g>
 </g>
 <defs>
  <clipPath id="p1c65ace3ff">
   <rect height="454.654" width="619.6716" x="71.8375" y="7.2"/>
  </clipPath>
 </defs>
</svg>
