<?xml version="1.0" encoding="utf-8" standalone="no"?>
<!DOCTYPE svg PUBLIC "-//W3C//DTD SVG 1.1//EN"
  "http://www.w3.org/Graphics/SVG/1.1/DTD/svg11.dtd">
<!-- Created with matplotlib (https://matplotlib.org/) -->
<svg height="540.169pt" version="1.1" viewBox="0 0 745.0616 540.169" width="745.0616pt" xmlns="http://www.w3.org/2000/svg" xmlns:xlink="http://www.w3.org/1999/xlink">
 <defs>
  <style type="text/css">
*{stroke-linecap:butt;stroke-linejoin:round;white-space:pre;}
  </style>
 </defs>
 <g id="figure_1">
  <g id="patch_1">
   <path d="M 0 540.169 
L 745.0616 540.169 
L 745.0616 0 
L 0 0 
z
" style="fill:#ffffff;"/>
  </g>
  <g id="axes_1">
   <g id="patch_2">
    <path d="M 71.39 492.704 
L 737.8616 492.704 
L 737.8616 7.2 
L 71.39 7.2 
z
" style="fill:#ffffff;"/>
   </g>
   <g id="matplotlib.axis_1">
    <g id="xtick_1">
     <g id="text_1">
      <!-- 0174 -->
      <defs>
       <path d="M 4.15625 35.296875 
Q 4.15625 48 6.765625 55.734375 
Q 9.375 63.484375 14.515625 67.671875 
Q 19.671875 71.875 27.484375 71.875 
Q 33.25 71.875 37.59375 69.546875 
Q 41.9375 67.234375 44.765625 62.859375 
Q 47.609375 58.5 49.21875 52.21875 
Q 50.828125 45.953125 50.828125 35.296875 
Q 50.828125 22.703125 48.234375 14.96875 
Q 45.65625 7.234375 40.5 3 
Q 35.359375 -1.21875 27.484375 -1.21875 
Q 17.140625 -1.21875 11.234375 6.203125 
Q 4.15625 15.140625 4.15625 35.296875 
z
M 13.1875 35.296875 
Q 13.1875 17.671875 17.3125 11.828125 
Q 21.4375 6 27.484375 6 
Q 33.546875 6 37.671875 11.859375 
Q 41.796875 17.71875 41.796875 35.296875 
Q 41.796875 52.984375 37.671875 58.78125 
Q 33.546875 64.59375 27.390625 64.59375 
Q 21.34375 64.59375 17.71875 59.46875 
Q 13.1875 52.9375 13.1875 35.296875 
z
" id="ArialMT-48"/>
       <path d="M 37.25 0 
L 28.46875 0 
L 28.46875 56 
Q 25.296875 52.984375 20.140625 49.953125 
Q 14.984375 46.921875 10.890625 45.40625 
L 10.890625 53.90625 
Q 18.265625 57.375 23.78125 62.296875 
Q 29.296875 67.234375 31.59375 71.875 
L 37.25 71.875 
z
" id="ArialMT-49"/>
       <path d="M 4.734375 62.203125 
L 4.734375 70.65625 
L 51.078125 70.65625 
L 51.078125 63.8125 
Q 44.234375 56.546875 37.515625 44.484375 
Q 30.8125 32.421875 27.15625 19.671875 
Q 24.515625 10.6875 23.78125 0 
L 14.75 0 
Q 14.890625 8.453125 18.0625 20.40625 
Q 21.234375 32.375 27.171875 43.484375 
Q 33.109375 54.59375 39.796875 62.203125 
z
" id="ArialMT-55"/>
       <path d="M 32.328125 0 
L 32.328125 17.140625 
L 1.265625 17.140625 
L 1.265625 25.203125 
L 33.9375 71.578125 
L 41.109375 71.578125 
L 41.109375 25.203125 
L 50.78125 25.203125 
L 50.78125 17.140625 
L 41.109375 17.140625 
L 41.109375 0 
z
M 32.328125 25.203125 
L 32.328125 57.46875 
L 9.90625 25.203125 
z
" id="ArialMT-52"/>
      </defs>
      <g style="fill:#262626;" transform="translate(120.24216 511.1565)scale(0.16 -0.16)">
       <use xlink:href="#ArialMT-48"/>
       <use x="55.615234" xlink:href="#ArialMT-49"/>
       <use x="111.230469" xlink:href="#ArialMT-55"/>
       <use x="166.845703" xlink:href="#ArialMT-52"/>
      </g>
     </g>
    </g>
    <g id="xtick_2">
     <g id="text_2">
      <!-- 0174-1 -->
      <defs>
       <path d="M 3.171875 21.484375 
L 3.171875 30.328125 
L 30.171875 30.328125 
L 30.171875 21.484375 
z
" id="ArialMT-45"/>
      </defs>
      <g style="fill:#262626;" transform="translate(246.42398 511.1565)scale(0.16 -0.16)">
       <use xlink:href="#ArialMT-48"/>
       <use x="55.615234" xlink:href="#ArialMT-49"/>
       <use x="111.230469" xlink:href="#ArialMT-55"/>
       <use x="166.845703" xlink:href="#ArialMT-52"/>
       <use x="222.460938" xlink:href="#ArialMT-45"/>
       <use x="255.761719" xlink:href="#ArialMT-49"/>
      </g>
     </g>
    </g>
    <g id="xtick_3">
     <g id="text_3">
      <!-- 0855 -->
      <defs>
       <path d="M 17.671875 38.8125 
Q 12.203125 40.828125 9.5625 44.53125 
Q 6.9375 48.25 6.9375 53.421875 
Q 6.9375 61.234375 12.546875 66.546875 
Q 18.171875 71.875 27.484375 71.875 
Q 36.859375 71.875 42.578125 66.421875 
Q 48.296875 60.984375 48.296875 53.171875 
Q 48.296875 48.1875 45.671875 44.5 
Q 43.0625 40.828125 37.75 38.8125 
Q 44.34375 36.671875 47.78125 31.875 
Q 51.21875 27.09375 51.21875 20.453125 
Q 51.21875 11.28125 44.71875 5.03125 
Q 38.234375 -1.21875 27.640625 -1.21875 
Q 17.046875 -1.21875 10.546875 5.046875 
Q 4.046875 11.328125 4.046875 20.703125 
Q 4.046875 27.6875 7.59375 32.390625 
Q 11.140625 37.109375 17.671875 38.8125 
z
M 15.921875 53.71875 
Q 15.921875 48.640625 19.1875 45.40625 
Q 22.46875 42.1875 27.6875 42.1875 
Q 32.765625 42.1875 36.015625 45.375 
Q 39.265625 48.578125 39.265625 53.21875 
Q 39.265625 58.0625 35.90625 61.359375 
Q 32.5625 64.65625 27.59375 64.65625 
Q 22.5625 64.65625 19.234375 61.421875 
Q 15.921875 58.203125 15.921875 53.71875 
z
M 13.09375 20.65625 
Q 13.09375 16.890625 14.875 13.375 
Q 16.65625 9.859375 20.171875 7.921875 
Q 23.6875 6 27.734375 6 
Q 34.03125 6 38.125 10.046875 
Q 42.234375 14.109375 42.234375 20.359375 
Q 42.234375 26.703125 38.015625 30.859375 
Q 33.796875 35.015625 27.4375 35.015625 
Q 21.234375 35.015625 17.15625 30.90625 
Q 13.09375 26.8125 13.09375 20.65625 
z
" id="ArialMT-56"/>
       <path d="M 4.15625 18.75 
L 13.375 19.53125 
Q 14.40625 12.796875 18.140625 9.390625 
Q 21.875 6 27.15625 6 
Q 33.5 6 37.890625 10.78125 
Q 42.28125 15.578125 42.28125 23.484375 
Q 42.28125 31 38.0625 35.34375 
Q 33.84375 39.703125 27 39.703125 
Q 22.75 39.703125 19.328125 37.765625 
Q 15.921875 35.84375 13.96875 32.765625 
L 5.71875 33.84375 
L 12.640625 70.609375 
L 48.25 70.609375 
L 48.25 62.203125 
L 19.671875 62.203125 
L 15.828125 42.96875 
Q 22.265625 47.46875 29.34375 47.46875 
Q 38.71875 47.46875 45.15625 40.96875 
Q 51.609375 34.46875 51.609375 24.265625 
Q 51.609375 14.546875 45.953125 7.46875 
Q 39.0625 -1.21875 27.15625 -1.21875 
Q 17.390625 -1.21875 11.203125 4.25 
Q 5.03125 9.71875 4.15625 18.75 
z
" id="ArialMT-53"/>
      </defs>
      <g style="fill:#262626;" transform="translate(386.8308 511.1565)scale(0.16 -0.16)">
       <use xlink:href="#ArialMT-48"/>
       <use x="55.615234" xlink:href="#ArialMT-56"/>
       <use x="111.230469" xlink:href="#ArialMT-53"/>
       <use x="166.845703" xlink:href="#ArialMT-53"/>
      </g>
     </g>
    </g>
    <g id="xtick_4">
     <g id="text_4">
      <!-- 0855-1 -->
      <g style="fill:#262626;" transform="translate(513.01262 511.1565)scale(0.16 -0.16)">
       <use xlink:href="#ArialMT-48"/>
       <use x="55.615234" xlink:href="#ArialMT-56"/>
       <use x="111.230469" xlink:href="#ArialMT-53"/>
       <use x="166.845703" xlink:href="#ArialMT-53"/>
       <use x="222.460938" xlink:href="#ArialMT-45"/>
       <use x="255.761719" xlink:href="#ArialMT-49"/>
      </g>
     </g>
    </g>
    <g id="xtick_5">
     <g id="text_5">
      <!-- 1001-156 -->
      <defs>
       <path d="M 49.75 54.046875 
L 41.015625 53.375 
Q 39.84375 58.546875 37.703125 60.890625 
Q 34.125 64.65625 28.90625 64.65625 
Q 24.703125 64.65625 21.53125 62.3125 
Q 17.390625 59.28125 14.984375 53.46875 
Q 12.59375 47.65625 12.5 36.921875 
Q 15.671875 41.75 20.265625 44.09375 
Q 24.859375 46.4375 29.890625 46.4375 
Q 38.671875 46.4375 44.84375 39.96875 
Q 51.03125 33.5 51.03125 23.25 
Q 51.03125 16.5 48.125 10.71875 
Q 45.21875 4.9375 40.140625 1.859375 
Q 35.0625 -1.21875 28.609375 -1.21875 
Q 17.625 -1.21875 10.6875 6.859375 
Q 3.765625 14.9375 3.765625 33.5 
Q 3.765625 54.25 11.421875 63.671875 
Q 18.109375 71.875 29.4375 71.875 
Q 37.890625 71.875 43.28125 67.140625 
Q 48.6875 62.40625 49.75 54.046875 
z
M 13.875 23.1875 
Q 13.875 18.65625 15.796875 14.5 
Q 17.71875 10.359375 21.1875 8.171875 
Q 24.65625 6 28.46875 6 
Q 34.03125 6 38.03125 10.484375 
Q 42.046875 14.984375 42.046875 22.703125 
Q 42.046875 30.125 38.078125 34.390625 
Q 34.125 38.671875 28.125 38.671875 
Q 22.171875 38.671875 18.015625 34.390625 
Q 13.875 30.125 13.875 23.1875 
z
" id="ArialMT-54"/>
      </defs>
      <g style="fill:#262626;" transform="translate(637.40944 511.1565)scale(0.16 -0.16)">
       <use xlink:href="#ArialMT-49"/>
       <use x="55.615234" xlink:href="#ArialMT-48"/>
       <use x="111.230469" xlink:href="#ArialMT-48"/>
       <use x="166.845703" xlink:href="#ArialMT-49"/>
       <use x="222.460938" xlink:href="#ArialMT-45"/>
       <use x="255.761719" xlink:href="#ArialMT-49"/>
       <use x="311.376953" xlink:href="#ArialMT-53"/>
       <use x="366.992188" xlink:href="#ArialMT-54"/>
      </g>
     </g>
    </g>
    <g id="text_6">
     <!-- Counter id -->
     <defs>
      <path d="M 58.796875 25.09375 
L 68.265625 22.703125 
Q 65.28125 11.03125 57.546875 4.90625 
Q 49.8125 -1.21875 38.625 -1.21875 
Q 27.046875 -1.21875 19.796875 3.484375 
Q 12.546875 8.203125 8.765625 17.140625 
Q 4.984375 26.078125 4.984375 36.328125 
Q 4.984375 47.515625 9.25 55.828125 
Q 13.53125 64.15625 21.40625 68.46875 
Q 29.296875 72.796875 38.765625 72.796875 
Q 49.515625 72.796875 56.828125 67.328125 
Q 64.15625 61.859375 67.046875 51.953125 
L 57.71875 49.75 
Q 55.21875 57.5625 50.484375 61.125 
Q 45.75 64.703125 38.578125 64.703125 
Q 30.328125 64.703125 24.78125 60.734375 
Q 19.234375 56.78125 16.984375 50.109375 
Q 14.75 43.453125 14.75 36.375 
Q 14.75 27.25 17.40625 20.4375 
Q 20.0625 13.625 25.671875 10.25 
Q 31.296875 6.890625 37.84375 6.890625 
Q 45.796875 6.890625 51.3125 11.46875 
Q 56.84375 16.0625 58.796875 25.09375 
z
" id="ArialMT-67"/>
      <path d="M 3.328125 25.921875 
Q 3.328125 40.328125 11.328125 47.265625 
Q 18.015625 53.03125 27.640625 53.03125 
Q 38.328125 53.03125 45.109375 46.015625 
Q 51.90625 39.015625 51.90625 26.65625 
Q 51.90625 16.65625 48.90625 10.90625 
Q 45.90625 5.171875 40.15625 2 
Q 34.421875 -1.171875 27.640625 -1.171875 
Q 16.75 -1.171875 10.03125 5.8125 
Q 3.328125 12.796875 3.328125 25.921875 
z
M 12.359375 25.921875 
Q 12.359375 15.96875 16.703125 11.015625 
Q 21.046875 6.0625 27.640625 6.0625 
Q 34.1875 6.0625 38.53125 11.03125 
Q 42.875 16.015625 42.875 26.21875 
Q 42.875 35.84375 38.5 40.796875 
Q 34.125 45.75 27.640625 45.75 
Q 21.046875 45.75 16.703125 40.8125 
Q 12.359375 35.890625 12.359375 25.921875 
z
" id="ArialMT-111"/>
      <path d="M 40.578125 0 
L 40.578125 7.625 
Q 34.515625 -1.171875 24.125 -1.171875 
Q 19.53125 -1.171875 15.546875 0.578125 
Q 11.578125 2.34375 9.640625 5 
Q 7.71875 7.671875 6.9375 11.53125 
Q 6.390625 14.109375 6.390625 19.734375 
L 6.390625 51.859375 
L 15.1875 51.859375 
L 15.1875 23.09375 
Q 15.1875 16.21875 15.71875 13.8125 
Q 16.546875 10.359375 19.234375 8.375 
Q 21.921875 6.390625 25.875 6.390625 
Q 29.828125 6.390625 33.296875 8.421875 
Q 36.765625 10.453125 38.203125 13.9375 
Q 39.65625 17.4375 39.65625 24.078125 
L 39.65625 51.859375 
L 48.4375 51.859375 
L 48.4375 0 
z
" id="ArialMT-117"/>
      <path d="M 6.59375 0 
L 6.59375 51.859375 
L 14.5 51.859375 
L 14.5 44.484375 
Q 20.21875 53.03125 31 53.03125 
Q 35.6875 53.03125 39.625 51.34375 
Q 43.5625 49.65625 45.515625 46.921875 
Q 47.46875 44.1875 48.25 40.4375 
Q 48.734375 37.984375 48.734375 31.890625 
L 48.734375 0 
L 39.9375 0 
L 39.9375 31.546875 
Q 39.9375 36.921875 38.90625 39.578125 
Q 37.890625 42.234375 35.28125 43.8125 
Q 32.671875 45.40625 29.15625 45.40625 
Q 23.53125 45.40625 19.453125 41.84375 
Q 15.375 38.28125 15.375 28.328125 
L 15.375 0 
z
" id="ArialMT-110"/>
      <path d="M 25.78125 7.859375 
L 27.046875 0.09375 
Q 23.34375 -0.6875 20.40625 -0.6875 
Q 15.625 -0.6875 12.984375 0.828125 
Q 10.359375 2.34375 9.28125 4.8125 
Q 8.203125 7.28125 8.203125 15.1875 
L 8.203125 45.015625 
L 1.765625 45.015625 
L 1.765625 51.859375 
L 8.203125 51.859375 
L 8.203125 64.703125 
L 16.9375 69.96875 
L 16.9375 51.859375 
L 25.78125 51.859375 
L 25.78125 45.015625 
L 16.9375 45.015625 
L 16.9375 14.703125 
Q 16.9375 10.9375 17.40625 9.859375 
Q 17.875 8.796875 18.921875 8.15625 
Q 19.96875 7.515625 21.921875 7.515625 
Q 23.390625 7.515625 25.78125 7.859375 
z
" id="ArialMT-116"/>
      <path d="M 42.09375 16.703125 
L 51.171875 15.578125 
Q 49.03125 7.625 43.21875 3.21875 
Q 37.40625 -1.171875 28.375 -1.171875 
Q 17 -1.171875 10.328125 5.828125 
Q 3.65625 12.84375 3.65625 25.484375 
Q 3.65625 38.578125 10.390625 45.796875 
Q 17.140625 53.03125 27.875 53.03125 
Q 38.28125 53.03125 44.875 45.953125 
Q 51.46875 38.875 51.46875 26.03125 
Q 51.46875 25.25 51.421875 23.6875 
L 12.75 23.6875 
Q 13.234375 15.140625 17.578125 10.59375 
Q 21.921875 6.0625 28.421875 6.0625 
Q 33.25 6.0625 36.671875 8.59375 
Q 40.09375 11.140625 42.09375 16.703125 
z
M 13.234375 30.90625 
L 42.1875 30.90625 
Q 41.609375 37.453125 38.875 40.71875 
Q 34.671875 45.796875 27.984375 45.796875 
Q 21.921875 45.796875 17.796875 41.75 
Q 13.671875 37.703125 13.234375 30.90625 
z
" id="ArialMT-101"/>
      <path d="M 6.5 0 
L 6.5 51.859375 
L 14.40625 51.859375 
L 14.40625 44 
Q 17.4375 49.515625 20 51.265625 
Q 22.5625 53.03125 25.640625 53.03125 
Q 30.078125 53.03125 34.671875 50.203125 
L 31.640625 42.046875 
Q 28.421875 43.953125 25.203125 43.953125 
Q 22.3125 43.953125 20.015625 42.21875 
Q 17.71875 40.484375 16.75 37.40625 
Q 15.28125 32.71875 15.28125 27.15625 
L 15.28125 0 
z
" id="ArialMT-114"/>
      <path id="ArialMT-32"/>
      <path d="M 6.640625 61.46875 
L 6.640625 71.578125 
L 15.4375 71.578125 
L 15.4375 61.46875 
z
M 6.640625 0 
L 6.640625 51.859375 
L 15.4375 51.859375 
L 15.4375 0 
z
" id="ArialMT-105"/>
      <path d="M 40.234375 0 
L 40.234375 6.546875 
Q 35.296875 -1.171875 25.734375 -1.171875 
Q 19.53125 -1.171875 14.328125 2.25 
Q 9.125 5.671875 6.265625 11.796875 
Q 3.421875 17.921875 3.421875 25.875 
Q 3.421875 33.640625 6 39.96875 
Q 8.59375 46.296875 13.765625 49.65625 
Q 18.953125 53.03125 25.34375 53.03125 
Q 30.03125 53.03125 33.6875 51.046875 
Q 37.359375 49.078125 39.65625 45.90625 
L 39.65625 71.578125 
L 48.390625 71.578125 
L 48.390625 0 
z
M 12.453125 25.875 
Q 12.453125 15.921875 16.640625 10.984375 
Q 20.84375 6.0625 26.5625 6.0625 
Q 32.328125 6.0625 36.34375 10.765625 
Q 40.375 15.484375 40.375 25.140625 
Q 40.375 35.796875 36.265625 40.765625 
Q 32.171875 45.75 26.171875 45.75 
Q 20.3125 45.75 16.375 40.96875 
Q 12.453125 36.1875 12.453125 25.875 
z
" id="ArialMT-100"/>
     </defs>
     <g style="fill:#262626;" transform="translate(367.7183 529.789)scale(0.16 -0.16)">
      <use xlink:href="#ArialMT-67"/>
      <use x="72.216797" xlink:href="#ArialMT-111"/>
      <use x="127.832031" xlink:href="#ArialMT-117"/>
      <use x="183.447266" xlink:href="#ArialMT-110"/>
      <use x="239.0625" xlink:href="#ArialMT-116"/>
      <use x="266.845703" xlink:href="#ArialMT-101"/>
      <use x="322.460938" xlink:href="#ArialMT-114"/>
      <use x="355.761719" xlink:href="#ArialMT-32"/>
      <use x="383.544922" xlink:href="#ArialMT-105"/>
      <use x="405.761719" xlink:href="#ArialMT-100"/>
     </g>
    </g>
   </g>
   <g id="matplotlib.axis_2">
    <g id="ytick_1">
     <g id="text_7">
      <!-- 0 -->
      <g style="fill:#262626;" transform="translate(55.4925 438.511851)scale(0.16 -0.16)">
       <use xlink:href="#ArialMT-48"/>
      </g>
     </g>
    </g>
    <g id="ytick_2">
     <g id="text_8">
      <!-- 1000 -->
      <g style="fill:#262626;" transform="translate(28.8 350.036845)scale(0.16 -0.16)">
       <use xlink:href="#ArialMT-49"/>
       <use x="55.615234" xlink:href="#ArialMT-48"/>
       <use x="111.230469" xlink:href="#ArialMT-48"/>
       <use x="166.845703" xlink:href="#ArialMT-48"/>
      </g>
     </g>
    </g>
    <g id="ytick_3">
     <g id="text_9">
      <!-- 2000 -->
      <defs>
       <path d="M 50.34375 8.453125 
L 50.34375 0 
L 3.03125 0 
Q 2.9375 3.171875 4.046875 6.109375 
Q 5.859375 10.9375 9.828125 15.625 
Q 13.8125 20.3125 21.34375 26.46875 
Q 33.015625 36.03125 37.109375 41.625 
Q 41.21875 47.21875 41.21875 52.203125 
Q 41.21875 57.421875 37.46875 61 
Q 33.734375 64.59375 27.734375 64.59375 
Q 21.390625 64.59375 17.578125 60.78125 
Q 13.765625 56.984375 13.71875 50.25 
L 4.6875 51.171875 
Q 5.609375 61.28125 11.65625 66.578125 
Q 17.71875 71.875 27.9375 71.875 
Q 38.234375 71.875 44.234375 66.15625 
Q 50.25 60.453125 50.25 52 
Q 50.25 47.703125 48.484375 43.546875 
Q 46.734375 39.40625 42.65625 34.8125 
Q 38.578125 30.21875 29.109375 22.21875 
Q 21.1875 15.578125 18.9375 13.203125 
Q 16.703125 10.84375 15.234375 8.453125 
z
" id="ArialMT-50"/>
      </defs>
      <g style="fill:#262626;" transform="translate(28.8 261.561838)scale(0.16 -0.16)">
       <use xlink:href="#ArialMT-50"/>
       <use x="55.615234" xlink:href="#ArialMT-48"/>
       <use x="111.230469" xlink:href="#ArialMT-48"/>
       <use x="166.845703" xlink:href="#ArialMT-48"/>
      </g>
     </g>
    </g>
    <g id="ytick_4">
     <g id="text_10">
      <!-- 3000 -->
      <defs>
       <path d="M 4.203125 18.890625 
L 12.984375 20.0625 
Q 14.5 12.59375 18.140625 9.296875 
Q 21.78125 6 27 6 
Q 33.203125 6 37.46875 10.296875 
Q 41.75 14.59375 41.75 20.953125 
Q 41.75 27 37.796875 30.921875 
Q 33.84375 34.859375 27.734375 34.859375 
Q 25.25 34.859375 21.53125 33.890625 
L 22.515625 41.609375 
Q 23.390625 41.5 23.921875 41.5 
Q 29.546875 41.5 34.03125 44.421875 
Q 38.53125 47.359375 38.53125 53.46875 
Q 38.53125 58.296875 35.25 61.46875 
Q 31.984375 64.65625 26.8125 64.65625 
Q 21.6875 64.65625 18.265625 61.421875 
Q 14.84375 58.203125 13.875 51.765625 
L 5.078125 53.328125 
Q 6.6875 62.15625 12.390625 67.015625 
Q 18.109375 71.875 26.609375 71.875 
Q 32.46875 71.875 37.390625 69.359375 
Q 42.328125 66.84375 44.9375 62.5 
Q 47.5625 58.15625 47.5625 53.265625 
Q 47.5625 48.640625 45.0625 44.828125 
Q 42.578125 41.015625 37.703125 38.765625 
Q 44.046875 37.3125 47.5625 32.6875 
Q 51.078125 28.078125 51.078125 21.140625 
Q 51.078125 11.765625 44.234375 5.25 
Q 37.40625 -1.265625 26.953125 -1.265625 
Q 17.53125 -1.265625 11.296875 4.34375 
Q 5.078125 9.96875 4.203125 18.890625 
z
" id="ArialMT-51"/>
      </defs>
      <g style="fill:#262626;" transform="translate(28.8 173.086831)scale(0.16 -0.16)">
       <use xlink:href="#ArialMT-51"/>
       <use x="55.615234" xlink:href="#ArialMT-48"/>
       <use x="111.230469" xlink:href="#ArialMT-48"/>
       <use x="166.845703" xlink:href="#ArialMT-48"/>
      </g>
     </g>
    </g>
    <g id="ytick_5">
     <g id="text_11">
      <!-- 4000 -->
      <g style="fill:#262626;" transform="translate(28.8 84.611825)scale(0.16 -0.16)">
       <use xlink:href="#ArialMT-52"/>
       <use x="55.615234" xlink:href="#ArialMT-48"/>
       <use x="111.230469" xlink:href="#ArialMT-48"/>
       <use x="166.845703" xlink:href="#ArialMT-48"/>
      </g>
     </g>
    </g>
    <g id="text_12">
     <!-- Count [$h^{-1}$] -->
     <defs>
      <path d="M 6.78125 -19.875 
L 6.78125 71.578125 
L 26.171875 71.578125 
L 26.171875 64.3125 
L 15.578125 64.3125 
L 15.578125 -12.59375 
L 26.171875 -12.59375 
L 26.171875 -19.875 
z
" id="ArialMT-91"/>
      <path d="M 55.71875 33.015625 
L 49.3125 0 
L 40.28125 0 
L 46.6875 32.671875 
Q 47.125 34.96875 47.359375 36.71875 
Q 47.609375 38.484375 47.609375 39.5 
Q 47.609375 43.609375 45.015625 45.890625 
Q 42.4375 48.1875 37.796875 48.1875 
Q 30.5625 48.1875 25.265625 43.296875 
Q 19.96875 38.421875 18.40625 30.328125 
L 12.5 0 
L 3.515625 0 
L 18.3125 75.984375 
L 27.296875 75.984375 
L 21.484375 46.09375 
Q 24.90625 50.6875 30.21875 53.34375 
Q 35.546875 56 41.40625 56 
Q 48.640625 56 52.609375 52.09375 
Q 56.59375 48.1875 56.59375 41.109375 
Q 56.59375 39.359375 56.375 37.359375 
Q 56.15625 35.359375 55.71875 33.015625 
z
" id="DejaVuSans-Oblique-104"/>
      <path d="M 10.59375 35.5 
L 73.1875 35.5 
L 73.1875 27.203125 
L 10.59375 27.203125 
z
" id="DejaVuSans-8722"/>
      <path d="M 12.40625 8.296875 
L 28.515625 8.296875 
L 28.515625 63.921875 
L 10.984375 60.40625 
L 10.984375 69.390625 
L 28.421875 72.90625 
L 38.28125 72.90625 
L 38.28125 8.296875 
L 54.390625 8.296875 
L 54.390625 0 
L 12.40625 0 
z
" id="DejaVuSans-49"/>
      <path d="M 21.296875 -19.875 
L 1.90625 -19.875 
L 1.90625 -12.59375 
L 12.5 -12.59375 
L 12.5 64.3125 
L 1.90625 64.3125 
L 1.90625 71.578125 
L 21.296875 71.578125 
z
" id="ArialMT-93"/>
     </defs>
     <g style="fill:#262626;" transform="translate(21.6 292.112)rotate(-90)scale(0.16 -0.16)">
      <use transform="translate(0 0.684375)" xlink:href="#ArialMT-67"/>
      <use transform="translate(72.216797 0.684375)" xlink:href="#ArialMT-111"/>
      <use transform="translate(127.832031 0.684375)" xlink:href="#ArialMT-117"/>
      <use transform="translate(183.447266 0.684375)" xlink:href="#ArialMT-110"/>
      <use transform="translate(239.0625 0.684375)" xlink:href="#ArialMT-116"/>
      <use transform="translate(266.845703 0.684375)" xlink:href="#ArialMT-32"/>
      <use transform="translate(294.628906 0.684375)" xlink:href="#ArialMT-91"/>
      <use transform="translate(322.412109 0.684375)" xlink:href="#DejaVuSans-Oblique-104"/>
      <use transform="translate(393.238724 38.965625)scale(0.7)" xlink:href="#DejaVuSans-8722"/>
      <use transform="translate(451.891068 38.965625)scale(0.7)" xlink:href="#DejaVuSans-49"/>
      <use transform="translate(499.161576 0.684375)" xlink:href="#ArialMT-93"/>
     </g>
    </g>
   </g>
   <g id="PolyCollection_1">
    <defs>
     <path d="M 272.81001 -70.63701 
L 269.85295 -70.63701 
L 268.968006 -74.884402 
L 267.722444 -79.131793 
L 266.065491 -83.379185 
L 263.986875 -87.626576 
L 261.535764 -91.873968 
L 258.831799 -96.121359 
L 256.062166 -100.368751 
L 253.461496 -104.616142 
L 251.276327 -108.863533 
L 249.721169 -113.110925 
L 248.936964 -117.358316 
L 248.962975 -121.605708 
L 249.729762 -125.853099 
L 251.074812 -130.100491 
L 252.776018 -134.347882 
L 254.593794 -138.595274 
L 256.311387 -142.842665 
L 257.76505 -147.090056 
L 258.859678 -151.337448 
L 259.569805 -155.584839 
L 259.929081 -159.832231 
L 260.01282 -164.079622 
L 259.918245 -168.327014 
L 259.746044 -172.574405 
L 259.585583 -176.821797 
L 259.504959 -181.069188 
L 259.546143 -185.316579 
L 259.724803 -189.563971 
L 260.033813 -193.811362 
L 260.449051 -198.058754 
L 260.935895 -202.306145 
L 261.455033 -206.553537 
L 261.966705 -210.800928 
L 262.433276 -215.048319 
L 262.820702 -219.295711 
L 263.09977 -223.543102 
L 263.247803 -227.790494 
L 263.250992 -232.037885 
L 263.106799 -236.285277 
L 262.825471 -240.532668 
L 262.429697 -244.78006 
L 261.951969 -249.027451 
L 261.429966 -253.274842 
L 260.901034 -257.522234 
L 260.397188 -261.769625 
L 259.941912 -266.017017 
L 259.549486 -270.264408 
L 259.226683 -274.5118 
L 258.976017 -278.759191 
L 258.799269 -283.006583 
L 258.700085 -287.253974 
L 258.684867 -291.501365 
L 258.761858 -295.748757 
L 258.938905 -299.996148 
L 259.220826 -304.24354 
L 259.607299 -308.490931 
L 260.09197 -312.738323 
L 260.662927 -316.985714 
L 261.304295 -321.233105 
L 261.99831 -325.480497 
L 262.727226 -329.727888 
L 263.474557 -333.97528 
L 264.225472 -338.222671 
L 264.966532 -342.470063 
L 265.685145 -346.717454 
L 266.369198 -350.964846 
L 267.007193 -355.212237 
L 267.588943 -359.459628 
L 268.106653 -363.70702 
L 268.556026 -367.954411 
L 268.936995 -372.201803 
L 269.253792 -376.449194 
L 269.514281 -380.696586 
L 269.728667 -384.943977 
L 269.907891 -389.191369 
L 270.062051 -393.43876 
L 270.199166 -397.686151 
L 270.324497 -401.933543 
L 270.440499 -406.180934 
L 270.547319 -410.428326 
L 270.643687 -414.675717 
L 270.72796 -418.923109 
L 270.79906 -423.1705 
L 270.857121 -427.417892 
L 270.9037 -431.665283 
L 270.941563 -435.912674 
L 270.97412 -440.160066 
L 271.00471 -444.407457 
L 271.035938 -448.654849 
L 271.069225 -452.90224 
L 271.1047 -457.149632 
L 271.141387 -461.397023 
L 271.177634 -465.644414 
L 271.21161 -469.891806 
L 271.241753 -474.139197 
L 271.267054 -478.386589 
L 271.287157 -482.63398 
L 271.302288 -486.881372 
L 271.313087 -491.128763 
L 271.349873 -491.128763 
L 271.349873 -491.128763 
L 271.360672 -486.881372 
L 271.375803 -482.63398 
L 271.395906 -478.386589 
L 271.421207 -474.139197 
L 271.45135 -469.891806 
L 271.485326 -465.644414 
L 271.521573 -461.397023 
L 271.55826 -457.149632 
L 271.593735 -452.90224 
L 271.627022 -448.654849 
L 271.65825 -444.407457 
L 271.68884 -440.160066 
L 271.721397 -435.912674 
L 271.75926 -431.665283 
L 271.805839 -427.417892 
L 271.8639 -423.1705 
L 271.935 -418.923109 
L 272.019273 -414.675717 
L 272.115641 -410.428326 
L 272.222461 -406.180934 
L 272.338463 -401.933543 
L 272.463794 -397.686151 
L 272.600909 -393.43876 
L 272.755069 -389.191369 
L 272.934293 -384.943977 
L 273.148679 -380.696586 
L 273.409168 -376.449194 
L 273.725965 -372.201803 
L 274.106934 -367.954411 
L 274.556307 -363.70702 
L 275.074017 -359.459628 
L 275.655767 -355.212237 
L 276.293762 -350.964846 
L 276.977815 -346.717454 
L 277.696428 -342.470063 
L 278.437488 -338.222671 
L 279.188403 -333.97528 
L 279.935734 -329.727888 
L 280.66465 -325.480497 
L 281.358665 -321.233105 
L 282.000033 -316.985714 
L 282.57099 -312.738323 
L 283.055661 -308.490931 
L 283.442134 -304.24354 
L 283.724055 -299.996148 
L 283.901102 -295.748757 
L 283.978093 -291.501365 
L 283.962875 -287.253974 
L 283.863691 -283.006583 
L 283.686943 -278.759191 
L 283.436277 -274.5118 
L 283.113474 -270.264408 
L 282.721048 -266.017017 
L 282.265772 -261.769625 
L 281.761926 -257.522234 
L 281.232994 -253.274842 
L 280.710991 -249.027451 
L 280.233263 -244.78006 
L 279.837489 -240.532668 
L 279.556161 -236.285277 
L 279.411968 -232.037885 
L 279.415157 -227.790494 
L 279.56319 -223.543102 
L 279.842258 -219.295711 
L 280.229684 -215.048319 
L 280.696255 -210.800928 
L 281.207927 -206.553537 
L 281.727065 -202.306145 
L 282.213909 -198.058754 
L 282.629147 -193.811362 
L 282.938157 -189.563971 
L 283.116817 -185.316579 
L 283.158001 -181.069188 
L 283.077377 -176.821797 
L 282.916916 -172.574405 
L 282.744715 -168.327014 
L 282.65014 -164.079622 
L 282.733879 -159.832231 
L 283.093155 -155.584839 
L 283.803282 -151.337448 
L 284.89791 -147.090056 
L 286.351573 -142.842665 
L 288.069166 -138.595274 
L 289.886942 -134.347882 
L 291.588148 -130.100491 
L 292.933198 -125.853099 
L 293.699985 -121.605708 
L 293.725996 -117.358316 
L 292.941791 -113.110925 
L 291.386633 -108.863533 
L 289.201464 -104.616142 
L 286.600794 -100.368751 
L 283.831161 -96.121359 
L 281.127196 -91.873968 
L 278.676085 -87.626576 
L 276.597469 -83.379185 
L 274.940516 -79.131793 
L 273.694954 -74.884402 
L 272.81001 -70.63701 
z
" id="md06b2e3bf4" style="stroke:#373737;stroke-width:1.5;"/>
    </defs>
    <g clip-path="url(#p0580a8e456)">
     <use style="fill:#be631d;stroke:#373737;stroke-width:1.5;" x="0" xlink:href="#md06b2e3bf4" y="540.169"/>
    </g>
   </g>
   <g id="PolyCollection_2">
    <defs>
     <path d="M 405.727069 -69.533364 
L 403.524531 -69.533364 
L 402.820447 -73.991619 
L 401.799932 -78.449874 
L 400.400921 -82.908129 
L 398.59007 -87.366385 
L 396.382223 -91.82464 
L 393.855307 -96.282895 
L 391.154361 -100.741151 
L 388.480137 -105.199406 
L 386.061685 -109.657661 
L 384.117543 -114.115916 
L 382.814649 -118.574172 
L 382.235853 -123.032427 
L 382.365106 -127.490682 
L 383.094309 -131.948938 
L 384.249526 -136.407193 
L 385.628869 -140.865448 
L 387.041872 -145.323703 
L 388.340889 -149.781959 
L 389.438514 -154.240214 
L 390.309457 -158.698469 
L 390.979407 -163.156725 
L 391.505993 -167.61498 
L 391.957737 -172.073235 
L 392.396055 -176.53149 
L 392.863524 -180.989746 
L 393.37937 -185.448001 
L 393.941171 -189.906256 
L 394.530442 -194.364511 
L 395.119409 -198.822767 
L 395.676772 -203.281022 
L 396.171361 -207.739277 
L 396.573789 -212.197533 
L 396.85711 -216.655788 
L 396.997751 -221.114043 
L 396.977625 -225.572298 
L 396.787509 -230.030554 
L 396.430909 -234.488809 
L 395.927091 -238.947064 
L 395.311916 -243.40532 
L 394.635617 -247.863575 
L 393.957537 -252.32183 
L 393.33873 -256.780085 
L 392.833936 -261.238341 
L 392.484636 -265.696596 
L 392.314518 -270.154851 
L 392.328039 -274.613107 
L 392.512011 -279.071362 
L 392.839535 -283.529617 
L 393.275292 -287.987872 
L 393.781178 -292.446128 
L 394.321418 -296.904383 
L 394.866549 -301.362638 
L 395.395898 -305.820893 
L 395.898387 -310.279149 
L 396.371731 -314.737404 
L 396.820312 -319.195659 
L 397.25222 -323.653915 
L 397.676103 -328.11217 
L 398.098495 -332.570425 
L 398.522133 -337.02868 
L 398.945546 -341.486936 
L 399.363817 -345.945191 
L 399.770115 -350.403446 
L 400.157446 -354.861702 
L 400.520062 -359.319957 
L 400.854216 -363.778212 
L 401.15822 -368.236467 
L 401.432051 -372.694723 
L 401.676855 -377.152978 
L 401.89461 -381.611233 
L 402.088046 -386.069489 
L 402.260704 -390.527744 
L 402.416901 -394.985999 
L 402.561414 -399.444254 
L 402.698871 -403.90251 
L 402.832964 -408.360765 
L 402.965778 -412.81902 
L 403.097491 -417.277275 
L 403.226597 -421.735531 
L 403.350616 -426.193786 
L 403.467088 -430.652041 
L 403.574505 -435.110297 
L 403.67289 -439.568552 
L 403.763812 -444.026807 
L 403.849853 -448.485062 
L 403.933728 -452.943318 
L 404.017378 -457.401573 
L 404.101357 -461.859828 
L 404.184684 -466.318084 
L 404.265188 -470.776339 
L 404.340155 -475.234594 
L 404.407052 -479.692849 
L 404.464091 -484.151105 
L 404.510513 -488.60936 
L 404.546581 -493.067615 
L 404.573351 -497.525871 
L 404.592349 -501.984126 
L 404.605252 -506.442381 
L 404.613646 -510.900636 
L 404.637954 -510.900636 
L 404.637954 -510.900636 
L 404.646348 -506.442381 
L 404.659251 -501.984126 
L 404.678249 -497.525871 
L 404.705019 -493.067615 
L 404.741087 -488.60936 
L 404.787509 -484.151105 
L 404.844548 -479.692849 
L 404.911445 -475.234594 
L 404.986412 -470.776339 
L 405.066916 -466.318084 
L 405.150243 -461.859828 
L 405.234222 -457.401573 
L 405.317872 -452.943318 
L 405.401747 -448.485062 
L 405.487788 -444.026807 
L 405.57871 -439.568552 
L 405.677095 -435.110297 
L 405.784512 -430.652041 
L 405.900984 -426.193786 
L 406.025003 -421.735531 
L 406.154109 -417.277275 
L 406.285822 -412.81902 
L 406.418636 -408.360765 
L 406.552729 -403.90251 
L 406.690186 -399.444254 
L 406.834699 -394.985999 
L 406.990896 -390.527744 
L 407.163554 -386.069489 
L 407.35699 -381.611233 
L 407.574745 -377.152978 
L 407.819549 -372.694723 
L 408.09338 -368.236467 
L 408.397384 -363.778212 
L 408.731538 -359.319957 
L 409.094154 -354.861702 
L 409.481485 -350.403446 
L 409.887783 -345.945191 
L 410.306054 -341.486936 
L 410.729467 -337.02868 
L 411.153105 -332.570425 
L 411.575497 -328.11217 
L 411.99938 -323.653915 
L 412.431288 -319.195659 
L 412.879869 -314.737404 
L 413.353213 -310.279149 
L 413.855702 -305.820893 
L 414.385051 -301.362638 
L 414.930182 -296.904383 
L 415.470422 -292.446128 
L 415.976308 -287.987872 
L 416.412065 -283.529617 
L 416.739589 -279.071362 
L 416.923561 -274.613107 
L 416.937082 -270.154851 
L 416.766964 -265.696596 
L 416.417664 -261.238341 
L 415.91287 -256.780085 
L 415.294063 -252.32183 
L 414.615983 -247.863575 
L 413.939684 -243.40532 
L 413.324509 -238.947064 
L 412.820691 -234.488809 
L 412.464091 -230.030554 
L 412.273975 -225.572298 
L 412.253849 -221.114043 
L 412.39449 -216.655788 
L 412.677811 -212.197533 
L 413.080239 -207.739277 
L 413.574828 -203.281022 
L 414.132191 -198.822767 
L 414.721158 -194.364511 
L 415.310429 -189.906256 
L 415.87223 -185.448001 
L 416.388076 -180.989746 
L 416.855545 -176.53149 
L 417.293863 -172.073235 
L 417.745607 -167.61498 
L 418.272193 -163.156725 
L 418.942143 -158.698469 
L 419.813086 -154.240214 
L 420.910711 -149.781959 
L 422.209728 -145.323703 
L 423.622731 -140.865448 
L 425.002074 -136.407193 
L 426.157291 -131.948938 
L 426.886494 -127.490682 
L 427.015747 -123.032427 
L 426.436951 -118.574172 
L 425.134057 -114.115916 
L 423.189915 -109.657661 
L 420.771463 -105.199406 
L 418.097239 -100.741151 
L 415.396293 -96.282895 
L 412.869377 -91.82464 
L 410.66153 -87.366385 
L 408.850679 -82.908129 
L 407.451668 -78.449874 
L 406.431153 -73.991619 
L 405.727069 -69.533364 
z
" id="m2618055ee2" style="stroke:#373737;stroke-width:1.5;"/>
    </defs>
    <g clip-path="url(#p0580a8e456)">
     <use style="fill:#7c78ab;stroke:#373737;stroke-width:1.5;" x="0" xlink:href="#m2618055ee2" y="540.169"/>
    </g>
   </g>
   <g id="PolyCollection_3">
    <defs>
     <path d="M 539.186881 -70.891536 
L 536.653359 -70.891536 
L 535.916027 -75.044416 
L 534.879583 -79.197297 
L 533.494995 -83.350178 
L 531.739952 -87.503059 
L 529.633848 -91.65594 
L 527.248722 -95.808821 
L 524.711779 -99.961701 
L 522.196393 -104.114582 
L 519.901239 -108.267463 
L 518.020652 -112.420344 
L 516.71235 -116.573225 
L 516.070034 -120.726106 
L 516.107546 -124.878986 
L 516.758318 -129.031867 
L 517.88986 -133.184748 
L 519.329301 -137.337629 
L 520.893672 -141.49051 
L 522.418231 -145.643391 
L 523.777488 -149.796271 
L 524.896022 -153.949152 
L 525.748777 -158.102033 
L 526.35276 -162.254914 
L 526.753369 -166.407795 
L 527.009037 -170.560675 
L 527.177494 -174.713556 
L 527.305972 -178.866437 
L 527.426388 -183.019318 
L 527.555216 -187.172199 
L 527.696713 -191.32508 
L 527.847609 -195.47796 
L 528.001412 -199.630841 
L 528.15107 -203.783722 
L 528.2896 -207.936603 
L 528.409185 -212.089484 
L 528.499825 -216.242365 
L 528.548726 -220.395245 
L 528.541235 -224.548126 
L 528.463433 -228.701007 
L 528.305775 -232.853888 
L 528.066662 -237.006769 
L 527.754752 -241.159649 
L 527.389185 -245.31253 
L 526.997503 -249.465411 
L 526.611751 -253.618292 
L 526.263749 -257.771173 
L 525.980685 -261.924054 
L 525.782003 -266.076934 
L 525.678101 -270.229815 
L 525.670849 -274.382696 
L 525.75545 -278.535577 
L 525.922955 -282.688458 
L 526.16265 -286.841339 
L 526.463764 -290.994219 
L 526.816213 -295.1471 
L 527.21045 -299.299981 
L 527.636797 -303.452862 
L 528.084794 -307.605743 
L 528.543058 -311.758623 
L 528.999955 -315.911504 
L 529.445021 -320.064385 
L 529.870735 -324.217266 
L 530.274011 -328.370147 
L 530.656823 -332.523028 
L 531.025599 -336.675908 
L 531.389444 -340.828789 
L 531.757666 -344.98167 
L 532.13728 -349.134551 
L 532.531189 -353.287432 
L 532.937467 -357.440313 
L 533.349837 -361.593193 
L 533.759059 -365.746074 
L 534.154791 -369.898955 
L 534.527401 -374.051836 
L 534.869398 -378.204717 
L 535.176264 -382.357598 
L 535.44669 -386.510478 
L 535.682297 -390.663359 
L 535.886997 -394.81624 
L 536.066145 -398.969121 
L 536.225635 -403.122002 
L 536.371076 -407.274882 
L 536.507161 -411.427763 
L 536.637309 -415.580644 
L 536.763576 -419.733525 
L 536.886812 -423.886406 
L 537.006938 -428.039287 
L 537.123272 -432.192167 
L 537.234791 -436.345048 
L 537.340316 -440.497929 
L 537.43863 -444.65081 
L 537.528552 -448.803691 
L 537.609037 -452.956572 
L 537.679283 -457.109452 
L 537.738859 -461.262333 
L 537.787795 -465.415214 
L 537.826613 -469.568095 
L 537.856274 -473.720976 
L 537.878065 -477.873856 
L 537.893431 -482.026737 
L 537.946809 -482.026737 
L 537.946809 -482.026737 
L 537.962175 -477.873856 
L 537.983966 -473.720976 
L 538.013627 -469.568095 
L 538.052445 -465.415214 
L 538.101381 -461.262333 
L 538.160957 -457.109452 
L 538.231203 -452.956572 
L 538.311688 -448.803691 
L 538.40161 -444.65081 
L 538.499924 -440.497929 
L 538.605449 -436.345048 
L 538.716968 -432.192167 
L 538.833302 -428.039287 
L 538.953428 -423.886406 
L 539.076664 -419.733525 
L 539.202931 -415.580644 
L 539.333079 -411.427763 
L 539.469164 -407.274882 
L 539.614605 -403.122002 
L 539.774095 -398.969121 
L 539.953243 -394.81624 
L 540.157943 -390.663359 
L 540.39355 -386.510478 
L 540.663976 -382.357598 
L 540.970842 -378.204717 
L 541.312839 -374.051836 
L 541.685449 -369.898955 
L 542.081181 -365.746074 
L 542.490403 -361.593193 
L 542.902773 -357.440313 
L 543.309051 -353.287432 
L 543.70296 -349.134551 
L 544.082574 -344.98167 
L 544.450796 -340.828789 
L 544.814641 -336.675908 
L 545.183417 -332.523028 
L 545.566229 -328.370147 
L 545.969505 -324.217266 
L 546.395219 -320.064385 
L 546.840285 -315.911504 
L 547.297182 -311.758623 
L 547.755446 -307.605743 
L 548.203443 -303.452862 
L 548.62979 -299.299981 
L 549.024027 -295.1471 
L 549.376476 -290.994219 
L 549.67759 -286.841339 
L 549.917285 -282.688458 
L 550.08479 -278.535577 
L 550.169391 -274.382696 
L 550.162139 -270.229815 
L 550.058237 -266.076934 
L 549.859555 -261.924054 
L 549.576491 -257.771173 
L 549.228489 -253.618292 
L 548.842737 -249.465411 
L 548.451055 -245.31253 
L 548.085488 -241.159649 
L 547.773578 -237.006769 
L 547.534465 -232.853888 
L 547.376807 -228.701007 
L 547.299005 -224.548126 
L 547.291514 -220.395245 
L 547.340415 -216.242365 
L 547.431055 -212.089484 
L 547.55064 -207.936603 
L 547.68917 -203.783722 
L 547.838828 -199.630841 
L 547.992631 -195.47796 
L 548.143527 -191.32508 
L 548.285024 -187.172199 
L 548.413852 -183.019318 
L 548.534268 -178.866437 
L 548.662746 -174.713556 
L 548.831203 -170.560675 
L 549.086871 -166.407795 
L 549.48748 -162.254914 
L 550.091463 -158.102033 
L 550.944218 -153.949152 
L 552.062752 -149.796271 
L 553.422009 -145.643391 
L 554.946568 -141.49051 
L 556.510939 -137.337629 
L 557.95038 -133.184748 
L 559.081922 -129.031867 
L 559.732694 -124.878986 
L 559.770206 -120.726106 
L 559.12789 -116.573225 
L 557.819588 -112.420344 
L 555.939001 -108.267463 
L 553.643847 -104.114582 
L 551.128461 -99.961701 
L 548.591518 -95.808821 
L 546.206392 -91.65594 
L 544.100288 -87.503059 
L 542.345245 -83.350178 
L 540.960657 -79.197297 
L 539.924213 -75.044416 
L 539.186881 -70.891536 
z
" id="m4ac3056f8e" style="stroke:#373737;stroke-width:1.5;"/>
    </defs>
    <g clip-path="url(#p0580a8e456)">
     <use style="fill:#cf418a;stroke:#373737;stroke-width:1.5;" x="0" xlink:href="#m4ac3056f8e" y="540.169"/>
    </g>
   </g>
   <g id="PolyCollection_4">
    <defs>
     <path d="M 673.520319 -95.022247 
L 668.908561 -95.022247 
L 667.104308 -96.621435 
L 664.326418 -98.220622 
L 660.353933 -99.81981 
L 655.090327 -101.418997 
L 648.651597 -103.018185 
L 641.421593 -104.617372 
L 634.039896 -106.21656 
L 627.306244 -107.815747 
L 622.017757 -109.414935 
L 618.78634 -111.014122 
L 617.896712 -112.61331 
L 619.252151 -114.212497 
L 622.421138 -115.811685 
L 626.760825 -117.410872 
L 631.570129 -119.01006 
L 636.224486 -120.609247 
L 640.261422 -122.208435 
L 643.409641 -123.807622 
L 645.573077 -125.40681 
L 646.790137 -127.005997 
L 647.187441 -128.605185 
L 646.940732 -130.204372 
L 646.247242 -131.80356 
L 645.307179 -133.402747 
L 644.309034 -135.001935 
L 643.414635 -136.601122 
L 642.74387 -138.20031 
L 642.363018 -139.799497 
L 642.281997 -141.398685 
L 642.463377 -142.997873 
L 642.841046 -144.59706 
L 643.341859 -146.196248 
L 643.902176 -147.795435 
L 644.473848 -149.394623 
L 645.019373 -150.99381 
L 645.500873 -152.592998 
L 645.869739 -154.192185 
L 646.06256 -155.791373 
L 646.005394 -157.39056 
L 645.624527 -158.989748 
L 644.859611 -160.588935 
L 643.67519 -162.188123 
L 642.068646 -163.78731 
L 640.074965 -165.386498 
L 637.769848 -166.985685 
L 635.27171 -168.584873 
L 632.740939 -170.18406 
L 630.37307 -171.783248 
L 628.383261 -173.382435 
L 626.982413 -174.981623 
L 626.349162 -176.58081 
L 626.604086 -178.179998 
L 627.791751 -179.779185 
L 629.87327 -181.378373 
L 632.729042 -182.97756 
L 636.169974 -184.576748 
L 639.955922 -186.175935 
L 643.820782 -187.775123 
L 647.503036 -189.37431 
L 650.778288 -190.973498 
L 653.487882 -192.572685 
L 655.556896 -194.171873 
L 656.996928 -195.77106 
L 657.893339 -197.370248 
L 658.381147 -198.969435 
L 658.616464 -200.568623 
L 658.750358 -202.16781 
L 658.909744 -203.766998 
L 659.186771 -205.366185 
L 659.635681 -206.965373 
L 660.27494 -208.56456 
L 661.092509 -210.163748 
L 662.052787 -211.762935 
L 663.104376 -213.362123 
L 664.188193 -214.96131 
L 665.245434 -216.560498 
L 666.224747 -218.159685 
L 667.087801 -219.758873 
L 667.812383 -221.35806 
L 668.392522 -222.957248 
L 668.835793 -224.556435 
L 669.158864 -226.155623 
L 669.382871 -227.75481 
L 669.530105 -229.353998 
L 669.622601 -230.953185 
L 669.682095 -232.552373 
L 669.730042 -234.15156 
L 669.786479 -235.750748 
L 669.867487 -237.349935 
L 669.982143 -238.949123 
L 670.130488 -240.54831 
L 670.303789 -242.147498 
L 670.487297 -243.746685 
L 670.664539 -245.345873 
L 670.821566 -246.94506 
L 670.949748 -248.544248 
L 671.046488 -250.143435 
L 671.114171 -251.742623 
L 671.158156 -253.34181 
L 671.270724 -253.34181 
L 671.270724 -253.34181 
L 671.314709 -251.742623 
L 671.382392 -250.143435 
L 671.479132 -248.544248 
L 671.607314 -246.94506 
L 671.764341 -245.345873 
L 671.941583 -243.746685 
L 672.125091 -242.147498 
L 672.298392 -240.54831 
L 672.446737 -238.949123 
L 672.561393 -237.349935 
L 672.642401 -235.750748 
L 672.698838 -234.15156 
L 672.746785 -232.552373 
L 672.806279 -230.953185 
L 672.898775 -229.353998 
L 673.046009 -227.75481 
L 673.270016 -226.155623 
L 673.593087 -224.556435 
L 674.036358 -222.957248 
L 674.616497 -221.35806 
L 675.341079 -219.758873 
L 676.204133 -218.159685 
L 677.183446 -216.560498 
L 678.240687 -214.96131 
L 679.324504 -213.362123 
L 680.376093 -211.762935 
L 681.336371 -210.163748 
L 682.15394 -208.56456 
L 682.793199 -206.965373 
L 683.242109 -205.366185 
L 683.519136 -203.766998 
L 683.678522 -202.16781 
L 683.812416 -200.568623 
L 684.047733 -198.969435 
L 684.535541 -197.370248 
L 685.431952 -195.77106 
L 686.871984 -194.171873 
L 688.940998 -192.572685 
L 691.650592 -190.973498 
L 694.925844 -189.37431 
L 698.608098 -187.775123 
L 702.472958 -186.175935 
L 706.258906 -184.576748 
L 709.699838 -182.97756 
L 712.55561 -181.378373 
L 714.637129 -179.779185 
L 715.824794 -178.179998 
L 716.079718 -176.58081 
L 715.446467 -174.981623 
L 714.045619 -173.382435 
L 712.05581 -171.783248 
L 709.687941 -170.18406 
L 707.15717 -168.584873 
L 704.659032 -166.985685 
L 702.353915 -165.386498 
L 700.360234 -163.78731 
L 698.75369 -162.188123 
L 697.569269 -160.588935 
L 696.804353 -158.989748 
L 696.423486 -157.39056 
L 696.36632 -155.791373 
L 696.559141 -154.192185 
L 696.928007 -152.592998 
L 697.409507 -150.99381 
L 697.955032 -149.394623 
L 698.526704 -147.795435 
L 699.087021 -146.196248 
L 699.587834 -144.59706 
L 699.965503 -142.997873 
L 700.146883 -141.398685 
L 700.065862 -139.799497 
L 699.68501 -138.20031 
L 699.014245 -136.601122 
L 698.119846 -135.001935 
L 697.121701 -133.402747 
L 696.181638 -131.80356 
L 695.488148 -130.204372 
L 695.241439 -128.605185 
L 695.638743 -127.005997 
L 696.855803 -125.40681 
L 699.019239 -123.807622 
L 702.167458 -122.208435 
L 706.204394 -120.609247 
L 710.858751 -119.01006 
L 715.668055 -117.410872 
L 720.007742 -115.811685 
L 723.176729 -114.212497 
L 724.532168 -112.61331 
L 723.64254 -111.014122 
L 720.411123 -109.414935 
L 715.122636 -107.815747 
L 708.388984 -106.21656 
L 701.007287 -104.617372 
L 693.777283 -103.018185 
L 687.338553 -101.418997 
L 682.074947 -99.81981 
L 678.102462 -98.220622 
L 675.324572 -96.621435 
L 673.520319 -95.022247 
z
" id="m6aa39c926a" style="stroke:#373737;stroke-width:1.5;"/>
    </defs>
    <g clip-path="url(#p0580a8e456)">
     <use style="fill:#65952f;stroke:#373737;stroke-width:1.5;" x="0" xlink:href="#m6aa39c926a" y="540.169"/>
    </g>
   </g>
   <g id="line2d_1">
    <path clip-path="url(#p0580a8e456)" d="M 84.719432 432.785601 
L 191.354888 432.785601 
" style="fill:none;stroke:#373737;stroke-linecap:round;stroke-width:1.5;"/>
   </g>
   <g id="line2d_2">
    <path clip-path="url(#p0580a8e456)" d="M 271.33148 430.839151 
L 271.33148 87.733075 
" style="fill:none;stroke:#373737;stroke-linecap:round;stroke-width:1.5;"/>
   </g>
   <g id="line2d_3">
    <path clip-path="url(#p0580a8e456)" d="M 271.33148 416.5062 
L 271.33148 257.406019 
" style="fill:none;stroke:#373737;stroke-linecap:round;stroke-width:4.5;"/>
   </g>
   <g id="line2d_4">
    <path clip-path="url(#p0580a8e456)" d="M 404.6258 430.485251 
L 404.6258 69.418749 
" style="fill:none;stroke:#373737;stroke-linecap:round;stroke-width:1.5;"/>
   </g>
   <g id="line2d_5">
    <path clip-path="url(#p0580a8e456)" d="M 404.6258 412.6133 
L 404.6258 263.798339 
" style="fill:none;stroke:#373737;stroke-linecap:round;stroke-width:4.5;"/>
   </g>
   <g id="line2d_6">
    <path clip-path="url(#p0580a8e456)" d="M 537.92012 429.865926 
L 537.92012 97.553801 
" style="fill:none;stroke:#373737;stroke-linecap:round;stroke-width:1.5;"/>
   </g>
   <g id="line2d_7">
    <path clip-path="url(#p0580a8e456)" d="M 537.92012 412.126687 
L 537.92012 259.020688 
" style="fill:none;stroke:#373737;stroke-linecap:round;stroke-width:4.5;"/>
   </g>
   <g id="line2d_8">
    <path clip-path="url(#p0580a8e456)" d="M 671.21444 432.785601 
L 671.21444 299.188341 
" style="fill:none;stroke:#373737;stroke-linecap:round;stroke-width:1.5;"/>
   </g>
   <g id="line2d_9">
    <path clip-path="url(#p0580a8e456)" d="M 671.21444 421.925294 
L 671.21444 362.890346 
" style="fill:none;stroke:#373737;stroke-linecap:round;stroke-width:4.5;"/>
   </g>
   <g id="patch_3">
    <path d="M 71.39 492.704 
L 71.39 7.2 
" style="fill:none;stroke:#262626;stroke-linecap:square;stroke-linejoin:miter;stroke-width:0.8;"/>
   </g>
   <g id="patch_4">
    <path d="M 71.39 492.704 
L 737.8616 492.704 
" style="fill:none;stroke:#262626;stroke-linecap:square;stroke-linejoin:miter;stroke-width:0.8;"/>
   </g>
   <g id="PathCollection_1">
    <defs>
     <path d="M 0 1.5 
C 0.397805 1.5 0.77937 1.341951 1.06066 1.06066 
C 1.341951 0.77937 1.5 0.397805 1.5 0 
C 1.5 -0.397805 1.341951 -0.77937 1.06066 -1.06066 
C 0.77937 -1.341951 0.397805 -1.5 0 -1.5 
C -0.397805 -1.5 -0.77937 -1.341951 -1.06066 -1.06066 
C -1.341951 -0.77937 -1.5 -0.397805 -1.5 0 
C -1.5 0.397805 -1.341951 0.77937 -1.06066 1.06066 
C -0.77937 1.341951 -0.397805 1.5 0 1.5 
z
" id="m56859a5f81" style="stroke:#373737;"/>
    </defs>
    <g clip-path="url(#p0580a8e456)">
     <use style="fill:#ffffff;stroke:#373737;" x="271.33148" xlink:href="#m56859a5f81" y="348.203495"/>
    </g>
   </g>
   <g id="PathCollection_2">
    <g clip-path="url(#p0580a8e456)">
     <use style="fill:#ffffff;stroke:#373737;" x="404.6258" xlink:href="#m56859a5f81" y="352.450295"/>
    </g>
   </g>
   <g id="PathCollection_3">
    <g clip-path="url(#p0580a8e456)">
     <use style="fill:#ffffff;stroke:#373737;" x="537.92012" xlink:href="#m56859a5f81" y="338.161582"/>
    </g>
   </g>
   <g id="PathCollection_4">
    <g clip-path="url(#p0580a8e456)">
     <use style="fill:#ffffff;stroke:#373737;" x="671.21444" xlink:href="#m56859a5f81" y="389.123185"/>
    </g>
   </g>
  </g>
 </g>
 <defs>
  <clipPath id="p0580a8e456">
   <rect height="485.504" width="666.4716" x="71.39" y="7.2"/>
  </clipPath>
 </defs>
</svg>
