<?xml version="1.0" encoding="utf-8" standalone="no"?>
<!DOCTYPE svg PUBLIC "-//W3C//DTD SVG 1.1//EN"
  "http://www.w3.org/Graphics/SVG/1.1/DTD/svg11.dtd">
<!-- Created with matplotlib (https://matplotlib.org/) -->
<svg height="509.319pt" version="1.1" viewBox="0 0 699.4616 509.319" width="699.4616pt" xmlns="http://www.w3.org/2000/svg" xmlns:xlink="http://www.w3.org/1999/xlink">
 <defs>
  <style type="text/css">
*{stroke-linecap:butt;stroke-linejoin:round;white-space:pre;}
  </style>
 </defs>
 <g id="figure_1">
  <g id="patch_1">
   <path d="M 0 509.319 
L 699.4616 509.319 
L 699.4616 0 
L 0 0 
z
" style="fill:#ffffff;"/>
  </g>
  <g id="axes_1">
   <g id="patch_2">
    <path d="M 71.39 461.854 
L 692.2616 461.854 
L 692.2616 7.2 
L 71.39 7.2 
z
" style="fill:#ffffff;"/>
   </g>
   <g id="matplotlib.axis_1">
    <g id="xtick_1">
     <g id="text_1">
      <!-- 0174 -->
      <defs>
       <path d="M 4.15625 35.296875 
Q 4.15625 48 6.765625 55.734375 
Q 9.375 63.484375 14.515625 67.671875 
Q 19.671875 71.875 27.484375 71.875 
Q 33.25 71.875 37.59375 69.546875 
Q 41.9375 67.234375 44.765625 62.859375 
Q 47.609375 58.5 49.21875 52.21875 
Q 50.828125 45.953125 50.828125 35.296875 
Q 50.828125 22.703125 48.234375 14.96875 
Q 45.65625 7.234375 40.5 3 
Q 35.359375 -1.21875 27.484375 -1.21875 
Q 17.140625 -1.21875 11.234375 6.203125 
Q 4.15625 15.140625 4.15625 35.296875 
z
M 13.1875 35.296875 
Q 13.1875 17.671875 17.3125 11.828125 
Q 21.4375 6 27.484375 6 
Q 33.546875 6 37.671875 11.859375 
Q 41.796875 17.71875 41.796875 35.296875 
Q 41.796875 52.984375 37.671875 58.78125 
Q 33.546875 64.59375 27.390625 64.59375 
Q 21.34375 64.59375 17.71875 59.46875 
Q 13.1875 52.9375 13.1875 35.296875 
z
" id="ArialMT-48"/>
       <path d="M 37.25 0 
L 28.46875 0 
L 28.46875 56 
Q 25.296875 52.984375 20.140625 49.953125 
Q 14.984375 46.921875 10.890625 45.40625 
L 10.890625 53.90625 
Q 18.265625 57.375 23.78125 62.296875 
Q 29.296875 67.234375 31.59375 71.875 
L 37.25 71.875 
z
" id="ArialMT-49"/>
       <path d="M 4.734375 62.203125 
L 4.734375 70.65625 
L 51.078125 70.65625 
L 51.078125 63.8125 
Q 44.234375 56.546875 37.515625 44.484375 
Q 30.8125 32.421875 27.15625 19.671875 
Q 24.515625 10.6875 23.78125 0 
L 14.75 0 
Q 14.890625 8.453125 18.0625 20.40625 
Q 21.234375 32.375 27.171875 43.484375 
Q 33.109375 54.59375 39.796875 62.203125 
z
" id="ArialMT-55"/>
       <path d="M 32.328125 0 
L 32.328125 17.140625 
L 1.265625 17.140625 
L 1.265625 25.203125 
L 33.9375 71.578125 
L 41.109375 71.578125 
L 41.109375 25.203125 
L 50.78125 25.203125 
L 50.78125 17.140625 
L 41.109375 17.140625 
L 41.109375 0 
z
M 32.328125 25.203125 
L 32.328125 57.46875 
L 9.90625 25.203125 
z
" id="ArialMT-52"/>
      </defs>
      <g style="fill:#262626;" transform="translate(115.68216 480.3065)scale(0.16 -0.16)">
       <use xlink:href="#ArialMT-48"/>
       <use x="55.615234" xlink:href="#ArialMT-49"/>
       <use x="111.230469" xlink:href="#ArialMT-55"/>
       <use x="166.845703" xlink:href="#ArialMT-52"/>
      </g>
     </g>
    </g>
    <g id="xtick_2">
     <g id="text_2">
      <!-- 0174-1 -->
      <defs>
       <path d="M 3.171875 21.484375 
L 3.171875 30.328125 
L 30.171875 30.328125 
L 30.171875 21.484375 
z
" id="ArialMT-45"/>
      </defs>
      <g style="fill:#262626;" transform="translate(232.74398 480.3065)scale(0.16 -0.16)">
       <use xlink:href="#ArialMT-48"/>
       <use x="55.615234" xlink:href="#ArialMT-49"/>
       <use x="111.230469" xlink:href="#ArialMT-55"/>
       <use x="166.845703" xlink:href="#ArialMT-52"/>
       <use x="222.460938" xlink:href="#ArialMT-45"/>
       <use x="255.761719" xlink:href="#ArialMT-49"/>
      </g>
     </g>
    </g>
    <g id="xtick_3">
     <g id="text_3">
      <!-- 0855 -->
      <defs>
       <path d="M 17.671875 38.8125 
Q 12.203125 40.828125 9.5625 44.53125 
Q 6.9375 48.25 6.9375 53.421875 
Q 6.9375 61.234375 12.546875 66.546875 
Q 18.171875 71.875 27.484375 71.875 
Q 36.859375 71.875 42.578125 66.421875 
Q 48.296875 60.984375 48.296875 53.171875 
Q 48.296875 48.1875 45.671875 44.5 
Q 43.0625 40.828125 37.75 38.8125 
Q 44.34375 36.671875 47.78125 31.875 
Q 51.21875 27.09375 51.21875 20.453125 
Q 51.21875 11.28125 44.71875 5.03125 
Q 38.234375 -1.21875 27.640625 -1.21875 
Q 17.046875 -1.21875 10.546875 5.046875 
Q 4.046875 11.328125 4.046875 20.703125 
Q 4.046875 27.6875 7.59375 32.390625 
Q 11.140625 37.109375 17.671875 38.8125 
z
M 15.921875 53.71875 
Q 15.921875 48.640625 19.1875 45.40625 
Q 22.46875 42.1875 27.6875 42.1875 
Q 32.765625 42.1875 36.015625 45.375 
Q 39.265625 48.578125 39.265625 53.21875 
Q 39.265625 58.0625 35.90625 61.359375 
Q 32.5625 64.65625 27.59375 64.65625 
Q 22.5625 64.65625 19.234375 61.421875 
Q 15.921875 58.203125 15.921875 53.71875 
z
M 13.09375 20.65625 
Q 13.09375 16.890625 14.875 13.375 
Q 16.65625 9.859375 20.171875 7.921875 
Q 23.6875 6 27.734375 6 
Q 34.03125 6 38.125 10.046875 
Q 42.234375 14.109375 42.234375 20.359375 
Q 42.234375 26.703125 38.015625 30.859375 
Q 33.796875 35.015625 27.4375 35.015625 
Q 21.234375 35.015625 17.15625 30.90625 
Q 13.09375 26.8125 13.09375 20.65625 
z
" id="ArialMT-56"/>
       <path d="M 4.15625 18.75 
L 13.375 19.53125 
Q 14.40625 12.796875 18.140625 9.390625 
Q 21.875 6 27.15625 6 
Q 33.5 6 37.890625 10.78125 
Q 42.28125 15.578125 42.28125 23.484375 
Q 42.28125 31 38.0625 35.34375 
Q 33.84375 39.703125 27 39.703125 
Q 22.75 39.703125 19.328125 37.765625 
Q 15.921875 35.84375 13.96875 32.765625 
L 5.71875 33.84375 
L 12.640625 70.609375 
L 48.25 70.609375 
L 48.25 62.203125 
L 19.671875 62.203125 
L 15.828125 42.96875 
Q 22.265625 47.46875 29.34375 47.46875 
Q 38.71875 47.46875 45.15625 40.96875 
Q 51.609375 34.46875 51.609375 24.265625 
Q 51.609375 14.546875 45.953125 7.46875 
Q 39.0625 -1.21875 27.15625 -1.21875 
Q 17.390625 -1.21875 11.203125 4.25 
Q 5.03125 9.71875 4.15625 18.75 
z
" id="ArialMT-53"/>
      </defs>
      <g style="fill:#262626;" transform="translate(364.0308 480.3065)scale(0.16 -0.16)">
       <use xlink:href="#ArialMT-48"/>
       <use x="55.615234" xlink:href="#ArialMT-56"/>
       <use x="111.230469" xlink:href="#ArialMT-53"/>
       <use x="166.845703" xlink:href="#ArialMT-53"/>
      </g>
     </g>
    </g>
    <g id="xtick_4">
     <g id="text_4">
      <!-- 0855-1 -->
      <g style="fill:#262626;" transform="translate(481.09262 480.3065)scale(0.16 -0.16)">
       <use xlink:href="#ArialMT-48"/>
       <use x="55.615234" xlink:href="#ArialMT-56"/>
       <use x="111.230469" xlink:href="#ArialMT-53"/>
       <use x="166.845703" xlink:href="#ArialMT-53"/>
       <use x="222.460938" xlink:href="#ArialMT-45"/>
       <use x="255.761719" xlink:href="#ArialMT-49"/>
      </g>
     </g>
    </g>
    <g id="xtick_5">
     <g id="text_5">
      <!-- 1001-156 -->
      <defs>
       <path d="M 49.75 54.046875 
L 41.015625 53.375 
Q 39.84375 58.546875 37.703125 60.890625 
Q 34.125 64.65625 28.90625 64.65625 
Q 24.703125 64.65625 21.53125 62.3125 
Q 17.390625 59.28125 14.984375 53.46875 
Q 12.59375 47.65625 12.5 36.921875 
Q 15.671875 41.75 20.265625 44.09375 
Q 24.859375 46.4375 29.890625 46.4375 
Q 38.671875 46.4375 44.84375 39.96875 
Q 51.03125 33.5 51.03125 23.25 
Q 51.03125 16.5 48.125 10.71875 
Q 45.21875 4.9375 40.140625 1.859375 
Q 35.0625 -1.21875 28.609375 -1.21875 
Q 17.625 -1.21875 10.6875 6.859375 
Q 3.765625 14.9375 3.765625 33.5 
Q 3.765625 54.25 11.421875 63.671875 
Q 18.109375 71.875 29.4375 71.875 
Q 37.890625 71.875 43.28125 67.140625 
Q 48.6875 62.40625 49.75 54.046875 
z
M 13.875 23.1875 
Q 13.875 18.65625 15.796875 14.5 
Q 17.71875 10.359375 21.1875 8.171875 
Q 24.65625 6 28.46875 6 
Q 34.03125 6 38.03125 10.484375 
Q 42.046875 14.984375 42.046875 22.703125 
Q 42.046875 30.125 38.078125 34.390625 
Q 34.125 38.671875 28.125 38.671875 
Q 22.171875 38.671875 18.015625 34.390625 
Q 13.875 30.125 13.875 23.1875 
z
" id="ArialMT-54"/>
      </defs>
      <g style="fill:#262626;" transform="translate(596.36944 480.3065)scale(0.16 -0.16)">
       <use xlink:href="#ArialMT-49"/>
       <use x="55.615234" xlink:href="#ArialMT-48"/>
       <use x="111.230469" xlink:href="#ArialMT-48"/>
       <use x="166.845703" xlink:href="#ArialMT-49"/>
       <use x="222.460938" xlink:href="#ArialMT-45"/>
       <use x="255.761719" xlink:href="#ArialMT-49"/>
       <use x="311.376953" xlink:href="#ArialMT-53"/>
       <use x="366.992188" xlink:href="#ArialMT-54"/>
      </g>
     </g>
    </g>
    <g id="text_6">
     <!-- Counter id -->
     <defs>
      <path d="M 58.796875 25.09375 
L 68.265625 22.703125 
Q 65.28125 11.03125 57.546875 4.90625 
Q 49.8125 -1.21875 38.625 -1.21875 
Q 27.046875 -1.21875 19.796875 3.484375 
Q 12.546875 8.203125 8.765625 17.140625 
Q 4.984375 26.078125 4.984375 36.328125 
Q 4.984375 47.515625 9.25 55.828125 
Q 13.53125 64.15625 21.40625 68.46875 
Q 29.296875 72.796875 38.765625 72.796875 
Q 49.515625 72.796875 56.828125 67.328125 
Q 64.15625 61.859375 67.046875 51.953125 
L 57.71875 49.75 
Q 55.21875 57.5625 50.484375 61.125 
Q 45.75 64.703125 38.578125 64.703125 
Q 30.328125 64.703125 24.78125 60.734375 
Q 19.234375 56.78125 16.984375 50.109375 
Q 14.75 43.453125 14.75 36.375 
Q 14.75 27.25 17.40625 20.4375 
Q 20.0625 13.625 25.671875 10.25 
Q 31.296875 6.890625 37.84375 6.890625 
Q 45.796875 6.890625 51.3125 11.46875 
Q 56.84375 16.0625 58.796875 25.09375 
z
" id="ArialMT-67"/>
      <path d="M 3.328125 25.921875 
Q 3.328125 40.328125 11.328125 47.265625 
Q 18.015625 53.03125 27.640625 53.03125 
Q 38.328125 53.03125 45.109375 46.015625 
Q 51.90625 39.015625 51.90625 26.65625 
Q 51.90625 16.65625 48.90625 10.90625 
Q 45.90625 5.171875 40.15625 2 
Q 34.421875 -1.171875 27.640625 -1.171875 
Q 16.75 -1.171875 10.03125 5.8125 
Q 3.328125 12.796875 3.328125 25.921875 
z
M 12.359375 25.921875 
Q 12.359375 15.96875 16.703125 11.015625 
Q 21.046875 6.0625 27.640625 6.0625 
Q 34.1875 6.0625 38.53125 11.03125 
Q 42.875 16.015625 42.875 26.21875 
Q 42.875 35.84375 38.5 40.796875 
Q 34.125 45.75 27.640625 45.75 
Q 21.046875 45.75 16.703125 40.8125 
Q 12.359375 35.890625 12.359375 25.921875 
z
" id="ArialMT-111"/>
      <path d="M 40.578125 0 
L 40.578125 7.625 
Q 34.515625 -1.171875 24.125 -1.171875 
Q 19.53125 -1.171875 15.546875 0.578125 
Q 11.578125 2.34375 9.640625 5 
Q 7.71875 7.671875 6.9375 11.53125 
Q 6.390625 14.109375 6.390625 19.734375 
L 6.390625 51.859375 
L 15.1875 51.859375 
L 15.1875 23.09375 
Q 15.1875 16.21875 15.71875 13.8125 
Q 16.546875 10.359375 19.234375 8.375 
Q 21.921875 6.390625 25.875 6.390625 
Q 29.828125 6.390625 33.296875 8.421875 
Q 36.765625 10.453125 38.203125 13.9375 
Q 39.65625 17.4375 39.65625 24.078125 
L 39.65625 51.859375 
L 48.4375 51.859375 
L 48.4375 0 
z
" id="ArialMT-117"/>
      <path d="M 6.59375 0 
L 6.59375 51.859375 
L 14.5 51.859375 
L 14.5 44.484375 
Q 20.21875 53.03125 31 53.03125 
Q 35.6875 53.03125 39.625 51.34375 
Q 43.5625 49.65625 45.515625 46.921875 
Q 47.46875 44.1875 48.25 40.4375 
Q 48.734375 37.984375 48.734375 31.890625 
L 48.734375 0 
L 39.9375 0 
L 39.9375 31.546875 
Q 39.9375 36.921875 38.90625 39.578125 
Q 37.890625 42.234375 35.28125 43.8125 
Q 32.671875 45.40625 29.15625 45.40625 
Q 23.53125 45.40625 19.453125 41.84375 
Q 15.375 38.28125 15.375 28.328125 
L 15.375 0 
z
" id="ArialMT-110"/>
      <path d="M 25.78125 7.859375 
L 27.046875 0.09375 
Q 23.34375 -0.6875 20.40625 -0.6875 
Q 15.625 -0.6875 12.984375 0.828125 
Q 10.359375 2.34375 9.28125 4.8125 
Q 8.203125 7.28125 8.203125 15.1875 
L 8.203125 45.015625 
L 1.765625 45.015625 
L 1.765625 51.859375 
L 8.203125 51.859375 
L 8.203125 64.703125 
L 16.9375 69.96875 
L 16.9375 51.859375 
L 25.78125 51.859375 
L 25.78125 45.015625 
L 16.9375 45.015625 
L 16.9375 14.703125 
Q 16.9375 10.9375 17.40625 9.859375 
Q 17.875 8.796875 18.921875 8.15625 
Q 19.96875 7.515625 21.921875 7.515625 
Q 23.390625 7.515625 25.78125 7.859375 
z
" id="ArialMT-116"/>
      <path d="M 42.09375 16.703125 
L 51.171875 15.578125 
Q 49.03125 7.625 43.21875 3.21875 
Q 37.40625 -1.171875 28.375 -1.171875 
Q 17 -1.171875 10.328125 5.828125 
Q 3.65625 12.84375 3.65625 25.484375 
Q 3.65625 38.578125 10.390625 45.796875 
Q 17.140625 53.03125 27.875 53.03125 
Q 38.28125 53.03125 44.875 45.953125 
Q 51.46875 38.875 51.46875 26.03125 
Q 51.46875 25.25 51.421875 23.6875 
L 12.75 23.6875 
Q 13.234375 15.140625 17.578125 10.59375 
Q 21.921875 6.0625 28.421875 6.0625 
Q 33.25 6.0625 36.671875 8.59375 
Q 40.09375 11.140625 42.09375 16.703125 
z
M 13.234375 30.90625 
L 42.1875 30.90625 
Q 41.609375 37.453125 38.875 40.71875 
Q 34.671875 45.796875 27.984375 45.796875 
Q 21.921875 45.796875 17.796875 41.75 
Q 13.671875 37.703125 13.234375 30.90625 
z
" id="ArialMT-101"/>
      <path d="M 6.5 0 
L 6.5 51.859375 
L 14.40625 51.859375 
L 14.40625 44 
Q 17.4375 49.515625 20 51.265625 
Q 22.5625 53.03125 25.640625 53.03125 
Q 30.078125 53.03125 34.671875 50.203125 
L 31.640625 42.046875 
Q 28.421875 43.953125 25.203125 43.953125 
Q 22.3125 43.953125 20.015625 42.21875 
Q 17.71875 40.484375 16.75 37.40625 
Q 15.28125 32.71875 15.28125 27.15625 
L 15.28125 0 
z
" id="ArialMT-114"/>
      <path id="ArialMT-32"/>
      <path d="M 6.640625 61.46875 
L 6.640625 71.578125 
L 15.4375 71.578125 
L 15.4375 61.46875 
z
M 6.640625 0 
L 6.640625 51.859375 
L 15.4375 51.859375 
L 15.4375 0 
z
" id="ArialMT-105"/>
      <path d="M 40.234375 0 
L 40.234375 6.546875 
Q 35.296875 -1.171875 25.734375 -1.171875 
Q 19.53125 -1.171875 14.328125 2.25 
Q 9.125 5.671875 6.265625 11.796875 
Q 3.421875 17.921875 3.421875 25.875 
Q 3.421875 33.640625 6 39.96875 
Q 8.59375 46.296875 13.765625 49.65625 
Q 18.953125 53.03125 25.34375 53.03125 
Q 30.03125 53.03125 33.6875 51.046875 
Q 37.359375 49.078125 39.65625 45.90625 
L 39.65625 71.578125 
L 48.390625 71.578125 
L 48.390625 0 
z
M 12.453125 25.875 
Q 12.453125 15.921875 16.640625 10.984375 
Q 20.84375 6.0625 26.5625 6.0625 
Q 32.328125 6.0625 36.34375 10.765625 
Q 40.375 15.484375 40.375 25.140625 
Q 40.375 35.796875 36.265625 40.765625 
Q 32.171875 45.75 26.171875 45.75 
Q 20.3125 45.75 16.375 40.96875 
Q 12.453125 36.1875 12.453125 25.875 
z
" id="ArialMT-100"/>
     </defs>
     <g style="fill:#262626;" transform="translate(344.9183 498.939)scale(0.16 -0.16)">
      <use xlink:href="#ArialMT-67"/>
      <use x="72.216797" xlink:href="#ArialMT-111"/>
      <use x="127.832031" xlink:href="#ArialMT-117"/>
      <use x="183.447266" xlink:href="#ArialMT-110"/>
      <use x="239.0625" xlink:href="#ArialMT-116"/>
      <use x="266.845703" xlink:href="#ArialMT-101"/>
      <use x="322.460938" xlink:href="#ArialMT-114"/>
      <use x="355.761719" xlink:href="#ArialMT-32"/>
      <use x="383.544922" xlink:href="#ArialMT-105"/>
      <use x="405.761719" xlink:href="#ArialMT-100"/>
     </g>
    </g>
   </g>
   <g id="matplotlib.axis_2">
    <g id="ytick_1">
     <g id="text_7">
      <!-- 0 -->
      <g style="fill:#262626;" transform="translate(55.4925 411.469199)scale(0.16 -0.16)">
       <use xlink:href="#ArialMT-48"/>
      </g>
     </g>
    </g>
    <g id="ytick_2">
     <g id="text_8">
      <!-- 1000 -->
      <g style="fill:#262626;" transform="translate(28.8 328.61609)scale(0.16 -0.16)">
       <use xlink:href="#ArialMT-49"/>
       <use x="55.615234" xlink:href="#ArialMT-48"/>
       <use x="111.230469" xlink:href="#ArialMT-48"/>
       <use x="166.845703" xlink:href="#ArialMT-48"/>
      </g>
     </g>
    </g>
    <g id="ytick_3">
     <g id="text_9">
      <!-- 2000 -->
      <defs>
       <path d="M 50.34375 8.453125 
L 50.34375 0 
L 3.03125 0 
Q 2.9375 3.171875 4.046875 6.109375 
Q 5.859375 10.9375 9.828125 15.625 
Q 13.8125 20.3125 21.34375 26.46875 
Q 33.015625 36.03125 37.109375 41.625 
Q 41.21875 47.21875 41.21875 52.203125 
Q 41.21875 57.421875 37.46875 61 
Q 33.734375 64.59375 27.734375 64.59375 
Q 21.390625 64.59375 17.578125 60.78125 
Q 13.765625 56.984375 13.71875 50.25 
L 4.6875 51.171875 
Q 5.609375 61.28125 11.65625 66.578125 
Q 17.71875 71.875 27.9375 71.875 
Q 38.234375 71.875 44.234375 66.15625 
Q 50.25 60.453125 50.25 52 
Q 50.25 47.703125 48.484375 43.546875 
Q 46.734375 39.40625 42.65625 34.8125 
Q 38.578125 30.21875 29.109375 22.21875 
Q 21.1875 15.578125 18.9375 13.203125 
Q 16.703125 10.84375 15.234375 8.453125 
z
" id="ArialMT-50"/>
      </defs>
      <g style="fill:#262626;" transform="translate(28.8 245.762982)scale(0.16 -0.16)">
       <use xlink:href="#ArialMT-50"/>
       <use x="55.615234" xlink:href="#ArialMT-48"/>
       <use x="111.230469" xlink:href="#ArialMT-48"/>
       <use x="166.845703" xlink:href="#ArialMT-48"/>
      </g>
     </g>
    </g>
    <g id="ytick_4">
     <g id="text_10">
      <!-- 3000 -->
      <defs>
       <path d="M 4.203125 18.890625 
L 12.984375 20.0625 
Q 14.5 12.59375 18.140625 9.296875 
Q 21.78125 6 27 6 
Q 33.203125 6 37.46875 10.296875 
Q 41.75 14.59375 41.75 20.953125 
Q 41.75 27 37.796875 30.921875 
Q 33.84375 34.859375 27.734375 34.859375 
Q 25.25 34.859375 21.53125 33.890625 
L 22.515625 41.609375 
Q 23.390625 41.5 23.921875 41.5 
Q 29.546875 41.5 34.03125 44.421875 
Q 38.53125 47.359375 38.53125 53.46875 
Q 38.53125 58.296875 35.25 61.46875 
Q 31.984375 64.65625 26.8125 64.65625 
Q 21.6875 64.65625 18.265625 61.421875 
Q 14.84375 58.203125 13.875 51.765625 
L 5.078125 53.328125 
Q 6.6875 62.15625 12.390625 67.015625 
Q 18.109375 71.875 26.609375 71.875 
Q 32.46875 71.875 37.390625 69.359375 
Q 42.328125 66.84375 44.9375 62.5 
Q 47.5625 58.15625 47.5625 53.265625 
Q 47.5625 48.640625 45.0625 44.828125 
Q 42.578125 41.015625 37.703125 38.765625 
Q 44.046875 37.3125 47.5625 32.6875 
Q 51.078125 28.078125 51.078125 21.140625 
Q 51.078125 11.765625 44.234375 5.25 
Q 37.40625 -1.265625 26.953125 -1.265625 
Q 17.53125 -1.265625 11.296875 4.34375 
Q 5.078125 9.96875 4.203125 18.890625 
z
" id="ArialMT-51"/>
      </defs>
      <g style="fill:#262626;" transform="translate(28.8 162.909873)scale(0.16 -0.16)">
       <use xlink:href="#ArialMT-51"/>
       <use x="55.615234" xlink:href="#ArialMT-48"/>
       <use x="111.230469" xlink:href="#ArialMT-48"/>
       <use x="166.845703" xlink:href="#ArialMT-48"/>
      </g>
     </g>
    </g>
    <g id="ytick_5">
     <g id="text_11">
      <!-- 4000 -->
      <g style="fill:#262626;" transform="translate(28.8 80.056765)scale(0.16 -0.16)">
       <use xlink:href="#ArialMT-52"/>
       <use x="55.615234" xlink:href="#ArialMT-48"/>
       <use x="111.230469" xlink:href="#ArialMT-48"/>
       <use x="166.845703" xlink:href="#ArialMT-48"/>
      </g>
     </g>
    </g>
    <g id="text_12">
     <!-- Count [$h^{-1}$] -->
     <defs>
      <path d="M 6.78125 -19.875 
L 6.78125 71.578125 
L 26.171875 71.578125 
L 26.171875 64.3125 
L 15.578125 64.3125 
L 15.578125 -12.59375 
L 26.171875 -12.59375 
L 26.171875 -19.875 
z
" id="ArialMT-91"/>
      <path d="M 55.71875 33.015625 
L 49.3125 0 
L 40.28125 0 
L 46.6875 32.671875 
Q 47.125 34.96875 47.359375 36.71875 
Q 47.609375 38.484375 47.609375 39.5 
Q 47.609375 43.609375 45.015625 45.890625 
Q 42.4375 48.1875 37.796875 48.1875 
Q 30.5625 48.1875 25.265625 43.296875 
Q 19.96875 38.421875 18.40625 30.328125 
L 12.5 0 
L 3.515625 0 
L 18.3125 75.984375 
L 27.296875 75.984375 
L 21.484375 46.09375 
Q 24.90625 50.6875 30.21875 53.34375 
Q 35.546875 56 41.40625 56 
Q 48.640625 56 52.609375 52.09375 
Q 56.59375 48.1875 56.59375 41.109375 
Q 56.59375 39.359375 56.375 37.359375 
Q 56.15625 35.359375 55.71875 33.015625 
z
" id="DejaVuSans-Oblique-104"/>
      <path d="M 10.59375 35.5 
L 73.1875 35.5 
L 73.1875 27.203125 
L 10.59375 27.203125 
z
" id="DejaVuSans-8722"/>
      <path d="M 12.40625 8.296875 
L 28.515625 8.296875 
L 28.515625 63.921875 
L 10.984375 60.40625 
L 10.984375 69.390625 
L 28.421875 72.90625 
L 38.28125 72.90625 
L 38.28125 8.296875 
L 54.390625 8.296875 
L 54.390625 0 
L 12.40625 0 
z
" id="DejaVuSans-49"/>
      <path d="M 21.296875 -19.875 
L 1.90625 -19.875 
L 1.90625 -12.59375 
L 12.5 -12.59375 
L 12.5 64.3125 
L 1.90625 64.3125 
L 1.90625 71.578125 
L 21.296875 71.578125 
z
" id="ArialMT-93"/>
     </defs>
     <g style="fill:#262626;" transform="translate(21.6 276.687)rotate(-90)scale(0.16 -0.16)">
      <use transform="translate(0 0.684375)" xlink:href="#ArialMT-67"/>
      <use transform="translate(72.216797 0.684375)" xlink:href="#ArialMT-111"/>
      <use transform="translate(127.832031 0.684375)" xlink:href="#ArialMT-117"/>
      <use transform="translate(183.447266 0.684375)" xlink:href="#ArialMT-110"/>
      <use transform="translate(239.0625 0.684375)" xlink:href="#ArialMT-116"/>
      <use transform="translate(266.845703 0.684375)" xlink:href="#ArialMT-32"/>
      <use transform="translate(294.628906 0.684375)" xlink:href="#ArialMT-91"/>
      <use transform="translate(322.412109 0.684375)" xlink:href="#DejaVuSans-Oblique-104"/>
      <use transform="translate(393.238724 38.965625)scale(0.7)" xlink:href="#DejaVuSans-8722"/>
      <use transform="translate(451.891068 38.965625)scale(0.7)" xlink:href="#DejaVuSans-49"/>
      <use transform="translate(499.161576 0.684375)" xlink:href="#ArialMT-93"/>
     </g>
    </g>
   </g>
   <g id="PolyCollection_1">
    <defs>
     <path d="M 259.028849 -69.16461 
L 256.274111 -69.16461 
L 255.449715 -73.142112 
L 254.289374 -77.119615 
L 252.74579 -81.097118 
L 250.809393 -85.074621 
L 248.525987 -89.052123 
L 246.007027 -93.029626 
L 243.426892 -97.007129 
L 241.004161 -100.984632 
L 238.968501 -104.962135 
L 237.519747 -108.939637 
L 236.789197 -112.91714 
L 236.813428 -116.894643 
L 237.527752 -120.872146 
L 238.780773 -124.849648 
L 240.365583 -128.827151 
L 242.058986 -132.804654 
L 243.659062 -136.782157 
L 245.013266 -140.75966 
L 246.032999 -144.737162 
L 246.694539 -148.714665 
L 247.029233 -152.692168 
L 247.107243 -156.669671 
L 247.019139 -160.647173 
L 246.858719 -164.624676 
L 246.709237 -168.602179 
L 246.63413 -172.579682 
L 246.672496 -176.557185 
L 246.838932 -180.534687 
L 247.1268 -184.51219 
L 247.513627 -188.489693 
L 247.967161 -192.467196 
L 248.45078 -196.444698 
L 248.927444 -200.422201 
L 249.362091 -204.399704 
L 249.72301 -208.377207 
L 249.982984 -212.35471 
L 250.120889 -216.332212 
L 250.123859 -220.309715 
L 249.989532 -224.287218 
L 249.727452 -228.264721 
L 249.358758 -232.242223 
L 248.913715 -236.219726 
L 248.427427 -240.197229 
L 247.934686 -244.174732 
L 247.465312 -248.152235 
L 247.041187 -252.129737 
L 246.67561 -256.10724 
L 246.374893 -260.084743 
L 246.141378 -264.062246 
L 245.976724 -268.039748 
L 245.884325 -272.017251 
L 245.870148 -275.994754 
L 245.941871 -279.972257 
L 246.106806 -283.94976 
L 246.369437 -287.927262 
L 246.729468 -291.904765 
L 247.180977 -295.882268 
L 247.71287 -299.859771 
L 248.310356 -303.837273 
L 248.956886 -307.814776 
L 249.635929 -311.792279 
L 250.332127 -315.769782 
L 251.031665 -319.747285 
L 251.722022 -323.724787 
L 252.391467 -327.70229 
L 253.028717 -331.679793 
L 253.623061 -335.657296 
L 254.165008 -339.634798 
L 254.647296 -343.612301 
L 255.065923 -347.589804 
L 255.420826 -351.567307 
L 255.715948 -355.54481 
L 255.958614 -359.522312 
L 256.158331 -363.499815 
L 256.325293 -367.477318 
L 256.468906 -371.454821 
L 256.596639 -375.432323 
L 256.713395 -379.409826 
L 256.82146 -383.387329 
L 256.920971 -387.364832 
L 257.010746 -391.342335 
L 257.089253 -395.319837 
L 257.155488 -399.29734 
L 257.209577 -403.274843 
L 257.252969 -407.252346 
L 257.288241 -411.229848 
L 257.31857 -415.207351 
L 257.347068 -419.184854 
L 257.376159 -423.162357 
L 257.407169 -427.13986 
L 257.440216 -431.117362 
L 257.474394 -435.094865 
L 257.50816 -439.072368 
L 257.539812 -443.049871 
L 257.567892 -447.027373 
L 257.591462 -451.004876 
L 257.610189 -454.982379 
L 257.624286 -458.959882 
L 257.634345 -462.937384 
L 257.668615 -462.937384 
L 257.668615 -462.937384 
L 257.678674 -458.959882 
L 257.692771 -454.982379 
L 257.711498 -451.004876 
L 257.735068 -447.027373 
L 257.763148 -443.049871 
L 257.7948 -439.072368 
L 257.828566 -435.094865 
L 257.862744 -431.117362 
L 257.895791 -427.13986 
L 257.926801 -423.162357 
L 257.955892 -419.184854 
L 257.98439 -415.207351 
L 258.014719 -411.229848 
L 258.049991 -407.252346 
L 258.093383 -403.274843 
L 258.147472 -399.29734 
L 258.213707 -395.319837 
L 258.292214 -391.342335 
L 258.381989 -387.364832 
L 258.4815 -383.387329 
L 258.589565 -379.409826 
L 258.706321 -375.432323 
L 258.834054 -371.454821 
L 258.977667 -367.477318 
L 259.144629 -363.499815 
L 259.344346 -359.522312 
L 259.587012 -355.54481 
L 259.882134 -351.567307 
L 260.237037 -347.589804 
L 260.655664 -343.612301 
L 261.137952 -339.634798 
L 261.679899 -335.657296 
L 262.274243 -331.679793 
L 262.911493 -327.70229 
L 263.580938 -323.724787 
L 264.271295 -319.747285 
L 264.970833 -315.769782 
L 265.667031 -311.792279 
L 266.346074 -307.814776 
L 266.992604 -303.837273 
L 267.59009 -299.859771 
L 268.121983 -295.882268 
L 268.573492 -291.904765 
L 268.933523 -287.927262 
L 269.196154 -283.94976 
L 269.361089 -279.972257 
L 269.432812 -275.994754 
L 269.418635 -272.017251 
L 269.326236 -268.039748 
L 269.161582 -264.062246 
L 268.928067 -260.084743 
L 268.62735 -256.10724 
L 268.261773 -252.129737 
L 267.837648 -248.152235 
L 267.368274 -244.174732 
L 266.875533 -240.197229 
L 266.389245 -236.219726 
L 265.944202 -232.242223 
L 265.575508 -228.264721 
L 265.313428 -224.287218 
L 265.179101 -220.309715 
L 265.182071 -216.332212 
L 265.319976 -212.35471 
L 265.57995 -208.377207 
L 265.940869 -204.399704 
L 266.375516 -200.422201 
L 266.85218 -196.444698 
L 267.335799 -192.467196 
L 267.789333 -188.489693 
L 268.17616 -184.51219 
L 268.464028 -180.534687 
L 268.630464 -176.557185 
L 268.66883 -172.579682 
L 268.593723 -168.602179 
L 268.444241 -164.624676 
L 268.283821 -160.647173 
L 268.195717 -156.669671 
L 268.273727 -152.692168 
L 268.608421 -148.714665 
L 269.269961 -144.737162 
L 270.289694 -140.75966 
L 271.643898 -136.782157 
L 273.243974 -132.804654 
L 274.937377 -128.827151 
L 276.522187 -124.849648 
L 277.775208 -120.872146 
L 278.489532 -116.894643 
L 278.513763 -112.91714 
L 277.783213 -108.939637 
L 276.334459 -104.962135 
L 274.298799 -100.984632 
L 271.876068 -97.007129 
L 269.295933 -93.029626 
L 266.776973 -89.052123 
L 264.493567 -85.074621 
L 262.55717 -81.097118 
L 261.013586 -77.119615 
L 259.853245 -73.142112 
L 259.028849 -69.16461 
z
" id="m495552b546" style="stroke:#373737;stroke-width:1.5;"/>
    </defs>
    <g clip-path="url(#p7f7241e946)">
     <use style="fill:#be631d;stroke:#373737;stroke-width:1.5;" x="0" xlink:href="#m495552b546" y="509.319"/>
    </g>
   </g>
   <g id="PolyCollection_2">
    <defs>
     <path d="M 382.85172 -68.131091 
L 380.79988 -68.131091 
L 380.143969 -72.306059 
L 379.193278 -76.481027 
L 377.889988 -80.655994 
L 376.203034 -84.830962 
L 374.146249 -89.00593 
L 371.792225 -93.180898 
L 369.276077 -97.355866 
L 366.784824 -101.530834 
L 364.531842 -105.705802 
L 362.720719 -109.88077 
L 361.506968 -114.055737 
L 360.967774 -118.230705 
L 361.088183 -122.405673 
L 361.767494 -126.580641 
L 362.843671 -130.755609 
L 364.12864 -134.930577 
L 365.444965 -139.105545 
L 366.655103 -143.280512 
L 367.677628 -147.45548 
L 368.488981 -151.630448 
L 369.113093 -155.805416 
L 369.603651 -159.980384 
L 370.024486 -164.155352 
L 370.432814 -168.33032 
L 370.868299 -172.505287 
L 371.348851 -176.680255 
L 371.872213 -180.855223 
L 372.421167 -185.030191 
L 372.969837 -189.205159 
L 373.489065 -193.380127 
L 373.949814 -197.555095 
L 374.324708 -201.730062 
L 374.588644 -205.90503 
L 374.719662 -210.079998 
L 374.700914 -214.254966 
L 374.523805 -218.429934 
L 374.191604 -222.604902 
L 373.722257 -226.77987 
L 373.149172 -230.954837 
L 372.519145 -235.129805 
L 371.88746 -239.304773 
L 371.310992 -243.479741 
L 370.840735 -247.654709 
L 370.515335 -251.829677 
L 370.356856 -256.004645 
L 370.369452 -260.179612 
L 370.540837 -264.35458 
L 370.845951 -268.529548 
L 371.251894 -272.704516 
L 371.723167 -276.879484 
L 372.226444 -281.054452 
L 372.734277 -285.22942 
L 373.227408 -289.404388 
L 373.695517 -293.579355 
L 374.136475 -297.754323 
L 374.554364 -301.929291 
L 374.95672 -306.104259 
L 375.351602 -310.279227 
L 375.745093 -314.454195 
L 376.139746 -318.629163 
L 376.534189 -322.80413 
L 376.923842 -326.979098 
L 377.302341 -331.154066 
L 377.66317 -335.329034 
L 378.000977 -339.504002 
L 378.312268 -343.67897 
L 378.595471 -347.853938 
L 378.850567 -352.028905 
L 379.078622 -356.203873 
L 379.281478 -360.378841 
L 379.461679 -364.553809 
L 379.622524 -368.728777 
L 379.768034 -372.903745 
L 379.90266 -377.078713 
L 380.030712 -381.25368 
L 380.15563 -385.428648 
L 380.279357 -389.603616 
L 380.402058 -393.778584 
L 380.52233 -397.953552 
L 380.637864 -402.12852 
L 380.746367 -406.303488 
L 380.846435 -410.478455 
L 380.938088 -414.653423 
L 381.022789 -418.828391 
L 381.102943 -423.003359 
L 381.18108 -427.178327 
L 381.259007 -431.353295 
L 381.337239 -435.528263 
L 381.414865 -439.70323 
L 381.489861 -443.878198 
L 381.559699 -448.053166 
L 381.622019 -452.228134 
L 381.675155 -456.403102 
L 381.718401 -460.57807 
L 381.752002 -464.753038 
L 381.77694 -468.928006 
L 381.794638 -473.102973 
L 381.806658 -477.277941 
L 381.814478 -481.452909 
L 381.837122 -481.452909 
L 381.837122 -481.452909 
L 381.844942 -477.277941 
L 381.856962 -473.102973 
L 381.87466 -468.928006 
L 381.899598 -464.753038 
L 381.933199 -460.57807 
L 381.976445 -456.403102 
L 382.029581 -452.228134 
L 382.091901 -448.053166 
L 382.161739 -443.878198 
L 382.236735 -439.70323 
L 382.314361 -435.528263 
L 382.392593 -431.353295 
L 382.47052 -427.178327 
L 382.548657 -423.003359 
L 382.628811 -418.828391 
L 382.713512 -414.653423 
L 382.805165 -410.478455 
L 382.905233 -406.303488 
L 383.013736 -402.12852 
L 383.12927 -397.953552 
L 383.249542 -393.778584 
L 383.372243 -389.603616 
L 383.49597 -385.428648 
L 383.620888 -381.25368 
L 383.74894 -377.078713 
L 383.883566 -372.903745 
L 384.029076 -368.728777 
L 384.189921 -364.553809 
L 384.370122 -360.378841 
L 384.572978 -356.203873 
L 384.801033 -352.028905 
L 385.056129 -347.853938 
L 385.339332 -343.67897 
L 385.650623 -339.504002 
L 385.98843 -335.329034 
L 386.349259 -331.154066 
L 386.727758 -326.979098 
L 387.117411 -322.80413 
L 387.511854 -318.629163 
L 387.906507 -314.454195 
L 388.299998 -310.279227 
L 388.69488 -306.104259 
L 389.097236 -301.929291 
L 389.515125 -297.754323 
L 389.956083 -293.579355 
L 390.424192 -289.404388 
L 390.917323 -285.22942 
L 391.425156 -281.054452 
L 391.928433 -276.879484 
L 392.399706 -272.704516 
L 392.805649 -268.529548 
L 393.110763 -264.35458 
L 393.282148 -260.179612 
L 393.294744 -256.004645 
L 393.136265 -251.829677 
L 392.810865 -247.654709 
L 392.340608 -243.479741 
L 391.76414 -239.304773 
L 391.132455 -235.129805 
L 390.502428 -230.954837 
L 389.929343 -226.77987 
L 389.459996 -222.604902 
L 389.127795 -218.429934 
L 388.950686 -214.254966 
L 388.931938 -210.079998 
L 389.062956 -205.90503 
L 389.326892 -201.730062 
L 389.701786 -197.555095 
L 390.162535 -193.380127 
L 390.681763 -189.205159 
L 391.230433 -185.030191 
L 391.779387 -180.855223 
L 392.302749 -176.680255 
L 392.783301 -172.505287 
L 393.218786 -168.33032 
L 393.627114 -164.155352 
L 394.047949 -159.980384 
L 394.538507 -155.805416 
L 395.162619 -151.630448 
L 395.973972 -147.45548 
L 396.996497 -143.280512 
L 398.206635 -139.105545 
L 399.52296 -134.930577 
L 400.807929 -130.755609 
L 401.884106 -126.580641 
L 402.563417 -122.405673 
L 402.683826 -118.230705 
L 402.144632 -114.055737 
L 400.930881 -109.88077 
L 399.119758 -105.705802 
L 396.866776 -101.530834 
L 394.375523 -97.355866 
L 391.859375 -93.180898 
L 389.505351 -89.00593 
L 387.448566 -84.830962 
L 385.761612 -80.655994 
L 384.458322 -76.481027 
L 383.507631 -72.306059 
L 382.85172 -68.131091 
z
" id="m4159509bff" style="stroke:#373737;stroke-width:1.5;"/>
    </defs>
    <g clip-path="url(#p7f7241e946)">
     <use style="fill:#7c78ab;stroke:#373737;stroke-width:1.5;" x="0" xlink:href="#m4159509bff" y="509.319"/>
    </g>
   </g>
   <g id="PolyCollection_3">
    <defs>
     <path d="M 507.180209 -69.402962 
L 504.820031 -69.402962 
L 504.133147 -73.291959 
L 503.167616 -77.180957 
L 501.877762 -81.069954 
L 500.2428 -84.958952 
L 498.280795 -88.84795 
L 496.058859 -92.736947 
L 493.695494 -96.625945 
L 491.352211 -100.514942 
L 489.214091 -104.40394 
L 487.462174 -108.292937 
L 486.243386 -112.181935 
L 485.645017 -116.070933 
L 485.679963 -119.95993 
L 486.286209 -123.848928 
L 487.340331 -127.737925 
L 488.681285 -131.626923 
L 490.138622 -135.51592 
L 491.55887 -139.404918 
L 492.825127 -143.293916 
L 493.867131 -147.182913 
L 494.66154 -151.071911 
L 495.224199 -154.960908 
L 495.597398 -158.849906 
L 495.835574 -162.738903 
L 495.992505 -166.627901 
L 496.112192 -170.516899 
L 496.224369 -174.405896 
L 496.344383 -178.294894 
L 496.476199 -182.183891 
L 496.61677 -186.072889 
L 496.76005 -189.961886 
L 496.899468 -193.850884 
L 497.02852 -197.739882 
L 497.139923 -201.628879 
L 497.224362 -205.517877 
L 497.269917 -209.406874 
L 497.262938 -213.295872 
L 497.19046 -217.18487 
L 497.043589 -221.073867 
L 496.820836 -224.962865 
L 496.530266 -228.851862 
L 496.189712 -232.74086 
L 495.824829 -236.629857 
L 495.46547 -240.518855 
L 495.141278 -244.407853 
L 494.877581 -248.29685 
L 494.692493 -252.185848 
L 494.595701 -256.074845 
L 494.588944 -259.963843 
L 494.667757 -263.85284 
L 494.823801 -267.741838 
L 495.047096 -271.630836 
L 495.327608 -275.519833 
L 495.655942 -279.408831 
L 496.023205 -283.297828 
L 496.420382 -287.186826 
L 496.837728 -291.075823 
L 497.264637 -294.964821 
L 497.690273 -298.853819 
L 498.104888 -302.742816 
L 498.501474 -306.631814 
L 498.877158 -310.520811 
L 499.233778 -314.409809 
L 499.577322 -318.298806 
L 499.916273 -322.187804 
L 500.259301 -326.076802 
L 500.612942 -329.965799 
L 500.979899 -333.854797 
L 501.35838 -337.743794 
L 501.742535 -341.632792 
L 502.123759 -345.521789 
L 502.492415 -349.410787 
L 502.839531 -353.299785 
L 503.158128 -357.188782 
L 503.443999 -361.07778 
L 503.695922 -364.966777 
L 503.915409 -368.855775 
L 504.106103 -372.744772 
L 504.272994 -376.63377 
L 504.421572 -380.522768 
L 504.557061 -384.411765 
L 504.683836 -388.300763 
L 504.805079 -392.18976 
L 504.922707 -396.078758 
L 505.037511 -399.967756 
L 505.149418 -403.856753 
L 505.257792 -407.745751 
L 505.361681 -411.634748 
L 505.459987 -415.523746 
L 505.551573 -419.412743 
L 505.635343 -423.301741 
L 505.710321 -427.190739 
L 505.775761 -431.079736 
L 505.831261 -434.968734 
L 505.876849 -438.857731 
L 505.91301 -442.746729 
L 505.940642 -446.635726 
L 505.960942 -450.524724 
L 505.975257 -454.413722 
L 506.024983 -454.413722 
L 506.024983 -454.413722 
L 506.039298 -450.524724 
L 506.059598 -446.635726 
L 506.08723 -442.746729 
L 506.123391 -438.857731 
L 506.168979 -434.968734 
L 506.224479 -431.079736 
L 506.289919 -427.190739 
L 506.364897 -423.301741 
L 506.448667 -419.412743 
L 506.540253 -415.523746 
L 506.638559 -411.634748 
L 506.742448 -407.745751 
L 506.850822 -403.856753 
L 506.962729 -399.967756 
L 507.077533 -396.078758 
L 507.195161 -392.18976 
L 507.316404 -388.300763 
L 507.443179 -384.411765 
L 507.578668 -380.522768 
L 507.727246 -376.63377 
L 507.894137 -372.744772 
L 508.084831 -368.855775 
L 508.304318 -364.966777 
L 508.556241 -361.07778 
L 508.842112 -357.188782 
L 509.160709 -353.299785 
L 509.507825 -349.410787 
L 509.876481 -345.521789 
L 510.257705 -341.632792 
L 510.64186 -337.743794 
L 511.020341 -333.854797 
L 511.387298 -329.965799 
L 511.740939 -326.076802 
L 512.083967 -322.187804 
L 512.422918 -318.298806 
L 512.766462 -314.409809 
L 513.123082 -310.520811 
L 513.498766 -306.631814 
L 513.895352 -302.742816 
L 514.309967 -298.853819 
L 514.735603 -294.964821 
L 515.162512 -291.075823 
L 515.579858 -287.186826 
L 515.977035 -283.297828 
L 516.344298 -279.408831 
L 516.672632 -275.519833 
L 516.953144 -271.630836 
L 517.176439 -267.741838 
L 517.332483 -263.85284 
L 517.411296 -259.963843 
L 517.404539 -256.074845 
L 517.307747 -252.185848 
L 517.122659 -248.29685 
L 516.858962 -244.407853 
L 516.53477 -240.518855 
L 516.175411 -236.629857 
L 515.810528 -232.74086 
L 515.469974 -228.851862 
L 515.179404 -224.962865 
L 514.956651 -221.073867 
L 514.80978 -217.18487 
L 514.737302 -213.295872 
L 514.730323 -209.406874 
L 514.775878 -205.517877 
L 514.860317 -201.628879 
L 514.97172 -197.739882 
L 515.100772 -193.850884 
L 515.24019 -189.961886 
L 515.38347 -186.072889 
L 515.524041 -182.183891 
L 515.655857 -178.294894 
L 515.775871 -174.405896 
L 515.888048 -170.516899 
L 516.007735 -166.627901 
L 516.164666 -162.738903 
L 516.402842 -158.849906 
L 516.776041 -154.960908 
L 517.3387 -151.071911 
L 518.133109 -147.182913 
L 519.175113 -143.293916 
L 520.44137 -139.404918 
L 521.861618 -135.51592 
L 523.318955 -131.626923 
L 524.659909 -127.737925 
L 525.714031 -123.848928 
L 526.320277 -119.95993 
L 526.355223 -116.070933 
L 525.756854 -112.181935 
L 524.538066 -108.292937 
L 522.786149 -104.40394 
L 520.648029 -100.514942 
L 518.304746 -96.625945 
L 515.941381 -92.736947 
L 513.719445 -88.84795 
L 511.75744 -84.958952 
L 510.122478 -81.069954 
L 508.832624 -77.180957 
L 507.867093 -73.291959 
L 507.180209 -69.402962 
z
" id="m750a78bee1" style="stroke:#373737;stroke-width:1.5;"/>
    </defs>
    <g clip-path="url(#p7f7241e946)">
     <use style="fill:#cf418a;stroke:#373737;stroke-width:1.5;" x="0" xlink:href="#m750a78bee1" y="509.319"/>
    </g>
   </g>
   <g id="PolyCollection_4">
    <defs>
     <path d="M 632.322551 -92.000354 
L 628.026329 -92.000354 
L 626.345523 -93.497926 
L 623.757697 -94.995498 
L 620.057009 -96.493069 
L 615.153539 -97.990641 
L 609.155347 -99.488212 
L 602.42002 -100.985784 
L 595.543379 -102.483356 
L 589.270443 -103.980927 
L 584.343795 -105.478499 
L 581.333471 -106.97607 
L 580.504712 -108.473642 
L 581.767412 -109.971214 
L 584.719577 -111.468785 
L 588.762342 -112.966357 
L 593.242594 -114.463928 
L 597.578499 -115.9615 
L 601.339228 -117.459071 
L 604.272045 -118.956643 
L 606.287459 -120.454215 
L 607.421248 -121.951786 
L 607.791369 -123.449358 
L 607.561539 -124.946929 
L 606.915498 -126.444501 
L 606.039755 -127.942073 
L 605.109903 -129.439644 
L 604.276699 -130.937216 
L 603.651827 -132.434787 
L 603.297033 -133.932359 
L 603.221556 -135.429931 
L 603.390526 -136.927502 
L 603.742354 -138.425074 
L 604.208902 -139.922645 
L 604.730882 -141.420217 
L 605.26344 -142.917788 
L 605.77164 -144.41536 
L 606.220196 -145.912932 
L 606.563824 -147.410503 
L 606.743452 -148.908075 
L 606.690198 -150.405646 
L 606.33539 -151.903218 
L 605.622809 -153.40079 
L 604.519426 -154.898361 
L 603.022802 -156.395933 
L 601.165529 -157.893504 
L 599.018127 -159.391076 
L 596.690913 -160.888648 
L 594.333296 -162.386219 
L 592.127438 -163.883791 
L 590.273771 -165.381362 
L 588.968769 -166.878934 
L 588.378845 -168.376505 
L 588.616327 -169.874077 
L 589.722732 -171.371649 
L 591.661834 -172.86922 
L 594.322214 -174.366792 
L 597.527717 -175.864363 
L 601.05463 -177.361935 
L 604.655057 -178.859507 
L 608.08537 -180.357078 
L 611.13653 -181.85465 
L 613.660733 -183.352221 
L 615.588186 -184.849793 
L 616.92969 -186.347365 
L 617.764769 -187.844936 
L 618.219202 -189.342508 
L 618.438418 -190.840079 
L 618.563151 -192.337651 
L 618.711631 -193.835222 
L 618.969704 -195.332794 
L 619.3879 -196.830366 
L 619.98342 -198.327937 
L 620.745052 -199.825509 
L 621.639627 -201.32308 
L 622.619267 -202.820652 
L 623.628929 -204.318224 
L 624.613833 -205.815795 
L 625.526142 -207.313367 
L 626.330145 -208.810938 
L 627.005152 -210.30851 
L 627.545598 -211.806082 
L 627.95854 -213.303653 
L 628.259506 -214.801225 
L 628.468187 -216.298796 
L 628.605348 -217.796368 
L 628.691514 -219.293939 
L 628.746938 -220.791511 
L 628.791605 -222.289083 
L 628.84418 -223.786654 
L 628.919646 -225.284226 
L 629.026457 -226.781797 
L 629.164652 -228.279369 
L 629.326096 -229.776941 
L 629.497048 -231.274512 
L 629.662163 -232.772084 
L 629.808447 -234.269655 
L 629.927858 -235.767227 
L 630.01798 -237.264799 
L 630.081031 -238.76237 
L 630.122007 -240.259942 
L 630.226873 -240.259942 
L 630.226873 -240.259942 
L 630.267849 -238.76237 
L 630.3309 -237.264799 
L 630.421022 -235.767227 
L 630.540433 -234.269655 
L 630.686717 -232.772084 
L 630.851832 -231.274512 
L 631.022784 -229.776941 
L 631.184228 -228.279369 
L 631.322423 -226.781797 
L 631.429234 -225.284226 
L 631.5047 -223.786654 
L 631.557275 -222.289083 
L 631.601942 -220.791511 
L 631.657366 -219.293939 
L 631.743532 -217.796368 
L 631.880693 -216.298796 
L 632.089374 -214.801225 
L 632.39034 -213.303653 
L 632.803282 -211.806082 
L 633.343728 -210.30851 
L 634.018735 -208.810938 
L 634.822738 -207.313367 
L 635.735047 -205.815795 
L 636.719951 -204.318224 
L 637.729613 -202.820652 
L 638.709253 -201.32308 
L 639.603828 -199.825509 
L 640.36546 -198.327937 
L 640.96098 -196.830366 
L 641.379176 -195.332794 
L 641.637249 -193.835222 
L 641.785729 -192.337651 
L 641.910462 -190.840079 
L 642.129678 -189.342508 
L 642.584111 -187.844936 
L 643.41919 -186.347365 
L 644.760694 -184.849793 
L 646.688147 -183.352221 
L 649.21235 -181.85465 
L 652.26351 -180.357078 
L 655.693823 -178.859507 
L 659.29425 -177.361935 
L 662.821163 -175.864363 
L 666.026666 -174.366792 
L 668.687046 -172.86922 
L 670.626148 -171.371649 
L 671.732553 -169.874077 
L 671.970035 -168.376505 
L 671.380111 -166.878934 
L 670.075109 -165.381362 
L 668.221442 -163.883791 
L 666.015584 -162.386219 
L 663.657967 -160.888648 
L 661.330753 -159.391076 
L 659.183351 -157.893504 
L 657.326078 -156.395933 
L 655.829454 -154.898361 
L 654.726071 -153.40079 
L 654.01349 -151.903218 
L 653.658682 -150.405646 
L 653.605428 -148.908075 
L 653.785056 -147.410503 
L 654.128684 -145.912932 
L 654.57724 -144.41536 
L 655.08544 -142.917788 
L 655.617998 -141.420217 
L 656.139978 -139.922645 
L 656.606526 -138.425074 
L 656.958354 -136.927502 
L 657.127324 -135.429931 
L 657.051847 -133.932359 
L 656.697053 -132.434787 
L 656.072181 -130.937216 
L 655.238977 -129.439644 
L 654.309125 -127.942073 
L 653.433382 -126.444501 
L 652.787341 -124.946929 
L 652.557511 -123.449358 
L 652.927632 -121.951786 
L 654.061421 -120.454215 
L 656.076835 -118.956643 
L 659.009652 -117.459071 
L 662.770381 -115.9615 
L 667.106286 -114.463928 
L 671.586538 -112.966357 
L 675.629303 -111.468785 
L 678.581468 -109.971214 
L 679.844168 -108.473642 
L 679.015409 -106.97607 
L 676.005085 -105.478499 
L 671.078437 -103.980927 
L 664.805501 -102.483356 
L 657.92886 -100.985784 
L 651.193533 -99.488212 
L 645.195341 -97.990641 
L 640.291871 -96.493069 
L 636.591183 -94.995498 
L 634.003357 -93.497926 
L 632.322551 -92.000354 
z
" id="m8722367f57" style="stroke:#373737;stroke-width:1.5;"/>
    </defs>
    <g clip-path="url(#p7f7241e946)">
     <use style="fill:#65952f;stroke:#373737;stroke-width:1.5;" x="0" xlink:href="#m8722367f57" y="509.319"/>
    </g>
   </g>
   <g id="line2d_1">
    <path clip-path="url(#p7f7241e946)" d="M 83.807432 405.742949 
L 183.146888 405.742949 
" style="fill:none;stroke:#373737;stroke-linecap:round;stroke-width:1.5;"/>
   </g>
   <g id="line2d_2">
    <path clip-path="url(#p7f7241e946)" d="M 257.65148 403.920181 
L 257.65148 82.615825 
" style="fill:none;stroke:#373737;stroke-linecap:round;stroke-width:1.5;"/>
   </g>
   <g id="line2d_3">
    <path clip-path="url(#p7f7241e946)" d="M 257.65148 390.497977 
L 257.65148 241.507374 
" style="fill:none;stroke:#373737;stroke-linecap:round;stroke-width:4.5;"/>
   </g>
   <g id="line2d_4">
    <path clip-path="url(#p7f7241e946)" d="M 381.8258 403.588768 
L 381.8258 65.465232 
" style="fill:none;stroke:#373737;stroke-linecap:round;stroke-width:1.5;"/>
   </g>
   <g id="line2d_5">
    <path clip-path="url(#p7f7241e946)" d="M 381.8258 386.85244 
L 381.8258 247.493511 
" style="fill:none;stroke:#373737;stroke-linecap:round;stroke-width:4.5;"/>
   </g>
   <g id="line2d_6">
    <path clip-path="url(#p7f7241e946)" d="M 506.00012 403.008796 
L 506.00012 91.81252 
" style="fill:none;stroke:#373737;stroke-linecap:round;stroke-width:1.5;"/>
   </g>
   <g id="line2d_7">
    <path clip-path="url(#p7f7241e946)" d="M 506.00012 386.396748 
L 506.00012 243.019444 
" style="fill:none;stroke:#373737;stroke-linecap:round;stroke-width:4.5;"/>
   </g>
   <g id="line2d_8">
    <path clip-path="url(#p7f7241e946)" d="M 630.17444 405.742949 
L 630.17444 280.634755 
" style="fill:none;stroke:#373737;stroke-linecap:round;stroke-width:1.5;"/>
   </g>
   <g id="line2d_9">
    <path clip-path="url(#p7f7241e946)" d="M 630.17444 395.57273 
L 630.17444 340.288993 
" style="fill:none;stroke:#373737;stroke-linecap:round;stroke-width:4.5;"/>
   </g>
   <g id="patch_3">
    <path d="M 71.39 461.854 
L 71.39 7.2 
" style="fill:none;stroke:#262626;stroke-linecap:square;stroke-linejoin:miter;stroke-width:0.8;"/>
   </g>
   <g id="patch_4">
    <path d="M 71.39 461.854 
L 692.2616 461.854 
" style="fill:none;stroke:#262626;stroke-linecap:square;stroke-linejoin:miter;stroke-width:0.8;"/>
   </g>
   <g id="PathCollection_1">
    <defs>
     <path d="M 0 1.5 
C 0.397805 1.5 0.77937 1.341951 1.06066 1.06066 
C 1.341951 0.77937 1.5 0.397805 1.5 0 
C 1.5 -0.397805 1.341951 -0.77937 1.06066 -1.06066 
C 0.77937 -1.341951 0.397805 -1.5 0 -1.5 
C -0.397805 -1.5 -0.77937 -1.341951 -1.06066 -1.06066 
C -1.341951 -0.77937 -1.5 -0.397805 -1.5 0 
C -1.5 0.397805 -1.341951 0.77937 -1.06066 1.06066 
C -0.77937 1.341951 -0.397805 1.5 0 1.5 
z
" id="m458c84efcd" style="stroke:#373737;"/>
    </defs>
    <g clip-path="url(#p7f7241e946)">
     <use style="fill:#ffffff;stroke:#373737;" x="257.65148" xlink:href="#m458c84efcd" y="326.535377"/>
    </g>
   </g>
   <g id="PathCollection_2">
    <g clip-path="url(#p7f7241e946)">
     <use style="fill:#ffffff;stroke:#373737;" x="381.8258" xlink:href="#m458c84efcd" y="330.512326"/>
    </g>
   </g>
   <g id="PathCollection_3">
    <g clip-path="url(#p7f7241e946)">
     <use style="fill:#ffffff;stroke:#373737;" x="506.00012" xlink:href="#m458c84efcd" y="317.131549"/>
    </g>
   </g>
   <g id="PathCollection_4">
    <g clip-path="url(#p7f7241e946)">
     <use style="fill:#ffffff;stroke:#373737;" x="630.17444" xlink:href="#m458c84efcd" y="364.85494"/>
    </g>
   </g>
  </g>
 </g>
 <defs>
  <clipPath id="p7f7241e946">
   <rect height="454.654" width="620.8716" x="71.39" y="7.2"/>
  </clipPath>
 </defs>
</svg>
