<?xml version="1.0" encoding="utf-8" standalone="no"?>
<!DOCTYPE svg PUBLIC "-//W3C//DTD SVG 1.1//EN"
  "http://www.w3.org/Graphics/SVG/1.1/DTD/svg11.dtd">
<!-- Created with matplotlib (https://matplotlib.org/) -->
<svg height="540.169pt" version="1.1" viewBox="0 0 790.3655 540.169" width="790.3655pt" xmlns="http://www.w3.org/2000/svg" xmlns:xlink="http://www.w3.org/1999/xlink">
 <defs>
  <style type="text/css">
*{stroke-linecap:butt;stroke-linejoin:round;white-space:pre;}
  </style>
 </defs>
 <g id="figure_1">
  <g id="patch_1">
   <path d="M 0 540.169 
L 790.3655 540.169 
L 790.3655 0 
L 0 0 
z
" style="fill:#ffffff;"/>
  </g>
  <g id="axes_1">
   <g id="patch_2">
    <path d="M 71.8375 492.704 
L 637.817863 492.704 
L 637.817863 7.2 
L 71.8375 7.2 
z
" style="fill:#ffffff;"/>
   </g>
   <g id="matplotlib.axis_1">
    <g id="xtick_1">
     <g id="text_1">
      <!-- 1010 -->
      <defs>
       <path d="M 37.25 0 
L 28.46875 0 
L 28.46875 56 
Q 25.296875 52.984375 20.140625 49.953125 
Q 14.984375 46.921875 10.890625 45.40625 
L 10.890625 53.90625 
Q 18.265625 57.375 23.78125 62.296875 
Q 29.296875 67.234375 31.59375 71.875 
L 37.25 71.875 
z
" id="ArialMT-49"/>
       <path d="M 4.15625 35.296875 
Q 4.15625 48 6.765625 55.734375 
Q 9.375 63.484375 14.515625 67.671875 
Q 19.671875 71.875 27.484375 71.875 
Q 33.25 71.875 37.59375 69.546875 
Q 41.9375 67.234375 44.765625 62.859375 
Q 47.609375 58.5 49.21875 52.21875 
Q 50.828125 45.953125 50.828125 35.296875 
Q 50.828125 22.703125 48.234375 14.96875 
Q 45.65625 7.234375 40.5 3 
Q 35.359375 -1.21875 27.484375 -1.21875 
Q 17.140625 -1.21875 11.234375 6.203125 
Q 4.15625 15.140625 4.15625 35.296875 
z
M 13.1875 35.296875 
Q 13.1875 17.671875 17.3125 11.828125 
Q 21.4375 6 27.484375 6 
Q 33.546875 6 37.671875 11.859375 
Q 41.796875 17.71875 41.796875 35.296875 
Q 41.796875 52.984375 37.671875 58.78125 
Q 33.546875 64.59375 27.390625 64.59375 
Q 21.34375 64.59375 17.71875 59.46875 
Q 13.1875 52.9375 13.1875 35.296875 
z
" id="ArialMT-48"/>
      </defs>
      <g style="fill:#262626;" transform="translate(110.640536 511.1565)scale(0.16 -0.16)">
       <use xlink:href="#ArialMT-49"/>
       <use x="55.615234" xlink:href="#ArialMT-48"/>
       <use x="111.230469" xlink:href="#ArialMT-49"/>
       <use x="166.845703" xlink:href="#ArialMT-48"/>
      </g>
     </g>
    </g>
    <g id="xtick_2">
     <g id="text_2">
      <!-- 1010-1 -->
      <defs>
       <path d="M 3.171875 21.484375 
L 3.171875 30.328125 
L 30.171875 30.328125 
L 30.171875 21.484375 
z
" id="ArialMT-45"/>
      </defs>
      <g style="fill:#262626;" transform="translate(216.724109 511.1565)scale(0.16 -0.16)">
       <use xlink:href="#ArialMT-49"/>
       <use x="55.615234" xlink:href="#ArialMT-48"/>
       <use x="111.230469" xlink:href="#ArialMT-49"/>
       <use x="166.845703" xlink:href="#ArialMT-48"/>
       <use x="222.460938" xlink:href="#ArialMT-45"/>
       <use x="255.761719" xlink:href="#ArialMT-49"/>
      </g>
     </g>
    </g>
    <g id="xtick_3">
     <g id="text_3">
      <!-- 1014-150 -->
      <defs>
       <path d="M 32.328125 0 
L 32.328125 17.140625 
L 1.265625 17.140625 
L 1.265625 25.203125 
L 33.9375 71.578125 
L 41.109375 71.578125 
L 41.109375 25.203125 
L 50.78125 25.203125 
L 50.78125 17.140625 
L 41.109375 17.140625 
L 41.109375 0 
z
M 32.328125 25.203125 
L 32.328125 57.46875 
L 9.90625 25.203125 
z
" id="ArialMT-52"/>
       <path d="M 4.15625 18.75 
L 13.375 19.53125 
Q 14.40625 12.796875 18.140625 9.390625 
Q 21.875 6 27.15625 6 
Q 33.5 6 37.890625 10.78125 
Q 42.28125 15.578125 42.28125 23.484375 
Q 42.28125 31 38.0625 35.34375 
Q 33.84375 39.703125 27 39.703125 
Q 22.75 39.703125 19.328125 37.765625 
Q 15.921875 35.84375 13.96875 32.765625 
L 5.71875 33.84375 
L 12.640625 70.609375 
L 48.25 70.609375 
L 48.25 62.203125 
L 19.671875 62.203125 
L 15.828125 42.96875 
Q 22.265625 47.46875 29.34375 47.46875 
Q 38.71875 47.46875 45.15625 40.96875 
Q 51.609375 34.46875 51.609375 24.265625 
Q 51.609375 14.546875 45.953125 7.46875 
Q 39.0625 -1.21875 27.15625 -1.21875 
Q 17.390625 -1.21875 11.203125 4.25 
Q 5.03125 9.71875 4.15625 18.75 
z
" id="ArialMT-53"/>
      </defs>
      <g style="fill:#262626;" transform="translate(321.022681 511.1565)scale(0.16 -0.16)">
       <use xlink:href="#ArialMT-49"/>
       <use x="55.615234" xlink:href="#ArialMT-48"/>
       <use x="111.230469" xlink:href="#ArialMT-49"/>
       <use x="166.845703" xlink:href="#ArialMT-52"/>
       <use x="222.460938" xlink:href="#ArialMT-45"/>
       <use x="255.761719" xlink:href="#ArialMT-49"/>
       <use x="311.376953" xlink:href="#ArialMT-53"/>
       <use x="366.992188" xlink:href="#ArialMT-48"/>
      </g>
     </g>
    </g>
    <g id="xtick_4">
     <g id="text_4">
      <!-- 1016-140 -->
      <defs>
       <path d="M 49.75 54.046875 
L 41.015625 53.375 
Q 39.84375 58.546875 37.703125 60.890625 
Q 34.125 64.65625 28.90625 64.65625 
Q 24.703125 64.65625 21.53125 62.3125 
Q 17.390625 59.28125 14.984375 53.46875 
Q 12.59375 47.65625 12.5 36.921875 
Q 15.671875 41.75 20.265625 44.09375 
Q 24.859375 46.4375 29.890625 46.4375 
Q 38.671875 46.4375 44.84375 39.96875 
Q 51.03125 33.5 51.03125 23.25 
Q 51.03125 16.5 48.125 10.71875 
Q 45.21875 4.9375 40.140625 1.859375 
Q 35.0625 -1.21875 28.609375 -1.21875 
Q 17.625 -1.21875 10.6875 6.859375 
Q 3.765625 14.9375 3.765625 33.5 
Q 3.765625 54.25 11.421875 63.671875 
Q 18.109375 71.875 29.4375 71.875 
Q 37.890625 71.875 43.28125 67.140625 
Q 48.6875 62.40625 49.75 54.046875 
z
M 13.875 23.1875 
Q 13.875 18.65625 15.796875 14.5 
Q 17.71875 10.359375 21.1875 8.171875 
Q 24.65625 6 28.46875 6 
Q 34.03125 6 38.03125 10.484375 
Q 42.046875 14.984375 42.046875 22.703125 
Q 42.046875 30.125 38.078125 34.390625 
Q 34.125 38.671875 28.125 38.671875 
Q 22.171875 38.671875 18.015625 34.390625 
Q 13.875 30.125 13.875 23.1875 
z
" id="ArialMT-54"/>
      </defs>
      <g style="fill:#262626;" transform="translate(434.218754 511.1565)scale(0.16 -0.16)">
       <use xlink:href="#ArialMT-49"/>
       <use x="55.615234" xlink:href="#ArialMT-48"/>
       <use x="111.230469" xlink:href="#ArialMT-49"/>
       <use x="166.845703" xlink:href="#ArialMT-54"/>
       <use x="222.460938" xlink:href="#ArialMT-45"/>
       <use x="255.761719" xlink:href="#ArialMT-49"/>
       <use x="311.376953" xlink:href="#ArialMT-52"/>
       <use x="366.992188" xlink:href="#ArialMT-48"/>
      </g>
     </g>
    </g>
    <g id="xtick_5">
     <g id="text_5">
      <!-- 1021-156 -->
      <defs>
       <path d="M 50.34375 8.453125 
L 50.34375 0 
L 3.03125 0 
Q 2.9375 3.171875 4.046875 6.109375 
Q 5.859375 10.9375 9.828125 15.625 
Q 13.8125 20.3125 21.34375 26.46875 
Q 33.015625 36.03125 37.109375 41.625 
Q 41.21875 47.21875 41.21875 52.203125 
Q 41.21875 57.421875 37.46875 61 
Q 33.734375 64.59375 27.734375 64.59375 
Q 21.390625 64.59375 17.578125 60.78125 
Q 13.765625 56.984375 13.71875 50.25 
L 4.6875 51.171875 
Q 5.609375 61.28125 11.65625 66.578125 
Q 17.71875 71.875 27.9375 71.875 
Q 38.234375 71.875 44.234375 66.15625 
Q 50.25 60.453125 50.25 52 
Q 50.25 47.703125 48.484375 43.546875 
Q 46.734375 39.40625 42.65625 34.8125 
Q 38.578125 30.21875 29.109375 22.21875 
Q 21.1875 15.578125 18.9375 13.203125 
Q 16.703125 10.84375 15.234375 8.453125 
z
" id="ArialMT-50"/>
      </defs>
      <g style="fill:#262626;" transform="translate(547.414827 511.1565)scale(0.16 -0.16)">
       <use xlink:href="#ArialMT-49"/>
       <use x="55.615234" xlink:href="#ArialMT-48"/>
       <use x="111.230469" xlink:href="#ArialMT-50"/>
       <use x="166.845703" xlink:href="#ArialMT-49"/>
       <use x="222.460938" xlink:href="#ArialMT-45"/>
       <use x="255.761719" xlink:href="#ArialMT-49"/>
       <use x="311.376953" xlink:href="#ArialMT-53"/>
       <use x="366.992188" xlink:href="#ArialMT-54"/>
      </g>
     </g>
    </g>
    <g id="text_6">
     <!-- Counter id -->
     <defs>
      <path d="M 58.796875 25.09375 
L 68.265625 22.703125 
Q 65.28125 11.03125 57.546875 4.90625 
Q 49.8125 -1.21875 38.625 -1.21875 
Q 27.046875 -1.21875 19.796875 3.484375 
Q 12.546875 8.203125 8.765625 17.140625 
Q 4.984375 26.078125 4.984375 36.328125 
Q 4.984375 47.515625 9.25 55.828125 
Q 13.53125 64.15625 21.40625 68.46875 
Q 29.296875 72.796875 38.765625 72.796875 
Q 49.515625 72.796875 56.828125 67.328125 
Q 64.15625 61.859375 67.046875 51.953125 
L 57.71875 49.75 
Q 55.21875 57.5625 50.484375 61.125 
Q 45.75 64.703125 38.578125 64.703125 
Q 30.328125 64.703125 24.78125 60.734375 
Q 19.234375 56.78125 16.984375 50.109375 
Q 14.75 43.453125 14.75 36.375 
Q 14.75 27.25 17.40625 20.4375 
Q 20.0625 13.625 25.671875 10.25 
Q 31.296875 6.890625 37.84375 6.890625 
Q 45.796875 6.890625 51.3125 11.46875 
Q 56.84375 16.0625 58.796875 25.09375 
z
" id="ArialMT-67"/>
      <path d="M 3.328125 25.921875 
Q 3.328125 40.328125 11.328125 47.265625 
Q 18.015625 53.03125 27.640625 53.03125 
Q 38.328125 53.03125 45.109375 46.015625 
Q 51.90625 39.015625 51.90625 26.65625 
Q 51.90625 16.65625 48.90625 10.90625 
Q 45.90625 5.171875 40.15625 2 
Q 34.421875 -1.171875 27.640625 -1.171875 
Q 16.75 -1.171875 10.03125 5.8125 
Q 3.328125 12.796875 3.328125 25.921875 
z
M 12.359375 25.921875 
Q 12.359375 15.96875 16.703125 11.015625 
Q 21.046875 6.0625 27.640625 6.0625 
Q 34.1875 6.0625 38.53125 11.03125 
Q 42.875 16.015625 42.875 26.21875 
Q 42.875 35.84375 38.5 40.796875 
Q 34.125 45.75 27.640625 45.75 
Q 21.046875 45.75 16.703125 40.8125 
Q 12.359375 35.890625 12.359375 25.921875 
z
" id="ArialMT-111"/>
      <path d="M 40.578125 0 
L 40.578125 7.625 
Q 34.515625 -1.171875 24.125 -1.171875 
Q 19.53125 -1.171875 15.546875 0.578125 
Q 11.578125 2.34375 9.640625 5 
Q 7.71875 7.671875 6.9375 11.53125 
Q 6.390625 14.109375 6.390625 19.734375 
L 6.390625 51.859375 
L 15.1875 51.859375 
L 15.1875 23.09375 
Q 15.1875 16.21875 15.71875 13.8125 
Q 16.546875 10.359375 19.234375 8.375 
Q 21.921875 6.390625 25.875 6.390625 
Q 29.828125 6.390625 33.296875 8.421875 
Q 36.765625 10.453125 38.203125 13.9375 
Q 39.65625 17.4375 39.65625 24.078125 
L 39.65625 51.859375 
L 48.4375 51.859375 
L 48.4375 0 
z
" id="ArialMT-117"/>
      <path d="M 6.59375 0 
L 6.59375 51.859375 
L 14.5 51.859375 
L 14.5 44.484375 
Q 20.21875 53.03125 31 53.03125 
Q 35.6875 53.03125 39.625 51.34375 
Q 43.5625 49.65625 45.515625 46.921875 
Q 47.46875 44.1875 48.25 40.4375 
Q 48.734375 37.984375 48.734375 31.890625 
L 48.734375 0 
L 39.9375 0 
L 39.9375 31.546875 
Q 39.9375 36.921875 38.90625 39.578125 
Q 37.890625 42.234375 35.28125 43.8125 
Q 32.671875 45.40625 29.15625 45.40625 
Q 23.53125 45.40625 19.453125 41.84375 
Q 15.375 38.28125 15.375 28.328125 
L 15.375 0 
z
" id="ArialMT-110"/>
      <path d="M 25.78125 7.859375 
L 27.046875 0.09375 
Q 23.34375 -0.6875 20.40625 -0.6875 
Q 15.625 -0.6875 12.984375 0.828125 
Q 10.359375 2.34375 9.28125 4.8125 
Q 8.203125 7.28125 8.203125 15.1875 
L 8.203125 45.015625 
L 1.765625 45.015625 
L 1.765625 51.859375 
L 8.203125 51.859375 
L 8.203125 64.703125 
L 16.9375 69.96875 
L 16.9375 51.859375 
L 25.78125 51.859375 
L 25.78125 45.015625 
L 16.9375 45.015625 
L 16.9375 14.703125 
Q 16.9375 10.9375 17.40625 9.859375 
Q 17.875 8.796875 18.921875 8.15625 
Q 19.96875 7.515625 21.921875 7.515625 
Q 23.390625 7.515625 25.78125 7.859375 
z
" id="ArialMT-116"/>
      <path d="M 42.09375 16.703125 
L 51.171875 15.578125 
Q 49.03125 7.625 43.21875 3.21875 
Q 37.40625 -1.171875 28.375 -1.171875 
Q 17 -1.171875 10.328125 5.828125 
Q 3.65625 12.84375 3.65625 25.484375 
Q 3.65625 38.578125 10.390625 45.796875 
Q 17.140625 53.03125 27.875 53.03125 
Q 38.28125 53.03125 44.875 45.953125 
Q 51.46875 38.875 51.46875 26.03125 
Q 51.46875 25.25 51.421875 23.6875 
L 12.75 23.6875 
Q 13.234375 15.140625 17.578125 10.59375 
Q 21.921875 6.0625 28.421875 6.0625 
Q 33.25 6.0625 36.671875 8.59375 
Q 40.09375 11.140625 42.09375 16.703125 
z
M 13.234375 30.90625 
L 42.1875 30.90625 
Q 41.609375 37.453125 38.875 40.71875 
Q 34.671875 45.796875 27.984375 45.796875 
Q 21.921875 45.796875 17.796875 41.75 
Q 13.671875 37.703125 13.234375 30.90625 
z
" id="ArialMT-101"/>
      <path d="M 6.5 0 
L 6.5 51.859375 
L 14.40625 51.859375 
L 14.40625 44 
Q 17.4375 49.515625 20 51.265625 
Q 22.5625 53.03125 25.640625 53.03125 
Q 30.078125 53.03125 34.671875 50.203125 
L 31.640625 42.046875 
Q 28.421875 43.953125 25.203125 43.953125 
Q 22.3125 43.953125 20.015625 42.21875 
Q 17.71875 40.484375 16.75 37.40625 
Q 15.28125 32.71875 15.28125 27.15625 
L 15.28125 0 
z
" id="ArialMT-114"/>
      <path id="ArialMT-32"/>
      <path d="M 6.640625 61.46875 
L 6.640625 71.578125 
L 15.4375 71.578125 
L 15.4375 61.46875 
z
M 6.640625 0 
L 6.640625 51.859375 
L 15.4375 51.859375 
L 15.4375 0 
z
" id="ArialMT-105"/>
      <path d="M 40.234375 0 
L 40.234375 6.546875 
Q 35.296875 -1.171875 25.734375 -1.171875 
Q 19.53125 -1.171875 14.328125 2.25 
Q 9.125 5.671875 6.265625 11.796875 
Q 3.421875 17.921875 3.421875 25.875 
Q 3.421875 33.640625 6 39.96875 
Q 8.59375 46.296875 13.765625 49.65625 
Q 18.953125 53.03125 25.34375 53.03125 
Q 30.03125 53.03125 33.6875 51.046875 
Q 37.359375 49.078125 39.65625 45.90625 
L 39.65625 71.578125 
L 48.390625 71.578125 
L 48.390625 0 
z
M 12.453125 25.875 
Q 12.453125 15.921875 16.640625 10.984375 
Q 20.84375 6.0625 26.5625 6.0625 
Q 32.328125 6.0625 36.34375 10.765625 
Q 40.375 15.484375 40.375 25.140625 
Q 40.375 35.796875 36.265625 40.765625 
Q 32.171875 45.75 26.171875 45.75 
Q 20.3125 45.75 16.375 40.96875 
Q 12.453125 36.1875 12.453125 25.875 
z
" id="ArialMT-100"/>
     </defs>
     <g style="fill:#262626;" transform="translate(317.920181 529.789)scale(0.16 -0.16)">
      <use xlink:href="#ArialMT-67"/>
      <use x="72.216797" xlink:href="#ArialMT-111"/>
      <use x="127.832031" xlink:href="#ArialMT-117"/>
      <use x="183.447266" xlink:href="#ArialMT-110"/>
      <use x="239.0625" xlink:href="#ArialMT-116"/>
      <use x="266.845703" xlink:href="#ArialMT-101"/>
      <use x="322.460938" xlink:href="#ArialMT-114"/>
      <use x="355.761719" xlink:href="#ArialMT-32"/>
      <use x="383.544922" xlink:href="#ArialMT-105"/>
      <use x="405.761719" xlink:href="#ArialMT-100"/>
     </g>
    </g>
   </g>
   <g id="matplotlib.axis_2">
    <g id="ytick_1">
     <g id="text_7">
      <!-- −500 -->
      <defs>
       <path d="M 52.828125 31.203125 
L 5.5625 31.203125 
L 5.5625 39.40625 
L 52.828125 39.40625 
z
" id="ArialMT-8722"/>
      </defs>
      <g style="fill:#262626;" transform="translate(28.8 495.421359)scale(0.16 -0.16)">
       <use xlink:href="#ArialMT-8722"/>
       <use x="58.398438" xlink:href="#ArialMT-53"/>
       <use x="114.013672" xlink:href="#ArialMT-48"/>
       <use x="169.628906" xlink:href="#ArialMT-48"/>
      </g>
     </g>
    </g>
    <g id="ytick_2">
     <g id="text_8">
      <!-- 0 -->
      <g style="fill:#262626;" transform="translate(55.94 433.673137)scale(0.16 -0.16)">
       <use xlink:href="#ArialMT-48"/>
      </g>
     </g>
    </g>
    <g id="ytick_3">
     <g id="text_9">
      <!-- 500 -->
      <g style="fill:#262626;" transform="translate(38.145 371.924916)scale(0.16 -0.16)">
       <use xlink:href="#ArialMT-53"/>
       <use x="55.615234" xlink:href="#ArialMT-48"/>
       <use x="111.230469" xlink:href="#ArialMT-48"/>
      </g>
     </g>
    </g>
    <g id="ytick_4">
     <g id="text_10">
      <!-- 1000 -->
      <g style="fill:#262626;" transform="translate(29.2475 310.176694)scale(0.16 -0.16)">
       <use xlink:href="#ArialMT-49"/>
       <use x="55.615234" xlink:href="#ArialMT-48"/>
       <use x="111.230469" xlink:href="#ArialMT-48"/>
       <use x="166.845703" xlink:href="#ArialMT-48"/>
      </g>
     </g>
    </g>
    <g id="ytick_5">
     <g id="text_11">
      <!-- 1500 -->
      <g style="fill:#262626;" transform="translate(29.2475 248.428473)scale(0.16 -0.16)">
       <use xlink:href="#ArialMT-49"/>
       <use x="55.615234" xlink:href="#ArialMT-53"/>
       <use x="111.230469" xlink:href="#ArialMT-48"/>
       <use x="166.845703" xlink:href="#ArialMT-48"/>
      </g>
     </g>
    </g>
    <g id="ytick_6">
     <g id="text_12">
      <!-- 2000 -->
      <g style="fill:#262626;" transform="translate(29.2475 186.680251)scale(0.16 -0.16)">
       <use xlink:href="#ArialMT-50"/>
       <use x="55.615234" xlink:href="#ArialMT-48"/>
       <use x="111.230469" xlink:href="#ArialMT-48"/>
       <use x="166.845703" xlink:href="#ArialMT-48"/>
      </g>
     </g>
    </g>
    <g id="ytick_7">
     <g id="text_13">
      <!-- 2500 -->
      <g style="fill:#262626;" transform="translate(29.2475 124.93203)scale(0.16 -0.16)">
       <use xlink:href="#ArialMT-50"/>
       <use x="55.615234" xlink:href="#ArialMT-53"/>
       <use x="111.230469" xlink:href="#ArialMT-48"/>
       <use x="166.845703" xlink:href="#ArialMT-48"/>
      </g>
     </g>
    </g>
    <g id="ytick_8">
     <g id="text_14">
      <!-- 3000 -->
      <defs>
       <path d="M 4.203125 18.890625 
L 12.984375 20.0625 
Q 14.5 12.59375 18.140625 9.296875 
Q 21.78125 6 27 6 
Q 33.203125 6 37.46875 10.296875 
Q 41.75 14.59375 41.75 20.953125 
Q 41.75 27 37.796875 30.921875 
Q 33.84375 34.859375 27.734375 34.859375 
Q 25.25 34.859375 21.53125 33.890625 
L 22.515625 41.609375 
Q 23.390625 41.5 23.921875 41.5 
Q 29.546875 41.5 34.03125 44.421875 
Q 38.53125 47.359375 38.53125 53.46875 
Q 38.53125 58.296875 35.25 61.46875 
Q 31.984375 64.65625 26.8125 64.65625 
Q 21.6875 64.65625 18.265625 61.421875 
Q 14.84375 58.203125 13.875 51.765625 
L 5.078125 53.328125 
Q 6.6875 62.15625 12.390625 67.015625 
Q 18.109375 71.875 26.609375 71.875 
Q 32.46875 71.875 37.390625 69.359375 
Q 42.328125 66.84375 44.9375 62.5 
Q 47.5625 58.15625 47.5625 53.265625 
Q 47.5625 48.640625 45.0625 44.828125 
Q 42.578125 41.015625 37.703125 38.765625 
Q 44.046875 37.3125 47.5625 32.6875 
Q 51.078125 28.078125 51.078125 21.140625 
Q 51.078125 11.765625 44.234375 5.25 
Q 37.40625 -1.265625 26.953125 -1.265625 
Q 17.53125 -1.265625 11.296875 4.34375 
Q 5.078125 9.96875 4.203125 18.890625 
z
" id="ArialMT-51"/>
      </defs>
      <g style="fill:#262626;" transform="translate(29.2475 63.183808)scale(0.16 -0.16)">
       <use xlink:href="#ArialMT-51"/>
       <use x="55.615234" xlink:href="#ArialMT-48"/>
       <use x="111.230469" xlink:href="#ArialMT-48"/>
       <use x="166.845703" xlink:href="#ArialMT-48"/>
      </g>
     </g>
    </g>
    <g id="text_15">
     <!-- Count [$h^{-1}$] -->
     <defs>
      <path d="M 6.78125 -19.875 
L 6.78125 71.578125 
L 26.171875 71.578125 
L 26.171875 64.3125 
L 15.578125 64.3125 
L 15.578125 -12.59375 
L 26.171875 -12.59375 
L 26.171875 -19.875 
z
" id="ArialMT-91"/>
      <path d="M 55.71875 33.015625 
L 49.3125 0 
L 40.28125 0 
L 46.6875 32.671875 
Q 47.125 34.96875 47.359375 36.71875 
Q 47.609375 38.484375 47.609375 39.5 
Q 47.609375 43.609375 45.015625 45.890625 
Q 42.4375 48.1875 37.796875 48.1875 
Q 30.5625 48.1875 25.265625 43.296875 
Q 19.96875 38.421875 18.40625 30.328125 
L 12.5 0 
L 3.515625 0 
L 18.3125 75.984375 
L 27.296875 75.984375 
L 21.484375 46.09375 
Q 24.90625 50.6875 30.21875 53.34375 
Q 35.546875 56 41.40625 56 
Q 48.640625 56 52.609375 52.09375 
Q 56.59375 48.1875 56.59375 41.109375 
Q 56.59375 39.359375 56.375 37.359375 
Q 56.15625 35.359375 55.71875 33.015625 
z
" id="DejaVuSans-Oblique-104"/>
      <path d="M 10.59375 35.5 
L 73.1875 35.5 
L 73.1875 27.203125 
L 10.59375 27.203125 
z
" id="DejaVuSans-8722"/>
      <path d="M 12.40625 8.296875 
L 28.515625 8.296875 
L 28.515625 63.921875 
L 10.984375 60.40625 
L 10.984375 69.390625 
L 28.421875 72.90625 
L 38.28125 72.90625 
L 38.28125 8.296875 
L 54.390625 8.296875 
L 54.390625 0 
L 12.40625 0 
z
" id="DejaVuSans-49"/>
      <path d="M 21.296875 -19.875 
L 1.90625 -19.875 
L 1.90625 -12.59375 
L 12.5 -12.59375 
L 12.5 64.3125 
L 1.90625 64.3125 
L 1.90625 71.578125 
L 21.296875 71.578125 
z
" id="ArialMT-93"/>
     </defs>
     <g style="fill:#262626;" transform="translate(21.6 292.112)rotate(-90)scale(0.16 -0.16)">
      <use transform="translate(0 0.684375)" xlink:href="#ArialMT-67"/>
      <use transform="translate(72.216797 0.684375)" xlink:href="#ArialMT-111"/>
      <use transform="translate(127.832031 0.684375)" xlink:href="#ArialMT-117"/>
      <use transform="translate(183.447266 0.684375)" xlink:href="#ArialMT-110"/>
      <use transform="translate(239.0625 0.684375)" xlink:href="#ArialMT-116"/>
      <use transform="translate(266.845703 0.684375)" xlink:href="#ArialMT-32"/>
      <use transform="translate(294.628906 0.684375)" xlink:href="#ArialMT-91"/>
      <use transform="translate(322.412109 0.684375)" xlink:href="#DejaVuSans-Oblique-104"/>
      <use transform="translate(393.238724 38.965625)scale(0.7)" xlink:href="#DejaVuSans-8722"/>
      <use transform="translate(451.891068 38.965625)scale(0.7)" xlink:href="#DejaVuSans-49"/>
      <use transform="translate(499.161576 0.684375)" xlink:href="#ArialMT-93"/>
     </g>
    </g>
   </g>
   <g id="PolyCollection_1">
    <defs>
     <path d="M 107.031287 -90.422356 
L 104.561356 -90.422356 
L 103.913254 -92.625386 
L 103.022249 -94.828416 
L 101.847188 -97.031446 
L 100.362257 -99.234476 
L 98.566746 -101.437507 
L 96.493493 -103.640537 
L 94.213629 -105.843567 
L 91.835533 -108.046597 
L 89.496814 -110.249627 
L 87.349685 -112.452658 
L 85.541765 -114.655688 
L 84.195742 -116.858718 
L 83.391904 -119.061748 
L 83.157107 -121.264778 
L 83.462301 -123.467808 
L 84.2288 -125.670839 
L 85.341519 -127.873869 
L 86.66607 -130.076899 
L 88.066185 -132.279929 
L 89.418436 -134.482959 
L 90.622408 -136.685989 
L 91.605866 -138.88902 
L 92.325625 -141.09205 
L 92.765539 -143.29508 
L 92.933072 -145.49811 
L 92.855584 -147.70114 
L 92.576768 -149.904171 
L 92.153158 -152.107201 
L 91.650197 -154.310231 
L 91.137427 -156.513261 
L 90.682644 -158.716291 
L 90.34542 -160.919321 
L 90.170831 -163.122352 
L 90.184563 -165.325382 
L 90.390422 -167.528412 
L 90.770921 -169.731442 
L 91.290928 -171.934472 
L 91.903712 -174.137503 
L 92.558221 -176.340533 
L 93.206241 -178.543563 
L 93.808223 -180.746593 
L 94.337003 -182.949623 
L 94.779153 -185.152653 
L 95.1342 -187.355684 
L 95.412281 -189.558714 
L 95.630927 -191.761744 
L 95.811636 -193.964774 
L 95.976727 -196.167804 
L 96.146775 -198.370834 
L 96.338788 -200.573865 
L 96.565135 -202.776895 
L 96.833202 -204.979925 
L 97.145677 -207.182955 
L 97.501315 -209.385985 
L 97.895999 -211.589016 
L 98.323871 -213.792046 
L 98.778298 -215.995076 
L 99.252488 -218.198106 
L 99.739693 -220.401136 
L 100.233053 -222.604166 
L 100.725263 -224.807197 
L 101.208316 -227.010227 
L 101.673551 -229.213257 
L 102.112113 -231.416287 
L 102.515793 -233.619317 
L 102.878035 -235.822347 
L 103.194845 -238.025378 
L 103.465338 -240.228408 
L 103.691746 -242.431438 
L 103.878901 -244.634468 
L 104.033326 -246.837498 
L 104.16218 -249.040529 
L 104.272278 -251.243559 
L 104.369385 -253.446589 
L 104.45785 -255.649619 
L 104.540569 -257.852649 
L 104.619191 -260.055679 
L 104.694455 -262.25871 
L 104.76657 -264.46174 
L 104.835553 -266.66477 
L 104.901493 -268.8678 
L 104.964705 -271.07083 
L 105.025775 -273.273861 
L 105.085498 -275.476891 
L 105.144725 -277.679921 
L 105.204177 -279.882951 
L 105.264249 -282.085981 
L 105.324882 -284.289011 
L 105.385517 -286.492042 
L 105.445151 -288.695072 
L 105.502491 -290.898102 
L 105.556157 -293.101132 
L 105.604892 -295.304162 
L 105.647743 -297.507192 
L 105.684172 -299.710223 
L 105.714084 -301.913253 
L 105.737793 -304.116283 
L 105.755926 -306.319313 
L 105.769302 -308.522343 
L 105.823341 -308.522343 
L 105.823341 -308.522343 
L 105.836718 -306.319313 
L 105.85485 -304.116283 
L 105.87856 -301.913253 
L 105.908472 -299.710223 
L 105.9449 -297.507192 
L 105.987752 -295.304162 
L 106.036487 -293.101132 
L 106.090152 -290.898102 
L 106.147493 -288.695072 
L 106.207127 -286.492042 
L 106.267761 -284.289011 
L 106.328395 -282.085981 
L 106.388467 -279.882951 
L 106.447918 -277.679921 
L 106.507146 -275.476891 
L 106.566868 -273.273861 
L 106.627939 -271.07083 
L 106.691151 -268.8678 
L 106.757091 -266.66477 
L 106.826074 -264.46174 
L 106.898188 -262.25871 
L 106.973452 -260.055679 
L 107.052074 -257.852649 
L 107.134793 -255.649619 
L 107.223258 -253.446589 
L 107.320365 -251.243559 
L 107.430464 -249.040529 
L 107.559318 -246.837498 
L 107.713743 -244.634468 
L 107.900897 -242.431438 
L 108.127305 -240.228408 
L 108.397798 -238.025378 
L 108.714609 -235.822347 
L 109.07685 -233.619317 
L 109.48053 -231.416287 
L 109.919093 -229.213257 
L 110.384328 -227.010227 
L 110.867381 -224.807197 
L 111.359591 -222.604166 
L 111.852951 -220.401136 
L 112.340156 -218.198106 
L 112.814346 -215.995076 
L 113.268772 -213.792046 
L 113.696645 -211.589016 
L 114.091329 -209.385985 
L 114.446966 -207.182955 
L 114.759441 -204.979925 
L 115.027509 -202.776895 
L 115.253855 -200.573865 
L 115.445868 -198.370834 
L 115.615917 -196.167804 
L 115.781008 -193.964774 
L 115.961717 -191.761744 
L 116.180362 -189.558714 
L 116.458443 -187.355684 
L 116.813491 -185.152653 
L 117.255641 -182.949623 
L 117.78442 -180.746593 
L 118.386402 -178.543563 
L 119.034422 -176.340533 
L 119.688932 -174.137503 
L 120.301715 -171.934472 
L 120.821722 -169.731442 
L 121.202221 -167.528412 
L 121.40808 -165.325382 
L 121.421812 -163.122352 
L 121.247224 -160.919321 
L 120.909999 -158.716291 
L 120.455217 -156.513261 
L 119.942446 -154.310231 
L 119.439486 -152.107201 
L 119.015876 -149.904171 
L 118.73706 -147.70114 
L 118.659571 -145.49811 
L 118.827105 -143.29508 
L 119.267018 -141.09205 
L 119.986778 -138.88902 
L 120.970235 -136.685989 
L 122.174207 -134.482959 
L 123.526458 -132.279929 
L 124.926573 -130.076899 
L 126.251125 -127.873869 
L 127.363843 -125.670839 
L 128.130342 -123.467808 
L 128.435536 -121.264778 
L 128.200739 -119.061748 
L 127.396902 -116.858718 
L 126.050879 -114.655688 
L 124.242959 -112.452658 
L 122.09583 -110.249627 
L 119.757111 -108.046597 
L 117.379014 -105.843567 
L 115.099151 -103.640537 
L 113.025897 -101.437507 
L 111.230387 -99.234476 
L 109.745455 -97.031446 
L 108.570394 -94.828416 
L 107.679389 -92.625386 
L 107.031287 -90.422356 
z
" id="m407496d9e0" style="stroke:#373737;stroke-width:1.5;"/>
    </defs>
    <g clip-path="url(#pc5d4f539b8)">
     <use style="fill:#2b8e70;stroke:#373737;stroke-width:1.5;" x="0" xlink:href="#m407496d9e0" y="540.169"/>
    </g>
   </g>
   <g id="PolyCollection_2">
    <defs>
     <path d="M 151.672033 -70.07782 
L 150.477468 -70.07782 
L 150.156088 -74.530576 
L 149.713596 -78.983331 
L 149.131556 -83.436087 
L 148.401269 -87.888843 
L 147.529077 -92.341598 
L 146.540458 -96.794354 
L 145.481507 -101.24711 
L 144.416644 -105.699866 
L 143.422138 -110.152621 
L 142.5761 -114.605377 
L 141.946637 -119.058133 
L 141.580629 -123.510888 
L 141.495684 -127.963644 
L 141.677253 -132.4164 
L 142.081678 -136.869156 
L 142.644534 -141.321911 
L 143.292333 -145.774667 
L 143.954957 -150.227423 
L 144.576136 -154.680179 
L 145.119967 -159.132934 
L 145.572551 -163.58569 
L 145.939049 -168.038446 
L 146.237461 -172.491201 
L 146.490958 -176.943957 
L 146.720665 -181.396713 
L 146.940338 -185.849469 
L 147.15368 -190.302224 
L 147.354293 -194.75498 
L 147.527669 -199.207736 
L 147.654327 -203.660492 
L 147.713247 -208.113247 
L 147.684982 -212.566003 
L 147.554213 -217.018759 
L 147.311753 -221.471514 
L 146.956156 -225.92427 
L 146.494977 -230.377026 
L 145.945526 -234.829782 
L 145.334777 -239.282537 
L 144.698039 -243.735293 
L 144.076146 -248.188049 
L 143.511299 -252.640804 
L 143.042095 -257.09356 
L 142.698661 -261.546316 
L 142.498879 -265.999072 
L 142.446563 -270.451827 
L 142.53196 -274.904583 
L 142.734398 -279.357339 
L 143.02642 -283.810095 
L 143.378411 -288.26285 
L 143.762745 -292.715606 
L 144.156745 -297.168362 
L 144.544119 -301.621117 
L 144.915002 -306.073873 
L 145.264988 -310.526629 
L 145.593663 -314.979385 
L 145.903086 -319.43214 
L 146.196493 -323.884896 
L 146.477316 -328.337652 
L 146.748485 -332.790407 
L 147.011942 -337.243163 
L 147.268344 -341.695919 
L 147.516969 -346.148675 
L 147.755866 -350.60143 
L 147.982281 -355.054186 
L 148.19328 -359.506942 
L 148.386457 -363.959698 
L 148.560524 -368.412453 
L 148.715661 -372.865209 
L 148.853507 -377.317965 
L 148.976855 -381.77072 
L 149.089133 -386.223476 
L 149.193845 -390.676232 
L 149.294085 -395.128988 
L 149.392229 -399.581743 
L 149.489804 -404.034499 
L 149.587514 -408.487255 
L 149.685376 -412.94001 
L 149.782913 -417.392766 
L 149.879374 -421.845522 
L 149.973956 -426.298278 
L 150.066002 -430.751033 
L 150.155132 -435.203789 
L 150.241296 -439.656545 
L 150.324707 -444.109301 
L 150.405696 -448.562056 
L 150.484502 -453.014812 
L 150.561086 -457.467568 
L 150.635012 -461.920323 
L 150.70545 -466.373079 
L 150.77129 -470.825835 
L 150.831339 -475.278591 
L 150.884556 -479.731346 
L 150.930234 -484.184102 
L 150.968124 -488.636858 
L 150.998452 -493.089613 
L 151.021851 -497.542369 
L 151.039243 -501.995125 
L 151.051691 -506.447881 
L 151.06027 -510.900636 
L 151.089232 -510.900636 
L 151.089232 -510.900636 
L 151.097811 -506.447881 
L 151.110259 -501.995125 
L 151.127651 -497.542369 
L 151.15105 -493.089613 
L 151.181377 -488.636858 
L 151.219267 -484.184102 
L 151.264946 -479.731346 
L 151.318162 -475.278591 
L 151.378212 -470.825835 
L 151.444051 -466.373079 
L 151.51449 -461.920323 
L 151.588416 -457.467568 
L 151.665 -453.014812 
L 151.743806 -448.562056 
L 151.824795 -444.109301 
L 151.908206 -439.656545 
L 151.994369 -435.203789 
L 152.0835 -430.751033 
L 152.175545 -426.298278 
L 152.270128 -421.845522 
L 152.366589 -417.392766 
L 152.464126 -412.94001 
L 152.561988 -408.487255 
L 152.659698 -404.034499 
L 152.757272 -399.581743 
L 152.855416 -395.128988 
L 152.955657 -390.676232 
L 153.060369 -386.223476 
L 153.172647 -381.77072 
L 153.295995 -377.317965 
L 153.433841 -372.865209 
L 153.588977 -368.412453 
L 153.763045 -363.959698 
L 153.956221 -359.506942 
L 154.167221 -355.054186 
L 154.393636 -350.60143 
L 154.632533 -346.148675 
L 154.881157 -341.695919 
L 155.13756 -337.243163 
L 155.401017 -332.790407 
L 155.672185 -328.337652 
L 155.953009 -323.884896 
L 156.246416 -319.43214 
L 156.555838 -314.979385 
L 156.884513 -310.526629 
L 157.2345 -306.073873 
L 157.605383 -301.621117 
L 157.992757 -297.168362 
L 158.386756 -292.715606 
L 158.771091 -288.26285 
L 159.123081 -283.810095 
L 159.415104 -279.357339 
L 159.617542 -274.904583 
L 159.702938 -270.451827 
L 159.650623 -265.999072 
L 159.450841 -261.546316 
L 159.107406 -257.09356 
L 158.638203 -252.640804 
L 158.073356 -248.188049 
L 157.451463 -243.735293 
L 156.814724 -239.282537 
L 156.203976 -234.829782 
L 155.654525 -230.377026 
L 155.193346 -225.92427 
L 154.837749 -221.471514 
L 154.595288 -217.018759 
L 154.464519 -212.566003 
L 154.436255 -208.113247 
L 154.495175 -203.660492 
L 154.621833 -199.207736 
L 154.795208 -194.75498 
L 154.995822 -190.302224 
L 155.209164 -185.849469 
L 155.428837 -181.396713 
L 155.658543 -176.943957 
L 155.91204 -172.491201 
L 156.210452 -168.038446 
L 156.576951 -163.58569 
L 157.029534 -159.132934 
L 157.573365 -154.680179 
L 158.194545 -150.227423 
L 158.857169 -145.774667 
L 159.504968 -141.321911 
L 160.067824 -136.869156 
L 160.472249 -132.4164 
L 160.653818 -127.963644 
L 160.568873 -123.510888 
L 160.202864 -119.058133 
L 159.573402 -114.605377 
L 158.727364 -110.152621 
L 157.732858 -105.699866 
L 156.667995 -101.24711 
L 155.609044 -96.794354 
L 154.620425 -92.341598 
L 153.748232 -87.888843 
L 153.017946 -83.436087 
L 152.435906 -78.983331 
L 151.993414 -74.530576 
L 151.672033 -70.07782 
z
" id="m21c944c2c4" style="stroke:#373737;stroke-width:1.5;"/>
    </defs>
    <g clip-path="url(#pc5d4f539b8)">
     <use style="fill:#be631d;stroke:#373737;stroke-width:1.5;" x="0" xlink:href="#m21c944c2c4" y="540.169"/>
    </g>
   </g>
   <g id="PolyCollection_3">
    <defs>
     <path d="M 220.219661 -86.872371 
L 217.765128 -86.872371 
L 217.159063 -89.381636 
L 216.3372 -91.890902 
L 215.263434 -94.400167 
L 213.913026 -96.909433 
L 212.280104 -99.418699 
L 210.384523 -101.927964 
L 208.276484 -104.43723 
L 206.037366 -106.946495 
L 203.775743 -109.455761 
L 201.618364 -111.965026 
L 199.697015 -114.474292 
L 198.133144 -116.983557 
L 197.022827 -119.492823 
L 196.42473 -122.002088 
L 196.35318 -124.511354 
L 196.777447 -127.02062 
L 197.627067 -129.529885 
L 198.801891 -132.039151 
L 200.18483 -134.548416 
L 201.655031 -137.057682 
L 203.099557 -139.566947 
L 204.422304 -142.076213 
L 205.549644 -144.585478 
L 206.432981 -147.094744 
L 207.048771 -149.604009 
L 207.396745 -152.113275 
L 207.496921 -154.622541 
L 207.385855 -157.131806 
L 207.112334 -159.641072 
L 206.73266 -162.150337 
L 206.305663 -164.659603 
L 205.88769 -167.168868 
L 205.527954 -169.678134 
L 205.264701 -172.187399 
L 205.122657 -174.696665 
L 205.112074 -177.20593 
L 205.229476 -179.715196 
L 205.459919 -182.224461 
L 205.780324 -184.733727 
L 206.163285 -187.242993 
L 206.58071 -189.752258 
L 207.006786 -192.261524 
L 207.419948 -194.770789 
L 207.803845 -197.280055 
L 208.147461 -199.78932 
L 208.444744 -202.298586 
L 208.694058 -204.807851 
L 208.897708 -207.317117 
L 209.06162 -209.826382 
L 209.195083 -212.335648 
L 209.310392 -214.844914 
L 209.422186 -217.354179 
L 209.546388 -219.863445 
L 209.698765 -222.37271 
L 209.893286 -224.881976 
L 210.140549 -227.391241 
L 210.446577 -229.900507 
L 210.812206 -232.409772 
L 211.233169 -234.919038 
L 211.700827 -237.428303 
L 212.20336 -239.937569 
L 212.727174 -242.446834 
L 213.258259 -244.9561 
L 213.783313 -247.465366 
L 214.290536 -249.974631 
L 214.770096 -252.483897 
L 215.214327 -254.993162 
L 215.617767 -257.502428 
L 215.977117 -260.011693 
L 216.291154 -262.520959 
L 216.560624 -265.030224 
L 216.788073 -267.53949 
L 216.977604 -270.048755 
L 217.134532 -272.558021 
L 217.264957 -275.067287 
L 217.375277 -277.576552 
L 217.471705 -280.085818 
L 217.559825 -282.595083 
L 217.644263 -285.104349 
L 217.728479 -287.613614 
L 217.814695 -290.12288 
L 217.903959 -292.632145 
L 217.996303 -295.141411 
L 218.090962 -297.650676 
L 218.186625 -300.159942 
L 218.281668 -302.669207 
L 218.374362 -305.178473 
L 218.463044 -307.687739 
L 218.546231 -310.197004 
L 218.622706 -312.70627 
L 218.691569 -315.215535 
L 218.752261 -317.724801 
L 218.804566 -320.234066 
L 218.848599 -322.743332 
L 218.88477 -325.252597 
L 218.91373 -327.761863 
L 218.936302 -330.271128 
L 218.953412 -332.780394 
L 218.966014 -335.28966 
L 219.018774 -335.28966 
L 219.018774 -335.28966 
L 219.031377 -332.780394 
L 219.048487 -330.271128 
L 219.071059 -327.761863 
L 219.100018 -325.252597 
L 219.136189 -322.743332 
L 219.180223 -320.234066 
L 219.232528 -317.724801 
L 219.293219 -315.215535 
L 219.362083 -312.70627 
L 219.438558 -310.197004 
L 219.521745 -307.687739 
L 219.610427 -305.178473 
L 219.703121 -302.669207 
L 219.798163 -300.159942 
L 219.893826 -297.650676 
L 219.988486 -295.141411 
L 220.08083 -292.632145 
L 220.170094 -290.12288 
L 220.25631 -287.613614 
L 220.340525 -285.104349 
L 220.424964 -282.595083 
L 220.513084 -280.085818 
L 220.609511 -277.576552 
L 220.719832 -275.067287 
L 220.850257 -272.558021 
L 221.007185 -270.048755 
L 221.196715 -267.53949 
L 221.424164 -265.030224 
L 221.693635 -262.520959 
L 222.007672 -260.011693 
L 222.367022 -257.502428 
L 222.770462 -254.993162 
L 223.214692 -252.483897 
L 223.694252 -249.974631 
L 224.201476 -247.465366 
L 224.72653 -244.9561 
L 225.257615 -242.446834 
L 225.781429 -239.937569 
L 226.283962 -237.428303 
L 226.75162 -234.919038 
L 227.172583 -232.409772 
L 227.538212 -229.900507 
L 227.84424 -227.391241 
L 228.091503 -224.881976 
L 228.286023 -222.37271 
L 228.438401 -219.863445 
L 228.562603 -217.354179 
L 228.674397 -214.844914 
L 228.789706 -212.335648 
L 228.923169 -209.826382 
L 229.087081 -207.317117 
L 229.290731 -204.807851 
L 229.540044 -202.298586 
L 229.837327 -199.78932 
L 230.180944 -197.280055 
L 230.564841 -194.770789 
L 230.978003 -192.261524 
L 231.404078 -189.752258 
L 231.821504 -187.242993 
L 232.204465 -184.733727 
L 232.52487 -182.224461 
L 232.755313 -179.715196 
L 232.872715 -177.20593 
L 232.862132 -174.696665 
L 232.720088 -172.187399 
L 232.456834 -169.678134 
L 232.097098 -167.168868 
L 231.679126 -164.659603 
L 231.252129 -162.150337 
L 230.872455 -159.641072 
L 230.598934 -157.131806 
L 230.487868 -154.622541 
L 230.588044 -152.113275 
L 230.936017 -149.604009 
L 231.551808 -147.094744 
L 232.435144 -144.585478 
L 233.562485 -142.076213 
L 234.885232 -139.566947 
L 236.329758 -137.057682 
L 237.799958 -134.548416 
L 239.182898 -132.039151 
L 240.357722 -129.529885 
L 241.207341 -127.02062 
L 241.631609 -124.511354 
L 241.560058 -122.002088 
L 240.961961 -119.492823 
L 239.851645 -116.983557 
L 238.287774 -114.474292 
L 236.366424 -111.965026 
L 234.209046 -109.455761 
L 231.947422 -106.946495 
L 229.708305 -104.43723 
L 227.600265 -101.927964 
L 225.704685 -99.418699 
L 224.071763 -96.909433 
L 222.721354 -94.400167 
L 221.647589 -91.890902 
L 220.825726 -89.381636 
L 220.219661 -86.872371 
z
" id="m30e1cf1885" style="stroke:#373737;stroke-width:1.5;"/>
    </defs>
    <g clip-path="url(#pc5d4f539b8)">
     <use style="fill:#2b8e70;stroke:#373737;stroke-width:1.5;" x="0" xlink:href="#m30e1cf1885" y="540.169"/>
    </g>
   </g>
   <g id="PolyCollection_4">
    <defs>
     <path d="M 265.08122 -69.533364 
L 263.460427 -69.533364 
L 263.060844 -73.86489 
L 262.525753 -78.196416 
L 261.839339 -82.527943 
L 260.997156 -86.859469 
L 260.010965 -91.190995 
L 258.912088 -95.522522 
L 257.752073 -99.854048 
L 256.599784 -104.185574 
L 255.534739 -108.517101 
L 254.637443 -112.848627 
L 253.97829 -117.180153 
L 253.607168 -121.51168 
L 253.545924 -125.843206 
L 253.785263 -130.174732 
L 254.286699 -134.506258 
L 254.98904 -138.837785 
L 255.817922 -143.169311 
L 256.696401 -147.500837 
L 257.554588 -151.832364 
L 258.336785 -156.16389 
L 259.005318 -160.495416 
L 259.541061 -164.826943 
L 259.941275 -169.158469 
L 260.215754 -173.489995 
L 260.382364 -177.821522 
L 260.462866 -182.153048 
L 260.479615 -186.484574 
L 260.453354 -190.816101 
L 260.401986 -195.147627 
L 260.340037 -199.479153 
L 260.278406 -203.81068 
L 260.224142 -208.142206 
L 260.180091 -212.473732 
L 260.144502 -216.805259 
L 260.110833 -221.136785 
L 260.06802 -225.468311 
L 260.001452 -229.799838 
L 259.894705 -234.131364 
L 259.731864 -238.46289 
L 259.50011 -242.794417 
L 259.19208 -247.125943 
L 258.807575 -251.457469 
L 258.35426 -255.788996 
L 257.847242 -260.120522 
L 257.30761 -264.452048 
L 256.760215 -268.783574 
L 256.231102 -273.115101 
L 255.744971 -277.446627 
L 255.323049 -281.778153 
L 254.981546 -286.10968 
L 254.730834 -290.441206 
L 254.575273 -294.772732 
L 254.51364 -299.104259 
L 254.539993 -303.435785 
L 254.644875 -307.767311 
L 254.816707 -312.098838 
L 255.043255 -316.430364 
L 255.313009 -320.76189 
L 255.616336 -325.093417 
L 255.946227 -329.424943 
L 256.298529 -333.756469 
L 256.671632 -338.087996 
L 257.065646 -342.419522 
L 257.481266 -346.751048 
L 257.918548 -351.082575 
L 258.375895 -355.414101 
L 258.849448 -359.745627 
L 259.333024 -364.077154 
L 259.818565 -368.40868 
L 260.296974 -372.740206 
L 260.759107 -377.071733 
L 261.196704 -381.403259 
L 261.603076 -385.734785 
L 261.973473 -390.066312 
L 262.305135 -394.397838 
L 262.597119 -398.729364 
L 262.850002 -403.06089 
L 263.065559 -407.392417 
L 263.246485 -411.723943 
L 263.39616 -416.055469 
L 263.518467 -420.386996 
L 263.617603 -424.718522 
L 263.697892 -429.050048 
L 263.763572 -433.381575 
L 263.818574 -437.713101 
L 263.866315 -442.044627 
L 263.90953 -446.376154 
L 263.950168 -450.70768 
L 263.989379 -455.039206 
L 264.027573 -459.370733 
L 264.064569 -463.702259 
L 264.099787 -468.033785 
L 264.132469 -472.365312 
L 264.16188 -476.696838 
L 264.187458 -481.028364 
L 264.208916 -485.359891 
L 264.226258 -489.691417 
L 264.239753 -494.022943 
L 264.249859 -498.35447 
L 264.291788 -498.35447 
L 264.291788 -498.35447 
L 264.301894 -494.022943 
L 264.315388 -489.691417 
L 264.332731 -485.359891 
L 264.354189 -481.028364 
L 264.379767 -476.696838 
L 264.409177 -472.365312 
L 264.44186 -468.033785 
L 264.477078 -463.702259 
L 264.514074 -459.370733 
L 264.552268 -455.039206 
L 264.591478 -450.70768 
L 264.632117 -446.376154 
L 264.675332 -442.044627 
L 264.723073 -437.713101 
L 264.778075 -433.381575 
L 264.843755 -429.050048 
L 264.924044 -424.718522 
L 265.02318 -420.386996 
L 265.145486 -416.055469 
L 265.295162 -411.723943 
L 265.476087 -407.392417 
L 265.691645 -403.06089 
L 265.944527 -398.729364 
L 266.236512 -394.397838 
L 266.568174 -390.066312 
L 266.93857 -385.734785 
L 267.344942 -381.403259 
L 267.782539 -377.071733 
L 268.244673 -372.740206 
L 268.723082 -368.40868 
L 269.208623 -364.077154 
L 269.692199 -359.745627 
L 270.165752 -355.414101 
L 270.623099 -351.082575 
L 271.060381 -346.751048 
L 271.476 -342.419522 
L 271.870015 -338.087996 
L 272.243118 -333.756469 
L 272.59542 -329.424943 
L 272.92531 -325.093417 
L 273.228638 -320.76189 
L 273.498392 -316.430364 
L 273.724939 -312.098838 
L 273.896772 -307.767311 
L 274.001654 -303.435785 
L 274.028007 -299.104259 
L 273.966374 -294.772732 
L 273.810813 -290.441206 
L 273.5601 -286.10968 
L 273.218598 -281.778153 
L 272.796675 -277.446627 
L 272.310545 -273.115101 
L 271.781431 -268.783574 
L 271.234037 -264.452048 
L 270.694404 -260.120522 
L 270.187387 -255.788996 
L 269.734072 -251.457469 
L 269.349566 -247.125943 
L 269.041537 -242.794417 
L 268.809783 -238.46289 
L 268.646942 -234.131364 
L 268.540194 -229.799838 
L 268.473627 -225.468311 
L 268.430814 -221.136785 
L 268.397145 -216.805259 
L 268.361556 -212.473732 
L 268.317504 -208.142206 
L 268.263241 -203.81068 
L 268.20161 -199.479153 
L 268.13966 -195.147627 
L 268.088293 -190.816101 
L 268.062032 -186.484574 
L 268.078781 -182.153048 
L 268.159283 -177.821522 
L 268.325893 -173.489995 
L 268.600372 -169.158469 
L 269.000585 -164.826943 
L 269.536329 -160.495416 
L 270.204862 -156.16389 
L 270.987058 -151.832364 
L 271.845246 -147.500837 
L 272.723725 -143.169311 
L 273.552606 -138.837785 
L 274.254947 -134.506258 
L 274.756384 -130.174732 
L 274.995723 -125.843206 
L 274.934479 -121.51168 
L 274.563357 -117.180153 
L 273.904203 -112.848627 
L 273.006908 -108.517101 
L 271.941863 -104.185574 
L 270.789573 -99.854048 
L 269.629559 -95.522522 
L 268.530682 -91.190995 
L 267.54449 -86.859469 
L 266.702308 -82.527943 
L 266.015893 -78.196416 
L 265.480803 -73.86489 
L 265.08122 -69.533364 
z
" id="m99e956624e" style="stroke:#373737;stroke-width:1.5;"/>
    </defs>
    <g clip-path="url(#pc5d4f539b8)">
     <use style="fill:#be631d;stroke:#373737;stroke-width:1.5;" x="0" xlink:href="#m99e956624e" y="540.169"/>
    </g>
   </g>
   <g id="PolyCollection_5">
    <defs>
     <path d="M 333.300075 -92.181165 
L 331.076858 -92.181165 
L 330.51449 -94.063 
L 329.745988 -95.944835 
L 328.734662 -97.826671 
L 327.454061 -99.708506 
L 325.89535 -101.590341 
L 324.074161 -103.472176 
L 322.035306 -105.354011 
L 319.853774 -107.235847 
L 317.630897 -109.117682 
L 315.485435 -110.999517 
L 313.540439 -112.881352 
L 311.907871 -114.763187 
L 310.673649 -116.645023 
L 309.885975 -118.526858 
L 309.549252 -120.408693 
L 309.624788 -122.290528 
L 310.038086 -124.172363 
L 310.691202 -126.054198 
L 311.47771 -127.936034 
L 312.297506 -129.817869 
L 313.068987 -131.699704 
L 313.736918 -133.581539 
L 314.275324 -135.463374 
L 314.685691 -137.34521 
L 314.991556 -139.227045 
L 315.230897 -141.10888 
L 315.447887 -142.990715 
L 315.685286 -144.87255 
L 315.978451 -146.754385 
L 316.351462 -148.636221 
L 316.815485 -150.518056 
L 317.369125 -152.399891 
L 318.000341 -154.281726 
L 318.68935 -156.163561 
L 319.411968 -158.045397 
L 320.142893 -159.927232 
L 320.858561 -161.809067 
L 321.539314 -163.690902 
L 322.170756 -165.572737 
L 322.744259 -167.454573 
L 323.256682 -169.336408 
L 323.709434 -171.218243 
L 324.107102 -173.100078 
L 324.45589 -174.981913 
L 324.762149 -176.863748 
L 325.03124 -178.745584 
L 325.266891 -180.627419 
L 325.471119 -182.509254 
L 325.644643 -184.391089 
L 325.787645 -186.272924 
L 325.900655 -188.15476 
L 325.985344 -190.036595 
L 326.04504 -191.91843 
L 326.084865 -193.800265 
L 326.111469 -195.6821 
L 326.132432 -197.563936 
L 326.155474 -199.445771 
L 326.187624 -201.327606 
L 326.234526 -203.209441 
L 326.299992 -205.091276 
L 326.385864 -206.973111 
L 326.492166 -208.854947 
L 326.617467 -210.736782 
L 326.759327 -212.618617 
L 326.914743 -214.500452 
L 327.080501 -216.382287 
L 327.253437 -218.264123 
L 327.430628 -220.145958 
L 327.609554 -222.027793 
L 327.788244 -223.909628 
L 327.965422 -225.791463 
L 328.140582 -227.673299 
L 328.313957 -229.555134 
L 328.486363 -231.436969 
L 328.658923 -233.318804 
L 328.832766 -235.200639 
L 329.008756 -237.082474 
L 329.187362 -238.96431 
L 329.368677 -240.846145 
L 329.55255 -242.72798 
L 329.738762 -244.609815 
L 329.927135 -246.49165 
L 330.117513 -248.373486 
L 330.309598 -250.255321 
L 330.502707 -252.137156 
L 330.695522 -254.018991 
L 330.88596 -255.900826 
L 331.071217 -257.782662 
L 331.247996 -259.664497 
L 331.412892 -261.546332 
L 331.562823 -263.428167 
L 331.695424 -265.310002 
L 331.809322 -267.191837 
L 331.904234 -269.073673 
L 331.980908 -270.955508 
L 332.040929 -272.837343 
L 332.086443 -274.719178 
L 332.119868 -276.601013 
L 332.14364 -278.482849 
L 332.233294 -278.482849 
L 332.233294 -278.482849 
L 332.257066 -276.601013 
L 332.290491 -274.719178 
L 332.336005 -272.837343 
L 332.396026 -270.955508 
L 332.4727 -269.073673 
L 332.567612 -267.191837 
L 332.68151 -265.310002 
L 332.814111 -263.428167 
L 332.964042 -261.546332 
L 333.128938 -259.664497 
L 333.305717 -257.782662 
L 333.490974 -255.900826 
L 333.681412 -254.018991 
L 333.874227 -252.137156 
L 334.067336 -250.255321 
L 334.259421 -248.373486 
L 334.449799 -246.49165 
L 334.638172 -244.609815 
L 334.824384 -242.72798 
L 335.008257 -240.846145 
L 335.189571 -238.96431 
L 335.368178 -237.082474 
L 335.544168 -235.200639 
L 335.71801 -233.318804 
L 335.890571 -231.436969 
L 336.062977 -229.555134 
L 336.236352 -227.673299 
L 336.411511 -225.791463 
L 336.58869 -223.909628 
L 336.76738 -222.027793 
L 336.946305 -220.145958 
L 337.123497 -218.264123 
L 337.296433 -216.382287 
L 337.462191 -214.500452 
L 337.617607 -212.618617 
L 337.759467 -210.736782 
L 337.884768 -208.854947 
L 337.99107 -206.973111 
L 338.076942 -205.091276 
L 338.142408 -203.209441 
L 338.18931 -201.327606 
L 338.22146 -199.445771 
L 338.244502 -197.563936 
L 338.265465 -195.6821 
L 338.292069 -193.800265 
L 338.331894 -191.91843 
L 338.39159 -190.036595 
L 338.476279 -188.15476 
L 338.589288 -186.272924 
L 338.73229 -184.391089 
L 338.905815 -182.509254 
L 339.110043 -180.627419 
L 339.345694 -178.745584 
L 339.614785 -176.863748 
L 339.921044 -174.981913 
L 340.269832 -173.100078 
L 340.6675 -171.218243 
L 341.120252 -169.336408 
L 341.632675 -167.454573 
L 342.206178 -165.572737 
L 342.83762 -163.690902 
L 343.518373 -161.809067 
L 344.234041 -159.927232 
L 344.964966 -158.045397 
L 345.687584 -156.163561 
L 346.376593 -154.281726 
L 347.007808 -152.399891 
L 347.561448 -150.518056 
L 348.025471 -148.636221 
L 348.398483 -146.754385 
L 348.691648 -144.87255 
L 348.929047 -142.990715 
L 349.146037 -141.10888 
L 349.385378 -139.227045 
L 349.691242 -137.34521 
L 350.10161 -135.463374 
L 350.640015 -133.581539 
L 351.307947 -131.699704 
L 352.079428 -129.817869 
L 352.899224 -127.936034 
L 353.685732 -126.054198 
L 354.338848 -124.172363 
L 354.752146 -122.290528 
L 354.827681 -120.408693 
L 354.490959 -118.526858 
L 353.703285 -116.645023 
L 352.469062 -114.763187 
L 350.836495 -112.881352 
L 348.891499 -110.999517 
L 346.746037 -109.117682 
L 344.52316 -107.235847 
L 342.341628 -105.354011 
L 340.302773 -103.472176 
L 338.481584 -101.590341 
L 336.922873 -99.708506 
L 335.642272 -97.826671 
L 334.630946 -95.944835 
L 333.862443 -94.063 
L 333.300075 -92.181165 
z
" id="m2e7c7855e8" style="stroke:#373737;stroke-width:1.5;"/>
    </defs>
    <g clip-path="url(#pc5d4f539b8)">
     <use style="fill:#2b8e70;stroke:#373737;stroke-width:1.5;" x="0" xlink:href="#m2e7c7855e8" y="540.169"/>
    </g>
   </g>
   <g id="PolyCollection_6">
    <defs>
     <path d="M 378.465615 -87.191039 
L 376.468177 -87.191039 
L 376.018792 -89.443131 
L 375.427958 -91.695224 
L 374.678598 -93.947317 
L 373.762617 -96.199409 
L 372.684833 -98.451502 
L 371.46602 -100.703594 
L 370.144211 -102.955687 
L 368.773595 -105.20778 
L 367.420719 -107.459872 
L 366.158245 -109.711965 
L 365.057076 -111.964057 
L 364.178089 -114.21615 
L 363.564929 -116.468243 
L 363.239118 -118.720335 
L 363.198314 -120.972428 
L 363.417911 -123.22452 
L 363.8555 -125.476613 
L 364.457216 -127.728706 
L 365.164766 -129.980798 
L 365.921975 -132.232891 
L 366.679976 -134.484983 
L 367.400595 -136.737076 
L 368.05784 -138.989169 
L 368.637752 -141.241261 
L 369.136991 -143.493354 
L 369.560618 -145.745446 
L 369.919445 -147.997539 
L 370.227315 -150.249632 
L 370.498564 -152.501724 
L 370.745903 -154.753817 
L 370.978902 -157.00591 
L 371.203176 -159.258002 
L 371.420318 -161.510095 
L 371.628491 -163.762187 
L 371.823508 -166.01428 
L 372.00013 -168.266373 
L 372.153333 -170.518465 
L 372.279285 -172.770558 
L 372.375907 -175.02265 
L 372.442962 -177.274743 
L 372.481764 -179.526836 
L 372.494635 -181.778928 
L 372.484284 -184.031021 
L 372.45326 -186.283113 
L 372.403569 -188.535206 
L 372.336492 -190.787299 
L 372.252573 -193.039391 
L 372.151722 -195.291484 
L 372.033361 -197.543576 
L 371.896561 -199.795669 
L 371.740142 -202.047762 
L 371.562729 -204.299854 
L 371.362789 -206.551947 
L 371.138666 -208.804039 
L 370.888659 -211.056132 
L 370.611149 -213.308225 
L 370.304796 -215.560317 
L 369.968818 -217.81241 
L 369.603341 -220.064502 
L 369.209809 -222.316595 
L 368.791411 -224.568688 
L 368.353506 -226.82078 
L 367.903953 -229.072873 
L 367.453308 -231.324965 
L 367.014802 -233.577058 
L 366.604053 -235.829151 
L 366.238484 -238.081243 
L 365.936436 -240.333336 
L 365.716031 -242.585428 
L 365.59387 -244.837521 
L 365.583682 -247.089614 
L 365.695074 -249.341706 
L 365.932538 -251.593799 
L 366.294859 -253.845891 
L 366.775 -256.097984 
L 367.360512 -258.350077 
L 368.034414 -260.602169 
L 368.776437 -262.854262 
L 369.564461 -265.106354 
L 370.375989 -267.358447 
L 371.189468 -269.61054 
L 371.985368 -271.862632 
L 372.746944 -274.114725 
L 373.460677 -276.366817 
L 374.116444 -278.61891 
L 374.707464 -280.871003 
L 375.230089 -283.123095 
L 375.683494 -285.375188 
L 376.069296 -287.627281 
L 376.391126 -289.879373 
L 376.654164 -292.131466 
L 376.864671 -294.383558 
L 377.029521 -296.635651 
L 377.155761 -298.887744 
L 377.250239 -301.139836 
L 377.3193 -303.391929 
L 377.368581 -305.644021 
L 377.402895 -307.896114 
L 377.426198 -310.148207 
L 377.507594 -310.148207 
L 377.507594 -310.148207 
L 377.530897 -307.896114 
L 377.565211 -305.644021 
L 377.614492 -303.391929 
L 377.683553 -301.139836 
L 377.778031 -298.887744 
L 377.904271 -296.635651 
L 378.069121 -294.383558 
L 378.279628 -292.131466 
L 378.542666 -289.879373 
L 378.864495 -287.627281 
L 379.250298 -285.375188 
L 379.703703 -283.123095 
L 380.226328 -280.871003 
L 380.817347 -278.61891 
L 381.473115 -276.366817 
L 382.186848 -274.114725 
L 382.948424 -271.862632 
L 383.744324 -269.61054 
L 384.557803 -267.358447 
L 385.369331 -265.106354 
L 386.157355 -262.854262 
L 386.899378 -260.602169 
L 387.57328 -258.350077 
L 388.158792 -256.097984 
L 388.638933 -253.845891 
L 389.001254 -251.593799 
L 389.238718 -249.341706 
L 389.35011 -247.089614 
L 389.339922 -244.837521 
L 389.217761 -242.585428 
L 388.997356 -240.333336 
L 388.695307 -238.081243 
L 388.329739 -235.829151 
L 387.91899 -233.577058 
L 387.480484 -231.324965 
L 387.029839 -229.072873 
L 386.580286 -226.82078 
L 386.142381 -224.568688 
L 385.723983 -222.316595 
L 385.330451 -220.064502 
L 384.964974 -217.81241 
L 384.628996 -215.560317 
L 384.322643 -213.308225 
L 384.045132 -211.056132 
L 383.795126 -208.804039 
L 383.571003 -206.551947 
L 383.371062 -204.299854 
L 383.193649 -202.047762 
L 383.037231 -199.795669 
L 382.900431 -197.543576 
L 382.78207 -195.291484 
L 382.681219 -193.039391 
L 382.5973 -190.787299 
L 382.530223 -188.535206 
L 382.480532 -186.283113 
L 382.449508 -184.031021 
L 382.439157 -181.778928 
L 382.452028 -179.526836 
L 382.49083 -177.274743 
L 382.557885 -175.02265 
L 382.654507 -172.770558 
L 382.780459 -170.518465 
L 382.933662 -168.266373 
L 383.110284 -166.01428 
L 383.305301 -163.762187 
L 383.513474 -161.510095 
L 383.730616 -159.258002 
L 383.954889 -157.00591 
L 384.187889 -154.753817 
L 384.435228 -152.501724 
L 384.706477 -150.249632 
L 385.014347 -147.997539 
L 385.373174 -145.745446 
L 385.796801 -143.493354 
L 386.29604 -141.241261 
L 386.875951 -138.989169 
L 387.533197 -136.737076 
L 388.253815 -134.484983 
L 389.011817 -132.232891 
L 389.769026 -129.980798 
L 390.476576 -127.728706 
L 391.078292 -125.476613 
L 391.515881 -123.22452 
L 391.735478 -120.972428 
L 391.694674 -118.720335 
L 391.368863 -116.468243 
L 390.755703 -114.21615 
L 389.876716 -111.964057 
L 388.775546 -109.711965 
L 387.513073 -107.459872 
L 386.160197 -105.20778 
L 384.789581 -102.955687 
L 383.467772 -100.703594 
L 382.248959 -98.451502 
L 381.171175 -96.199409 
L 380.255193 -93.947317 
L 379.505834 -91.695224 
L 378.915 -89.443131 
L 378.465615 -87.191039 
z
" id="mf5bcc791b7" style="stroke:#373737;stroke-width:1.5;"/>
    </defs>
    <g clip-path="url(#pc5d4f539b8)">
     <use style="fill:#be631d;stroke:#373737;stroke-width:1.5;" x="0" xlink:href="#mf5bcc791b7" y="540.169"/>
    </g>
   </g>
   <g id="PolyCollection_7">
    <defs>
     <path d="M 446.461372 -95.31236 
L 444.307707 -95.31236 
L 443.769485 -96.873967 
L 443.034966 -98.435573 
L 442.068262 -99.997179 
L 440.84218 -101.558786 
L 439.345001 -103.120392 
L 437.586996 -104.681998 
L 435.605313 -106.243605 
L 433.4658 -107.805211 
L 431.260675 -109.366817 
L 429.101625 -110.928424 
L 427.108824 -112.49003 
L 425.397328 -114.051636 
L 424.063013 -115.613243 
L 423.170512 -117.174849 
L 422.745325 -118.736455 
L 422.771521 -120.298061 
L 423.195337 -121.859668 
L 423.933852 -123.421274 
L 424.887 -124.98288 
L 425.950704 -126.544487 
L 427.028935 -128.106093 
L 428.042963 -129.667699 
L 428.936785 -131.229306 
L 429.678555 -132.790912 
L 430.258524 -134.352518 
L 430.684481 -135.914125 
L 430.975895 -137.475731 
L 431.157871 -139.037337 
L 431.255828 -140.598944 
L 431.291468 -142.16055 
L 431.280303 -143.722156 
L 431.230722 -145.283763 
L 431.144425 -146.845369 
L 431.017922 -148.406975 
L 430.844764 -149.968582 
L 430.61812 -151.530188 
L 430.333325 -153.091794 
L 429.990045 -154.653401 
L 429.593751 -156.215007 
L 429.156305 -157.776613 
L 428.695576 -159.338219 
L 428.234157 -160.899826 
L 427.797385 -162.461432 
L 427.410909 -164.023038 
L 427.098146 -165.584645 
L 426.877916 -167.146251 
L 426.762545 -168.707857 
L 426.756683 -170.269464 
L 426.857021 -171.83107 
L 427.053008 -173.392676 
L 427.328514 -174.954283 
L 427.664267 -176.515889 
L 428.040666 -178.077495 
L 428.440521 -179.639102 
L 428.851195 -181.200708 
L 429.26578 -182.762314 
L 429.683105 -184.323921 
L 430.106662 -185.885527 
L 430.542761 -187.447133 
L 430.99839 -189.00874 
L 431.479269 -190.570346 
L 431.988488 -192.131952 
L 432.525921 -193.693559 
L 433.088409 -195.255165 
L 433.670524 -196.816771 
L 434.265612 -198.378377 
L 434.866842 -199.939984 
L 435.468027 -201.50159 
L 436.064089 -203.063196 
L 436.651179 -204.624803 
L 437.22652 -206.186409 
L 437.788098 -207.748015 
L 438.334344 -209.309622 
L 438.863905 -210.871228 
L 439.375545 -212.432834 
L 439.868181 -213.994441 
L 440.34099 -215.556047 
L 440.79351 -217.117653 
L 441.225681 -218.67926 
L 441.637763 -220.240866 
L 442.030161 -221.802472 
L 442.403191 -223.364079 
L 442.756854 -224.925685 
L 443.090694 -226.487291 
L 443.403774 -228.048898 
L 443.69478 -229.610504 
L 443.962226 -231.17211 
L 444.204711 -232.733717 
L 444.421175 -234.295323 
L 444.611103 -235.856929 
L 444.774652 -237.418535 
L 444.912687 -238.980142 
L 445.026738 -240.541748 
L 445.118886 -242.103354 
L 445.191614 -243.664961 
L 445.247627 -245.226567 
L 445.289683 -246.788173 
L 445.320437 -248.34978 
L 445.342321 -249.911386 
L 445.426758 -249.911386 
L 445.426758 -249.911386 
L 445.448642 -248.34978 
L 445.479396 -246.788173 
L 445.521452 -245.226567 
L 445.577465 -243.664961 
L 445.650193 -242.103354 
L 445.742341 -240.541748 
L 445.856392 -238.980142 
L 445.994427 -237.418535 
L 446.157976 -235.856929 
L 446.347904 -234.295323 
L 446.564368 -232.733717 
L 446.806853 -231.17211 
L 447.074299 -229.610504 
L 447.365305 -228.048898 
L 447.678385 -226.487291 
L 448.012225 -224.925685 
L 448.365888 -223.364079 
L 448.738918 -221.802472 
L 449.131316 -220.240866 
L 449.543398 -218.67926 
L 449.975569 -217.117653 
L 450.428089 -215.556047 
L 450.900898 -213.994441 
L 451.393534 -212.432834 
L 451.905174 -210.871228 
L 452.434735 -209.309622 
L 452.980981 -207.748015 
L 453.542559 -206.186409 
L 454.1179 -204.624803 
L 454.70499 -203.063196 
L 455.301052 -201.50159 
L 455.902236 -199.939984 
L 456.503467 -198.378377 
L 457.098555 -196.816771 
L 457.68067 -195.255165 
L 458.243158 -193.693559 
L 458.780591 -192.131952 
L 459.28981 -190.570346 
L 459.770689 -189.00874 
L 460.226318 -187.447133 
L 460.662417 -185.885527 
L 461.085974 -184.323921 
L 461.503299 -182.762314 
L 461.917884 -181.200708 
L 462.328558 -179.639102 
L 462.728412 -178.077495 
L 463.104812 -176.515889 
L 463.440565 -174.954283 
L 463.716071 -173.392676 
L 463.912058 -171.83107 
L 464.012396 -170.269464 
L 464.006534 -168.707857 
L 463.891163 -167.146251 
L 463.670933 -165.584645 
L 463.35817 -164.023038 
L 462.971694 -162.461432 
L 462.534922 -160.899826 
L 462.073503 -159.338219 
L 461.612774 -157.776613 
L 461.175328 -156.215007 
L 460.779034 -154.653401 
L 460.435754 -153.091794 
L 460.150959 -151.530188 
L 459.924315 -149.968582 
L 459.751157 -148.406975 
L 459.624654 -146.845369 
L 459.538357 -145.283763 
L 459.488776 -143.722156 
L 459.477611 -142.16055 
L 459.513251 -140.598944 
L 459.611208 -139.037337 
L 459.793184 -137.475731 
L 460.084598 -135.914125 
L 460.510555 -134.352518 
L 461.090524 -132.790912 
L 461.832294 -131.229306 
L 462.726116 -129.667699 
L 463.740144 -128.106093 
L 464.818375 -126.544487 
L 465.882078 -124.98288 
L 466.835226 -123.421274 
L 467.573742 -121.859668 
L 467.997558 -120.298061 
L 468.023754 -118.736455 
L 467.598567 -117.174849 
L 466.706066 -115.613243 
L 465.371751 -114.051636 
L 463.660255 -112.49003 
L 461.667454 -110.928424 
L 459.508404 -109.366817 
L 457.303279 -107.805211 
L 455.163766 -106.243605 
L 453.182083 -104.681998 
L 451.424078 -103.120392 
L 449.926899 -101.558786 
L 448.700817 -99.997179 
L 447.734113 -98.435573 
L 446.999594 -96.873967 
L 446.461372 -95.31236 
z
" id="m764e9cd3ce" style="stroke:#373737;stroke-width:1.5;"/>
    </defs>
    <g clip-path="url(#pc5d4f539b8)">
     <use style="fill:#2b8e70;stroke:#373737;stroke-width:1.5;" x="0" xlink:href="#m764e9cd3ce" y="540.169"/>
    </g>
   </g>
   <g id="PolyCollection_8">
    <defs>
     <path d="M 491.654769 -88.35206 
L 489.671168 -88.35206 
L 489.089385 -90.976136 
L 488.273051 -93.600212 
L 487.187615 -96.224287 
L 485.822921 -98.848363 
L 484.205425 -101.472439 
L 482.406173 -104.096514 
L 480.540697 -106.72059 
L 478.758454 -109.344666 
L 477.222131 -111.968742 
L 476.080448 -114.592817 
L 475.440683 -117.216893 
L 475.347947 -119.840969 
L 475.776798 -122.465045 
L 476.637365 -125.08912 
L 477.794092 -127.713196 
L 479.091878 -130.337272 
L 480.38291 -132.961348 
L 481.548156 -135.585423 
L 482.509828 -138.209499 
L 483.234016 -140.833575 
L 483.725195 -143.45765 
L 484.015675 -146.081726 
L 484.153326 -148.705802 
L 484.190239 -151.329878 
L 484.173972 -153.953953 
L 484.142045 -156.578029 
L 484.119554 -159.202105 
L 484.11929 -161.826181 
L 484.143473 -164.450256 
L 484.186118 -167.074332 
L 484.235179 -169.698408 
L 484.27394 -172.322484 
L 484.281569 -174.946559 
L 484.233304 -177.570635 
L 484.101055 -180.194711 
L 483.8553 -182.818786 
L 483.468819 -185.442862 
L 482.922146 -188.066938 
L 482.209898 -190.691014 
L 481.346441 -193.315089 
L 480.369128 -195.939165 
L 479.337577 -198.563241 
L 478.328217 -201.187317 
L 477.424466 -203.811392 
L 476.704107 -206.435468 
L 476.226326 -209.059544 
L 476.021278 -211.68362 
L 476.084661 -214.307695 
L 476.378765 -216.931771 
L 476.839958 -219.555847 
L 477.39108 -222.179923 
L 477.956032 -224.803998 
L 478.473405 -227.428074 
L 478.906302 -230.05215 
L 479.246555 -232.676225 
L 479.512893 -235.300301 
L 479.744003 -237.924377 
L 479.9884 -240.548453 
L 480.29351 -243.172528 
L 480.696173 -245.796604 
L 481.21622 -248.42068 
L 481.853896 -251.044756 
L 482.591072 -253.668831 
L 483.39547 -256.292907 
L 484.226733 -258.916983 
L 485.043013 -261.541059 
L 485.806937 -264.165134 
L 486.490074 -266.78921 
L 487.075445 -269.413286 
L 487.557997 -272.037361 
L 487.94327 -274.661437 
L 488.244735 -277.285513 
L 488.480397 -279.909589 
L 488.669297 -282.533664 
L 488.828484 -285.15774 
L 488.970887 -287.781816 
L 489.104313 -290.405892 
L 489.231584 -293.029967 
L 489.351621 -295.654043 
L 489.461131 -298.278119 
L 489.556492 -300.902195 
L 489.63541 -303.52627 
L 489.698029 -306.150346 
L 489.747268 -308.774422 
L 489.788377 -311.398497 
L 489.827847 -314.022573 
L 489.871991 -316.646649 
L 489.925577 -319.270725 
L 489.99085 -321.8948 
L 490.067203 -324.518876 
L 490.151509 -327.142952 
L 490.238994 -329.767028 
L 490.324355 -332.391103 
L 490.402826 -335.015179 
L 490.470944 -337.639255 
L 490.526898 -340.263331 
L 490.570466 -342.887406 
L 490.602669 -345.511482 
L 490.625292 -348.135558 
L 490.700645 -348.135558 
L 490.700645 -348.135558 
L 490.723268 -345.511482 
L 490.755471 -342.887406 
L 490.799039 -340.263331 
L 490.854993 -337.639255 
L 490.923111 -335.015179 
L 491.001582 -332.391103 
L 491.086943 -329.767028 
L 491.174428 -327.142952 
L 491.258734 -324.518876 
L 491.335087 -321.8948 
L 491.40036 -319.270725 
L 491.453946 -316.646649 
L 491.49809 -314.022573 
L 491.53756 -311.398497 
L 491.578669 -308.774422 
L 491.627908 -306.150346 
L 491.690527 -303.52627 
L 491.769445 -300.902195 
L 491.864806 -298.278119 
L 491.974316 -295.654043 
L 492.094353 -293.029967 
L 492.221624 -290.405892 
L 492.35505 -287.781816 
L 492.497453 -285.15774 
L 492.65664 -282.533664 
L 492.84554 -279.909589 
L 493.081202 -277.285513 
L 493.382667 -274.661437 
L 493.76794 -272.037361 
L 494.250492 -269.413286 
L 494.835863 -266.78921 
L 495.519 -264.165134 
L 496.282924 -261.541059 
L 497.099204 -258.916983 
L 497.930467 -256.292907 
L 498.734865 -253.668831 
L 499.472041 -251.044756 
L 500.109717 -248.42068 
L 500.629764 -245.796604 
L 501.032427 -243.172528 
L 501.337537 -240.548453 
L 501.581934 -237.924377 
L 501.813044 -235.300301 
L 502.079382 -232.676225 
L 502.419635 -230.05215 
L 502.852532 -227.428074 
L 503.369905 -224.803998 
L 503.934857 -222.179923 
L 504.485979 -219.555847 
L 504.947172 -216.931771 
L 505.241276 -214.307695 
L 505.304659 -211.68362 
L 505.099611 -209.059544 
L 504.62183 -206.435468 
L 503.901471 -203.811392 
L 502.99772 -201.187317 
L 501.98836 -198.563241 
L 500.956809 -195.939165 
L 499.979496 -193.315089 
L 499.116039 -190.691014 
L 498.403791 -188.066938 
L 497.857118 -185.442862 
L 497.470637 -182.818786 
L 497.224882 -180.194711 
L 497.092633 -177.570635 
L 497.044368 -174.946559 
L 497.051997 -172.322484 
L 497.090758 -169.698408 
L 497.139819 -167.074332 
L 497.182464 -164.450256 
L 497.206647 -161.826181 
L 497.206383 -159.202105 
L 497.183892 -156.578029 
L 497.151965 -153.953953 
L 497.135698 -151.329878 
L 497.172611 -148.705802 
L 497.310262 -146.081726 
L 497.600742 -143.45765 
L 498.091921 -140.833575 
L 498.816109 -138.209499 
L 499.777781 -135.585423 
L 500.943027 -132.961348 
L 502.234059 -130.337272 
L 503.531845 -127.713196 
L 504.688572 -125.08912 
L 505.549139 -122.465045 
L 505.97799 -119.840969 
L 505.885254 -117.216893 
L 505.245489 -114.592817 
L 504.103806 -111.968742 
L 502.567483 -109.344666 
L 500.78524 -106.72059 
L 498.919764 -104.096514 
L 497.120512 -101.472439 
L 495.503016 -98.848363 
L 494.138322 -96.224287 
L 493.052886 -93.600212 
L 492.236552 -90.976136 
L 491.654769 -88.35206 
z
" id="m77d34eca05" style="stroke:#373737;stroke-width:1.5;"/>
    </defs>
    <g clip-path="url(#pc5d4f539b8)">
     <use style="fill:#be631d;stroke:#373737;stroke-width:1.5;" x="0" xlink:href="#m77d34eca05" y="540.169"/>
    </g>
   </g>
   <g id="PolyCollection_9">
    <defs>
     <path d="M 559.485729 -96.802885 
L 557.675495 -96.802885 
L 557.134412 -98.47534 
L 556.360799 -100.147796 
L 555.305548 -101.820251 
L 553.933063 -103.492706 
L 552.232367 -105.165161 
L 550.226947 -106.837617 
L 547.980493 -108.510072 
L 545.596114 -110.182527 
L 543.207931 -111.854983 
L 540.965813 -113.527438 
L 539.015937 -115.199893 
L 537.481062 -116.872349 
L 536.444584 -118.544804 
L 535.941398 -120.217259 
L 535.956818 -121.889714 
L 536.432881 -123.56217 
L 537.279809 -125.234625 
L 538.389802 -126.90708 
L 539.650471 -128.579536 
L 540.956038 -130.251991 
L 542.215459 -131.924446 
L 543.357461 -133.596902 
L 544.332987 -135.269357 
L 545.11561 -136.941812 
L 545.700305 -138.614267 
L 546.100722 -140.286723 
L 546.344986 -141.959178 
L 546.470221 -143.631633 
L 546.516243 -145.304089 
L 546.519253 -146.976544 
L 546.506545 -148.648999 
L 546.493168 -150.321454 
L 546.481154 -151.99391 
L 546.461351 -153.666365 
L 546.417313 -155.33882 
L 546.330252 -157.011276 
L 546.183878 -158.683731 
L 545.96811 -160.356186 
L 545.681037 -162.028642 
L 545.329077 -163.701097 
L 544.925726 -165.373552 
L 544.489577 -167.046007 
L 544.042297 -168.718463 
L 543.606945 -170.390918 
L 543.206753 -172.063373 
L 542.864152 -173.735829 
L 542.599787 -175.408284 
L 542.431349 -177.080739 
L 542.372308 -178.753195 
L 542.430806 -180.42565 
L 542.609051 -182.098105 
L 542.903443 -183.77056 
L 543.305424 -185.443016 
L 543.802823 -187.115471 
L 544.381292 -188.787926 
L 545.025462 -190.460382 
L 545.719608 -192.132837 
L 546.447833 -193.805292 
L 547.194036 -195.477748 
L 547.941985 -197.150203 
L 548.675837 -198.822658 
L 549.381166 -200.495113 
L 550.046391 -202.167569 
L 550.664194 -203.840024 
L 551.232488 -205.512479 
L 551.754544 -207.184935 
L 552.238137 -208.85739 
L 552.693834 -210.529845 
L 553.13283 -212.202301 
L 553.564797 -213.874756 
L 553.996237 -215.547211 
L 554.429595 -217.219666 
L 554.863227 -218.892122 
L 555.292094 -220.564577 
L 555.708923 -222.237032 
L 556.105553 -223.909488 
L 556.474191 -225.581943 
L 556.808413 -227.254398 
L 557.103806 -228.926854 
L 557.358254 -230.599309 
L 557.571926 -232.271764 
L 557.74704 -233.944219 
L 557.887477 -235.616675 
L 557.99831 -237.28913 
L 558.085271 -238.961585 
L 558.154192 -240.634041 
L 558.210472 -242.306496 
L 558.258618 -243.978951 
L 558.301938 -245.651407 
L 558.342436 -247.323862 
L 558.380914 -248.996317 
L 558.417252 -250.668772 
L 558.450791 -252.341228 
L 558.480714 -254.013683 
L 558.506357 -255.686138 
L 558.527393 -257.358594 
L 558.543884 -259.031049 
L 558.556229 -260.703504 
L 558.565052 -262.37596 
L 558.596172 -262.37596 
L 558.596172 -262.37596 
L 558.604995 -260.703504 
L 558.61734 -259.031049 
L 558.633831 -257.358594 
L 558.654867 -255.686138 
L 558.68051 -254.013683 
L 558.710434 -252.341228 
L 558.743972 -250.668772 
L 558.78031 -248.996317 
L 558.818788 -247.323862 
L 558.859286 -245.651407 
L 558.902606 -243.978951 
L 558.950752 -242.306496 
L 559.007032 -240.634041 
L 559.075953 -238.961585 
L 559.162914 -237.28913 
L 559.273747 -235.616675 
L 559.414184 -233.944219 
L 559.589298 -232.271764 
L 559.80297 -230.599309 
L 560.057418 -228.926854 
L 560.352811 -227.254398 
L 560.687033 -225.581943 
L 561.055671 -223.909488 
L 561.452301 -222.237032 
L 561.86913 -220.564577 
L 562.297997 -218.892122 
L 562.731629 -217.219666 
L 563.164987 -215.547211 
L 563.596427 -213.874756 
L 564.028394 -212.202301 
L 564.46739 -210.529845 
L 564.923087 -208.85739 
L 565.40668 -207.184935 
L 565.928736 -205.512479 
L 566.49703 -203.840024 
L 567.114833 -202.167569 
L 567.780058 -200.495113 
L 568.485387 -198.822658 
L 569.219239 -197.150203 
L 569.967188 -195.477748 
L 570.713391 -193.805292 
L 571.441617 -192.132837 
L 572.135762 -190.460382 
L 572.779932 -188.787926 
L 573.358401 -187.115471 
L 573.8558 -185.443016 
L 574.257782 -183.77056 
L 574.552173 -182.098105 
L 574.730418 -180.42565 
L 574.788916 -178.753195 
L 574.729875 -177.080739 
L 574.561437 -175.408284 
L 574.297072 -173.735829 
L 573.954471 -172.063373 
L 573.554279 -170.390918 
L 573.118927 -168.718463 
L 572.671647 -167.046007 
L 572.235498 -165.373552 
L 571.832147 -163.701097 
L 571.480187 -162.028642 
L 571.193114 -160.356186 
L 570.977346 -158.683731 
L 570.830972 -157.011276 
L 570.743911 -155.33882 
L 570.699873 -153.666365 
L 570.68007 -151.99391 
L 570.668056 -150.321454 
L 570.654679 -148.648999 
L 570.641971 -146.976544 
L 570.644981 -145.304089 
L 570.691003 -143.631633 
L 570.816238 -141.959178 
L 571.060502 -140.286723 
L 571.460919 -138.614267 
L 572.045614 -136.941812 
L 572.828237 -135.269357 
L 573.803763 -133.596902 
L 574.945765 -131.924446 
L 576.205186 -130.251991 
L 577.510753 -128.579536 
L 578.771422 -126.90708 
L 579.881415 -125.234625 
L 580.728343 -123.56217 
L 581.204406 -121.889714 
L 581.219827 -120.217259 
L 580.71664 -118.544804 
L 579.680162 -116.872349 
L 578.145287 -115.199893 
L 576.195411 -113.527438 
L 573.953293 -111.854983 
L 571.56511 -110.182527 
L 569.180731 -108.510072 
L 566.934277 -106.837617 
L 564.928857 -105.165161 
L 563.228161 -103.492706 
L 561.855676 -101.820251 
L 560.800425 -100.147796 
L 560.026812 -98.47534 
L 559.485729 -96.802885 
z
" id="m7acfec32c4" style="stroke:#373737;stroke-width:1.5;"/>
    </defs>
    <g clip-path="url(#pc5d4f539b8)">
     <use style="fill:#2b8e70;stroke:#373737;stroke-width:1.5;" x="0" xlink:href="#m7acfec32c4" y="540.169"/>
    </g>
   </g>
   <g id="PolyCollection_10">
    <defs>
     <path d="M 604.663781 -88.971826 
L 603.054302 -88.971826 
L 602.49998 -91.841601 
L 601.685539 -94.711376 
L 600.566223 -97.581151 
L 599.131484 -100.450926 
L 597.423638 -103.320701 
L 595.548317 -106.190476 
L 593.669747 -109.060251 
L 591.987673 -111.930026 
L 590.699158 -114.799801 
L 589.955028 -117.669576 
L 589.824268 -120.539351 
L 590.278053 -123.409126 
L 591.198676 -126.278901 
L 592.410001 -129.148676 
L 593.719104 -132.018451 
L 594.956166 -134.888226 
L 596.002137 -137.758001 
L 596.799366 -140.627777 
L 597.346515 -143.497552 
L 597.683191 -146.367327 
L 597.870873 -149.237102 
L 597.975491 -152.106877 
L 598.054631 -154.976652 
L 598.150174 -157.846427 
L 598.285765 -160.716202 
L 598.46792 -163.585977 
L 598.689368 -166.455752 
L 598.93331 -169.325527 
L 599.177432 -172.195302 
L 599.396922 -175.065077 
L 599.566299 -177.934852 
L 599.660443 -180.804627 
L 599.655521 -183.674402 
L 599.530431 -186.544177 
L 599.268997 -189.413952 
L 598.862594 -192.283728 
L 598.312549 -195.153503 
L 597.631553 -198.023278 
L 596.843535 -200.893053 
L 595.981862 -203.762828 
L 595.086197 -206.632603 
L 594.198747 -209.502378 
L 593.360754 -212.372153 
L 592.609926 -215.241928 
L 591.979038 -218.111703 
L 591.495333 -220.981478 
L 591.179953 -223.851253 
L 591.046675 -226.721028 
L 591.099787 -229.590803 
L 591.33172 -232.460578 
L 591.72174 -235.330353 
L 592.237003 -238.200128 
L 592.83658 -241.069903 
L 593.477868 -243.939679 
L 594.123712 -246.809454 
L 594.74809 -249.679229 
L 595.338676 -252.549004 
L 595.895742 -255.418779 
L 596.428186 -258.288554 
L 596.948322 -261.158329 
L 597.467183 -264.028104 
L 597.991437 -266.897879 
L 598.522186 -269.767654 
L 599.055184 -272.637429 
L 599.581842 -275.507204 
L 600.090594 -278.376979 
L 600.568485 -281.246754 
L 601.003025 -284.116529 
L 601.384193 -286.986304 
L 601.706263 -289.856079 
L 601.96894 -292.725854 
L 602.177439 -295.595629 
L 602.341426 -298.465405 
L 602.473113 -301.33518 
L 602.585035 -304.204955 
L 602.688021 -307.07473 
L 602.789762 -309.944505 
L 602.894142 -312.81428 
L 603.001311 -315.684055 
L 603.108396 -318.55383 
L 603.210662 -321.423605 
L 603.302883 -324.29338 
L 603.380706 -327.163155 
L 603.441735 -330.03293 
L 603.486122 -332.902705 
L 603.516554 -335.77248 
L 603.537624 -338.642255 
L 603.55474 -341.51203 
L 603.572881 -344.381805 
L 603.595518 -347.25158 
L 603.624014 -350.121356 
L 603.657627 -352.991131 
L 603.694062 -355.860906 
L 603.730329 -358.730681 
L 603.763613 -361.600456 
L 603.791908 -364.470231 
L 603.814273 -367.340006 
L 603.830761 -370.209781 
L 603.842127 -373.079556 
L 603.875955 -373.079556 
L 603.875955 -373.079556 
L 603.887321 -370.209781 
L 603.90381 -367.340006 
L 603.926174 -364.470231 
L 603.954469 -361.600456 
L 603.987753 -358.730681 
L 604.02402 -355.860906 
L 604.060455 -352.991131 
L 604.094068 -350.121356 
L 604.122564 -347.25158 
L 604.145201 -344.381805 
L 604.163342 -341.51203 
L 604.180458 -338.642255 
L 604.201528 -335.77248 
L 604.23196 -332.902705 
L 604.276347 -330.03293 
L 604.337376 -327.163155 
L 604.415199 -324.29338 
L 604.50742 -321.423605 
L 604.609686 -318.55383 
L 604.716771 -315.684055 
L 604.82394 -312.81428 
L 604.92832 -309.944505 
L 605.030061 -307.07473 
L 605.133047 -304.204955 
L 605.244969 -301.33518 
L 605.376657 -298.465405 
L 605.540643 -295.595629 
L 605.749142 -292.725854 
L 606.011819 -289.856079 
L 606.333889 -286.986304 
L 606.715058 -284.116529 
L 607.149597 -281.246754 
L 607.627488 -278.376979 
L 608.13624 -275.507204 
L 608.662898 -272.637429 
L 609.195896 -269.767654 
L 609.726645 -266.897879 
L 610.2509 -264.028104 
L 610.76976 -261.158329 
L 611.289896 -258.288554 
L 611.82234 -255.418779 
L 612.379406 -252.549004 
L 612.969992 -249.679229 
L 613.59437 -246.809454 
L 614.240214 -243.939679 
L 614.881502 -241.069903 
L 615.481079 -238.200128 
L 615.996342 -235.330353 
L 616.386362 -232.460578 
L 616.618295 -229.590803 
L 616.671407 -226.721028 
L 616.538129 -223.851253 
L 616.222749 -220.981478 
L 615.739044 -218.111703 
L 615.108157 -215.241928 
L 614.357328 -212.372153 
L 613.519335 -209.502378 
L 612.631886 -206.632603 
L 611.73622 -203.762828 
L 610.874547 -200.893053 
L 610.086529 -198.023278 
L 609.405533 -195.153503 
L 608.855488 -192.283728 
L 608.449085 -189.413952 
L 608.187651 -186.544177 
L 608.062562 -183.674402 
L 608.057639 -180.804627 
L 608.151784 -177.934852 
L 608.321161 -175.065077 
L 608.54065 -172.195302 
L 608.784772 -169.325527 
L 609.028714 -166.455752 
L 609.250162 -163.585977 
L 609.432317 -160.716202 
L 609.567908 -157.846427 
L 609.663451 -154.976652 
L 609.742591 -152.106877 
L 609.847209 -149.237102 
L 610.034891 -146.367327 
L 610.371567 -143.497552 
L 610.918716 -140.627777 
L 611.715945 -137.758001 
L 612.761916 -134.888226 
L 613.998978 -132.018451 
L 615.308081 -129.148676 
L 616.519406 -126.278901 
L 617.440029 -123.409126 
L 617.893815 -120.539351 
L 617.763054 -117.669576 
L 617.018925 -114.799801 
L 615.730409 -111.930026 
L 614.048335 -109.060251 
L 612.169765 -106.190476 
L 610.294444 -103.320701 
L 608.586598 -100.450926 
L 607.151859 -97.581151 
L 606.032543 -94.711376 
L 605.218102 -91.841601 
L 604.663781 -88.971826 
z
" id="m0b2501fe92" style="stroke:#373737;stroke-width:1.5;"/>
    </defs>
    <g clip-path="url(#pc5d4f539b8)">
     <use style="fill:#be631d;stroke:#373737;stroke-width:1.5;" x="0" xlink:href="#m0b2501fe92" y="540.169"/>
    </g>
   </g>
   <g id="patch_3">
    <path clip-path="url(#pc5d4f539b8)" d="M 128.435536 427.946887 
L 128.435536 427.946887 
L 128.435536 427.946887 
L 128.435536 427.946887 
z
" style="fill:#2b8e70;stroke:#373737;stroke-linejoin:miter;stroke-width:0.75;"/>
   </g>
   <g id="patch_4">
    <path clip-path="url(#pc5d4f539b8)" d="M 128.435536 427.946887 
L 128.435536 427.946887 
L 128.435536 427.946887 
L 128.435536 427.946887 
z
" style="fill:#be631d;stroke:#373737;stroke-linejoin:miter;stroke-width:0.75;"/>
   </g>
   <g id="line2d_1">
    <path clip-path="url(#pc5d4f539b8)" d="M 105.796322 426.711923 
L 105.796322 262.338157 
" style="fill:none;stroke:#373737;stroke-linecap:round;stroke-width:1.5;"/>
   </g>
   <g id="line2d_2">
    <path clip-path="url(#pc5d4f539b8)" d="M 105.796322 419.333011 
L 105.796322 356.31895 
" style="fill:none;stroke:#373737;stroke-linecap:round;stroke-width:4.5;"/>
   </g>
   <g id="line2d_3">
    <path clip-path="url(#pc5d4f539b8)" d="M 151.074751 425.229966 
L 151.074751 74.129578 
" style="fill:none;stroke:#373737;stroke-linecap:round;stroke-width:1.5;"/>
   </g>
   <g id="line2d_4">
    <path clip-path="url(#pc5d4f539b8)" d="M 151.074751 405.841024 
L 151.074751 245.357396 
" style="fill:none;stroke:#373737;stroke-linecap:round;stroke-width:4.5;"/>
   </g>
   <g id="line2d_5">
    <path clip-path="url(#pc5d4f539b8)" d="M 218.992394 425.723951 
L 218.992394 232.452018 
" style="fill:none;stroke:#373737;stroke-linecap:round;stroke-width:1.5;"/>
   </g>
   <g id="line2d_6">
    <path clip-path="url(#pc5d4f539b8)" d="M 218.992394 417.264445 
L 218.992394 339.49256 
" style="fill:none;stroke:#373737;stroke-linecap:round;stroke-width:4.5;"/>
   </g>
   <g id="line2d_7">
    <path clip-path="url(#pc5d4f539b8)" d="M 264.270823 425.106469 
L 264.270823 87.343697 
" style="fill:none;stroke:#373737;stroke-linecap:round;stroke-width:1.5;"/>
   </g>
   <g id="line2d_8">
    <path clip-path="url(#pc5d4f539b8)" d="M 264.270823 408.06396 
L 264.270823 228.901495 
" style="fill:none;stroke:#373737;stroke-linecap:round;stroke-width:4.5;"/>
   </g>
   <g id="line2d_9">
    <path clip-path="url(#pc5d4f539b8)" d="M 332.188467 427.699895 
L 332.188467 286.913949 
" style="fill:none;stroke:#373737;stroke-linecap:round;stroke-width:1.5;"/>
   </g>
   <g id="line2d_10">
    <path clip-path="url(#pc5d4f539b8)" d="M 332.188467 419.672626 
L 332.188467 365.581184 
" style="fill:none;stroke:#373737;stroke-linecap:round;stroke-width:4.5;"/>
   </g>
   <g id="line2d_11">
    <path clip-path="url(#pc5d4f539b8)" d="M 377.466896 427.329405 
L 377.466896 255.669349 
" style="fill:none;stroke:#373737;stroke-linecap:round;stroke-width:1.5;"/>
   </g>
   <g id="line2d_12">
    <path clip-path="url(#pc5d4f539b8)" d="M 377.466896 413.405181 
L 377.466896 299.75758 
" style="fill:none;stroke:#373737;stroke-linecap:round;stroke-width:4.5;"/>
   </g>
   <g id="line2d_13">
    <path clip-path="url(#pc5d4f539b8)" d="M 445.384539 427.699895 
L 445.384539 307.414359 
" style="fill:none;stroke:#373737;stroke-linecap:round;stroke-width:1.5;"/>
   </g>
   <g id="line2d_14">
    <path clip-path="url(#pc5d4f539b8)" d="M 445.384539 416.122103 
L 445.384539 359.99297 
" style="fill:none;stroke:#373737;stroke-linecap:round;stroke-width:4.5;"/>
   </g>
   <g id="line2d_15">
    <path clip-path="url(#pc5d4f539b8)" d="M 490.662968 427.329405 
L 490.662968 216.520977 
" style="fill:none;stroke:#373737;stroke-linecap:round;stroke-width:1.5;"/>
   </g>
   <g id="line2d_16">
    <path clip-path="url(#pc5d4f539b8)" d="M 490.662968 414.238782 
L 490.662968 313.095195 
" style="fill:none;stroke:#373737;stroke-linecap:round;stroke-width:4.5;"/>
   </g>
   <g id="line2d_17">
    <path clip-path="url(#pc5d4f539b8)" d="M 558.580612 427.576398 
L 558.580612 293.582757 
" style="fill:none;stroke:#373737;stroke-linecap:round;stroke-width:1.5;"/>
   </g>
   <g id="line2d_18">
    <path clip-path="url(#pc5d4f539b8)" d="M 558.580612 415.967732 
L 558.580612 358.541886 
" style="fill:none;stroke:#373737;stroke-linecap:round;stroke-width:4.5;"/>
   </g>
   <g id="line2d_19">
    <path clip-path="url(#pc5d4f539b8)" d="M 603.859041 427.329405 
L 603.859041 190.957213 
" style="fill:none;stroke:#373737;stroke-linecap:round;stroke-width:1.5;"/>
   </g>
   <g id="line2d_20">
    <path clip-path="url(#pc5d4f539b8)" d="M 603.859041 414.115286 
L 603.859041 304.450444 
" style="fill:none;stroke:#373737;stroke-linecap:round;stroke-width:4.5;"/>
   </g>
   <g id="patch_5">
    <path d="M 71.8375 492.704 
L 71.8375 7.2 
" style="fill:none;stroke:#262626;stroke-linecap:square;stroke-linejoin:miter;stroke-width:0.8;"/>
   </g>
   <g id="patch_6">
    <path d="M 71.8375 492.704 
L 637.817863 492.704 
" style="fill:none;stroke:#262626;stroke-linecap:square;stroke-linejoin:miter;stroke-width:0.8;"/>
   </g>
   <g id="PathCollection_1">
    <defs>
     <path d="M 0 1.5 
C 0.397805 1.5 0.77937 1.341951 1.06066 1.06066 
C 1.341951 0.77937 1.5 0.397805 1.5 0 
C 1.5 -0.397805 1.341951 -0.77937 1.06066 -1.06066 
C 0.77937 -1.341951 0.397805 -1.5 0 -1.5 
C -0.397805 -1.5 -0.77937 -1.341951 -1.06066 -1.06066 
C -1.341951 -0.77937 -1.5 -0.397805 -1.5 0 
C -1.5 0.397805 -1.341951 0.77937 -1.06066 1.06066 
C -0.77937 1.341951 -0.397805 1.5 0 1.5 
z
" id="m6bdb95b292" style="stroke:#373737;"/>
    </defs>
    <g clip-path="url(#pc5d4f539b8)">
     <use style="fill:#ffffff;stroke:#373737;" x="105.796322" xlink:href="#m6bdb95b292" y="382.808938"/>
    </g>
   </g>
   <g id="PathCollection_2">
    <g clip-path="url(#pc5d4f539b8)">
     <use style="fill:#ffffff;stroke:#373737;" x="151.074751" xlink:href="#m6bdb95b292" y="289.383878"/>
    </g>
   </g>
   <g id="PathCollection_3">
    <g clip-path="url(#pc5d4f539b8)">
     <use style="fill:#ffffff;stroke:#373737;" x="218.992394" xlink:href="#m6bdb95b292" y="375.831388"/>
    </g>
   </g>
   <g id="PathCollection_4">
    <g clip-path="url(#pc5d4f539b8)">
     <use style="fill:#ffffff;stroke:#373737;" x="264.270823" xlink:href="#m6bdb95b292" y="276.046262"/>
    </g>
   </g>
   <g id="PathCollection_5">
    <g clip-path="url(#pc5d4f539b8)">
     <use style="fill:#ffffff;stroke:#373737;" x="332.188467" xlink:href="#m6bdb95b292" y="396.578791"/>
    </g>
   </g>
   <g id="PathCollection_6">
    <g clip-path="url(#pc5d4f539b8)">
     <use style="fill:#ffffff;stroke:#373737;" x="377.466896" xlink:href="#m6bdb95b292" y="356.133706"/>
    </g>
   </g>
   <g id="PathCollection_7">
    <g clip-path="url(#pc5d4f539b8)">
     <use style="fill:#ffffff;stroke:#373737;" x="445.384539" xlink:href="#m6bdb95b292" y="382.685441"/>
    </g>
   </g>
   <g id="PathCollection_8">
    <g clip-path="url(#pc5d4f539b8)">
     <use style="fill:#ffffff;stroke:#373737;" x="490.662968" xlink:href="#m6bdb95b292" y="340.140916"/>
    </g>
   </g>
   <g id="PathCollection_9">
    <g clip-path="url(#pc5d4f539b8)">
     <use style="fill:#ffffff;stroke:#373737;" x="558.580612" xlink:href="#m6bdb95b292" y="386.637327"/>
    </g>
   </g>
   <g id="PathCollection_10">
    <g clip-path="url(#pc5d4f539b8)">
     <use style="fill:#ffffff;stroke:#373737;" x="603.859041" xlink:href="#m6bdb95b292" y="333.719101"/>
    </g>
   </g>
  </g>
  <g id="legend_1">
   <g id="text_16">
    <!-- workday -->
    <defs>
     <path d="M 16.15625 0 
L 0.296875 51.859375 
L 9.375 51.859375 
L 17.625 21.921875 
L 20.703125 10.796875 
Q 20.90625 11.625 23.390625 21.484375 
L 31.640625 51.859375 
L 40.671875 51.859375 
L 48.4375 21.78125 
L 51.03125 11.859375 
L 54 21.875 
L 62.890625 51.859375 
L 71.4375 51.859375 
L 55.21875 0 
L 46.09375 0 
L 37.84375 31.0625 
L 35.84375 39.890625 
L 25.34375 0 
z
" id="ArialMT-119"/>
     <path d="M 6.640625 0 
L 6.640625 71.578125 
L 15.4375 71.578125 
L 15.4375 30.765625 
L 36.234375 51.859375 
L 47.609375 51.859375 
L 27.78125 32.625 
L 49.609375 0 
L 38.765625 0 
L 21.625 26.515625 
L 15.4375 20.5625 
L 15.4375 0 
z
" id="ArialMT-107"/>
     <path d="M 40.4375 6.390625 
Q 35.546875 2.25 31.03125 0.53125 
Q 26.515625 -1.171875 21.34375 -1.171875 
Q 12.796875 -1.171875 8.203125 3 
Q 3.609375 7.171875 3.609375 13.671875 
Q 3.609375 17.484375 5.34375 20.625 
Q 7.078125 23.78125 9.890625 25.6875 
Q 12.703125 27.59375 16.21875 28.5625 
Q 18.796875 29.25 24.03125 29.890625 
Q 34.671875 31.15625 39.703125 32.90625 
Q 39.75 34.71875 39.75 35.203125 
Q 39.75 40.578125 37.25 42.78125 
Q 33.890625 45.75 27.25 45.75 
Q 21.046875 45.75 18.09375 43.578125 
Q 15.140625 41.40625 13.71875 35.890625 
L 5.125 37.0625 
Q 6.296875 42.578125 8.984375 45.96875 
Q 11.671875 49.359375 16.75 51.1875 
Q 21.828125 53.03125 28.515625 53.03125 
Q 35.15625 53.03125 39.296875 51.46875 
Q 43.453125 49.90625 45.40625 47.53125 
Q 47.359375 45.171875 48.140625 41.546875 
Q 48.578125 39.3125 48.578125 33.453125 
L 48.578125 21.734375 
Q 48.578125 9.46875 49.140625 6.21875 
Q 49.703125 2.984375 51.375 0 
L 42.1875 0 
Q 40.828125 2.734375 40.4375 6.390625 
z
M 39.703125 26.03125 
Q 34.90625 24.078125 25.34375 22.703125 
Q 19.921875 21.921875 17.671875 20.9375 
Q 15.4375 19.96875 14.203125 18.09375 
Q 12.984375 16.21875 12.984375 13.921875 
Q 12.984375 10.40625 15.640625 8.0625 
Q 18.3125 5.71875 23.4375 5.71875 
Q 28.515625 5.71875 32.46875 7.9375 
Q 36.421875 10.15625 38.28125 14.015625 
Q 39.703125 17 39.703125 22.796875 
z
" id="ArialMT-97"/>
     <path d="M 6.203125 -19.96875 
L 5.21875 -11.71875 
Q 8.109375 -12.5 10.25 -12.5 
Q 13.1875 -12.5 14.9375 -11.515625 
Q 16.703125 -10.546875 17.828125 -8.796875 
Q 18.65625 -7.46875 20.515625 -2.25 
Q 20.75 -1.515625 21.296875 -0.09375 
L 1.609375 51.859375 
L 11.078125 51.859375 
L 21.875 21.828125 
Q 23.96875 16.109375 25.640625 9.8125 
Q 27.15625 15.875 29.25 21.625 
L 40.328125 51.859375 
L 49.125 51.859375 
L 29.390625 -0.875 
Q 26.21875 -9.421875 24.46875 -12.640625 
Q 22.125 -17 19.09375 -19.015625 
Q 16.0625 -21.046875 11.859375 -21.046875 
Q 9.328125 -21.046875 6.203125 -19.96875 
z
" id="ArialMT-121"/>
    </defs>
    <g style="fill:#262626;" transform="translate(716.3905 251.4945)scale(0.16 -0.16)">
     <use xlink:href="#ArialMT-119"/>
     <use x="72.216797" xlink:href="#ArialMT-111"/>
     <use x="127.832031" xlink:href="#ArialMT-114"/>
     <use x="161.132812" xlink:href="#ArialMT-107"/>
     <use x="211.132812" xlink:href="#ArialMT-100"/>
     <use x="266.748047" xlink:href="#ArialMT-97"/>
     <use x="322.363281" xlink:href="#ArialMT-121"/>
    </g>
   </g>
   <g id="patch_7">
    <path d="M 719.32925 274.3145 
L 751.32925 274.3145 
L 751.32925 263.1145 
L 719.32925 263.1145 
z
" style="fill:#2b8e70;stroke:#373737;stroke-linejoin:miter;stroke-width:0.75;"/>
   </g>
   <g id="text_17">
    <!-- 0 -->
    <g style="fill:#262626;" transform="translate(764.12925 274.3145)scale(0.16 -0.16)">
     <use xlink:href="#ArialMT-48"/>
    </g>
   </g>
   <g id="patch_8">
    <path d="M 719.32925 296.947 
L 751.32925 296.947 
L 751.32925 285.747 
L 719.32925 285.747 
z
" style="fill:#be631d;stroke:#373737;stroke-linejoin:miter;stroke-width:0.75;"/>
   </g>
   <g id="text_18">
    <!-- 1 -->
    <g style="fill:#262626;" transform="translate(764.12925 296.947)scale(0.16 -0.16)">
     <use xlink:href="#ArialMT-49"/>
    </g>
   </g>
  </g>
 </g>
 <defs>
  <clipPath id="pc5d4f539b8">
   <rect height="485.504" width="565.980363" x="71.8375" y="7.2"/>
  </clipPath>
 </defs>
</svg>
