<?xml version="1.0" encoding="utf-8" standalone="no"?>
<!DOCTYPE svg PUBLIC "-//W3C//DTD SVG 1.1//EN"
  "http://www.w3.org/Graphics/SVG/1.1/DTD/svg11.dtd">
<!-- Created with matplotlib (https://matplotlib.org/) -->
<svg height="540.169pt" version="1.1" viewBox="0 0 791.118 540.169" width="791.118pt" xmlns="http://www.w3.org/2000/svg" xmlns:xlink="http://www.w3.org/1999/xlink">
 <defs>
  <style type="text/css">
*{stroke-linecap:butt;stroke-linejoin:round;white-space:pre;}
  </style>
 </defs>
 <g id="figure_1">
  <g id="patch_1">
   <path d="M 0 540.169 
L 791.118 540.169 
L 791.118 0 
L 0 0 
z
" style="fill:#ffffff;"/>
  </g>
  <g id="axes_1">
   <g id="patch_2">
    <path d="M 71.39 492.704 
L 638.570363 492.704 
L 638.570363 7.2 
L 71.39 7.2 
z
" style="fill:#ffffff;"/>
   </g>
   <g id="matplotlib.axis_1">
    <g id="xtick_1">
     <g id="text_1">
      <!-- 0174 -->
      <defs>
       <path d="M 4.15625 35.296875 
Q 4.15625 48 6.765625 55.734375 
Q 9.375 63.484375 14.515625 67.671875 
Q 19.671875 71.875 27.484375 71.875 
Q 33.25 71.875 37.59375 69.546875 
Q 41.9375 67.234375 44.765625 62.859375 
Q 47.609375 58.5 49.21875 52.21875 
Q 50.828125 45.953125 50.828125 35.296875 
Q 50.828125 22.703125 48.234375 14.96875 
Q 45.65625 7.234375 40.5 3 
Q 35.359375 -1.21875 27.484375 -1.21875 
Q 17.140625 -1.21875 11.234375 6.203125 
Q 4.15625 15.140625 4.15625 35.296875 
z
M 13.1875 35.296875 
Q 13.1875 17.671875 17.3125 11.828125 
Q 21.4375 6 27.484375 6 
Q 33.546875 6 37.671875 11.859375 
Q 41.796875 17.71875 41.796875 35.296875 
Q 41.796875 52.984375 37.671875 58.78125 
Q 33.546875 64.59375 27.390625 64.59375 
Q 21.34375 64.59375 17.71875 59.46875 
Q 13.1875 52.9375 13.1875 35.296875 
z
" id="ArialMT-48"/>
       <path d="M 37.25 0 
L 28.46875 0 
L 28.46875 56 
Q 25.296875 52.984375 20.140625 49.953125 
Q 14.984375 46.921875 10.890625 45.40625 
L 10.890625 53.90625 
Q 18.265625 57.375 23.78125 62.296875 
Q 29.296875 67.234375 31.59375 71.875 
L 37.25 71.875 
z
" id="ArialMT-49"/>
       <path d="M 4.734375 62.203125 
L 4.734375 70.65625 
L 51.078125 70.65625 
L 51.078125 63.8125 
Q 44.234375 56.546875 37.515625 44.484375 
Q 30.8125 32.421875 27.15625 19.671875 
Q 24.515625 10.6875 23.78125 0 
L 14.75 0 
Q 14.890625 8.453125 18.0625 20.40625 
Q 21.234375 32.375 27.171875 43.484375 
Q 33.109375 54.59375 39.796875 62.203125 
z
" id="ArialMT-55"/>
       <path d="M 32.328125 0 
L 32.328125 17.140625 
L 1.265625 17.140625 
L 1.265625 25.203125 
L 33.9375 71.578125 
L 41.109375 71.578125 
L 41.109375 25.203125 
L 50.78125 25.203125 
L 50.78125 17.140625 
L 41.109375 17.140625 
L 41.109375 0 
z
M 32.328125 25.203125 
L 32.328125 57.46875 
L 9.90625 25.203125 
z
" id="ArialMT-52"/>
      </defs>
      <g style="fill:#262626;" transform="translate(110.313036 511.1565)scale(0.16 -0.16)">
       <use xlink:href="#ArialMT-48"/>
       <use x="55.615234" xlink:href="#ArialMT-49"/>
       <use x="111.230469" xlink:href="#ArialMT-55"/>
       <use x="166.845703" xlink:href="#ArialMT-52"/>
      </g>
     </g>
    </g>
    <g id="xtick_2">
     <g id="text_2">
      <!-- 0174-1 -->
      <defs>
       <path d="M 3.171875 21.484375 
L 3.171875 30.328125 
L 30.171875 30.328125 
L 30.171875 21.484375 
z
" id="ArialMT-45"/>
      </defs>
      <g style="fill:#262626;" transform="translate(216.636609 511.1565)scale(0.16 -0.16)">
       <use xlink:href="#ArialMT-48"/>
       <use x="55.615234" xlink:href="#ArialMT-49"/>
       <use x="111.230469" xlink:href="#ArialMT-55"/>
       <use x="166.845703" xlink:href="#ArialMT-52"/>
       <use x="222.460938" xlink:href="#ArialMT-45"/>
       <use x="255.761719" xlink:href="#ArialMT-49"/>
      </g>
     </g>
    </g>
    <g id="xtick_3">
     <g id="text_3">
      <!-- 0855 -->
      <defs>
       <path d="M 17.671875 38.8125 
Q 12.203125 40.828125 9.5625 44.53125 
Q 6.9375 48.25 6.9375 53.421875 
Q 6.9375 61.234375 12.546875 66.546875 
Q 18.171875 71.875 27.484375 71.875 
Q 36.859375 71.875 42.578125 66.421875 
Q 48.296875 60.984375 48.296875 53.171875 
Q 48.296875 48.1875 45.671875 44.5 
Q 43.0625 40.828125 37.75 38.8125 
Q 44.34375 36.671875 47.78125 31.875 
Q 51.21875 27.09375 51.21875 20.453125 
Q 51.21875 11.28125 44.71875 5.03125 
Q 38.234375 -1.21875 27.640625 -1.21875 
Q 17.046875 -1.21875 10.546875 5.046875 
Q 4.046875 11.328125 4.046875 20.703125 
Q 4.046875 27.6875 7.59375 32.390625 
Q 11.140625 37.109375 17.671875 38.8125 
z
M 15.921875 53.71875 
Q 15.921875 48.640625 19.1875 45.40625 
Q 22.46875 42.1875 27.6875 42.1875 
Q 32.765625 42.1875 36.015625 45.375 
Q 39.265625 48.578125 39.265625 53.21875 
Q 39.265625 58.0625 35.90625 61.359375 
Q 32.5625 64.65625 27.59375 64.65625 
Q 22.5625 64.65625 19.234375 61.421875 
Q 15.921875 58.203125 15.921875 53.71875 
z
M 13.09375 20.65625 
Q 13.09375 16.890625 14.875 13.375 
Q 16.65625 9.859375 20.171875 7.921875 
Q 23.6875 6 27.734375 6 
Q 34.03125 6 38.125 10.046875 
Q 42.234375 14.109375 42.234375 20.359375 
Q 42.234375 26.703125 38.015625 30.859375 
Q 33.796875 35.015625 27.4375 35.015625 
Q 21.234375 35.015625 17.15625 30.90625 
Q 13.09375 26.8125 13.09375 20.65625 
z
" id="ArialMT-56"/>
       <path d="M 4.15625 18.75 
L 13.375 19.53125 
Q 14.40625 12.796875 18.140625 9.390625 
Q 21.875 6 27.15625 6 
Q 33.5 6 37.890625 10.78125 
Q 42.28125 15.578125 42.28125 23.484375 
Q 42.28125 31 38.0625 35.34375 
Q 33.84375 39.703125 27 39.703125 
Q 22.75 39.703125 19.328125 37.765625 
Q 15.921875 35.84375 13.96875 32.765625 
L 5.71875 33.84375 
L 12.640625 70.609375 
L 48.25 70.609375 
L 48.25 62.203125 
L 19.671875 62.203125 
L 15.828125 42.96875 
Q 22.265625 47.46875 29.34375 47.46875 
Q 38.71875 47.46875 45.15625 40.96875 
Q 51.609375 34.46875 51.609375 24.265625 
Q 51.609375 14.546875 45.953125 7.46875 
Q 39.0625 -1.21875 27.15625 -1.21875 
Q 17.390625 -1.21875 11.203125 4.25 
Q 5.03125 9.71875 4.15625 18.75 
z
" id="ArialMT-53"/>
      </defs>
      <g style="fill:#262626;" transform="translate(337.185181 511.1565)scale(0.16 -0.16)">
       <use xlink:href="#ArialMT-48"/>
       <use x="55.615234" xlink:href="#ArialMT-56"/>
       <use x="111.230469" xlink:href="#ArialMT-53"/>
       <use x="166.845703" xlink:href="#ArialMT-53"/>
      </g>
     </g>
    </g>
    <g id="xtick_4">
     <g id="text_4">
      <!-- 0855-1 -->
      <g style="fill:#262626;" transform="translate(443.508754 511.1565)scale(0.16 -0.16)">
       <use xlink:href="#ArialMT-48"/>
       <use x="55.615234" xlink:href="#ArialMT-56"/>
       <use x="111.230469" xlink:href="#ArialMT-53"/>
       <use x="166.845703" xlink:href="#ArialMT-53"/>
       <use x="222.460938" xlink:href="#ArialMT-45"/>
       <use x="255.761719" xlink:href="#ArialMT-49"/>
      </g>
     </g>
    </g>
    <g id="xtick_5">
     <g id="text_5">
      <!-- 1001-156 -->
      <defs>
       <path d="M 49.75 54.046875 
L 41.015625 53.375 
Q 39.84375 58.546875 37.703125 60.890625 
Q 34.125 64.65625 28.90625 64.65625 
Q 24.703125 64.65625 21.53125 62.3125 
Q 17.390625 59.28125 14.984375 53.46875 
Q 12.59375 47.65625 12.5 36.921875 
Q 15.671875 41.75 20.265625 44.09375 
Q 24.859375 46.4375 29.890625 46.4375 
Q 38.671875 46.4375 44.84375 39.96875 
Q 51.03125 33.5 51.03125 23.25 
Q 51.03125 16.5 48.125 10.71875 
Q 45.21875 4.9375 40.140625 1.859375 
Q 35.0625 -1.21875 28.609375 -1.21875 
Q 17.625 -1.21875 10.6875 6.859375 
Q 3.765625 14.9375 3.765625 33.5 
Q 3.765625 54.25 11.421875 63.671875 
Q 18.109375 71.875 29.4375 71.875 
Q 37.890625 71.875 43.28125 67.140625 
Q 48.6875 62.40625 49.75 54.046875 
z
M 13.875 23.1875 
Q 13.875 18.65625 15.796875 14.5 
Q 17.71875 10.359375 21.1875 8.171875 
Q 24.65625 6 28.46875 6 
Q 34.03125 6 38.03125 10.484375 
Q 42.046875 14.984375 42.046875 22.703125 
Q 42.046875 30.125 38.078125 34.390625 
Q 34.125 38.671875 28.125 38.671875 
Q 22.171875 38.671875 18.015625 34.390625 
Q 13.875 30.125 13.875 23.1875 
z
" id="ArialMT-54"/>
      </defs>
      <g style="fill:#262626;" transform="translate(548.047327 511.1565)scale(0.16 -0.16)">
       <use xlink:href="#ArialMT-49"/>
       <use x="55.615234" xlink:href="#ArialMT-48"/>
       <use x="111.230469" xlink:href="#ArialMT-48"/>
       <use x="166.845703" xlink:href="#ArialMT-49"/>
       <use x="222.460938" xlink:href="#ArialMT-45"/>
       <use x="255.761719" xlink:href="#ArialMT-49"/>
       <use x="311.376953" xlink:href="#ArialMT-53"/>
       <use x="366.992188" xlink:href="#ArialMT-54"/>
      </g>
     </g>
    </g>
    <g id="text_6">
     <!-- Counter id -->
     <defs>
      <path d="M 58.796875 25.09375 
L 68.265625 22.703125 
Q 65.28125 11.03125 57.546875 4.90625 
Q 49.8125 -1.21875 38.625 -1.21875 
Q 27.046875 -1.21875 19.796875 3.484375 
Q 12.546875 8.203125 8.765625 17.140625 
Q 4.984375 26.078125 4.984375 36.328125 
Q 4.984375 47.515625 9.25 55.828125 
Q 13.53125 64.15625 21.40625 68.46875 
Q 29.296875 72.796875 38.765625 72.796875 
Q 49.515625 72.796875 56.828125 67.328125 
Q 64.15625 61.859375 67.046875 51.953125 
L 57.71875 49.75 
Q 55.21875 57.5625 50.484375 61.125 
Q 45.75 64.703125 38.578125 64.703125 
Q 30.328125 64.703125 24.78125 60.734375 
Q 19.234375 56.78125 16.984375 50.109375 
Q 14.75 43.453125 14.75 36.375 
Q 14.75 27.25 17.40625 20.4375 
Q 20.0625 13.625 25.671875 10.25 
Q 31.296875 6.890625 37.84375 6.890625 
Q 45.796875 6.890625 51.3125 11.46875 
Q 56.84375 16.0625 58.796875 25.09375 
z
" id="ArialMT-67"/>
      <path d="M 3.328125 25.921875 
Q 3.328125 40.328125 11.328125 47.265625 
Q 18.015625 53.03125 27.640625 53.03125 
Q 38.328125 53.03125 45.109375 46.015625 
Q 51.90625 39.015625 51.90625 26.65625 
Q 51.90625 16.65625 48.90625 10.90625 
Q 45.90625 5.171875 40.15625 2 
Q 34.421875 -1.171875 27.640625 -1.171875 
Q 16.75 -1.171875 10.03125 5.8125 
Q 3.328125 12.796875 3.328125 25.921875 
z
M 12.359375 25.921875 
Q 12.359375 15.96875 16.703125 11.015625 
Q 21.046875 6.0625 27.640625 6.0625 
Q 34.1875 6.0625 38.53125 11.03125 
Q 42.875 16.015625 42.875 26.21875 
Q 42.875 35.84375 38.5 40.796875 
Q 34.125 45.75 27.640625 45.75 
Q 21.046875 45.75 16.703125 40.8125 
Q 12.359375 35.890625 12.359375 25.921875 
z
" id="ArialMT-111"/>
      <path d="M 40.578125 0 
L 40.578125 7.625 
Q 34.515625 -1.171875 24.125 -1.171875 
Q 19.53125 -1.171875 15.546875 0.578125 
Q 11.578125 2.34375 9.640625 5 
Q 7.71875 7.671875 6.9375 11.53125 
Q 6.390625 14.109375 6.390625 19.734375 
L 6.390625 51.859375 
L 15.1875 51.859375 
L 15.1875 23.09375 
Q 15.1875 16.21875 15.71875 13.8125 
Q 16.546875 10.359375 19.234375 8.375 
Q 21.921875 6.390625 25.875 6.390625 
Q 29.828125 6.390625 33.296875 8.421875 
Q 36.765625 10.453125 38.203125 13.9375 
Q 39.65625 17.4375 39.65625 24.078125 
L 39.65625 51.859375 
L 48.4375 51.859375 
L 48.4375 0 
z
" id="ArialMT-117"/>
      <path d="M 6.59375 0 
L 6.59375 51.859375 
L 14.5 51.859375 
L 14.5 44.484375 
Q 20.21875 53.03125 31 53.03125 
Q 35.6875 53.03125 39.625 51.34375 
Q 43.5625 49.65625 45.515625 46.921875 
Q 47.46875 44.1875 48.25 40.4375 
Q 48.734375 37.984375 48.734375 31.890625 
L 48.734375 0 
L 39.9375 0 
L 39.9375 31.546875 
Q 39.9375 36.921875 38.90625 39.578125 
Q 37.890625 42.234375 35.28125 43.8125 
Q 32.671875 45.40625 29.15625 45.40625 
Q 23.53125 45.40625 19.453125 41.84375 
Q 15.375 38.28125 15.375 28.328125 
L 15.375 0 
z
" id="ArialMT-110"/>
      <path d="M 25.78125 7.859375 
L 27.046875 0.09375 
Q 23.34375 -0.6875 20.40625 -0.6875 
Q 15.625 -0.6875 12.984375 0.828125 
Q 10.359375 2.34375 9.28125 4.8125 
Q 8.203125 7.28125 8.203125 15.1875 
L 8.203125 45.015625 
L 1.765625 45.015625 
L 1.765625 51.859375 
L 8.203125 51.859375 
L 8.203125 64.703125 
L 16.9375 69.96875 
L 16.9375 51.859375 
L 25.78125 51.859375 
L 25.78125 45.015625 
L 16.9375 45.015625 
L 16.9375 14.703125 
Q 16.9375 10.9375 17.40625 9.859375 
Q 17.875 8.796875 18.921875 8.15625 
Q 19.96875 7.515625 21.921875 7.515625 
Q 23.390625 7.515625 25.78125 7.859375 
z
" id="ArialMT-116"/>
      <path d="M 42.09375 16.703125 
L 51.171875 15.578125 
Q 49.03125 7.625 43.21875 3.21875 
Q 37.40625 -1.171875 28.375 -1.171875 
Q 17 -1.171875 10.328125 5.828125 
Q 3.65625 12.84375 3.65625 25.484375 
Q 3.65625 38.578125 10.390625 45.796875 
Q 17.140625 53.03125 27.875 53.03125 
Q 38.28125 53.03125 44.875 45.953125 
Q 51.46875 38.875 51.46875 26.03125 
Q 51.46875 25.25 51.421875 23.6875 
L 12.75 23.6875 
Q 13.234375 15.140625 17.578125 10.59375 
Q 21.921875 6.0625 28.421875 6.0625 
Q 33.25 6.0625 36.671875 8.59375 
Q 40.09375 11.140625 42.09375 16.703125 
z
M 13.234375 30.90625 
L 42.1875 30.90625 
Q 41.609375 37.453125 38.875 40.71875 
Q 34.671875 45.796875 27.984375 45.796875 
Q 21.921875 45.796875 17.796875 41.75 
Q 13.671875 37.703125 13.234375 30.90625 
z
" id="ArialMT-101"/>
      <path d="M 6.5 0 
L 6.5 51.859375 
L 14.40625 51.859375 
L 14.40625 44 
Q 17.4375 49.515625 20 51.265625 
Q 22.5625 53.03125 25.640625 53.03125 
Q 30.078125 53.03125 34.671875 50.203125 
L 31.640625 42.046875 
Q 28.421875 43.953125 25.203125 43.953125 
Q 22.3125 43.953125 20.015625 42.21875 
Q 17.71875 40.484375 16.75 37.40625 
Q 15.28125 32.71875 15.28125 27.15625 
L 15.28125 0 
z
" id="ArialMT-114"/>
      <path id="ArialMT-32"/>
      <path d="M 6.640625 61.46875 
L 6.640625 71.578125 
L 15.4375 71.578125 
L 15.4375 61.46875 
z
M 6.640625 0 
L 6.640625 51.859375 
L 15.4375 51.859375 
L 15.4375 0 
z
" id="ArialMT-105"/>
      <path d="M 40.234375 0 
L 40.234375 6.546875 
Q 35.296875 -1.171875 25.734375 -1.171875 
Q 19.53125 -1.171875 14.328125 2.25 
Q 9.125 5.671875 6.265625 11.796875 
Q 3.421875 17.921875 3.421875 25.875 
Q 3.421875 33.640625 6 39.96875 
Q 8.59375 46.296875 13.765625 49.65625 
Q 18.953125 53.03125 25.34375 53.03125 
Q 30.03125 53.03125 33.6875 51.046875 
Q 37.359375 49.078125 39.65625 45.90625 
L 39.65625 71.578125 
L 48.390625 71.578125 
L 48.390625 0 
z
M 12.453125 25.875 
Q 12.453125 15.921875 16.640625 10.984375 
Q 20.84375 6.0625 26.5625 6.0625 
Q 32.328125 6.0625 36.34375 10.765625 
Q 40.375 15.484375 40.375 25.140625 
Q 40.375 35.796875 36.265625 40.765625 
Q 32.171875 45.75 26.171875 45.75 
Q 20.3125 45.75 16.375 40.96875 
Q 12.453125 36.1875 12.453125 25.875 
z
" id="ArialMT-100"/>
     </defs>
     <g style="fill:#262626;" transform="translate(318.072681 529.789)scale(0.16 -0.16)">
      <use xlink:href="#ArialMT-67"/>
      <use x="72.216797" xlink:href="#ArialMT-111"/>
      <use x="127.832031" xlink:href="#ArialMT-117"/>
      <use x="183.447266" xlink:href="#ArialMT-110"/>
      <use x="239.0625" xlink:href="#ArialMT-116"/>
      <use x="266.845703" xlink:href="#ArialMT-101"/>
      <use x="322.460938" xlink:href="#ArialMT-114"/>
      <use x="355.761719" xlink:href="#ArialMT-32"/>
      <use x="383.544922" xlink:href="#ArialMT-105"/>
      <use x="405.761719" xlink:href="#ArialMT-100"/>
     </g>
    </g>
   </g>
   <g id="matplotlib.axis_2">
    <g id="ytick_1">
     <g id="text_7">
      <!-- 0 -->
      <g style="fill:#262626;" transform="translate(55.4925 436.045802)scale(0.16 -0.16)">
       <use xlink:href="#ArialMT-48"/>
      </g>
     </g>
    </g>
    <g id="ytick_2">
     <g id="text_8">
      <!-- 1000 -->
      <g style="fill:#262626;" transform="translate(28.8 349.247172)scale(0.16 -0.16)">
       <use xlink:href="#ArialMT-49"/>
       <use x="55.615234" xlink:href="#ArialMT-48"/>
       <use x="111.230469" xlink:href="#ArialMT-48"/>
       <use x="166.845703" xlink:href="#ArialMT-48"/>
      </g>
     </g>
    </g>
    <g id="ytick_3">
     <g id="text_9">
      <!-- 2000 -->
      <defs>
       <path d="M 50.34375 8.453125 
L 50.34375 0 
L 3.03125 0 
Q 2.9375 3.171875 4.046875 6.109375 
Q 5.859375 10.9375 9.828125 15.625 
Q 13.8125 20.3125 21.34375 26.46875 
Q 33.015625 36.03125 37.109375 41.625 
Q 41.21875 47.21875 41.21875 52.203125 
Q 41.21875 57.421875 37.46875 61 
Q 33.734375 64.59375 27.734375 64.59375 
Q 21.390625 64.59375 17.578125 60.78125 
Q 13.765625 56.984375 13.71875 50.25 
L 4.6875 51.171875 
Q 5.609375 61.28125 11.65625 66.578125 
Q 17.71875 71.875 27.9375 71.875 
Q 38.234375 71.875 44.234375 66.15625 
Q 50.25 60.453125 50.25 52 
Q 50.25 47.703125 48.484375 43.546875 
Q 46.734375 39.40625 42.65625 34.8125 
Q 38.578125 30.21875 29.109375 22.21875 
Q 21.1875 15.578125 18.9375 13.203125 
Q 16.703125 10.84375 15.234375 8.453125 
z
" id="ArialMT-50"/>
      </defs>
      <g style="fill:#262626;" transform="translate(28.8 262.448543)scale(0.16 -0.16)">
       <use xlink:href="#ArialMT-50"/>
       <use x="55.615234" xlink:href="#ArialMT-48"/>
       <use x="111.230469" xlink:href="#ArialMT-48"/>
       <use x="166.845703" xlink:href="#ArialMT-48"/>
      </g>
     </g>
    </g>
    <g id="ytick_4">
     <g id="text_10">
      <!-- 3000 -->
      <defs>
       <path d="M 4.203125 18.890625 
L 12.984375 20.0625 
Q 14.5 12.59375 18.140625 9.296875 
Q 21.78125 6 27 6 
Q 33.203125 6 37.46875 10.296875 
Q 41.75 14.59375 41.75 20.953125 
Q 41.75 27 37.796875 30.921875 
Q 33.84375 34.859375 27.734375 34.859375 
Q 25.25 34.859375 21.53125 33.890625 
L 22.515625 41.609375 
Q 23.390625 41.5 23.921875 41.5 
Q 29.546875 41.5 34.03125 44.421875 
Q 38.53125 47.359375 38.53125 53.46875 
Q 38.53125 58.296875 35.25 61.46875 
Q 31.984375 64.65625 26.8125 64.65625 
Q 21.6875 64.65625 18.265625 61.421875 
Q 14.84375 58.203125 13.875 51.765625 
L 5.078125 53.328125 
Q 6.6875 62.15625 12.390625 67.015625 
Q 18.109375 71.875 26.609375 71.875 
Q 32.46875 71.875 37.390625 69.359375 
Q 42.328125 66.84375 44.9375 62.5 
Q 47.5625 58.15625 47.5625 53.265625 
Q 47.5625 48.640625 45.0625 44.828125 
Q 42.578125 41.015625 37.703125 38.765625 
Q 44.046875 37.3125 47.5625 32.6875 
Q 51.078125 28.078125 51.078125 21.140625 
Q 51.078125 11.765625 44.234375 5.25 
Q 37.40625 -1.265625 26.953125 -1.265625 
Q 17.53125 -1.265625 11.296875 4.34375 
Q 5.078125 9.96875 4.203125 18.890625 
z
" id="ArialMT-51"/>
      </defs>
      <g style="fill:#262626;" transform="translate(28.8 175.649914)scale(0.16 -0.16)">
       <use xlink:href="#ArialMT-51"/>
       <use x="55.615234" xlink:href="#ArialMT-48"/>
       <use x="111.230469" xlink:href="#ArialMT-48"/>
       <use x="166.845703" xlink:href="#ArialMT-48"/>
      </g>
     </g>
    </g>
    <g id="ytick_5">
     <g id="text_11">
      <!-- 4000 -->
      <g style="fill:#262626;" transform="translate(28.8 88.851284)scale(0.16 -0.16)">
       <use xlink:href="#ArialMT-52"/>
       <use x="55.615234" xlink:href="#ArialMT-48"/>
       <use x="111.230469" xlink:href="#ArialMT-48"/>
       <use x="166.845703" xlink:href="#ArialMT-48"/>
      </g>
     </g>
    </g>
    <g id="text_12">
     <!-- Count [$h^{-1}$] -->
     <defs>
      <path d="M 6.78125 -19.875 
L 6.78125 71.578125 
L 26.171875 71.578125 
L 26.171875 64.3125 
L 15.578125 64.3125 
L 15.578125 -12.59375 
L 26.171875 -12.59375 
L 26.171875 -19.875 
z
" id="ArialMT-91"/>
      <path d="M 55.71875 33.015625 
L 49.3125 0 
L 40.28125 0 
L 46.6875 32.671875 
Q 47.125 34.96875 47.359375 36.71875 
Q 47.609375 38.484375 47.609375 39.5 
Q 47.609375 43.609375 45.015625 45.890625 
Q 42.4375 48.1875 37.796875 48.1875 
Q 30.5625 48.1875 25.265625 43.296875 
Q 19.96875 38.421875 18.40625 30.328125 
L 12.5 0 
L 3.515625 0 
L 18.3125 75.984375 
L 27.296875 75.984375 
L 21.484375 46.09375 
Q 24.90625 50.6875 30.21875 53.34375 
Q 35.546875 56 41.40625 56 
Q 48.640625 56 52.609375 52.09375 
Q 56.59375 48.1875 56.59375 41.109375 
Q 56.59375 39.359375 56.375 37.359375 
Q 56.15625 35.359375 55.71875 33.015625 
z
" id="DejaVuSans-Oblique-104"/>
      <path d="M 10.59375 35.5 
L 73.1875 35.5 
L 73.1875 27.203125 
L 10.59375 27.203125 
z
" id="DejaVuSans-8722"/>
      <path d="M 12.40625 8.296875 
L 28.515625 8.296875 
L 28.515625 63.921875 
L 10.984375 60.40625 
L 10.984375 69.390625 
L 28.421875 72.90625 
L 38.28125 72.90625 
L 38.28125 8.296875 
L 54.390625 8.296875 
L 54.390625 0 
L 12.40625 0 
z
" id="DejaVuSans-49"/>
      <path d="M 21.296875 -19.875 
L 1.90625 -19.875 
L 1.90625 -12.59375 
L 12.5 -12.59375 
L 12.5 64.3125 
L 1.90625 64.3125 
L 1.90625 71.578125 
L 21.296875 71.578125 
z
" id="ArialMT-93"/>
     </defs>
     <g style="fill:#262626;" transform="translate(21.6 292.112)rotate(-90)scale(0.16 -0.16)">
      <use transform="translate(0 0.684375)" xlink:href="#ArialMT-67"/>
      <use transform="translate(72.216797 0.684375)" xlink:href="#ArialMT-111"/>
      <use transform="translate(127.832031 0.684375)" xlink:href="#ArialMT-117"/>
      <use transform="translate(183.447266 0.684375)" xlink:href="#ArialMT-110"/>
      <use transform="translate(239.0625 0.684375)" xlink:href="#ArialMT-116"/>
      <use transform="translate(266.845703 0.684375)" xlink:href="#ArialMT-32"/>
      <use transform="translate(294.628906 0.684375)" xlink:href="#ArialMT-91"/>
      <use transform="translate(322.412109 0.684375)" xlink:href="#DejaVuSans-Oblique-104"/>
      <use transform="translate(393.238724 38.965625)scale(0.7)" xlink:href="#DejaVuSans-8722"/>
      <use transform="translate(451.891068 38.965625)scale(0.7)" xlink:href="#DejaVuSans-49"/>
      <use transform="translate(499.161576 0.684375)" xlink:href="#ArialMT-93"/>
     </g>
    </g>
   </g>
   <g id="PolyCollection_1">
    <defs>
     <path d="M 220.22638 -82.555903 
L 217.487409 -82.555903 
L 216.763774 -85.425425 
L 215.771627 -88.294947 
L 214.469915 -91.164469 
L 212.837641 -94.033991 
L 210.884744 -96.903513 
L 208.660613 -99.773035 
L 206.25747 -102.642557 
L 203.806433 -105.512078 
L 201.465476 -108.3816 
L 199.400485 -111.251122 
L 197.762503 -114.120644 
L 196.66556 -116.990166 
L 196.16968 -119.859688 
L 196.272523 -122.72921 
L 196.911167 -125.598732 
L 197.973194 -128.468253 
L 199.314315 -131.337775 
L 200.778745 -134.207297 
L 202.218558 -137.076819 
L 203.50914 -139.946341 
L 204.5592 -142.815863 
L 205.315097 -145.685385 
L 205.760209 -148.554907 
L 205.910575 -151.424428 
L 205.808145 -154.29395 
L 205.512802 -157.163472 
L 205.094135 -160.032994 
L 204.623664 -162.902516 
L 204.168067 -165.772038 
L 203.783781 -168.64156 
L 203.513199 -171.511082 
L 203.382566 -174.380603 
L 203.401537 -177.250125 
L 203.564318 -180.119647 
L 203.852196 -182.989169 
L 204.237212 -185.858691 
L 204.686629 -188.728213 
L 205.167664 -191.597735 
L 205.651937 -194.467257 
L 206.118964 -197.336778 
L 206.558205 -200.2063 
L 206.969346 -203.075822 
L 207.360825 -205.945344 
L 207.746949 -208.814866 
L 208.144205 -211.684388 
L 208.567506 -214.55391 
L 209.027094 -217.423432 
L 209.526675 -220.292953 
L 210.063023 -223.162475 
L 210.627033 -226.031997 
L 211.205819 -228.901519 
L 211.785296 -231.771041 
L 212.352602 -234.640563 
L 212.897829 -237.510085 
L 213.414759 -240.379607 
L 213.900615 -243.249128 
L 214.355076 -246.11865 
L 214.778978 -248.988172 
L 215.173119 -251.857694 
L 215.53748 -254.727216 
L 215.870983 -257.596738 
L 216.171707 -260.46626 
L 216.437387 -263.335782 
L 216.66598 -266.205303 
L 216.856128 -269.074825 
L 217.007462 -271.944347 
L 217.120773 -274.813869 
L 217.198128 -277.683391 
L 217.242986 -280.552913 
L 217.260333 -283.422435 
L 217.256748 -286.291957 
L 217.240288 -289.161478 
L 217.220088 -292.031 
L 217.205612 -294.900522 
L 217.205638 -297.770044 
L 217.227129 -300.639566 
L 217.274253 -303.509088 
L 217.347785 -306.37861 
L 217.445069 -309.248132 
L 217.560568 -312.117653 
L 217.68692 -314.987175 
L 217.816239 -317.856697 
L 217.941419 -320.726219 
L 218.057127 -323.595741 
L 218.160339 -326.465263 
L 218.25034 -329.334785 
L 218.328264 -332.204307 
L 218.396358 -335.073828 
L 218.457169 -337.94335 
L 218.512872 -340.812872 
L 218.564858 -343.682394 
L 218.613624 -346.551916 
L 218.658926 -349.421438 
L 218.700091 -352.29096 
L 218.736357 -355.160482 
L 218.767162 -358.030003 
L 218.792309 -360.899525 
L 218.812002 -363.769047 
L 218.826786 -366.638569 
L 218.887003 -366.638569 
L 218.887003 -366.638569 
L 218.901787 -363.769047 
L 218.92148 -360.899525 
L 218.946626 -358.030003 
L 218.977432 -355.160482 
L 219.013698 -352.29096 
L 219.054863 -349.421438 
L 219.100165 -346.551916 
L 219.148931 -343.682394 
L 219.200916 -340.812872 
L 219.25662 -337.94335 
L 219.317431 -335.073828 
L 219.385525 -332.204307 
L 219.463449 -329.334785 
L 219.553449 -326.465263 
L 219.656662 -323.595741 
L 219.77237 -320.726219 
L 219.897549 -317.856697 
L 220.026869 -314.987175 
L 220.15322 -312.117653 
L 220.26872 -309.248132 
L 220.366003 -306.37861 
L 220.439536 -303.509088 
L 220.48666 -300.639566 
L 220.508151 -297.770044 
L 220.508177 -294.900522 
L 220.493701 -292.031 
L 220.473501 -289.161478 
L 220.457041 -286.291957 
L 220.453455 -283.422435 
L 220.470803 -280.552913 
L 220.515661 -277.683391 
L 220.593015 -274.813869 
L 220.706327 -271.944347 
L 220.857661 -269.074825 
L 221.047809 -266.205303 
L 221.276402 -263.335782 
L 221.542082 -260.46626 
L 221.842805 -257.596738 
L 222.176308 -254.727216 
L 222.54067 -251.857694 
L 222.934811 -248.988172 
L 223.358712 -246.11865 
L 223.813174 -243.249128 
L 224.29903 -240.379607 
L 224.81596 -237.510085 
L 225.361186 -234.640563 
L 225.928493 -231.771041 
L 226.507969 -228.901519 
L 227.086755 -226.031997 
L 227.650766 -223.162475 
L 228.187114 -220.292953 
L 228.686694 -217.423432 
L 229.146283 -214.55391 
L 229.569583 -211.684388 
L 229.96684 -208.814866 
L 230.352964 -205.945344 
L 230.744443 -203.075822 
L 231.155584 -200.2063 
L 231.594825 -197.336778 
L 232.061852 -194.467257 
L 232.546124 -191.597735 
L 233.02716 -188.728213 
L 233.476576 -185.858691 
L 233.861593 -182.989169 
L 234.14947 -180.119647 
L 234.312251 -177.250125 
L 234.331223 -174.380603 
L 234.200589 -171.511082 
L 233.930008 -168.64156 
L 233.545721 -165.772038 
L 233.090124 -162.902516 
L 232.619653 -160.032994 
L 232.200986 -157.163472 
L 231.905644 -154.29395 
L 231.803213 -151.424428 
L 231.95358 -148.554907 
L 232.398691 -145.685385 
L 233.154588 -142.815863 
L 234.204648 -139.946341 
L 235.49523 -137.076819 
L 236.935044 -134.207297 
L 238.399474 -131.337775 
L 239.740595 -128.468253 
L 240.802622 -125.598732 
L 241.441266 -122.72921 
L 241.544109 -119.859688 
L 241.048229 -116.990166 
L 239.951286 -114.120644 
L 238.313303 -111.251122 
L 236.248313 -108.3816 
L 233.907356 -105.512078 
L 231.456318 -102.642557 
L 229.053176 -99.773035 
L 226.829045 -96.903513 
L 224.876147 -94.033991 
L 223.243874 -91.164469 
L 221.942162 -88.294947 
L 220.950014 -85.425425 
L 220.22638 -82.555903 
z
" id="m431a6439a1" style="stroke:#373737;stroke-width:1.5;"/>
    </defs>
    <g clip-path="url(#p70ee694401)">
     <use style="fill:#2b8e70;stroke:#373737;stroke-width:1.5;" x="0" xlink:href="#m431a6439a1" y="540.169"/>
    </g>
   </g>
   <g id="PolyCollection_2">
    <defs>
     <path d="M 265.16315 -69.584537 
L 263.299496 -69.584537 
L 262.815135 -73.843612 
L 262.15875 -78.102687 
L 261.310004 -82.361762 
L 260.264732 -86.620837 
L 259.041807 -90.879912 
L 257.68759 -95.138987 
L 256.276086 -99.398062 
L 254.903583 -103.657138 
L 253.677743 -107.916213 
L 252.702639 -112.175288 
L 252.062534 -116.434363 
L 251.807846 -120.693438 
L 251.946475 -124.952513 
L 252.442469 -129.211588 
L 253.222279 -133.470663 
L 254.187069 -137.729739 
L 255.228301 -141.988814 
L 256.243383 -146.247889 
L 257.148537 -150.506964 
L 257.887075 -154.766039 
L 258.432426 -159.025114 
L 258.78639 -163.284189 
L 258.973737 -167.543264 
L 259.034662 -171.802339 
L 259.016498 -176.061415 
L 258.965944 -180.32049 
L 258.922672 -184.579565 
L 258.914891 -188.83864 
L 258.95708 -193.097715 
L 259.049802 -197.35679 
L 259.181276 -201.615865 
L 259.330205 -205.87494 
L 259.46931 -210.134015 
L 259.569077 -214.393091 
L 259.601336 -218.652166 
L 259.542413 -222.911241 
L 259.375706 -227.170316 
L 259.093521 -231.429391 
L 258.698028 -235.688466 
L 258.201174 -239.947541 
L 257.623482 -244.206616 
L 256.991808 -248.465692 
L 256.336355 -252.724767 
L 255.687427 -256.983842 
L 255.072489 -261.242917 
L 254.514077 -265.501992 
L 254.028834 -269.761067 
L 253.62771 -274.020142 
L 253.317024 -278.279217 
L 253.099942 -282.538292 
L 252.977848 -286.797368 
L 252.95125 -291.056443 
L 253.020057 -295.315518 
L 253.183292 -299.574593 
L 253.438511 -303.833668 
L 253.781202 -308.092743 
L 254.20443 -312.351818 
L 254.698858 -316.610893 
L 255.253103 -320.869968 
L 255.854321 -325.129044 
L 256.48885 -329.388119 
L 257.142773 -333.647194 
L 257.802347 -337.906269 
L 258.45432 -342.165344 
L 259.086226 -346.424419 
L 259.686727 -350.683494 
L 260.246066 -354.942569 
L 260.756597 -359.201645 
L 261.213294 -363.46072 
L 261.6141 -367.719795 
L 261.959993 -371.97887 
L 262.254697 -376.237945 
L 262.504038 -380.49702 
L 262.715058 -384.756095 
L 262.895038 -389.01517 
L 263.050616 -393.274245 
L 263.187149 -397.533321 
L 263.308418 -401.792396 
L 263.41668 -406.051471 
L 263.51302 -410.310546 
L 263.597858 -414.569621 
L 263.671493 -418.828696 
L 263.734531 -423.087771 
L 263.78812 -427.346846 
L 263.833949 -431.605921 
L 263.874054 -435.864997 
L 263.910496 -440.124072 
L 263.945028 -444.383147 
L 263.978826 -448.642222 
L 264.012378 -452.901297 
L 264.045512 -457.160372 
L 264.077567 -461.419447 
L 264.107637 -465.678522 
L 264.134822 -469.937598 
L 264.158428 -474.196673 
L 264.178083 -478.455748 
L 264.193764 -482.714823 
L 264.20575 -486.973898 
L 264.214527 -491.232973 
L 264.248119 -491.232973 
L 264.248119 -491.232973 
L 264.256897 -486.973898 
L 264.268883 -482.714823 
L 264.284564 -478.455748 
L 264.304218 -474.196673 
L 264.327824 -469.937598 
L 264.35501 -465.678522 
L 264.38508 -461.419447 
L 264.417135 -457.160372 
L 264.450268 -452.901297 
L 264.48382 -448.642222 
L 264.517619 -444.383147 
L 264.55215 -440.124072 
L 264.588593 -435.864997 
L 264.628698 -431.605921 
L 264.674527 -427.346846 
L 264.728115 -423.087771 
L 264.791154 -418.828696 
L 264.864788 -414.569621 
L 264.949627 -410.310546 
L 265.045966 -406.051471 
L 265.154229 -401.792396 
L 265.275497 -397.533321 
L 265.412031 -393.274245 
L 265.567609 -389.01517 
L 265.747589 -384.756095 
L 265.958609 -380.49702 
L 266.20795 -376.237945 
L 266.502654 -371.97887 
L 266.848547 -367.719795 
L 267.249352 -363.46072 
L 267.706049 -359.201645 
L 268.216581 -354.942569 
L 268.77592 -350.683494 
L 269.37642 -346.424419 
L 270.008326 -342.165344 
L 270.6603 -337.906269 
L 271.319874 -333.647194 
L 271.973797 -329.388119 
L 272.608326 -325.129044 
L 273.209544 -320.869968 
L 273.763788 -316.610893 
L 274.258216 -312.351818 
L 274.681445 -308.092743 
L 275.024135 -303.833668 
L 275.279355 -299.574593 
L 275.44259 -295.315518 
L 275.511396 -291.056443 
L 275.484799 -286.797368 
L 275.362705 -282.538292 
L 275.145622 -278.279217 
L 274.834937 -274.020142 
L 274.433812 -269.761067 
L 273.94857 -265.501992 
L 273.390158 -261.242917 
L 272.77522 -256.983842 
L 272.126291 -252.724767 
L 271.470839 -248.465692 
L 270.839165 -244.206616 
L 270.261473 -239.947541 
L 269.764619 -235.688466 
L 269.369126 -231.429391 
L 269.086941 -227.170316 
L 268.920234 -222.911241 
L 268.861311 -218.652166 
L 268.893569 -214.393091 
L 268.993337 -210.134015 
L 269.132442 -205.87494 
L 269.281371 -201.615865 
L 269.412845 -197.35679 
L 269.505567 -193.097715 
L 269.547756 -188.83864 
L 269.539975 -184.579565 
L 269.496702 -180.32049 
L 269.446148 -176.061415 
L 269.427985 -171.802339 
L 269.48891 -167.543264 
L 269.676257 -163.284189 
L 270.03022 -159.025114 
L 270.575572 -154.766039 
L 271.31411 -150.506964 
L 272.219264 -146.247889 
L 273.234346 -141.988814 
L 274.275578 -137.729739 
L 275.240367 -133.470663 
L 276.020178 -129.211588 
L 276.516172 -124.952513 
L 276.654801 -120.693438 
L 276.400113 -116.434363 
L 275.760008 -112.175288 
L 274.784904 -107.916213 
L 273.559064 -103.657138 
L 272.186561 -99.398062 
L 270.775057 -95.138987 
L 269.420839 -90.879912 
L 268.197915 -86.620837 
L 267.152643 -82.361762 
L 266.303896 -78.102687 
L 265.647512 -73.843612 
L 265.16315 -69.584537 
z
" id="ma5f6bc8c31" style="stroke:#373737;stroke-width:1.5;"/>
    </defs>
    <g clip-path="url(#p70ee694401)">
     <use style="fill:#be631d;stroke:#373737;stroke-width:1.5;" x="0" xlink:href="#ma5f6bc8c31" y="540.169"/>
    </g>
   </g>
   <g id="PolyCollection_3">
    <defs>
     <path d="M 333.374882 -84.424938 
L 331.211052 -84.424938 
L 330.538394 -87.448711 
L 329.570019 -90.472483 
L 328.247622 -93.496256 
L 326.537139 -96.520029 
L 324.445678 -99.543801 
L 322.035001 -102.567574 
L 319.426381 -105.591347 
L 316.792807 -108.615119 
L 314.337547 -111.638892 
L 312.26221 -114.662665 
L 310.731221 -117.686437 
L 309.841574 -120.71021 
L 309.605752 -123.733983 
L 309.952181 -126.757756 
L 310.74256 -129.781528 
L 311.800925 -132.805301 
L 312.946701 -135.829074 
L 314.024044 -138.852846 
L 314.922026 -141.876619 
L 315.583469 -144.900392 
L 316.003246 -147.924164 
L 316.218822 -150.947937 
L 316.296406 -153.97171 
L 316.3157 -156.995482 
L 316.355477 -160.019255 
L 316.481417 -163.043028 
L 316.737195 -166.066801 
L 317.139507 -169.090573 
L 317.67747 -172.114346 
L 318.31641 -175.138119 
L 319.005406 -178.161891 
L 319.687311 -181.185664 
L 320.309426 -184.209437 
L 320.83285 -187.233209 
L 321.238815 -190.256982 
L 321.530953 -193.280755 
L 321.733276 -196.304527 
L 321.884501 -199.3283 
L 322.029992 -202.352073 
L 322.213043 -205.375846 
L 322.467245 -208.399618 
L 322.811426 -211.423391 
L 323.248005 -214.447164 
L 323.764802 -217.470936 
L 324.339484 -220.494709 
L 324.945275 -223.518482 
L 325.556356 -226.542254 
L 326.151712 -229.566027 
L 326.716821 -232.5898 
L 327.243333 -235.613572 
L 327.727433 -238.637345 
L 328.167833 -241.661118 
L 328.564212 -244.684891 
L 328.916517 -247.708663 
L 329.225095 -250.732436 
L 329.491307 -253.756209 
L 329.718099 -256.779981 
L 329.910151 -259.803754 
L 330.073453 -262.827527 
L 330.214437 -265.851299 
L 330.339012 -268.875072 
L 330.451832 -271.898845 
L 330.556049 -274.922617 
L 330.65357 -277.94639 
L 330.74562 -280.970163 
L 330.833351 -283.993936 
L 330.918215 -287.017708 
L 331.00197 -290.041481 
L 331.086342 -293.065254 
L 331.172518 -296.089026 
L 331.260673 -299.112799 
L 331.349748 -302.136572 
L 331.437558 -305.160344 
L 331.521219 -308.184117 
L 331.597788 -311.20789 
L 331.664945 -314.231662 
L 331.721533 -317.255435 
L 331.767815 -320.279208 
L 331.805378 -323.302981 
L 331.836687 -326.326753 
L 331.864446 -329.350526 
L 331.890935 -332.374299 
L 331.917556 -335.398071 
L 331.944704 -338.421844 
L 331.971997 -341.445617 
L 331.998723 -344.469389 
L 332.024314 -347.493162 
L 332.048655 -350.516935 
L 332.072116 -353.540707 
L 332.095337 -356.56448 
L 332.118888 -359.588253 
L 332.142969 -362.612026 
L 332.167278 -365.635798 
L 332.191064 -368.659571 
L 332.213354 -371.683344 
L 332.233216 -374.707116 
L 332.249985 -377.730889 
L 332.26338 -380.754662 
L 332.2735 -383.778434 
L 332.312434 -383.778434 
L 332.312434 -383.778434 
L 332.322554 -380.754662 
L 332.335949 -377.730889 
L 332.352718 -374.707116 
L 332.372579 -371.683344 
L 332.39487 -368.659571 
L 332.418656 -365.635798 
L 332.442964 -362.612026 
L 332.467046 -359.588253 
L 332.490597 -356.56448 
L 332.513818 -353.540707 
L 332.537279 -350.516935 
L 332.56162 -347.493162 
L 332.587211 -344.469389 
L 332.613936 -341.445617 
L 332.641229 -338.421844 
L 332.668378 -335.398071 
L 332.694999 -332.374299 
L 332.721488 -329.350526 
L 332.749247 -326.326753 
L 332.780556 -323.302981 
L 332.818119 -320.279208 
L 332.864401 -317.255435 
L 332.920989 -314.231662 
L 332.988146 -311.20789 
L 333.064715 -308.184117 
L 333.148376 -305.160344 
L 333.236185 -302.136572 
L 333.325261 -299.112799 
L 333.413416 -296.089026 
L 333.499591 -293.065254 
L 333.583964 -290.041481 
L 333.667719 -287.017708 
L 333.752583 -283.993936 
L 333.840314 -280.970163 
L 333.932364 -277.94639 
L 334.029884 -274.922617 
L 334.134102 -271.898845 
L 334.246922 -268.875072 
L 334.371497 -265.851299 
L 334.512481 -262.827527 
L 334.675783 -259.803754 
L 334.867835 -256.779981 
L 335.094627 -253.756209 
L 335.360839 -250.732436 
L 335.669417 -247.708663 
L 336.021721 -244.684891 
L 336.418101 -241.661118 
L 336.858501 -238.637345 
L 337.342601 -235.613572 
L 337.869113 -232.5898 
L 338.434222 -229.566027 
L 339.029577 -226.542254 
L 339.640659 -223.518482 
L 340.24645 -220.494709 
L 340.821132 -217.470936 
L 341.337929 -214.447164 
L 341.774508 -211.423391 
L 342.118689 -208.399618 
L 342.372891 -205.375846 
L 342.555942 -202.352073 
L 342.701433 -199.3283 
L 342.852657 -196.304527 
L 343.054981 -193.280755 
L 343.347119 -190.256982 
L 343.753084 -187.233209 
L 344.276508 -184.209437 
L 344.898623 -181.185664 
L 345.580528 -178.161891 
L 346.269524 -175.138119 
L 346.908463 -172.114346 
L 347.446427 -169.090573 
L 347.848739 -166.066801 
L 348.104517 -163.043028 
L 348.230457 -160.019255 
L 348.270233 -156.995482 
L 348.289528 -153.97171 
L 348.367112 -150.947937 
L 348.582688 -147.924164 
L 349.002465 -144.900392 
L 349.663908 -141.876619 
L 350.56189 -138.852846 
L 351.639233 -135.829074 
L 352.785009 -132.805301 
L 353.843374 -129.781528 
L 354.633753 -126.757756 
L 354.980181 -123.733983 
L 354.74436 -120.71021 
L 353.854713 -117.686437 
L 352.323724 -114.662665 
L 350.248386 -111.638892 
L 347.793127 -108.615119 
L 345.159553 -105.591347 
L 342.550933 -102.567574 
L 340.140256 -99.543801 
L 338.048795 -96.520029 
L 336.338312 -93.496256 
L 335.015915 -90.472483 
L 334.04754 -87.448711 
L 333.374882 -84.424938 
z
" id="m5087a4c215" style="stroke:#373737;stroke-width:1.5;"/>
    </defs>
    <g clip-path="url(#p70ee694401)">
     <use style="fill:#2b8e70;stroke:#373737;stroke-width:1.5;" x="0" xlink:href="#m5087a4c215" y="540.169"/>
    </g>
   </g>
   <g id="PolyCollection_4">
    <defs>
     <path d="M 378.379909 -69.533364 
L 376.954883 -69.533364 
L 376.56944 -73.991619 
L 376.038337 -78.449874 
L 375.33962 -82.908129 
L 374.463306 -87.366385 
L 373.417778 -91.82464 
L 372.234633 -96.282895 
L 370.970258 -100.741151 
L 369.70279 -105.199406 
L 368.524018 -109.657661 
L 367.527138 -114.115916 
L 366.79248 -118.574172 
L 366.374207 -123.032427 
L 366.291039 -127.490682 
L 366.523237 -131.948938 
L 367.01664 -136.407193 
L 367.692845 -140.865448 
L 368.463209 -145.323703 
L 369.24354 -149.781959 
L 369.966456 -154.240214 
L 370.589129 -158.698469 
L 371.095427 -163.156725 
L 371.492758 -167.61498 
L 371.805019 -172.073235 
L 372.063669 -176.53149 
L 372.298985 -180.989746 
L 372.533196 -185.448001 
L 372.776449 -189.906256 
L 373.025818 -194.364511 
L 373.266886 -198.822767 
L 373.477034 -203.281022 
L 373.629519 -207.739277 
L 373.697554 -212.197533 
L 373.657913 -216.655788 
L 373.493879 -221.114043 
L 373.197503 -225.572298 
L 372.771159 -230.030554 
L 372.228315 -234.488809 
L 371.593307 -238.947064 
L 370.899943 -243.40532 
L 370.188836 -247.863575 
L 369.503642 -252.32183 
L 368.88664 -256.780085 
L 368.374302 -261.238341 
L 367.993566 -265.696596 
L 367.759438 -270.154851 
L 367.674266 -274.613107 
L 367.72872 -279.071362 
L 367.904199 -283.529617 
L 368.176175 -287.987872 
L 368.517852 -292.446128 
L 368.903581 -296.904383 
L 369.31153 -301.362638 
L 369.725339 -305.820893 
L 370.134633 -310.279149 
L 370.534508 -314.737404 
L 370.924231 -319.195659 
L 371.305526 -323.653915 
L 371.68083 -328.11217 
L 372.05188 -332.570425 
L 372.418846 -337.02868 
L 372.780089 -341.486936 
L 373.132469 -345.945191 
L 373.471999 -350.403446 
L 373.794618 -354.861702 
L 374.096867 -359.319957 
L 374.376334 -363.778212 
L 374.63185 -368.236467 
L 374.863479 -372.694723 
L 375.072372 -377.152978 
L 375.26057 -381.611233 
L 375.430776 -386.069489 
L 375.586101 -390.527744 
L 375.729769 -394.985999 
L 375.86478 -399.444254 
L 375.993583 -403.90251 
L 376.117821 -408.360765 
L 376.238232 -412.81902 
L 376.354733 -417.277275 
L 376.466706 -421.735531 
L 376.573382 -426.193786 
L 376.674221 -430.652041 
L 376.769177 -435.110297 
L 376.858752 -439.568552 
L 376.943852 -444.026807 
L 377.025476 -448.485062 
L 377.104377 -452.943318 
L 377.180792 -457.401573 
L 377.254329 -461.859828 
L 377.324043 -466.318084 
L 377.388665 -470.776339 
L 377.446902 -475.234594 
L 377.497723 -479.692849 
L 377.54056 -484.151105 
L 377.575381 -488.60936 
L 377.602662 -493.067615 
L 377.623255 -497.525871 
L 377.638233 -501.984126 
L 377.648733 -506.442381 
L 377.65583 -510.900636 
L 377.678962 -510.900636 
L 377.678962 -510.900636 
L 377.686059 -506.442381 
L 377.696559 -501.984126 
L 377.711537 -497.525871 
L 377.73213 -493.067615 
L 377.75941 -488.60936 
L 377.794232 -484.151105 
L 377.837068 -479.692849 
L 377.88789 -475.234594 
L 377.946127 -470.776339 
L 378.010749 -466.318084 
L 378.080463 -461.859828 
L 378.153999 -457.401573 
L 378.230415 -452.943318 
L 378.309316 -448.485062 
L 378.39094 -444.026807 
L 378.476039 -439.568552 
L 378.565615 -435.110297 
L 378.660571 -430.652041 
L 378.76141 -426.193786 
L 378.868086 -421.735531 
L 378.980059 -417.277275 
L 379.09656 -412.81902 
L 379.21697 -408.360765 
L 379.341209 -403.90251 
L 379.470012 -399.444254 
L 379.605023 -394.985999 
L 379.748691 -390.527744 
L 379.904016 -386.069489 
L 380.074222 -381.611233 
L 380.26242 -377.152978 
L 380.471313 -372.694723 
L 380.702942 -368.236467 
L 380.958458 -363.778212 
L 381.237925 -359.319957 
L 381.540173 -354.861702 
L 381.862793 -350.403446 
L 382.202323 -345.945191 
L 382.554703 -341.486936 
L 382.915946 -337.02868 
L 383.282912 -332.570425 
L 383.653962 -328.11217 
L 384.029266 -323.653915 
L 384.410561 -319.195659 
L 384.800284 -314.737404 
L 385.200159 -310.279149 
L 385.609453 -305.820893 
L 386.023262 -301.362638 
L 386.431211 -296.904383 
L 386.816939 -292.446128 
L 387.158617 -287.987872 
L 387.430593 -283.529617 
L 387.606072 -279.071362 
L 387.660525 -274.613107 
L 387.575354 -270.154851 
L 387.341226 -265.696596 
L 386.96049 -261.238341 
L 386.448151 -256.780085 
L 385.83115 -252.32183 
L 385.145956 -247.863575 
L 384.434849 -243.40532 
L 383.741485 -238.947064 
L 383.106477 -234.488809 
L 382.563633 -230.030554 
L 382.137289 -225.572298 
L 381.840913 -221.114043 
L 381.676879 -216.655788 
L 381.637237 -212.197533 
L 381.705272 -207.739277 
L 381.857758 -203.281022 
L 382.067906 -198.822767 
L 382.308973 -194.364511 
L 382.558343 -189.906256 
L 382.801596 -185.448001 
L 383.035807 -180.989746 
L 383.271123 -176.53149 
L 383.529773 -172.073235 
L 383.842034 -167.61498 
L 384.239365 -163.156725 
L 384.745663 -158.698469 
L 385.368336 -154.240214 
L 386.091252 -149.781959 
L 386.871583 -145.323703 
L 387.641947 -140.865448 
L 388.318152 -136.407193 
L 388.811554 -131.948938 
L 389.043753 -127.490682 
L 388.960585 -123.032427 
L 388.542312 -118.574172 
L 387.807653 -114.115916 
L 386.810774 -109.657661 
L 385.632002 -105.199406 
L 384.364534 -100.741151 
L 383.100159 -96.282895 
L 381.917013 -91.82464 
L 380.871486 -87.366385 
L 379.995172 -82.908129 
L 379.296455 -78.449874 
L 378.765352 -73.991619 
L 378.379909 -69.533364 
z
" id="m951bb05627" style="stroke:#373737;stroke-width:1.5;"/>
    </defs>
    <g clip-path="url(#p70ee694401)">
     <use style="fill:#be631d;stroke:#373737;stroke-width:1.5;" x="0" xlink:href="#m951bb05627" y="540.169"/>
    </g>
   </g>
   <g id="PolyCollection_5">
    <defs>
     <path d="M 446.888497 -81.511541 
L 444.569581 -81.511541 
L 443.911714 -84.693243 
L 442.988505 -87.874945 
L 441.751659 -91.056648 
L 440.171607 -94.23835 
L 438.249958 -97.420052 
L 436.029909 -100.601755 
L 433.601288 -103.783457 
L 431.097435 -106.96516 
L 428.682735 -110.146862 
L 426.531925 -113.328564 
L 424.804729 -116.510267 
L 423.621006 -119.691969 
L 423.041825 -122.873672 
L 423.060599 -126.055374 
L 423.60592 -129.237076 
L 424.554929 -132.418779 
L 425.753812 -135.600481 
L 427.040854 -138.782183 
L 428.267736 -141.963886 
L 429.315898 -145.145588 
L 430.10639 -148.327291 
L 430.603124 -151.508993 
L 430.810385 -154.690695 
L 430.766002 -157.872398 
L 430.531684 -161.0541 
L 430.182008 -164.235803 
L 429.793488 -167.417505 
L 429.435095 -170.599207 
L 429.161369 -173.78091 
L 429.008886 -176.962612 
L 428.996222 -180.144315 
L 429.126863 -183.326017 
L 429.39389 -186.507719 
L 429.785002 -189.689422 
L 430.286532 -192.871124 
L 430.885608 -196.052826 
L 431.570341 -199.234529 
L 432.328569 -202.416231 
L 433.14611 -205.597934 
L 434.005502 -208.779636 
L 434.885881 -211.961338 
L 435.764132 -215.143041 
L 436.616931 -218.324743 
L 437.423042 -221.506446 
L 438.165205 -224.688148 
L 438.83121 -227.86985 
L 439.414121 -231.051553 
L 439.911883 -234.233255 
L 440.326664 -237.414957 
L 440.664218 -240.59666 
L 440.933395 -243.778362 
L 441.145687 -246.960065 
L 441.314646 -250.141767 
L 441.454996 -253.323469 
L 441.581391 -256.505172 
L 441.706925 -259.686874 
L 441.841661 -262.868577 
L 441.991467 -266.050279 
L 442.157463 -269.231981 
L 442.336249 -272.413684 
L 442.520913 -275.595386 
L 442.702672 -278.777089 
L 442.872828 -281.958791 
L 443.02465 -285.140493 
L 443.154804 -288.322196 
L 443.26403 -291.503898 
L 443.356938 -294.6856 
L 443.440998 -297.867303 
L 443.524972 -301.049005 
L 443.61714 -304.230708 
L 443.723733 -307.41241 
L 443.847869 -310.594112 
L 443.989166 -313.775815 
L 444.14403 -316.957517 
L 444.306469 -320.13922 
L 444.469219 -323.320922 
L 444.624923 -326.502624 
L 444.767177 -329.684327 
L 444.891301 -332.866029 
L 444.994777 -336.047731 
L 445.077345 -339.229434 
L 445.140796 -342.411136 
L 445.188518 -345.592839 
L 445.224883 -348.774541 
L 445.254573 -351.956243 
L 445.281926 -355.137946 
L 445.310411 -358.319648 
L 445.342282 -361.501351 
L 445.378455 -364.683053 
L 445.418598 -367.864755 
L 445.461405 -371.046458 
L 445.504973 -374.22816 
L 445.547221 -377.409863 
L 445.586261 -380.591565 
L 445.620666 -383.773267 
L 445.649609 -386.95497 
L 445.672872 -390.136672 
L 445.690747 -393.318374 
L 445.703886 -396.500077 
L 445.754193 -396.500077 
L 445.754193 -396.500077 
L 445.767332 -393.318374 
L 445.785207 -390.136672 
L 445.80847 -386.95497 
L 445.837413 -383.773267 
L 445.871818 -380.591565 
L 445.910858 -377.409863 
L 445.953106 -374.22816 
L 445.996674 -371.046458 
L 446.039481 -367.864755 
L 446.079624 -364.683053 
L 446.115797 -361.501351 
L 446.147668 -358.319648 
L 446.176153 -355.137946 
L 446.203506 -351.956243 
L 446.233196 -348.774541 
L 446.269561 -345.592839 
L 446.317283 -342.411136 
L 446.380734 -339.229434 
L 446.463302 -336.047731 
L 446.566778 -332.866029 
L 446.690902 -329.684327 
L 446.833155 -326.502624 
L 446.98886 -323.320922 
L 447.15161 -320.13922 
L 447.314049 -316.957517 
L 447.468913 -313.775815 
L 447.61021 -310.594112 
L 447.734346 -307.41241 
L 447.840939 -304.230708 
L 447.933107 -301.049005 
L 448.01708 -297.867303 
L 448.101141 -294.6856 
L 448.194049 -291.503898 
L 448.303275 -288.322196 
L 448.433429 -285.140493 
L 448.585251 -281.958791 
L 448.755406 -278.777089 
L 448.937166 -275.595386 
L 449.12183 -272.413684 
L 449.300616 -269.231981 
L 449.466612 -266.050279 
L 449.616418 -262.868577 
L 449.751154 -259.686874 
L 449.876688 -256.505172 
L 450.003083 -253.323469 
L 450.143433 -250.141767 
L 450.312392 -246.960065 
L 450.524684 -243.778362 
L 450.79386 -240.59666 
L 451.131415 -237.414957 
L 451.546196 -234.233255 
L 452.043958 -231.051553 
L 452.626869 -227.86985 
L 453.292874 -224.688148 
L 454.035037 -221.506446 
L 454.841148 -218.324743 
L 455.693947 -215.143041 
L 456.572197 -211.961338 
L 457.452577 -208.779636 
L 458.311969 -205.597934 
L 459.12951 -202.416231 
L 459.887738 -199.234529 
L 460.572471 -196.052826 
L 461.171547 -192.871124 
L 461.673076 -189.689422 
L 462.064189 -186.507719 
L 462.331216 -183.326017 
L 462.461857 -180.144315 
L 462.449193 -176.962612 
L 462.29671 -173.78091 
L 462.022984 -170.599207 
L 461.664591 -167.417505 
L 461.276071 -164.235803 
L 460.926395 -161.0541 
L 460.692077 -157.872398 
L 460.647694 -154.690695 
L 460.854954 -151.508993 
L 461.351689 -148.327291 
L 462.142181 -145.145588 
L 463.190343 -141.963886 
L 464.417225 -138.782183 
L 465.704267 -135.600481 
L 466.90315 -132.418779 
L 467.852159 -129.237076 
L 468.39748 -126.055374 
L 468.416254 -122.873672 
L 467.837073 -119.691969 
L 466.65335 -116.510267 
L 464.926154 -113.328564 
L 462.775343 -110.146862 
L 460.360644 -106.96516 
L 457.856791 -103.783457 
L 455.42817 -100.601755 
L 453.208121 -97.420052 
L 451.286472 -94.23835 
L 449.706419 -91.056648 
L 448.469573 -87.874945 
L 447.546365 -84.693243 
L 446.888497 -81.511541 
z
" id="m0faaec3a5c" style="stroke:#373737;stroke-width:1.5;"/>
    </defs>
    <g clip-path="url(#p70ee694401)">
     <use style="fill:#2b8e70;stroke:#373737;stroke-width:1.5;" x="0" xlink:href="#m0faaec3a5c" y="540.169"/>
    </g>
   </g>
   <g id="PolyCollection_6">
    <defs>
     <path d="M 492.002394 -69.867222 
L 490.204543 -69.867222 
L 489.751842 -74.033788 
L 489.140325 -78.200353 
L 488.348619 -82.366919 
L 487.36757 -86.533485 
L 486.206141 -90.70005 
L 484.895881 -94.866616 
L 483.492504 -99.033182 
L 482.073454 -103.199747 
L 480.731065 -107.366313 
L 479.561944 -111.532879 
L 478.654229 -115.699444 
L 478.075074 -119.86601 
L 477.860866 -124.032576 
L 478.012181 -128.199141 
L 478.494477 -132.365707 
L 479.244252 -136.532273 
L 480.179247 -140.698838 
L 481.21052 -144.865404 
L 482.254067 -149.03197 
L 483.239976 -153.198535 
L 484.117914 -157.365101 
L 484.858607 -161.531667 
L 485.45184 -165.698232 
L 485.902054 -169.864798 
L 486.222911 -174.031364 
L 486.432078 -178.197929 
L 486.547176 -182.364495 
L 486.583339 -186.531061 
L 486.55235 -190.697626 
L 486.462931 -194.864192 
L 486.321583 -199.030758 
L 486.133422 -203.197323 
L 485.902629 -207.363889 
L 485.632485 -211.530455 
L 485.325181 -215.697021 
L 484.981756 -219.863586 
L 484.602475 -224.030152 
L 484.187767 -228.196718 
L 483.739582 -232.363283 
L 483.262813 -236.529849 
L 482.766339 -240.696415 
L 482.263301 -244.86298 
L 481.770443 -249.029546 
L 481.306625 -253.196112 
L 480.89082 -257.362677 
L 480.540055 -261.529243 
L 480.267711 -265.695809 
L 480.082493 -269.862374 
L 479.988131 -274.02894 
L 479.98373 -278.195506 
L 480.064533 -282.362071 
L 480.222844 -286.528637 
L 480.448891 -290.695203 
L 480.73154 -294.861768 
L 481.058869 -299.028334 
L 481.418685 -303.1949 
L 481.799107 -307.361465 
L 482.189277 -311.528031 
L 482.580165 -315.694597 
L 482.965336 -319.861162 
L 483.341493 -324.027728 
L 483.708574 -328.194294 
L 484.069305 -332.360859 
L 484.428223 -336.527425 
L 484.790329 -340.693991 
L 485.15968 -344.860556 
L 485.538206 -349.027122 
L 485.925048 -353.193688 
L 486.316504 -357.360253 
L 486.706592 -361.526819 
L 487.088025 -365.693385 
L 487.453382 -369.85995 
L 487.796196 -374.026516 
L 488.111781 -378.193082 
L 488.397679 -382.359647 
L 488.653702 -386.526213 
L 488.881642 -390.692779 
L 489.084753 -394.859344 
L 489.267113 -399.02591 
L 489.432998 -403.192476 
L 489.586356 -407.359041 
L 489.730431 -411.525607 
L 489.867566 -415.692173 
L 489.999168 -419.858738 
L 490.125797 -424.025304 
L 490.247329 -428.19187 
L 490.363156 -432.358435 
L 490.472374 -436.525001 
L 490.573958 -440.691567 
L 490.666908 -444.858132 
L 490.750378 -449.024698 
L 490.823773 -453.191264 
L 490.886826 -457.357829 
L 490.939641 -461.524395 
L 490.982693 -465.690961 
L 491.016786 -469.857526 
L 491.042974 -474.024092 
L 491.062463 -478.190658 
L 491.076498 -482.357223 
L 491.130439 -482.357223 
L 491.130439 -482.357223 
L 491.144474 -478.190658 
L 491.163963 -474.024092 
L 491.190151 -469.857526 
L 491.224244 -465.690961 
L 491.267296 -461.524395 
L 491.320111 -457.357829 
L 491.383164 -453.191264 
L 491.456559 -449.024698 
L 491.540029 -444.858132 
L 491.632979 -440.691567 
L 491.734563 -436.525001 
L 491.843781 -432.358435 
L 491.959608 -428.19187 
L 492.08114 -424.025304 
L 492.207769 -419.858738 
L 492.339371 -415.692173 
L 492.476506 -411.525607 
L 492.620581 -407.359041 
L 492.773939 -403.192476 
L 492.939824 -399.02591 
L 493.122184 -394.859344 
L 493.325295 -390.692779 
L 493.553235 -386.526213 
L 493.809258 -382.359647 
L 494.095156 -378.193082 
L 494.410741 -374.026516 
L 494.753555 -369.85995 
L 495.118912 -365.693385 
L 495.500345 -361.526819 
L 495.890433 -357.360253 
L 496.281889 -353.193688 
L 496.668731 -349.027122 
L 497.047257 -344.860556 
L 497.416608 -340.693991 
L 497.778714 -336.527425 
L 498.137632 -332.360859 
L 498.498363 -328.194294 
L 498.865444 -324.027728 
L 499.241601 -319.861162 
L 499.626772 -315.694597 
L 500.01766 -311.528031 
L 500.40783 -307.361465 
L 500.788252 -303.1949 
L 501.148068 -299.028334 
L 501.475397 -294.861768 
L 501.758046 -290.695203 
L 501.984093 -286.528637 
L 502.142404 -282.362071 
L 502.223207 -278.195506 
L 502.218806 -274.02894 
L 502.124444 -269.862374 
L 501.939226 -265.695809 
L 501.666882 -261.529243 
L 501.316117 -257.362677 
L 500.900312 -253.196112 
L 500.436494 -249.029546 
L 499.943636 -244.86298 
L 499.440598 -240.696415 
L 498.944124 -236.529849 
L 498.467355 -232.363283 
L 498.01917 -228.196718 
L 497.604462 -224.030152 
L 497.225181 -219.863586 
L 496.881756 -215.697021 
L 496.574452 -211.530455 
L 496.304308 -207.363889 
L 496.073515 -203.197323 
L 495.885354 -199.030758 
L 495.744006 -194.864192 
L 495.654587 -190.697626 
L 495.623598 -186.531061 
L 495.659761 -182.364495 
L 495.774859 -178.197929 
L 495.984026 -174.031364 
L 496.304883 -169.864798 
L 496.755097 -165.698232 
L 497.34833 -161.531667 
L 498.089023 -157.365101 
L 498.966961 -153.198535 
L 499.95287 -149.03197 
L 500.996417 -144.865404 
L 502.02769 -140.698838 
L 502.962685 -136.532273 
L 503.71246 -132.365707 
L 504.194756 -128.199141 
L 504.346071 -124.032576 
L 504.131863 -119.86601 
L 503.552708 -115.699444 
L 502.644993 -111.532879 
L 501.475872 -107.366313 
L 500.133483 -103.199747 
L 498.714433 -99.033182 
L 497.311056 -94.866616 
L 496.000796 -90.70005 
L 494.839367 -86.533485 
L 493.858318 -82.366919 
L 493.066612 -78.200353 
L 492.455095 -74.033788 
L 492.002394 -69.867222 
z
" id="me3e9e69565" style="stroke:#373737;stroke-width:1.5;"/>
    </defs>
    <g clip-path="url(#p70ee694401)">
     <use style="fill:#be631d;stroke:#373737;stroke-width:1.5;" x="0" xlink:href="#me3e9e69565" y="540.169"/>
    </g>
   </g>
   <g id="PolyCollection_7">
    <defs>
     <path d="M 559.957926 -100.121951 
L 558.372298 -100.121951 
L 557.881255 -101.169794 
L 557.170941 -102.217637 
L 556.192147 -103.26548 
L 554.907882 -104.313323 
L 553.304291 -105.361166 
L 551.400278 -106.409009 
L 549.252909 -107.456852 
L 546.956197 -108.504695 
L 544.632341 -109.552538 
L 542.416579 -110.600381 
L 540.438737 -111.648224 
L 538.80562 -112.696067 
L 537.58816 -113.74391 
L 536.815729 -114.791754 
L 536.477898 -115.839597 
L 536.531995 -116.88744 
L 536.913679 -117.935283 
L 537.54772 -118.983126 
L 538.357001 -120.030969 
L 539.268927 -121.078812 
L 540.219399 -122.126655 
L 541.154996 -123.174498 
L 542.033996 -124.222341 
L 542.826556 -125.270184 
L 543.51411 -126.318027 
L 544.08796 -127.36587 
L 544.547172 -128.413714 
L 544.896094 -129.461557 
L 545.141972 -130.5094 
L 545.293026 -131.557243 
L 545.357166 -132.605086 
L 545.34129 -133.652929 
L 545.250951 -134.700772 
L 545.09028 -135.748615 
L 544.862121 -136.796458 
L 544.568515 -137.844301 
L 544.211597 -138.892144 
L 543.7949 -139.939987 
L 543.324848 -140.98783 
L 542.812101 -142.035674 
L 542.272441 -143.083517 
L 541.726924 -144.13136 
L 541.201208 -145.179203 
L 540.72409 -146.227046 
L 540.325376 -147.274889 
L 540.033365 -148.322732 
L 539.872246 -149.370575 
L 539.859847 -150.418418 
L 540.006085 -151.466261 
L 540.312425 -152.514104 
L 540.772383 -153.561947 
L 541.372917 -154.60979 
L 542.096307 -155.657633 
L 542.922077 -156.705477 
L 543.828528 -157.75332 
L 544.793647 -158.801163 
L 545.795384 -159.849006 
L 546.811497 -160.896849 
L 547.819323 -161.944692 
L 548.795842 -162.992535 
L 549.718333 -164.040378 
L 550.565691 -165.088221 
L 551.320278 -166.136064 
L 551.969964 -167.183907 
L 552.509909 -168.23175 
L 552.943632 -169.279593 
L 553.283042 -170.327437 
L 553.547301 -171.37528 
L 553.760601 -172.423123 
L 553.94917 -173.470966 
L 554.137982 -174.518809 
L 554.347696 -175.566652 
L 554.592369 -176.614495 
L 554.878298 -177.662338 
L 555.204151 -178.710181 
L 555.562269 -179.758024 
L 555.940752 -180.805867 
L 556.32584 -181.85371 
L 556.70407 -182.901553 
L 557.063838 -183.949397 
L 557.396252 -184.99724 
L 557.69534 -186.045083 
L 557.957855 -187.092926 
L 558.18291 -188.140769 
L 558.371598 -189.188612 
L 558.526628 -190.236455 
L 558.651937 -191.284298 
L 558.752229 -192.332141 
L 558.832433 -193.379984 
L 558.897156 -194.427827 
L 558.950244 -195.47567 
L 558.99455 -196.523513 
L 559.03193 -197.571356 
L 559.063439 -198.6192 
L 559.089632 -199.667043 
L 559.110859 -200.714886 
L 559.127485 -201.762729 
L 559.139997 -202.810572 
L 559.149008 -203.858415 
L 559.181216 -203.858415 
L 559.181216 -203.858415 
L 559.190228 -202.810572 
L 559.202739 -201.762729 
L 559.219365 -200.714886 
L 559.240593 -199.667043 
L 559.266786 -198.6192 
L 559.298294 -197.571356 
L 559.335674 -196.523513 
L 559.37998 -195.47567 
L 559.433068 -194.427827 
L 559.497791 -193.379984 
L 559.577995 -192.332141 
L 559.678287 -191.284298 
L 559.803597 -190.236455 
L 559.958626 -189.188612 
L 560.147314 -188.140769 
L 560.372369 -187.092926 
L 560.634884 -186.045083 
L 560.933972 -184.99724 
L 561.266386 -183.949397 
L 561.626154 -182.901553 
L 562.004384 -181.85371 
L 562.389472 -180.805867 
L 562.767955 -179.758024 
L 563.126073 -178.710181 
L 563.451926 -177.662338 
L 563.737855 -176.614495 
L 563.982528 -175.566652 
L 564.192242 -174.518809 
L 564.381054 -173.470966 
L 564.569623 -172.423123 
L 564.782923 -171.37528 
L 565.047182 -170.327437 
L 565.386592 -169.279593 
L 565.820315 -168.23175 
L 566.36026 -167.183907 
L 567.009946 -166.136064 
L 567.764533 -165.088221 
L 568.611891 -164.040378 
L 569.534382 -162.992535 
L 570.510902 -161.944692 
L 571.518727 -160.896849 
L 572.53484 -159.849006 
L 573.536577 -158.801163 
L 574.501696 -157.75332 
L 575.408147 -156.705477 
L 576.233917 -155.657633 
L 576.957307 -154.60979 
L 577.557841 -153.561947 
L 578.017799 -152.514104 
L 578.324139 -151.466261 
L 578.470377 -150.418418 
L 578.457978 -149.370575 
L 578.296859 -148.322732 
L 578.004848 -147.274889 
L 577.606134 -146.227046 
L 577.129016 -145.179203 
L 576.6033 -144.13136 
L 576.057783 -143.083517 
L 575.518123 -142.035674 
L 575.005376 -140.98783 
L 574.535324 -139.939987 
L 574.118627 -138.892144 
L 573.761709 -137.844301 
L 573.468103 -136.796458 
L 573.239945 -135.748615 
L 573.079273 -134.700772 
L 572.988934 -133.652929 
L 572.973058 -132.605086 
L 573.037198 -131.557243 
L 573.188252 -130.5094 
L 573.43413 -129.461557 
L 573.783052 -128.413714 
L 574.242264 -127.36587 
L 574.816115 -126.318027 
L 575.503668 -125.270184 
L 576.296228 -124.222341 
L 577.175228 -123.174498 
L 578.110825 -122.126655 
L 579.061297 -121.078812 
L 579.973223 -120.030969 
L 580.782504 -118.983126 
L 581.416545 -117.935283 
L 581.798229 -116.88744 
L 581.852327 -115.839597 
L 581.514495 -114.791754 
L 580.742064 -113.74391 
L 579.524605 -112.696067 
L 577.891487 -111.648224 
L 575.913645 -110.600381 
L 573.697884 -109.552538 
L 571.374027 -108.504695 
L 569.077315 -107.456852 
L 566.929946 -106.409009 
L 565.025933 -105.361166 
L 563.422342 -104.313323 
L 562.138077 -103.26548 
L 561.159283 -102.217637 
L 560.448969 -101.169794 
L 559.957926 -100.121951 
z
" id="m5e71c7e83e" style="stroke:#373737;stroke-width:1.5;"/>
    </defs>
    <g clip-path="url(#p70ee694401)">
     <use style="fill:#2b8e70;stroke:#373737;stroke-width:1.5;" x="0" xlink:href="#m5e71c7e83e" y="540.169"/>
    </g>
   </g>
   <g id="PolyCollection_8">
    <defs>
     <path d="M 605.379371 -96.515968 
L 603.699711 -96.515968 
L 603.140392 -98.112736 
L 602.324545 -99.709505 
L 601.206268 -101.306273 
L 599.769386 -102.903042 
L 598.044808 -104.49981 
L 596.121798 -106.096579 
L 594.14709 -107.693348 
L 592.308375 -109.290116 
L 590.803525 -110.886885 
L 589.802262 -112.483653 
L 589.410625 -114.080422 
L 589.648553 -115.67719 
L 590.447018 -117.273959 
L 591.664905 -118.870727 
L 593.119812 -120.467496 
L 594.623474 -122.064264 
L 596.01265 -123.661033 
L 597.16934 -125.257801 
L 598.028527 -126.85457 
L 598.57532 -128.451339 
L 598.835417 -130.048107 
L 598.86288 -131.644876 
L 598.728059 -133.241644 
L 598.506935 -134.838413 
L 598.272019 -136.435181 
L 598.084588 -138.03195 
L 597.988373 -139.628718 
L 598.005371 -141.225487 
L 598.134676 -142.822255 
L 598.354849 -144.419024 
L 598.629469 -146.015793 
L 598.914482 -147.612561 
L 599.165432 -149.20933 
L 599.342839 -150.806098 
L 599.414822 -152.402867 
L 599.357197 -153.999635 
L 599.152139 -155.596404 
L 598.786753 -157.193172 
L 598.252564 -158.789941 
L 597.546221 -160.386709 
L 596.671077 -161.983478 
L 595.638998 -163.580247 
L 594.471851 -165.177015 
L 593.202403 -166.773784 
L 591.874584 -168.370552 
L 590.543049 -169.967321 
L 589.271764 -171.564089 
L 588.131169 -173.160858 
L 587.193534 -174.757626 
L 586.526563 -176.354395 
L 586.185872 -177.951163 
L 586.207492 -179.547932 
L 586.601746 -181.144701 
L 587.349719 -182.741469 
L 588.403164 -184.338238 
L 589.688195 -185.935006 
L 591.112614 -187.531775 
L 592.576123 -189.128543 
L 593.982105 -190.725312 
L 595.249126 -192.32208 
L 596.320141 -193.918849 
L 597.167688 -195.515617 
L 597.794175 -197.112386 
L 598.227504 -198.709154 
L 598.513284 -200.305923 
L 598.705539 -201.902692 
L 598.857799 -203.49946 
L 599.016029 -205.096229 
L 599.21412 -206.692997 
L 599.471975 -208.289766 
L 599.795792 -209.886534 
L 600.179934 -211.483303 
L 600.609798 -213.080071 
L 601.065166 -214.67684 
L 601.52363 -216.273608 
L 601.963728 -217.870377 
L 602.367473 -219.467146 
L 602.72202 -221.063914 
L 603.020366 -222.660683 
L 603.261105 -224.257451 
L 603.447491 -225.85422 
L 603.586152 -227.450988 
L 603.685799 -229.047757 
L 603.756152 -230.644525 
L 603.807121 -232.241294 
L 603.84813 -233.838062 
L 603.887434 -235.434831 
L 603.931407 -237.0316 
L 603.983897 -238.628368 
L 604.045876 -240.225137 
L 604.11558 -241.821905 
L 604.189192 -243.418674 
L 604.261909 -245.015442 
L 604.329104 -246.612211 
L 604.387265 -248.208979 
L 604.434494 -249.805748 
L 604.47053 -251.402516 
L 604.496401 -252.999285 
L 604.513895 -254.596054 
L 604.565187 -254.596054 
L 604.565187 -254.596054 
L 604.582682 -252.999285 
L 604.608552 -251.402516 
L 604.644588 -249.805748 
L 604.691817 -248.208979 
L 604.749978 -246.612211 
L 604.817173 -245.015442 
L 604.88989 -243.418674 
L 604.963502 -241.821905 
L 605.033207 -240.225137 
L 605.095185 -238.628368 
L 605.147675 -237.0316 
L 605.191648 -235.434831 
L 605.230952 -233.838062 
L 605.271961 -232.241294 
L 605.322931 -230.644525 
L 605.393284 -229.047757 
L 605.492931 -227.450988 
L 605.631592 -225.85422 
L 605.817977 -224.257451 
L 606.058716 -222.660683 
L 606.357062 -221.063914 
L 606.711609 -219.467146 
L 607.115354 -217.870377 
L 607.555452 -216.273608 
L 608.013917 -214.67684 
L 608.469284 -213.080071 
L 608.899148 -211.483303 
L 609.28329 -209.886534 
L 609.607107 -208.289766 
L 609.864962 -206.692997 
L 610.063053 -205.096229 
L 610.221283 -203.49946 
L 610.373543 -201.902692 
L 610.565798 -200.305923 
L 610.851578 -198.709154 
L 611.284907 -197.112386 
L 611.911394 -195.515617 
L 612.758941 -193.918849 
L 613.829957 -192.32208 
L 615.096977 -190.725312 
L 616.502959 -189.128543 
L 617.966469 -187.531775 
L 619.390887 -185.935006 
L 620.675918 -184.338238 
L 621.729363 -182.741469 
L 622.477336 -181.144701 
L 622.87159 -179.547932 
L 622.89321 -177.951163 
L 622.552519 -176.354395 
L 621.885548 -174.757626 
L 620.947913 -173.160858 
L 619.807318 -171.564089 
L 618.536033 -169.967321 
L 617.204498 -168.370552 
L 615.876679 -166.773784 
L 614.607231 -165.177015 
L 613.440084 -163.580247 
L 612.408005 -161.983478 
L 611.532861 -160.386709 
L 610.826518 -158.789941 
L 610.292329 -157.193172 
L 609.926943 -155.596404 
L 609.721885 -153.999635 
L 609.66426 -152.402867 
L 609.736243 -150.806098 
L 609.91365 -149.20933 
L 610.1646 -147.612561 
L 610.449613 -146.015793 
L 610.724233 -144.419024 
L 610.944407 -142.822255 
L 611.073711 -141.225487 
L 611.09071 -139.628718 
L 610.994495 -138.03195 
L 610.807063 -136.435181 
L 610.572147 -134.838413 
L 610.351023 -133.241644 
L 610.216202 -131.644876 
L 610.243665 -130.048107 
L 610.503762 -128.451339 
L 611.050555 -126.85457 
L 611.909742 -125.257801 
L 613.066432 -123.661033 
L 614.455608 -122.064264 
L 615.959271 -120.467496 
L 617.414178 -118.870727 
L 618.632065 -117.273959 
L 619.430529 -115.67719 
L 619.668457 -114.080422 
L 619.27682 -112.483653 
L 618.275557 -110.886885 
L 616.770707 -109.290116 
L 614.931992 -107.693348 
L 612.957284 -106.096579 
L 611.034274 -104.49981 
L 609.309696 -102.903042 
L 607.872814 -101.306273 
L 606.754537 -99.709505 
L 605.93869 -98.112736 
L 605.379371 -96.515968 
z
" id="me29ccfdaf5" style="stroke:#373737;stroke-width:1.5;"/>
    </defs>
    <g clip-path="url(#p70ee694401)">
     <use style="fill:#be631d;stroke:#373737;stroke-width:1.5;" x="0" xlink:href="#me29ccfdaf5" y="540.169"/>
    </g>
   </g>
   <g id="patch_3">
    <path clip-path="url(#p70ee694401)" d="M 128.108036 430.319552 
L 128.108036 430.319552 
L 128.108036 430.319552 
L 128.108036 430.319552 
z
" style="fill:#2b8e70;stroke:#373737;stroke-linejoin:miter;stroke-width:0.75;"/>
   </g>
   <g id="patch_4">
    <path clip-path="url(#p70ee694401)" d="M 128.108036 430.319552 
L 128.108036 430.319552 
L 128.108036 430.319552 
L 128.108036 430.319552 
z
" style="fill:#be631d;stroke:#373737;stroke-linejoin:miter;stroke-width:0.75;"/>
   </g>
   <g id="line2d_1">
    <path clip-path="url(#p70ee694401)" d="M 82.733607 430.319552 
L 128.108036 430.319552 
" style="fill:none;stroke:#373737;stroke-linecap:round;stroke-width:1.5;"/>
   </g>
   <g id="line2d_2">
    <path clip-path="url(#p70ee694401)" d="M 128.108036 430.319552 
L 173.482465 430.319552 
" style="fill:none;stroke:#373737;stroke-linecap:round;stroke-width:1.5;"/>
   </g>
   <g id="line2d_3">
    <path clip-path="url(#p70ee694401)" d="M 218.856894 428.409982 
L 218.856894 225.821981 
" style="fill:none;stroke:#373737;stroke-linecap:round;stroke-width:1.5;"/>
   </g>
   <g id="line2d_4">
    <path clip-path="url(#p70ee694401)" d="M 218.856894 419.317826 
L 218.856894 341.068861 
" style="fill:none;stroke:#373737;stroke-linecap:round;stroke-width:4.5;"/>
   </g>
   <g id="line2d_5">
    <path clip-path="url(#p70ee694401)" d="M 264.231323 427.715593 
L 264.231323 91.804897 
" style="fill:none;stroke:#373737;stroke-linecap:round;stroke-width:1.5;"/>
   </g>
   <g id="line2d_6">
    <path clip-path="url(#p70ee694401)" d="M 264.231323 412.373935 
L 264.231323 241.966526 
" style="fill:none;stroke:#373737;stroke-linecap:round;stroke-width:4.5;"/>
   </g>
   <g id="line2d_7">
    <path clip-path="url(#p70ee694401)" d="M 332.292967 428.062787 
L 332.292967 242.053325 
" style="fill:none;stroke:#373737;stroke-linecap:round;stroke-width:1.5;"/>
   </g>
   <g id="line2d_8">
    <path clip-path="url(#p70ee694401)" d="M 332.292967 416.909164 
L 332.292967 345.842786 
" style="fill:none;stroke:#373737;stroke-linecap:round;stroke-width:4.5;"/>
   </g>
   <g id="line2d_9">
    <path clip-path="url(#p70ee694401)" d="M 377.667396 426.066419 
L 377.667396 73.837581 
" style="fill:none;stroke:#373737;stroke-linecap:round;stroke-width:1.5;"/>
   </g>
   <g id="line2d_10">
    <path clip-path="url(#p70ee694401)" d="M 377.667396 406.189533 
L 377.667396 245.438471 
" style="fill:none;stroke:#373737;stroke-linecap:round;stroke-width:4.5;"/>
   </g>
   <g id="line2d_11">
    <path clip-path="url(#p70ee694401)" d="M 445.729039 427.455197 
L 445.729039 228.165544 
" style="fill:none;stroke:#373737;stroke-linecap:round;stroke-width:1.5;"/>
   </g>
   <g id="line2d_12">
    <path clip-path="url(#p70ee694401)" d="M 445.729039 414.6307 
L 445.729039 338.5951 
" style="fill:none;stroke:#373737;stroke-linecap:round;stroke-width:4.5;"/>
   </g>
   <g id="line2d_13">
    <path clip-path="url(#p70ee694401)" d="M 491.103468 426.674009 
L 491.103468 101.439545 
" style="fill:none;stroke:#373737;stroke-linecap:round;stroke-width:1.5;"/>
   </g>
   <g id="line2d_14">
    <path clip-path="url(#p70ee694401)" d="M 491.103468 406.38483 
L 491.103468 242.313721 
" style="fill:none;stroke:#373737;stroke-linecap:round;stroke-width:4.5;"/>
   </g>
   <g id="line2d_15">
    <path clip-path="url(#p70ee694401)" d="M 559.165112 430.319552 
L 559.165112 346.038083 
" style="fill:none;stroke:#373737;stroke-linecap:round;stroke-width:1.5;"/>
   </g>
   <g id="line2d_16">
    <path clip-path="url(#p70ee694401)" d="M 559.165112 420.793402 
L 559.165112 387.419329 
" style="fill:none;stroke:#373737;stroke-linecap:round;stroke-width:4.5;"/>
   </g>
   <g id="line2d_17">
    <path clip-path="url(#p70ee694401)" d="M 604.539541 429.972357 
L 604.539541 299.253621 
" style="fill:none;stroke:#373737;stroke-linecap:round;stroke-width:1.5;"/>
   </g>
   <g id="line2d_18">
    <path clip-path="url(#p70ee694401)" d="M 604.539541 418.797034 
L 604.539541 357.235106 
" style="fill:none;stroke:#373737;stroke-linecap:round;stroke-width:4.5;"/>
   </g>
   <g id="patch_5">
    <path d="M 71.39 492.704 
L 71.39 7.2 
" style="fill:none;stroke:#262626;stroke-linecap:square;stroke-linejoin:miter;stroke-width:0.8;"/>
   </g>
   <g id="patch_6">
    <path d="M 71.39 492.704 
L 638.570363 492.704 
" style="fill:none;stroke:#262626;stroke-linecap:square;stroke-linejoin:miter;stroke-width:0.8;"/>
   </g>
   <g id="PathCollection_1">
    <defs>
     <path d="M 0 1.5 
C 0.397805 1.5 0.77937 1.341951 1.06066 1.06066 
C 1.341951 0.77937 1.5 0.397805 1.5 0 
C 1.5 -0.397805 1.341951 -0.77937 1.06066 -1.06066 
C 0.77937 -1.341951 0.397805 -1.5 0 -1.5 
C -0.397805 -1.5 -0.77937 -1.341951 -1.06066 -1.06066 
C -1.341951 -0.77937 -1.5 -0.397805 -1.5 0 
C -1.5 0.397805 -1.341951 0.77937 -1.06066 1.06066 
C -0.77937 1.341951 -0.397805 1.5 0 1.5 
z
" id="m908297b6a8" style="stroke:#373737;"/>
    </defs>
    <g clip-path="url(#p70ee694401)">
     <use style="fill:#ffffff;stroke:#373737;" x="218.856894" xlink:href="#m908297b6a8" y="376.938395"/>
    </g>
   </g>
   <g id="PathCollection_2">
    <g clip-path="url(#p70ee694401)">
     <use style="fill:#ffffff;stroke:#373737;" x="264.231323" xlink:href="#m908297b6a8" y="289.749172"/>
    </g>
   </g>
   <g id="PathCollection_3">
    <g clip-path="url(#p70ee694401)">
     <use style="fill:#ffffff;stroke:#373737;" x="332.292967" xlink:href="#m908297b6a8" y="383.925684"/>
    </g>
   </g>
   <g id="PathCollection_4">
    <g clip-path="url(#p70ee694401)">
     <use style="fill:#ffffff;stroke:#373737;" x="377.667396" xlink:href="#m908297b6a8" y="290.48696"/>
    </g>
   </g>
   <g id="PathCollection_5">
    <g clip-path="url(#p70ee694401)">
     <use style="fill:#ffffff;stroke:#373737;" x="445.729039" xlink:href="#m908297b6a8" y="372.728661"/>
    </g>
   </g>
   <g id="PathCollection_6">
    <g clip-path="url(#p70ee694401)">
     <use style="fill:#ffffff;stroke:#373737;" x="491.103468" xlink:href="#m908297b6a8" y="292.439929"/>
    </g>
   </g>
   <g id="PathCollection_7">
    <g clip-path="url(#p70ee694401)">
     <use style="fill:#ffffff;stroke:#373737;" x="559.165112" xlink:href="#m908297b6a8" y="402.717588"/>
    </g>
   </g>
   <g id="PathCollection_8">
    <g clip-path="url(#p70ee694401)">
     <use style="fill:#ffffff;stroke:#373737;" x="604.539541" xlink:href="#m908297b6a8" y="370.949289"/>
    </g>
   </g>
  </g>
  <g id="legend_1">
   <g id="text_13">
    <!-- workday -->
    <defs>
     <path d="M 16.15625 0 
L 0.296875 51.859375 
L 9.375 51.859375 
L 17.625 21.921875 
L 20.703125 10.796875 
Q 20.90625 11.625 23.390625 21.484375 
L 31.640625 51.859375 
L 40.671875 51.859375 
L 48.4375 21.78125 
L 51.03125 11.859375 
L 54 21.875 
L 62.890625 51.859375 
L 71.4375 51.859375 
L 55.21875 0 
L 46.09375 0 
L 37.84375 31.0625 
L 35.84375 39.890625 
L 25.34375 0 
z
" id="ArialMT-119"/>
     <path d="M 6.640625 0 
L 6.640625 71.578125 
L 15.4375 71.578125 
L 15.4375 30.765625 
L 36.234375 51.859375 
L 47.609375 51.859375 
L 27.78125 32.625 
L 49.609375 0 
L 38.765625 0 
L 21.625 26.515625 
L 15.4375 20.5625 
L 15.4375 0 
z
" id="ArialMT-107"/>
     <path d="M 40.4375 6.390625 
Q 35.546875 2.25 31.03125 0.53125 
Q 26.515625 -1.171875 21.34375 -1.171875 
Q 12.796875 -1.171875 8.203125 3 
Q 3.609375 7.171875 3.609375 13.671875 
Q 3.609375 17.484375 5.34375 20.625 
Q 7.078125 23.78125 9.890625 25.6875 
Q 12.703125 27.59375 16.21875 28.5625 
Q 18.796875 29.25 24.03125 29.890625 
Q 34.671875 31.15625 39.703125 32.90625 
Q 39.75 34.71875 39.75 35.203125 
Q 39.75 40.578125 37.25 42.78125 
Q 33.890625 45.75 27.25 45.75 
Q 21.046875 45.75 18.09375 43.578125 
Q 15.140625 41.40625 13.71875 35.890625 
L 5.125 37.0625 
Q 6.296875 42.578125 8.984375 45.96875 
Q 11.671875 49.359375 16.75 51.1875 
Q 21.828125 53.03125 28.515625 53.03125 
Q 35.15625 53.03125 39.296875 51.46875 
Q 43.453125 49.90625 45.40625 47.53125 
Q 47.359375 45.171875 48.140625 41.546875 
Q 48.578125 39.3125 48.578125 33.453125 
L 48.578125 21.734375 
Q 48.578125 9.46875 49.140625 6.21875 
Q 49.703125 2.984375 51.375 0 
L 42.1875 0 
Q 40.828125 2.734375 40.4375 6.390625 
z
M 39.703125 26.03125 
Q 34.90625 24.078125 25.34375 22.703125 
Q 19.921875 21.921875 17.671875 20.9375 
Q 15.4375 19.96875 14.203125 18.09375 
Q 12.984375 16.21875 12.984375 13.921875 
Q 12.984375 10.40625 15.640625 8.0625 
Q 18.3125 5.71875 23.4375 5.71875 
Q 28.515625 5.71875 32.46875 7.9375 
Q 36.421875 10.15625 38.28125 14.015625 
Q 39.703125 17 39.703125 22.796875 
z
" id="ArialMT-97"/>
     <path d="M 6.203125 -19.96875 
L 5.21875 -11.71875 
Q 8.109375 -12.5 10.25 -12.5 
Q 13.1875 -12.5 14.9375 -11.515625 
Q 16.703125 -10.546875 17.828125 -8.796875 
Q 18.65625 -7.46875 20.515625 -2.25 
Q 20.75 -1.515625 21.296875 -0.09375 
L 1.609375 51.859375 
L 11.078125 51.859375 
L 21.875 21.828125 
Q 23.96875 16.109375 25.640625 9.8125 
Q 27.15625 15.875 29.25 21.625 
L 40.328125 51.859375 
L 49.125 51.859375 
L 29.390625 -0.875 
Q 26.21875 -9.421875 24.46875 -12.640625 
Q 22.125 -17 19.09375 -19.015625 
Q 16.0625 -21.046875 11.859375 -21.046875 
Q 9.328125 -21.046875 6.203125 -19.96875 
z
" id="ArialMT-121"/>
    </defs>
    <g style="fill:#262626;" transform="translate(717.143 251.4945)scale(0.16 -0.16)">
     <use xlink:href="#ArialMT-119"/>
     <use x="72.216797" xlink:href="#ArialMT-111"/>
     <use x="127.832031" xlink:href="#ArialMT-114"/>
     <use x="161.132812" xlink:href="#ArialMT-107"/>
     <use x="211.132812" xlink:href="#ArialMT-100"/>
     <use x="266.748047" xlink:href="#ArialMT-97"/>
     <use x="322.363281" xlink:href="#ArialMT-121"/>
    </g>
   </g>
   <g id="patch_7">
    <path d="M 720.08175 274.3145 
L 752.08175 274.3145 
L 752.08175 263.1145 
L 720.08175 263.1145 
z
" style="fill:#2b8e70;stroke:#373737;stroke-linejoin:miter;stroke-width:0.75;"/>
   </g>
   <g id="text_14">
    <!-- 0 -->
    <g style="fill:#262626;" transform="translate(764.88175 274.3145)scale(0.16 -0.16)">
     <use xlink:href="#ArialMT-48"/>
    </g>
   </g>
   <g id="patch_8">
    <path d="M 720.08175 296.947 
L 752.08175 296.947 
L 752.08175 285.747 
L 720.08175 285.747 
z
" style="fill:#be631d;stroke:#373737;stroke-linejoin:miter;stroke-width:0.75;"/>
   </g>
   <g id="text_15">
    <!-- 1 -->
    <g style="fill:#262626;" transform="translate(764.88175 296.947)scale(0.16 -0.16)">
     <use xlink:href="#ArialMT-49"/>
    </g>
   </g>
  </g>
 </g>
 <defs>
  <clipPath id="p70ee694401">
   <rect height="485.504" width="567.180363" x="71.39" y="7.2"/>
  </clipPath>
 </defs>
</svg>
