<?xml version="1.0" encoding="utf-8" standalone="no"?>
<!DOCTYPE svg PUBLIC "-//W3C//DTD SVG 1.1//EN"
  "http://www.w3.org/Graphics/SVG/1.1/DTD/svg11.dtd">
<!-- Created with matplotlib (https://matplotlib.org/) -->
<svg height="509.319pt" version="1.1" viewBox="0 0 744.7655 509.319" width="744.7655pt" xmlns="http://www.w3.org/2000/svg" xmlns:xlink="http://www.w3.org/1999/xlink">
 <defs>
  <style type="text/css">
*{stroke-linecap:butt;stroke-linejoin:round;white-space:pre;}
  </style>
 </defs>
 <g id="figure_1">
  <g id="patch_1">
   <path d="M 0 509.319 
L 744.7655 509.319 
L 744.7655 0 
L 0 0 
z
" style="fill:#ffffff;"/>
  </g>
  <g id="axes_1">
   <g id="patch_2">
    <path d="M 71.8375 461.854 
L 592.217863 461.854 
L 592.217863 7.2 
L 71.8375 7.2 
z
" style="fill:#ffffff;"/>
   </g>
   <g id="matplotlib.axis_1">
    <g id="xtick_1">
     <g id="text_1">
      <!-- 1038-276-1 -->
      <defs>
       <path d="M 37.25 0 
L 28.46875 0 
L 28.46875 56 
Q 25.296875 52.984375 20.140625 49.953125 
Q 14.984375 46.921875 10.890625 45.40625 
L 10.890625 53.90625 
Q 18.265625 57.375 23.78125 62.296875 
Q 29.296875 67.234375 31.59375 71.875 
L 37.25 71.875 
z
" id="ArialMT-49"/>
       <path d="M 4.15625 35.296875 
Q 4.15625 48 6.765625 55.734375 
Q 9.375 63.484375 14.515625 67.671875 
Q 19.671875 71.875 27.484375 71.875 
Q 33.25 71.875 37.59375 69.546875 
Q 41.9375 67.234375 44.765625 62.859375 
Q 47.609375 58.5 49.21875 52.21875 
Q 50.828125 45.953125 50.828125 35.296875 
Q 50.828125 22.703125 48.234375 14.96875 
Q 45.65625 7.234375 40.5 3 
Q 35.359375 -1.21875 27.484375 -1.21875 
Q 17.140625 -1.21875 11.234375 6.203125 
Q 4.15625 15.140625 4.15625 35.296875 
z
M 13.1875 35.296875 
Q 13.1875 17.671875 17.3125 11.828125 
Q 21.4375 6 27.484375 6 
Q 33.546875 6 37.671875 11.859375 
Q 41.796875 17.71875 41.796875 35.296875 
Q 41.796875 52.984375 37.671875 58.78125 
Q 33.546875 64.59375 27.390625 64.59375 
Q 21.34375 64.59375 17.71875 59.46875 
Q 13.1875 52.9375 13.1875 35.296875 
z
" id="ArialMT-48"/>
       <path d="M 4.203125 18.890625 
L 12.984375 20.0625 
Q 14.5 12.59375 18.140625 9.296875 
Q 21.78125 6 27 6 
Q 33.203125 6 37.46875 10.296875 
Q 41.75 14.59375 41.75 20.953125 
Q 41.75 27 37.796875 30.921875 
Q 33.84375 34.859375 27.734375 34.859375 
Q 25.25 34.859375 21.53125 33.890625 
L 22.515625 41.609375 
Q 23.390625 41.5 23.921875 41.5 
Q 29.546875 41.5 34.03125 44.421875 
Q 38.53125 47.359375 38.53125 53.46875 
Q 38.53125 58.296875 35.25 61.46875 
Q 31.984375 64.65625 26.8125 64.65625 
Q 21.6875 64.65625 18.265625 61.421875 
Q 14.84375 58.203125 13.875 51.765625 
L 5.078125 53.328125 
Q 6.6875 62.15625 12.390625 67.015625 
Q 18.109375 71.875 26.609375 71.875 
Q 32.46875 71.875 37.390625 69.359375 
Q 42.328125 66.84375 44.9375 62.5 
Q 47.5625 58.15625 47.5625 53.265625 
Q 47.5625 48.640625 45.0625 44.828125 
Q 42.578125 41.015625 37.703125 38.765625 
Q 44.046875 37.3125 47.5625 32.6875 
Q 51.078125 28.078125 51.078125 21.140625 
Q 51.078125 11.765625 44.234375 5.25 
Q 37.40625 -1.265625 26.953125 -1.265625 
Q 17.53125 -1.265625 11.296875 4.34375 
Q 5.078125 9.96875 4.203125 18.890625 
z
" id="ArialMT-51"/>
       <path d="M 17.671875 38.8125 
Q 12.203125 40.828125 9.5625 44.53125 
Q 6.9375 48.25 6.9375 53.421875 
Q 6.9375 61.234375 12.546875 66.546875 
Q 18.171875 71.875 27.484375 71.875 
Q 36.859375 71.875 42.578125 66.421875 
Q 48.296875 60.984375 48.296875 53.171875 
Q 48.296875 48.1875 45.671875 44.5 
Q 43.0625 40.828125 37.75 38.8125 
Q 44.34375 36.671875 47.78125 31.875 
Q 51.21875 27.09375 51.21875 20.453125 
Q 51.21875 11.28125 44.71875 5.03125 
Q 38.234375 -1.21875 27.640625 -1.21875 
Q 17.046875 -1.21875 10.546875 5.046875 
Q 4.046875 11.328125 4.046875 20.703125 
Q 4.046875 27.6875 7.59375 32.390625 
Q 11.140625 37.109375 17.671875 38.8125 
z
M 15.921875 53.71875 
Q 15.921875 48.640625 19.1875 45.40625 
Q 22.46875 42.1875 27.6875 42.1875 
Q 32.765625 42.1875 36.015625 45.375 
Q 39.265625 48.578125 39.265625 53.21875 
Q 39.265625 58.0625 35.90625 61.359375 
Q 32.5625 64.65625 27.59375 64.65625 
Q 22.5625 64.65625 19.234375 61.421875 
Q 15.921875 58.203125 15.921875 53.71875 
z
M 13.09375 20.65625 
Q 13.09375 16.890625 14.875 13.375 
Q 16.65625 9.859375 20.171875 7.921875 
Q 23.6875 6 27.734375 6 
Q 34.03125 6 38.125 10.046875 
Q 42.234375 14.109375 42.234375 20.359375 
Q 42.234375 26.703125 38.015625 30.859375 
Q 33.796875 35.015625 27.4375 35.015625 
Q 21.234375 35.015625 17.15625 30.90625 
Q 13.09375 26.8125 13.09375 20.65625 
z
" id="ArialMT-56"/>
       <path d="M 3.171875 21.484375 
L 3.171875 30.328125 
L 30.171875 30.328125 
L 30.171875 21.484375 
z
" id="ArialMT-45"/>
       <path d="M 50.34375 8.453125 
L 50.34375 0 
L 3.03125 0 
Q 2.9375 3.171875 4.046875 6.109375 
Q 5.859375 10.9375 9.828125 15.625 
Q 13.8125 20.3125 21.34375 26.46875 
Q 33.015625 36.03125 37.109375 41.625 
Q 41.21875 47.21875 41.21875 52.203125 
Q 41.21875 57.421875 37.46875 61 
Q 33.734375 64.59375 27.734375 64.59375 
Q 21.390625 64.59375 17.578125 60.78125 
Q 13.765625 56.984375 13.71875 50.25 
L 4.6875 51.171875 
Q 5.609375 61.28125 11.65625 66.578125 
Q 17.71875 71.875 27.9375 71.875 
Q 38.234375 71.875 44.234375 66.15625 
Q 50.25 60.453125 50.25 52 
Q 50.25 47.703125 48.484375 43.546875 
Q 46.734375 39.40625 42.65625 34.8125 
Q 38.578125 30.21875 29.109375 22.21875 
Q 21.1875 15.578125 18.9375 13.203125 
Q 16.703125 10.84375 15.234375 8.453125 
z
" id="ArialMT-50"/>
       <path d="M 4.734375 62.203125 
L 4.734375 70.65625 
L 51.078125 70.65625 
L 51.078125 63.8125 
Q 44.234375 56.546875 37.515625 44.484375 
Q 30.8125 32.421875 27.15625 19.671875 
Q 24.515625 10.6875 23.78125 0 
L 14.75 0 
Q 14.890625 8.453125 18.0625 20.40625 
Q 21.234375 32.375 27.171875 43.484375 
Q 33.109375 54.59375 39.796875 62.203125 
z
" id="ArialMT-55"/>
       <path d="M 49.75 54.046875 
L 41.015625 53.375 
Q 39.84375 58.546875 37.703125 60.890625 
Q 34.125 64.65625 28.90625 64.65625 
Q 24.703125 64.65625 21.53125 62.3125 
Q 17.390625 59.28125 14.984375 53.46875 
Q 12.59375 47.65625 12.5 36.921875 
Q 15.671875 41.75 20.265625 44.09375 
Q 24.859375 46.4375 29.890625 46.4375 
Q 38.671875 46.4375 44.84375 39.96875 
Q 51.03125 33.5 51.03125 23.25 
Q 51.03125 16.5 48.125 10.71875 
Q 45.21875 4.9375 40.140625 1.859375 
Q 35.0625 -1.21875 28.609375 -1.21875 
Q 17.625 -1.21875 10.6875 6.859375 
Q 3.765625 14.9375 3.765625 33.5 
Q 3.765625 54.25 11.421875 63.671875 
Q 18.109375 71.875 29.4375 71.875 
Q 37.890625 71.875 43.28125 67.140625 
Q 48.6875 62.40625 49.75 54.046875 
z
M 13.875 23.1875 
Q 13.875 18.65625 15.796875 14.5 
Q 17.71875 10.359375 21.1875 8.171875 
Q 24.65625 6 28.46875 6 
Q 34.03125 6 38.03125 10.484375 
Q 42.046875 14.984375 42.046875 22.703125 
Q 42.046875 30.125 38.078125 34.390625 
Q 34.125 38.671875 28.125 38.671875 
Q 22.171875 38.671875 18.015625 34.390625 
Q 13.875 30.125 13.875 23.1875 
z
" id="ArialMT-54"/>
      </defs>
      <g style="fill:#262626;" transform="translate(82.958036 480.3065)scale(0.16 -0.16)">
       <use xlink:href="#ArialMT-49"/>
       <use x="55.615234" xlink:href="#ArialMT-48"/>
       <use x="111.230469" xlink:href="#ArialMT-51"/>
       <use x="166.845703" xlink:href="#ArialMT-56"/>
       <use x="222.460938" xlink:href="#ArialMT-45"/>
       <use x="255.761719" xlink:href="#ArialMT-50"/>
       <use x="311.376953" xlink:href="#ArialMT-55"/>
       <use x="366.992188" xlink:href="#ArialMT-54"/>
       <use x="422.607422" xlink:href="#ArialMT-45"/>
       <use x="455.908203" xlink:href="#ArialMT-49"/>
      </g>
     </g>
    </g>
    <g id="xtick_2">
     <g id="text_2">
      <!-- 1935-230 -->
      <defs>
       <path d="M 5.46875 16.546875 
L 13.921875 17.328125 
Q 14.984375 11.375 18.015625 8.6875 
Q 21.046875 6 25.78125 6 
Q 29.828125 6 32.875 7.859375 
Q 35.9375 9.71875 37.890625 12.8125 
Q 39.84375 15.921875 41.15625 21.1875 
Q 42.484375 26.46875 42.484375 31.9375 
Q 42.484375 32.515625 42.4375 33.6875 
Q 39.796875 29.5 35.234375 26.875 
Q 30.671875 24.265625 25.34375 24.265625 
Q 16.453125 24.265625 10.296875 30.703125 
Q 4.15625 37.15625 4.15625 47.703125 
Q 4.15625 58.59375 10.578125 65.234375 
Q 17 71.875 26.65625 71.875 
Q 33.640625 71.875 39.421875 68.109375 
Q 45.21875 64.359375 48.21875 57.390625 
Q 51.21875 50.4375 51.21875 37.25 
Q 51.21875 23.53125 48.234375 15.40625 
Q 45.265625 7.28125 39.375 3.03125 
Q 33.5 -1.21875 25.59375 -1.21875 
Q 17.1875 -1.21875 11.859375 3.4375 
Q 6.546875 8.109375 5.46875 16.546875 
z
M 41.453125 48.140625 
Q 41.453125 55.71875 37.421875 60.15625 
Q 33.40625 64.59375 27.734375 64.59375 
Q 21.875 64.59375 17.53125 59.8125 
Q 13.1875 55.03125 13.1875 47.40625 
Q 13.1875 40.578125 17.3125 36.296875 
Q 21.4375 32.03125 27.484375 32.03125 
Q 33.59375 32.03125 37.515625 36.296875 
Q 41.453125 40.578125 41.453125 48.140625 
z
" id="ArialMT-57"/>
       <path d="M 4.15625 18.75 
L 13.375 19.53125 
Q 14.40625 12.796875 18.140625 9.390625 
Q 21.875 6 27.15625 6 
Q 33.5 6 37.890625 10.78125 
Q 42.28125 15.578125 42.28125 23.484375 
Q 42.28125 31 38.0625 35.34375 
Q 33.84375 39.703125 27 39.703125 
Q 22.75 39.703125 19.328125 37.765625 
Q 15.921875 35.84375 13.96875 32.765625 
L 5.71875 33.84375 
L 12.640625 70.609375 
L 48.25 70.609375 
L 48.25 62.203125 
L 19.671875 62.203125 
L 15.828125 42.96875 
Q 22.265625 47.46875 29.34375 47.46875 
Q 38.71875 47.46875 45.15625 40.96875 
Q 51.609375 34.46875 51.609375 24.265625 
Q 51.609375 14.546875 45.953125 7.46875 
Q 39.0625 -1.21875 27.15625 -1.21875 
Q 17.390625 -1.21875 11.203125 4.25 
Q 5.03125 9.71875 4.15625 18.75 
z
" id="ArialMT-53"/>
      </defs>
      <g style="fill:#262626;" transform="translate(194.146609 480.3065)scale(0.16 -0.16)">
       <use xlink:href="#ArialMT-49"/>
       <use x="55.615234" xlink:href="#ArialMT-57"/>
       <use x="111.230469" xlink:href="#ArialMT-51"/>
       <use x="166.845703" xlink:href="#ArialMT-53"/>
       <use x="222.460938" xlink:href="#ArialMT-45"/>
       <use x="255.761719" xlink:href="#ArialMT-50"/>
       <use x="311.376953" xlink:href="#ArialMT-51"/>
       <use x="366.992188" xlink:href="#ArialMT-48"/>
      </g>
     </g>
    </g>
    <g id="xtick_3">
     <g id="text_3">
      <!-- 1935-230-1 -->
      <g style="fill:#262626;" transform="translate(291.110181 480.3065)scale(0.16 -0.16)">
       <use xlink:href="#ArialMT-49"/>
       <use x="55.615234" xlink:href="#ArialMT-57"/>
       <use x="111.230469" xlink:href="#ArialMT-51"/>
       <use x="166.845703" xlink:href="#ArialMT-53"/>
       <use x="222.460938" xlink:href="#ArialMT-45"/>
       <use x="255.761719" xlink:href="#ArialMT-50"/>
       <use x="311.376953" xlink:href="#ArialMT-51"/>
       <use x="366.992188" xlink:href="#ArialMT-48"/>
       <use x="422.607422" xlink:href="#ArialMT-45"/>
       <use x="455.908203" xlink:href="#ArialMT-49"/>
      </g>
     </g>
    </g>
    <g id="xtick_4">
     <g id="text_4">
      <!-- 1946-230 -->
      <defs>
       <path d="M 32.328125 0 
L 32.328125 17.140625 
L 1.265625 17.140625 
L 1.265625 25.203125 
L 33.9375 71.578125 
L 41.109375 71.578125 
L 41.109375 25.203125 
L 50.78125 25.203125 
L 50.78125 17.140625 
L 41.109375 17.140625 
L 41.109375 0 
z
M 32.328125 25.203125 
L 32.328125 57.46875 
L 9.90625 25.203125 
z
" id="ArialMT-52"/>
      </defs>
      <g style="fill:#262626;" transform="translate(402.298754 480.3065)scale(0.16 -0.16)">
       <use xlink:href="#ArialMT-49"/>
       <use x="55.615234" xlink:href="#ArialMT-57"/>
       <use x="111.230469" xlink:href="#ArialMT-52"/>
       <use x="166.845703" xlink:href="#ArialMT-54"/>
       <use x="222.460938" xlink:href="#ArialMT-45"/>
       <use x="255.761719" xlink:href="#ArialMT-50"/>
       <use x="311.376953" xlink:href="#ArialMT-51"/>
       <use x="366.992188" xlink:href="#ArialMT-48"/>
      </g>
     </g>
    </g>
    <g id="xtick_5">
     <g id="text_5">
      <!-- 1947-211 -->
      <g style="fill:#262626;" transform="translate(506.383577 480.3065)scale(0.16 -0.16)">
       <use xlink:href="#ArialMT-49"/>
       <use x="55.615234" xlink:href="#ArialMT-57"/>
       <use x="111.230469" xlink:href="#ArialMT-52"/>
       <use x="166.845703" xlink:href="#ArialMT-55"/>
       <use x="222.460938" xlink:href="#ArialMT-45"/>
       <use x="255.761719" xlink:href="#ArialMT-50"/>
       <use x="311.376953" xlink:href="#ArialMT-49"/>
       <use x="366.882812" xlink:href="#ArialMT-49"/>
      </g>
     </g>
    </g>
    <g id="text_6">
     <!-- Counter id -->
     <defs>
      <path d="M 58.796875 25.09375 
L 68.265625 22.703125 
Q 65.28125 11.03125 57.546875 4.90625 
Q 49.8125 -1.21875 38.625 -1.21875 
Q 27.046875 -1.21875 19.796875 3.484375 
Q 12.546875 8.203125 8.765625 17.140625 
Q 4.984375 26.078125 4.984375 36.328125 
Q 4.984375 47.515625 9.25 55.828125 
Q 13.53125 64.15625 21.40625 68.46875 
Q 29.296875 72.796875 38.765625 72.796875 
Q 49.515625 72.796875 56.828125 67.328125 
Q 64.15625 61.859375 67.046875 51.953125 
L 57.71875 49.75 
Q 55.21875 57.5625 50.484375 61.125 
Q 45.75 64.703125 38.578125 64.703125 
Q 30.328125 64.703125 24.78125 60.734375 
Q 19.234375 56.78125 16.984375 50.109375 
Q 14.75 43.453125 14.75 36.375 
Q 14.75 27.25 17.40625 20.4375 
Q 20.0625 13.625 25.671875 10.25 
Q 31.296875 6.890625 37.84375 6.890625 
Q 45.796875 6.890625 51.3125 11.46875 
Q 56.84375 16.0625 58.796875 25.09375 
z
" id="ArialMT-67"/>
      <path d="M 3.328125 25.921875 
Q 3.328125 40.328125 11.328125 47.265625 
Q 18.015625 53.03125 27.640625 53.03125 
Q 38.328125 53.03125 45.109375 46.015625 
Q 51.90625 39.015625 51.90625 26.65625 
Q 51.90625 16.65625 48.90625 10.90625 
Q 45.90625 5.171875 40.15625 2 
Q 34.421875 -1.171875 27.640625 -1.171875 
Q 16.75 -1.171875 10.03125 5.8125 
Q 3.328125 12.796875 3.328125 25.921875 
z
M 12.359375 25.921875 
Q 12.359375 15.96875 16.703125 11.015625 
Q 21.046875 6.0625 27.640625 6.0625 
Q 34.1875 6.0625 38.53125 11.03125 
Q 42.875 16.015625 42.875 26.21875 
Q 42.875 35.84375 38.5 40.796875 
Q 34.125 45.75 27.640625 45.75 
Q 21.046875 45.75 16.703125 40.8125 
Q 12.359375 35.890625 12.359375 25.921875 
z
" id="ArialMT-111"/>
      <path d="M 40.578125 0 
L 40.578125 7.625 
Q 34.515625 -1.171875 24.125 -1.171875 
Q 19.53125 -1.171875 15.546875 0.578125 
Q 11.578125 2.34375 9.640625 5 
Q 7.71875 7.671875 6.9375 11.53125 
Q 6.390625 14.109375 6.390625 19.734375 
L 6.390625 51.859375 
L 15.1875 51.859375 
L 15.1875 23.09375 
Q 15.1875 16.21875 15.71875 13.8125 
Q 16.546875 10.359375 19.234375 8.375 
Q 21.921875 6.390625 25.875 6.390625 
Q 29.828125 6.390625 33.296875 8.421875 
Q 36.765625 10.453125 38.203125 13.9375 
Q 39.65625 17.4375 39.65625 24.078125 
L 39.65625 51.859375 
L 48.4375 51.859375 
L 48.4375 0 
z
" id="ArialMT-117"/>
      <path d="M 6.59375 0 
L 6.59375 51.859375 
L 14.5 51.859375 
L 14.5 44.484375 
Q 20.21875 53.03125 31 53.03125 
Q 35.6875 53.03125 39.625 51.34375 
Q 43.5625 49.65625 45.515625 46.921875 
Q 47.46875 44.1875 48.25 40.4375 
Q 48.734375 37.984375 48.734375 31.890625 
L 48.734375 0 
L 39.9375 0 
L 39.9375 31.546875 
Q 39.9375 36.921875 38.90625 39.578125 
Q 37.890625 42.234375 35.28125 43.8125 
Q 32.671875 45.40625 29.15625 45.40625 
Q 23.53125 45.40625 19.453125 41.84375 
Q 15.375 38.28125 15.375 28.328125 
L 15.375 0 
z
" id="ArialMT-110"/>
      <path d="M 25.78125 7.859375 
L 27.046875 0.09375 
Q 23.34375 -0.6875 20.40625 -0.6875 
Q 15.625 -0.6875 12.984375 0.828125 
Q 10.359375 2.34375 9.28125 4.8125 
Q 8.203125 7.28125 8.203125 15.1875 
L 8.203125 45.015625 
L 1.765625 45.015625 
L 1.765625 51.859375 
L 8.203125 51.859375 
L 8.203125 64.703125 
L 16.9375 69.96875 
L 16.9375 51.859375 
L 25.78125 51.859375 
L 25.78125 45.015625 
L 16.9375 45.015625 
L 16.9375 14.703125 
Q 16.9375 10.9375 17.40625 9.859375 
Q 17.875 8.796875 18.921875 8.15625 
Q 19.96875 7.515625 21.921875 7.515625 
Q 23.390625 7.515625 25.78125 7.859375 
z
" id="ArialMT-116"/>
      <path d="M 42.09375 16.703125 
L 51.171875 15.578125 
Q 49.03125 7.625 43.21875 3.21875 
Q 37.40625 -1.171875 28.375 -1.171875 
Q 17 -1.171875 10.328125 5.828125 
Q 3.65625 12.84375 3.65625 25.484375 
Q 3.65625 38.578125 10.390625 45.796875 
Q 17.140625 53.03125 27.875 53.03125 
Q 38.28125 53.03125 44.875 45.953125 
Q 51.46875 38.875 51.46875 26.03125 
Q 51.46875 25.25 51.421875 23.6875 
L 12.75 23.6875 
Q 13.234375 15.140625 17.578125 10.59375 
Q 21.921875 6.0625 28.421875 6.0625 
Q 33.25 6.0625 36.671875 8.59375 
Q 40.09375 11.140625 42.09375 16.703125 
z
M 13.234375 30.90625 
L 42.1875 30.90625 
Q 41.609375 37.453125 38.875 40.71875 
Q 34.671875 45.796875 27.984375 45.796875 
Q 21.921875 45.796875 17.796875 41.75 
Q 13.671875 37.703125 13.234375 30.90625 
z
" id="ArialMT-101"/>
      <path d="M 6.5 0 
L 6.5 51.859375 
L 14.40625 51.859375 
L 14.40625 44 
Q 17.4375 49.515625 20 51.265625 
Q 22.5625 53.03125 25.640625 53.03125 
Q 30.078125 53.03125 34.671875 50.203125 
L 31.640625 42.046875 
Q 28.421875 43.953125 25.203125 43.953125 
Q 22.3125 43.953125 20.015625 42.21875 
Q 17.71875 40.484375 16.75 37.40625 
Q 15.28125 32.71875 15.28125 27.15625 
L 15.28125 0 
z
" id="ArialMT-114"/>
      <path id="ArialMT-32"/>
      <path d="M 6.640625 61.46875 
L 6.640625 71.578125 
L 15.4375 71.578125 
L 15.4375 61.46875 
z
M 6.640625 0 
L 6.640625 51.859375 
L 15.4375 51.859375 
L 15.4375 0 
z
" id="ArialMT-105"/>
      <path d="M 40.234375 0 
L 40.234375 6.546875 
Q 35.296875 -1.171875 25.734375 -1.171875 
Q 19.53125 -1.171875 14.328125 2.25 
Q 9.125 5.671875 6.265625 11.796875 
Q 3.421875 17.921875 3.421875 25.875 
Q 3.421875 33.640625 6 39.96875 
Q 8.59375 46.296875 13.765625 49.65625 
Q 18.953125 53.03125 25.34375 53.03125 
Q 30.03125 53.03125 33.6875 51.046875 
Q 37.359375 49.078125 39.65625 45.90625 
L 39.65625 71.578125 
L 48.390625 71.578125 
L 48.390625 0 
z
M 12.453125 25.875 
Q 12.453125 15.921875 16.640625 10.984375 
Q 20.84375 6.0625 26.5625 6.0625 
Q 32.328125 6.0625 36.34375 10.765625 
Q 40.375 15.484375 40.375 25.140625 
Q 40.375 35.796875 36.265625 40.765625 
Q 32.171875 45.75 26.171875 45.75 
Q 20.3125 45.75 16.375 40.96875 
Q 12.453125 36.1875 12.453125 25.875 
z
" id="ArialMT-100"/>
     </defs>
     <g style="fill:#262626;" transform="translate(295.120181 498.939)scale(0.16 -0.16)">
      <use xlink:href="#ArialMT-67"/>
      <use x="72.216797" xlink:href="#ArialMT-111"/>
      <use x="127.832031" xlink:href="#ArialMT-117"/>
      <use x="183.447266" xlink:href="#ArialMT-110"/>
      <use x="239.0625" xlink:href="#ArialMT-116"/>
      <use x="266.845703" xlink:href="#ArialMT-101"/>
      <use x="322.460938" xlink:href="#ArialMT-114"/>
      <use x="355.761719" xlink:href="#ArialMT-32"/>
      <use x="383.544922" xlink:href="#ArialMT-105"/>
      <use x="405.761719" xlink:href="#ArialMT-100"/>
     </g>
    </g>
   </g>
   <g id="matplotlib.axis_2">
    <g id="ytick_1">
     <g id="text_7">
      <!-- −100 -->
      <defs>
       <path d="M 52.828125 31.203125 
L 5.5625 31.203125 
L 5.5625 39.40625 
L 52.828125 39.40625 
z
" id="ArialMT-8722"/>
      </defs>
      <g style="fill:#262626;" transform="translate(28.8 461.734501)scale(0.16 -0.16)">
       <use xlink:href="#ArialMT-8722"/>
       <use x="58.398438" xlink:href="#ArialMT-49"/>
       <use x="114.013672" xlink:href="#ArialMT-48"/>
       <use x="169.628906" xlink:href="#ArialMT-48"/>
      </g>
     </g>
    </g>
    <g id="ytick_2">
     <g id="text_8">
      <!-- 0 -->
      <g style="fill:#262626;" transform="translate(55.94 408.10708)scale(0.16 -0.16)">
       <use xlink:href="#ArialMT-48"/>
      </g>
     </g>
    </g>
    <g id="ytick_3">
     <g id="text_9">
      <!-- 100 -->
      <g style="fill:#262626;" transform="translate(38.145 354.479658)scale(0.16 -0.16)">
       <use xlink:href="#ArialMT-49"/>
       <use x="55.615234" xlink:href="#ArialMT-48"/>
       <use x="111.230469" xlink:href="#ArialMT-48"/>
      </g>
     </g>
    </g>
    <g id="ytick_4">
     <g id="text_10">
      <!-- 200 -->
      <g style="fill:#262626;" transform="translate(38.145 300.852236)scale(0.16 -0.16)">
       <use xlink:href="#ArialMT-50"/>
       <use x="55.615234" xlink:href="#ArialMT-48"/>
       <use x="111.230469" xlink:href="#ArialMT-48"/>
      </g>
     </g>
    </g>
    <g id="ytick_5">
     <g id="text_11">
      <!-- 300 -->
      <g style="fill:#262626;" transform="translate(38.145 247.224815)scale(0.16 -0.16)">
       <use xlink:href="#ArialMT-51"/>
       <use x="55.615234" xlink:href="#ArialMT-48"/>
       <use x="111.230469" xlink:href="#ArialMT-48"/>
      </g>
     </g>
    </g>
    <g id="ytick_6">
     <g id="text_12">
      <!-- 400 -->
      <g style="fill:#262626;" transform="translate(38.145 193.597393)scale(0.16 -0.16)">
       <use xlink:href="#ArialMT-52"/>
       <use x="55.615234" xlink:href="#ArialMT-48"/>
       <use x="111.230469" xlink:href="#ArialMT-48"/>
      </g>
     </g>
    </g>
    <g id="ytick_7">
     <g id="text_13">
      <!-- 500 -->
      <g style="fill:#262626;" transform="translate(38.145 139.969972)scale(0.16 -0.16)">
       <use xlink:href="#ArialMT-53"/>
       <use x="55.615234" xlink:href="#ArialMT-48"/>
       <use x="111.230469" xlink:href="#ArialMT-48"/>
      </g>
     </g>
    </g>
    <g id="ytick_8">
     <g id="text_14">
      <!-- 600 -->
      <g style="fill:#262626;" transform="translate(38.145 86.34255)scale(0.16 -0.16)">
       <use xlink:href="#ArialMT-54"/>
       <use x="55.615234" xlink:href="#ArialMT-48"/>
       <use x="111.230469" xlink:href="#ArialMT-48"/>
      </g>
     </g>
    </g>
    <g id="ytick_9">
     <g id="text_15">
      <!-- 700 -->
      <g style="fill:#262626;" transform="translate(38.145 32.715128)scale(0.16 -0.16)">
       <use xlink:href="#ArialMT-55"/>
       <use x="55.615234" xlink:href="#ArialMT-48"/>
       <use x="111.230469" xlink:href="#ArialMT-48"/>
      </g>
     </g>
    </g>
    <g id="text_16">
     <!-- Count [$h^{-1}$] -->
     <defs>
      <path d="M 6.78125 -19.875 
L 6.78125 71.578125 
L 26.171875 71.578125 
L 26.171875 64.3125 
L 15.578125 64.3125 
L 15.578125 -12.59375 
L 26.171875 -12.59375 
L 26.171875 -19.875 
z
" id="ArialMT-91"/>
      <path d="M 55.71875 33.015625 
L 49.3125 0 
L 40.28125 0 
L 46.6875 32.671875 
Q 47.125 34.96875 47.359375 36.71875 
Q 47.609375 38.484375 47.609375 39.5 
Q 47.609375 43.609375 45.015625 45.890625 
Q 42.4375 48.1875 37.796875 48.1875 
Q 30.5625 48.1875 25.265625 43.296875 
Q 19.96875 38.421875 18.40625 30.328125 
L 12.5 0 
L 3.515625 0 
L 18.3125 75.984375 
L 27.296875 75.984375 
L 21.484375 46.09375 
Q 24.90625 50.6875 30.21875 53.34375 
Q 35.546875 56 41.40625 56 
Q 48.640625 56 52.609375 52.09375 
Q 56.59375 48.1875 56.59375 41.109375 
Q 56.59375 39.359375 56.375 37.359375 
Q 56.15625 35.359375 55.71875 33.015625 
z
" id="DejaVuSans-Oblique-104"/>
      <path d="M 10.59375 35.5 
L 73.1875 35.5 
L 73.1875 27.203125 
L 10.59375 27.203125 
z
" id="DejaVuSans-8722"/>
      <path d="M 12.40625 8.296875 
L 28.515625 8.296875 
L 28.515625 63.921875 
L 10.984375 60.40625 
L 10.984375 69.390625 
L 28.421875 72.90625 
L 38.28125 72.90625 
L 38.28125 8.296875 
L 54.390625 8.296875 
L 54.390625 0 
L 12.40625 0 
z
" id="DejaVuSans-49"/>
      <path d="M 21.296875 -19.875 
L 1.90625 -19.875 
L 1.90625 -12.59375 
L 12.5 -12.59375 
L 12.5 64.3125 
L 1.90625 64.3125 
L 1.90625 71.578125 
L 21.296875 71.578125 
z
" id="ArialMT-93"/>
     </defs>
     <g style="fill:#262626;" transform="translate(21.6 276.687)rotate(-90)scale(0.16 -0.16)">
      <use transform="translate(0 0.684375)" xlink:href="#ArialMT-67"/>
      <use transform="translate(72.216797 0.684375)" xlink:href="#ArialMT-111"/>
      <use transform="translate(127.832031 0.684375)" xlink:href="#ArialMT-117"/>
      <use transform="translate(183.447266 0.684375)" xlink:href="#ArialMT-110"/>
      <use transform="translate(239.0625 0.684375)" xlink:href="#ArialMT-116"/>
      <use transform="translate(266.845703 0.684375)" xlink:href="#ArialMT-32"/>
      <use transform="translate(294.628906 0.684375)" xlink:href="#ArialMT-91"/>
      <use transform="translate(322.412109 0.684375)" xlink:href="#DejaVuSans-Oblique-104"/>
      <use transform="translate(393.238724 38.965625)scale(0.7)" xlink:href="#DejaVuSans-8722"/>
      <use transform="translate(451.891068 38.965625)scale(0.7)" xlink:href="#DejaVuSans-49"/>
      <use transform="translate(499.161576 0.684375)" xlink:href="#ArialMT-93"/>
     </g>
    </g>
   </g>
   <g id="PolyCollection_1">
    <defs>
     <path d="M 104.04853 -79.950058 
L 102.072113 -79.950058 
L 101.57562 -82.423693 
L 100.897399 -84.897328 
L 100.004322 -87.370962 
L 98.87152 -89.844597 
L 97.488718 -92.318232 
L 95.866251 -94.791867 
L 94.039465 -97.265502 
L 92.07015 -99.739136 
L 90.04404 -102.212771 
L 88.064066 -104.686406 
L 86.239939 -107.160041 
L 84.675576 -109.633676 
L 83.456446 -112.10731 
L 82.639151 -114.580945 
L 82.245107 -117.05458 
L 82.25942 -119.528215 
L 82.63489 -122.00185 
L 83.300116 -124.475484 
L 84.169922 -126.949119 
L 85.156128 -129.422754 
L 86.176917 -131.896389 
L 87.163675 -134.370024 
L 88.064852 -136.843658 
L 88.847069 -139.317293 
L 89.494033 -141.790928 
L 90.003998 -144.264563 
L 90.386444 -146.738198 
L 90.658447 -149.211833 
L 90.841127 -151.685467 
L 90.956411 -154.159102 
L 91.024348 -156.632737 
L 91.061185 -159.106372 
L 91.078365 -161.580007 
L 91.082492 -164.053641 
L 91.076143 -166.527276 
L 91.059284 -169.000911 
L 91.03088 -171.474546 
L 90.990357 -173.948181 
L 90.938584 -176.421815 
L 90.878272 -178.89545 
L 90.813797 -181.369085 
L 90.750604 -183.84272 
L 90.694418 -186.316355 
L 90.650421 -188.789989 
L 90.622561 -191.263624 
L 90.61304 -193.737259 
L 90.622048 -196.210894 
L 90.647774 -198.684529 
L 90.686743 -201.158163 
L 90.734518 -203.631798 
L 90.78675 -206.105433 
L 90.840434 -208.579068 
L 90.895168 -211.052703 
L 90.954096 -213.526338 
L 91.02424 -215.999972 
L 91.11603 -218.473607 
L 91.242013 -220.947242 
L 91.414925 -223.420877 
L 91.645512 -225.894512 
L 91.940542 -228.368146 
L 92.301451 -230.841781 
L 92.723906 -233.315416 
L 93.198355 -235.789051 
L 93.711435 -238.262686 
L 94.247907 -240.73632 
L 94.792715 -243.209955 
L 95.332782 -245.68359 
L 95.858254 -248.157225 
L 96.363051 -250.63086 
L 96.844727 -253.104494 
L 97.303787 -255.578129 
L 97.742653 -258.051764 
L 98.164525 -260.525399 
L 98.572332 -262.999034 
L 98.967942 -265.472668 
L 99.351724 -267.946303 
L 99.722484 -270.419938 
L 100.077751 -272.893573 
L 100.414306 -275.367208 
L 100.728841 -277.840842 
L 101.018593 -280.314477 
L 101.281839 -282.788112 
L 101.518153 -285.261747 
L 101.728398 -287.735382 
L 101.914491 -290.209017 
L 102.078996 -292.682651 
L 102.22468 -295.156286 
L 102.354106 -297.629921 
L 102.469356 -300.103556 
L 102.571916 -302.577191 
L 102.662717 -305.050825 
L 102.742283 -307.52446 
L 102.810944 -309.998095 
L 102.86903 -312.47173 
L 102.917029 -314.945365 
L 102.955659 -317.418999 
L 102.985875 -319.892634 
L 103.008807 -322.366269 
L 103.025674 -324.839904 
L 103.09497 -324.839904 
L 103.09497 -324.839904 
L 103.111837 -322.366269 
L 103.134769 -319.892634 
L 103.164984 -317.418999 
L 103.203615 -314.945365 
L 103.251614 -312.47173 
L 103.3097 -309.998095 
L 103.37836 -307.52446 
L 103.457927 -305.050825 
L 103.548728 -302.577191 
L 103.651288 -300.103556 
L 103.766537 -297.629921 
L 103.895963 -295.156286 
L 104.041647 -292.682651 
L 104.206153 -290.209017 
L 104.392245 -287.735382 
L 104.602491 -285.261747 
L 104.838804 -282.788112 
L 105.102051 -280.314477 
L 105.391803 -277.840842 
L 105.706337 -275.367208 
L 106.042893 -272.893573 
L 106.39816 -270.419938 
L 106.76892 -267.946303 
L 107.152702 -265.472668 
L 107.548312 -262.999034 
L 107.956119 -260.525399 
L 108.377991 -258.051764 
L 108.816857 -255.578129 
L 109.275917 -253.104494 
L 109.757593 -250.63086 
L 110.26239 -248.157225 
L 110.787862 -245.68359 
L 111.327929 -243.209955 
L 111.872736 -240.73632 
L 112.409209 -238.262686 
L 112.922289 -235.789051 
L 113.396738 -233.315416 
L 113.819192 -230.841781 
L 114.180102 -228.368146 
L 114.475132 -225.894512 
L 114.705719 -223.420877 
L 114.878631 -220.947242 
L 115.004614 -218.473607 
L 115.096404 -215.999972 
L 115.166548 -213.526338 
L 115.225475 -211.052703 
L 115.28021 -208.579068 
L 115.333894 -206.105433 
L 115.386125 -203.631798 
L 115.433901 -201.158163 
L 115.472869 -198.684529 
L 115.498595 -196.210894 
L 115.507604 -193.737259 
L 115.498082 -191.263624 
L 115.470222 -188.789989 
L 115.426226 -186.316355 
L 115.370039 -183.84272 
L 115.306847 -181.369085 
L 115.242371 -178.89545 
L 115.18206 -176.421815 
L 115.130287 -173.948181 
L 115.089763 -171.474546 
L 115.06136 -169.000911 
L 115.0445 -166.527276 
L 115.038152 -164.053641 
L 115.042278 -161.580007 
L 115.059459 -159.106372 
L 115.096296 -156.632737 
L 115.164232 -154.159102 
L 115.279516 -151.685467 
L 115.462197 -149.211833 
L 115.7342 -146.738198 
L 116.116645 -144.264563 
L 116.626611 -141.790928 
L 117.273574 -139.317293 
L 118.055792 -136.843658 
L 118.956969 -134.370024 
L 119.943726 -131.896389 
L 120.964516 -129.422754 
L 121.950722 -126.949119 
L 122.820528 -124.475484 
L 123.485753 -122.00185 
L 123.861223 -119.528215 
L 123.875536 -117.05458 
L 123.481493 -114.580945 
L 122.664197 -112.10731 
L 121.445068 -109.633676 
L 119.880704 -107.160041 
L 118.056578 -104.686406 
L 116.076603 -102.212771 
L 114.050494 -99.739136 
L 112.081179 -97.265502 
L 110.254392 -94.791867 
L 108.631926 -92.318232 
L 107.249124 -89.844597 
L 106.116322 -87.370962 
L 105.223244 -84.897328 
L 104.545024 -82.423693 
L 104.04853 -79.950058 
z
" id="m8adc75a227" style="stroke:#373737;stroke-width:1.5;"/>
    </defs>
    <g clip-path="url(#p81dcefb012)">
     <use style="fill:#2b8e70;stroke:#373737;stroke-width:1.5;" x="0" xlink:href="#m8adc75a227" y="509.319"/>
    </g>
   </g>
   <g id="PolyCollection_2">
    <defs>
     <path d="M 145.46307 -68.131091 
L 143.918431 -68.131091 
L 143.46417 -72.306059 
L 142.826561 -76.481027 
L 141.97867 -80.655994 
L 140.912577 -84.830962 
L 139.648705 -89.00593 
L 138.2417 -93.180898 
L 136.779952 -97.355866 
L 135.377048 -101.530834 
L 134.155621 -105.705802 
L 133.22658 -109.88077 
L 132.668611 -114.055737 
L 132.513304 -118.230705 
L 132.739944 -122.405673 
L 133.281322 -126.580641 
L 134.038777 -130.755609 
L 134.902241 -134.930577 
L 135.770041 -139.105545 
L 136.563908 -143.280512 
L 137.236487 -147.45548 
L 137.771059 -151.630448 
L 138.175146 -155.805416 
L 138.470882 -159.980384 
L 138.685144 -164.155352 
L 138.841749 -168.33032 
L 138.956909 -172.505287 
L 139.037928 -176.680255 
L 139.084349 -180.855223 
L 139.09033 -185.030191 
L 139.04722 -189.205159 
L 138.945636 -193.380127 
L 138.776913 -197.555095 
L 138.534127 -201.730062 
L 138.21303 -205.90503 
L 137.813165 -210.079998 
L 137.339137 -214.254966 
L 136.80177 -218.429934 
L 136.218733 -222.604902 
L 135.614235 -226.77987 
L 135.017625 -230.954837 
L 134.461034 -235.129805 
L 133.976451 -239.304773 
L 133.59276 -243.479741 
L 133.333215 -247.654709 
L 133.21362 -251.829677 
L 133.241324 -256.004645 
L 133.414951 -260.179612 
L 133.724785 -264.35458 
L 134.153745 -268.529548 
L 134.67893 -272.704516 
L 135.27364 -276.879484 
L 135.909715 -281.054452 
L 136.55989 -285.22942 
L 137.199819 -289.404388 
L 137.809515 -293.579355 
L 138.374075 -297.754323 
L 138.88378 -301.929291 
L 139.333756 -306.104259 
L 139.723396 -310.279227 
L 140.055657 -314.454195 
L 140.336266 -318.629163 
L 140.572794 -322.80413 
L 140.773637 -326.979098 
L 140.946996 -331.154066 
L 141.100063 -335.329034 
L 141.238559 -339.504002 
L 141.36673 -343.67897 
L 141.487672 -347.853938 
L 141.603822 -352.028905 
L 141.717354 -356.203873 
L 141.830348 -360.378841 
L 141.944693 -364.553809 
L 142.061838 -368.728777 
L 142.182529 -372.903745 
L 142.306664 -377.078713 
L 142.433317 -381.25368 
L 142.560928 -385.428648 
L 142.687603 -389.603616 
L 142.811479 -393.778584 
L 142.9311 -397.953552 
L 143.045759 -402.12852 
L 143.155722 -406.303488 
L 143.262266 -410.478455 
L 143.367466 -414.653423 
L 143.473732 -418.828391 
L 143.583182 -423.003359 
L 143.697005 -427.178327 
L 143.815001 -431.353295 
L 143.935428 -435.528263 
L 144.055234 -439.70323 
L 144.170585 -443.878198 
L 144.277567 -448.053166 
L 144.372862 -452.228134 
L 144.454249 -456.403102 
L 144.520832 -460.57807 
L 144.572983 -464.753038 
L 144.612083 -468.928006 
L 144.640142 -473.102973 
L 144.659415 -477.277941 
L 144.672087 -481.452909 
L 144.709414 -481.452909 
L 144.709414 -481.452909 
L 144.722087 -477.277941 
L 144.74136 -473.102973 
L 144.769419 -468.928006 
L 144.808519 -464.753038 
L 144.86067 -460.57807 
L 144.927252 -456.403102 
L 145.00864 -452.228134 
L 145.103935 -448.053166 
L 145.210916 -443.878198 
L 145.326267 -439.70323 
L 145.446073 -435.528263 
L 145.566501 -431.353295 
L 145.684496 -427.178327 
L 145.79832 -423.003359 
L 145.90777 -418.828391 
L 146.014035 -414.653423 
L 146.119235 -410.478455 
L 146.225779 -406.303488 
L 146.335742 -402.12852 
L 146.450401 -397.953552 
L 146.570023 -393.778584 
L 146.693898 -389.603616 
L 146.820573 -385.428648 
L 146.948184 -381.25368 
L 147.074838 -377.078713 
L 147.198973 -372.903745 
L 147.319664 -368.728777 
L 147.436809 -364.553809 
L 147.551154 -360.378841 
L 147.664148 -356.203873 
L 147.77768 -352.028905 
L 147.893829 -347.853938 
L 148.014771 -343.67897 
L 148.142942 -339.504002 
L 148.281439 -335.329034 
L 148.434505 -331.154066 
L 148.607865 -326.979098 
L 148.808707 -322.80413 
L 149.045236 -318.629163 
L 149.325844 -314.454195 
L 149.658106 -310.279227 
L 150.047745 -306.104259 
L 150.497722 -301.929291 
L 151.007427 -297.754323 
L 151.571987 -293.579355 
L 152.181682 -289.404388 
L 152.821612 -285.22942 
L 153.471786 -281.054452 
L 154.107862 -276.879484 
L 154.702571 -272.704516 
L 155.227756 -268.529548 
L 155.656717 -264.35458 
L 155.96655 -260.179612 
L 156.140177 -256.004645 
L 156.167882 -251.829677 
L 156.048287 -247.654709 
L 155.788741 -243.479741 
L 155.405051 -239.304773 
L 154.920468 -235.129805 
L 154.363877 -230.954837 
L 153.767267 -226.77987 
L 153.162769 -222.604902 
L 152.579732 -218.429934 
L 152.042365 -214.254966 
L 151.568336 -210.079998 
L 151.168472 -205.90503 
L 150.847375 -201.730062 
L 150.604588 -197.555095 
L 150.435866 -193.380127 
L 150.334281 -189.205159 
L 150.291171 -185.030191 
L 150.297153 -180.855223 
L 150.343573 -176.680255 
L 150.424593 -172.505287 
L 150.539752 -168.33032 
L 150.696358 -164.155352 
L 150.91062 -159.980384 
L 151.206356 -155.805416 
L 151.610443 -151.630448 
L 152.145015 -147.45548 
L 152.817594 -143.280512 
L 153.611461 -139.105545 
L 154.479261 -134.930577 
L 155.342724 -130.755609 
L 156.10018 -126.580641 
L 156.641558 -122.405673 
L 156.868198 -118.230705 
L 156.712891 -114.055737 
L 156.154922 -109.88077 
L 155.22588 -105.705802 
L 154.004454 -101.530834 
L 152.60155 -97.355866 
L 151.139801 -93.180898 
L 149.732796 -89.00593 
L 148.468925 -84.830962 
L 147.402832 -80.655994 
L 146.55494 -76.481027 
L 145.917332 -72.306059 
L 145.46307 -68.131091 
z
" id="m7e7a7bce3a" style="stroke:#373737;stroke-width:1.5;"/>
    </defs>
    <g clip-path="url(#p81dcefb012)">
     <use style="fill:#be631d;stroke:#373737;stroke-width:1.5;" x="0" xlink:href="#m7e7a7bce3a" y="509.319"/>
    </g>
   </g>
   <g id="PolyCollection_3">
    <defs>
     <path d="M 208.032434 -93.031853 
L 206.240355 -93.031853 
L 205.662523 -94.60743 
L 204.821317 -96.183008 
L 203.661755 -97.758585 
L 202.149869 -99.334163 
L 200.288079 -100.90974 
L 198.127377 -102.485318 
L 195.771678 -104.060895 
L 193.370953 -105.636473 
L 191.102592 -107.21205 
L 189.144124 -108.787628 
L 187.643449 -110.363205 
L 186.694022 -111.938783 
L 186.32118 -113.51436 
L 186.482642 -115.089938 
L 187.082156 -116.665515 
L 187.991894 -118.241093 
L 189.077494 -119.81667 
L 190.219852 -121.392248 
L 191.329606 -122.967825 
L 192.352705 -124.543403 
L 193.267867 -126.11898 
L 194.07841 -127.694558 
L 194.801645 -129.270135 
L 195.458822 -130.845713 
L 196.06772 -132.42129 
L 196.638739 -133.996868 
L 197.174231 -135.572445 
L 197.670078 -137.148023 
L 198.118316 -138.7236 
L 198.509836 -140.299178 
L 198.836685 -141.874755 
L 199.093831 -143.450333 
L 199.280467 -145.02591 
L 199.400831 -146.601488 
L 199.464344 -148.177065 
L 199.484825 -149.752643 
L 199.478653 -151.32822 
L 199.462125 -152.903798 
L 199.448659 -154.479375 
L 199.446691 -156.054953 
L 199.459018 -157.63053 
L 199.483826 -159.206108 
L 199.517059 -160.781685 
L 199.555254 -162.357263 
L 199.597852 -163.93284 
L 199.648237 -165.508418 
L 199.713322 -167.083995 
L 199.801984 -168.659573 
L 199.922993 -170.23515 
L 200.083096 -171.810728 
L 200.285676 -173.386306 
L 200.530173 -174.961883 
L 200.81223 -176.537461 
L 201.124411 -178.113038 
L 201.457345 -179.688616 
L 201.801083 -181.264193 
L 202.146445 -182.839771 
L 202.486076 -184.415348 
L 202.815002 -185.990926 
L 203.130588 -187.566503 
L 203.432031 -189.142081 
L 203.719609 -190.717658 
L 203.993987 -192.293236 
L 204.255753 -193.868813 
L 204.505183 -195.444391 
L 204.742169 -197.019968 
L 204.966171 -198.595546 
L 205.176203 -200.171123 
L 205.370898 -201.746701 
L 205.548755 -203.322278 
L 205.70857 -204.897856 
L 205.849921 -206.473433 
L 205.973519 -208.049011 
L 206.081236 -209.624588 
L 206.17577 -211.200166 
L 206.260073 -212.775743 
L 206.336745 -214.351321 
L 206.407615 -215.926898 
L 206.473618 -217.502476 
L 206.534971 -219.078053 
L 206.59151 -220.653631 
L 206.643068 -222.229208 
L 206.689756 -223.804786 
L 206.732086 -225.380363 
L 206.770927 -226.955941 
L 206.807348 -228.531518 
L 206.842376 -230.107096 
L 206.876777 -231.682673 
L 206.910887 -233.258251 
L 206.944563 -234.833828 
L 206.977236 -236.409406 
L 207.00807 -237.984983 
L 207.036164 -239.560561 
L 207.060758 -241.136138 
L 207.081376 -242.711716 
L 207.09789 -244.287293 
L 207.110513 -245.862871 
L 207.119708 -247.438448 
L 207.126089 -249.014026 
L 207.146699 -249.014026 
L 207.146699 -249.014026 
L 207.15308 -247.438448 
L 207.162276 -245.862871 
L 207.174898 -244.287293 
L 207.191413 -242.711716 
L 207.21203 -241.136138 
L 207.236624 -239.560561 
L 207.264719 -237.984983 
L 207.295553 -236.409406 
L 207.328225 -234.833828 
L 207.361901 -233.258251 
L 207.396012 -231.682673 
L 207.430412 -230.107096 
L 207.465441 -228.531518 
L 207.501861 -226.955941 
L 207.540703 -225.380363 
L 207.583032 -223.804786 
L 207.62972 -222.229208 
L 207.681279 -220.653631 
L 207.737818 -219.078053 
L 207.799171 -217.502476 
L 207.865174 -215.926898 
L 207.936043 -214.351321 
L 208.012716 -212.775743 
L 208.097019 -211.200166 
L 208.191553 -209.624588 
L 208.299269 -208.049011 
L 208.422868 -206.473433 
L 208.564219 -204.897856 
L 208.724034 -203.322278 
L 208.901891 -201.746701 
L 209.096586 -200.171123 
L 209.306617 -198.595546 
L 209.53062 -197.019968 
L 209.767605 -195.444391 
L 210.017036 -193.868813 
L 210.278801 -192.293236 
L 210.55318 -190.717658 
L 210.840757 -189.142081 
L 211.1422 -187.566503 
L 211.457787 -185.990926 
L 211.786712 -184.415348 
L 212.126344 -182.839771 
L 212.471705 -181.264193 
L 212.815444 -179.688616 
L 213.148377 -178.113038 
L 213.460559 -176.537461 
L 213.742616 -174.961883 
L 213.987113 -173.386306 
L 214.189692 -171.810728 
L 214.349795 -170.23515 
L 214.470805 -168.659573 
L 214.559466 -167.083995 
L 214.624552 -165.508418 
L 214.674937 -163.93284 
L 214.717534 -162.357263 
L 214.75573 -160.781685 
L 214.788963 -159.206108 
L 214.81377 -157.63053 
L 214.826097 -156.054953 
L 214.82413 -154.479375 
L 214.810664 -152.903798 
L 214.794136 -151.32822 
L 214.787964 -149.752643 
L 214.808445 -148.177065 
L 214.871958 -146.601488 
L 214.992321 -145.02591 
L 215.178958 -143.450333 
L 215.436103 -141.874755 
L 215.762952 -140.299178 
L 216.154473 -138.7236 
L 216.60271 -137.148023 
L 217.098558 -135.572445 
L 217.63405 -133.996868 
L 218.205068 -132.42129 
L 218.813967 -130.845713 
L 219.471144 -129.270135 
L 220.194378 -127.694558 
L 221.004922 -126.11898 
L 221.920084 -124.543403 
L 222.943183 -122.967825 
L 224.052937 -121.392248 
L 225.195295 -119.81667 
L 226.280894 -118.241093 
L 227.190633 -116.665515 
L 227.790146 -115.089938 
L 227.951609 -113.51436 
L 227.578767 -111.938783 
L 226.62934 -110.363205 
L 225.128665 -108.787628 
L 223.170197 -107.21205 
L 220.901836 -105.636473 
L 218.501111 -104.060895 
L 216.145412 -102.485318 
L 213.98471 -100.90974 
L 212.12292 -99.334163 
L 210.611034 -97.758585 
L 209.451471 -96.183008 
L 208.610266 -94.60743 
L 208.032434 -93.031853 
z
" id="m111cad2051" style="stroke:#373737;stroke-width:1.5;"/>
    </defs>
    <g clip-path="url(#p81dcefb012)">
     <use style="fill:#2b8e70;stroke:#373737;stroke-width:1.5;" x="0" xlink:href="#m111cad2051" y="509.319"/>
    </g>
   </g>
   <g id="PolyCollection_4">
    <defs>
     <path d="M 249.331264 -80.015371 
L 248.202382 -80.015371 
L 247.84978 -83.088964 
L 247.348319 -86.162556 
L 246.676928 -89.236149 
L 245.832582 -92.309741 
L 244.838387 -95.383334 
L 243.747586 -98.456926 
L 242.640812 -101.530519 
L 241.615589 -104.604111 
L 240.769629 -107.677704 
L 240.181921 -110.751296 
L 239.896876 -113.824889 
L 239.91613 -116.898481 
L 240.200242 -119.972074 
L 240.679342 -123.045666 
L 241.269139 -126.119259 
L 241.887511 -129.192851 
L 242.467513 -132.266444 
L 242.964426 -135.340036 
L 243.356667 -138.413629 
L 243.642046 -141.487221 
L 243.831648 -144.560814 
L 243.943506 -147.634406 
L 243.997543 -150.707999 
L 244.012422 -153.781591 
L 244.004166 -156.855184 
L 243.985988 -159.928776 
L 243.968617 -163.002369 
L 243.96056 -166.075961 
L 243.968016 -169.149554 
L 243.994479 -172.223146 
L 244.040301 -175.296739 
L 244.102538 -178.370331 
L 244.175319 -181.443924 
L 244.250797 -184.517516 
L 244.320523 -187.591109 
L 244.376972 -190.664701 
L 244.414891 -193.738294 
L 244.432191 -196.811886 
L 244.430227 -199.885479 
L 244.41343 -202.959071 
L 244.388428 -206.032664 
L 244.362875 -209.106256 
L 244.344283 -212.179849 
L 244.339111 -215.253441 
L 244.352236 -218.327034 
L 244.386821 -221.400626 
L 244.444441 -224.474219 
L 244.525312 -227.547811 
L 244.628519 -230.621404 
L 244.752206 -233.694996 
L 244.893775 -236.768589 
L 245.050172 -239.842181 
L 245.218239 -242.915774 
L 245.395074 -245.989366 
L 245.578265 -249.062959 
L 245.765887 -252.136551 
L 245.956243 -255.210144 
L 246.147436 -258.283736 
L 246.336966 -261.357329 
L 246.521522 -264.430921 
L 246.697116 -267.504514 
L 246.859524 -270.578106 
L 247.004927 -273.651699 
L 247.130544 -276.725291 
L 247.235075 -279.798884 
L 247.318838 -282.872476 
L 247.38357 -285.946069 
L 247.431983 -289.019661 
L 247.467192 -292.093254 
L 247.492182 -295.166846 
L 247.509451 -298.240439 
L 247.520877 -301.314031 
L 247.527833 -304.387624 
L 247.531444 -307.461216 
L 247.532876 -310.534809 
L 247.533546 -313.608401 
L 247.535181 -316.681994 
L 247.539745 -319.755586 
L 247.549281 -322.829179 
L 247.565738 -325.902771 
L 247.590838 -328.976364 
L 247.625981 -332.049956 
L 247.672176 -335.123549 
L 247.729972 -338.197141 
L 247.799343 -341.270734 
L 247.87956 -344.344326 
L 247.969067 -347.417919 
L 248.065431 -350.491511 
L 248.165421 -353.565104 
L 248.265251 -356.638696 
L 248.360985 -359.712289 
L 248.449006 -362.785881 
L 248.526474 -365.859474 
L 248.591649 -368.933066 
L 248.644 -372.006659 
L 248.68411 -375.080251 
L 248.713399 -378.153844 
L 248.733767 -381.227436 
L 248.747251 -384.301029 
L 248.786395 -384.301029 
L 248.786395 -384.301029 
L 248.799879 -381.227436 
L 248.820248 -378.153844 
L 248.849536 -375.080251 
L 248.889646 -372.006659 
L 248.941998 -368.933066 
L 249.007173 -365.859474 
L 249.084641 -362.785881 
L 249.172662 -359.712289 
L 249.268395 -356.638696 
L 249.368226 -353.565104 
L 249.468216 -350.491511 
L 249.56458 -347.417919 
L 249.654087 -344.344326 
L 249.734304 -341.270734 
L 249.803675 -338.197141 
L 249.86147 -335.123549 
L 249.907666 -332.049956 
L 249.942808 -328.976364 
L 249.967909 -325.902771 
L 249.984366 -322.829179 
L 249.993902 -319.755586 
L 249.998466 -316.681994 
L 250.0001 -313.608401 
L 250.00077 -310.534809 
L 250.002203 -307.461216 
L 250.005814 -304.387624 
L 250.01277 -301.314031 
L 250.024196 -298.240439 
L 250.041464 -295.166846 
L 250.066455 -292.093254 
L 250.101664 -289.019661 
L 250.150077 -285.946069 
L 250.214809 -282.872476 
L 250.298572 -279.798884 
L 250.403103 -276.725291 
L 250.52872 -273.651699 
L 250.674123 -270.578106 
L 250.836531 -267.504514 
L 251.012125 -264.430921 
L 251.196681 -261.357329 
L 251.38621 -258.283736 
L 251.577404 -255.210144 
L 251.76776 -252.136551 
L 251.955382 -249.062959 
L 252.138573 -245.989366 
L 252.315408 -242.915774 
L 252.483475 -239.842181 
L 252.639872 -236.768589 
L 252.781441 -233.694996 
L 252.905128 -230.621404 
L 253.008335 -227.547811 
L 253.089206 -224.474219 
L 253.146825 -221.400626 
L 253.181411 -218.327034 
L 253.194536 -215.253441 
L 253.189363 -212.179849 
L 253.170772 -209.106256 
L 253.145218 -206.032664 
L 253.120217 -202.959071 
L 253.10342 -199.885479 
L 253.101455 -196.811886 
L 253.118756 -193.738294 
L 253.156674 -190.664701 
L 253.213124 -187.591109 
L 253.28285 -184.517516 
L 253.358328 -181.443924 
L 253.431109 -178.370331 
L 253.493346 -175.296739 
L 253.539168 -172.223146 
L 253.565631 -169.149554 
L 253.573087 -166.075961 
L 253.56503 -163.002369 
L 253.547659 -159.928776 
L 253.52948 -156.855184 
L 253.521224 -153.781591 
L 253.536104 -150.707999 
L 253.590141 -147.634406 
L 253.701999 -144.560814 
L 253.891601 -141.487221 
L 254.17698 -138.413629 
L 254.569221 -135.340036 
L 255.066134 -132.266444 
L 255.646136 -129.192851 
L 256.264508 -126.119259 
L 256.854305 -123.045666 
L 257.333405 -119.972074 
L 257.617517 -116.898481 
L 257.636771 -113.824889 
L 257.351725 -110.751296 
L 256.764018 -107.677704 
L 255.918058 -104.604111 
L 254.892835 -101.530519 
L 253.786061 -98.456926 
L 252.69526 -95.383334 
L 251.701065 -92.309741 
L 250.856719 -89.236149 
L 250.185328 -86.162556 
L 249.683867 -83.088964 
L 249.331264 -80.015371 
z
" id="mfe79d865b1" style="stroke:#373737;stroke-width:1.5;"/>
    </defs>
    <g clip-path="url(#p81dcefb012)">
     <use style="fill:#be631d;stroke:#373737;stroke-width:1.5;" x="0" xlink:href="#mfe79d865b1" y="509.319"/>
    </g>
   </g>
   <g id="PolyCollection_5">
    <defs>
     <path d="M 313.594815 -106.336885 
L 308.830119 -106.336885 
L 307.473216 -106.408618 
L 305.662222 -106.480351 
L 303.417143 -106.552085 
L 300.843827 -106.623818 
L 298.134805 -106.695551 
L 295.542103 -106.767284 
L 293.324619 -106.839017 
L 291.685003 -106.910751 
L 290.718893 -106.982484 
L 290.397252 -107.054217 
L 290.589701 -107.12595 
L 291.118635 -107.197683 
L 291.820116 -107.269417 
L 292.585676 -107.34115 
L 293.370593 -107.412883 
L 294.172267 -107.484616 
L 294.996764 -107.55635 
L 295.83455 -107.628083 
L 296.657329 -107.699816 
L 297.433187 -107.771549 
L 298.146389 -107.843282 
L 298.807046 -107.915016 
L 299.444201 -107.986749 
L 300.087219 -108.058482 
L 300.74748 -108.130215 
L 301.411181 -108.201948 
L 302.046281 -108.273682 
L 302.617921 -108.345415 
L 303.102451 -108.417148 
L 303.492716 -108.488881 
L 303.79392 -108.560614 
L 304.015518 -108.632348 
L 304.166135 -108.704081 
L 304.255051 -108.775814 
L 304.29814 -108.847547 
L 304.322363 -108.91928 
L 304.363624 -108.991014 
L 304.457298 -109.062747 
L 304.625959 -109.13448 
L 304.871179 -109.206213 
L 305.174221 -109.277946 
L 305.505378 -109.34968 
L 305.836869 -109.421413 
L 306.152537 -109.493146 
L 306.44997 -109.564879 
L 306.735355 -109.636612 
L 307.015351 -109.708346 
L 307.291294 -109.780079 
L 307.558749 -109.851812 
L 307.811739 -109.923545 
L 308.048093 -109.995278 
L 308.272134 -110.067012 
L 308.492999 -110.138745 
L 308.719787 -110.210478 
L 308.956557 -110.282211 
L 309.200028 -110.353944 
L 309.440983 -110.425678 
L 309.668268 -110.497411 
L 309.873018 -110.569144 
L 310.051092 -110.640877 
L 310.202978 -110.71261 
L 310.331901 -110.784344 
L 310.441554 -110.856077 
L 310.534665 -110.92781 
L 310.612777 -110.999543 
L 310.676846 -111.071277 
L 310.727944 -111.14301 
L 310.767553 -111.214743 
L 310.79742 -111.286476 
L 310.81928 -111.358209 
L 310.834758 -111.429943 
L 310.845563 -111.501676 
L 310.853762 -111.573409 
L 310.861829 -111.645142 
L 310.872295 -111.716875 
L 310.887102 -111.788609 
L 310.906974 -111.860342 
L 310.931138 -111.932075 
L 310.957558 -112.003808 
L 310.983553 -112.075541 
L 311.00653 -112.147275 
L 311.024529 -112.219008 
L 311.036468 -112.290741 
L 311.042125 -112.362474 
L 311.042037 -112.434207 
L 311.037431 -112.505941 
L 311.030198 -112.577674 
L 311.022792 -112.649407 
L 311.017949 -112.72114 
L 311.018186 -112.792873 
L 311.025212 -112.864607 
L 311.03947 -112.93634 
L 311.059998 -113.008073 
L 311.084694 -113.079806 
L 311.110876 -113.151539 
L 311.135945 -113.223273 
L 311.157916 -113.295006 
L 311.175685 -113.366739 
L 311.18902 -113.438472 
L 311.235914 -113.438472 
L 311.235914 -113.438472 
L 311.249249 -113.366739 
L 311.267018 -113.295006 
L 311.288989 -113.223273 
L 311.314058 -113.151539 
L 311.34024 -113.079806 
L 311.364936 -113.008073 
L 311.385464 -112.93634 
L 311.399722 -112.864607 
L 311.406748 -112.792873 
L 311.406985 -112.72114 
L 311.402142 -112.649407 
L 311.394736 -112.577674 
L 311.387503 -112.505941 
L 311.382897 -112.434207 
L 311.382809 -112.362474 
L 311.388466 -112.290741 
L 311.400405 -112.219008 
L 311.418404 -112.147275 
L 311.441381 -112.075541 
L 311.467376 -112.003808 
L 311.493796 -111.932075 
L 311.51796 -111.860342 
L 311.537831 -111.788609 
L 311.552639 -111.716875 
L 311.563105 -111.645142 
L 311.571171 -111.573409 
L 311.579371 -111.501676 
L 311.590176 -111.429943 
L 311.605654 -111.358209 
L 311.627513 -111.286476 
L 311.657381 -111.214743 
L 311.69699 -111.14301 
L 311.748088 -111.071277 
L 311.812157 -110.999543 
L 311.890269 -110.92781 
L 311.98338 -110.856077 
L 312.093033 -110.784344 
L 312.221956 -110.71261 
L 312.373842 -110.640877 
L 312.551915 -110.569144 
L 312.756666 -110.497411 
L 312.983951 -110.425678 
L 313.224906 -110.353944 
L 313.468377 -110.282211 
L 313.705147 -110.210478 
L 313.931935 -110.138745 
L 314.1528 -110.067012 
L 314.376841 -109.995278 
L 314.613195 -109.923545 
L 314.866185 -109.851812 
L 315.13364 -109.780079 
L 315.409582 -109.708346 
L 315.689579 -109.636612 
L 315.974963 -109.564879 
L 316.272397 -109.493146 
L 316.588065 -109.421413 
L 316.919556 -109.34968 
L 317.250713 -109.277946 
L 317.553754 -109.206213 
L 317.798975 -109.13448 
L 317.967636 -109.062747 
L 318.06131 -108.991014 
L 318.102571 -108.91928 
L 318.126794 -108.847547 
L 318.169883 -108.775814 
L 318.258799 -108.704081 
L 318.409416 -108.632348 
L 318.631014 -108.560614 
L 318.932218 -108.488881 
L 319.322483 -108.417148 
L 319.807013 -108.345415 
L 320.378653 -108.273682 
L 321.013753 -108.201948 
L 321.677453 -108.130215 
L 322.337715 -108.058482 
L 322.980733 -107.986749 
L 323.617888 -107.915016 
L 324.278545 -107.843282 
L 324.991747 -107.771549 
L 325.767605 -107.699816 
L 326.590383 -107.628083 
L 327.42817 -107.55635 
L 328.252667 -107.484616 
L 329.054341 -107.412883 
L 329.839257 -107.34115 
L 330.604817 -107.269417 
L 331.306299 -107.197683 
L 331.835233 -107.12595 
L 332.027681 -107.054217 
L 331.706041 -106.982484 
L 330.73993 -106.910751 
L 329.100315 -106.839017 
L 326.882831 -106.767284 
L 324.290129 -106.695551 
L 321.581106 -106.623818 
L 319.00779 -106.552085 
L 316.762712 -106.480351 
L 314.951717 -106.408618 
L 313.594815 -106.336885 
z
" id="mad88eaf6cf" style="stroke:#373737;stroke-width:1.5;"/>
    </defs>
    <g clip-path="url(#p81dcefb012)">
     <use style="fill:#2b8e70;stroke:#373737;stroke-width:1.5;" x="0" xlink:href="#mad88eaf6cf" y="509.319"/>
    </g>
   </g>
   <g id="PolyCollection_6">
    <defs>
     <path d="M 354.374249 -106.266117 
L 351.311543 -106.266117 
L 350.523866 -106.339279 
L 349.489164 -106.412442 
L 348.208687 -106.485605 
L 346.719749 -106.558768 
L 345.098705 -106.631931 
L 343.454411 -106.705094 
L 341.911806 -106.778257 
L 340.58889 -106.851419 
L 339.573398 -106.924582 
L 338.906409 -106.997745 
L 338.578078 -107.070908 
L 338.536354 -107.144071 
L 338.704763 -107.217234 
L 339.00239 -107.290397 
L 339.359424 -107.36356 
L 339.72471 -107.436722 
L 340.065888 -107.509885 
L 340.36559 -107.583048 
L 340.617559 -107.656211 
L 340.824603 -107.729374 
L 340.99777 -107.802537 
L 341.154741 -107.8757 
L 341.316017 -107.948863 
L 341.499457 -108.022025 
L 341.715464 -108.095188 
L 341.965328 -108.168351 
L 342.243636 -108.241514 
L 342.543333 -108.314677 
L 342.860463 -108.38784 
L 343.195895 -108.461003 
L 343.553239 -108.534166 
L 343.93449 -108.607328 
L 344.33616 -108.680491 
L 344.74821 -108.753654 
L 345.156277 -108.826817 
L 345.545764 -108.89998 
L 345.905521 -108.973143 
L 346.229464 -109.046306 
L 346.515929 -109.119469 
L 346.765908 -109.192631 
L 346.98165 -109.265794 
L 347.166383 -109.338957 
L 347.324819 -109.41212 
L 347.463438 -109.485283 
L 347.589731 -109.558446 
L 347.71047 -109.631609 
L 347.829922 -109.704771 
L 347.949101 -109.777934 
L 348.066561 -109.851097 
L 348.180264 -109.92426 
L 348.289373 -109.997423 
L 348.394946 -110.070586 
L 348.499262 -110.143749 
L 348.604401 -110.216912 
L 348.711179 -110.290074 
L 348.819165 -110.363237 
L 348.927758 -110.4364 
L 349.037491 -110.509563 
L 349.150601 -110.582726 
L 349.270363 -110.655889 
L 349.399534 -110.729052 
L 349.538827 -110.802215 
L 349.686315 -110.875377 
L 349.838119 -110.94854 
L 349.989925 -111.021703 
L 350.13846 -111.094866 
L 350.282157 -111.168029 
L 350.420805 -111.241192 
L 350.554585 -111.314355 
L 350.683196 -111.387518 
L 350.805592 -111.46068 
L 350.920391 -111.533843 
L 351.026563 -111.607006 
L 351.123908 -111.680169 
L 351.213042 -111.753332 
L 351.29497 -111.826495 
L 351.370611 -111.899658 
L 351.440598 -111.97282 
L 351.505442 -112.045983 
L 351.565883 -112.119146 
L 351.623112 -112.192309 
L 351.678681 -112.265472 
L 351.734127 -112.338635 
L 351.790587 -112.411798 
L 351.848647 -112.484961 
L 351.908542 -112.558123 
L 351.970545 -112.631286 
L 352.035281 -112.704449 
L 352.103702 -112.777612 
L 352.176684 -112.850775 
L 352.254425 -112.923938 
L 352.335937 -112.997101 
L 352.418916 -113.070264 
L 352.500068 -113.143426 
L 352.575777 -113.216589 
L 352.642879 -113.289752 
L 352.699258 -113.362915 
L 352.744122 -113.436078 
L 352.777928 -113.509241 
L 352.907863 -113.509241 
L 352.907863 -113.509241 
L 352.94167 -113.436078 
L 352.986534 -113.362915 
L 353.042912 -113.289752 
L 353.110015 -113.216589 
L 353.185724 -113.143426 
L 353.266876 -113.070264 
L 353.349855 -112.997101 
L 353.431367 -112.923938 
L 353.509107 -112.850775 
L 353.58209 -112.777612 
L 353.65051 -112.704449 
L 353.715246 -112.631286 
L 353.77725 -112.558123 
L 353.837145 -112.484961 
L 353.895205 -112.411798 
L 353.951665 -112.338635 
L 354.007111 -112.265472 
L 354.062679 -112.192309 
L 354.119909 -112.119146 
L 354.18035 -112.045983 
L 354.245193 -111.97282 
L 354.315181 -111.899658 
L 354.390822 -111.826495 
L 354.47275 -111.753332 
L 354.561883 -111.680169 
L 354.659229 -111.607006 
L 354.765401 -111.533843 
L 354.8802 -111.46068 
L 355.002596 -111.387518 
L 355.131206 -111.314355 
L 355.264986 -111.241192 
L 355.403635 -111.168029 
L 355.547332 -111.094866 
L 355.695867 -111.021703 
L 355.847673 -110.94854 
L 355.999477 -110.875377 
L 356.146965 -110.802215 
L 356.286257 -110.729052 
L 356.415429 -110.655889 
L 356.535191 -110.582726 
L 356.6483 -110.509563 
L 356.758034 -110.4364 
L 356.866627 -110.363237 
L 356.974613 -110.290074 
L 357.081391 -110.216912 
L 357.18653 -110.143749 
L 357.290846 -110.070586 
L 357.396419 -109.997423 
L 357.505528 -109.92426 
L 357.619231 -109.851097 
L 357.736691 -109.777934 
L 357.85587 -109.704771 
L 357.975322 -109.631609 
L 358.096061 -109.558446 
L 358.222354 -109.485283 
L 358.360973 -109.41212 
L 358.519409 -109.338957 
L 358.704142 -109.265794 
L 358.919884 -109.192631 
L 359.169863 -109.119469 
L 359.456328 -109.046306 
L 359.780271 -108.973143 
L 360.140028 -108.89998 
L 360.529515 -108.826817 
L 360.937582 -108.753654 
L 361.349632 -108.680491 
L 361.751302 -108.607328 
L 362.132553 -108.534166 
L 362.489897 -108.461003 
L 362.825329 -108.38784 
L 363.142459 -108.314677 
L 363.442156 -108.241514 
L 363.720464 -108.168351 
L 363.970328 -108.095188 
L 364.186335 -108.022025 
L 364.369775 -107.948863 
L 364.531051 -107.8757 
L 364.688022 -107.802537 
L 364.861189 -107.729374 
L 365.068233 -107.656211 
L 365.320202 -107.583048 
L 365.619904 -107.509885 
L 365.961082 -107.436722 
L 366.326368 -107.36356 
L 366.683402 -107.290397 
L 366.981029 -107.217234 
L 367.149438 -107.144071 
L 367.107714 -107.070908 
L 366.779383 -106.997745 
L 366.112394 -106.924582 
L 365.096902 -106.851419 
L 363.773986 -106.778257 
L 362.231381 -106.705094 
L 360.587087 -106.631931 
L 358.966043 -106.558768 
L 357.477105 -106.485605 
L 356.196627 -106.412442 
L 355.161926 -106.339279 
L 354.374249 -106.266117 
z
" id="m119b56b3e5" style="stroke:#373737;stroke-width:1.5;"/>
    </defs>
    <g clip-path="url(#p81dcefb012)">
     <use style="fill:#be631d;stroke:#373737;stroke-width:1.5;" x="0" xlink:href="#m119b56b3e5" y="509.319"/>
    </g>
   </g>
   <g id="PolyCollection_7">
    <defs>
     <path d="M 416.732177 -101.34711 
L 413.844902 -101.34711 
L 413.100677 -101.909664 
L 412.095045 -102.472219 
L 410.797219 -103.034773 
L 409.199431 -103.597327 
L 407.325947 -104.159882 
L 405.238388 -104.722436 
L 403.035042 -105.28499 
L 400.842991 -105.847545 
L 398.803592 -106.410099 
L 397.053776 -106.972653 
L 395.706956 -107.535208 
L 394.83769 -108.097762 
L 394.473325 -108.660316 
L 394.594042 -109.222871 
L 395.140573 -109.785425 
L 396.027094 -110.347979 
L 397.15599 -110.910534 
L 398.431325 -111.473088 
L 399.768848 -112.035643 
L 401.101645 -112.598197 
L 402.38169 -113.160751 
L 403.578297 -113.723306 
L 404.67472 -114.28586 
L 405.664062 -114.848414 
L 406.545376 -115.410969 
L 407.320499 -115.973523 
L 407.991922 -116.536077 
L 408.561734 -117.098632 
L 409.031541 -117.661186 
L 409.403089 -118.22374 
L 409.679275 -118.786295 
L 409.865146 -119.348849 
L 409.968605 -119.911404 
L 410.000589 -120.473958 
L 409.974671 -121.036512 
L 409.906181 -121.599067 
L 409.811023 -122.161621 
L 409.704447 -122.724175 
L 409.599992 -123.28673 
L 409.508755 -123.849284 
L 409.439069 -124.411838 
L 409.396546 -124.974393 
L 409.384433 -125.536947 
L 409.404128 -126.099501 
L 409.455757 -126.662056 
L 409.538662 -127.22461 
L 409.651698 -127.787165 
L 409.793293 -128.349719 
L 409.96125 -128.912273 
L 410.152381 -129.474828 
L 410.362118 -130.037382 
L 410.584297 -130.599936 
L 410.81128 -131.162491 
L 411.034537 -131.725045 
L 411.245638 -132.287599 
L 411.43751 -132.850154 
L 411.60568 -133.412708 
L 411.749201 -133.975262 
L 411.871006 -134.537817 
L 411.977551 -135.100371 
L 412.077772 -135.662926 
L 412.181538 -136.22548 
L 412.297912 -136.788034 
L 412.433554 -137.350589 
L 412.591589 -137.913143 
L 412.771148 -138.475697 
L 412.967657 -139.038252 
L 413.173787 -139.600806 
L 413.380848 -140.16336 
L 413.580324 -140.725915 
L 413.765249 -141.288469 
L 413.931135 -141.851023 
L 414.076324 -142.413578 
L 414.201735 -142.976132 
L 414.310137 -143.538686 
L 414.405182 -144.101241 
L 414.49045 -144.663795 
L 414.568722 -145.22635 
L 414.641626 -145.788904 
L 414.709657 -146.351458 
L 414.772494 -146.914013 
L 414.829467 -147.476567 
L 414.880025 -148.039121 
L 414.924066 -148.601676 
L 414.962086 -149.16423 
L 414.995121 -149.726784 
L 415.024536 -150.289339 
L 415.051736 -150.851893 
L 415.077888 -151.414447 
L 415.103718 -151.977002 
L 415.129428 -152.539556 
L 415.154742 -153.102111 
L 415.179051 -153.664665 
L 415.20161 -154.227219 
L 415.221729 -154.789774 
L 415.238924 -155.352328 
L 415.252985 -155.914882 
L 415.263979 -156.477437 
L 415.272197 -157.039991 
L 415.304882 -157.039991 
L 415.304882 -157.039991 
L 415.3131 -156.477437 
L 415.324094 -155.914882 
L 415.338155 -155.352328 
L 415.355349 -154.789774 
L 415.375469 -154.227219 
L 415.398028 -153.664665 
L 415.422337 -153.102111 
L 415.447651 -152.539556 
L 415.473361 -151.977002 
L 415.499191 -151.414447 
L 415.525343 -150.851893 
L 415.552543 -150.289339 
L 415.581958 -149.726784 
L 415.614993 -149.16423 
L 415.653013 -148.601676 
L 415.697054 -148.039121 
L 415.747612 -147.476567 
L 415.804585 -146.914013 
L 415.867422 -146.351458 
L 415.935453 -145.788904 
L 416.008357 -145.22635 
L 416.086629 -144.663795 
L 416.171897 -144.101241 
L 416.266942 -143.538686 
L 416.375344 -142.976132 
L 416.500755 -142.413578 
L 416.645944 -141.851023 
L 416.81183 -141.288469 
L 416.996754 -140.725915 
L 417.196231 -140.16336 
L 417.403291 -139.600806 
L 417.609422 -139.038252 
L 417.805931 -138.475697 
L 417.98549 -137.913143 
L 418.143525 -137.350589 
L 418.279167 -136.788034 
L 418.395541 -136.22548 
L 418.499307 -135.662926 
L 418.599528 -135.100371 
L 418.706073 -134.537817 
L 418.827878 -133.975262 
L 418.971399 -133.412708 
L 419.139569 -132.850154 
L 419.331441 -132.287599 
L 419.542542 -131.725045 
L 419.765799 -131.162491 
L 419.992782 -130.599936 
L 420.214961 -130.037382 
L 420.424698 -129.474828 
L 420.615829 -128.912273 
L 420.783786 -128.349719 
L 420.925381 -127.787165 
L 421.038417 -127.22461 
L 421.121321 -126.662056 
L 421.172951 -126.099501 
L 421.192646 -125.536947 
L 421.180533 -124.974393 
L 421.13801 -124.411838 
L 421.068324 -123.849284 
L 420.977087 -123.28673 
L 420.872632 -122.724175 
L 420.766056 -122.161621 
L 420.670898 -121.599067 
L 420.602408 -121.036512 
L 420.57649 -120.473958 
L 420.608474 -119.911404 
L 420.711933 -119.348849 
L 420.897804 -118.786295 
L 421.17399 -118.22374 
L 421.545538 -117.661186 
L 422.015345 -117.098632 
L 422.585157 -116.536077 
L 423.25658 -115.973523 
L 424.031703 -115.410969 
L 424.913017 -114.848414 
L 425.902359 -114.28586 
L 426.998782 -113.723306 
L 428.195389 -113.160751 
L 429.475434 -112.598197 
L 430.808231 -112.035643 
L 432.145754 -111.473088 
L 433.421089 -110.910534 
L 434.549985 -110.347979 
L 435.436506 -109.785425 
L 435.983036 -109.222871 
L 436.103754 -108.660316 
L 435.739389 -108.097762 
L 434.870123 -107.535208 
L 433.523303 -106.972653 
L 431.773487 -106.410099 
L 429.734088 -105.847545 
L 427.542036 -105.28499 
L 425.338691 -104.722436 
L 423.251131 -104.159882 
L 421.377648 -103.597327 
L 419.77986 -103.034773 
L 418.482034 -102.472219 
L 417.476402 -101.909664 
L 416.732177 -101.34711 
z
" id="m0dcc337ebb" style="stroke:#373737;stroke-width:1.5;"/>
    </defs>
    <g clip-path="url(#p81dcefb012)">
     <use style="fill:#2b8e70;stroke:#373737;stroke-width:1.5;" x="0" xlink:href="#m0dcc337ebb" y="509.319"/>
    </g>
   </g>
   <g id="PolyCollection_8">
    <defs>
     <path d="M 457.887183 -100.433339 
L 455.950754 -100.433339 
L 455.369476 -101.17686 
L 454.555569 -101.920382 
L 453.480753 -102.663904 
L 452.144088 -103.407426 
L 450.581865 -104.150947 
L 448.87114 -104.894469 
L 447.124112 -105.637991 
L 445.47313 -106.381512 
L 444.049306 -107.125034 
L 442.960155 -107.868556 
L 442.272243 -108.612078 
L 442.003149 -109.355599 
L 442.123885 -110.099121 
L 442.569686 -110.842643 
L 443.255064 -111.586164 
L 444.088847 -112.329686 
L 444.986179 -113.073208 
L 445.876292 -113.81673 
L 446.706356 -114.560251 
L 447.442369 -115.303773 
L 448.068062 -116.047295 
L 448.582458 -116.790816 
L 448.996436 -117.534338 
L 449.328625 -118.27786 
L 449.601071 -119.021382 
L 449.835268 -119.764903 
L 450.049148 -120.508425 
L 450.255428 -121.251947 
L 450.461433 -121.995468 
L 450.670082 -122.73899 
L 450.881506 -123.482512 
L 451.094625 -124.226034 
L 451.308176 -124.969555 
L 451.520985 -125.713077 
L 451.731636 -126.456599 
L 451.937975 -127.20012 
L 452.136906 -127.943642 
L 452.324756 -128.687164 
L 452.498142 -129.430686 
L 452.654993 -130.174207 
L 452.795267 -130.917729 
L 452.921021 -131.661251 
L 453.035785 -132.404772 
L 453.143496 -133.148294 
L 453.247426 -133.891816 
L 453.349482 -134.635338 
L 453.450103 -135.378859 
L 453.548703 -136.122381 
L 453.644401 -136.865903 
L 453.736752 -137.609425 
L 453.826204 -138.352946 
L 453.914182 -139.096468 
L 454.002812 -139.83999 
L 454.094411 -140.583511 
L 454.190906 -141.327033 
L 454.293329 -142.070555 
L 454.401505 -142.814077 
L 454.513999 -143.557598 
L 454.628307 -144.30112 
L 454.741247 -145.044642 
L 454.849449 -145.788163 
L 454.949844 -146.531685 
L 455.040095 -147.275207 
L 455.118904 -148.018729 
L 455.186204 -148.76225 
L 455.243221 -149.505772 
L 455.292394 -150.249294 
L 455.337136 -150.992815 
L 455.381405 -151.736337 
L 455.429133 -152.479859 
L 455.483575 -153.223381 
L 455.546721 -153.966902 
L 455.618907 -154.710424 
L 455.698739 -155.453946 
L 455.783348 -156.197467 
L 455.868942 -156.940989 
L 455.951522 -157.684511 
L 456.027614 -158.428033 
L 456.094891 -159.171554 
L 456.152556 -159.915076 
L 456.201438 -160.658598 
L 456.243779 -161.402119 
L 456.282745 -162.145641 
L 456.321766 -162.889163 
L 456.36383 -163.632685 
L 456.410888 -164.376206 
L 456.463495 -165.119728 
L 456.520773 -165.86325 
L 456.580667 -166.606771 
L 456.640435 -167.350293 
L 456.697211 -168.093815 
L 456.748531 -168.837337 
L 456.792684 -169.580858 
L 456.828864 -170.32438 
L 456.857118 -171.067902 
L 456.878158 -171.811423 
L 456.893104 -172.554945 
L 456.903236 -173.298467 
L 456.90979 -174.041989 
L 456.928147 -174.041989 
L 456.928147 -174.041989 
L 456.934701 -173.298467 
L 456.944833 -172.554945 
L 456.959779 -171.811423 
L 456.980819 -171.067902 
L 457.009073 -170.32438 
L 457.045253 -169.580858 
L 457.089406 -168.837337 
L 457.140726 -168.093815 
L 457.197502 -167.350293 
L 457.25727 -166.606771 
L 457.317164 -165.86325 
L 457.374442 -165.119728 
L 457.427049 -164.376206 
L 457.474107 -163.632685 
L 457.516171 -162.889163 
L 457.555192 -162.145641 
L 457.594158 -161.402119 
L 457.636499 -160.658598 
L 457.685381 -159.915076 
L 457.743046 -159.171554 
L 457.810323 -158.428033 
L 457.886415 -157.684511 
L 457.968995 -156.940989 
L 458.054589 -156.197467 
L 458.139198 -155.453946 
L 458.21903 -154.710424 
L 458.291216 -153.966902 
L 458.354362 -153.223381 
L 458.408804 -152.479859 
L 458.456532 -151.736337 
L 458.500801 -150.992815 
L 458.545543 -150.249294 
L 458.594716 -149.505772 
L 458.651733 -148.76225 
L 458.719033 -148.018729 
L 458.797842 -147.275207 
L 458.888093 -146.531685 
L 458.988488 -145.788163 
L 459.09669 -145.044642 
L 459.20963 -144.30112 
L 459.323938 -143.557598 
L 459.436432 -142.814077 
L 459.544608 -142.070555 
L 459.647031 -141.327033 
L 459.743526 -140.583511 
L 459.835125 -139.83999 
L 459.923755 -139.096468 
L 460.011733 -138.352946 
L 460.101185 -137.609425 
L 460.193536 -136.865903 
L 460.289234 -136.122381 
L 460.387834 -135.378859 
L 460.488455 -134.635338 
L 460.590511 -133.891816 
L 460.694441 -133.148294 
L 460.802152 -132.404772 
L 460.916916 -131.661251 
L 461.04267 -130.917729 
L 461.182944 -130.174207 
L 461.339795 -129.430686 
L 461.513181 -128.687164 
L 461.701031 -127.943642 
L 461.899962 -127.20012 
L 462.106301 -126.456599 
L 462.316952 -125.713077 
L 462.529761 -124.969555 
L 462.743312 -124.226034 
L 462.956431 -123.482512 
L 463.167855 -122.73899 
L 463.376504 -121.995468 
L 463.582509 -121.251947 
L 463.788789 -120.508425 
L 464.002669 -119.764903 
L 464.236866 -119.021382 
L 464.509312 -118.27786 
L 464.841501 -117.534338 
L 465.255479 -116.790816 
L 465.769875 -116.047295 
L 466.395568 -115.303773 
L 467.131581 -114.560251 
L 467.961645 -113.81673 
L 468.851758 -113.073208 
L 469.74909 -112.329686 
L 470.582873 -111.586164 
L 471.268251 -110.842643 
L 471.714052 -110.099121 
L 471.834788 -109.355599 
L 471.565694 -108.612078 
L 470.877782 -107.868556 
L 469.788631 -107.125034 
L 468.364807 -106.381512 
L 466.713825 -105.637991 
L 464.966797 -104.894469 
L 463.256072 -104.150947 
L 461.693849 -103.407426 
L 460.357184 -102.663904 
L 459.282368 -101.920382 
L 458.468461 -101.17686 
L 457.887183 -100.433339 
z
" id="m18b88a1a82" style="stroke:#373737;stroke-width:1.5;"/>
    </defs>
    <g clip-path="url(#p81dcefb012)">
     <use style="fill:#be631d;stroke:#373737;stroke-width:1.5;" x="0" xlink:href="#m18b88a1a82" y="509.319"/>
    </g>
   </g>
   <g id="PolyCollection_9">
    <defs>
     <path d="M 521.052838 -99.878239 
L 517.676386 -99.878239 
L 516.999899 -100.465051 
L 516.137128 -101.051863 
L 515.071363 -101.638674 
L 513.797132 -102.225486 
L 512.323919 -102.812297 
L 510.678765 -103.399109 
L 508.907037 -103.985921 
L 507.07086 -104.572732 
L 505.245058 -105.159544 
L 503.510937 -105.746355 
L 501.948644 -106.333167 
L 500.629216 -106.919978 
L 499.607537 -107.50679 
L 498.917309 -108.093602 
L 498.56877 -108.680413 
L 498.549398 -109.267225 
L 498.827289 -109.854036 
L 499.356483 -110.440848 
L 500.083211 -111.02766 
L 500.95206 -111.614471 
L 501.911186 -112.201283 
L 502.916041 -112.788094 
L 503.931406 -113.374906 
L 504.931846 -113.961718 
L 505.900907 -114.548529 
L 506.829506 -115.135341 
L 507.713923 -115.722152 
L 508.553782 -116.308964 
L 509.350298 -116.895776 
L 510.104935 -117.482587 
L 510.818559 -118.069399 
L 511.491075 -118.65621 
L 512.121455 -119.243022 
L 512.708069 -119.829834 
L 513.24917 -120.416645 
L 513.743401 -121.003457 
L 514.190228 -121.590268 
L 514.590197 -122.17708 
L 514.945027 -122.763892 
L 515.2575 -123.350703 
L 515.531231 -123.937515 
L 515.770353 -124.524326 
L 515.979178 -125.111138 
L 516.161902 -125.69795 
L 516.322364 -126.284761 
L 516.463902 -126.871573 
L 516.589291 -127.458384 
L 516.70076 -128.045196 
L 516.800073 -128.632008 
L 516.888636 -129.218819 
L 516.96763 -129.805631 
L 517.038128 -130.392442 
L 517.10119 -130.979254 
L 517.157936 -131.566065 
L 517.209574 -132.152877 
L 517.257402 -132.739689 
L 517.302774 -133.3265 
L 517.347034 -133.913312 
L 517.391422 -134.500123 
L 517.436973 -135.086935 
L 517.484396 -135.673747 
L 517.533987 -136.260558 
L 517.585565 -136.84737 
L 517.638477 -137.434181 
L 517.691656 -138.020993 
L 517.743746 -138.607805 
L 517.793268 -139.194616 
L 517.838796 -139.781428 
L 517.879126 -140.368239 
L 517.913397 -140.955051 
L 517.941176 -141.541863 
L 517.962487 -142.128674 
L 517.977814 -142.715486 
L 517.988089 -143.302297 
L 517.994671 -143.889109 
L 517.999325 -144.475921 
L 518.004188 -145.062732 
L 518.011694 -145.649544 
L 518.024454 -146.236355 
L 518.045066 -146.823167 
L 518.075874 -147.409979 
L 518.118702 -147.99679 
L 518.174601 -148.583602 
L 518.243656 -149.170413 
L 518.324901 -149.757225 
L 518.416363 -150.344037 
L 518.515232 -150.930848 
L 518.618136 -151.51766 
L 518.721483 -152.104471 
L 518.821804 -152.691283 
L 518.916065 -153.278095 
L 519.001888 -153.864906 
L 519.077682 -154.451718 
L 519.142659 -155.038529 
L 519.196769 -155.625341 
L 519.240563 -156.212152 
L 519.275028 -156.798964 
L 519.301412 -157.385776 
L 519.321064 -157.972587 
L 519.40816 -157.972587 
L 519.40816 -157.972587 
L 519.427812 -157.385776 
L 519.454196 -156.798964 
L 519.488661 -156.212152 
L 519.532455 -155.625341 
L 519.586565 -155.038529 
L 519.651542 -154.451718 
L 519.727336 -153.864906 
L 519.813159 -153.278095 
L 519.90742 -152.691283 
L 520.007741 -152.104471 
L 520.111088 -151.51766 
L 520.213992 -150.930848 
L 520.312861 -150.344037 
L 520.404323 -149.757225 
L 520.485568 -149.170413 
L 520.554623 -148.583602 
L 520.610522 -147.99679 
L 520.65335 -147.409979 
L 520.684158 -146.823167 
L 520.70477 -146.236355 
L 520.71753 -145.649544 
L 520.725036 -145.062732 
L 520.729899 -144.475921 
L 520.734553 -143.889109 
L 520.741135 -143.302297 
L 520.75141 -142.715486 
L 520.766737 -142.128674 
L 520.788048 -141.541863 
L 520.815827 -140.955051 
L 520.850098 -140.368239 
L 520.890428 -139.781428 
L 520.935956 -139.194616 
L 520.985478 -138.607805 
L 521.037568 -138.020993 
L 521.090747 -137.434181 
L 521.143659 -136.84737 
L 521.195237 -136.260558 
L 521.244828 -135.673747 
L 521.292251 -135.086935 
L 521.337802 -134.500123 
L 521.38219 -133.913312 
L 521.42645 -133.3265 
L 521.471822 -132.739689 
L 521.51965 -132.152877 
L 521.571288 -131.566065 
L 521.628034 -130.979254 
L 521.691096 -130.392442 
L 521.761594 -129.805631 
L 521.840588 -129.218819 
L 521.929151 -128.632008 
L 522.028464 -128.045196 
L 522.139933 -127.458384 
L 522.265322 -126.871573 
L 522.40686 -126.284761 
L 522.567322 -125.69795 
L 522.750046 -125.111138 
L 522.958871 -124.524326 
L 523.197993 -123.937515 
L 523.471724 -123.350703 
L 523.784197 -122.763892 
L 524.139027 -122.17708 
L 524.538997 -121.590268 
L 524.985823 -121.003457 
L 525.480055 -120.416645 
L 526.021155 -119.829834 
L 526.60777 -119.243022 
L 527.238149 -118.65621 
L 527.910665 -118.069399 
L 528.624289 -117.482587 
L 529.378926 -116.895776 
L 530.175442 -116.308964 
L 531.015301 -115.722152 
L 531.899718 -115.135341 
L 532.828317 -114.548529 
L 533.797379 -113.961718 
L 534.797818 -113.374906 
L 535.813183 -112.788094 
L 536.818039 -112.201283 
L 537.777164 -111.614471 
L 538.646013 -111.02766 
L 539.372741 -110.440848 
L 539.901935 -109.854036 
L 540.179827 -109.267225 
L 540.160454 -108.680413 
L 539.811915 -108.093602 
L 539.121687 -107.50679 
L 538.100008 -106.919978 
L 536.78058 -106.333167 
L 535.218287 -105.746355 
L 533.484166 -105.159544 
L 531.658365 -104.572732 
L 529.822187 -103.985921 
L 528.050459 -103.399109 
L 526.405305 -102.812297 
L 524.932092 -102.225486 
L 523.657861 -101.638674 
L 522.592097 -101.051863 
L 521.729325 -100.465051 
L 521.052838 -99.878239 
z
" id="m2ef557a213" style="stroke:#373737;stroke-width:1.5;"/>
    </defs>
    <g clip-path="url(#p81dcefb012)">
     <use style="fill:#2b8e70;stroke:#373737;stroke-width:1.5;" x="0" xlink:href="#m2ef557a213" y="509.319"/>
    </g>
   </g>
   <g id="PolyCollection_10">
    <defs>
     <path d="M 562.434861 -100.959139 
L 559.555221 -100.959139 
L 558.861748 -101.545782 
L 557.948186 -102.132425 
L 556.799052 -102.719068 
L 555.421287 -103.30571 
L 553.850468 -103.892353 
L 552.15311 -104.478996 
L 550.423399 -105.065639 
L 548.77386 -105.652282 
L 547.321014 -106.238925 
L 546.168612 -106.825568 
L 545.391969 -107.412211 
L 545.026907 -107.998854 
L 545.065736 -108.585496 
L 545.460907 -109.172139 
L 546.135043 -109.758782 
L 546.994612 -110.345425 
L 547.943991 -110.932068 
L 548.897116 -111.518711 
L 549.785057 -112.105354 
L 550.559215 -112.691997 
L 551.190882 -113.27864 
L 551.668513 -113.865282 
L 551.994004 -114.451925 
L 552.178951 -115.038568 
L 552.241357 -115.625211 
L 552.202911 -116.211854 
L 552.086757 -116.798497 
L 551.915672 -117.38514 
L 551.710654 -117.971783 
L 551.489969 -118.558425 
L 551.268707 -119.145068 
L 551.058864 -119.731711 
L 550.869823 -120.318354 
L 550.709098 -120.904997 
L 550.583131 -121.49164 
L 550.497977 -122.078283 
L 550.459752 -122.664926 
L 550.474763 -123.251569 
L 550.549287 -123.838211 
L 550.689001 -124.424854 
L 550.898142 -125.011497 
L 551.178509 -125.59814 
L 551.528536 -126.184783 
L 551.942691 -126.771426 
L 552.411422 -127.358069 
L 552.921797 -127.944712 
L 553.458786 -128.531355 
L 554.006935 -129.117997 
L 554.552093 -129.70464 
L 555.08277 -130.291283 
L 555.590851 -130.877926 
L 556.071533 -131.464569 
L 556.522614 -132.051212 
L 556.943384 -132.637855 
L 557.333479 -133.224498 
L 557.692021 -133.81114 
L 558.01724 -134.397783 
L 558.306656 -134.984426 
L 558.557704 -135.571069 
L 558.768613 -136.157712 
L 558.939287 -136.744355 
L 559.071932 -137.330998 
L 559.171264 -137.917641 
L 559.244201 -138.504284 
L 559.299093 -139.090926 
L 559.344634 -139.677569 
L 559.388699 -140.264212 
L 559.437347 -140.850855 
L 559.494215 -141.437498 
L 559.560405 -142.024141 
L 559.634849 -142.610784 
L 559.715009 -143.197427 
L 559.797723 -143.78407 
L 559.879949 -144.370712 
L 559.959266 -144.957355 
L 560.034066 -145.543998 
L 560.103454 -146.130641 
L 560.166998 -146.717284 
L 560.224458 -147.303927 
L 560.275632 -147.89057 
L 560.320372 -148.477213 
L 560.358755 -149.063855 
L 560.391324 -149.650498 
L 560.419267 -150.237141 
L 560.444447 -150.823784 
L 560.469208 -151.410427 
L 560.496002 -151.99707 
L 560.526915 -152.583713 
L 560.563231 -153.170356 
L 560.605154 -153.756999 
L 560.651767 -154.343641 
L 560.701227 -154.930284 
L 560.751147 -155.516927 
L 560.799048 -156.10357 
L 560.842775 -156.690213 
L 560.880794 -157.276856 
L 560.912317 -157.863499 
L 560.937268 -158.450142 
L 560.956143 -159.036785 
L 561.033939 -159.036785 
L 561.033939 -159.036785 
L 561.052814 -158.450142 
L 561.077765 -157.863499 
L 561.109288 -157.276856 
L 561.147307 -156.690213 
L 561.191035 -156.10357 
L 561.238935 -155.516927 
L 561.288855 -154.930284 
L 561.338315 -154.343641 
L 561.384928 -153.756999 
L 561.426851 -153.170356 
L 561.463167 -152.583713 
L 561.49408 -151.99707 
L 561.520874 -151.410427 
L 561.545635 -150.823784 
L 561.570815 -150.237141 
L 561.598758 -149.650498 
L 561.631327 -149.063855 
L 561.66971 -148.477213 
L 561.71445 -147.89057 
L 561.765624 -147.303927 
L 561.823084 -146.717284 
L 561.886628 -146.130641 
L 561.956016 -145.543998 
L 562.030816 -144.957355 
L 562.110134 -144.370712 
L 562.192359 -143.78407 
L 562.275073 -143.197427 
L 562.355234 -142.610784 
L 562.429677 -142.024141 
L 562.495867 -141.437498 
L 562.552736 -140.850855 
L 562.601383 -140.264212 
L 562.645448 -139.677569 
L 562.690989 -139.090926 
L 562.745881 -138.504284 
L 562.818818 -137.917641 
L 562.91815 -137.330998 
L 563.050795 -136.744355 
L 563.221469 -136.157712 
L 563.432378 -135.571069 
L 563.683426 -134.984426 
L 563.972842 -134.397783 
L 564.298061 -133.81114 
L 564.656603 -133.224498 
L 565.046698 -132.637855 
L 565.467468 -132.051212 
L 565.91855 -131.464569 
L 566.399231 -130.877926 
L 566.907312 -130.291283 
L 567.437989 -129.70464 
L 567.983147 -129.117997 
L 568.531296 -128.531355 
L 569.068285 -127.944712 
L 569.57866 -127.358069 
L 570.047391 -126.771426 
L 570.461546 -126.184783 
L 570.811574 -125.59814 
L 571.09194 -125.011497 
L 571.301081 -124.424854 
L 571.440796 -123.838211 
L 571.515319 -123.251569 
L 571.53033 -122.664926 
L 571.492105 -122.078283 
L 571.406951 -121.49164 
L 571.280984 -120.904997 
L 571.120259 -120.318354 
L 570.931218 -119.731711 
L 570.721375 -119.145068 
L 570.500113 -118.558425 
L 570.279428 -117.971783 
L 570.07441 -117.38514 
L 569.903326 -116.798497 
L 569.787171 -116.211854 
L 569.748725 -115.625211 
L 569.811131 -115.038568 
L 569.996078 -114.451925 
L 570.32157 -113.865282 
L 570.799201 -113.27864 
L 571.430867 -112.691997 
L 572.205025 -112.105354 
L 573.092967 -111.518711 
L 574.046091 -110.932068 
L 574.99547 -110.345425 
L 575.855039 -109.758782 
L 576.529175 -109.172139 
L 576.924346 -108.585496 
L 576.963175 -107.998854 
L 576.598113 -107.412211 
L 575.82147 -106.825568 
L 574.669068 -106.238925 
L 573.216223 -105.652282 
L 571.566683 -105.065639 
L 569.836972 -104.478996 
L 568.139614 -103.892353 
L 566.568795 -103.30571 
L 565.19103 -102.719068 
L 564.041896 -102.132425 
L 563.128334 -101.545782 
L 562.434861 -100.959139 
z
" id="m3b32b1974e" style="stroke:#373737;stroke-width:1.5;"/>
    </defs>
    <g clip-path="url(#p81dcefb012)">
     <use style="fill:#be631d;stroke:#373737;stroke-width:1.5;" x="0" xlink:href="#m3b32b1974e" y="509.319"/>
    </g>
   </g>
   <g id="patch_3">
    <path clip-path="url(#p81dcefb012)" d="M 123.875536 402.38083 
L 123.875536 402.38083 
L 123.875536 402.38083 
L 123.875536 402.38083 
z
" style="fill:#2b8e70;stroke:#373737;stroke-linejoin:miter;stroke-width:0.75;"/>
   </g>
   <g id="patch_4">
    <path clip-path="url(#p81dcefb012)" d="M 123.875536 402.38083 
L 123.875536 402.38083 
L 123.875536 402.38083 
L 123.875536 402.38083 
z
" style="fill:#be631d;stroke:#373737;stroke-linejoin:miter;stroke-width:0.75;"/>
   </g>
   <g id="line2d_1">
    <path clip-path="url(#p81dcefb012)" d="M 103.060322 402.38083 
L 103.060322 211.467209 
" style="fill:none;stroke:#373737;stroke-linecap:round;stroke-width:1.5;"/>
   </g>
   <g id="line2d_2">
    <path clip-path="url(#p81dcefb012)" d="M 103.060322 388.571768 
L 103.060322 299.282112 
" style="fill:none;stroke:#373737;stroke-linecap:round;stroke-width:4.5;"/>
   </g>
   <g id="line2d_3">
    <path clip-path="url(#p81dcefb012)" d="M 144.690751 402.38083 
L 144.690751 66.67317 
" style="fill:none;stroke:#373737;stroke-linecap:round;stroke-width:1.5;"/>
   </g>
   <g id="line2d_4">
    <path clip-path="url(#p81dcefb012)" d="M 144.690751 378.650695 
L 144.690751 235.733617 
" style="fill:none;stroke:#373737;stroke-linecap:round;stroke-width:4.5;"/>
   </g>
   <g id="line2d_5">
    <path clip-path="url(#p81dcefb012)" d="M 207.136394 402.38083 
L 207.136394 287.081873 
" style="fill:none;stroke:#373737;stroke-linecap:round;stroke-width:1.5;"/>
   </g>
   <g id="line2d_6">
    <path clip-path="url(#p81dcefb012)" d="M 207.136394 395.409265 
L 207.136394 350.764436 
" style="fill:none;stroke:#373737;stroke-linecap:round;stroke-width:4.5;"/>
   </g>
   <g id="line2d_7">
    <path clip-path="url(#p81dcefb012)" d="M 248.766823 402.38083 
L 248.766823 151.940771 
" style="fill:none;stroke:#373737;stroke-linecap:round;stroke-width:1.5;"/>
   </g>
   <g id="line2d_8">
    <path clip-path="url(#p81dcefb012)" d="M 248.766823 389.510248 
L 248.766823 283.327954 
" style="fill:none;stroke:#373737;stroke-linecap:round;stroke-width:4.5;"/>
   </g>
   <g id="line2d_9">
    <path clip-path="url(#p81dcefb012)" d="M 311.212467 402.38083 
L 311.212467 398.62691 
" style="fill:none;stroke:#373737;stroke-linecap:round;stroke-width:1.5;"/>
   </g>
   <g id="line2d_10">
    <path clip-path="url(#p81dcefb012)" d="M 311.212467 402.38083 
L 311.212467 400.772007 
" style="fill:none;stroke:#373737;stroke-linecap:round;stroke-width:4.5;"/>
   </g>
   <g id="line2d_11">
    <path clip-path="url(#p81dcefb012)" d="M 352.842896 402.38083 
L 352.842896 398.090636 
" style="fill:none;stroke:#373737;stroke-linecap:round;stroke-width:1.5;"/>
   </g>
   <g id="line2d_12">
    <path clip-path="url(#p81dcefb012)" d="M 352.842896 401.844555 
L 352.842896 400.235733 
" style="fill:none;stroke:#373737;stroke-linecap:round;stroke-width:4.5;"/>
   </g>
   <g id="line2d_13">
    <path clip-path="url(#p81dcefb012)" d="M 415.288539 402.38083 
L 415.288539 362.696538 
" style="fill:none;stroke:#373737;stroke-linecap:round;stroke-width:1.5;"/>
   </g>
   <g id="line2d_14">
    <path clip-path="url(#p81dcefb012)" d="M 415.288539 401.308281 
L 415.288539 385.62226 
" style="fill:none;stroke:#373737;stroke-linecap:round;stroke-width:4.5;"/>
   </g>
   <g id="line2d_15">
    <path clip-path="url(#p81dcefb012)" d="M 456.918968 402.38083 
L 456.918968 353.043602 
" style="fill:none;stroke:#373737;stroke-linecap:round;stroke-width:1.5;"/>
   </g>
   <g id="line2d_16">
    <path clip-path="url(#p81dcefb012)" d="M 456.918968 399.699458 
L 456.918968 380.929861 
" style="fill:none;stroke:#373737;stroke-linecap:round;stroke-width:4.5;"/>
   </g>
   <g id="line2d_17">
    <path clip-path="url(#p81dcefb012)" d="M 519.364612 402.38083 
L 519.364612 377.175941 
" style="fill:none;stroke:#373737;stroke-linecap:round;stroke-width:1.5;"/>
   </g>
   <g id="line2d_18">
    <path clip-path="url(#p81dcefb012)" d="M 519.364612 401.844555 
L 519.364612 391.789414 
" style="fill:none;stroke:#373737;stroke-linecap:round;stroke-width:4.5;"/>
   </g>
   <g id="line2d_19">
    <path clip-path="url(#p81dcefb012)" d="M 560.995041 402.38083 
L 560.995041 360.015166 
" style="fill:none;stroke:#373737;stroke-linecap:round;stroke-width:1.5;"/>
   </g>
   <g id="line2d_20">
    <path clip-path="url(#p81dcefb012)" d="M 560.995041 401.308281 
L 560.995041 384.013438 
" style="fill:none;stroke:#373737;stroke-linecap:round;stroke-width:4.5;"/>
   </g>
   <g id="patch_5">
    <path d="M 71.8375 461.854 
L 71.8375 7.2 
" style="fill:none;stroke:#262626;stroke-linecap:square;stroke-linejoin:miter;stroke-width:0.8;"/>
   </g>
   <g id="patch_6">
    <path d="M 71.8375 461.854 
L 592.217863 461.854 
" style="fill:none;stroke:#262626;stroke-linecap:square;stroke-linejoin:miter;stroke-width:0.8;"/>
   </g>
   <g id="PathCollection_1">
    <defs>
     <path d="M 0 1.5 
C 0.397805 1.5 0.77937 1.341951 1.06066 1.06066 
C 1.341951 0.77937 1.5 0.397805 1.5 0 
C 1.5 -0.397805 1.341951 -0.77937 1.06066 -1.06066 
C 0.77937 -1.341951 0.397805 -1.5 0 -1.5 
C -0.397805 -1.5 -0.77937 -1.341951 -1.06066 -1.06066 
C -1.341951 -0.77937 -1.5 -0.397805 -1.5 0 
C -1.5 0.397805 -1.341951 0.77937 -1.06066 1.06066 
C -0.77937 1.341951 -0.397805 1.5 0 1.5 
z
" id="m559b7f1f1d" style="stroke:#373737;"/>
    </defs>
    <g clip-path="url(#p81dcefb012)">
     <use style="fill:#ffffff;stroke:#373737;" x="103.060322" xlink:href="#m559b7f1f1d" y="345.535763"/>
    </g>
   </g>
   <g id="PathCollection_2">
    <g clip-path="url(#p81dcefb012)">
     <use style="fill:#ffffff;stroke:#373737;" x="144.690751" xlink:href="#m559b7f1f1d" y="280.646583"/>
    </g>
   </g>
   <g id="PathCollection_3">
    <g clip-path="url(#p81dcefb012)">
     <use style="fill:#ffffff;stroke:#373737;" x="207.136394" xlink:href="#m559b7f1f1d" y="379.857312"/>
    </g>
   </g>
   <g id="PathCollection_4">
    <g clip-path="url(#p81dcefb012)">
     <use style="fill:#ffffff;stroke:#373737;" x="248.766823" xlink:href="#m559b7f1f1d" y="338.564198"/>
    </g>
   </g>
   <g id="PathCollection_5">
    <g clip-path="url(#p81dcefb012)">
     <use style="fill:#ffffff;stroke:#373737;" x="311.212467" xlink:href="#m559b7f1f1d" y="401.844555"/>
    </g>
   </g>
   <g id="PathCollection_6">
    <g clip-path="url(#p81dcefb012)">
     <use style="fill:#ffffff;stroke:#373737;" x="352.842896" xlink:href="#m559b7f1f1d" y="401.308281"/>
    </g>
   </g>
   <g id="PathCollection_7">
    <g clip-path="url(#p81dcefb012)">
     <use style="fill:#ffffff;stroke:#373737;" x="415.288539" xlink:href="#m559b7f1f1d" y="397.554362"/>
    </g>
   </g>
   <g id="PathCollection_8">
    <g clip-path="url(#p81dcefb012)">
     <use style="fill:#ffffff;stroke:#373737;" x="456.918968" xlink:href="#m559b7f1f1d" y="393.264168"/>
    </g>
   </g>
   <g id="PathCollection_9">
    <g clip-path="url(#p81dcefb012)">
     <use style="fill:#ffffff;stroke:#373737;" x="519.364612" xlink:href="#m559b7f1f1d" y="398.090636"/>
    </g>
   </g>
   <g id="PathCollection_10">
    <g clip-path="url(#p81dcefb012)">
     <use style="fill:#ffffff;stroke:#373737;" x="560.995041" xlink:href="#m559b7f1f1d" y="392.191619"/>
    </g>
   </g>
  </g>
  <g id="legend_1">
   <g id="text_17">
    <!-- workday -->
    <defs>
     <path d="M 16.15625 0 
L 0.296875 51.859375 
L 9.375 51.859375 
L 17.625 21.921875 
L 20.703125 10.796875 
Q 20.90625 11.625 23.390625 21.484375 
L 31.640625 51.859375 
L 40.671875 51.859375 
L 48.4375 21.78125 
L 51.03125 11.859375 
L 54 21.875 
L 62.890625 51.859375 
L 71.4375 51.859375 
L 55.21875 0 
L 46.09375 0 
L 37.84375 31.0625 
L 35.84375 39.890625 
L 25.34375 0 
z
" id="ArialMT-119"/>
     <path d="M 6.640625 0 
L 6.640625 71.578125 
L 15.4375 71.578125 
L 15.4375 30.765625 
L 36.234375 51.859375 
L 47.609375 51.859375 
L 27.78125 32.625 
L 49.609375 0 
L 38.765625 0 
L 21.625 26.515625 
L 15.4375 20.5625 
L 15.4375 0 
z
" id="ArialMT-107"/>
     <path d="M 40.4375 6.390625 
Q 35.546875 2.25 31.03125 0.53125 
Q 26.515625 -1.171875 21.34375 -1.171875 
Q 12.796875 -1.171875 8.203125 3 
Q 3.609375 7.171875 3.609375 13.671875 
Q 3.609375 17.484375 5.34375 20.625 
Q 7.078125 23.78125 9.890625 25.6875 
Q 12.703125 27.59375 16.21875 28.5625 
Q 18.796875 29.25 24.03125 29.890625 
Q 34.671875 31.15625 39.703125 32.90625 
Q 39.75 34.71875 39.75 35.203125 
Q 39.75 40.578125 37.25 42.78125 
Q 33.890625 45.75 27.25 45.75 
Q 21.046875 45.75 18.09375 43.578125 
Q 15.140625 41.40625 13.71875 35.890625 
L 5.125 37.0625 
Q 6.296875 42.578125 8.984375 45.96875 
Q 11.671875 49.359375 16.75 51.1875 
Q 21.828125 53.03125 28.515625 53.03125 
Q 35.15625 53.03125 39.296875 51.46875 
Q 43.453125 49.90625 45.40625 47.53125 
Q 47.359375 45.171875 48.140625 41.546875 
Q 48.578125 39.3125 48.578125 33.453125 
L 48.578125 21.734375 
Q 48.578125 9.46875 49.140625 6.21875 
Q 49.703125 2.984375 51.375 0 
L 42.1875 0 
Q 40.828125 2.734375 40.4375 6.390625 
z
M 39.703125 26.03125 
Q 34.90625 24.078125 25.34375 22.703125 
Q 19.921875 21.921875 17.671875 20.9375 
Q 15.4375 19.96875 14.203125 18.09375 
Q 12.984375 16.21875 12.984375 13.921875 
Q 12.984375 10.40625 15.640625 8.0625 
Q 18.3125 5.71875 23.4375 5.71875 
Q 28.515625 5.71875 32.46875 7.9375 
Q 36.421875 10.15625 38.28125 14.015625 
Q 39.703125 17 39.703125 22.796875 
z
" id="ArialMT-97"/>
     <path d="M 6.203125 -19.96875 
L 5.21875 -11.71875 
Q 8.109375 -12.5 10.25 -12.5 
Q 13.1875 -12.5 14.9375 -11.515625 
Q 16.703125 -10.546875 17.828125 -8.796875 
Q 18.65625 -7.46875 20.515625 -2.25 
Q 20.75 -1.515625 21.296875 -0.09375 
L 1.609375 51.859375 
L 11.078125 51.859375 
L 21.875 21.828125 
Q 23.96875 16.109375 25.640625 9.8125 
Q 27.15625 15.875 29.25 21.625 
L 40.328125 51.859375 
L 49.125 51.859375 
L 29.390625 -0.875 
Q 26.21875 -9.421875 24.46875 -12.640625 
Q 22.125 -17 19.09375 -19.015625 
Q 16.0625 -21.046875 11.859375 -21.046875 
Q 9.328125 -21.046875 6.203125 -19.96875 
z
" id="ArialMT-121"/>
    </defs>
    <g style="fill:#262626;" transform="translate(670.7905 236.0695)scale(0.16 -0.16)">
     <use xlink:href="#ArialMT-119"/>
     <use x="72.216797" xlink:href="#ArialMT-111"/>
     <use x="127.832031" xlink:href="#ArialMT-114"/>
     <use x="161.132812" xlink:href="#ArialMT-107"/>
     <use x="211.132812" xlink:href="#ArialMT-100"/>
     <use x="266.748047" xlink:href="#ArialMT-97"/>
     <use x="322.363281" xlink:href="#ArialMT-121"/>
    </g>
   </g>
   <g id="patch_7">
    <path d="M 673.72925 258.8895 
L 705.72925 258.8895 
L 705.72925 247.6895 
L 673.72925 247.6895 
z
" style="fill:#2b8e70;stroke:#373737;stroke-linejoin:miter;stroke-width:0.75;"/>
   </g>
   <g id="text_18">
    <!-- 0 -->
    <g style="fill:#262626;" transform="translate(718.52925 258.8895)scale(0.16 -0.16)">
     <use xlink:href="#ArialMT-48"/>
    </g>
   </g>
   <g id="patch_8">
    <path d="M 673.72925 281.522 
L 705.72925 281.522 
L 705.72925 270.322 
L 673.72925 270.322 
z
" style="fill:#be631d;stroke:#373737;stroke-linejoin:miter;stroke-width:0.75;"/>
   </g>
   <g id="text_19">
    <!-- 1 -->
    <g style="fill:#262626;" transform="translate(718.52925 281.522)scale(0.16 -0.16)">
     <use xlink:href="#ArialMT-49"/>
    </g>
   </g>
  </g>
 </g>
 <defs>
  <clipPath id="p81dcefb012">
   <rect height="454.654" width="520.380363" x="71.8375" y="7.2"/>
  </clipPath>
 </defs>
</svg>
