<?xml version="1.0" encoding="utf-8" standalone="no"?>
<!DOCTYPE svg PUBLIC "-//W3C//DTD SVG 1.1//EN"
  "http://www.w3.org/Graphics/SVG/1.1/DTD/svg11.dtd">
<!-- Created with matplotlib (https://matplotlib.org/) -->
<svg height="509.319pt" version="1.1" viewBox="0 0 699.4616 509.319" width="699.4616pt" xmlns="http://www.w3.org/2000/svg" xmlns:xlink="http://www.w3.org/1999/xlink">
 <defs>
  <style type="text/css">
*{stroke-linecap:butt;stroke-linejoin:round;white-space:pre;}
  </style>
 </defs>
 <g id="figure_1">
  <g id="patch_1">
   <path d="M 0 509.319 
L 699.4616 509.319 
L 699.4616 0 
L 0 0 
z
" style="fill:#ffffff;"/>
  </g>
  <g id="axes_1">
   <g id="patch_2">
    <path d="M 71.39 461.854 
L 692.2616 461.854 
L 692.2616 7.2 
L 71.39 7.2 
z
" style="fill:#ffffff;"/>
   </g>
   <g id="matplotlib.axis_1">
    <g id="xtick_1">
     <g id="text_1">
      <!-- 1010 -->
      <defs>
       <path d="M 37.25 0 
L 28.46875 0 
L 28.46875 56 
Q 25.296875 52.984375 20.140625 49.953125 
Q 14.984375 46.921875 10.890625 45.40625 
L 10.890625 53.90625 
Q 18.265625 57.375 23.78125 62.296875 
Q 29.296875 67.234375 31.59375 71.875 
L 37.25 71.875 
z
" id="ArialMT-49"/>
       <path d="M 4.15625 35.296875 
Q 4.15625 48 6.765625 55.734375 
Q 9.375 63.484375 14.515625 67.671875 
Q 19.671875 71.875 27.484375 71.875 
Q 33.25 71.875 37.59375 69.546875 
Q 41.9375 67.234375 44.765625 62.859375 
Q 47.609375 58.5 49.21875 52.21875 
Q 50.828125 45.953125 50.828125 35.296875 
Q 50.828125 22.703125 48.234375 14.96875 
Q 45.65625 7.234375 40.5 3 
Q 35.359375 -1.21875 27.484375 -1.21875 
Q 17.140625 -1.21875 11.234375 6.203125 
Q 4.15625 15.140625 4.15625 35.296875 
z
M 13.1875 35.296875 
Q 13.1875 17.671875 17.3125 11.828125 
Q 21.4375 6 27.484375 6 
Q 33.546875 6 37.671875 11.859375 
Q 41.796875 17.71875 41.796875 35.296875 
Q 41.796875 52.984375 37.671875 58.78125 
Q 33.546875 64.59375 27.390625 64.59375 
Q 21.34375 64.59375 17.71875 59.46875 
Q 13.1875 52.9375 13.1875 35.296875 
z
" id="ArialMT-48"/>
      </defs>
      <g style="fill:#262626;" transform="translate(115.68216 480.3065)scale(0.16 -0.16)">
       <use xlink:href="#ArialMT-49"/>
       <use x="55.615234" xlink:href="#ArialMT-48"/>
       <use x="111.230469" xlink:href="#ArialMT-49"/>
       <use x="166.845703" xlink:href="#ArialMT-48"/>
      </g>
     </g>
    </g>
    <g id="xtick_2">
     <g id="text_2">
      <!-- 1010-1 -->
      <defs>
       <path d="M 3.171875 21.484375 
L 3.171875 30.328125 
L 30.171875 30.328125 
L 30.171875 21.484375 
z
" id="ArialMT-45"/>
      </defs>
      <g style="fill:#262626;" transform="translate(232.74398 480.3065)scale(0.16 -0.16)">
       <use xlink:href="#ArialMT-49"/>
       <use x="55.615234" xlink:href="#ArialMT-48"/>
       <use x="111.230469" xlink:href="#ArialMT-49"/>
       <use x="166.845703" xlink:href="#ArialMT-48"/>
       <use x="222.460938" xlink:href="#ArialMT-45"/>
       <use x="255.761719" xlink:href="#ArialMT-49"/>
      </g>
     </g>
    </g>
    <g id="xtick_3">
     <g id="text_3">
      <!-- 1014-150 -->
      <defs>
       <path d="M 32.328125 0 
L 32.328125 17.140625 
L 1.265625 17.140625 
L 1.265625 25.203125 
L 33.9375 71.578125 
L 41.109375 71.578125 
L 41.109375 25.203125 
L 50.78125 25.203125 
L 50.78125 17.140625 
L 41.109375 17.140625 
L 41.109375 0 
z
M 32.328125 25.203125 
L 32.328125 57.46875 
L 9.90625 25.203125 
z
" id="ArialMT-52"/>
       <path d="M 4.15625 18.75 
L 13.375 19.53125 
Q 14.40625 12.796875 18.140625 9.390625 
Q 21.875 6 27.15625 6 
Q 33.5 6 37.890625 10.78125 
Q 42.28125 15.578125 42.28125 23.484375 
Q 42.28125 31 38.0625 35.34375 
Q 33.84375 39.703125 27 39.703125 
Q 22.75 39.703125 19.328125 37.765625 
Q 15.921875 35.84375 13.96875 32.765625 
L 5.71875 33.84375 
L 12.640625 70.609375 
L 48.25 70.609375 
L 48.25 62.203125 
L 19.671875 62.203125 
L 15.828125 42.96875 
Q 22.265625 47.46875 29.34375 47.46875 
Q 38.71875 47.46875 45.15625 40.96875 
Q 51.609375 34.46875 51.609375 24.265625 
Q 51.609375 14.546875 45.953125 7.46875 
Q 39.0625 -1.21875 27.15625 -1.21875 
Q 17.390625 -1.21875 11.203125 4.25 
Q 5.03125 9.71875 4.15625 18.75 
z
" id="ArialMT-53"/>
      </defs>
      <g style="fill:#262626;" transform="translate(348.0208 480.3065)scale(0.16 -0.16)">
       <use xlink:href="#ArialMT-49"/>
       <use x="55.615234" xlink:href="#ArialMT-48"/>
       <use x="111.230469" xlink:href="#ArialMT-49"/>
       <use x="166.845703" xlink:href="#ArialMT-52"/>
       <use x="222.460938" xlink:href="#ArialMT-45"/>
       <use x="255.761719" xlink:href="#ArialMT-49"/>
       <use x="311.376953" xlink:href="#ArialMT-53"/>
       <use x="366.992188" xlink:href="#ArialMT-48"/>
      </g>
     </g>
    </g>
    <g id="xtick_4">
     <g id="text_4">
      <!-- 1016-140 -->
      <defs>
       <path d="M 49.75 54.046875 
L 41.015625 53.375 
Q 39.84375 58.546875 37.703125 60.890625 
Q 34.125 64.65625 28.90625 64.65625 
Q 24.703125 64.65625 21.53125 62.3125 
Q 17.390625 59.28125 14.984375 53.46875 
Q 12.59375 47.65625 12.5 36.921875 
Q 15.671875 41.75 20.265625 44.09375 
Q 24.859375 46.4375 29.890625 46.4375 
Q 38.671875 46.4375 44.84375 39.96875 
Q 51.03125 33.5 51.03125 23.25 
Q 51.03125 16.5 48.125 10.71875 
Q 45.21875 4.9375 40.140625 1.859375 
Q 35.0625 -1.21875 28.609375 -1.21875 
Q 17.625 -1.21875 10.6875 6.859375 
Q 3.765625 14.9375 3.765625 33.5 
Q 3.765625 54.25 11.421875 63.671875 
Q 18.109375 71.875 29.4375 71.875 
Q 37.890625 71.875 43.28125 67.140625 
Q 48.6875 62.40625 49.75 54.046875 
z
M 13.875 23.1875 
Q 13.875 18.65625 15.796875 14.5 
Q 17.71875 10.359375 21.1875 8.171875 
Q 24.65625 6 28.46875 6 
Q 34.03125 6 38.03125 10.484375 
Q 42.046875 14.984375 42.046875 22.703125 
Q 42.046875 30.125 38.078125 34.390625 
Q 34.125 38.671875 28.125 38.671875 
Q 22.171875 38.671875 18.015625 34.390625 
Q 13.875 30.125 13.875 23.1875 
z
" id="ArialMT-54"/>
      </defs>
      <g style="fill:#262626;" transform="translate(472.19512 480.3065)scale(0.16 -0.16)">
       <use xlink:href="#ArialMT-49"/>
       <use x="55.615234" xlink:href="#ArialMT-48"/>
       <use x="111.230469" xlink:href="#ArialMT-49"/>
       <use x="166.845703" xlink:href="#ArialMT-54"/>
       <use x="222.460938" xlink:href="#ArialMT-45"/>
       <use x="255.761719" xlink:href="#ArialMT-49"/>
       <use x="311.376953" xlink:href="#ArialMT-52"/>
       <use x="366.992188" xlink:href="#ArialMT-48"/>
      </g>
     </g>
    </g>
    <g id="xtick_5">
     <g id="text_5">
      <!-- 1021-156 -->
      <defs>
       <path d="M 50.34375 8.453125 
L 50.34375 0 
L 3.03125 0 
Q 2.9375 3.171875 4.046875 6.109375 
Q 5.859375 10.9375 9.828125 15.625 
Q 13.8125 20.3125 21.34375 26.46875 
Q 33.015625 36.03125 37.109375 41.625 
Q 41.21875 47.21875 41.21875 52.203125 
Q 41.21875 57.421875 37.46875 61 
Q 33.734375 64.59375 27.734375 64.59375 
Q 21.390625 64.59375 17.578125 60.78125 
Q 13.765625 56.984375 13.71875 50.25 
L 4.6875 51.171875 
Q 5.609375 61.28125 11.65625 66.578125 
Q 17.71875 71.875 27.9375 71.875 
Q 38.234375 71.875 44.234375 66.15625 
Q 50.25 60.453125 50.25 52 
Q 50.25 47.703125 48.484375 43.546875 
Q 46.734375 39.40625 42.65625 34.8125 
Q 38.578125 30.21875 29.109375 22.21875 
Q 21.1875 15.578125 18.9375 13.203125 
Q 16.703125 10.84375 15.234375 8.453125 
z
" id="ArialMT-50"/>
      </defs>
      <g style="fill:#262626;" transform="translate(596.36944 480.3065)scale(0.16 -0.16)">
       <use xlink:href="#ArialMT-49"/>
       <use x="55.615234" xlink:href="#ArialMT-48"/>
       <use x="111.230469" xlink:href="#ArialMT-50"/>
       <use x="166.845703" xlink:href="#ArialMT-49"/>
       <use x="222.460938" xlink:href="#ArialMT-45"/>
       <use x="255.761719" xlink:href="#ArialMT-49"/>
       <use x="311.376953" xlink:href="#ArialMT-53"/>
       <use x="366.992188" xlink:href="#ArialMT-54"/>
      </g>
     </g>
    </g>
    <g id="text_6">
     <!-- Counter id -->
     <defs>
      <path d="M 58.796875 25.09375 
L 68.265625 22.703125 
Q 65.28125 11.03125 57.546875 4.90625 
Q 49.8125 -1.21875 38.625 -1.21875 
Q 27.046875 -1.21875 19.796875 3.484375 
Q 12.546875 8.203125 8.765625 17.140625 
Q 4.984375 26.078125 4.984375 36.328125 
Q 4.984375 47.515625 9.25 55.828125 
Q 13.53125 64.15625 21.40625 68.46875 
Q 29.296875 72.796875 38.765625 72.796875 
Q 49.515625 72.796875 56.828125 67.328125 
Q 64.15625 61.859375 67.046875 51.953125 
L 57.71875 49.75 
Q 55.21875 57.5625 50.484375 61.125 
Q 45.75 64.703125 38.578125 64.703125 
Q 30.328125 64.703125 24.78125 60.734375 
Q 19.234375 56.78125 16.984375 50.109375 
Q 14.75 43.453125 14.75 36.375 
Q 14.75 27.25 17.40625 20.4375 
Q 20.0625 13.625 25.671875 10.25 
Q 31.296875 6.890625 37.84375 6.890625 
Q 45.796875 6.890625 51.3125 11.46875 
Q 56.84375 16.0625 58.796875 25.09375 
z
" id="ArialMT-67"/>
      <path d="M 3.328125 25.921875 
Q 3.328125 40.328125 11.328125 47.265625 
Q 18.015625 53.03125 27.640625 53.03125 
Q 38.328125 53.03125 45.109375 46.015625 
Q 51.90625 39.015625 51.90625 26.65625 
Q 51.90625 16.65625 48.90625 10.90625 
Q 45.90625 5.171875 40.15625 2 
Q 34.421875 -1.171875 27.640625 -1.171875 
Q 16.75 -1.171875 10.03125 5.8125 
Q 3.328125 12.796875 3.328125 25.921875 
z
M 12.359375 25.921875 
Q 12.359375 15.96875 16.703125 11.015625 
Q 21.046875 6.0625 27.640625 6.0625 
Q 34.1875 6.0625 38.53125 11.03125 
Q 42.875 16.015625 42.875 26.21875 
Q 42.875 35.84375 38.5 40.796875 
Q 34.125 45.75 27.640625 45.75 
Q 21.046875 45.75 16.703125 40.8125 
Q 12.359375 35.890625 12.359375 25.921875 
z
" id="ArialMT-111"/>
      <path d="M 40.578125 0 
L 40.578125 7.625 
Q 34.515625 -1.171875 24.125 -1.171875 
Q 19.53125 -1.171875 15.546875 0.578125 
Q 11.578125 2.34375 9.640625 5 
Q 7.71875 7.671875 6.9375 11.53125 
Q 6.390625 14.109375 6.390625 19.734375 
L 6.390625 51.859375 
L 15.1875 51.859375 
L 15.1875 23.09375 
Q 15.1875 16.21875 15.71875 13.8125 
Q 16.546875 10.359375 19.234375 8.375 
Q 21.921875 6.390625 25.875 6.390625 
Q 29.828125 6.390625 33.296875 8.421875 
Q 36.765625 10.453125 38.203125 13.9375 
Q 39.65625 17.4375 39.65625 24.078125 
L 39.65625 51.859375 
L 48.4375 51.859375 
L 48.4375 0 
z
" id="ArialMT-117"/>
      <path d="M 6.59375 0 
L 6.59375 51.859375 
L 14.5 51.859375 
L 14.5 44.484375 
Q 20.21875 53.03125 31 53.03125 
Q 35.6875 53.03125 39.625 51.34375 
Q 43.5625 49.65625 45.515625 46.921875 
Q 47.46875 44.1875 48.25 40.4375 
Q 48.734375 37.984375 48.734375 31.890625 
L 48.734375 0 
L 39.9375 0 
L 39.9375 31.546875 
Q 39.9375 36.921875 38.90625 39.578125 
Q 37.890625 42.234375 35.28125 43.8125 
Q 32.671875 45.40625 29.15625 45.40625 
Q 23.53125 45.40625 19.453125 41.84375 
Q 15.375 38.28125 15.375 28.328125 
L 15.375 0 
z
" id="ArialMT-110"/>
      <path d="M 25.78125 7.859375 
L 27.046875 0.09375 
Q 23.34375 -0.6875 20.40625 -0.6875 
Q 15.625 -0.6875 12.984375 0.828125 
Q 10.359375 2.34375 9.28125 4.8125 
Q 8.203125 7.28125 8.203125 15.1875 
L 8.203125 45.015625 
L 1.765625 45.015625 
L 1.765625 51.859375 
L 8.203125 51.859375 
L 8.203125 64.703125 
L 16.9375 69.96875 
L 16.9375 51.859375 
L 25.78125 51.859375 
L 25.78125 45.015625 
L 16.9375 45.015625 
L 16.9375 14.703125 
Q 16.9375 10.9375 17.40625 9.859375 
Q 17.875 8.796875 18.921875 8.15625 
Q 19.96875 7.515625 21.921875 7.515625 
Q 23.390625 7.515625 25.78125 7.859375 
z
" id="ArialMT-116"/>
      <path d="M 42.09375 16.703125 
L 51.171875 15.578125 
Q 49.03125 7.625 43.21875 3.21875 
Q 37.40625 -1.171875 28.375 -1.171875 
Q 17 -1.171875 10.328125 5.828125 
Q 3.65625 12.84375 3.65625 25.484375 
Q 3.65625 38.578125 10.390625 45.796875 
Q 17.140625 53.03125 27.875 53.03125 
Q 38.28125 53.03125 44.875 45.953125 
Q 51.46875 38.875 51.46875 26.03125 
Q 51.46875 25.25 51.421875 23.6875 
L 12.75 23.6875 
Q 13.234375 15.140625 17.578125 10.59375 
Q 21.921875 6.0625 28.421875 6.0625 
Q 33.25 6.0625 36.671875 8.59375 
Q 40.09375 11.140625 42.09375 16.703125 
z
M 13.234375 30.90625 
L 42.1875 30.90625 
Q 41.609375 37.453125 38.875 40.71875 
Q 34.671875 45.796875 27.984375 45.796875 
Q 21.921875 45.796875 17.796875 41.75 
Q 13.671875 37.703125 13.234375 30.90625 
z
" id="ArialMT-101"/>
      <path d="M 6.5 0 
L 6.5 51.859375 
L 14.40625 51.859375 
L 14.40625 44 
Q 17.4375 49.515625 20 51.265625 
Q 22.5625 53.03125 25.640625 53.03125 
Q 30.078125 53.03125 34.671875 50.203125 
L 31.640625 42.046875 
Q 28.421875 43.953125 25.203125 43.953125 
Q 22.3125 43.953125 20.015625 42.21875 
Q 17.71875 40.484375 16.75 37.40625 
Q 15.28125 32.71875 15.28125 27.15625 
L 15.28125 0 
z
" id="ArialMT-114"/>
      <path id="ArialMT-32"/>
      <path d="M 6.640625 61.46875 
L 6.640625 71.578125 
L 15.4375 71.578125 
L 15.4375 61.46875 
z
M 6.640625 0 
L 6.640625 51.859375 
L 15.4375 51.859375 
L 15.4375 0 
z
" id="ArialMT-105"/>
      <path d="M 40.234375 0 
L 40.234375 6.546875 
Q 35.296875 -1.171875 25.734375 -1.171875 
Q 19.53125 -1.171875 14.328125 2.25 
Q 9.125 5.671875 6.265625 11.796875 
Q 3.421875 17.921875 3.421875 25.875 
Q 3.421875 33.640625 6 39.96875 
Q 8.59375 46.296875 13.765625 49.65625 
Q 18.953125 53.03125 25.34375 53.03125 
Q 30.03125 53.03125 33.6875 51.046875 
Q 37.359375 49.078125 39.65625 45.90625 
L 39.65625 71.578125 
L 48.390625 71.578125 
L 48.390625 0 
z
M 12.453125 25.875 
Q 12.453125 15.921875 16.640625 10.984375 
Q 20.84375 6.0625 26.5625 6.0625 
Q 32.328125 6.0625 36.34375 10.765625 
Q 40.375 15.484375 40.375 25.140625 
Q 40.375 35.796875 36.265625 40.765625 
Q 32.171875 45.75 26.171875 45.75 
Q 20.3125 45.75 16.375 40.96875 
Q 12.453125 36.1875 12.453125 25.875 
z
" id="ArialMT-100"/>
     </defs>
     <g style="fill:#262626;" transform="translate(344.9183 498.939)scale(0.16 -0.16)">
      <use xlink:href="#ArialMT-67"/>
      <use x="72.216797" xlink:href="#ArialMT-111"/>
      <use x="127.832031" xlink:href="#ArialMT-117"/>
      <use x="183.447266" xlink:href="#ArialMT-110"/>
      <use x="239.0625" xlink:href="#ArialMT-116"/>
      <use x="266.845703" xlink:href="#ArialMT-101"/>
      <use x="322.460938" xlink:href="#ArialMT-114"/>
      <use x="355.761719" xlink:href="#ArialMT-32"/>
      <use x="383.544922" xlink:href="#ArialMT-105"/>
      <use x="405.761719" xlink:href="#ArialMT-100"/>
     </g>
    </g>
   </g>
   <g id="matplotlib.axis_2">
    <g id="ytick_1">
     <g id="text_7">
      <!-- 0 -->
      <g style="fill:#262626;" transform="translate(55.4925 409.974617)scale(0.16 -0.16)">
       <use xlink:href="#ArialMT-48"/>
      </g>
     </g>
    </g>
    <g id="ytick_2">
     <g id="text_8">
      <!-- 500 -->
      <g style="fill:#262626;" transform="translate(37.6975 350.941098)scale(0.16 -0.16)">
       <use xlink:href="#ArialMT-53"/>
       <use x="55.615234" xlink:href="#ArialMT-48"/>
       <use x="111.230469" xlink:href="#ArialMT-48"/>
      </g>
     </g>
    </g>
    <g id="ytick_3">
     <g id="text_9">
      <!-- 1000 -->
      <g style="fill:#262626;" transform="translate(28.8 291.907579)scale(0.16 -0.16)">
       <use xlink:href="#ArialMT-49"/>
       <use x="55.615234" xlink:href="#ArialMT-48"/>
       <use x="111.230469" xlink:href="#ArialMT-48"/>
       <use x="166.845703" xlink:href="#ArialMT-48"/>
      </g>
     </g>
    </g>
    <g id="ytick_4">
     <g id="text_10">
      <!-- 1500 -->
      <g style="fill:#262626;" transform="translate(28.8 232.87406)scale(0.16 -0.16)">
       <use xlink:href="#ArialMT-49"/>
       <use x="55.615234" xlink:href="#ArialMT-53"/>
       <use x="111.230469" xlink:href="#ArialMT-48"/>
       <use x="166.845703" xlink:href="#ArialMT-48"/>
      </g>
     </g>
    </g>
    <g id="ytick_5">
     <g id="text_11">
      <!-- 2000 -->
      <g style="fill:#262626;" transform="translate(28.8 173.840541)scale(0.16 -0.16)">
       <use xlink:href="#ArialMT-50"/>
       <use x="55.615234" xlink:href="#ArialMT-48"/>
       <use x="111.230469" xlink:href="#ArialMT-48"/>
       <use x="166.845703" xlink:href="#ArialMT-48"/>
      </g>
     </g>
    </g>
    <g id="ytick_6">
     <g id="text_12">
      <!-- 2500 -->
      <g style="fill:#262626;" transform="translate(28.8 114.807022)scale(0.16 -0.16)">
       <use xlink:href="#ArialMT-50"/>
       <use x="55.615234" xlink:href="#ArialMT-53"/>
       <use x="111.230469" xlink:href="#ArialMT-48"/>
       <use x="166.845703" xlink:href="#ArialMT-48"/>
      </g>
     </g>
    </g>
    <g id="ytick_7">
     <g id="text_13">
      <!-- 3000 -->
      <defs>
       <path d="M 4.203125 18.890625 
L 12.984375 20.0625 
Q 14.5 12.59375 18.140625 9.296875 
Q 21.78125 6 27 6 
Q 33.203125 6 37.46875 10.296875 
Q 41.75 14.59375 41.75 20.953125 
Q 41.75 27 37.796875 30.921875 
Q 33.84375 34.859375 27.734375 34.859375 
Q 25.25 34.859375 21.53125 33.890625 
L 22.515625 41.609375 
Q 23.390625 41.5 23.921875 41.5 
Q 29.546875 41.5 34.03125 44.421875 
Q 38.53125 47.359375 38.53125 53.46875 
Q 38.53125 58.296875 35.25 61.46875 
Q 31.984375 64.65625 26.8125 64.65625 
Q 21.6875 64.65625 18.265625 61.421875 
Q 14.84375 58.203125 13.875 51.765625 
L 5.078125 53.328125 
Q 6.6875 62.15625 12.390625 67.015625 
Q 18.109375 71.875 26.609375 71.875 
Q 32.46875 71.875 37.390625 69.359375 
Q 42.328125 66.84375 44.9375 62.5 
Q 47.5625 58.15625 47.5625 53.265625 
Q 47.5625 48.640625 45.0625 44.828125 
Q 42.578125 41.015625 37.703125 38.765625 
Q 44.046875 37.3125 47.5625 32.6875 
Q 51.078125 28.078125 51.078125 21.140625 
Q 51.078125 11.765625 44.234375 5.25 
Q 37.40625 -1.265625 26.953125 -1.265625 
Q 17.53125 -1.265625 11.296875 4.34375 
Q 5.078125 9.96875 4.203125 18.890625 
z
" id="ArialMT-51"/>
      </defs>
      <g style="fill:#262626;" transform="translate(28.8 55.773503)scale(0.16 -0.16)">
       <use xlink:href="#ArialMT-51"/>
       <use x="55.615234" xlink:href="#ArialMT-48"/>
       <use x="111.230469" xlink:href="#ArialMT-48"/>
       <use x="166.845703" xlink:href="#ArialMT-48"/>
      </g>
     </g>
    </g>
    <g id="text_14">
     <!-- Count [$h^{-1}$] -->
     <defs>
      <path d="M 6.78125 -19.875 
L 6.78125 71.578125 
L 26.171875 71.578125 
L 26.171875 64.3125 
L 15.578125 64.3125 
L 15.578125 -12.59375 
L 26.171875 -12.59375 
L 26.171875 -19.875 
z
" id="ArialMT-91"/>
      <path d="M 55.71875 33.015625 
L 49.3125 0 
L 40.28125 0 
L 46.6875 32.671875 
Q 47.125 34.96875 47.359375 36.71875 
Q 47.609375 38.484375 47.609375 39.5 
Q 47.609375 43.609375 45.015625 45.890625 
Q 42.4375 48.1875 37.796875 48.1875 
Q 30.5625 48.1875 25.265625 43.296875 
Q 19.96875 38.421875 18.40625 30.328125 
L 12.5 0 
L 3.515625 0 
L 18.3125 75.984375 
L 27.296875 75.984375 
L 21.484375 46.09375 
Q 24.90625 50.6875 30.21875 53.34375 
Q 35.546875 56 41.40625 56 
Q 48.640625 56 52.609375 52.09375 
Q 56.59375 48.1875 56.59375 41.109375 
Q 56.59375 39.359375 56.375 37.359375 
Q 56.15625 35.359375 55.71875 33.015625 
z
" id="DejaVuSans-Oblique-104"/>
      <path d="M 10.59375 35.5 
L 73.1875 35.5 
L 73.1875 27.203125 
L 10.59375 27.203125 
z
" id="DejaVuSans-8722"/>
      <path d="M 12.40625 8.296875 
L 28.515625 8.296875 
L 28.515625 63.921875 
L 10.984375 60.40625 
L 10.984375 69.390625 
L 28.421875 72.90625 
L 38.28125 72.90625 
L 38.28125 8.296875 
L 54.390625 8.296875 
L 54.390625 0 
L 12.40625 0 
z
" id="DejaVuSans-49"/>
      <path d="M 21.296875 -19.875 
L 1.90625 -19.875 
L 1.90625 -12.59375 
L 12.5 -12.59375 
L 12.5 64.3125 
L 1.90625 64.3125 
L 1.90625 71.578125 
L 21.296875 71.578125 
z
" id="ArialMT-93"/>
     </defs>
     <g style="fill:#262626;" transform="translate(21.6 276.687)rotate(-90)scale(0.16 -0.16)">
      <use transform="translate(0 0.684375)" xlink:href="#ArialMT-67"/>
      <use transform="translate(72.216797 0.684375)" xlink:href="#ArialMT-111"/>
      <use transform="translate(127.832031 0.684375)" xlink:href="#ArialMT-117"/>
      <use transform="translate(183.447266 0.684375)" xlink:href="#ArialMT-110"/>
      <use transform="translate(239.0625 0.684375)" xlink:href="#ArialMT-116"/>
      <use transform="translate(266.845703 0.684375)" xlink:href="#ArialMT-32"/>
      <use transform="translate(294.628906 0.684375)" xlink:href="#ArialMT-91"/>
      <use transform="translate(322.412109 0.684375)" xlink:href="#DejaVuSans-Oblique-104"/>
      <use transform="translate(393.238724 38.965625)scale(0.7)" xlink:href="#DejaVuSans-8722"/>
      <use transform="translate(451.891068 38.965625)scale(0.7)" xlink:href="#DejaVuSans-49"/>
      <use transform="translate(499.161576 0.684375)" xlink:href="#ArialMT-93"/>
     </g>
    </g>
   </g>
   <g id="PolyCollection_1">
    <defs>
     <path d="M 135.154322 -68.131091 
L 131.799998 -68.131091 
L 130.764579 -72.306059 
L 129.283878 -76.481027 
L 127.279461 -80.655994 
L 124.715614 -84.830962 
L 121.624711 -89.00593 
L 118.125303 -93.180898 
L 114.42486 -97.355866 
L 110.801666 -101.530834 
L 107.565861 -105.705802 
L 105.006432 -109.88077 
L 103.3366 -114.055737 
L 102.652074 -118.230705 
L 102.913894 -122.405673 
L 103.960738 -126.580641 
L 105.547085 -130.755609 
L 107.396475 -134.930577 
L 109.255709 -139.105545 
L 110.936918 -143.280512 
L 112.339182 -147.45548 
L 113.447821 -151.630448 
L 114.315404 -155.805416 
L 115.032332 -159.980384 
L 115.695922 -164.155352 
L 116.385406 -168.33032 
L 117.147214 -172.505287 
L 117.991346 -176.680255 
L 118.896686 -180.855223 
L 119.821385 -185.030191 
L 120.714151 -189.205159 
L 121.523255 -193.380127 
L 122.201747 -197.555095 
L 122.709172 -201.730062 
L 123.011458 -205.90503 
L 123.081165 -210.079998 
L 122.899824 -214.254966 
L 122.462865 -218.429934 
L 121.786042 -222.604902 
L 120.910959 -226.77987 
L 119.90681 -230.954837 
L 118.866184 -235.129805 
L 117.89445 -239.304773 
L 117.09441 -243.479741 
L 116.549729 -247.654709 
L 116.311346 -251.829677 
L 116.390426 -256.004645 
L 116.759559 -260.179612 
L 117.361519 -264.35458 
L 118.122858 -268.529548 
L 118.968549 -272.704516 
L 119.834097 -276.879484 
L 120.672753 -281.054452 
L 121.457278 -285.22942 
L 122.177282 -289.404388 
L 122.834161 -293.579355 
L 123.43576 -297.754323 
L 123.99228 -301.929291 
L 124.513983 -306.104259 
L 125.010316 -310.279227 
L 125.489631 -314.454195 
L 125.958734 -318.629163 
L 126.421949 -322.80413 
L 126.879999 -326.979098 
L 127.329331 -331.154066 
L 127.762512 -335.329034 
L 128.169865 -339.504002 
L 128.541987 -343.67897 
L 128.872332 -347.853938 
L 129.158988 -352.028905 
L 129.405085 -356.203873 
L 129.617813 -360.378841 
L 129.806531 -364.553809 
L 129.980696 -368.728777 
L 130.148265 -372.903745 
L 130.314888 -377.078713 
L 130.483848 -381.25368 
L 130.656445 -385.428648 
L 130.832489 -389.603616 
L 131.010705 -393.778584 
L 131.189042 -397.953552 
L 131.365003 -402.12852 
L 131.536094 -406.303488 
L 131.700395 -410.478455 
L 131.857065 -414.653423 
L 132.006585 -418.828391 
L 132.150572 -423.003359 
L 132.291159 -427.178327 
L 132.430142 -431.353295 
L 132.56819 -435.528263 
L 132.704403 -439.70323 
L 132.836362 -443.878198 
L 132.960656 -448.053166 
L 133.073672 -452.228134 
L 133.1724 -456.403102 
L 133.255015 -460.57807 
L 133.321127 -464.753038 
L 133.371675 -468.928006 
L 133.408586 -473.102973 
L 133.434325 -477.277941 
L 133.451465 -481.452909 
L 133.502855 -481.452909 
L 133.502855 -481.452909 
L 133.519995 -477.277941 
L 133.545734 -473.102973 
L 133.582645 -468.928006 
L 133.633193 -464.753038 
L 133.699305 -460.57807 
L 133.78192 -456.403102 
L 133.880648 -452.228134 
L 133.993664 -448.053166 
L 134.117958 -443.878198 
L 134.249917 -439.70323 
L 134.38613 -435.528263 
L 134.524178 -431.353295 
L 134.663161 -427.178327 
L 134.803748 -423.003359 
L 134.947735 -418.828391 
L 135.097255 -414.653423 
L 135.253925 -410.478455 
L 135.418226 -406.303488 
L 135.589317 -402.12852 
L 135.765278 -397.953552 
L 135.943615 -393.778584 
L 136.121831 -389.603616 
L 136.297875 -385.428648 
L 136.470472 -381.25368 
L 136.639432 -377.078713 
L 136.806055 -372.903745 
L 136.973624 -368.728777 
L 137.147789 -364.553809 
L 137.336507 -360.378841 
L 137.549235 -356.203873 
L 137.795332 -352.028905 
L 138.081988 -347.853938 
L 138.412333 -343.67897 
L 138.784455 -339.504002 
L 139.191808 -335.329034 
L 139.624989 -331.154066 
L 140.074321 -326.979098 
L 140.532371 -322.80413 
L 140.995586 -318.629163 
L 141.464689 -314.454195 
L 141.944004 -310.279227 
L 142.440337 -306.104259 
L 142.96204 -301.929291 
L 143.51856 -297.754323 
L 144.120159 -293.579355 
L 144.777038 -289.404388 
L 145.497042 -285.22942 
L 146.281567 -281.054452 
L 147.120223 -276.879484 
L 147.985771 -272.704516 
L 148.831462 -268.529548 
L 149.592801 -264.35458 
L 150.194761 -260.179612 
L 150.563894 -256.004645 
L 150.642974 -251.829677 
L 150.404591 -247.654709 
L 149.85991 -243.479741 
L 149.05987 -239.304773 
L 148.088136 -235.129805 
L 147.04751 -230.954837 
L 146.043361 -226.77987 
L 145.168278 -222.604902 
L 144.491455 -218.429934 
L 144.054496 -214.254966 
L 143.873155 -210.079998 
L 143.942862 -205.90503 
L 144.245148 -201.730062 
L 144.752573 -197.555095 
L 145.431065 -193.380127 
L 146.240169 -189.205159 
L 147.132935 -185.030191 
L 148.057634 -180.855223 
L 148.962974 -176.680255 
L 149.807106 -172.505287 
L 150.568914 -168.33032 
L 151.258398 -164.155352 
L 151.921988 -159.980384 
L 152.638916 -155.805416 
L 153.506499 -151.630448 
L 154.615138 -147.45548 
L 156.017402 -143.280512 
L 157.698611 -139.105545 
L 159.557845 -134.930577 
L 161.407235 -130.755609 
L 162.993582 -126.580641 
L 164.040426 -122.405673 
L 164.302246 -118.230705 
L 163.61772 -114.055737 
L 161.947888 -109.88077 
L 159.388459 -105.705802 
L 156.152654 -101.530834 
L 152.52946 -97.355866 
L 148.829017 -93.180898 
L 145.329609 -89.00593 
L 142.238706 -84.830962 
L 139.674859 -80.655994 
L 137.670442 -76.481027 
L 136.189741 -72.306059 
L 135.154322 -68.131091 
z
" id="m6187279255" style="stroke:#373737;stroke-width:1.5;"/>
    </defs>
    <g clip-path="url(#pce8619f3f5)">
     <use style="fill:#2b8e70;stroke:#373737;stroke-width:1.5;" x="0" xlink:href="#m6187279255" y="509.319"/>
    </g>
   </g>
   <g id="PolyCollection_2">
    <defs>
     <path d="M 259.586548 -68.359757 
L 255.716412 -68.359757 
L 254.625848 -72.412038 
L 253.112604 -76.464319 
L 251.117173 -80.516601 
L 248.621315 -84.568882 
L 245.667895 -88.621163 
L 242.373939 -92.673445 
L 238.931032 -96.725726 
L 235.589324 -100.778007 
L 232.625452 -104.830288 
L 230.299577 -108.88257 
L 228.810711 -112.934851 
L 228.261054 -116.987132 
L 228.638289 -121.039414 
L 229.820208 -125.091695 
L 231.600113 -129.143976 
L 233.726174 -133.196258 
L 235.945007 -137.248539 
L 238.039798 -141.30082 
L 239.855885 -145.353102 
L 241.310778 -149.405383 
L 242.389538 -153.457664 
L 243.129477 -157.509946 
L 243.599496 -161.562227 
L 243.87938 -165.614508 
L 244.043145 -169.666789 
L 244.14878 -173.719071 
L 244.234858 -177.771352 
L 244.322816 -181.823633 
L 244.422675 -185.875915 
L 244.53955 -189.928196 
L 244.678619 -193.980477 
L 244.847096 -198.032759 
L 245.052909 -202.08504 
L 245.300911 -206.137321 
L 245.588254 -210.189603 
L 245.900766 -214.241884 
L 246.211857 -218.294165 
L 246.484679 -222.346447 
L 246.677296 -226.398728 
L 246.749755 -230.451009 
L 246.671445 -234.50329 
L 246.42706 -238.555572 
L 246.019906 -242.607853 
L 245.471971 -246.660134 
L 244.820946 -250.712416 
L 244.115027 -254.764697 
L 243.406674 -258.816978 
L 242.746522 -262.86926 
L 242.178376 -266.921541 
L 241.735798 -270.973822 
L 241.44039 -275.026104 
L 241.301543 -279.078385 
L 241.317331 -283.130666 
L 241.476182 -287.182948 
L 241.759129 -291.235229 
L 242.142472 -295.28751 
L 242.600738 -299.339791 
L 243.109757 -303.392073 
L 243.649529 -307.444354 
L 244.20646 -311.496635 
L 244.774522 -315.548917 
L 245.354996 -319.601198 
L 245.954735 -323.653479 
L 246.583227 -327.705761 
L 247.249089 -331.758042 
L 247.956805 -335.810323 
L 248.704511 -339.862605 
L 249.483353 -343.914886 
L 250.278501 -347.967167 
L 251.071453 -352.019449 
L 251.842943 -356.07173 
L 252.57564 -360.124011 
L 253.256039 -364.176292 
L 253.875249 -368.228574 
L 254.428766 -372.280855 
L 254.915602 -376.333136 
L 255.337216 -380.385418 
L 255.696632 -384.437699 
L 255.997908 -388.48998 
L 256.245929 -392.542262 
L 256.446389 -396.594543 
L 256.605755 -400.646824 
L 256.731125 -404.699106 
L 256.829914 -408.751387 
L 256.909432 -412.803668 
L 256.976425 -416.85595 
L 257.036629 -420.908231 
L 257.094431 -424.960512 
L 257.152645 -429.012793 
L 257.212475 -433.065075 
L 257.273662 -437.117356 
L 257.334814 -441.169637 
L 257.393873 -445.221919 
L 257.448638 -449.2742 
L 257.497223 -453.326481 
L 257.538381 -457.378763 
L 257.571645 -461.431044 
L 257.597284 -465.483325 
L 257.616129 -469.535607 
L 257.686831 -469.535607 
L 257.686831 -469.535607 
L 257.705676 -465.483325 
L 257.731315 -461.431044 
L 257.764579 -457.378763 
L 257.805737 -453.326481 
L 257.854322 -449.2742 
L 257.909087 -445.221919 
L 257.968146 -441.169637 
L 258.029298 -437.117356 
L 258.090485 -433.065075 
L 258.150315 -429.012793 
L 258.208529 -424.960512 
L 258.266331 -420.908231 
L 258.326535 -416.85595 
L 258.393528 -412.803668 
L 258.473046 -408.751387 
L 258.571835 -404.699106 
L 258.697205 -400.646824 
L 258.856571 -396.594543 
L 259.057031 -392.542262 
L 259.305052 -388.48998 
L 259.606328 -384.437699 
L 259.965744 -380.385418 
L 260.387358 -376.333136 
L 260.874194 -372.280855 
L 261.427711 -368.228574 
L 262.046921 -364.176292 
L 262.72732 -360.124011 
L 263.460017 -356.07173 
L 264.231507 -352.019449 
L 265.024459 -347.967167 
L 265.819607 -343.914886 
L 266.598449 -339.862605 
L 267.346155 -335.810323 
L 268.053871 -331.758042 
L 268.719733 -327.705761 
L 269.348225 -323.653479 
L 269.947964 -319.601198 
L 270.528438 -315.548917 
L 271.0965 -311.496635 
L 271.653431 -307.444354 
L 272.193203 -303.392073 
L 272.702222 -299.339791 
L 273.160488 -295.28751 
L 273.543831 -291.235229 
L 273.826778 -287.182948 
L 273.985629 -283.130666 
L 274.001417 -279.078385 
L 273.86257 -275.026104 
L 273.567162 -270.973822 
L 273.124584 -266.921541 
L 272.556438 -262.86926 
L 271.896286 -258.816978 
L 271.187933 -254.764697 
L 270.482014 -250.712416 
L 269.830989 -246.660134 
L 269.283054 -242.607853 
L 268.8759 -238.555572 
L 268.631515 -234.50329 
L 268.553205 -230.451009 
L 268.625664 -226.398728 
L 268.818281 -222.346447 
L 269.091103 -218.294165 
L 269.402194 -214.241884 
L 269.714706 -210.189603 
L 270.002049 -206.137321 
L 270.250051 -202.08504 
L 270.455864 -198.032759 
L 270.624341 -193.980477 
L 270.76341 -189.928196 
L 270.880285 -185.875915 
L 270.980144 -181.823633 
L 271.068102 -177.771352 
L 271.15418 -173.719071 
L 271.259815 -169.666789 
L 271.42358 -165.614508 
L 271.703464 -161.562227 
L 272.173483 -157.509946 
L 272.913422 -153.457664 
L 273.992182 -149.405383 
L 275.447075 -145.353102 
L 277.263162 -141.30082 
L 279.357953 -137.248539 
L 281.576786 -133.196258 
L 283.702847 -129.143976 
L 285.482752 -125.091695 
L 286.664671 -121.039414 
L 287.041906 -116.987132 
L 286.492249 -112.934851 
L 285.003383 -108.88257 
L 282.677508 -104.830288 
L 279.713636 -100.778007 
L 276.371928 -96.725726 
L 272.929021 -92.673445 
L 269.635065 -88.621163 
L 266.681645 -84.568882 
L 264.185787 -80.516601 
L 262.190356 -76.464319 
L 260.677112 -72.412038 
L 259.586548 -68.359757 
z
" id="md0ad769cfa" style="stroke:#373737;stroke-width:1.5;"/>
    </defs>
    <g clip-path="url(#pce8619f3f5)">
     <use style="fill:#be631d;stroke:#373737;stroke-width:1.5;" x="0" xlink:href="#md0ad769cfa" y="509.319"/>
    </g>
   </g>
   <g id="PolyCollection_3">
    <defs>
     <path d="M 384.771517 -83.556096 
L 378.880083 -83.556096 
L 377.352873 -85.65679 
L 375.268786 -87.757484 
L 372.54375 -89.858178 
L 369.133604 -91.958873 
L 365.055392 -94.059567 
L 360.403923 -96.160261 
L 355.358219 -98.260955 
L 350.173648 -100.361649 
L 345.158303 -102.462344 
L 340.636059 -104.563038 
L 336.9025 -106.663732 
L 334.182502 -108.764426 
L 332.598473 -110.86512 
L 332.156072 -112.965815 
L 332.749993 -115.066509 
L 334.187659 -117.167203 
L 336.224657 -119.267897 
L 338.603767 -121.368591 
L 341.08978 -123.469286 
L 343.49453 -125.56998 
L 345.689782 -127.670674 
L 347.608623 -129.771368 
L 349.238079 -131.872062 
L 350.606478 -133.972757 
L 351.768837 -136.073451 
L 352.792667 -138.174145 
L 353.745674 -140.274839 
L 354.686052 -142.375534 
L 355.655709 -144.476228 
L 356.676569 -146.576922 
L 357.74999 -148.677616 
L 358.859127 -150.77831 
L 359.973767 -152.879005 
L 361.056758 -154.979699 
L 362.070865 -157.080393 
L 362.984785 -159.181087 
L 363.777283 -161.281781 
L 364.43883 -163.382476 
L 364.970779 -165.48317 
L 365.382645 -167.583864 
L 365.688451 -169.684558 
L 365.903179 -171.785252 
L 366.040142 -173.885947 
L 366.109693 -175.986641 
L 366.119232 -178.087335 
L 366.074095 -180.188029 
L 365.97874 -182.288723 
L 365.837705 -184.389418 
L 365.655989 -186.490112 
L 365.438797 -188.590806 
L 365.190823 -190.6915 
L 364.915372 -192.792195 
L 364.613628 -194.892889 
L 364.28429 -196.993583 
L 363.923643 -199.094277 
L 363.526018 -201.194971 
L 363.084543 -203.295666 
L 362.59209 -205.39636 
L 362.042343 -207.497054 
L 361.430997 -209.597748 
L 360.757046 -211.698442 
L 360.024125 -213.799137 
L 359.241759 -215.899831 
L 358.42635 -218.000525 
L 357.601702 -220.101219 
L 356.798907 -222.201913 
L 356.055503 -224.302608 
L 355.413862 -226.403302 
L 354.918835 -228.503996 
L 354.614753 -230.60469 
L 354.541951 -232.705385 
L 354.733068 -234.806079 
L 355.209534 -236.906773 
L 355.978737 -239.007467 
L 357.032388 -241.108161 
L 358.346479 -243.208856 
L 359.883008 -245.30955 
L 361.593271 -247.410244 
L 363.422215 -249.510938 
L 365.313133 -251.611632 
L 367.211951 -253.712327 
L 369.070525 -255.813021 
L 370.848667 -257.913715 
L 372.514922 -260.014409 
L 374.046391 -262.115103 
L 375.427992 -264.215798 
L 376.651509 -266.316492 
L 377.714685 -268.417186 
L 378.620427 -270.51788 
L 379.376086 -272.618574 
L 379.99272 -274.719269 
L 380.484255 -276.819963 
L 380.866528 -278.920657 
L 381.15626 -281.021351 
L 381.37005 -283.122046 
L 381.523497 -285.22274 
L 381.630547 -287.323434 
L 381.703086 -289.424128 
L 381.750801 -291.524822 
L 381.900799 -291.524822 
L 381.900799 -291.524822 
L 381.948514 -289.424128 
L 382.021053 -287.323434 
L 382.128103 -285.22274 
L 382.28155 -283.122046 
L 382.49534 -281.021351 
L 382.785072 -278.920657 
L 383.167345 -276.819963 
L 383.65888 -274.719269 
L 384.275514 -272.618574 
L 385.031173 -270.51788 
L 385.936915 -268.417186 
L 387.000091 -266.316492 
L 388.223608 -264.215798 
L 389.605209 -262.115103 
L 391.136678 -260.014409 
L 392.802933 -257.913715 
L 394.581075 -255.813021 
L 396.439649 -253.712327 
L 398.338467 -251.611632 
L 400.229385 -249.510938 
L 402.058329 -247.410244 
L 403.768592 -245.30955 
L 405.305121 -243.208856 
L 406.619212 -241.108161 
L 407.672863 -239.007467 
L 408.442066 -236.906773 
L 408.918532 -234.806079 
L 409.109649 -232.705385 
L 409.036847 -230.60469 
L 408.732765 -228.503996 
L 408.237738 -226.403302 
L 407.596097 -224.302608 
L 406.852693 -222.201913 
L 406.049898 -220.101219 
L 405.22525 -218.000525 
L 404.409841 -215.899831 
L 403.627475 -213.799137 
L 402.894554 -211.698442 
L 402.220603 -209.597748 
L 401.609257 -207.497054 
L 401.05951 -205.39636 
L 400.567057 -203.295666 
L 400.125582 -201.194971 
L 399.727957 -199.094277 
L 399.36731 -196.993583 
L 399.037972 -194.892889 
L 398.736228 -192.792195 
L 398.460777 -190.6915 
L 398.212803 -188.590806 
L 397.995611 -186.490112 
L 397.813895 -184.389418 
L 397.67286 -182.288723 
L 397.577505 -180.188029 
L 397.532368 -178.087335 
L 397.541907 -175.986641 
L 397.611458 -173.885947 
L 397.748421 -171.785252 
L 397.963149 -169.684558 
L 398.268955 -167.583864 
L 398.680821 -165.48317 
L 399.21277 -163.382476 
L 399.874317 -161.281781 
L 400.666815 -159.181087 
L 401.580735 -157.080393 
L 402.594842 -154.979699 
L 403.677833 -152.879005 
L 404.792473 -150.77831 
L 405.90161 -148.677616 
L 406.975031 -146.576922 
L 407.995891 -144.476228 
L 408.965548 -142.375534 
L 409.905926 -140.274839 
L 410.858933 -138.174145 
L 411.882763 -136.073451 
L 413.045122 -133.972757 
L 414.413521 -131.872062 
L 416.042977 -129.771368 
L 417.961818 -127.670674 
L 420.15707 -125.56998 
L 422.56182 -123.469286 
L 425.047833 -121.368591 
L 427.426943 -119.267897 
L 429.463941 -117.167203 
L 430.901607 -115.066509 
L 431.495528 -112.965815 
L 431.053127 -110.86512 
L 429.469098 -108.764426 
L 426.7491 -106.663732 
L 423.015541 -104.563038 
L 418.493297 -102.462344 
L 413.477952 -100.361649 
L 408.293381 -98.260955 
L 403.247677 -96.160261 
L 398.596208 -94.059567 
L 394.517996 -91.958873 
L 391.10785 -89.858178 
L 388.382814 -87.757484 
L 386.298727 -85.65679 
L 384.771517 -83.556096 
z
" id="m5df3ff8f3f" style="stroke:#373737;stroke-width:1.5;"/>
    </defs>
    <g clip-path="url(#pce8619f3f5)">
     <use style="fill:#7c78ab;stroke:#373737;stroke-width:1.5;" x="0" xlink:href="#m5df3ff8f3f" y="509.319"/>
    </g>
   </g>
   <g id="PolyCollection_4">
    <defs>
     <path d="M 508.519633 -84.863486 
L 503.480607 -84.863486 
L 501.740882 -87.315822 
L 499.179226 -89.768157 
L 495.648374 -92.220492 
L 491.104779 -94.672828 
L 485.667374 -97.125163 
L 479.651905 -99.577498 
L 473.559164 -102.029833 
L 468.006797 -104.482169 
L 463.613828 -106.934504 
L 460.867166 -109.386839 
L 460.010368 -111.839175 
L 460.990484 -114.29151 
L 463.479591 -116.743845 
L 466.961746 -119.196181 
L 470.85496 -121.648516 
L 474.629832 -124.100851 
L 477.893512 -126.553187 
L 480.424524 -129.005522 
L 482.162133 -131.457857 
L 483.166326 -133.910193 
L 483.567911 -136.362528 
L 483.524241 -138.814863 
L 483.188486 -141.267199 
L 482.693227 -143.719534 
L 482.144879 -146.171869 
L 481.624258 -148.624205 
L 481.189603 -151.07654 
L 480.879882 -153.528875 
L 480.717407 -155.98121 
L 480.709304 -158.433546 
L 480.847635 -160.885881 
L 481.108267 -163.338216 
L 481.449171 -165.790552 
L 481.809508 -168.242887 
L 482.111188 -170.695222 
L 482.264512 -173.147558 
L 482.178739 -175.599893 
L 481.777196 -178.052228 
L 481.015034 -180.504564 
L 479.896209 -182.956899 
L 478.485224 -185.409234 
L 476.9091 -187.86157 
L 475.346448 -190.313905 
L 474.003246 -192.76624 
L 473.078638 -195.218576 
L 472.72745 -197.670911 
L 473.028126 -200.123246 
L 473.964385 -202.575582 
L 475.426013 -205.027917 
L 477.229451 -207.480252 
L 479.153749 -209.932587 
L 480.98348 -212.384923 
L 482.548625 -214.837258 
L 483.752651 -217.289593 
L 484.58347 -219.741929 
L 485.106495 -222.194264 
L 485.443216 -224.646599 
L 485.7415 -227.098935 
L 486.144664 -229.55127 
L 486.765483 -232.003605 
L 487.66926 -234.455941 
L 488.867632 -236.908276 
L 490.32247 -239.360611 
L 491.957571 -241.812947 
L 493.674819 -244.265282 
L 495.371368 -246.717617 
L 496.954843 -249.169953 
L 498.354583 -251.622288 
L 499.527975 -254.074623 
L 500.461905 -256.526959 
L 501.169957 -258.979294 
L 501.686369 -261.431629 
L 502.057912 -263.883965 
L 502.335049 -266.3363 
L 502.563757 -268.788635 
L 502.779263 -271.24097 
L 503.002581 -273.693306 
L 503.24009 -276.145641 
L 503.485833 -278.597976 
L 503.725733 -281.050312 
L 503.942735 -283.502647 
L 504.121905 -285.954982 
L 504.254612 -288.407318 
L 504.341079 -290.859653 
L 504.390801 -293.311988 
L 504.420686 -295.764324 
L 504.451276 -298.216659 
L 504.50195 -300.668994 
L 504.586413 -303.12133 
L 504.70973 -305.573665 
L 504.867706 -308.026 
L 505.048686 -310.478336 
L 505.237017 -312.930671 
L 505.417014 -315.383006 
L 505.576224 -317.835342 
L 505.707251 -320.287677 
L 505.807964 -322.740012 
L 505.880462 -325.192347 
L 505.929436 -327.644683 
L 506.070804 -327.644683 
L 506.070804 -327.644683 
L 506.119778 -325.192347 
L 506.192276 -322.740012 
L 506.292989 -320.287677 
L 506.424016 -317.835342 
L 506.583226 -315.383006 
L 506.763223 -312.930671 
L 506.951554 -310.478336 
L 507.132534 -308.026 
L 507.29051 -305.573665 
L 507.413827 -303.12133 
L 507.49829 -300.668994 
L 507.548964 -298.216659 
L 507.579554 -295.764324 
L 507.609439 -293.311988 
L 507.659161 -290.859653 
L 507.745628 -288.407318 
L 507.878335 -285.954982 
L 508.057505 -283.502647 
L 508.274507 -281.050312 
L 508.514407 -278.597976 
L 508.76015 -276.145641 
L 508.997659 -273.693306 
L 509.220977 -271.24097 
L 509.436483 -268.788635 
L 509.665191 -266.3363 
L 509.942328 -263.883965 
L 510.313871 -261.431629 
L 510.830283 -258.979294 
L 511.538335 -256.526959 
L 512.472265 -254.074623 
L 513.645657 -251.622288 
L 515.045397 -249.169953 
L 516.628872 -246.717617 
L 518.325421 -244.265282 
L 520.042669 -241.812947 
L 521.67777 -239.360611 
L 523.132608 -236.908276 
L 524.33098 -234.455941 
L 525.234757 -232.003605 
L 525.855576 -229.55127 
L 526.25874 -227.098935 
L 526.557024 -224.646599 
L 526.893745 -222.194264 
L 527.41677 -219.741929 
L 528.247589 -217.289593 
L 529.451615 -214.837258 
L 531.01676 -212.384923 
L 532.846491 -209.932587 
L 534.770789 -207.480252 
L 536.574227 -205.027917 
L 538.035855 -202.575582 
L 538.972114 -200.123246 
L 539.27279 -197.670911 
L 538.921602 -195.218576 
L 537.996994 -192.76624 
L 536.653792 -190.313905 
L 535.09114 -187.86157 
L 533.515016 -185.409234 
L 532.104031 -182.956899 
L 530.985206 -180.504564 
L 530.223044 -178.052228 
L 529.821501 -175.599893 
L 529.735728 -173.147558 
L 529.889052 -170.695222 
L 530.190732 -168.242887 
L 530.551069 -165.790552 
L 530.891973 -163.338216 
L 531.152605 -160.885881 
L 531.290936 -158.433546 
L 531.282833 -155.98121 
L 531.120358 -153.528875 
L 530.810637 -151.07654 
L 530.375982 -148.624205 
L 529.855361 -146.171869 
L 529.307013 -143.719534 
L 528.811754 -141.267199 
L 528.475999 -138.814863 
L 528.432329 -136.362528 
L 528.833914 -133.910193 
L 529.838107 -131.457857 
L 531.575716 -129.005522 
L 534.106728 -126.553187 
L 537.370408 -124.100851 
L 541.14528 -121.648516 
L 545.038494 -119.196181 
L 548.520649 -116.743845 
L 551.009756 -114.29151 
L 551.989872 -111.839175 
L 551.133074 -109.386839 
L 548.386412 -106.934504 
L 543.993443 -104.482169 
L 538.441076 -102.029833 
L 532.348335 -99.577498 
L 526.332866 -97.125163 
L 520.895461 -94.672828 
L 516.351866 -92.220492 
L 512.821014 -89.768157 
L 510.259358 -87.315822 
L 508.519633 -84.863486 
z
" id="m36d5a2a177" style="stroke:#373737;stroke-width:1.5;"/>
    </defs>
    <g clip-path="url(#pce8619f3f5)">
     <use style="fill:#cf418a;stroke:#373737;stroke-width:1.5;" x="0" xlink:href="#m36d5a2a177" y="509.319"/>
    </g>
   </g>
   <g id="PolyCollection_5">
    <defs>
     <path d="M 632.493333 -85.429242 
L 627.855547 -85.429242 
L 625.985536 -88.118208 
L 623.097147 -90.807174 
L 618.983192 -93.49614 
L 613.598178 -96.185106 
L 607.154027 -98.874072 
L 600.16411 -101.563037 
L 593.395831 -104.252003 
L 587.722846 -106.940969 
L 583.912836 -109.629935 
L 582.422559 -112.318901 
L 583.276762 -115.007867 
L 586.075929 -117.696833 
L 590.125263 -120.385799 
L 594.630966 -123.074765 
L 598.891624 -125.763731 
L 602.42671 -128.452697 
L 605.018394 -131.141663 
L 606.677721 -133.830629 
L 607.56728 -136.519595 
L 607.915554 -139.208561 
L 607.94811 -141.897527 
L 607.846189 -144.586493 
L 607.731318 -147.275459 
L 607.668602 -149.964425 
L 607.680517 -152.653391 
L 607.764662 -155.342357 
L 607.910454 -158.031322 
L 608.110738 -160.720288 
L 608.365454 -163.409254 
L 608.676969 -166.09822 
L 609.040011 -168.787186 
L 609.431576 -171.476152 
L 609.806203 -174.165118 
L 610.099419 -176.854084 
L 610.238537 -179.54305 
L 610.157325 -182.232016 
L 609.810368 -184.920982 
L 609.183804 -187.609948 
L 608.300324 -190.298914 
L 607.217447 -192.98788 
L 606.019121 -195.676846 
L 604.802354 -198.365812 
L 603.662437 -201.054778 
L 602.681348 -203.743744 
L 601.922849 -206.43271 
L 601.434512 -209.121676 
L 601.25304 -211.810642 
L 601.407255 -214.499608 
L 601.914563 -217.188573 
L 602.77117 -219.877539 
L 603.941228 -222.566505 
L 605.352344 -225.255471 
L 606.902889 -227.944437 
L 608.481065 -230.633403 
L 609.989688 -233.322369 
L 611.367355 -236.011335 
L 612.597871 -238.700301 
L 613.70498 -241.389267 
L 614.735806 -244.078233 
L 615.740796 -246.767199 
L 616.758176 -249.456165 
L 617.807301 -252.145131 
L 618.890118 -254.834097 
L 619.996396 -257.523063 
L 621.10816 -260.212029 
L 622.20142 -262.900995 
L 623.246566 -265.589961 
L 624.210211 -268.278927 
L 625.060156 -270.967893 
L 625.772559 -273.656859 
L 626.338352 -276.345824 
L 626.765955 -279.03479 
L 627.079097 -281.723756 
L 627.310859 -284.412722 
L 627.496419 -287.101688 
L 627.666763 -289.790654 
L 627.844604 -292.47962 
L 628.042538 -295.168586 
L 628.262991 -297.857552 
L 628.499511 -300.546518 
L 628.739121 -303.235484 
L 628.965526 -305.92445 
L 629.162743 -308.613416 
L 629.318623 -311.302382 
L 629.427596 -313.991348 
L 629.492071 -316.680314 
L 629.522081 -319.36928 
L 629.533071 -322.058246 
L 629.542218 -324.747212 
L 629.564196 -327.436178 
L 629.607686 -330.125144 
L 629.673778 -332.81411 
L 629.756742 -335.503075 
L 629.846748 -338.192041 
L 629.933336 -340.881007 
L 630.008346 -343.569973 
L 630.067425 -346.258939 
L 630.110001 -348.947905 
L 630.138196 -351.636871 
L 630.210684 -351.636871 
L 630.210684 -351.636871 
L 630.238879 -348.947905 
L 630.281455 -346.258939 
L 630.340534 -343.569973 
L 630.415544 -340.881007 
L 630.502132 -338.192041 
L 630.592138 -335.503075 
L 630.675102 -332.81411 
L 630.741194 -330.125144 
L 630.784684 -327.436178 
L 630.806662 -324.747212 
L 630.815809 -322.058246 
L 630.826799 -319.36928 
L 630.856809 -316.680314 
L 630.921284 -313.991348 
L 631.030257 -311.302382 
L 631.186137 -308.613416 
L 631.383354 -305.92445 
L 631.609759 -303.235484 
L 631.849369 -300.546518 
L 632.085889 -297.857552 
L 632.306342 -295.168586 
L 632.504276 -292.47962 
L 632.682117 -289.790654 
L 632.852461 -287.101688 
L 633.038021 -284.412722 
L 633.269783 -281.723756 
L 633.582925 -279.03479 
L 634.010528 -276.345824 
L 634.576321 -273.656859 
L 635.288724 -270.967893 
L 636.138669 -268.278927 
L 637.102314 -265.589961 
L 638.14746 -262.900995 
L 639.24072 -260.212029 
L 640.352484 -257.523063 
L 641.458762 -254.834097 
L 642.541579 -252.145131 
L 643.590704 -249.456165 
L 644.608084 -246.767199 
L 645.613074 -244.078233 
L 646.6439 -241.389267 
L 647.751009 -238.700301 
L 648.981525 -236.011335 
L 650.359192 -233.322369 
L 651.867815 -230.633403 
L 653.445991 -227.944437 
L 654.996536 -225.255471 
L 656.407652 -222.566505 
L 657.57771 -219.877539 
L 658.434317 -217.188573 
L 658.941625 -214.499608 
L 659.09584 -211.810642 
L 658.914368 -209.121676 
L 658.426031 -206.43271 
L 657.667532 -203.743744 
L 656.686443 -201.054778 
L 655.546526 -198.365812 
L 654.329759 -195.676846 
L 653.131433 -192.98788 
L 652.048556 -190.298914 
L 651.165076 -187.609948 
L 650.538512 -184.920982 
L 650.191555 -182.232016 
L 650.110343 -179.54305 
L 650.249461 -176.854084 
L 650.542677 -174.165118 
L 650.917304 -171.476152 
L 651.308869 -168.787186 
L 651.671911 -166.09822 
L 651.983426 -163.409254 
L 652.238142 -160.720288 
L 652.438426 -158.031322 
L 652.584218 -155.342357 
L 652.668363 -152.653391 
L 652.680278 -149.964425 
L 652.617562 -147.275459 
L 652.502691 -144.586493 
L 652.40077 -141.897527 
L 652.433326 -139.208561 
L 652.7816 -136.519595 
L 653.671159 -133.830629 
L 655.330486 -131.141663 
L 657.92217 -128.452697 
L 661.457256 -125.763731 
L 665.717914 -123.074765 
L 670.223617 -120.385799 
L 674.272951 -117.696833 
L 677.072118 -115.007867 
L 677.926321 -112.318901 
L 676.436044 -109.629935 
L 672.626034 -106.940969 
L 666.953049 -104.252003 
L 660.18477 -101.563037 
L 653.194853 -98.874072 
L 646.750702 -96.185106 
L 641.365688 -93.49614 
L 637.251733 -90.807174 
L 634.363344 -88.118208 
L 632.493333 -85.429242 
z
" id="mb22d5fd263" style="stroke:#373737;stroke-width:1.5;"/>
    </defs>
    <g clip-path="url(#pce8619f3f5)">
     <use style="fill:#65952f;stroke:#373737;stroke-width:1.5;" x="0" xlink:href="#mb22d5fd263" y="509.319"/>
    </g>
   </g>
   <g id="line2d_1">
    <path clip-path="url(#pce8619f3f5)" d="M 133.47716 403.067697 
L 133.47716 65.986303 
" style="fill:none;stroke:#373737;stroke-linecap:round;stroke-width:1.5;"/>
   </g>
   <g id="line2d_2">
    <path clip-path="url(#pce8619f3f5)" d="M 133.47716 388.250283 
L 133.47716 251.587687 
" style="fill:none;stroke:#373737;stroke-linecap:round;stroke-width:4.5;"/>
   </g>
   <g id="line2d_3">
    <path clip-path="url(#pce8619f3f5)" d="M 257.65148 402.12316 
L 257.65148 78.619477 
" style="fill:none;stroke:#373737;stroke-linecap:round;stroke-width:1.5;"/>
   </g>
   <g id="line2d_4">
    <path clip-path="url(#pce8619f3f5)" d="M 257.65148 388.693035 
L 257.65148 229.981419 
" style="fill:none;stroke:#373737;stroke-linecap:round;stroke-width:4.5;"/>
   </g>
   <g id="line2d_5">
    <path clip-path="url(#pce8619f3f5)" d="M 381.8258 404.012233 
L 381.8258 239.544849 
" style="fill:none;stroke:#373737;stroke-linecap:round;stroke-width:1.5;"/>
   </g>
   <g id="line2d_6">
    <path clip-path="url(#pce8619f3f5)" d="M 381.8258 393.740401 
L 381.8258 293.708103 
" style="fill:none;stroke:#373737;stroke-linecap:round;stroke-width:4.5;"/>
   </g>
   <g id="line2d_7">
    <path clip-path="url(#pce8619f3f5)" d="M 506.00012 404.012233 
L 506.00012 202.117598 
" style="fill:none;stroke:#373737;stroke-linecap:round;stroke-width:1.5;"/>
   </g>
   <g id="line2d_8">
    <path clip-path="url(#pce8619f3f5)" d="M 506.00012 391.497127 
L 506.00012 307.079195 
" style="fill:none;stroke:#373737;stroke-linecap:round;stroke-width:4.5;"/>
   </g>
   <g id="line2d_9">
    <path clip-path="url(#pce8619f3f5)" d="M 630.17444 403.894166 
L 630.17444 177.677721 
" style="fill:none;stroke:#373737;stroke-linecap:round;stroke-width:1.5;"/>
   </g>
   <g id="line2d_10">
    <path clip-path="url(#pce8619f3f5)" d="M 630.17444 391.497127 
L 630.17444 295.744759 
" style="fill:none;stroke:#373737;stroke-linecap:round;stroke-width:4.5;"/>
   </g>
   <g id="patch_3">
    <path d="M 71.39 461.854 
L 71.39 7.2 
" style="fill:none;stroke:#262626;stroke-linecap:square;stroke-linejoin:miter;stroke-width:0.8;"/>
   </g>
   <g id="patch_4">
    <path d="M 71.39 461.854 
L 692.2616 461.854 
" style="fill:none;stroke:#262626;stroke-linecap:square;stroke-linejoin:miter;stroke-width:0.8;"/>
   </g>
   <g id="PathCollection_1">
    <defs>
     <path d="M 0 1.5 
C 0.397805 1.5 0.77937 1.341951 1.06066 1.06066 
C 1.341951 0.77937 1.5 0.397805 1.5 0 
C 1.5 -0.397805 1.341951 -0.77937 1.06066 -1.06066 
C 0.77937 -1.341951 0.397805 -1.5 0 -1.5 
C -0.397805 -1.5 -0.77937 -1.341951 -1.06066 -1.06066 
C -1.341951 -0.77937 -1.5 -0.397805 -1.5 0 
C -1.5 0.397805 -1.341951 0.77937 -1.06066 1.06066 
C -0.77937 1.341951 -0.397805 1.5 0 1.5 
z
" id="m476d60fbdc" style="stroke:#373737;"/>
    </defs>
    <g clip-path="url(#pce8619f3f5)">
     <use style="fill:#ffffff;stroke:#373737;" x="133.47716" xlink:href="#m476d60fbdc" y="334.116546"/>
    </g>
   </g>
   <g id="PathCollection_2">
    <g clip-path="url(#pce8619f3f5)">
     <use style="fill:#ffffff;stroke:#373737;" x="257.65148" xlink:href="#m476d60fbdc" y="312.392211"/>
    </g>
   </g>
   <g id="PathCollection_3">
    <g clip-path="url(#pce8619f3f5)">
     <use style="fill:#ffffff;stroke:#373737;" x="381.8258" xlink:href="#m476d60fbdc" y="358.615457"/>
    </g>
   </g>
   <g id="PathCollection_4">
    <g clip-path="url(#pce8619f3f5)">
     <use style="fill:#ffffff;stroke:#373737;" x="506.00012" xlink:href="#m476d60fbdc" y="344.034178"/>
    </g>
   </g>
   <g id="PathCollection_5">
    <g clip-path="url(#pce8619f3f5)">
     <use style="fill:#ffffff;stroke:#373737;" x="630.17444" xlink:href="#m476d60fbdc" y="342.617373"/>
    </g>
   </g>
  </g>
 </g>
 <defs>
  <clipPath id="pce8619f3f5">
   <rect height="454.654" width="620.8716" x="71.39" y="7.2"/>
  </clipPath>
 </defs>
</svg>
