<?xml version="1.0" encoding="utf-8" standalone="no"?>
<!DOCTYPE svg PUBLIC "-//W3C//DTD SVG 1.1//EN"
  "http://www.w3.org/Graphics/SVG/1.1/DTD/svg11.dtd">
<!-- Created with matplotlib (https://matplotlib.org/) -->
<svg height="509.319pt" version="1.1" viewBox="0 0 745.518 509.319" width="745.518pt" xmlns="http://www.w3.org/2000/svg" xmlns:xlink="http://www.w3.org/1999/xlink">
 <defs>
  <style type="text/css">
*{stroke-linecap:butt;stroke-linejoin:round;white-space:pre;}
  </style>
 </defs>
 <g id="figure_1">
  <g id="patch_1">
   <path d="M 0 509.319 
L 745.518 509.319 
L 745.518 0 
L 0 0 
z
" style="fill:#ffffff;"/>
  </g>
  <g id="axes_1">
   <g id="patch_2">
    <path d="M 71.39 461.854 
L 559.959648 461.854 
L 559.959648 7.2 
L 71.39 7.2 
z
" style="fill:#ffffff;"/>
   </g>
   <g id="matplotlib.axis_1">
    <g id="xtick_1">
     <g id="text_1">
      <!-- 0174 -->
      <defs>
       <path d="M 4.15625 35.296875 
Q 4.15625 48 6.765625 55.734375 
Q 9.375 63.484375 14.515625 67.671875 
Q 19.671875 71.875 27.484375 71.875 
Q 33.25 71.875 37.59375 69.546875 
Q 41.9375 67.234375 44.765625 62.859375 
Q 47.609375 58.5 49.21875 52.21875 
Q 50.828125 45.953125 50.828125 35.296875 
Q 50.828125 22.703125 48.234375 14.96875 
Q 45.65625 7.234375 40.5 3 
Q 35.359375 -1.21875 27.484375 -1.21875 
Q 17.140625 -1.21875 11.234375 6.203125 
Q 4.15625 15.140625 4.15625 35.296875 
z
M 13.1875 35.296875 
Q 13.1875 17.671875 17.3125 11.828125 
Q 21.4375 6 27.484375 6 
Q 33.546875 6 37.671875 11.859375 
Q 41.796875 17.71875 41.796875 35.296875 
Q 41.796875 52.984375 37.671875 58.78125 
Q 33.546875 64.59375 27.390625 64.59375 
Q 21.34375 64.59375 17.71875 59.46875 
Q 13.1875 52.9375 13.1875 35.296875 
z
" id="ArialMT-48"/>
       <path d="M 37.25 0 
L 28.46875 0 
L 28.46875 56 
Q 25.296875 52.984375 20.140625 49.953125 
Q 14.984375 46.921875 10.890625 45.40625 
L 10.890625 53.90625 
Q 18.265625 57.375 23.78125 62.296875 
Q 29.296875 67.234375 31.59375 71.875 
L 37.25 71.875 
z
" id="ArialMT-49"/>
       <path d="M 4.734375 62.203125 
L 4.734375 70.65625 
L 51.078125 70.65625 
L 51.078125 63.8125 
Q 44.234375 56.546875 37.515625 44.484375 
Q 30.8125 32.421875 27.15625 19.671875 
Q 24.515625 10.6875 23.78125 0 
L 14.75 0 
Q 14.890625 8.453125 18.0625 20.40625 
Q 21.234375 32.375 27.171875 43.484375 
Q 33.109375 54.59375 39.796875 62.203125 
z
" id="ArialMT-55"/>
       <path d="M 32.328125 0 
L 32.328125 17.140625 
L 1.265625 17.140625 
L 1.265625 25.203125 
L 33.9375 71.578125 
L 41.109375 71.578125 
L 41.109375 25.203125 
L 50.78125 25.203125 
L 50.78125 17.140625 
L 41.109375 17.140625 
L 41.109375 0 
z
M 32.328125 25.203125 
L 32.328125 57.46875 
L 9.90625 25.203125 
z
" id="ArialMT-52"/>
      </defs>
      <g style="fill:#262626;" transform="translate(102.451965 480.3065)scale(0.16 -0.16)">
       <use xlink:href="#ArialMT-48"/>
       <use x="55.615234" xlink:href="#ArialMT-49"/>
       <use x="111.230469" xlink:href="#ArialMT-55"/>
       <use x="166.845703" xlink:href="#ArialMT-52"/>
      </g>
     </g>
    </g>
    <g id="xtick_2">
     <g id="text_2">
      <!-- 0174-1 -->
      <defs>
       <path d="M 3.171875 21.484375 
L 3.171875 30.328125 
L 30.171875 30.328125 
L 30.171875 21.484375 
z
" id="ArialMT-45"/>
      </defs>
      <g style="fill:#262626;" transform="translate(193.053394 480.3065)scale(0.16 -0.16)">
       <use xlink:href="#ArialMT-48"/>
       <use x="55.615234" xlink:href="#ArialMT-49"/>
       <use x="111.230469" xlink:href="#ArialMT-55"/>
       <use x="166.845703" xlink:href="#ArialMT-52"/>
       <use x="222.460938" xlink:href="#ArialMT-45"/>
       <use x="255.761719" xlink:href="#ArialMT-49"/>
      </g>
     </g>
    </g>
    <g id="xtick_3">
     <g id="text_3">
      <!-- 0855 -->
      <defs>
       <path d="M 17.671875 38.8125 
Q 12.203125 40.828125 9.5625 44.53125 
Q 6.9375 48.25 6.9375 53.421875 
Q 6.9375 61.234375 12.546875 66.546875 
Q 18.171875 71.875 27.484375 71.875 
Q 36.859375 71.875 42.578125 66.421875 
Q 48.296875 60.984375 48.296875 53.171875 
Q 48.296875 48.1875 45.671875 44.5 
Q 43.0625 40.828125 37.75 38.8125 
Q 44.34375 36.671875 47.78125 31.875 
Q 51.21875 27.09375 51.21875 20.453125 
Q 51.21875 11.28125 44.71875 5.03125 
Q 38.234375 -1.21875 27.640625 -1.21875 
Q 17.046875 -1.21875 10.546875 5.046875 
Q 4.046875 11.328125 4.046875 20.703125 
Q 4.046875 27.6875 7.59375 32.390625 
Q 11.140625 37.109375 17.671875 38.8125 
z
M 15.921875 53.71875 
Q 15.921875 48.640625 19.1875 45.40625 
Q 22.46875 42.1875 27.6875 42.1875 
Q 32.765625 42.1875 36.015625 45.375 
Q 39.265625 48.578125 39.265625 53.21875 
Q 39.265625 58.0625 35.90625 61.359375 
Q 32.5625 64.65625 27.59375 64.65625 
Q 22.5625 64.65625 19.234375 61.421875 
Q 15.921875 58.203125 15.921875 53.71875 
z
M 13.09375 20.65625 
Q 13.09375 16.890625 14.875 13.375 
Q 16.65625 9.859375 20.171875 7.921875 
Q 23.6875 6 27.734375 6 
Q 34.03125 6 38.125 10.046875 
Q 42.234375 14.109375 42.234375 20.359375 
Q 42.234375 26.703125 38.015625 30.859375 
Q 33.796875 35.015625 27.4375 35.015625 
Q 21.234375 35.015625 17.15625 30.90625 
Q 13.09375 26.8125 13.09375 20.65625 
z
" id="ArialMT-56"/>
       <path d="M 4.15625 18.75 
L 13.375 19.53125 
Q 14.40625 12.796875 18.140625 9.390625 
Q 21.875 6 27.15625 6 
Q 33.5 6 37.890625 10.78125 
Q 42.28125 15.578125 42.28125 23.484375 
Q 42.28125 31 38.0625 35.34375 
Q 33.84375 39.703125 27 39.703125 
Q 22.75 39.703125 19.328125 37.765625 
Q 15.921875 35.84375 13.96875 32.765625 
L 5.71875 33.84375 
L 12.640625 70.609375 
L 48.25 70.609375 
L 48.25 62.203125 
L 19.671875 62.203125 
L 15.828125 42.96875 
Q 22.265625 47.46875 29.34375 47.46875 
Q 38.71875 47.46875 45.15625 40.96875 
Q 51.609375 34.46875 51.609375 24.265625 
Q 51.609375 14.546875 45.953125 7.46875 
Q 39.0625 -1.21875 27.15625 -1.21875 
Q 17.390625 -1.21875 11.203125 4.25 
Q 5.03125 9.71875 4.15625 18.75 
z
" id="ArialMT-53"/>
      </defs>
      <g style="fill:#262626;" transform="translate(297.879824 480.3065)scale(0.16 -0.16)">
       <use xlink:href="#ArialMT-48"/>
       <use x="55.615234" xlink:href="#ArialMT-56"/>
       <use x="111.230469" xlink:href="#ArialMT-53"/>
       <use x="166.845703" xlink:href="#ArialMT-53"/>
      </g>
     </g>
    </g>
    <g id="xtick_4">
     <g id="text_4">
      <!-- 0855-1 -->
      <g style="fill:#262626;" transform="translate(388.481254 480.3065)scale(0.16 -0.16)">
       <use xlink:href="#ArialMT-48"/>
       <use x="55.615234" xlink:href="#ArialMT-56"/>
       <use x="111.230469" xlink:href="#ArialMT-53"/>
       <use x="166.845703" xlink:href="#ArialMT-53"/>
       <use x="222.460938" xlink:href="#ArialMT-45"/>
       <use x="255.761719" xlink:href="#ArialMT-49"/>
      </g>
     </g>
    </g>
    <g id="xtick_5">
     <g id="text_5">
      <!-- 1001-156 -->
      <defs>
       <path d="M 49.75 54.046875 
L 41.015625 53.375 
Q 39.84375 58.546875 37.703125 60.890625 
Q 34.125 64.65625 28.90625 64.65625 
Q 24.703125 64.65625 21.53125 62.3125 
Q 17.390625 59.28125 14.984375 53.46875 
Q 12.59375 47.65625 12.5 36.921875 
Q 15.671875 41.75 20.265625 44.09375 
Q 24.859375 46.4375 29.890625 46.4375 
Q 38.671875 46.4375 44.84375 39.96875 
Q 51.03125 33.5 51.03125 23.25 
Q 51.03125 16.5 48.125 10.71875 
Q 45.21875 4.9375 40.140625 1.859375 
Q 35.0625 -1.21875 28.609375 -1.21875 
Q 17.625 -1.21875 10.6875 6.859375 
Q 3.765625 14.9375 3.765625 33.5 
Q 3.765625 54.25 11.421875 63.671875 
Q 18.109375 71.875 29.4375 71.875 
Q 37.890625 71.875 43.28125 67.140625 
Q 48.6875 62.40625 49.75 54.046875 
z
M 13.875 23.1875 
Q 13.875 18.65625 15.796875 14.5 
Q 17.71875 10.359375 21.1875 8.171875 
Q 24.65625 6 28.46875 6 
Q 34.03125 6 38.03125 10.484375 
Q 42.046875 14.984375 42.046875 22.703125 
Q 42.046875 30.125 38.078125 34.390625 
Q 34.125 38.671875 28.125 38.671875 
Q 22.171875 38.671875 18.015625 34.390625 
Q 13.875 30.125 13.875 23.1875 
z
" id="ArialMT-54"/>
      </defs>
      <g style="fill:#262626;" transform="translate(477.297683 480.3065)scale(0.16 -0.16)">
       <use xlink:href="#ArialMT-49"/>
       <use x="55.615234" xlink:href="#ArialMT-48"/>
       <use x="111.230469" xlink:href="#ArialMT-48"/>
       <use x="166.845703" xlink:href="#ArialMT-49"/>
       <use x="222.460938" xlink:href="#ArialMT-45"/>
       <use x="255.761719" xlink:href="#ArialMT-49"/>
       <use x="311.376953" xlink:href="#ArialMT-53"/>
       <use x="366.992188" xlink:href="#ArialMT-54"/>
      </g>
     </g>
    </g>
    <g id="text_6">
     <!-- Counter id -->
     <defs>
      <path d="M 58.796875 25.09375 
L 68.265625 22.703125 
Q 65.28125 11.03125 57.546875 4.90625 
Q 49.8125 -1.21875 38.625 -1.21875 
Q 27.046875 -1.21875 19.796875 3.484375 
Q 12.546875 8.203125 8.765625 17.140625 
Q 4.984375 26.078125 4.984375 36.328125 
Q 4.984375 47.515625 9.25 55.828125 
Q 13.53125 64.15625 21.40625 68.46875 
Q 29.296875 72.796875 38.765625 72.796875 
Q 49.515625 72.796875 56.828125 67.328125 
Q 64.15625 61.859375 67.046875 51.953125 
L 57.71875 49.75 
Q 55.21875 57.5625 50.484375 61.125 
Q 45.75 64.703125 38.578125 64.703125 
Q 30.328125 64.703125 24.78125 60.734375 
Q 19.234375 56.78125 16.984375 50.109375 
Q 14.75 43.453125 14.75 36.375 
Q 14.75 27.25 17.40625 20.4375 
Q 20.0625 13.625 25.671875 10.25 
Q 31.296875 6.890625 37.84375 6.890625 
Q 45.796875 6.890625 51.3125 11.46875 
Q 56.84375 16.0625 58.796875 25.09375 
z
" id="ArialMT-67"/>
      <path d="M 3.328125 25.921875 
Q 3.328125 40.328125 11.328125 47.265625 
Q 18.015625 53.03125 27.640625 53.03125 
Q 38.328125 53.03125 45.109375 46.015625 
Q 51.90625 39.015625 51.90625 26.65625 
Q 51.90625 16.65625 48.90625 10.90625 
Q 45.90625 5.171875 40.15625 2 
Q 34.421875 -1.171875 27.640625 -1.171875 
Q 16.75 -1.171875 10.03125 5.8125 
Q 3.328125 12.796875 3.328125 25.921875 
z
M 12.359375 25.921875 
Q 12.359375 15.96875 16.703125 11.015625 
Q 21.046875 6.0625 27.640625 6.0625 
Q 34.1875 6.0625 38.53125 11.03125 
Q 42.875 16.015625 42.875 26.21875 
Q 42.875 35.84375 38.5 40.796875 
Q 34.125 45.75 27.640625 45.75 
Q 21.046875 45.75 16.703125 40.8125 
Q 12.359375 35.890625 12.359375 25.921875 
z
" id="ArialMT-111"/>
      <path d="M 40.578125 0 
L 40.578125 7.625 
Q 34.515625 -1.171875 24.125 -1.171875 
Q 19.53125 -1.171875 15.546875 0.578125 
Q 11.578125 2.34375 9.640625 5 
Q 7.71875 7.671875 6.9375 11.53125 
Q 6.390625 14.109375 6.390625 19.734375 
L 6.390625 51.859375 
L 15.1875 51.859375 
L 15.1875 23.09375 
Q 15.1875 16.21875 15.71875 13.8125 
Q 16.546875 10.359375 19.234375 8.375 
Q 21.921875 6.390625 25.875 6.390625 
Q 29.828125 6.390625 33.296875 8.421875 
Q 36.765625 10.453125 38.203125 13.9375 
Q 39.65625 17.4375 39.65625 24.078125 
L 39.65625 51.859375 
L 48.4375 51.859375 
L 48.4375 0 
z
" id="ArialMT-117"/>
      <path d="M 6.59375 0 
L 6.59375 51.859375 
L 14.5 51.859375 
L 14.5 44.484375 
Q 20.21875 53.03125 31 53.03125 
Q 35.6875 53.03125 39.625 51.34375 
Q 43.5625 49.65625 45.515625 46.921875 
Q 47.46875 44.1875 48.25 40.4375 
Q 48.734375 37.984375 48.734375 31.890625 
L 48.734375 0 
L 39.9375 0 
L 39.9375 31.546875 
Q 39.9375 36.921875 38.90625 39.578125 
Q 37.890625 42.234375 35.28125 43.8125 
Q 32.671875 45.40625 29.15625 45.40625 
Q 23.53125 45.40625 19.453125 41.84375 
Q 15.375 38.28125 15.375 28.328125 
L 15.375 0 
z
" id="ArialMT-110"/>
      <path d="M 25.78125 7.859375 
L 27.046875 0.09375 
Q 23.34375 -0.6875 20.40625 -0.6875 
Q 15.625 -0.6875 12.984375 0.828125 
Q 10.359375 2.34375 9.28125 4.8125 
Q 8.203125 7.28125 8.203125 15.1875 
L 8.203125 45.015625 
L 1.765625 45.015625 
L 1.765625 51.859375 
L 8.203125 51.859375 
L 8.203125 64.703125 
L 16.9375 69.96875 
L 16.9375 51.859375 
L 25.78125 51.859375 
L 25.78125 45.015625 
L 16.9375 45.015625 
L 16.9375 14.703125 
Q 16.9375 10.9375 17.40625 9.859375 
Q 17.875 8.796875 18.921875 8.15625 
Q 19.96875 7.515625 21.921875 7.515625 
Q 23.390625 7.515625 25.78125 7.859375 
z
" id="ArialMT-116"/>
      <path d="M 42.09375 16.703125 
L 51.171875 15.578125 
Q 49.03125 7.625 43.21875 3.21875 
Q 37.40625 -1.171875 28.375 -1.171875 
Q 17 -1.171875 10.328125 5.828125 
Q 3.65625 12.84375 3.65625 25.484375 
Q 3.65625 38.578125 10.390625 45.796875 
Q 17.140625 53.03125 27.875 53.03125 
Q 38.28125 53.03125 44.875 45.953125 
Q 51.46875 38.875 51.46875 26.03125 
Q 51.46875 25.25 51.421875 23.6875 
L 12.75 23.6875 
Q 13.234375 15.140625 17.578125 10.59375 
Q 21.921875 6.0625 28.421875 6.0625 
Q 33.25 6.0625 36.671875 8.59375 
Q 40.09375 11.140625 42.09375 16.703125 
z
M 13.234375 30.90625 
L 42.1875 30.90625 
Q 41.609375 37.453125 38.875 40.71875 
Q 34.671875 45.796875 27.984375 45.796875 
Q 21.921875 45.796875 17.796875 41.75 
Q 13.671875 37.703125 13.234375 30.90625 
z
" id="ArialMT-101"/>
      <path d="M 6.5 0 
L 6.5 51.859375 
L 14.40625 51.859375 
L 14.40625 44 
Q 17.4375 49.515625 20 51.265625 
Q 22.5625 53.03125 25.640625 53.03125 
Q 30.078125 53.03125 34.671875 50.203125 
L 31.640625 42.046875 
Q 28.421875 43.953125 25.203125 43.953125 
Q 22.3125 43.953125 20.015625 42.21875 
Q 17.71875 40.484375 16.75 37.40625 
Q 15.28125 32.71875 15.28125 27.15625 
L 15.28125 0 
z
" id="ArialMT-114"/>
      <path id="ArialMT-32"/>
      <path d="M 6.640625 61.46875 
L 6.640625 71.578125 
L 15.4375 71.578125 
L 15.4375 61.46875 
z
M 6.640625 0 
L 6.640625 51.859375 
L 15.4375 51.859375 
L 15.4375 0 
z
" id="ArialMT-105"/>
      <path d="M 40.234375 0 
L 40.234375 6.546875 
Q 35.296875 -1.171875 25.734375 -1.171875 
Q 19.53125 -1.171875 14.328125 2.25 
Q 9.125 5.671875 6.265625 11.796875 
Q 3.421875 17.921875 3.421875 25.875 
Q 3.421875 33.640625 6 39.96875 
Q 8.59375 46.296875 13.765625 49.65625 
Q 18.953125 53.03125 25.34375 53.03125 
Q 30.03125 53.03125 33.6875 51.046875 
Q 37.359375 49.078125 39.65625 45.90625 
L 39.65625 71.578125 
L 48.390625 71.578125 
L 48.390625 0 
z
M 12.453125 25.875 
Q 12.453125 15.921875 16.640625 10.984375 
Q 20.84375 6.0625 26.5625 6.0625 
Q 32.328125 6.0625 36.34375 10.765625 
Q 40.375 15.484375 40.375 25.140625 
Q 40.375 35.796875 36.265625 40.765625 
Q 32.171875 45.75 26.171875 45.75 
Q 20.3125 45.75 16.375 40.96875 
Q 12.453125 36.1875 12.453125 25.875 
z
" id="ArialMT-100"/>
     </defs>
     <g style="fill:#262626;" transform="translate(278.767324 498.939)scale(0.16 -0.16)">
      <use xlink:href="#ArialMT-67"/>
      <use x="72.216797" xlink:href="#ArialMT-111"/>
      <use x="127.832031" xlink:href="#ArialMT-117"/>
      <use x="183.447266" xlink:href="#ArialMT-110"/>
      <use x="239.0625" xlink:href="#ArialMT-116"/>
      <use x="266.845703" xlink:href="#ArialMT-101"/>
      <use x="322.460938" xlink:href="#ArialMT-114"/>
      <use x="355.761719" xlink:href="#ArialMT-32"/>
      <use x="383.544922" xlink:href="#ArialMT-105"/>
      <use x="405.761719" xlink:href="#ArialMT-100"/>
     </g>
    </g>
   </g>
   <g id="matplotlib.axis_2">
    <g id="ytick_1">
     <g id="text_7">
      <!-- 0 -->
      <g style="fill:#262626;" transform="translate(55.4925 406.85609)scale(0.16 -0.16)">
       <use xlink:href="#ArialMT-48"/>
      </g>
     </g>
    </g>
    <g id="ytick_2">
     <g id="text_8">
      <!-- 1000 -->
      <g style="fill:#262626;" transform="translate(28.8 326.17427)scale(0.16 -0.16)">
       <use xlink:href="#ArialMT-49"/>
       <use x="55.615234" xlink:href="#ArialMT-48"/>
       <use x="111.230469" xlink:href="#ArialMT-48"/>
       <use x="166.845703" xlink:href="#ArialMT-48"/>
      </g>
     </g>
    </g>
    <g id="ytick_3">
     <g id="text_9">
      <!-- 2000 -->
      <defs>
       <path d="M 50.34375 8.453125 
L 50.34375 0 
L 3.03125 0 
Q 2.9375 3.171875 4.046875 6.109375 
Q 5.859375 10.9375 9.828125 15.625 
Q 13.8125 20.3125 21.34375 26.46875 
Q 33.015625 36.03125 37.109375 41.625 
Q 41.21875 47.21875 41.21875 52.203125 
Q 41.21875 57.421875 37.46875 61 
Q 33.734375 64.59375 27.734375 64.59375 
Q 21.390625 64.59375 17.578125 60.78125 
Q 13.765625 56.984375 13.71875 50.25 
L 4.6875 51.171875 
Q 5.609375 61.28125 11.65625 66.578125 
Q 17.71875 71.875 27.9375 71.875 
Q 38.234375 71.875 44.234375 66.15625 
Q 50.25 60.453125 50.25 52 
Q 50.25 47.703125 48.484375 43.546875 
Q 46.734375 39.40625 42.65625 34.8125 
Q 38.578125 30.21875 29.109375 22.21875 
Q 21.1875 15.578125 18.9375 13.203125 
Q 16.703125 10.84375 15.234375 8.453125 
z
" id="ArialMT-50"/>
      </defs>
      <g style="fill:#262626;" transform="translate(28.8 245.492449)scale(0.16 -0.16)">
       <use xlink:href="#ArialMT-50"/>
       <use x="55.615234" xlink:href="#ArialMT-48"/>
       <use x="111.230469" xlink:href="#ArialMT-48"/>
       <use x="166.845703" xlink:href="#ArialMT-48"/>
      </g>
     </g>
    </g>
    <g id="ytick_4">
     <g id="text_10">
      <!-- 3000 -->
      <defs>
       <path d="M 4.203125 18.890625 
L 12.984375 20.0625 
Q 14.5 12.59375 18.140625 9.296875 
Q 21.78125 6 27 6 
Q 33.203125 6 37.46875 10.296875 
Q 41.75 14.59375 41.75 20.953125 
Q 41.75 27 37.796875 30.921875 
Q 33.84375 34.859375 27.734375 34.859375 
Q 25.25 34.859375 21.53125 33.890625 
L 22.515625 41.609375 
Q 23.390625 41.5 23.921875 41.5 
Q 29.546875 41.5 34.03125 44.421875 
Q 38.53125 47.359375 38.53125 53.46875 
Q 38.53125 58.296875 35.25 61.46875 
Q 31.984375 64.65625 26.8125 64.65625 
Q 21.6875 64.65625 18.265625 61.421875 
Q 14.84375 58.203125 13.875 51.765625 
L 5.078125 53.328125 
Q 6.6875 62.15625 12.390625 67.015625 
Q 18.109375 71.875 26.609375 71.875 
Q 32.46875 71.875 37.390625 69.359375 
Q 42.328125 66.84375 44.9375 62.5 
Q 47.5625 58.15625 47.5625 53.265625 
Q 47.5625 48.640625 45.0625 44.828125 
Q 42.578125 41.015625 37.703125 38.765625 
Q 44.046875 37.3125 47.5625 32.6875 
Q 51.078125 28.078125 51.078125 21.140625 
Q 51.078125 11.765625 44.234375 5.25 
Q 37.40625 -1.265625 26.953125 -1.265625 
Q 17.53125 -1.265625 11.296875 4.34375 
Q 5.078125 9.96875 4.203125 18.890625 
z
" id="ArialMT-51"/>
      </defs>
      <g style="fill:#262626;" transform="translate(28.8 164.810629)scale(0.16 -0.16)">
       <use xlink:href="#ArialMT-51"/>
       <use x="55.615234" xlink:href="#ArialMT-48"/>
       <use x="111.230469" xlink:href="#ArialMT-48"/>
       <use x="166.845703" xlink:href="#ArialMT-48"/>
      </g>
     </g>
    </g>
    <g id="ytick_5">
     <g id="text_11">
      <!-- 4000 -->
      <g style="fill:#262626;" transform="translate(28.8 84.128809)scale(0.16 -0.16)">
       <use xlink:href="#ArialMT-52"/>
       <use x="55.615234" xlink:href="#ArialMT-48"/>
       <use x="111.230469" xlink:href="#ArialMT-48"/>
       <use x="166.845703" xlink:href="#ArialMT-48"/>
      </g>
     </g>
    </g>
    <g id="text_12">
     <!-- Count [$h^{-1}$] -->
     <defs>
      <path d="M 6.78125 -19.875 
L 6.78125 71.578125 
L 26.171875 71.578125 
L 26.171875 64.3125 
L 15.578125 64.3125 
L 15.578125 -12.59375 
L 26.171875 -12.59375 
L 26.171875 -19.875 
z
" id="ArialMT-91"/>
      <path d="M 55.71875 33.015625 
L 49.3125 0 
L 40.28125 0 
L 46.6875 32.671875 
Q 47.125 34.96875 47.359375 36.71875 
Q 47.609375 38.484375 47.609375 39.5 
Q 47.609375 43.609375 45.015625 45.890625 
Q 42.4375 48.1875 37.796875 48.1875 
Q 30.5625 48.1875 25.265625 43.296875 
Q 19.96875 38.421875 18.40625 30.328125 
L 12.5 0 
L 3.515625 0 
L 18.3125 75.984375 
L 27.296875 75.984375 
L 21.484375 46.09375 
Q 24.90625 50.6875 30.21875 53.34375 
Q 35.546875 56 41.40625 56 
Q 48.640625 56 52.609375 52.09375 
Q 56.59375 48.1875 56.59375 41.109375 
Q 56.59375 39.359375 56.375 37.359375 
Q 56.15625 35.359375 55.71875 33.015625 
z
" id="DejaVuSans-Oblique-104"/>
      <path d="M 10.59375 35.5 
L 73.1875 35.5 
L 73.1875 27.203125 
L 10.59375 27.203125 
z
" id="DejaVuSans-8722"/>
      <path d="M 12.40625 8.296875 
L 28.515625 8.296875 
L 28.515625 63.921875 
L 10.984375 60.40625 
L 10.984375 69.390625 
L 28.421875 72.90625 
L 38.28125 72.90625 
L 38.28125 8.296875 
L 54.390625 8.296875 
L 54.390625 0 
L 12.40625 0 
z
" id="DejaVuSans-49"/>
      <path d="M 21.296875 -19.875 
L 1.90625 -19.875 
L 1.90625 -12.59375 
L 12.5 -12.59375 
L 12.5 64.3125 
L 1.90625 64.3125 
L 1.90625 71.578125 
L 21.296875 71.578125 
z
" id="ArialMT-93"/>
     </defs>
     <g style="fill:#262626;" transform="translate(21.6 276.687)rotate(-90)scale(0.16 -0.16)">
      <use transform="translate(0 0.684375)" xlink:href="#ArialMT-67"/>
      <use transform="translate(72.216797 0.684375)" xlink:href="#ArialMT-111"/>
      <use transform="translate(127.832031 0.684375)" xlink:href="#ArialMT-117"/>
      <use transform="translate(183.447266 0.684375)" xlink:href="#ArialMT-110"/>
      <use transform="translate(239.0625 0.684375)" xlink:href="#ArialMT-116"/>
      <use transform="translate(266.845703 0.684375)" xlink:href="#ArialMT-32"/>
      <use transform="translate(294.628906 0.684375)" xlink:href="#ArialMT-91"/>
      <use transform="translate(322.412109 0.684375)" xlink:href="#DejaVuSans-Oblique-104"/>
      <use transform="translate(393.238724 38.965625)scale(0.7)" xlink:href="#DejaVuSans-8722"/>
      <use transform="translate(451.891068 38.965625)scale(0.7)" xlink:href="#DejaVuSans-49"/>
      <use transform="translate(499.161576 0.684375)" xlink:href="#ArialMT-93"/>
     </g>
    </g>
   </g>
   <g id="PolyCollection_1">
    <defs>
     <path d="M 199.689995 -69.519146 
L 197.146222 -69.519146 
L 196.484067 -73.477103 
L 195.582045 -77.43506 
L 194.406802 -81.393017 
L 192.944453 -85.350975 
L 191.210171 -89.308932 
L 189.25525 -93.266889 
L 187.169142 -97.224846 
L 185.074524 -101.182803 
L 183.114911 -105.140761 
L 181.436138 -109.098718 
L 180.16492 -113.056675 
L 179.388817 -117.014632 
L 179.142027 -120.972589 
L 179.400251 -124.930547 
L 180.085761 -128.888504 
L 181.081448 -132.846461 
L 182.250579 -136.804418 
L 183.45798 -140.762376 
L 184.588482 -144.720333 
L 185.559549 -148.67829 
L 186.326716 -152.636247 
L 186.882109 -156.594204 
L 187.247666 -160.552162 
L 187.465312 -164.510119 
L 187.586406 -168.468076 
L 187.662312 -172.426033 
L 187.737279 -176.38399 
L 187.844089 -180.341948 
L 188.002309 -184.299905 
L 188.218632 -188.257862 
L 188.488601 -192.215819 
L 188.799051 -196.173776 
L 189.130766 -200.131734 
L 189.461017 -204.089691 
L 189.765887 -208.047648 
L 190.022342 -212.005605 
L 190.210078 -215.963563 
L 190.313132 -219.92152 
L 190.321174 -223.879477 
L 190.230374 -227.837434 
L 190.04373 -231.795391 
L 189.7708 -235.753349 
L 189.426868 -239.711306 
L 189.031655 -243.669263 
L 188.607737 -247.62722 
L 188.178864 -251.585177 
L 187.768345 -255.543135 
L 187.397657 -259.501092 
L 187.085368 -263.459049 
L 186.846447 -267.417006 
L 186.691971 -271.374963 
L 186.629203 -275.332921 
L 186.661945 -279.290878 
L 186.791048 -283.248835 
L 187.014943 -287.206792 
L 187.33006 -291.16475 
L 187.731054 -295.122707 
L 188.210816 -299.080664 
L 188.760327 -303.038621 
L 189.368447 -306.996578 
L 190.021806 -310.954536 
L 190.704937 -314.912493 
L 191.400763 -318.87045 
L 192.091478 -322.828407 
L 192.759755 -326.786364 
L 193.39012 -330.744322 
L 193.970265 -334.702279 
L 194.492061 -338.660236 
L 194.952068 -342.618193 
L 195.35145 -346.57615 
L 195.695287 -350.534108 
L 195.991429 -354.492065 
L 196.249077 -358.450022 
L 196.477348 -362.407979 
L 196.68404 -366.365937 
L 196.874794 -370.323894 
L 197.052746 -374.281851 
L 197.218684 -378.239808 
L 197.371625 -382.197765 
L 197.509657 -386.155723 
L 197.630855 -390.11368 
L 197.734076 -394.071637 
L 197.819472 -398.029594 
L 197.888641 -401.987551 
L 197.944421 -405.945509 
L 197.990405 -409.903466 
L 198.030316 -413.861423 
L 198.067407 -417.81938 
L 198.104004 -421.777337 
L 198.141292 -425.735295 
L 198.179355 -429.693252 
L 198.217419 -433.651209 
L 198.254218 -437.609166 
L 198.288375 -441.567124 
L 198.318727 -445.525081 
L 198.34452 -449.483038 
L 198.365482 -453.440995 
L 198.381781 -457.398952 
L 198.393915 -461.35691 
L 198.442302 -461.35691 
L 198.442302 -461.35691 
L 198.454436 -457.398952 
L 198.470735 -453.440995 
L 198.491697 -449.483038 
L 198.51749 -445.525081 
L 198.547842 -441.567124 
L 198.581999 -437.609166 
L 198.618798 -433.651209 
L 198.656862 -429.693252 
L 198.694925 -425.735295 
L 198.732213 -421.777337 
L 198.76881 -417.81938 
L 198.805901 -413.861423 
L 198.845812 -409.903466 
L 198.891796 -405.945509 
L 198.947576 -401.987551 
L 199.016745 -398.029594 
L 199.102141 -394.071637 
L 199.205362 -390.11368 
L 199.32656 -386.155723 
L 199.464592 -382.197765 
L 199.617533 -378.239808 
L 199.783471 -374.281851 
L 199.961424 -370.323894 
L 200.152177 -366.365937 
L 200.358869 -362.407979 
L 200.58714 -358.450022 
L 200.844788 -354.492065 
L 201.14093 -350.534108 
L 201.484767 -346.57615 
L 201.884149 -342.618193 
L 202.344156 -338.660236 
L 202.865952 -334.702279 
L 203.446097 -330.744322 
L 204.076462 -326.786364 
L 204.744739 -322.828407 
L 205.435454 -318.87045 
L 206.13128 -314.912493 
L 206.814411 -310.954536 
L 207.46777 -306.996578 
L 208.07589 -303.038621 
L 208.625401 -299.080664 
L 209.105163 -295.122707 
L 209.506157 -291.16475 
L 209.821274 -287.206792 
L 210.045169 -283.248835 
L 210.174273 -279.290878 
L 210.207014 -275.332921 
L 210.144246 -271.374963 
L 209.98977 -267.417006 
L 209.750849 -263.459049 
L 209.43856 -259.501092 
L 209.067872 -255.543135 
L 208.657354 -251.585177 
L 208.22848 -247.62722 
L 207.804562 -243.669263 
L 207.409349 -239.711306 
L 207.065417 -235.753349 
L 206.792487 -231.795391 
L 206.605843 -227.837434 
L 206.515043 -223.879477 
L 206.523085 -219.92152 
L 206.626139 -215.963563 
L 206.813875 -212.005605 
L 207.07033 -208.047648 
L 207.3752 -204.089691 
L 207.705451 -200.131734 
L 208.037166 -196.173776 
L 208.347616 -192.215819 
L 208.617585 -188.257862 
L 208.833908 -184.299905 
L 208.992128 -180.341948 
L 209.098938 -176.38399 
L 209.173905 -172.426033 
L 209.249811 -168.468076 
L 209.370905 -164.510119 
L 209.588551 -160.552162 
L 209.954108 -156.594204 
L 210.509501 -152.636247 
L 211.276668 -148.67829 
L 212.247735 -144.720333 
L 213.378237 -140.762376 
L 214.585638 -136.804418 
L 215.754769 -132.846461 
L 216.750456 -128.888504 
L 217.435966 -124.930547 
L 217.69419 -120.972589 
L 217.4474 -117.014632 
L 216.671297 -113.056675 
L 215.400079 -109.098718 
L 213.721307 -105.140761 
L 211.761693 -101.182803 
L 209.667075 -97.224846 
L 207.580967 -93.266889 
L 205.626047 -89.308932 
L 203.891764 -85.350975 
L 202.429415 -81.393017 
L 201.254172 -77.43506 
L 200.35215 -73.477103 
L 199.689995 -69.519146 
z
" id="mefa7c8c016" style="stroke:#373737;stroke-width:1.5;"/>
    </defs>
    <g clip-path="url(#p1990db4887)">
     <use style="fill:#2b8e70;stroke:#373737;stroke-width:1.5;" x="0" xlink:href="#mefa7c8c016" y="509.319"/>
    </g>
   </g>
   <g id="PolyCollection_2">
    <defs>
     <path d="M 238.913138 -69.508706 
L 236.094223 -69.508706 
L 235.366809 -73.486434 
L 234.381388 -77.464161 
L 233.106036 -81.441888 
L 231.531743 -85.419616 
L 229.682476 -89.397343 
L 227.621945 -93.37507 
L 225.454367 -97.352798 
L 223.317338 -101.330525 
L 221.366637 -105.308252 
L 219.754896 -109.28598 
L 218.608018 -113.263707 
L 218.004285 -117.241434 
L 217.960894 -121.219162 
L 218.43106 -125.196889 
L 219.312399 -129.174616 
L 220.464655 -133.152344 
L 221.732803 -137.130071 
L 222.970709 -141.107798 
L 224.060865 -145.085526 
L 224.927105 -149.063253 
L 225.539044 -153.04098 
L 225.908755 -157.018708 
L 226.081505 -160.996435 
L 226.123065 -164.974162 
L 226.106178 -168.95189 
L 226.098392 -172.929617 
L 226.152833 -176.907344 
L 226.302714 -180.885072 
L 226.559686 -184.862799 
L 226.915465 -188.840526 
L 227.345806 -192.818254 
L 227.815705 -196.795981 
L 228.284832 -200.773708 
L 228.712478 -204.751436 
L 229.061694 -208.729163 
L 229.302578 -212.70689 
L 229.41479 -216.684618 
L 229.38933 -220.662345 
L 229.229425 -224.640072 
L 228.95025 -228.6178 
L 228.577219 -232.595527 
L 228.142821 -236.573254 
L 227.682366 -240.550982 
L 227.229402 -244.528709 
L 226.811774 -248.506436 
L 226.449216 -252.484164 
L 226.152991 -256.461891 
L 225.927488 -260.439618 
L 225.773119 -264.417346 
L 225.6895 -268.395073 
L 225.677876 -272.372801 
L 225.742059 -276.350528 
L 225.887732 -280.328255 
L 226.12049 -284.305983 
L 226.443412 -288.28371 
L 226.855037 -292.261437 
L 227.348425 -296.239165 
L 227.911562 -300.216892 
L 228.528915 -304.194619 
L 229.183613 -308.172347 
L 229.859562 -312.150074 
L 230.542927 -316.127801 
L 231.222663 -320.105529 
L 231.890143 -324.083256 
L 232.538188 -328.060983 
L 233.15999 -332.038711 
L 233.748374 -336.016438 
L 234.295677 -339.994165 
L 234.794263 -343.971893 
L 235.237508 -347.94962 
L 235.620886 -351.927347 
L 235.942843 -355.905075 
L 236.205178 -359.882802 
L 236.412867 -363.860529 
L 236.573365 -367.838257 
L 236.695585 -371.815984 
L 236.78877 -375.793711 
L 236.86149 -379.771439 
L 236.9209 -383.749166 
L 236.972355 -387.726893 
L 237.019375 -391.704621 
L 237.063886 -395.682348 
L 237.106631 -399.660075 
L 237.147639 -403.637803 
L 237.18664 -407.61553 
L 237.22336 -411.593257 
L 237.257669 -415.570985 
L 237.289599 -419.548712 
L 237.319282 -423.526439 
L 237.346853 -427.504167 
L 237.372366 -431.481894 
L 237.395768 -435.459621 
L 237.416909 -439.437349 
L 237.435605 -443.415076 
L 237.4517 -447.392803 
L 237.465134 -451.370531 
L 237.475969 -455.348258 
L 237.484395 -459.325985 
L 237.490704 -463.303713 
L 237.516657 -463.303713 
L 237.516657 -463.303713 
L 237.522965 -459.325985 
L 237.531392 -455.348258 
L 237.542227 -451.370531 
L 237.555661 -447.392803 
L 237.571756 -443.415076 
L 237.590452 -439.437349 
L 237.611593 -435.459621 
L 237.634994 -431.481894 
L 237.660508 -427.504167 
L 237.688079 -423.526439 
L 237.717762 -419.548712 
L 237.749692 -415.570985 
L 237.784 -411.593257 
L 237.82072 -407.61553 
L 237.859722 -403.637803 
L 237.90073 -399.660075 
L 237.943475 -395.682348 
L 237.987985 -391.704621 
L 238.035006 -387.726893 
L 238.086461 -383.749166 
L 238.14587 -379.771439 
L 238.21859 -375.793711 
L 238.311776 -371.815984 
L 238.433996 -367.838257 
L 238.594494 -363.860529 
L 238.802183 -359.882802 
L 239.064518 -355.905075 
L 239.386474 -351.927347 
L 239.769853 -347.94962 
L 240.213098 -343.971893 
L 240.711684 -339.994165 
L 241.258986 -336.016438 
L 241.847371 -332.038711 
L 242.469173 -328.060983 
L 243.117218 -324.083256 
L 243.784698 -320.105529 
L 244.464434 -316.127801 
L 245.147798 -312.150074 
L 245.823747 -308.172347 
L 246.478445 -304.194619 
L 247.095799 -300.216892 
L 247.658935 -296.239165 
L 248.152324 -292.261437 
L 248.563949 -288.28371 
L 248.88687 -284.305983 
L 249.119629 -280.328255 
L 249.265302 -276.350528 
L 249.329485 -272.372801 
L 249.31786 -268.395073 
L 249.234242 -264.417346 
L 249.079873 -260.439618 
L 248.854369 -256.461891 
L 248.558145 -252.484164 
L 248.195587 -248.506436 
L 247.777959 -244.528709 
L 247.324995 -240.550982 
L 246.86454 -236.573254 
L 246.430141 -232.595527 
L 246.057111 -228.6178 
L 245.777936 -224.640072 
L 245.618031 -220.662345 
L 245.59257 -216.684618 
L 245.704783 -212.70689 
L 245.945667 -208.729163 
L 246.294883 -204.751436 
L 246.722528 -200.773708 
L 247.191655 -196.795981 
L 247.661555 -192.818254 
L 248.091896 -188.840526 
L 248.447675 -184.862799 
L 248.704646 -180.885072 
L 248.854528 -176.907344 
L 248.908968 -172.929617 
L 248.901183 -168.95189 
L 248.884296 -164.974162 
L 248.925856 -160.996435 
L 249.098606 -157.018708 
L 249.468317 -153.04098 
L 250.080256 -149.063253 
L 250.946496 -145.085526 
L 252.036651 -141.107798 
L 253.274558 -137.130071 
L 254.542706 -133.152344 
L 255.694962 -129.174616 
L 256.576301 -125.196889 
L 257.046466 -121.219162 
L 257.003075 -117.241434 
L 256.399343 -113.263707 
L 255.252465 -109.28598 
L 253.640723 -105.308252 
L 251.690022 -101.330525 
L 249.552994 -97.352798 
L 247.385416 -93.37507 
L 245.324885 -89.397343 
L 243.475617 -85.419616 
L 241.901325 -81.441888 
L 240.625972 -77.464161 
L 239.640552 -73.486434 
L 238.913138 -69.508706 
z
" id="m5858203265" style="stroke:#373737;stroke-width:1.5;"/>
    </defs>
    <g clip-path="url(#p1990db4887)">
     <use style="fill:#be631d;stroke:#373737;stroke-width:1.5;" x="0" xlink:href="#m5858203265" y="509.319"/>
    </g>
   </g>
   <g id="PolyCollection_3">
    <defs>
     <path d="M 297.13311 -69.10951 
L 295.130966 -69.10951 
L 294.578911 -73.274595 
L 293.81008 -77.43968 
L 292.786076 -81.604765 
L 291.483242 -85.76985 
L 289.902277 -89.934935 
L 288.076331 -94.100019 
L 286.075069 -98.265104 
L 284.002537 -102.430189 
L 281.987848 -106.595274 
L 280.169403 -110.760359 
L 278.675256 -114.925444 
L 277.603603 -119.090528 
L 277.007712 -123.255613 
L 276.888751 -127.420698 
L 277.198081 -131.585783 
L 277.848266 -135.750868 
L 278.729972 -139.915953 
L 279.730769 -144.081037 
L 280.751793 -148.246122 
L 281.719255 -152.411207 
L 282.589357 -156.576292 
L 283.346897 -160.741377 
L 283.999132 -164.906462 
L 284.567158 -169.071546 
L 285.077049 -173.236631 
L 285.552495 -177.401716 
L 286.009917 -181.566801 
L 286.456248 -185.731886 
L 286.889 -189.896971 
L 287.297896 -194.062055 
L 287.667338 -198.22714 
L 287.979126 -202.392225 
L 288.21508 -206.55731 
L 288.359426 -210.722395 
L 288.400898 -214.88748 
L 288.334506 -219.052564 
L 288.162829 -223.217649 
L 287.896632 -227.382734 
L 287.55458 -231.547819 
L 287.161957 -235.712904 
L 286.748425 -239.877989 
L 286.345133 -244.043073 
L 285.981593 -248.208158 
L 285.682864 -252.373243 
L 285.467497 -256.538328 
L 285.346543 -260.703413 
L 285.323681 -264.868498 
L 285.396311 -269.033583 
L 285.557221 -273.198667 
L 285.796444 -277.363752 
L 286.102868 -281.528837 
L 286.465368 -285.693922 
L 286.873355 -289.859007 
L 287.316859 -294.024092 
L 287.786355 -298.189176 
L 288.272595 -302.354261 
L 288.76663 -306.519346 
L 289.260091 -310.684431 
L 289.745646 -314.849516 
L 290.217438 -319.014601 
L 290.671319 -323.179685 
L 291.104729 -327.34477 
L 291.51622 -331.509855 
L 291.904769 -335.67494 
L 292.269109 -339.840025 
L 292.607318 -344.00511 
L 292.916844 -348.170194 
L 293.194974 -352.335279 
L 293.439627 -356.500364 
L 293.65021 -360.665449 
L 293.828262 -364.830534 
L 293.977648 -368.995619 
L 294.104206 -373.160703 
L 294.214915 -377.325788 
L 294.31679 -381.490873 
L 294.415794 -385.655958 
L 294.516046 -389.821043 
L 294.6195 -393.986128 
L 294.726153 -398.151212 
L 294.834637 -402.316297 
L 294.943018 -406.481382 
L 295.049513 -410.646467 
L 295.15296 -414.811552 
L 295.252933 -418.976637 
L 295.349553 -423.141721 
L 295.443109 -427.306806 
L 295.533672 -431.471891 
L 295.620836 -435.636976 
L 295.703668 -439.802061 
L 295.780863 -443.967146 
L 295.851009 -448.13223 
L 295.9129 -452.297315 
L 295.965772 -456.4624 
L 296.009428 -460.627485 
L 296.044232 -464.79257 
L 296.071014 -468.957655 
L 296.090902 -473.122739 
L 296.105155 -477.287824 
L 296.115013 -481.452909 
L 296.149063 -481.452909 
L 296.149063 -481.452909 
L 296.158921 -477.287824 
L 296.173174 -473.122739 
L 296.193062 -468.957655 
L 296.219844 -464.79257 
L 296.254649 -460.627485 
L 296.298304 -456.4624 
L 296.351176 -452.297315 
L 296.413067 -448.13223 
L 296.483214 -443.967146 
L 296.560408 -439.802061 
L 296.643241 -435.636976 
L 296.730404 -431.471891 
L 296.820967 -427.306806 
L 296.914523 -423.141721 
L 297.011144 -418.976637 
L 297.111117 -414.811552 
L 297.214563 -410.646467 
L 297.321058 -406.481382 
L 297.429439 -402.316297 
L 297.537924 -398.151212 
L 297.644576 -393.986128 
L 297.748031 -389.821043 
L 297.848282 -385.655958 
L 297.947287 -381.490873 
L 298.049162 -377.325788 
L 298.15987 -373.160703 
L 298.286428 -368.995619 
L 298.435814 -364.830534 
L 298.613867 -360.665449 
L 298.82445 -356.500364 
L 299.069102 -352.335279 
L 299.347233 -348.170194 
L 299.656759 -344.00511 
L 299.994968 -339.840025 
L 300.359307 -335.67494 
L 300.747857 -331.509855 
L 301.159347 -327.34477 
L 301.592757 -323.179685 
L 302.046638 -319.014601 
L 302.51843 -314.849516 
L 303.003985 -310.684431 
L 303.497447 -306.519346 
L 303.991482 -302.354261 
L 304.477722 -298.189176 
L 304.947218 -294.024092 
L 305.390722 -289.859007 
L 305.798709 -285.693922 
L 306.161208 -281.528837 
L 306.467633 -277.363752 
L 306.706855 -273.198667 
L 306.867765 -269.033583 
L 306.940395 -264.868498 
L 306.917534 -260.703413 
L 306.796579 -256.538328 
L 306.581212 -252.373243 
L 306.282483 -248.208158 
L 305.918944 -244.043073 
L 305.515652 -239.877989 
L 305.10212 -235.712904 
L 304.709496 -231.547819 
L 304.367444 -227.382734 
L 304.101247 -223.217649 
L 303.929571 -219.052564 
L 303.863178 -214.88748 
L 303.904651 -210.722395 
L 304.048997 -206.55731 
L 304.284951 -202.392225 
L 304.596739 -198.22714 
L 304.966181 -194.062055 
L 305.375077 -189.896971 
L 305.807829 -185.731886 
L 306.25416 -181.566801 
L 306.711581 -177.401716 
L 307.187027 -173.236631 
L 307.696918 -169.071546 
L 308.264944 -164.906462 
L 308.917179 -160.741377 
L 309.674719 -156.576292 
L 310.544822 -152.411207 
L 311.512284 -148.246122 
L 312.533308 -144.081037 
L 313.534104 -139.915953 
L 314.415811 -135.750868 
L 315.065996 -131.585783 
L 315.375325 -127.420698 
L 315.256364 -123.255613 
L 314.660474 -119.090528 
L 313.588821 -114.925444 
L 312.094673 -110.760359 
L 310.276228 -106.595274 
L 308.26154 -102.430189 
L 306.189008 -98.265104 
L 304.187745 -94.100019 
L 302.3618 -89.934935 
L 300.780835 -85.76985 
L 299.478 -81.604765 
L 298.453996 -77.43968 
L 297.685165 -73.274595 
L 297.13311 -69.10951 
z
" id="m4ed03b554a" style="stroke:#373737;stroke-width:1.5;"/>
    </defs>
    <g clip-path="url(#p1990db4887)">
     <use style="fill:#2b8e70;stroke:#373737;stroke-width:1.5;" x="0" xlink:href="#m4ed03b554a" y="509.319"/>
    </g>
   </g>
   <g id="PolyCollection_4">
    <defs>
     <path d="M 336.32035 -68.131091 
L 334.11487 -68.131091 
L 333.540454 -72.160283 
L 332.753386 -76.189475 
L 331.719105 -80.218667 
L 330.417124 -84.247859 
L 328.849454 -88.277051 
L 327.047668 -92.306243 
L 325.076498 -96.335435 
L 323.032153 -100.364627 
L 321.034423 -104.393819 
L 319.213044 -108.423011 
L 317.690298 -112.452203 
L 316.563117 -116.481395 
L 315.888398 -120.510587 
L 315.674824 -124.539779 
L 315.883049 -128.568971 
L 316.434243 -132.598163 
L 317.225029 -136.627355 
L 318.145465 -140.656547 
L 319.096248 -144.685739 
L 320.001789 -148.714931 
L 320.817042 -152.744123 
L 321.527616 -156.773315 
L 322.144209 -160.802507 
L 322.693446 -164.831699 
L 323.207673 -168.860891 
L 323.715915 -172.890083 
L 324.237578 -176.919275 
L 324.779428 -180.948467 
L 325.335606 -184.977659 
L 325.889782 -189.006852 
L 326.418421 -193.036044 
L 326.894237 -197.065236 
L 327.289305 -201.094428 
L 327.5777 -205.12362 
L 327.737797 -209.152812 
L 327.754454 -213.182004 
L 327.62115 -217.211196 
L 327.341925 -221.240388 
L 326.932718 -225.26958 
L 326.421602 -229.298772 
L 325.847508 -233.327964 
L 325.257276 -237.357156 
L 324.701255 -241.386348 
L 324.228034 -245.41554 
L 323.879104 -249.444732 
L 323.684323 -253.473924 
L 323.658896 -257.503116 
L 323.802309 -261.532308 
L 324.099304 -265.5615 
L 324.522645 -269.590692 
L 325.037189 -273.619884 
L 325.604626 -277.649076 
L 326.188219 -281.678268 
L 326.756896 -285.70746 
L 327.288196 -289.736652 
L 327.769713 -293.765844 
L 328.198903 -297.795036 
L 328.581407 -301.824228 
L 328.928252 -305.85342 
L 329.252533 -309.882612 
L 329.566229 -313.911804 
L 329.877799 -317.940996 
L 330.190951 -321.970188 
L 330.504725 -325.99938 
L 330.81468 -330.028572 
L 331.114741 -334.057764 
L 331.399147 -338.086956 
L 331.663995 -342.116148 
L 331.908046 -346.14534 
L 332.132725 -350.174532 
L 332.341443 -354.203724 
L 332.538539 -358.232916 
L 332.728183 -362.262108 
L 332.913487 -366.2913 
L 333.096016 -370.320492 
L 333.275707 -374.349684 
L 333.451136 -378.378876 
L 333.620021 -382.408068 
L 333.779799 -386.43726 
L 333.928177 -390.466453 
L 334.063559 -394.495645 
L 334.185297 -398.524837 
L 334.293759 -402.554029 
L 334.390214 -406.583221 
L 334.476573 -410.612413 
L 334.555049 -414.641605 
L 334.627784 -418.670797 
L 334.696525 -422.699989 
L 334.762389 -426.729181 
L 334.825778 -430.758373 
L 334.886426 -434.787565 
L 334.943573 -438.816757 
L 334.996213 -442.845949 
L 335.043353 -446.875141 
L 335.08424 -450.904333 
L 335.118503 -454.933525 
L 335.146194 -458.962717 
L 335.167758 -462.991909 
L 335.183928 -467.021101 
L 335.251292 -467.021101 
L 335.251292 -467.021101 
L 335.267462 -462.991909 
L 335.289026 -458.962717 
L 335.316717 -454.933525 
L 335.35098 -450.904333 
L 335.391867 -446.875141 
L 335.439007 -442.845949 
L 335.491647 -438.816757 
L 335.548794 -434.787565 
L 335.609442 -430.758373 
L 335.672831 -426.729181 
L 335.738695 -422.699989 
L 335.807436 -418.670797 
L 335.880171 -414.641605 
L 335.958647 -410.612413 
L 336.045006 -406.583221 
L 336.141461 -402.554029 
L 336.249923 -398.524837 
L 336.371661 -394.495645 
L 336.507043 -390.466453 
L 336.655421 -386.43726 
L 336.815199 -382.408068 
L 336.984084 -378.378876 
L 337.159513 -374.349684 
L 337.339204 -370.320492 
L 337.521733 -366.2913 
L 337.707037 -362.262108 
L 337.896681 -358.232916 
L 338.093777 -354.203724 
L 338.302495 -350.174532 
L 338.527174 -346.14534 
L 338.771225 -342.116148 
L 339.036073 -338.086956 
L 339.320479 -334.057764 
L 339.62054 -330.028572 
L 339.930495 -325.99938 
L 340.244269 -321.970188 
L 340.557421 -317.940996 
L 340.868991 -313.911804 
L 341.182688 -309.882612 
L 341.506968 -305.85342 
L 341.853813 -301.824228 
L 342.236317 -297.795036 
L 342.665507 -293.765844 
L 343.147024 -289.736652 
L 343.678324 -285.70746 
L 344.247001 -281.678268 
L 344.830594 -277.649076 
L 345.398031 -273.619884 
L 345.912575 -269.590692 
L 346.335916 -265.5615 
L 346.632911 -261.532308 
L 346.776324 -257.503116 
L 346.750897 -253.473924 
L 346.556116 -249.444732 
L 346.207187 -245.41554 
L 345.733965 -241.386348 
L 345.177944 -237.357156 
L 344.587712 -233.327964 
L 344.013618 -229.298772 
L 343.502502 -225.26958 
L 343.093295 -221.240388 
L 342.81407 -217.211196 
L 342.680766 -213.182004 
L 342.697423 -209.152812 
L 342.85752 -205.12362 
L 343.145915 -201.094428 
L 343.540983 -197.065236 
L 344.016799 -193.036044 
L 344.545438 -189.006852 
L 345.099614 -184.977659 
L 345.655792 -180.948467 
L 346.197642 -176.919275 
L 346.719305 -172.890083 
L 347.227547 -168.860891 
L 347.741774 -164.831699 
L 348.291011 -160.802507 
L 348.907604 -156.773315 
L 349.618178 -152.744123 
L 350.433431 -148.714931 
L 351.338972 -144.685739 
L 352.289755 -140.656547 
L 353.210191 -136.627355 
L 354.000977 -132.598163 
L 354.552171 -128.568971 
L 354.760396 -124.539779 
L 354.546822 -120.510587 
L 353.872103 -116.481395 
L 352.744922 -112.452203 
L 351.222176 -108.423011 
L 349.400797 -104.393819 
L 347.403068 -100.364627 
L 345.358722 -96.335435 
L 343.387552 -92.306243 
L 341.585766 -88.277051 
L 340.018096 -84.247859 
L 338.716115 -80.218667 
L 337.681834 -76.189475 
L 336.894766 -72.160283 
L 336.32035 -68.131091 
z
" id="mb84c25f4a8" style="stroke:#373737;stroke-width:1.5;"/>
    </defs>
    <g clip-path="url(#p1990db4887)">
     <use style="fill:#be631d;stroke:#373737;stroke-width:1.5;" x="0" xlink:href="#mb84c25f4a8" y="509.319"/>
    </g>
   </g>
   <g id="PolyCollection_5">
    <defs>
     <path d="M 394.961892 -69.938595 
L 392.730044 -69.938595 
L 392.168554 -73.831846 
L 391.406843 -77.725096 
L 390.414265 -81.618347 
L 389.173193 -85.511598 
L 387.686347 -89.404848 
L 385.982893 -93.298099 
L 384.121607 -97.19135 
L 382.189609 -101.084601 
L 380.29589 -104.977851 
L 378.559963 -108.871102 
L 377.097158 -112.764353 
L 376.003089 -116.657603 
L 375.340251 -120.550854 
L 375.129432 -124.444105 
L 375.347655 -128.337356 
L 375.932989 -132.230606 
L 376.795082 -136.123857 
L 377.82917 -140.017108 
L 378.930753 -143.910358 
L 380.008304 -147.803609 
L 380.992072 -151.69686 
L 381.838079 -155.59011 
L 382.527513 -159.483361 
L 383.062553 -163.376612 
L 383.460148 -167.269863 
L 383.745342 -171.163113 
L 383.945422 -175.056364 
L 384.085663 -178.949615 
L 384.186878 -182.842865 
L 384.264524 -186.736116 
L 384.328859 -190.629367 
L 384.385584 -194.522618 
L 384.43658 -198.415868 
L 384.480545 -202.309119 
L 384.513571 -206.20237 
L 384.529824 -210.09562 
L 384.522469 -213.988871 
L 384.484896 -217.882122 
L 384.41211 -221.775372 
L 384.302047 -225.668623 
L 384.156506 -229.561874 
L 383.981428 -233.455125 
L 383.786444 -237.348375 
L 383.583763 -241.241626 
L 383.386664 -245.134877 
L 383.207957 -249.028127 
L 383.058751 -252.921378 
L 382.947786 -256.814629 
L 382.881376 -260.70788 
L 382.863837 -264.60113 
L 382.898145 -268.494381 
L 382.986488 -272.387632 
L 383.130478 -276.280882 
L 383.33089 -280.174133 
L 383.58703 -284.067384 
L 383.89596 -287.960634 
L 384.251902 -291.853885 
L 384.646133 -295.747136 
L 385.067509 -299.640387 
L 385.503603 -303.533637 
L 385.942223 -307.426888 
L 386.372967 -311.320139 
L 386.788443 -315.213389 
L 387.184881 -319.10664 
L 387.562033 -322.999891 
L 387.922416 -326.893141 
L 388.27014 -330.786392 
L 388.609601 -334.679643 
L 388.94433 -338.572894 
L 389.276217 -342.466144 
L 389.605202 -346.359395 
L 389.929425 -350.252646 
L 390.24573 -354.145896 
L 390.550363 -358.039147 
L 390.839692 -361.932398 
L 391.110816 -365.825649 
L 391.361949 -369.718899 
L 391.59256 -373.61215 
L 391.803286 -377.505401 
L 391.995679 -381.398651 
L 392.171867 -385.291902 
L 392.334216 -389.185153 
L 392.485031 -393.078403 
L 392.62634 -396.971654 
L 392.759741 -400.864905 
L 392.886328 -404.758156 
L 393.00666 -408.651406 
L 393.120782 -412.544657 
L 393.228289 -416.437908 
L 393.328438 -420.331158 
L 393.420306 -424.224409 
L 393.50297 -428.11766 
L 393.575687 -432.010911 
L 393.638044 -435.904161 
L 393.690048 -439.797412 
L 393.732146 -443.690663 
L 393.765177 -447.583913 
L 393.790265 -451.477164 
L 393.808696 -455.370415 
L 393.88324 -455.370415 
L 393.88324 -455.370415 
L 393.90167 -451.477164 
L 393.926759 -447.583913 
L 393.959789 -443.690663 
L 394.001888 -439.797412 
L 394.053892 -435.904161 
L 394.116249 -432.010911 
L 394.188966 -428.11766 
L 394.27163 -424.224409 
L 394.363498 -420.331158 
L 394.463647 -416.437908 
L 394.571153 -412.544657 
L 394.685275 -408.651406 
L 394.805608 -404.758156 
L 394.932195 -400.864905 
L 395.065596 -396.971654 
L 395.206904 -393.078403 
L 395.35772 -389.185153 
L 395.520069 -385.291902 
L 395.696257 -381.398651 
L 395.888649 -377.505401 
L 396.099375 -373.61215 
L 396.329987 -369.718899 
L 396.581119 -365.825649 
L 396.852243 -361.932398 
L 397.141573 -358.039147 
L 397.446205 -354.145896 
L 397.762511 -350.252646 
L 398.086734 -346.359395 
L 398.415718 -342.466144 
L 398.747605 -338.572894 
L 399.082335 -334.679643 
L 399.421796 -330.786392 
L 399.76952 -326.893141 
L 400.129903 -322.999891 
L 400.507054 -319.10664 
L 400.903493 -315.213389 
L 401.318968 -311.320139 
L 401.749712 -307.426888 
L 402.188333 -303.533637 
L 402.624426 -299.640387 
L 403.045802 -295.747136 
L 403.440033 -291.853885 
L 403.795976 -287.960634 
L 404.104905 -284.067384 
L 404.361046 -280.174133 
L 404.561458 -276.280882 
L 404.705447 -272.387632 
L 404.793791 -268.494381 
L 404.828099 -264.60113 
L 404.81056 -260.70788 
L 404.744149 -256.814629 
L 404.633185 -252.921378 
L 404.483979 -249.028127 
L 404.305271 -245.134877 
L 404.108173 -241.241626 
L 403.905492 -237.348375 
L 403.710508 -233.455125 
L 403.535429 -229.561874 
L 403.389888 -225.668623 
L 403.279826 -221.775372 
L 403.20704 -217.882122 
L 403.169466 -213.988871 
L 403.162112 -210.09562 
L 403.178364 -206.20237 
L 403.21139 -202.309119 
L 403.255355 -198.415868 
L 403.306352 -194.522618 
L 403.363077 -190.629367 
L 403.427411 -186.736116 
L 403.505058 -182.842865 
L 403.606272 -178.949615 
L 403.746514 -175.056364 
L 403.946594 -171.163113 
L 404.231788 -167.269863 
L 404.629382 -163.376612 
L 405.164422 -159.483361 
L 405.853857 -155.59011 
L 406.699864 -151.69686 
L 407.683632 -147.803609 
L 408.761183 -143.910358 
L 409.862765 -140.017108 
L 410.896853 -136.123857 
L 411.758947 -132.230606 
L 412.344281 -128.337356 
L 412.562504 -124.444105 
L 412.351685 -120.550854 
L 411.688847 -116.657603 
L 410.594778 -112.764353 
L 409.131972 -108.871102 
L 407.396045 -104.977851 
L 405.502327 -101.084601 
L 403.570329 -97.19135 
L 401.709043 -93.298099 
L 400.005589 -89.404848 
L 398.518742 -85.511598 
L 397.277671 -81.618347 
L 396.285093 -77.725096 
L 395.523382 -73.831846 
L 394.961892 -69.938595 
z
" id="mff8224e4b3" style="stroke:#373737;stroke-width:1.5;"/>
    </defs>
    <g clip-path="url(#p1990db4887)">
     <use style="fill:#2b8e70;stroke:#373737;stroke-width:1.5;" x="0" xlink:href="#mff8224e4b3" y="509.319"/>
    </g>
   </g>
   <g id="PolyCollection_6">
    <defs>
     <path d="M 434.213662 -69.954979 
L 431.649417 -69.954979 
L 431.014504 -73.785961 
L 430.159201 -77.616943 
L 429.053067 -81.447925 
L 427.681405 -85.278907 
L 426.053112 -89.10989 
L 424.206821 -92.940872 
L 422.213422 -96.771854 
L 420.173441 -100.602836 
L 418.208618 -104.433818 
L 416.448323 -108.2648 
L 415.012779 -112.095783 
L 413.996115 -115.926765 
L 413.452574 -119.757747 
L 413.388754 -123.588729 
L 413.763522 -127.419711 
L 414.495571 -131.250693 
L 415.476981 -135.081676 
L 416.589947 -138.912658 
L 417.723392 -142.74364 
L 418.786509 -146.574622 
L 419.717201 -150.405604 
L 420.484675 -154.236586 
L 421.086657 -158.067568 
L 421.542688 -161.898551 
L 421.885405 -165.729533 
L 422.151776 -169.560515 
L 422.37584 -173.391497 
L 422.583861 -177.222479 
L 422.792125 -181.053461 
L 423.007006 -184.884444 
L 423.226543 -188.715426 
L 423.442695 -192.546408 
L 423.64359 -196.37739 
L 423.815357 -200.208372 
L 423.943522 -204.039354 
L 424.014142 -207.870337 
L 424.014976 -211.701319 
L 423.936875 -215.532301 
L 423.775378 -219.363283 
L 423.532274 -223.194265 
L 423.216716 -227.025247 
L 422.845492 -230.856229 
L 422.442195 -234.687212 
L 422.035271 -238.518194 
L 421.655232 -242.349176 
L 421.331484 -246.180158 
L 421.089312 -250.01114 
L 420.947492 -253.842122 
L 420.916841 -257.673105 
L 420.99978 -261.504087 
L 421.190834 -265.335069 
L 421.477847 -269.166051 
L 421.843664 -272.997033 
L 422.268039 -276.828015 
L 422.729594 -280.658998 
L 423.207703 -284.48998 
L 423.684184 -288.320962 
L 424.144729 -292.151944 
L 424.579946 -295.982926 
L 424.985913 -299.813908 
L 425.364125 -303.644891 
L 425.720783 -307.475873 
L 426.065454 -311.306855 
L 426.409234 -315.137837 
L 426.762681 -318.968819 
L 427.133835 -322.799801 
L 427.526697 -326.630783 
L 427.94043 -330.461766 
L 428.369439 -334.292748 
L 428.804286 -338.12373 
L 429.233237 -341.954712 
L 429.644104 -345.785694 
L 430.026025 -349.616676 
L 430.370853 -353.447659 
L 430.673969 -357.278641 
L 430.934458 -361.109623 
L 431.154719 -364.940605 
L 431.339675 -368.771587 
L 431.495778 -372.602569 
L 431.629998 -376.433552 
L 431.748942 -380.264534 
L 431.858188 -384.095516 
L 431.96189 -387.926498 
L 432.062633 -391.75748 
L 432.161518 -395.588462 
L 432.258415 -399.419444 
L 432.352318 -403.250427 
L 432.441736 -407.081409 
L 432.525057 -410.912391 
L 432.600844 -414.743373 
L 432.668042 -418.574355 
L 432.726078 -422.405337 
L 432.774878 -426.23632 
L 432.81482 -430.067302 
L 432.846629 -433.898284 
L 432.871272 -437.729266 
L 432.889835 -441.560248 
L 432.903426 -445.39123 
L 432.913091 -449.222213 
L 432.949988 -449.222213 
L 432.949988 -449.222213 
L 432.959653 -445.39123 
L 432.973244 -441.560248 
L 432.991807 -437.729266 
L 433.01645 -433.898284 
L 433.04826 -430.067302 
L 433.088201 -426.23632 
L 433.137002 -422.405337 
L 433.195037 -418.574355 
L 433.262235 -414.743373 
L 433.338022 -410.912391 
L 433.421343 -407.081409 
L 433.510761 -403.250427 
L 433.604664 -399.419444 
L 433.701561 -395.588462 
L 433.800446 -391.75748 
L 433.901189 -387.926498 
L 434.004891 -384.095516 
L 434.114138 -380.264534 
L 434.233081 -376.433552 
L 434.367302 -372.602569 
L 434.523404 -368.771587 
L 434.70836 -364.940605 
L 434.928622 -361.109623 
L 435.189111 -357.278641 
L 435.492227 -353.447659 
L 435.837054 -349.616676 
L 436.218975 -345.785694 
L 436.629843 -341.954712 
L 437.058793 -338.12373 
L 437.49364 -334.292748 
L 437.922649 -330.461766 
L 438.336383 -326.630783 
L 438.729245 -322.799801 
L 439.100399 -318.968819 
L 439.453845 -315.137837 
L 439.797625 -311.306855 
L 440.142296 -307.475873 
L 440.498954 -303.644891 
L 440.877166 -299.813908 
L 441.283133 -295.982926 
L 441.71835 -292.151944 
L 442.178895 -288.320962 
L 442.655376 -284.48998 
L 443.133485 -280.658998 
L 443.595041 -276.828015 
L 444.019415 -272.997033 
L 444.385232 -269.166051 
L 444.672245 -265.335069 
L 444.863299 -261.504087 
L 444.946238 -257.673105 
L 444.915587 -253.842122 
L 444.773768 -250.01114 
L 444.531595 -246.180158 
L 444.207847 -242.349176 
L 443.827808 -238.518194 
L 443.420884 -234.687212 
L 443.017587 -230.856229 
L 442.646364 -227.025247 
L 442.330806 -223.194265 
L 442.087702 -219.363283 
L 441.926205 -215.532301 
L 441.848103 -211.701319 
L 441.848938 -207.870337 
L 441.919558 -204.039354 
L 442.047722 -200.208372 
L 442.219489 -196.37739 
L 442.420384 -192.546408 
L 442.636537 -188.715426 
L 442.856073 -184.884444 
L 443.070954 -181.053461 
L 443.279218 -177.222479 
L 443.487239 -173.391497 
L 443.711303 -169.560515 
L 443.977675 -165.729533 
L 444.320391 -161.898551 
L 444.776422 -158.067568 
L 445.378405 -154.236586 
L 446.145878 -150.405604 
L 447.07657 -146.574622 
L 448.139687 -142.74364 
L 449.273133 -138.912658 
L 450.386098 -135.081676 
L 451.367508 -131.250693 
L 452.099558 -127.419711 
L 452.474326 -123.588729 
L 452.410506 -119.757747 
L 451.866964 -115.926765 
L 450.850301 -112.095783 
L 449.414757 -108.2648 
L 447.654461 -104.433818 
L 445.689639 -100.602836 
L 443.649658 -96.771854 
L 441.656259 -92.940872 
L 439.809967 -89.10989 
L 438.181675 -85.278907 
L 436.810012 -81.447925 
L 435.703878 -77.616943 
L 434.848575 -73.785961 
L 434.213662 -69.954979 
z
" id="mac5c1c1339" style="stroke:#373737;stroke-width:1.5;"/>
    </defs>
    <g clip-path="url(#p1990db4887)">
     <use style="fill:#be631d;stroke:#373737;stroke-width:1.5;" x="0" xlink:href="#mac5c1c1339" y="509.319"/>
    </g>
   </g>
   <g id="PolyCollection_7">
    <defs>
     <path d="M 492.283706 -96.162167 
L 490.836089 -96.162167 
L 490.297123 -97.635738 
L 489.474972 -99.109309 
L 488.300317 -100.58288 
L 486.731248 -102.056451 
L 484.776929 -103.530022 
L 482.516228 -105.003593 
L 480.102665 -106.477164 
L 477.749585 -107.950735 
L 475.695577 -109.424306 
L 474.157723 -110.897877 
L 473.285782 -112.371448 
L 473.131185 -113.845019 
L 473.639886 -115.31859 
L 474.669978 -116.792161 
L 476.026971 -118.265733 
L 477.505158 -119.739304 
L 478.923661 -121.212875 
L 480.149671 -122.686446 
L 481.106771 -124.160017 
L 481.770769 -125.633588 
L 482.157916 -127.107159 
L 482.310623 -128.58073 
L 482.284375 -130.054301 
L 482.137667 -131.527872 
L 481.925101 -133.001443 
L 481.693008 -134.475014 
L 481.476916 -135.948585 
L 481.30061 -137.422156 
L 481.176804 -138.895727 
L 481.109319 -140.369298 
L 481.096166 -141.842869 
L 481.132488 -143.316441 
L 481.212273 -144.790012 
L 481.328288 -146.263583 
L 481.470519 -147.737154 
L 481.624117 -149.210725 
L 481.76807 -150.684296 
L 481.875444 -152.157867 
L 481.915405 -153.631438 
L 481.856568 -155.105009 
L 481.67097 -156.57858 
L 481.338047 -158.052151 
L 480.848259 -159.525722 
L 480.206254 -160.999293 
L 479.433357 -162.472864 
L 478.568904 -163.946435 
L 477.669642 -165.420006 
L 476.80644 -166.893577 
L 476.058084 -168.367149 
L 475.502733 -169.84072 
L 475.208339 -171.314291 
L 475.223691 -172.787862 
L 475.571522 -174.261433 
L 476.244595 -175.735004 
L 477.205214 -177.208575 
L 478.388311 -178.682146 
L 479.708079 -180.155717 
L 481.067785 -181.629288 
L 482.371727 -183.102859 
L 483.537509 -184.57643 
L 484.506329 -186.050001 
L 485.249154 -187.523572 
L 485.767599 -188.997143 
L 486.089719 -190.470714 
L 486.262137 -191.944285 
L 486.340585 -193.417857 
L 486.380864 -194.891428 
L 486.43165 -196.364999 
L 486.52979 -197.83857 
L 486.698101 -199.312141 
L 486.945304 -200.785712 
L 487.267553 -202.259283 
L 487.651038 -203.732854 
L 488.07518 -205.206425 
L 488.516044 -206.679996 
L 488.949619 -208.153567 
L 489.35469 -209.627138 
L 489.715011 -211.100709 
L 490.020528 -212.57428 
L 490.267538 -214.047851 
L 490.457895 -215.521422 
L 490.597595 -216.994993 
L 490.695229 -218.468565 
L 490.760707 -219.942136 
L 490.804386 -221.415707 
L 490.836489 -222.889278 
L 490.866497 -224.362849 
L 490.902344 -225.83642 
L 490.949451 -227.309991 
L 491.009934 -228.783562 
L 491.082377 -230.257133 
L 491.162399 -231.730704 
L 491.243921 -233.204275 
L 491.320737 -234.677846 
L 491.387902 -236.151417 
L 491.442555 -237.624988 
L 491.484039 -239.098559 
L 491.513468 -240.57213 
L 491.533011 -242.045701 
L 491.586784 -242.045701 
L 491.586784 -242.045701 
L 491.606327 -240.57213 
L 491.635756 -239.098559 
L 491.67724 -237.624988 
L 491.731893 -236.151417 
L 491.799058 -234.677846 
L 491.875873 -233.204275 
L 491.957395 -231.730704 
L 492.037418 -230.257133 
L 492.109861 -228.783562 
L 492.170344 -227.309991 
L 492.217451 -225.83642 
L 492.253298 -224.362849 
L 492.283306 -222.889278 
L 492.315408 -221.415707 
L 492.359088 -219.942136 
L 492.424566 -218.468565 
L 492.5222 -216.994993 
L 492.6619 -215.521422 
L 492.852257 -214.047851 
L 493.099267 -212.57428 
L 493.404784 -211.100709 
L 493.765105 -209.627138 
L 494.170176 -208.153567 
L 494.603751 -206.679996 
L 495.044615 -205.206425 
L 495.468757 -203.732854 
L 495.852242 -202.259283 
L 496.174491 -200.785712 
L 496.421694 -199.312141 
L 496.590005 -197.83857 
L 496.688144 -196.364999 
L 496.738931 -194.891428 
L 496.77921 -193.417857 
L 496.857657 -191.944285 
L 497.030076 -190.470714 
L 497.352196 -188.997143 
L 497.870641 -187.523572 
L 498.613466 -186.050001 
L 499.582286 -184.57643 
L 500.748068 -183.102859 
L 502.05201 -181.629288 
L 503.411716 -180.155717 
L 504.731484 -178.682146 
L 505.914581 -177.208575 
L 506.8752 -175.735004 
L 507.548273 -174.261433 
L 507.896104 -172.787862 
L 507.911456 -171.314291 
L 507.617062 -169.84072 
L 507.061711 -168.367149 
L 506.313355 -166.893577 
L 505.450152 -165.420006 
L 504.550891 -163.946435 
L 503.686438 -162.472864 
L 502.913541 -160.999293 
L 502.271536 -159.525722 
L 501.781748 -158.052151 
L 501.448825 -156.57858 
L 501.263227 -155.105009 
L 501.20439 -153.631438 
L 501.24435 -152.157867 
L 501.351725 -150.684296 
L 501.495677 -149.210725 
L 501.649276 -147.737154 
L 501.791507 -146.263583 
L 501.907522 -144.790012 
L 501.987307 -143.316441 
L 502.023629 -141.842869 
L 502.010476 -140.369298 
L 501.942991 -138.895727 
L 501.819185 -137.422156 
L 501.642879 -135.948585 
L 501.426786 -134.475014 
L 501.194694 -133.001443 
L 500.982128 -131.527872 
L 500.83542 -130.054301 
L 500.809172 -128.58073 
L 500.961878 -127.107159 
L 501.349026 -125.633588 
L 502.013023 -124.160017 
L 502.970124 -122.686446 
L 504.196134 -121.212875 
L 505.614636 -119.739304 
L 507.092824 -118.265733 
L 508.449816 -116.792161 
L 509.479908 -115.31859 
L 509.98861 -113.845019 
L 509.834013 -112.371448 
L 508.962072 -110.897877 
L 507.424217 -109.424306 
L 505.37021 -107.950735 
L 503.01713 -106.477164 
L 500.603567 -105.003593 
L 498.342865 -103.530022 
L 496.388547 -102.056451 
L 494.819478 -100.58288 
L 493.644823 -99.109309 
L 492.822672 -97.635738 
L 492.283706 -96.162167 
z
" id="me2a664016b" style="stroke:#373737;stroke-width:1.5;"/>
    </defs>
    <g clip-path="url(#p1990db4887)">
     <use style="fill:#2b8e70;stroke:#373737;stroke-width:1.5;" x="0" xlink:href="#me2a664016b" y="509.319"/>
    </g>
   </g>
   <g id="PolyCollection_8">
    <defs>
     <path d="M 532.025866 -94.354229 
L 529.265073 -94.354229 
L 528.583556 -95.695625 
L 527.668644 -97.037022 
L 526.490803 -98.378419 
L 525.038666 -99.719815 
L 523.327289 -101.061212 
L 521.404218 -102.402609 
L 519.351327 -103.744006 
L 517.280893 -105.085402 
L 515.325469 -106.426799 
L 513.622526 -107.768196 
L 512.29628 -109.109592 
L 511.440056 -110.450989 
L 511.102683 -111.792386 
L 511.281676 -113.133783 
L 511.924422 -114.475179 
L 512.936896 -115.816576 
L 514.197803 -117.157973 
L 515.575199 -118.499369 
L 516.942501 -119.840766 
L 518.191448 -121.182163 
L 519.240668 -122.523559 
L 520.039584 -123.864956 
L 520.56832 -125.206353 
L 520.834648 -126.54775 
L 520.869129 -127.889146 
L 520.719281 -129.230543 
L 520.443355 -130.57194 
L 520.10402 -131.913336 
L 519.762206 -133.254733 
L 519.471405 -134.59613 
L 519.272884 -135.937527 
L 519.192318 -137.278923 
L 519.238287 -138.62032 
L 519.402859 -139.961717 
L 519.664116 -141.303113 
L 519.990125 -142.64451 
L 520.343594 -143.985907 
L 520.686398 -145.327303 
L 520.983274 -146.6687 
L 521.204319 -148.010097 
L 521.326258 -149.351494 
L 521.332745 -150.69289 
L 521.21413 -152.034287 
L 520.967094 -153.375684 
L 520.594424 -154.71708 
L 520.104991 -156.058477 
L 519.51384 -157.399874 
L 518.842175 -158.741271 
L 518.117077 -160.082667 
L 517.37079 -161.424064 
L 516.639532 -162.765461 
L 515.961862 -164.106857 
L 515.37665 -165.448254 
L 514.920746 -166.789651 
L 514.6265 -168.131048 
L 514.519303 -169.472444 
L 514.615404 -170.813841 
L 514.920282 -172.155238 
L 515.427848 -173.496634 
L 516.120643 -174.838031 
L 516.971082 -176.179428 
L 517.943648 -177.520824 
L 518.99777 -178.862221 
L 520.091076 -180.203618 
L 521.182654 -181.545015 
L 522.236008 -182.886411 
L 523.22143 -184.227808 
L 524.117591 -185.569205 
L 524.912236 -186.910601 
L 525.601952 -188.251998 
L 526.191084 -189.593395 
L 526.689977 -190.934792 
L 527.112813 -192.276188 
L 527.475359 -193.617585 
L 527.792922 -194.958982 
L 528.078775 -196.300378 
L 528.343163 -197.641775 
L 528.592928 -198.983172 
L 528.831652 -200.324568 
L 529.060196 -201.665965 
L 529.277452 -203.007362 
L 529.481173 -204.348759 
L 529.668753 -205.690155 
L 529.837869 -207.031552 
L 529.986947 -208.372949 
L 530.115404 -209.714345 
L 530.223694 -211.055742 
L 530.313175 -212.397139 
L 530.385863 -213.738536 
L 530.444124 -215.079932 
L 530.490389 -216.421329 
L 530.526919 -217.762726 
L 530.555667 -219.104122 
L 530.578227 -220.445519 
L 530.595849 -221.786916 
L 530.609498 -223.128313 
L 530.619934 -224.469709 
L 530.62777 -225.811106 
L 530.63352 -227.152503 
L 530.657419 -227.152503 
L 530.657419 -227.152503 
L 530.663169 -225.811106 
L 530.671004 -224.469709 
L 530.68144 -223.128313 
L 530.69509 -221.786916 
L 530.712711 -220.445519 
L 530.735271 -219.104122 
L 530.76402 -217.762726 
L 530.80055 -216.421329 
L 530.846815 -215.079932 
L 530.905076 -213.738536 
L 530.977763 -212.397139 
L 531.067245 -211.055742 
L 531.175534 -209.714345 
L 531.303991 -208.372949 
L 531.453069 -207.031552 
L 531.622186 -205.690155 
L 531.809765 -204.348759 
L 532.013486 -203.007362 
L 532.230742 -201.665965 
L 532.459286 -200.324568 
L 532.698011 -198.983172 
L 532.947775 -197.641775 
L 533.212164 -196.300378 
L 533.498017 -194.958982 
L 533.81558 -193.617585 
L 534.178125 -192.276188 
L 534.600962 -190.934792 
L 535.099855 -189.593395 
L 535.688986 -188.251998 
L 536.378702 -186.910601 
L 537.173347 -185.569205 
L 538.069509 -184.227808 
L 539.054931 -182.886411 
L 540.108285 -181.545015 
L 541.199863 -180.203618 
L 542.293169 -178.862221 
L 543.347291 -177.520824 
L 544.319857 -176.179428 
L 545.170296 -174.838031 
L 545.86309 -173.496634 
L 546.370657 -172.155238 
L 546.675535 -170.813841 
L 546.771635 -169.472444 
L 546.664438 -168.131048 
L 546.370193 -166.789651 
L 545.914289 -165.448254 
L 545.329076 -164.106857 
L 544.651407 -162.765461 
L 543.920149 -161.424064 
L 543.173861 -160.082667 
L 542.448764 -158.741271 
L 541.777099 -157.399874 
L 541.185947 -156.058477 
L 540.696515 -154.71708 
L 540.323845 -153.375684 
L 540.076809 -152.034287 
L 539.958193 -150.69289 
L 539.96468 -149.351494 
L 540.086619 -148.010097 
L 540.307665 -146.6687 
L 540.60454 -145.327303 
L 540.947344 -143.985907 
L 541.300814 -142.64451 
L 541.626822 -141.303113 
L 541.888079 -139.961717 
L 542.052652 -138.62032 
L 542.098621 -137.278923 
L 542.018055 -135.937527 
L 541.819534 -134.59613 
L 541.528733 -133.254733 
L 541.186919 -131.913336 
L 540.847584 -130.57194 
L 540.571658 -129.230543 
L 540.42181 -127.889146 
L 540.45629 -126.54775 
L 540.722619 -125.206353 
L 541.251354 -123.864956 
L 542.050271 -122.523559 
L 543.099491 -121.182163 
L 544.348438 -119.840766 
L 545.715739 -118.499369 
L 547.093136 -117.157973 
L 548.354043 -115.816576 
L 549.366516 -114.475179 
L 550.009263 -113.133783 
L 550.188255 -111.792386 
L 549.850883 -110.450989 
L 548.994658 -109.109592 
L 547.668412 -107.768196 
L 545.96547 -106.426799 
L 544.010046 -105.085402 
L 541.939612 -103.744006 
L 539.88672 -102.402609 
L 537.96365 -101.061212 
L 536.252273 -99.719815 
L 534.800136 -98.378419 
L 533.622295 -97.037022 
L 532.707383 -95.695625 
L 532.025866 -94.354229 
z
" id="m5e2de12937" style="stroke:#373737;stroke-width:1.5;"/>
    </defs>
    <g clip-path="url(#p1990db4887)">
     <use style="fill:#be631d;stroke:#373737;stroke-width:1.5;" x="0" xlink:href="#m5e2de12937" y="509.319"/>
    </g>
   </g>
   <g id="patch_3">
    <path clip-path="url(#p1990db4887)" d="M 120.246965 401.12984 
L 120.246965 401.12984 
L 120.246965 401.12984 
L 120.246965 401.12984 
z
" style="fill:#2b8e70;stroke:#373737;stroke-linejoin:miter;stroke-width:0.75;"/>
   </g>
   <g id="patch_4">
    <path clip-path="url(#p1990db4887)" d="M 120.246965 401.12984 
L 120.246965 401.12984 
L 120.246965 401.12984 
L 120.246965 401.12984 
z
" style="fill:#be631d;stroke:#373737;stroke-linejoin:miter;stroke-width:0.75;"/>
   </g>
   <g id="line2d_1">
    <path clip-path="url(#p1990db4887)" d="M 81.161393 401.12984 
L 120.246965 401.12984 
" style="fill:none;stroke:#373737;stroke-linecap:round;stroke-width:1.5;"/>
   </g>
   <g id="line2d_2">
    <path clip-path="url(#p1990db4887)" d="M 120.246965 401.12984 
L 159.332537 401.12984 
" style="fill:none;stroke:#373737;stroke-linecap:round;stroke-width:1.5;"/>
   </g>
   <g id="line2d_3">
    <path clip-path="url(#p1990db4887)" d="M 198.418109 399.274159 
L 198.418109 88.487786 
" style="fill:none;stroke:#373737;stroke-linecap:round;stroke-width:1.5;"/>
   </g>
   <g id="line2d_4">
    <path clip-path="url(#p1990db4887)" d="M 198.418109 385.558249 
L 198.418109 239.604836 
" style="fill:none;stroke:#373737;stroke-linecap:round;stroke-width:4.5;"/>
   </g>
   <g id="line2d_5">
    <path clip-path="url(#p1990db4887)" d="M 237.50368 399.35484 
L 237.50368 86.470741 
" style="fill:none;stroke:#373737;stroke-linecap:round;stroke-width:1.5;"/>
   </g>
   <g id="line2d_6">
    <path clip-path="url(#p1990db4887)" d="M 237.50368 386.647454 
L 237.50368 245.776995 
" style="fill:none;stroke:#373737;stroke-linecap:round;stroke-width:4.5;"/>
   </g>
   <g id="line2d_7">
    <path clip-path="url(#p1990db4887)" d="M 296.132038 398.305977 
L 296.132038 69.769604 
" style="fill:none;stroke:#373737;stroke-linecap:round;stroke-width:1.5;"/>
   </g>
   <g id="line2d_8">
    <path clip-path="url(#p1990db4887)" d="M 296.132038 381.040067 
L 296.132038 241.742904 
" style="fill:none;stroke:#373737;stroke-linecap:round;stroke-width:4.5;"/>
   </g>
   <g id="line2d_9">
    <path clip-path="url(#p1990db4887)" d="M 335.21761 399.032113 
L 335.21761 84.453695 
" style="fill:none;stroke:#373737;stroke-linecap:round;stroke-width:1.5;"/>
   </g>
   <g id="line2d_10">
    <path clip-path="url(#p1990db4887)" d="M 335.21761 384.226999 
L 335.21761 250.900291 
" style="fill:none;stroke:#373737;stroke-linecap:round;stroke-width:4.5;"/>
   </g>
   <g id="line2d_11">
    <path clip-path="url(#p1990db4887)" d="M 393.845968 397.902568 
L 393.845968 95.426423 
" style="fill:none;stroke:#373737;stroke-linecap:round;stroke-width:1.5;"/>
   </g>
   <g id="line2d_12">
    <path clip-path="url(#p1990db4887)" d="M 393.845968 380.798022 
L 393.845968 239.967904 
" style="fill:none;stroke:#373737;stroke-linecap:round;stroke-width:4.5;"/>
   </g>
   <g id="line2d_13">
    <path clip-path="url(#p1990db4887)" d="M 432.93154 398.46734 
L 432.93154 100.993468 
" style="fill:none;stroke:#373737;stroke-linecap:round;stroke-width:1.5;"/>
   </g>
   <g id="line2d_14">
    <path clip-path="url(#p1990db4887)" d="M 432.93154 385.61876 
L 432.93154 248.621029 
" style="fill:none;stroke:#373737;stroke-linecap:round;stroke-width:4.5;"/>
   </g>
   <g id="line2d_15">
    <path clip-path="url(#p1990db4887)" d="M 491.559897 401.12984 
L 491.559897 279.300292 
" style="fill:none;stroke:#373737;stroke-linecap:round;stroke-width:1.5;"/>
   </g>
   <g id="line2d_16">
    <path clip-path="url(#p1990db4887)" d="M 491.559897 390.257965 
L 491.559897 336.483532 
" style="fill:none;stroke:#373737;stroke-linecap:round;stroke-width:4.5;"/>
   </g>
   <g id="line2d_17">
    <path clip-path="url(#p1990db4887)" d="M 530.645469 400.807113 
L 530.645469 296.324156 
" style="fill:none;stroke:#373737;stroke-linecap:round;stroke-width:1.5;"/>
   </g>
   <g id="line2d_18">
    <path clip-path="url(#p1990db4887)" d="M 530.645469 394.876999 
L 530.645469 340.537793 
" style="fill:none;stroke:#373737;stroke-linecap:round;stroke-width:4.5;"/>
   </g>
   <g id="patch_5">
    <path d="M 71.39 461.854 
L 71.39 7.2 
" style="fill:none;stroke:#262626;stroke-linecap:square;stroke-linejoin:miter;stroke-width:0.8;"/>
   </g>
   <g id="patch_6">
    <path d="M 71.39 461.854 
L 559.959648 461.854 
" style="fill:none;stroke:#262626;stroke-linecap:square;stroke-linejoin:miter;stroke-width:0.8;"/>
   </g>
   <g id="PathCollection_1">
    <defs>
     <path d="M 0 1.5 
C 0.397805 1.5 0.77937 1.341951 1.06066 1.06066 
C 1.341951 0.77937 1.5 0.397805 1.5 0 
C 1.5 -0.397805 1.341951 -0.77937 1.06066 -1.06066 
C 0.77937 -1.341951 0.397805 -1.5 0 -1.5 
C -0.397805 -1.5 -0.77937 -1.341951 -1.06066 -1.06066 
C -1.341951 -0.77937 -1.5 -0.397805 -1.5 0 
C -1.5 0.397805 -1.341951 0.77937 -1.06066 1.06066 
C -0.77937 1.341951 -0.397805 1.5 0 1.5 
z
" id="m4f81908829" style="stroke:#373737;"/>
    </defs>
    <g clip-path="url(#p1990db4887)">
     <use style="fill:#ffffff;stroke:#373737;" x="198.418109" xlink:href="#m4f81908829" y="319.237793"/>
    </g>
   </g>
   <g id="PathCollection_2">
    <g clip-path="url(#p1990db4887)">
     <use style="fill:#ffffff;stroke:#373737;" x="237.50368" xlink:href="#m4f81908829" y="327.063929"/>
    </g>
   </g>
   <g id="PathCollection_3">
    <g clip-path="url(#p1990db4887)">
     <use style="fill:#ffffff;stroke:#373737;" x="296.132038" xlink:href="#m4f81908829" y="325.288929"/>
    </g>
   </g>
   <g id="PathCollection_4">
    <g clip-path="url(#p1990db4887)">
     <use style="fill:#ffffff;stroke:#373737;" x="335.21761" xlink:href="#m4f81908829" y="331.420748"/>
    </g>
   </g>
   <g id="PathCollection_5">
    <g clip-path="url(#p1990db4887)">
     <use style="fill:#ffffff;stroke:#373737;" x="393.845968" xlink:href="#m4f81908829" y="311.330974"/>
    </g>
   </g>
   <g id="PathCollection_6">
    <g clip-path="url(#p1990db4887)">
     <use style="fill:#ffffff;stroke:#373737;" x="432.93154" xlink:href="#m4f81908829" y="322.263361"/>
    </g>
   </g>
   <g id="PathCollection_7">
    <g clip-path="url(#p1990db4887)">
     <use style="fill:#ffffff;stroke:#373737;" x="491.559897" xlink:href="#m4f81908829" y="359.578703"/>
    </g>
   </g>
   <g id="PathCollection_8">
    <g clip-path="url(#p1990db4887)">
     <use style="fill:#ffffff;stroke:#373737;" x="530.645469" xlink:href="#m4f81908829" y="368.130976"/>
    </g>
   </g>
  </g>
  <g id="legend_1">
   <g id="text_13">
    <!-- weather -->
    <defs>
     <path d="M 16.15625 0 
L 0.296875 51.859375 
L 9.375 51.859375 
L 17.625 21.921875 
L 20.703125 10.796875 
Q 20.90625 11.625 23.390625 21.484375 
L 31.640625 51.859375 
L 40.671875 51.859375 
L 48.4375 21.78125 
L 51.03125 11.859375 
L 54 21.875 
L 62.890625 51.859375 
L 71.4375 51.859375 
L 55.21875 0 
L 46.09375 0 
L 37.84375 31.0625 
L 35.84375 39.890625 
L 25.34375 0 
z
" id="ArialMT-119"/>
     <path d="M 40.4375 6.390625 
Q 35.546875 2.25 31.03125 0.53125 
Q 26.515625 -1.171875 21.34375 -1.171875 
Q 12.796875 -1.171875 8.203125 3 
Q 3.609375 7.171875 3.609375 13.671875 
Q 3.609375 17.484375 5.34375 20.625 
Q 7.078125 23.78125 9.890625 25.6875 
Q 12.703125 27.59375 16.21875 28.5625 
Q 18.796875 29.25 24.03125 29.890625 
Q 34.671875 31.15625 39.703125 32.90625 
Q 39.75 34.71875 39.75 35.203125 
Q 39.75 40.578125 37.25 42.78125 
Q 33.890625 45.75 27.25 45.75 
Q 21.046875 45.75 18.09375 43.578125 
Q 15.140625 41.40625 13.71875 35.890625 
L 5.125 37.0625 
Q 6.296875 42.578125 8.984375 45.96875 
Q 11.671875 49.359375 16.75 51.1875 
Q 21.828125 53.03125 28.515625 53.03125 
Q 35.15625 53.03125 39.296875 51.46875 
Q 43.453125 49.90625 45.40625 47.53125 
Q 47.359375 45.171875 48.140625 41.546875 
Q 48.578125 39.3125 48.578125 33.453125 
L 48.578125 21.734375 
Q 48.578125 9.46875 49.140625 6.21875 
Q 49.703125 2.984375 51.375 0 
L 42.1875 0 
Q 40.828125 2.734375 40.4375 6.390625 
z
M 39.703125 26.03125 
Q 34.90625 24.078125 25.34375 22.703125 
Q 19.921875 21.921875 17.671875 20.9375 
Q 15.4375 19.96875 14.203125 18.09375 
Q 12.984375 16.21875 12.984375 13.921875 
Q 12.984375 10.40625 15.640625 8.0625 
Q 18.3125 5.71875 23.4375 5.71875 
Q 28.515625 5.71875 32.46875 7.9375 
Q 36.421875 10.15625 38.28125 14.015625 
Q 39.703125 17 39.703125 22.796875 
z
" id="ArialMT-97"/>
     <path d="M 6.59375 0 
L 6.59375 71.578125 
L 15.375 71.578125 
L 15.375 45.90625 
Q 21.53125 53.03125 30.90625 53.03125 
Q 36.671875 53.03125 40.921875 50.75 
Q 45.171875 48.484375 47 44.484375 
Q 48.828125 40.484375 48.828125 32.859375 
L 48.828125 0 
L 40.046875 0 
L 40.046875 32.859375 
Q 40.046875 39.453125 37.1875 42.453125 
Q 34.328125 45.453125 29.109375 45.453125 
Q 25.203125 45.453125 21.75 43.421875 
Q 18.3125 41.40625 16.84375 37.9375 
Q 15.375 34.46875 15.375 28.375 
L 15.375 0 
z
" id="ArialMT-104"/>
    </defs>
    <g style="fill:#262626;" transform="translate(662.46425 236.0695)scale(0.16 -0.16)">
     <use xlink:href="#ArialMT-119"/>
     <use x="72.216797" xlink:href="#ArialMT-101"/>
     <use x="127.832031" xlink:href="#ArialMT-97"/>
     <use x="183.447266" xlink:href="#ArialMT-116"/>
     <use x="211.230469" xlink:href="#ArialMT-104"/>
     <use x="266.845703" xlink:href="#ArialMT-101"/>
     <use x="322.460938" xlink:href="#ArialMT-114"/>
    </g>
   </g>
   <g id="patch_7">
    <path d="M 650.728 258.702 
L 682.728 258.702 
L 682.728 247.502 
L 650.728 247.502 
z
" style="fill:#2b8e70;stroke:#373737;stroke-linejoin:miter;stroke-width:0.75;"/>
   </g>
   <g id="text_14">
    <!-- good -->
    <defs>
     <path d="M 4.984375 -4.296875 
L 13.53125 -5.5625 
Q 14.0625 -9.515625 16.5 -11.328125 
Q 19.78125 -13.765625 25.4375 -13.765625 
Q 31.546875 -13.765625 34.859375 -11.328125 
Q 38.1875 -8.890625 39.359375 -4.5 
Q 40.046875 -1.8125 39.984375 6.78125 
Q 34.234375 0 25.640625 0 
Q 14.9375 0 9.078125 7.71875 
Q 3.21875 15.4375 3.21875 26.21875 
Q 3.21875 33.640625 5.90625 39.90625 
Q 8.59375 46.1875 13.6875 49.609375 
Q 18.796875 53.03125 25.6875 53.03125 
Q 34.859375 53.03125 40.828125 45.609375 
L 40.828125 51.859375 
L 48.921875 51.859375 
L 48.921875 7.03125 
Q 48.921875 -5.078125 46.453125 -10.125 
Q 44 -15.1875 38.640625 -18.109375 
Q 33.296875 -21.046875 25.484375 -21.046875 
Q 16.21875 -21.046875 10.5 -16.875 
Q 4.78125 -12.703125 4.984375 -4.296875 
z
M 12.25 26.859375 
Q 12.25 16.65625 16.296875 11.96875 
Q 20.359375 7.28125 26.46875 7.28125 
Q 32.515625 7.28125 36.609375 11.9375 
Q 40.71875 16.609375 40.71875 26.5625 
Q 40.71875 36.078125 36.5 40.90625 
Q 32.28125 45.75 26.3125 45.75 
Q 20.453125 45.75 16.34375 40.984375 
Q 12.25 36.234375 12.25 26.859375 
z
" id="ArialMT-103"/>
    </defs>
    <g style="fill:#262626;" transform="translate(695.528 258.702)scale(0.16 -0.16)">
     <use xlink:href="#ArialMT-103"/>
     <use x="55.615234" xlink:href="#ArialMT-111"/>
     <use x="111.230469" xlink:href="#ArialMT-111"/>
     <use x="166.845703" xlink:href="#ArialMT-100"/>
    </g>
   </g>
   <g id="patch_8">
    <path d="M 650.728 281.522 
L 682.728 281.522 
L 682.728 270.322 
L 650.728 270.322 
z
" style="fill:#be631d;stroke:#373737;stroke-linejoin:miter;stroke-width:0.75;"/>
   </g>
   <g id="text_15">
    <!-- bad -->
    <defs>
     <path d="M 14.703125 0 
L 6.546875 0 
L 6.546875 71.578125 
L 15.328125 71.578125 
L 15.328125 46.046875 
Q 20.90625 53.03125 29.546875 53.03125 
Q 34.328125 53.03125 38.59375 51.09375 
Q 42.875 49.171875 45.625 45.671875 
Q 48.390625 42.1875 49.953125 37.25 
Q 51.515625 32.328125 51.515625 26.703125 
Q 51.515625 13.375 44.921875 6.09375 
Q 38.328125 -1.171875 29.109375 -1.171875 
Q 19.921875 -1.171875 14.703125 6.5 
z
M 14.59375 26.3125 
Q 14.59375 17 17.140625 12.84375 
Q 21.296875 6.0625 28.375 6.0625 
Q 34.125 6.0625 38.328125 11.0625 
Q 42.53125 16.0625 42.53125 25.984375 
Q 42.53125 36.140625 38.5 40.96875 
Q 34.46875 45.796875 28.765625 45.796875 
Q 23 45.796875 18.796875 40.796875 
Q 14.59375 35.796875 14.59375 26.3125 
z
" id="ArialMT-98"/>
    </defs>
    <g style="fill:#262626;" transform="translate(695.528 281.522)scale(0.16 -0.16)">
     <use xlink:href="#ArialMT-98"/>
     <use x="55.615234" xlink:href="#ArialMT-97"/>
     <use x="111.230469" xlink:href="#ArialMT-100"/>
    </g>
   </g>
  </g>
 </g>
 <defs>
  <clipPath id="p1990db4887">
   <rect height="454.654" width="488.569648" x="71.39" y="7.2"/>
  </clipPath>
 </defs>
</svg>
