<?xml version="1.0" encoding="utf-8" standalone="no"?>
<!DOCTYPE svg PUBLIC "-//W3C//DTD SVG 1.1//EN"
  "http://www.w3.org/Graphics/SVG/1.1/DTD/svg11.dtd">
<!-- Created with matplotlib (https://matplotlib.org/) -->
<svg height="509.319pt" version="1.1" viewBox="0 0 744.7655 509.319" width="744.7655pt" xmlns="http://www.w3.org/2000/svg" xmlns:xlink="http://www.w3.org/1999/xlink">
 <defs>
  <style type="text/css">
*{stroke-linecap:butt;stroke-linejoin:round;white-space:pre;}
  </style>
 </defs>
 <g id="figure_1">
  <g id="patch_1">
   <path d="M 0 509.319 
L 744.7655 509.319 
L 744.7655 0 
L 0 0 
z
" style="fill:#ffffff;"/>
  </g>
  <g id="axes_1">
   <g id="patch_2">
    <path d="M 71.8375 461.854 
L 559.207148 461.854 
L 559.207148 7.2 
L 71.8375 7.2 
z
" style="fill:#ffffff;"/>
   </g>
   <g id="matplotlib.axis_1">
    <g id="xtick_1">
     <g id="text_1">
      <!-- 1010 -->
      <defs>
       <path d="M 37.25 0 
L 28.46875 0 
L 28.46875 56 
Q 25.296875 52.984375 20.140625 49.953125 
Q 14.984375 46.921875 10.890625 45.40625 
L 10.890625 53.90625 
Q 18.265625 57.375 23.78125 62.296875 
Q 29.296875 67.234375 31.59375 71.875 
L 37.25 71.875 
z
" id="ArialMT-49"/>
       <path d="M 4.15625 35.296875 
Q 4.15625 48 6.765625 55.734375 
Q 9.375 63.484375 14.515625 67.671875 
Q 19.671875 71.875 27.484375 71.875 
Q 33.25 71.875 37.59375 69.546875 
Q 41.9375 67.234375 44.765625 62.859375 
Q 47.609375 58.5 49.21875 52.21875 
Q 50.828125 45.953125 50.828125 35.296875 
Q 50.828125 22.703125 48.234375 14.96875 
Q 45.65625 7.234375 40.5 3 
Q 35.359375 -1.21875 27.484375 -1.21875 
Q 17.140625 -1.21875 11.234375 6.203125 
Q 4.15625 15.140625 4.15625 35.296875 
z
M 13.1875 35.296875 
Q 13.1875 17.671875 17.3125 11.828125 
Q 21.4375 6 27.484375 6 
Q 33.546875 6 37.671875 11.859375 
Q 41.796875 17.71875 41.796875 35.296875 
Q 41.796875 52.984375 37.671875 58.78125 
Q 33.546875 64.59375 27.390625 64.59375 
Q 21.34375 64.59375 17.71875 59.46875 
Q 13.1875 52.9375 13.1875 35.296875 
z
" id="ArialMT-48"/>
      </defs>
      <g style="fill:#262626;" transform="translate(102.779465 480.3065)scale(0.16 -0.16)">
       <use xlink:href="#ArialMT-49"/>
       <use x="55.615234" xlink:href="#ArialMT-48"/>
       <use x="111.230469" xlink:href="#ArialMT-49"/>
       <use x="166.845703" xlink:href="#ArialMT-48"/>
      </g>
     </g>
    </g>
    <g id="xtick_2">
     <g id="text_2">
      <!-- 1010-1 -->
      <defs>
       <path d="M 3.171875 21.484375 
L 3.171875 30.328125 
L 30.171875 30.328125 
L 30.171875 21.484375 
z
" id="ArialMT-45"/>
      </defs>
      <g style="fill:#262626;" transform="translate(193.140894 480.3065)scale(0.16 -0.16)">
       <use xlink:href="#ArialMT-49"/>
       <use x="55.615234" xlink:href="#ArialMT-48"/>
       <use x="111.230469" xlink:href="#ArialMT-49"/>
       <use x="166.845703" xlink:href="#ArialMT-48"/>
       <use x="222.460938" xlink:href="#ArialMT-45"/>
       <use x="255.761719" xlink:href="#ArialMT-49"/>
      </g>
     </g>
    </g>
    <g id="xtick_3">
     <g id="text_3">
      <!-- 1014-150 -->
      <defs>
       <path d="M 32.328125 0 
L 32.328125 17.140625 
L 1.265625 17.140625 
L 1.265625 25.203125 
L 33.9375 71.578125 
L 41.109375 71.578125 
L 41.109375 25.203125 
L 50.78125 25.203125 
L 50.78125 17.140625 
L 41.109375 17.140625 
L 41.109375 0 
z
M 32.328125 25.203125 
L 32.328125 57.46875 
L 9.90625 25.203125 
z
" id="ArialMT-52"/>
       <path d="M 4.15625 18.75 
L 13.375 19.53125 
Q 14.40625 12.796875 18.140625 9.390625 
Q 21.875 6 27.15625 6 
Q 33.5 6 37.890625 10.78125 
Q 42.28125 15.578125 42.28125 23.484375 
Q 42.28125 31 38.0625 35.34375 
Q 33.84375 39.703125 27 39.703125 
Q 22.75 39.703125 19.328125 37.765625 
Q 15.921875 35.84375 13.96875 32.765625 
L 5.71875 33.84375 
L 12.640625 70.609375 
L 48.25 70.609375 
L 48.25 62.203125 
L 19.671875 62.203125 
L 15.828125 42.96875 
Q 22.265625 47.46875 29.34375 47.46875 
Q 38.71875 47.46875 45.15625 40.96875 
Q 51.609375 34.46875 51.609375 24.265625 
Q 51.609375 14.546875 45.953125 7.46875 
Q 39.0625 -1.21875 27.15625 -1.21875 
Q 17.390625 -1.21875 11.203125 4.25 
Q 5.03125 9.71875 4.15625 18.75 
z
" id="ArialMT-53"/>
      </defs>
      <g style="fill:#262626;" transform="translate(281.717324 480.3065)scale(0.16 -0.16)">
       <use xlink:href="#ArialMT-49"/>
       <use x="55.615234" xlink:href="#ArialMT-48"/>
       <use x="111.230469" xlink:href="#ArialMT-49"/>
       <use x="166.845703" xlink:href="#ArialMT-52"/>
       <use x="222.460938" xlink:href="#ArialMT-45"/>
       <use x="255.761719" xlink:href="#ArialMT-49"/>
       <use x="311.376953" xlink:href="#ArialMT-53"/>
       <use x="366.992188" xlink:href="#ArialMT-48"/>
      </g>
     </g>
    </g>
    <g id="xtick_4">
     <g id="text_4">
      <!-- 1016-140 -->
      <defs>
       <path d="M 49.75 54.046875 
L 41.015625 53.375 
Q 39.84375 58.546875 37.703125 60.890625 
Q 34.125 64.65625 28.90625 64.65625 
Q 24.703125 64.65625 21.53125 62.3125 
Q 17.390625 59.28125 14.984375 53.46875 
Q 12.59375 47.65625 12.5 36.921875 
Q 15.671875 41.75 20.265625 44.09375 
Q 24.859375 46.4375 29.890625 46.4375 
Q 38.671875 46.4375 44.84375 39.96875 
Q 51.03125 33.5 51.03125 23.25 
Q 51.03125 16.5 48.125 10.71875 
Q 45.21875 4.9375 40.140625 1.859375 
Q 35.0625 -1.21875 28.609375 -1.21875 
Q 17.625 -1.21875 10.6875 6.859375 
Q 3.765625 14.9375 3.765625 33.5 
Q 3.765625 54.25 11.421875 63.671875 
Q 18.109375 71.875 29.4375 71.875 
Q 37.890625 71.875 43.28125 67.140625 
Q 48.6875 62.40625 49.75 54.046875 
z
M 13.875 23.1875 
Q 13.875 18.65625 15.796875 14.5 
Q 17.71875 10.359375 21.1875 8.171875 
Q 24.65625 6 28.46875 6 
Q 34.03125 6 38.03125 10.484375 
Q 42.046875 14.984375 42.046875 22.703125 
Q 42.046875 30.125 38.078125 34.390625 
Q 34.125 38.671875 28.125 38.671875 
Q 22.171875 38.671875 18.015625 34.390625 
Q 13.875 30.125 13.875 23.1875 
z
" id="ArialMT-54"/>
      </defs>
      <g style="fill:#262626;" transform="translate(379.191254 480.3065)scale(0.16 -0.16)">
       <use xlink:href="#ArialMT-49"/>
       <use x="55.615234" xlink:href="#ArialMT-48"/>
       <use x="111.230469" xlink:href="#ArialMT-49"/>
       <use x="166.845703" xlink:href="#ArialMT-54"/>
       <use x="222.460938" xlink:href="#ArialMT-45"/>
       <use x="255.761719" xlink:href="#ArialMT-49"/>
       <use x="311.376953" xlink:href="#ArialMT-52"/>
       <use x="366.992188" xlink:href="#ArialMT-48"/>
      </g>
     </g>
    </g>
    <g id="xtick_5">
     <g id="text_5">
      <!-- 1021-156 -->
      <defs>
       <path d="M 50.34375 8.453125 
L 50.34375 0 
L 3.03125 0 
Q 2.9375 3.171875 4.046875 6.109375 
Q 5.859375 10.9375 9.828125 15.625 
Q 13.8125 20.3125 21.34375 26.46875 
Q 33.015625 36.03125 37.109375 41.625 
Q 41.21875 47.21875 41.21875 52.203125 
Q 41.21875 57.421875 37.46875 61 
Q 33.734375 64.59375 27.734375 64.59375 
Q 21.390625 64.59375 17.578125 60.78125 
Q 13.765625 56.984375 13.71875 50.25 
L 4.6875 51.171875 
Q 5.609375 61.28125 11.65625 66.578125 
Q 17.71875 71.875 27.9375 71.875 
Q 38.234375 71.875 44.234375 66.15625 
Q 50.25 60.453125 50.25 52 
Q 50.25 47.703125 48.484375 43.546875 
Q 46.734375 39.40625 42.65625 34.8125 
Q 38.578125 30.21875 29.109375 22.21875 
Q 21.1875 15.578125 18.9375 13.203125 
Q 16.703125 10.84375 15.234375 8.453125 
z
" id="ArialMT-50"/>
      </defs>
      <g style="fill:#262626;" transform="translate(476.665183 480.3065)scale(0.16 -0.16)">
       <use xlink:href="#ArialMT-49"/>
       <use x="55.615234" xlink:href="#ArialMT-48"/>
       <use x="111.230469" xlink:href="#ArialMT-50"/>
       <use x="166.845703" xlink:href="#ArialMT-49"/>
       <use x="222.460938" xlink:href="#ArialMT-45"/>
       <use x="255.761719" xlink:href="#ArialMT-49"/>
       <use x="311.376953" xlink:href="#ArialMT-53"/>
       <use x="366.992188" xlink:href="#ArialMT-54"/>
      </g>
     </g>
    </g>
    <g id="text_6">
     <!-- Counter id -->
     <defs>
      <path d="M 58.796875 25.09375 
L 68.265625 22.703125 
Q 65.28125 11.03125 57.546875 4.90625 
Q 49.8125 -1.21875 38.625 -1.21875 
Q 27.046875 -1.21875 19.796875 3.484375 
Q 12.546875 8.203125 8.765625 17.140625 
Q 4.984375 26.078125 4.984375 36.328125 
Q 4.984375 47.515625 9.25 55.828125 
Q 13.53125 64.15625 21.40625 68.46875 
Q 29.296875 72.796875 38.765625 72.796875 
Q 49.515625 72.796875 56.828125 67.328125 
Q 64.15625 61.859375 67.046875 51.953125 
L 57.71875 49.75 
Q 55.21875 57.5625 50.484375 61.125 
Q 45.75 64.703125 38.578125 64.703125 
Q 30.328125 64.703125 24.78125 60.734375 
Q 19.234375 56.78125 16.984375 50.109375 
Q 14.75 43.453125 14.75 36.375 
Q 14.75 27.25 17.40625 20.4375 
Q 20.0625 13.625 25.671875 10.25 
Q 31.296875 6.890625 37.84375 6.890625 
Q 45.796875 6.890625 51.3125 11.46875 
Q 56.84375 16.0625 58.796875 25.09375 
z
" id="ArialMT-67"/>
      <path d="M 3.328125 25.921875 
Q 3.328125 40.328125 11.328125 47.265625 
Q 18.015625 53.03125 27.640625 53.03125 
Q 38.328125 53.03125 45.109375 46.015625 
Q 51.90625 39.015625 51.90625 26.65625 
Q 51.90625 16.65625 48.90625 10.90625 
Q 45.90625 5.171875 40.15625 2 
Q 34.421875 -1.171875 27.640625 -1.171875 
Q 16.75 -1.171875 10.03125 5.8125 
Q 3.328125 12.796875 3.328125 25.921875 
z
M 12.359375 25.921875 
Q 12.359375 15.96875 16.703125 11.015625 
Q 21.046875 6.0625 27.640625 6.0625 
Q 34.1875 6.0625 38.53125 11.03125 
Q 42.875 16.015625 42.875 26.21875 
Q 42.875 35.84375 38.5 40.796875 
Q 34.125 45.75 27.640625 45.75 
Q 21.046875 45.75 16.703125 40.8125 
Q 12.359375 35.890625 12.359375 25.921875 
z
" id="ArialMT-111"/>
      <path d="M 40.578125 0 
L 40.578125 7.625 
Q 34.515625 -1.171875 24.125 -1.171875 
Q 19.53125 -1.171875 15.546875 0.578125 
Q 11.578125 2.34375 9.640625 5 
Q 7.71875 7.671875 6.9375 11.53125 
Q 6.390625 14.109375 6.390625 19.734375 
L 6.390625 51.859375 
L 15.1875 51.859375 
L 15.1875 23.09375 
Q 15.1875 16.21875 15.71875 13.8125 
Q 16.546875 10.359375 19.234375 8.375 
Q 21.921875 6.390625 25.875 6.390625 
Q 29.828125 6.390625 33.296875 8.421875 
Q 36.765625 10.453125 38.203125 13.9375 
Q 39.65625 17.4375 39.65625 24.078125 
L 39.65625 51.859375 
L 48.4375 51.859375 
L 48.4375 0 
z
" id="ArialMT-117"/>
      <path d="M 6.59375 0 
L 6.59375 51.859375 
L 14.5 51.859375 
L 14.5 44.484375 
Q 20.21875 53.03125 31 53.03125 
Q 35.6875 53.03125 39.625 51.34375 
Q 43.5625 49.65625 45.515625 46.921875 
Q 47.46875 44.1875 48.25 40.4375 
Q 48.734375 37.984375 48.734375 31.890625 
L 48.734375 0 
L 39.9375 0 
L 39.9375 31.546875 
Q 39.9375 36.921875 38.90625 39.578125 
Q 37.890625 42.234375 35.28125 43.8125 
Q 32.671875 45.40625 29.15625 45.40625 
Q 23.53125 45.40625 19.453125 41.84375 
Q 15.375 38.28125 15.375 28.328125 
L 15.375 0 
z
" id="ArialMT-110"/>
      <path d="M 25.78125 7.859375 
L 27.046875 0.09375 
Q 23.34375 -0.6875 20.40625 -0.6875 
Q 15.625 -0.6875 12.984375 0.828125 
Q 10.359375 2.34375 9.28125 4.8125 
Q 8.203125 7.28125 8.203125 15.1875 
L 8.203125 45.015625 
L 1.765625 45.015625 
L 1.765625 51.859375 
L 8.203125 51.859375 
L 8.203125 64.703125 
L 16.9375 69.96875 
L 16.9375 51.859375 
L 25.78125 51.859375 
L 25.78125 45.015625 
L 16.9375 45.015625 
L 16.9375 14.703125 
Q 16.9375 10.9375 17.40625 9.859375 
Q 17.875 8.796875 18.921875 8.15625 
Q 19.96875 7.515625 21.921875 7.515625 
Q 23.390625 7.515625 25.78125 7.859375 
z
" id="ArialMT-116"/>
      <path d="M 42.09375 16.703125 
L 51.171875 15.578125 
Q 49.03125 7.625 43.21875 3.21875 
Q 37.40625 -1.171875 28.375 -1.171875 
Q 17 -1.171875 10.328125 5.828125 
Q 3.65625 12.84375 3.65625 25.484375 
Q 3.65625 38.578125 10.390625 45.796875 
Q 17.140625 53.03125 27.875 53.03125 
Q 38.28125 53.03125 44.875 45.953125 
Q 51.46875 38.875 51.46875 26.03125 
Q 51.46875 25.25 51.421875 23.6875 
L 12.75 23.6875 
Q 13.234375 15.140625 17.578125 10.59375 
Q 21.921875 6.0625 28.421875 6.0625 
Q 33.25 6.0625 36.671875 8.59375 
Q 40.09375 11.140625 42.09375 16.703125 
z
M 13.234375 30.90625 
L 42.1875 30.90625 
Q 41.609375 37.453125 38.875 40.71875 
Q 34.671875 45.796875 27.984375 45.796875 
Q 21.921875 45.796875 17.796875 41.75 
Q 13.671875 37.703125 13.234375 30.90625 
z
" id="ArialMT-101"/>
      <path d="M 6.5 0 
L 6.5 51.859375 
L 14.40625 51.859375 
L 14.40625 44 
Q 17.4375 49.515625 20 51.265625 
Q 22.5625 53.03125 25.640625 53.03125 
Q 30.078125 53.03125 34.671875 50.203125 
L 31.640625 42.046875 
Q 28.421875 43.953125 25.203125 43.953125 
Q 22.3125 43.953125 20.015625 42.21875 
Q 17.71875 40.484375 16.75 37.40625 
Q 15.28125 32.71875 15.28125 27.15625 
L 15.28125 0 
z
" id="ArialMT-114"/>
      <path id="ArialMT-32"/>
      <path d="M 6.640625 61.46875 
L 6.640625 71.578125 
L 15.4375 71.578125 
L 15.4375 61.46875 
z
M 6.640625 0 
L 6.640625 51.859375 
L 15.4375 51.859375 
L 15.4375 0 
z
" id="ArialMT-105"/>
      <path d="M 40.234375 0 
L 40.234375 6.546875 
Q 35.296875 -1.171875 25.734375 -1.171875 
Q 19.53125 -1.171875 14.328125 2.25 
Q 9.125 5.671875 6.265625 11.796875 
Q 3.421875 17.921875 3.421875 25.875 
Q 3.421875 33.640625 6 39.96875 
Q 8.59375 46.296875 13.765625 49.65625 
Q 18.953125 53.03125 25.34375 53.03125 
Q 30.03125 53.03125 33.6875 51.046875 
Q 37.359375 49.078125 39.65625 45.90625 
L 39.65625 71.578125 
L 48.390625 71.578125 
L 48.390625 0 
z
M 12.453125 25.875 
Q 12.453125 15.921875 16.640625 10.984375 
Q 20.84375 6.0625 26.5625 6.0625 
Q 32.328125 6.0625 36.34375 10.765625 
Q 40.375 15.484375 40.375 25.140625 
Q 40.375 35.796875 36.265625 40.765625 
Q 32.171875 45.75 26.171875 45.75 
Q 20.3125 45.75 16.375 40.96875 
Q 12.453125 36.1875 12.453125 25.875 
z
" id="ArialMT-100"/>
     </defs>
     <g style="fill:#262626;" transform="translate(278.614824 498.939)scale(0.16 -0.16)">
      <use xlink:href="#ArialMT-67"/>
      <use x="72.216797" xlink:href="#ArialMT-111"/>
      <use x="127.832031" xlink:href="#ArialMT-117"/>
      <use x="183.447266" xlink:href="#ArialMT-110"/>
      <use x="239.0625" xlink:href="#ArialMT-116"/>
      <use x="266.845703" xlink:href="#ArialMT-101"/>
      <use x="322.460938" xlink:href="#ArialMT-114"/>
      <use x="355.761719" xlink:href="#ArialMT-32"/>
      <use x="383.544922" xlink:href="#ArialMT-105"/>
      <use x="405.761719" xlink:href="#ArialMT-100"/>
     </g>
    </g>
   </g>
   <g id="matplotlib.axis_2">
    <g id="ytick_1">
     <g id="text_7">
      <!-- −500 -->
      <defs>
       <path d="M 52.828125 31.203125 
L 5.5625 31.203125 
L 5.5625 39.40625 
L 52.828125 39.40625 
z
" id="ArialMT-8722"/>
      </defs>
      <g style="fill:#262626;" transform="translate(28.8 462.914509)scale(0.16 -0.16)">
       <use xlink:href="#ArialMT-8722"/>
       <use x="58.398438" xlink:href="#ArialMT-53"/>
       <use x="114.013672" xlink:href="#ArialMT-48"/>
       <use x="169.628906" xlink:href="#ArialMT-48"/>
      </g>
     </g>
    </g>
    <g id="ytick_2">
     <g id="text_8">
      <!-- 0 -->
      <g style="fill:#262626;" transform="translate(55.94 405.453539)scale(0.16 -0.16)">
       <use xlink:href="#ArialMT-48"/>
      </g>
     </g>
    </g>
    <g id="ytick_3">
     <g id="text_9">
      <!-- 500 -->
      <g style="fill:#262626;" transform="translate(38.145 347.992569)scale(0.16 -0.16)">
       <use xlink:href="#ArialMT-53"/>
       <use x="55.615234" xlink:href="#ArialMT-48"/>
       <use x="111.230469" xlink:href="#ArialMT-48"/>
      </g>
     </g>
    </g>
    <g id="ytick_4">
     <g id="text_10">
      <!-- 1000 -->
      <g style="fill:#262626;" transform="translate(29.2475 290.531599)scale(0.16 -0.16)">
       <use xlink:href="#ArialMT-49"/>
       <use x="55.615234" xlink:href="#ArialMT-48"/>
       <use x="111.230469" xlink:href="#ArialMT-48"/>
       <use x="166.845703" xlink:href="#ArialMT-48"/>
      </g>
     </g>
    </g>
    <g id="ytick_5">
     <g id="text_11">
      <!-- 1500 -->
      <g style="fill:#262626;" transform="translate(29.2475 233.070629)scale(0.16 -0.16)">
       <use xlink:href="#ArialMT-49"/>
       <use x="55.615234" xlink:href="#ArialMT-53"/>
       <use x="111.230469" xlink:href="#ArialMT-48"/>
       <use x="166.845703" xlink:href="#ArialMT-48"/>
      </g>
     </g>
    </g>
    <g id="ytick_6">
     <g id="text_12">
      <!-- 2000 -->
      <g style="fill:#262626;" transform="translate(29.2475 175.609659)scale(0.16 -0.16)">
       <use xlink:href="#ArialMT-50"/>
       <use x="55.615234" xlink:href="#ArialMT-48"/>
       <use x="111.230469" xlink:href="#ArialMT-48"/>
       <use x="166.845703" xlink:href="#ArialMT-48"/>
      </g>
     </g>
    </g>
    <g id="ytick_7">
     <g id="text_13">
      <!-- 2500 -->
      <g style="fill:#262626;" transform="translate(29.2475 118.148689)scale(0.16 -0.16)">
       <use xlink:href="#ArialMT-50"/>
       <use x="55.615234" xlink:href="#ArialMT-53"/>
       <use x="111.230469" xlink:href="#ArialMT-48"/>
       <use x="166.845703" xlink:href="#ArialMT-48"/>
      </g>
     </g>
    </g>
    <g id="ytick_8">
     <g id="text_14">
      <!-- 3000 -->
      <defs>
       <path d="M 4.203125 18.890625 
L 12.984375 20.0625 
Q 14.5 12.59375 18.140625 9.296875 
Q 21.78125 6 27 6 
Q 33.203125 6 37.46875 10.296875 
Q 41.75 14.59375 41.75 20.953125 
Q 41.75 27 37.796875 30.921875 
Q 33.84375 34.859375 27.734375 34.859375 
Q 25.25 34.859375 21.53125 33.890625 
L 22.515625 41.609375 
Q 23.390625 41.5 23.921875 41.5 
Q 29.546875 41.5 34.03125 44.421875 
Q 38.53125 47.359375 38.53125 53.46875 
Q 38.53125 58.296875 35.25 61.46875 
Q 31.984375 64.65625 26.8125 64.65625 
Q 21.6875 64.65625 18.265625 61.421875 
Q 14.84375 58.203125 13.875 51.765625 
L 5.078125 53.328125 
Q 6.6875 62.15625 12.390625 67.015625 
Q 18.109375 71.875 26.609375 71.875 
Q 32.46875 71.875 37.390625 69.359375 
Q 42.328125 66.84375 44.9375 62.5 
Q 47.5625 58.15625 47.5625 53.265625 
Q 47.5625 48.640625 45.0625 44.828125 
Q 42.578125 41.015625 37.703125 38.765625 
Q 44.046875 37.3125 47.5625 32.6875 
Q 51.078125 28.078125 51.078125 21.140625 
Q 51.078125 11.765625 44.234375 5.25 
Q 37.40625 -1.265625 26.953125 -1.265625 
Q 17.53125 -1.265625 11.296875 4.34375 
Q 5.078125 9.96875 4.203125 18.890625 
z
" id="ArialMT-51"/>
      </defs>
      <g style="fill:#262626;" transform="translate(29.2475 60.687719)scale(0.16 -0.16)">
       <use xlink:href="#ArialMT-51"/>
       <use x="55.615234" xlink:href="#ArialMT-48"/>
       <use x="111.230469" xlink:href="#ArialMT-48"/>
       <use x="166.845703" xlink:href="#ArialMT-48"/>
      </g>
     </g>
    </g>
    <g id="text_15">
     <!-- Count [$h^{-1}$] -->
     <defs>
      <path d="M 6.78125 -19.875 
L 6.78125 71.578125 
L 26.171875 71.578125 
L 26.171875 64.3125 
L 15.578125 64.3125 
L 15.578125 -12.59375 
L 26.171875 -12.59375 
L 26.171875 -19.875 
z
" id="ArialMT-91"/>
      <path d="M 55.71875 33.015625 
L 49.3125 0 
L 40.28125 0 
L 46.6875 32.671875 
Q 47.125 34.96875 47.359375 36.71875 
Q 47.609375 38.484375 47.609375 39.5 
Q 47.609375 43.609375 45.015625 45.890625 
Q 42.4375 48.1875 37.796875 48.1875 
Q 30.5625 48.1875 25.265625 43.296875 
Q 19.96875 38.421875 18.40625 30.328125 
L 12.5 0 
L 3.515625 0 
L 18.3125 75.984375 
L 27.296875 75.984375 
L 21.484375 46.09375 
Q 24.90625 50.6875 30.21875 53.34375 
Q 35.546875 56 41.40625 56 
Q 48.640625 56 52.609375 52.09375 
Q 56.59375 48.1875 56.59375 41.109375 
Q 56.59375 39.359375 56.375 37.359375 
Q 56.15625 35.359375 55.71875 33.015625 
z
" id="DejaVuSans-Oblique-104"/>
      <path d="M 10.59375 35.5 
L 73.1875 35.5 
L 73.1875 27.203125 
L 10.59375 27.203125 
z
" id="DejaVuSans-8722"/>
      <path d="M 12.40625 8.296875 
L 28.515625 8.296875 
L 28.515625 63.921875 
L 10.984375 60.40625 
L 10.984375 69.390625 
L 28.421875 72.90625 
L 38.28125 72.90625 
L 38.28125 8.296875 
L 54.390625 8.296875 
L 54.390625 0 
L 12.40625 0 
z
" id="DejaVuSans-49"/>
      <path d="M 21.296875 -19.875 
L 1.90625 -19.875 
L 1.90625 -12.59375 
L 12.5 -12.59375 
L 12.5 64.3125 
L 1.90625 64.3125 
L 1.90625 71.578125 
L 21.296875 71.578125 
z
" id="ArialMT-93"/>
     </defs>
     <g style="fill:#262626;" transform="translate(21.6 276.687)rotate(-90)scale(0.16 -0.16)">
      <use transform="translate(0 0.684375)" xlink:href="#ArialMT-67"/>
      <use transform="translate(72.216797 0.684375)" xlink:href="#ArialMT-111"/>
      <use transform="translate(127.832031 0.684375)" xlink:href="#ArialMT-117"/>
      <use transform="translate(183.447266 0.684375)" xlink:href="#ArialMT-110"/>
      <use transform="translate(239.0625 0.684375)" xlink:href="#ArialMT-116"/>
      <use transform="translate(266.845703 0.684375)" xlink:href="#ArialMT-32"/>
      <use transform="translate(294.628906 0.684375)" xlink:href="#ArialMT-91"/>
      <use transform="translate(322.412109 0.684375)" xlink:href="#DejaVuSans-Oblique-104"/>
      <use transform="translate(393.238724 38.965625)scale(0.7)" xlink:href="#DejaVuSans-8722"/>
      <use transform="translate(451.891068 38.965625)scale(0.7)" xlink:href="#DejaVuSans-49"/>
      <use transform="translate(499.161576 0.684375)" xlink:href="#ArialMT-93"/>
     </g>
    </g>
   </g>
   <g id="PolyCollection_1">
    <defs>
     <path d="M 102.14766 -68.131091 
L 100.011698 -68.131091 
L 99.436475 -72.306059 
L 98.641481 -76.481027 
L 97.589916 -80.655994 
L 96.260295 -84.830962 
L 94.655784 -89.00593 
L 92.811881 -93.180898 
L 90.800028 -97.355866 
L 88.725094 -101.530834 
L 86.715832 -105.705802 
L 84.909079 -109.88077 
L 83.430306 -114.055737 
L 82.374429 -118.230705 
L 81.79117 -122.405673 
L 81.678362 -126.580641 
L 81.984773 -130.755609 
L 82.621645 -134.930577 
L 83.480083 -139.105545 
L 84.450155 -143.280512 
L 85.437538 -147.45548 
L 86.37454 -151.630448 
L 87.224064 -155.805416 
L 87.976918 -159.980384 
L 88.644335 -164.155352 
L 89.248299 -168.33032 
L 89.812248 -172.505287 
L 90.354048 -176.680255 
L 90.882184 -180.855223 
L 91.395082 -185.030191 
L 91.882797 -189.205159 
L 92.329924 -193.380127 
L 92.718678 -197.555095 
L 93.031457 -201.730062 
L 93.252672 -205.90503 
L 93.370026 -210.079998 
L 93.375636 -214.254966 
L 93.26728 -218.429934 
L 93.049797 -222.604902 
L 92.73631 -226.77987 
L 92.348714 -230.954837 
L 91.916892 -235.129805 
L 91.476383 -239.304773 
L 91.064676 -243.479741 
L 90.716776 -247.654709 
L 90.46098 -251.829677 
L 90.315787 -256.004645 
L 90.288617 -260.179612 
L 90.37649 -264.35458 
L 90.568332 -268.529548 
L 90.848166 -272.704516 
L 91.198341 -276.879484 
L 91.602062 -281.054452 
L 92.044838 -285.22942 
L 92.514804 -289.404388 
L 93.00226 -293.579355 
L 93.49886 -297.754323 
L 93.996905 -301.929291 
L 94.488997 -306.104259 
L 94.968124 -310.279227 
L 95.428012 -314.454195 
L 95.863533 -318.629163 
L 96.270967 -322.80413 
L 96.648013 -326.979098 
L 96.993563 -331.154066 
L 97.307365 -335.329034 
L 97.589684 -339.504002 
L 97.841083 -343.67897 
L 98.06235 -347.853938 
L 98.254565 -352.028905 
L 98.419262 -356.203873 
L 98.558623 -360.378841 
L 98.675652 -364.553809 
L 98.774272 -368.728777 
L 98.859286 -372.903745 
L 98.936147 -377.078713 
L 99.010538 -381.25368 
L 99.087794 -385.428648 
L 99.172267 -389.603616 
L 99.266794 -393.778584 
L 99.372407 -397.953552 
L 99.488361 -402.12852 
L 99.612486 -406.303488 
L 99.741763 -410.478455 
L 99.872943 -414.653423 
L 100.003076 -418.828391 
L 100.129805 -423.003359 
L 100.251426 -427.178327 
L 100.36675 -431.353295 
L 100.474886 -435.528263 
L 100.575041 -439.70323 
L 100.666428 -443.878198 
L 100.748289 -448.053166 
L 100.820001 -452.228134 
L 100.881225 -456.403102 
L 100.932014 -460.57807 
L 100.972858 -464.753038 
L 101.004642 -468.928006 
L 101.028548 -473.102973 
L 101.045909 -477.277941 
L 101.058076 -481.452909 
L 101.101282 -481.452909 
L 101.101282 -481.452909 
L 101.113449 -477.277941 
L 101.13081 -473.102973 
L 101.154715 -468.928006 
L 101.1865 -464.753038 
L 101.227344 -460.57807 
L 101.278133 -456.403102 
L 101.339357 -452.228134 
L 101.411069 -448.053166 
L 101.492929 -443.878198 
L 101.584317 -439.70323 
L 101.684472 -435.528263 
L 101.792608 -431.353295 
L 101.907932 -427.178327 
L 102.029553 -423.003359 
L 102.156282 -418.828391 
L 102.286415 -414.653423 
L 102.417595 -410.478455 
L 102.546871 -406.303488 
L 102.670997 -402.12852 
L 102.786951 -397.953552 
L 102.892564 -393.778584 
L 102.987091 -389.603616 
L 103.071563 -385.428648 
L 103.148819 -381.25368 
L 103.223211 -377.078713 
L 103.300072 -372.903745 
L 103.385086 -368.728777 
L 103.483706 -364.553809 
L 103.600735 -360.378841 
L 103.740096 -356.203873 
L 103.904793 -352.028905 
L 104.097008 -347.853938 
L 104.318275 -343.67897 
L 104.569674 -339.504002 
L 104.851993 -335.329034 
L 105.165795 -331.154066 
L 105.511345 -326.979098 
L 105.888391 -322.80413 
L 106.295825 -318.629163 
L 106.731346 -314.454195 
L 107.191233 -310.279227 
L 107.670361 -306.104259 
L 108.162453 -301.929291 
L 108.660497 -297.754323 
L 109.157098 -293.579355 
L 109.644554 -289.404388 
L 110.11452 -285.22942 
L 110.557295 -281.054452 
L 110.961017 -276.879484 
L 111.311192 -272.704516 
L 111.591026 -268.529548 
L 111.782868 -264.35458 
L 111.870741 -260.179612 
L 111.843571 -256.004645 
L 111.698378 -251.829677 
L 111.442582 -247.654709 
L 111.094682 -243.479741 
L 110.682974 -239.304773 
L 110.242465 -235.129805 
L 109.810644 -230.954837 
L 109.423048 -226.77987 
L 109.109561 -222.604902 
L 108.892078 -218.429934 
L 108.783721 -214.254966 
L 108.789331 -210.079998 
L 108.906686 -205.90503 
L 109.127901 -201.730062 
L 109.44068 -197.555095 
L 109.829434 -193.380127 
L 110.27656 -189.205159 
L 110.764276 -185.030191 
L 111.277174 -180.855223 
L 111.80531 -176.680255 
L 112.34711 -172.505287 
L 112.911058 -168.33032 
L 113.515023 -164.155352 
L 114.18244 -159.980384 
L 114.935294 -155.805416 
L 115.784818 -151.630448 
L 116.72182 -147.45548 
L 117.709203 -143.280512 
L 118.679275 -139.105545 
L 119.537712 -134.930577 
L 120.174585 -130.755609 
L 120.480996 -126.580641 
L 120.368188 -122.405673 
L 119.784928 -118.230705 
L 118.729052 -114.055737 
L 117.250278 -109.88077 
L 115.443526 -105.705802 
L 113.434264 -101.530834 
L 111.35933 -97.355866 
L 109.347477 -93.180898 
L 107.503574 -89.00593 
L 105.899063 -84.830962 
L 104.569442 -80.655994 
L 103.517877 -76.481027 
L 102.722883 -72.306059 
L 102.14766 -68.131091 
z
" id="m728309a82d" style="stroke:#373737;stroke-width:1.5;"/>
    </defs>
    <g clip-path="url(#p1adb79a0dd)">
     <use style="fill:#2b8e70;stroke:#373737;stroke-width:1.5;" x="0" xlink:href="#m728309a82d" y="509.319"/>
    </g>
   </g>
   <g id="PolyCollection_2">
    <defs>
     <path d="M 141.232263 -68.263729 
L 138.906239 -68.263729 
L 138.303494 -72.359403 
L 137.4806 -76.455076 
L 136.403981 -80.55075 
L 135.055769 -84.646424 
L 133.442392 -88.742097 
L 131.601407 -92.837771 
L 129.604361 -96.933445 
L 127.553909 -101.029118 
L 125.574444 -105.124792 
L 123.797026 -109.220466 
L 122.341035 -113.316139 
L 121.296139 -117.411813 
L 120.708507 -121.507487 
L 120.574465 -125.60316 
L 120.843128 -129.698834 
L 121.427414 -133.794508 
L 122.220869 -137.890181 
L 123.116447 -141.985855 
L 124.02318 -146.081529 
L 124.877503 -150.177203 
L 125.647553 -154.272876 
L 126.330577 -158.36855 
L 126.945138 -162.464224 
L 127.520662 -166.559897 
L 128.087022 -170.655571 
L 128.666275 -174.751245 
L 129.267708 -178.846918 
L 129.886348 -182.942592 
L 130.504307 -187.038266 
L 131.09396 -191.133939 
L 131.621952 -195.229613 
L 132.053342 -199.325287 
L 132.355539 -203.42096 
L 132.501974 -207.516634 
L 132.475545 -211.612308 
L 132.271729 -215.707981 
L 131.901034 -219.803655 
L 131.390246 -223.899329 
L 130.781829 -227.995002 
L 130.131055 -232.090676 
L 129.500812 -236.18635 
L 128.954593 -240.282023 
L 128.548723 -244.377697 
L 128.325167 -248.473371 
L 128.306307 -252.569044 
L 128.492701 -256.664718 
L 128.864216 -260.760392 
L 129.384211 -264.856065 
L 130.005815 -268.951739 
L 130.678995 -273.047413 
L 131.357105 -277.143086 
L 132.001893 -281.23876 
L 132.586452 -285.334434 
L 133.096069 -289.430108 
L 133.527337 -293.525781 
L 133.886082 -297.621455 
L 134.184648 -301.717129 
L 134.439017 -305.812802 
L 134.666058 -309.908476 
L 134.881137 -314.00415 
L 135.09626 -318.099823 
L 135.318893 -322.195497 
L 135.551587 -326.291171 
L 135.792455 -330.386844 
L 136.036393 -334.482518 
L 136.276802 -338.578192 
L 136.507431 -342.673865 
L 136.723927 -346.769539 
L 136.924759 -350.865213 
L 137.111332 -354.960886 
L 137.28734 -359.05656 
L 137.457583 -363.152234 
L 137.626597 -367.247907 
L 137.797463 -371.343581 
L 137.971081 -375.439255 
L 138.146036 -379.534928 
L 138.319037 -383.630602 
L 138.485755 -387.726276 
L 138.641836 -391.821949 
L 138.783831 -395.917623 
L 138.909856 -400.013297 
L 139.019864 -404.10897 
L 139.115525 -408.204644 
L 139.199774 -412.300318 
L 139.276163 -416.395991 
L 139.348164 -420.491665 
L 139.418572 -424.587339 
L 139.489098 -428.683013 
L 139.560228 -432.778686 
L 139.63132 -436.87436 
L 139.700904 -440.970034 
L 139.767088 -445.065707 
L 139.827971 -449.161381 
L 139.881999 -453.257055 
L 139.928184 -457.352728 
L 139.966191 -461.448402 
L 139.996294 -465.544076 
L 140.019238 -469.639749 
L 140.036071 -473.735423 
L 140.102431 -473.735423 
L 140.102431 -473.735423 
L 140.119263 -469.639749 
L 140.142208 -465.544076 
L 140.17231 -461.448402 
L 140.210318 -457.352728 
L 140.256503 -453.257055 
L 140.31053 -449.161381 
L 140.371414 -445.065707 
L 140.437597 -440.970034 
L 140.507182 -436.87436 
L 140.578274 -432.778686 
L 140.649403 -428.683013 
L 140.71993 -424.587339 
L 140.790337 -420.491665 
L 140.862339 -416.395991 
L 140.938728 -412.300318 
L 141.022976 -408.204644 
L 141.118637 -404.10897 
L 141.228645 -400.013297 
L 141.35467 -395.917623 
L 141.496665 -391.821949 
L 141.652746 -387.726276 
L 141.819464 -383.630602 
L 141.992465 -379.534928 
L 142.167421 -375.439255 
L 142.341039 -371.343581 
L 142.511905 -367.247907 
L 142.680918 -363.152234 
L 142.851162 -359.05656 
L 143.02717 -354.960886 
L 143.213743 -350.865213 
L 143.414574 -346.769539 
L 143.63107 -342.673865 
L 143.861699 -338.578192 
L 144.102108 -334.482518 
L 144.346047 -330.386844 
L 144.586914 -326.291171 
L 144.819608 -322.195497 
L 145.042241 -318.099823 
L 145.257364 -314.00415 
L 145.472444 -309.908476 
L 145.699484 -305.812802 
L 145.953853 -301.717129 
L 146.25242 -297.621455 
L 146.611164 -293.525781 
L 147.042433 -289.430108 
L 147.552049 -285.334434 
L 148.136608 -281.23876 
L 148.781397 -277.143086 
L 149.459506 -273.047413 
L 150.132687 -268.951739 
L 150.754291 -264.856065 
L 151.274286 -260.760392 
L 151.6458 -256.664718 
L 151.832194 -252.569044 
L 151.813334 -248.473371 
L 151.589778 -244.377697 
L 151.183908 -240.282023 
L 150.63769 -236.18635 
L 150.007446 -232.090676 
L 149.356673 -227.995002 
L 148.748256 -223.899329 
L 148.237467 -219.803655 
L 147.866773 -215.707981 
L 147.662956 -211.612308 
L 147.636527 -207.516634 
L 147.782963 -203.42096 
L 148.085159 -199.325287 
L 148.51655 -195.229613 
L 149.044541 -191.133939 
L 149.634194 -187.038266 
L 150.252154 -182.942592 
L 150.870794 -178.846918 
L 151.472227 -174.751245 
L 152.05148 -170.655571 
L 152.61784 -166.559897 
L 153.193363 -162.464224 
L 153.807924 -158.36855 
L 154.490949 -154.272876 
L 155.260998 -150.177203 
L 156.115321 -146.081529 
L 157.022054 -141.985855 
L 157.917632 -137.890181 
L 158.711088 -133.794508 
L 159.295374 -129.698834 
L 159.564037 -125.60316 
L 159.429994 -121.507487 
L 158.842362 -117.411813 
L 157.797466 -113.316139 
L 156.341475 -109.220466 
L 154.564057 -105.124792 
L 152.584592 -101.029118 
L 150.534141 -96.933445 
L 148.537095 -92.837771 
L 146.69611 -88.742097 
L 145.082733 -84.646424 
L 143.73452 -80.55075 
L 142.657901 -76.455076 
L 141.835007 -72.359403 
L 141.232263 -68.263729 
z
" id="m815d18d65c" style="stroke:#373737;stroke-width:1.5;"/>
    </defs>
    <g clip-path="url(#p1adb79a0dd)">
     <use style="fill:#be631d;stroke:#373737;stroke-width:1.5;" x="0" xlink:href="#m815d18d65c" y="509.319"/>
    </g>
   </g>
   <g id="PolyCollection_3">
    <defs>
     <path d="M 199.862356 -68.644034 
L 197.244861 -68.644034 
L 196.608714 -72.693717 
L 195.756683 -76.743401 
L 194.66059 -80.793084 
L 193.30793 -84.842768 
L 191.709275 -88.892451 
L 189.903936 -92.942135 
L 187.962115 -96.991818 
L 185.982117 -101.041502 
L 184.08207 -105.091185 
L 182.386816 -109.140868 
L 181.01187 -113.190552 
L 180.047331 -117.240235 
L 179.5449 -121.289919 
L 179.510697 -125.339602 
L 179.905362 -129.389286 
L 180.651375 -133.438969 
L 181.645946 -137.488652 
L 182.77674 -141.538336 
L 183.937328 -145.588019 
L 185.03959 -149.637703 
L 186.021286 -153.687386 
L 186.84822 -157.73707 
L 187.51163 -161.786753 
L 188.022269 -165.836436 
L 188.403032 -169.88612 
L 188.68188 -173.935803 
L 188.886339 -177.985487 
L 189.040172 -182.03517 
L 189.162176 -186.084854 
L 189.266543 -190.134537 
L 189.36395 -194.18422 
L 189.462603 -198.233904 
L 189.568664 -202.283587 
L 189.685906 -206.333271 
L 189.814774 -210.382954 
L 189.951319 -214.432638 
L 190.086568 -218.482321 
L 190.206781 -222.532004 
L 190.294821 -226.581688 
L 190.332518 -230.631371 
L 190.303663 -234.681055 
L 190.197025 -238.730738 
L 190.008777 -242.780422 
L 189.743838 -246.830105 
L 189.415846 -250.879789 
L 189.045781 -254.929472 
L 188.659513 -258.979155 
L 188.284741 -263.028839 
L 187.94786 -267.078522 
L 187.671256 -271.128206 
L 187.47139 -275.177889 
L 187.357858 -279.227573 
L 187.333423 -283.277256 
L 187.394857 -287.326939 
L 187.534347 -291.376623 
L 187.741175 -295.426306 
L 188.003422 -299.47599 
L 188.309472 -303.525673 
L 188.649178 -307.575357 
L 189.014615 -311.62504 
L 189.400382 -315.674723 
L 189.803481 -319.724407 
L 190.222827 -323.77409 
L 190.658502 -327.823774 
L 191.110872 -331.873457 
L 191.579743 -335.923141 
L 192.06369 -339.972824 
L 192.559673 -344.022507 
L 193.062993 -348.072191 
L 193.567553 -352.121874 
L 194.06634 -356.171558 
L 194.552002 -360.221241 
L 195.01741 -364.270925 
L 195.456106 -368.320608 
L 195.862628 -372.370292 
L 196.232702 -376.419975 
L 196.563374 -380.469658 
L 196.853087 -384.519342 
L 197.101745 -388.569025 
L 197.310737 -392.618709 
L 197.482894 -396.668392 
L 197.622338 -400.718076 
L 197.734194 -404.767759 
L 197.824183 -408.817442 
L 197.898125 -412.867126 
L 197.961426 -416.916809 
L 198.018626 -420.966493 
L 198.073074 -425.016176 
L 198.126784 -429.06586 
L 198.180487 -433.115543 
L 198.23385 -437.165226 
L 198.285809 -441.21491 
L 198.334956 -445.264593 
L 198.37989 -449.314277 
L 198.419499 -453.36396 
L 198.453121 -457.413644 
L 198.48059 -461.463327 
L 198.502188 -465.51301 
L 198.518534 -469.562694 
L 198.588683 -469.562694 
L 198.588683 -469.562694 
L 198.605029 -465.51301 
L 198.626628 -461.463327 
L 198.654096 -457.413644 
L 198.687718 -453.36396 
L 198.727327 -449.314277 
L 198.772261 -445.264593 
L 198.821408 -441.21491 
L 198.873367 -437.165226 
L 198.92673 -433.115543 
L 198.980433 -429.06586 
L 199.034143 -425.016176 
L 199.088591 -420.966493 
L 199.145791 -416.916809 
L 199.209092 -412.867126 
L 199.283034 -408.817442 
L 199.373023 -404.767759 
L 199.484879 -400.718076 
L 199.624323 -396.668392 
L 199.79648 -392.618709 
L 200.005472 -388.569025 
L 200.25413 -384.519342 
L 200.543843 -380.469658 
L 200.874515 -376.419975 
L 201.244589 -372.370292 
L 201.651111 -368.320608 
L 202.089807 -364.270925 
L 202.555215 -360.221241 
L 203.040878 -356.171558 
L 203.539664 -352.121874 
L 204.044224 -348.072191 
L 204.547544 -344.022507 
L 205.043527 -339.972824 
L 205.527474 -335.923141 
L 205.996345 -331.873457 
L 206.448715 -327.823774 
L 206.88439 -323.77409 
L 207.303736 -319.724407 
L 207.706835 -315.674723 
L 208.092602 -311.62504 
L 208.458039 -307.575357 
L 208.797745 -303.525673 
L 209.103795 -299.47599 
L 209.366042 -295.426306 
L 209.57287 -291.376623 
L 209.71236 -287.326939 
L 209.773794 -283.277256 
L 209.749359 -279.227573 
L 209.635827 -275.177889 
L 209.435961 -271.128206 
L 209.159357 -267.078522 
L 208.822476 -263.028839 
L 208.447705 -258.979155 
L 208.061436 -254.929472 
L 207.691371 -250.879789 
L 207.363379 -246.830105 
L 207.09844 -242.780422 
L 206.910192 -238.730738 
L 206.803554 -234.681055 
L 206.774699 -230.631371 
L 206.812396 -226.581688 
L 206.900436 -222.532004 
L 207.020649 -218.482321 
L 207.155899 -214.432638 
L 207.292443 -210.382954 
L 207.421311 -206.333271 
L 207.538553 -202.283587 
L 207.644614 -198.233904 
L 207.743267 -194.18422 
L 207.840674 -190.134537 
L 207.945041 -186.084854 
L 208.067045 -182.03517 
L 208.220878 -177.985487 
L 208.425337 -173.935803 
L 208.704185 -169.88612 
L 209.084948 -165.836436 
L 209.595587 -161.786753 
L 210.258998 -157.73707 
L 211.085931 -153.687386 
L 212.067627 -149.637703 
L 213.169889 -145.588019 
L 214.330477 -141.538336 
L 215.461271 -137.488652 
L 216.455842 -133.438969 
L 217.201856 -129.389286 
L 217.59652 -125.339602 
L 217.562317 -121.289919 
L 217.059886 -117.240235 
L 216.095347 -113.190552 
L 214.720401 -109.140868 
L 213.025147 -105.091185 
L 211.1251 -101.041502 
L 209.145102 -96.991818 
L 207.203281 -92.942135 
L 205.397942 -88.892451 
L 203.799287 -84.842768 
L 202.446627 -80.793084 
L 201.350534 -76.743401 
L 200.498504 -72.693717 
L 199.862356 -68.644034 
z
" id="m946242263d" style="stroke:#373737;stroke-width:1.5;"/>
    </defs>
    <g clip-path="url(#p1adb79a0dd)">
     <use style="fill:#2b8e70;stroke:#373737;stroke-width:1.5;" x="0" xlink:href="#m946242263d" y="509.319"/>
    </g>
   </g>
   <g id="PolyCollection_4">
    <defs>
     <path d="M 238.95913 -68.503376 
L 236.127231 -68.503376 
L 235.435755 -72.555901 
L 234.510699 -76.608426 
L 233.323723 -80.660951 
L 231.864966 -84.713476 
L 230.151147 -88.766001 
L 228.231365 -92.818526 
L 226.188587 -96.871051 
L 224.135309 -100.923576 
L 222.202986 -104.976101 
L 220.526298 -109.028626 
L 219.224756 -113.081151 
L 218.385141 -117.133676 
L 218.048394 -121.186201 
L 218.203799 -125.238726 
L 218.791682 -129.291251 
L 219.713998 -133.343776 
L 220.850402 -137.396301 
L 222.076407 -141.448826 
L 223.280053 -145.501351 
L 224.37425 -149.553876 
L 225.303209 -153.606401 
L 226.042878 -157.658926 
L 226.596471 -161.711451 
L 226.986994 -165.763976 
L 227.248792 -169.816501 
L 227.419895 -173.869026 
L 227.536248 -177.921551 
L 227.628236 -181.974076 
L 227.719248 -186.026601 
L 227.825649 -190.079126 
L 227.957401 -194.131651 
L 228.118707 -198.184176 
L 228.308369 -202.236701 
L 228.519854 -206.289226 
L 228.741374 -210.341751 
L 228.956353 -214.394276 
L 229.144616 -218.446801 
L 229.284395 -222.499326 
L 229.355011 -226.551851 
L 229.339798 -230.604376 
L 229.228747 -234.656901 
L 229.020343 -238.709426 
L 228.722245 -242.761951 
L 228.35068 -246.814476 
L 227.928736 -250.867001 
L 227.483873 -254.919526 
L 227.045138 -258.972051 
L 226.640474 -263.024576 
L 226.294467 -267.077101 
L 226.026687 -271.129626 
L 225.850676 -275.182151 
L 225.773538 -279.234676 
L 225.796081 -283.287201 
L 225.913456 -287.339726 
L 226.116267 -291.392251 
L 226.392082 -295.444776 
L 226.727225 -299.497301 
L 227.108634 -303.549826 
L 227.525499 -307.602351 
L 227.97036 -311.654876 
L 228.439434 -315.707401 
L 228.932082 -319.759926 
L 229.44951 -323.812451 
L 229.993033 -327.864976 
L 230.56231 -331.917501 
L 231.153989 -335.970026 
L 231.761088 -340.022551 
L 232.373247 -344.075076 
L 232.977737 -348.127601 
L 233.560979 -352.180126 
L 234.110181 -356.232651 
L 234.614767 -360.285176 
L 235.067335 -364.337701 
L 235.464048 -368.390226 
L 235.804506 -372.442751 
L 236.091216 -376.495276 
L 236.328846 -380.547801 
L 236.52342 -384.600326 
L 236.681571 -388.652851 
L 236.809922 -392.705376 
L 236.91462 -396.757901 
L 237.001029 -400.810426 
L 237.073566 -404.862951 
L 237.135673 -408.915476 
L 237.18988 -412.968001 
L 237.237949 -417.020526 
L 237.281036 -421.073051 
L 237.319866 -425.125576 
L 237.354876 -429.178101 
L 237.386326 -433.230626 
L 237.41437 -437.283151 
L 237.439112 -441.335676 
L 237.460636 -445.388201 
L 237.479038 -449.440726 
L 237.49445 -453.493251 
L 237.507054 -457.545776 
L 237.517091 -461.598301 
L 237.524856 -465.650826 
L 237.53068 -469.703351 
L 237.555681 -469.703351 
L 237.555681 -469.703351 
L 237.561504 -465.650826 
L 237.569269 -461.598301 
L 237.579307 -457.545776 
L 237.591911 -453.493251 
L 237.607323 -449.440726 
L 237.625725 -445.388201 
L 237.647249 -441.335676 
L 237.67199 -437.283151 
L 237.700035 -433.230626 
L 237.731484 -429.178101 
L 237.766495 -425.125576 
L 237.805325 -421.073051 
L 237.848412 -417.020526 
L 237.89648 -412.968001 
L 237.950688 -408.915476 
L 238.012795 -404.862951 
L 238.085332 -400.810426 
L 238.17174 -396.757901 
L 238.276439 -392.705376 
L 238.40479 -388.652851 
L 238.562941 -384.600326 
L 238.757514 -380.547801 
L 238.995144 -376.495276 
L 239.281855 -372.442751 
L 239.622313 -368.390226 
L 240.019026 -364.337701 
L 240.471593 -360.285176 
L 240.97618 -356.232651 
L 241.525382 -352.180126 
L 242.108624 -348.127601 
L 242.713114 -344.075076 
L 243.325273 -340.022551 
L 243.932372 -335.970026 
L 244.52405 -331.917501 
L 245.093328 -327.864976 
L 245.636851 -323.812451 
L 246.154279 -319.759926 
L 246.646927 -315.707401 
L 247.116001 -311.654876 
L 247.560862 -307.602351 
L 247.977726 -303.549826 
L 248.359136 -299.497301 
L 248.694279 -295.444776 
L 248.970093 -291.392251 
L 249.172905 -287.339726 
L 249.29028 -283.287201 
L 249.312823 -279.234676 
L 249.235685 -275.182151 
L 249.059674 -271.129626 
L 248.791894 -267.077101 
L 248.445886 -263.024576 
L 248.041222 -258.972051 
L 247.602487 -254.919526 
L 247.157625 -250.867001 
L 246.73568 -246.814476 
L 246.364116 -242.761951 
L 246.066017 -238.709426 
L 245.857614 -234.656901 
L 245.746563 -230.604376 
L 245.731349 -226.551851 
L 245.801966 -222.499326 
L 245.941745 -218.446801 
L 246.130008 -214.394276 
L 246.344987 -210.341751 
L 246.566507 -206.289226 
L 246.777992 -202.236701 
L 246.967653 -198.184176 
L 247.12896 -194.131651 
L 247.260712 -190.079126 
L 247.367113 -186.026601 
L 247.458125 -181.974076 
L 247.550113 -177.921551 
L 247.666466 -173.869026 
L 247.837569 -169.816501 
L 248.099367 -165.763976 
L 248.489889 -161.711451 
L 249.043483 -157.658926 
L 249.783152 -153.606401 
L 250.712111 -149.553876 
L 251.806307 -145.501351 
L 253.009954 -141.448826 
L 254.235959 -137.396301 
L 255.372363 -133.343776 
L 256.294679 -129.291251 
L 256.882562 -125.238726 
L 257.037966 -121.186201 
L 256.70122 -117.133676 
L 255.861605 -113.081151 
L 254.560063 -109.028626 
L 252.883375 -104.976101 
L 250.951052 -100.923576 
L 248.897774 -96.871051 
L 246.854996 -92.818526 
L 244.935214 -88.766001 
L 243.221394 -84.713476 
L 241.762638 -80.660951 
L 240.575661 -76.608426 
L 239.650606 -72.555901 
L 238.95913 -68.503376 
z
" id="m9af85136e0" style="stroke:#373737;stroke-width:1.5;"/>
    </defs>
    <g clip-path="url(#p1adb79a0dd)">
     <use style="fill:#be631d;stroke:#373737;stroke-width:1.5;" x="0" xlink:href="#m9af85136e0" y="509.319"/>
    </g>
   </g>
   <g id="PolyCollection_5">
    <defs>
     <path d="M 297.007346 -86.959053 
L 295.047731 -86.959053 
L 294.564597 -89.037955 
L 293.910158 -91.116856 
L 293.056188 -93.195758 
L 291.983574 -95.27466 
L 290.688084 -97.353562 
L 289.185482 -99.432463 
L 287.514718 -101.511365 
L 285.738031 -103.590267 
L 283.937267 -105.669168 
L 282.206398 -107.74807 
L 280.641159 -109.826972 
L 279.327433 -111.905873 
L 278.330498 -113.984775 
L 277.687151 -116.063677 
L 277.402186 -118.142578 
L 277.449774 -120.22148 
L 277.779251 -122.300382 
L 278.323964 -124.379283 
L 279.011357 -126.458185 
L 279.772441 -128.537087 
L 280.549199 -130.615988 
L 281.299099 -132.69489 
L 281.996551 -134.773792 
L 282.631716 -136.852693 
L 283.207395 -138.931595 
L 283.734849 -141.010497 
L 284.229392 -143.089398 
L 284.706393 -145.1683 
L 285.178173 -147.247202 
L 285.65206 -149.326104 
L 286.129678 -151.405005 
L 286.607358 -153.483907 
L 287.077429 -155.562809 
L 287.530029 -157.64171 
L 287.955029 -159.720612 
L 288.343705 -161.799514 
L 288.689872 -163.878415 
L 288.990356 -165.957317 
L 289.244822 -168.036219 
L 289.455126 -170.11512 
L 289.624428 -172.194022 
L 289.756319 -174.272924 
L 289.854178 -176.351825 
L 289.920839 -178.430727 
L 289.958583 -180.509629 
L 289.969355 -182.58853 
L 289.955034 -184.667432 
L 289.917642 -186.746334 
L 289.85936 -188.825235 
L 289.78233 -190.904137 
L 289.688294 -192.983039 
L 289.578164 -195.06194 
L 289.451644 -197.140842 
L 289.307032 -199.219744 
L 289.141253 -201.298646 
L 288.95015 -203.377547 
L 288.729015 -205.456449 
L 288.47328 -207.535351 
L 288.179297 -209.614252 
L 287.845135 -211.693154 
L 287.471306 -213.772056 
L 287.06137 -215.850957 
L 286.622353 -217.929859 
L 286.164949 -220.008761 
L 285.703454 -222.087662 
L 285.255409 -224.166564 
L 284.840952 -226.245466 
L 284.481857 -228.324367 
L 284.200299 -230.403269 
L 284.017396 -232.482171 
L 283.951602 -234.561072 
L 284.017107 -236.639974 
L 284.222414 -238.718876 
L 284.569282 -240.797777 
L 285.052221 -242.876679 
L 285.65866 -244.955581 
L 286.3698 -247.034482 
L 287.162061 -249.113384 
L 288.008942 -251.192286 
L 288.88303 -253.271188 
L 289.757914 -255.350089 
L 290.609772 -257.428991 
L 291.418526 -259.507893 
L 292.168498 -261.586794 
L 292.848622 -263.665696 
L 293.452293 -265.744598 
L 293.976954 -267.823499 
L 294.423521 -269.902401 
L 294.795723 -271.981303 
L 295.099408 -274.060204 
L 295.341865 -276.139106 
L 295.531183 -278.218008 
L 295.675679 -280.296909 
L 295.783423 -282.375811 
L 295.861873 -284.454713 
L 295.917622 -286.533614 
L 295.956271 -288.612516 
L 295.982403 -290.691418 
L 295.999628 -292.770319 
L 296.055449 -292.770319 
L 296.055449 -292.770319 
L 296.072673 -290.691418 
L 296.098805 -288.612516 
L 296.137455 -286.533614 
L 296.193203 -284.454713 
L 296.271653 -282.375811 
L 296.379398 -280.296909 
L 296.523894 -278.218008 
L 296.713211 -276.139106 
L 296.955668 -274.060204 
L 297.259353 -271.981303 
L 297.631555 -269.902401 
L 298.078122 -267.823499 
L 298.602784 -265.744598 
L 299.206455 -263.665696 
L 299.886578 -261.586794 
L 300.63655 -259.507893 
L 301.445304 -257.428991 
L 302.297162 -255.350089 
L 303.172046 -253.271188 
L 304.046134 -251.192286 
L 304.893015 -249.113384 
L 305.685276 -247.034482 
L 306.396416 -244.955581 
L 307.002856 -242.876679 
L 307.485795 -240.797777 
L 307.832662 -238.718876 
L 308.037969 -236.639974 
L 308.103475 -234.561072 
L 308.03768 -232.482171 
L 307.854777 -230.403269 
L 307.57322 -228.324367 
L 307.214124 -226.245466 
L 306.799667 -224.166564 
L 306.351622 -222.087662 
L 305.890127 -220.008761 
L 305.432724 -217.929859 
L 304.993707 -215.850957 
L 304.58377 -213.772056 
L 304.209941 -211.693154 
L 303.875779 -209.614252 
L 303.581797 -207.535351 
L 303.326061 -205.456449 
L 303.104926 -203.377547 
L 302.913824 -201.298646 
L 302.748044 -199.219744 
L 302.603433 -197.140842 
L 302.476913 -195.06194 
L 302.366782 -192.983039 
L 302.272746 -190.904137 
L 302.195716 -188.825235 
L 302.137434 -186.746334 
L 302.100043 -184.667432 
L 302.085722 -182.58853 
L 302.096493 -180.509629 
L 302.134237 -178.430727 
L 302.200898 -176.351825 
L 302.298757 -174.272924 
L 302.430649 -172.194022 
L 302.59995 -170.11512 
L 302.810254 -168.036219 
L 303.06472 -165.957317 
L 303.365204 -163.878415 
L 303.711371 -161.799514 
L 304.100047 -159.720612 
L 304.525048 -157.64171 
L 304.977648 -155.562809 
L 305.447718 -153.483907 
L 305.925398 -151.405005 
L 306.403016 -149.326104 
L 306.876904 -147.247202 
L 307.348684 -145.1683 
L 307.825685 -143.089398 
L 308.320228 -141.010497 
L 308.847682 -138.931595 
L 309.42336 -136.852693 
L 310.058526 -134.773792 
L 310.755977 -132.69489 
L 311.505877 -130.615988 
L 312.282635 -128.537087 
L 313.04372 -126.458185 
L 313.731113 -124.379283 
L 314.275825 -122.300382 
L 314.605302 -120.22148 
L 314.652891 -118.142578 
L 314.367926 -116.063677 
L 313.724578 -113.984775 
L 312.727643 -111.905873 
L 311.413917 -109.826972 
L 309.848678 -107.74807 
L 308.11781 -105.669168 
L 306.317045 -103.590267 
L 304.540359 -101.511365 
L 302.869594 -99.432463 
L 301.366992 -97.353562 
L 300.071503 -95.27466 
L 298.998888 -93.195758 
L 298.144918 -91.116856 
L 297.49048 -89.037955 
L 297.007346 -86.959053 
z
" id="m0e0da5113e" style="stroke:#373737;stroke-width:1.5;"/>
    </defs>
    <g clip-path="url(#p1adb79a0dd)">
     <use style="fill:#2b8e70;stroke:#373737;stroke-width:1.5;" x="0" xlink:href="#m0e0da5113e" y="509.319"/>
    </g>
   </g>
   <g id="PolyCollection_6">
    <defs>
     <path d="M 336.510372 -83.601602 
L 333.523848 -83.601602 
L 332.91724 -85.736723 
L 332.13816 -87.871844 
L 331.168358 -90.006964 
L 329.999246 -92.142085 
L 328.635755 -94.277206 
L 327.099412 -96.412326 
L 325.429878 -98.547447 
L 323.684365 -100.682568 
L 321.934553 -102.817688 
L 320.261089 -104.952809 
L 318.746197 -107.08793 
L 317.465328 -109.22305 
L 316.479104 -111.358171 
L 315.826784 -113.493292 
L 315.522324 -115.628413 
L 315.553634 -117.763533 
L 315.885089 -119.898654 
L 316.462796 -122.033775 
L 317.221668 -124.168895 
L 318.093148 -126.304016 
L 319.012409 -128.439137 
L 319.924123 -130.574257 
L 320.786192 -132.709378 
L 321.5713 -134.844499 
L 322.266446 -136.97962 
L 322.870908 -139.11474 
L 323.393208 -141.249861 
L 323.847641 -143.384982 
L 324.250889 -145.520102 
L 324.619096 -147.655223 
L 324.96565 -149.790344 
L 325.299811 -151.925464 
L 325.626164 -154.060585 
L 325.944843 -156.195706 
L 326.252347 -158.330826 
L 326.542743 -160.465947 
L 326.809032 -162.601068 
L 327.044453 -164.736189 
L 327.243542 -166.871309 
L 327.402824 -169.00643 
L 327.521099 -171.141551 
L 327.599347 -173.276671 
L 327.64034 -175.411792 
L 327.648083 -177.546913 
L 327.627209 -179.682033 
L 327.582434 -181.817154 
L 327.518156 -183.952275 
L 327.438227 -186.087396 
L 327.345897 -188.222516 
L 327.243914 -190.357637 
L 327.134708 -192.492758 
L 327.020619 -194.627878 
L 326.904102 -196.762999 
L 326.787872 -198.89812 
L 326.674958 -201.03324 
L 326.568669 -203.168361 
L 326.472473 -205.303482 
L 326.389844 -207.438603 
L 326.324096 -209.573723 
L 326.278259 -211.708844 
L 326.255001 -213.843965 
L 326.25663 -215.979085 
L 326.285135 -218.114206 
L 326.342252 -220.249327 
L 326.42952 -222.384447 
L 326.548282 -224.519568 
L 326.69963 -226.654689 
L 326.88427 -228.789809 
L 327.102356 -230.92493 
L 327.353305 -233.060051 
L 327.635653 -235.195172 
L 327.946987 -237.330292 
L 328.283984 -239.465413 
L 328.642557 -241.600534 
L 329.018095 -243.735654 
L 329.405757 -245.870775 
L 329.800772 -248.005896 
L 330.198689 -250.141016 
L 330.595534 -252.276137 
L 330.987872 -254.411258 
L 331.372748 -256.546379 
L 331.747571 -258.681499 
L 332.109945 -260.81662 
L 332.457532 -262.951741 
L 332.787961 -265.086861 
L 333.098832 -267.221982 
L 333.387793 -269.357103 
L 333.652701 -271.492223 
L 333.891813 -273.627344 
L 334.10397 -275.762465 
L 334.288746 -277.897585 
L 334.446514 -280.032706 
L 334.578437 -282.167827 
L 334.686375 -284.302948 
L 334.772724 -286.438068 
L 334.840226 -288.573189 
L 334.891767 -290.70831 
L 334.93019 -292.84343 
L 334.958147 -294.978551 
L 335.076073 -294.978551 
L 335.076073 -294.978551 
L 335.10403 -292.84343 
L 335.142453 -290.70831 
L 335.193994 -288.573189 
L 335.261496 -286.438068 
L 335.347845 -284.302948 
L 335.455783 -282.167827 
L 335.587706 -280.032706 
L 335.745474 -277.897585 
L 335.93025 -275.762465 
L 336.142407 -273.627344 
L 336.381519 -271.492223 
L 336.646427 -269.357103 
L 336.935388 -267.221982 
L 337.246259 -265.086861 
L 337.576688 -262.951741 
L 337.924275 -260.81662 
L 338.286649 -258.681499 
L 338.661472 -256.546379 
L 339.046348 -254.411258 
L 339.438686 -252.276137 
L 339.835531 -250.141016 
L 340.233448 -248.005896 
L 340.628463 -245.870775 
L 341.016125 -243.735654 
L 341.391663 -241.600534 
L 341.750236 -239.465413 
L 342.087233 -237.330292 
L 342.398567 -235.195172 
L 342.680915 -233.060051 
L 342.931864 -230.92493 
L 343.14995 -228.789809 
L 343.33459 -226.654689 
L 343.485938 -224.519568 
L 343.6047 -222.384447 
L 343.691968 -220.249327 
L 343.749085 -218.114206 
L 343.77759 -215.979085 
L 343.779219 -213.843965 
L 343.755962 -211.708844 
L 343.710124 -209.573723 
L 343.644376 -207.438603 
L 343.561747 -205.303482 
L 343.465551 -203.168361 
L 343.359262 -201.03324 
L 343.246348 -198.89812 
L 343.130118 -196.762999 
L 343.013601 -194.627878 
L 342.899512 -192.492758 
L 342.790306 -190.357637 
L 342.688323 -188.222516 
L 342.595993 -186.087396 
L 342.516064 -183.952275 
L 342.451786 -181.817154 
L 342.407011 -179.682033 
L 342.386137 -177.546913 
L 342.39388 -175.411792 
L 342.434873 -173.276671 
L 342.513121 -171.141551 
L 342.631396 -169.00643 
L 342.790678 -166.871309 
L 342.989767 -164.736189 
L 343.225188 -162.601068 
L 343.491477 -160.465947 
L 343.781873 -158.330826 
L 344.089377 -156.195706 
L 344.408056 -154.060585 
L 344.734409 -151.925464 
L 345.06857 -149.790344 
L 345.415124 -147.655223 
L 345.783331 -145.520102 
L 346.186579 -143.384982 
L 346.641012 -141.249861 
L 347.163312 -139.11474 
L 347.767774 -136.97962 
L 348.46292 -134.844499 
L 349.248028 -132.709378 
L 350.110097 -130.574257 
L 351.021811 -128.439137 
L 351.941072 -126.304016 
L 352.812552 -124.168895 
L 353.571424 -122.033775 
L 354.149131 -119.898654 
L 354.480586 -117.763533 
L 354.511896 -115.628413 
L 354.207436 -113.493292 
L 353.555116 -111.358171 
L 352.568892 -109.22305 
L 351.288023 -107.08793 
L 349.773131 -104.952809 
L 348.099667 -102.817688 
L 346.349855 -100.682568 
L 344.604342 -98.547447 
L 342.934809 -96.412326 
L 341.398465 -94.277206 
L 340.034974 -92.142085 
L 338.865862 -90.006964 
L 337.89606 -87.871844 
L 337.11698 -85.736723 
L 336.510372 -83.601602 
z
" id="me5692a2610" style="stroke:#373737;stroke-width:1.5;"/>
    </defs>
    <g clip-path="url(#p1adb79a0dd)">
     <use style="fill:#be631d;stroke:#373737;stroke-width:1.5;" x="0" xlink:href="#me5692a2610" y="509.319"/>
    </g>
   </g>
   <g id="PolyCollection_7">
    <defs>
     <path d="M 394.364032 -88.015147 
L 392.638904 -88.015147 
L 392.084503 -90.440696 
L 391.279873 -92.866245 
L 390.176091 -95.291794 
L 388.7476 -97.717342 
L 387.007967 -100.142891 
L 385.021804 -102.56844 
L 382.907693 -104.993989 
L 380.828349 -107.419538 
L 378.967699 -109.845086 
L 377.498899 -112.270635 
L 376.551061 -114.696184 
L 376.183805 -117.121733 
L 376.37687 -119.547282 
L 377.037531 -121.972831 
L 378.023035 -124.398379 
L 379.171033 -126.823928 
L 380.329403 -129.249477 
L 381.378348 -131.675026 
L 382.24119 -134.100575 
L 382.884206 -136.526124 
L 383.308741 -138.951672 
L 383.539911 -141.377221 
L 383.615586 -143.80277 
L 383.577873 -146.228319 
L 383.467645 -148.653868 
L 383.321576 -151.079416 
L 383.170698 -153.504965 
L 383.039588 -155.930514 
L 382.945687 -158.356063 
L 382.898625 -160.781612 
L 382.899702 -163.207161 
L 382.941811 -165.632709 
L 383.010064 -168.058258 
L 383.083306 -170.483807 
L 383.136589 -172.909356 
L 383.144512 -175.334905 
L 383.085183 -177.760453 
L 382.944365 -180.186002 
L 382.719211 -182.611551 
L 382.420795 -185.0371 
L 382.074685 -187.462649 
L 381.718934 -189.888198 
L 381.399345 -192.313746 
L 381.162493 -194.739295 
L 381.047631 -197.164844 
L 381.079121 -199.590393 
L 381.26111 -202.015942 
L 381.575825 -204.441491 
L 381.986114 -206.867039 
L 382.441923 -209.292588 
L 382.889461 -211.718137 
L 383.281211 -214.143686 
L 383.58473 -216.569235 
L 383.788481 -218.994783 
L 383.90358 -221.420332 
L 383.961254 -223.845881 
L 384.006658 -226.27143 
L 384.090373 -228.696979 
L 384.259274 -231.122528 
L 384.54842 -233.548076 
L 384.975332 -235.973625 
L 385.537498 -238.399174 
L 386.213326 -240.824723 
L 386.966165 -243.250272 
L 387.750513 -245.675821 
L 388.519188 -248.101369 
L 389.230184 -250.526918 
L 389.852055 -252.952467 
L 390.367059 -255.378016 
L 390.771784 -257.803565 
L 391.075426 -260.229113 
L 391.296327 -262.654662 
L 391.457566 -265.080211 
L 391.582508 -267.50576 
L 391.691061 -269.931309 
L 391.797196 -272.356858 
L 391.907969 -274.782406 
L 392.023986 -277.207955 
L 392.141 -279.633504 
L 392.25219 -282.059053 
L 392.350593 -284.484602 
L 392.431241 -286.910151 
L 392.492595 -289.335699 
L 392.537058 -291.761248 
L 392.5705 -294.186797 
L 392.60093 -296.612346 
L 392.636656 -299.037895 
L 392.684404 -301.463443 
L 392.747859 -303.888992 
L 392.827007 -306.314541 
L 392.91839 -308.74009 
L 393.016138 -311.165639 
L 393.11343 -313.591188 
L 393.20395 -316.016736 
L 393.282979 -318.442285 
L 393.347921 -320.867834 
L 393.398273 -323.293383 
L 393.435177 -325.718932 
L 393.460781 -328.144481 
L 393.542155 -328.144481 
L 393.542155 -328.144481 
L 393.567759 -325.718932 
L 393.604663 -323.293383 
L 393.655015 -320.867834 
L 393.719957 -318.442285 
L 393.798986 -316.016736 
L 393.889506 -313.591188 
L 393.986798 -311.165639 
L 394.084546 -308.74009 
L 394.175928 -306.314541 
L 394.255076 -303.888992 
L 394.318532 -301.463443 
L 394.366279 -299.037895 
L 394.402006 -296.612346 
L 394.432435 -294.186797 
L 394.465877 -291.761248 
L 394.510341 -289.335699 
L 394.571695 -286.910151 
L 394.652343 -284.484602 
L 394.750746 -282.059053 
L 394.861935 -279.633504 
L 394.97895 -277.207955 
L 395.094966 -274.782406 
L 395.205739 -272.356858 
L 395.311874 -269.931309 
L 395.420428 -267.50576 
L 395.54537 -265.080211 
L 395.706609 -262.654662 
L 395.927509 -260.229113 
L 396.231152 -257.803565 
L 396.635876 -255.378016 
L 397.15088 -252.952467 
L 397.772751 -250.526918 
L 398.483748 -248.101369 
L 399.252423 -245.675821 
L 400.03677 -243.250272 
L 400.789609 -240.824723 
L 401.465437 -238.399174 
L 402.027603 -235.973625 
L 402.454515 -233.548076 
L 402.743661 -231.122528 
L 402.912563 -228.696979 
L 402.996278 -226.27143 
L 403.041681 -223.845881 
L 403.099356 -221.420332 
L 403.214454 -218.994783 
L 403.418205 -216.569235 
L 403.721725 -214.143686 
L 404.113474 -211.718137 
L 404.561012 -209.292588 
L 405.016822 -206.867039 
L 405.427111 -204.441491 
L 405.741825 -202.015942 
L 405.923815 -199.590393 
L 405.955305 -197.164844 
L 405.840443 -194.739295 
L 405.603591 -192.313746 
L 405.284002 -189.888198 
L 404.92825 -187.462649 
L 404.58214 -185.0371 
L 404.283725 -182.611551 
L 404.05857 -180.186002 
L 403.917753 -177.760453 
L 403.858423 -175.334905 
L 403.866347 -172.909356 
L 403.919629 -170.483807 
L 403.992871 -168.058258 
L 404.061124 -165.632709 
L 404.103234 -163.207161 
L 404.104311 -160.781612 
L 404.057248 -158.356063 
L 403.963348 -155.930514 
L 403.832238 -153.504965 
L 403.681359 -151.079416 
L 403.53529 -148.653868 
L 403.425062 -146.228319 
L 403.38735 -143.80277 
L 403.463025 -141.377221 
L 403.694194 -138.951672 
L 404.11873 -136.526124 
L 404.761745 -134.100575 
L 405.624587 -131.675026 
L 406.673532 -129.249477 
L 407.831902 -126.823928 
L 408.979901 -124.398379 
L 409.965405 -121.972831 
L 410.626065 -119.547282 
L 410.819131 -117.121733 
L 410.451874 -114.696184 
L 409.504037 -112.270635 
L 408.035236 -109.845086 
L 406.174586 -107.419538 
L 404.095243 -104.993989 
L 401.981131 -102.56844 
L 399.994969 -100.142891 
L 398.255336 -97.717342 
L 396.826845 -95.291794 
L 395.723063 -92.866245 
L 394.918433 -90.440696 
L 394.364032 -88.015147 
z
" id="m1b673d5859" style="stroke:#373737;stroke-width:1.5;"/>
    </defs>
    <g clip-path="url(#p1adb79a0dd)">
     <use style="fill:#2b8e70;stroke:#373737;stroke-width:1.5;" x="0" xlink:href="#m1b673d5859" y="509.319"/>
    </g>
   </g>
   <g id="PolyCollection_8">
    <defs>
     <path d="M 433.975995 -86.540487 
L 431.006085 -86.540487 
L 430.304766 -88.700977 
L 429.374495 -90.861467 
L 428.188942 -93.021956 
L 426.739373 -95.182446 
L 425.042123 -97.342936 
L 423.144063 -99.503425 
L 421.12425 -101.663915 
L 419.090391 -103.824405 
L 417.169646 -105.984894 
L 415.494537 -108.145384 
L 414.185984 -110.305874 
L 413.336423 -112.466364 
L 412.996254 -114.626853 
L 413.16632 -116.787343 
L 413.797981 -118.947833 
L 414.800692 -121.108322 
L 416.055508 -123.268812 
L 417.431803 -125.429302 
L 418.804068 -127.589791 
L 420.065986 -129.750281 
L 421.139873 -131.910771 
L 421.980695 -134.071261 
L 422.575015 -136.23175 
L 422.936035 -138.39224 
L 423.096314 -140.55273 
L 423.099756 -142.713219 
L 422.994185 -144.873709 
L 422.825394 -147.034199 
L 422.633055 -149.194689 
L 422.448526 -151.355178 
L 422.294236 -153.515668 
L 422.184206 -155.676158 
L 422.125185 -157.836647 
L 422.117901 -159.997137 
L 422.158069 -162.157627 
L 422.236944 -164.318116 
L 422.341424 -166.478606 
L 422.45391 -168.639096 
L 422.55228 -170.799586 
L 422.610404 -172.960075 
L 422.59958 -175.120565 
L 422.491088 -177.281055 
L 422.259817 -179.441544 
L 421.88858 -181.602034 
L 421.372495 -183.762524 
L 420.72258 -185.923013 
L 419.967703 -188.083503 
L 419.154187 -190.243993 
L 418.342692 -192.404483 
L 417.602484 -194.564972 
L 417.003729 -196.725462 
L 416.608891 -198.885952 
L 416.464623 -201.046441 
L 416.595542 -203.206931 
L 417.001009 -205.367421 
L 417.655513 -207.52791 
L 418.512595 -209.6884 
L 419.511569 -211.84889 
L 420.585819 -214.00938 
L 421.671216 -216.169869 
L 422.713256 -218.330359 
L 423.671924 -220.490849 
L 424.523772 -222.651338 
L 425.261298 -224.811828 
L 425.890202 -226.972318 
L 426.425338 -229.132807 
L 426.886338 -231.293297 
L 427.293679 -233.453787 
L 427.665743 -235.614277 
L 428.017092 -237.774766 
L 428.357863 -239.935256 
L 428.69402 -242.095746 
L 429.028084 -244.256235 
L 429.36002 -246.416725 
L 429.688034 -248.577215 
L 430.009184 -250.737704 
L 430.319819 -252.898194 
L 430.615915 -255.058684 
L 430.893395 -257.219174 
L 431.148472 -259.379663 
L 431.378023 -261.540153 
L 431.579937 -263.700643 
L 431.753364 -265.861132 
L 431.898813 -268.021622 
L 432.018065 -270.182112 
L 432.11392 -272.342602 
L 432.189825 -274.503091 
L 432.249462 -276.663581 
L 432.296365 -278.824071 
L 432.333631 -280.98456 
L 432.36375 -283.14505 
L 432.388564 -285.30554 
L 432.409324 -287.466029 
L 432.426813 -289.626519 
L 432.4415 -291.787009 
L 432.453676 -293.947499 
L 432.463564 -296.107988 
L 432.471382 -298.268478 
L 432.47738 -300.428968 
L 432.5047 -300.428968 
L 432.5047 -300.428968 
L 432.510697 -298.268478 
L 432.518516 -296.107988 
L 432.528403 -293.947499 
L 432.540579 -291.787009 
L 432.555266 -289.626519 
L 432.572756 -287.466029 
L 432.593515 -285.30554 
L 432.618329 -283.14505 
L 432.648449 -280.98456 
L 432.685715 -278.824071 
L 432.732618 -276.663581 
L 432.792254 -274.503091 
L 432.868159 -272.342602 
L 432.964014 -270.182112 
L 433.083267 -268.021622 
L 433.228716 -265.861132 
L 433.402142 -263.700643 
L 433.604056 -261.540153 
L 433.833608 -259.379663 
L 434.088684 -257.219174 
L 434.366164 -255.058684 
L 434.662261 -252.898194 
L 434.972895 -250.737704 
L 435.294045 -248.577215 
L 435.622059 -246.416725 
L 435.953995 -244.256235 
L 436.28806 -242.095746 
L 436.624216 -239.935256 
L 436.964987 -237.774766 
L 437.316336 -235.614277 
L 437.688401 -233.453787 
L 438.095741 -231.293297 
L 438.556741 -229.132807 
L 439.091877 -226.972318 
L 439.720781 -224.811828 
L 440.458308 -222.651338 
L 441.310155 -220.490849 
L 442.268823 -218.330359 
L 443.310863 -216.169869 
L 444.39626 -214.00938 
L 445.470511 -211.84889 
L 446.469484 -209.6884 
L 447.326566 -207.52791 
L 447.981071 -205.367421 
L 448.386537 -203.206931 
L 448.517456 -201.046441 
L 448.373188 -198.885952 
L 447.97835 -196.725462 
L 447.379595 -194.564972 
L 446.639388 -192.404483 
L 445.827892 -190.243993 
L 445.014377 -188.083503 
L 444.2595 -185.923013 
L 443.609584 -183.762524 
L 443.0935 -181.602034 
L 442.722262 -179.441544 
L 442.490991 -177.281055 
L 442.3825 -175.120565 
L 442.371676 -172.960075 
L 442.4298 -170.799586 
L 442.528169 -168.639096 
L 442.640655 -166.478606 
L 442.745136 -164.318116 
L 442.824011 -162.157627 
L 442.864179 -159.997137 
L 442.856894 -157.836647 
L 442.797873 -155.676158 
L 442.687843 -153.515668 
L 442.533553 -151.355178 
L 442.349024 -149.194689 
L 442.156686 -147.034199 
L 441.987894 -144.873709 
L 441.882323 -142.713219 
L 441.885765 -140.55273 
L 442.046045 -138.39224 
L 442.407065 -136.23175 
L 443.001384 -134.071261 
L 443.842206 -131.910771 
L 444.916093 -129.750281 
L 446.178012 -127.589791 
L 447.550276 -125.429302 
L 448.926571 -123.268812 
L 450.181388 -121.108322 
L 451.184098 -118.947833 
L 451.815759 -116.787343 
L 451.985826 -114.626853 
L 451.645656 -112.466364 
L 450.796095 -110.305874 
L 449.487542 -108.145384 
L 447.812433 -105.984894 
L 445.891689 -103.824405 
L 443.857829 -101.663915 
L 441.838016 -99.503425 
L 439.939957 -97.342936 
L 438.242707 -95.182446 
L 436.793137 -93.021956 
L 435.607584 -90.861467 
L 434.677313 -88.700977 
L 433.975995 -86.540487 
z
" id="m6651446645" style="stroke:#373737;stroke-width:1.5;"/>
    </defs>
    <g clip-path="url(#p1adb79a0dd)">
     <use style="fill:#be631d;stroke:#373737;stroke-width:1.5;" x="0" xlink:href="#m6651446645" y="509.319"/>
    </g>
   </g>
   <g id="PolyCollection_9">
    <defs>
     <path d="M 491.87182 -89.353867 
L 490.078974 -89.353867 
L 489.392515 -91.994984 
L 488.344112 -94.636101 
L 486.85531 -97.277218 
L 484.894843 -99.918335 
L 482.510674 -102.559452 
L 479.849822 -105.200569 
L 477.153197 -107.841686 
L 474.71934 -110.482803 
L 472.842731 -113.12392 
L 471.744206 -115.765037 
L 471.516643 -118.406154 
L 472.104837 -121.047271 
L 473.32581 -123.688388 
L 474.920723 -126.329505 
L 476.619185 -128.970622 
L 478.195181 -131.611739 
L 479.500434 -134.252855 
L 480.471459 -136.893972 
L 481.115635 -139.535089 
L 481.486266 -142.176206 
L 481.656417 -144.817323 
L 481.69812 -147.45844 
L 481.669651 -150.099557 
L 481.610673 -152.740674 
L 481.543427 -155.381791 
L 481.477689 -158.022908 
L 481.417115 -160.664025 
L 481.36481 -163.305142 
L 481.326371 -165.946259 
L 481.309664 -168.587376 
L 481.321815 -171.228493 
L 481.365091 -173.86961 
L 481.433762 -176.510727 
L 481.513521 -179.151844 
L 481.583786 -181.792961 
L 481.621927 -184.434078 
L 481.607778 -187.075195 
L 481.526943 -189.716312 
L 481.372169 -192.357428 
L 481.143029 -194.998545 
L 480.844833 -197.639662 
L 480.48787 -200.280779 
L 480.087733 -202.921896 
L 479.666727 -205.563013 
L 479.255432 -208.20413 
L 478.892871 -210.845247 
L 478.623713 -213.486364 
L 478.491889 -216.127481 
L 478.531568 -218.768598 
L 478.758065 -221.409715 
L 479.162044 -224.050832 
L 479.709709 -226.691949 
L 480.349727 -229.333066 
L 481.025069 -231.974183 
L 481.686002 -234.6153 
L 482.300001 -237.256417 
L 482.855627 -239.897534 
L 483.359817 -242.538651 
L 483.830545 -245.179768 
L 484.288212 -247.820885 
L 484.748959 -250.462002 
L 485.221581 -253.103118 
L 485.707748 -255.744235 
L 486.203903 -258.385352 
L 486.70305 -261.026469 
L 487.195591 -263.667586 
L 487.669525 -266.308703 
L 488.111016 -268.94982 
L 488.506072 -271.590937 
L 488.843236 -274.232054 
L 489.116391 -276.873171 
L 489.326532 -279.514288 
L 489.481779 -282.155405 
L 489.595626 -284.796522 
L 489.684076 -287.437639 
L 489.762519 -290.078756 
L 489.843119 -292.719873 
L 489.933162 -295.36099 
L 490.034528 -298.002107 
L 490.144244 -300.643224 
L 490.255881 -303.284341 
L 490.361467 -305.925458 
L 490.453517 -308.566575 
L 490.526767 -311.207691 
L 490.579313 -313.848808 
L 490.612935 -316.489925 
L 490.632583 -319.131042 
L 490.645112 -321.772159 
L 490.657597 -324.413276 
L 490.675649 -327.054393 
L 490.702215 -329.69551 
L 490.737201 -332.336627 
L 490.777975 -334.977744 
L 490.820496 -337.618861 
L 490.860643 -340.259978 
L 490.895265 -342.901095 
L 490.922714 -345.542212 
L 490.942811 -348.183329 
L 490.956446 -350.824446 
L 490.994349 -350.824446 
L 490.994349 -350.824446 
L 491.007984 -348.183329 
L 491.028081 -345.542212 
L 491.05553 -342.901095 
L 491.090152 -340.259978 
L 491.130299 -337.618861 
L 491.17282 -334.977744 
L 491.213593 -332.336627 
L 491.24858 -329.69551 
L 491.275146 -327.054393 
L 491.293198 -324.413276 
L 491.305682 -321.772159 
L 491.318212 -319.131042 
L 491.337859 -316.489925 
L 491.371482 -313.848808 
L 491.424028 -311.207691 
L 491.497278 -308.566575 
L 491.589328 -305.925458 
L 491.694914 -303.284341 
L 491.80655 -300.643224 
L 491.916267 -298.002107 
L 492.017633 -295.36099 
L 492.107675 -292.719873 
L 492.188276 -290.078756 
L 492.266719 -287.437639 
L 492.355168 -284.796522 
L 492.469016 -282.155405 
L 492.624262 -279.514288 
L 492.834404 -276.873171 
L 493.107559 -274.232054 
L 493.444723 -271.590937 
L 493.839779 -268.94982 
L 494.28127 -266.308703 
L 494.755204 -263.667586 
L 495.247744 -261.026469 
L 495.746892 -258.385352 
L 496.243047 -255.744235 
L 496.729214 -253.103118 
L 497.201836 -250.462002 
L 497.662583 -247.820885 
L 498.12025 -245.179768 
L 498.590978 -242.538651 
L 499.095168 -239.897534 
L 499.650793 -237.256417 
L 500.264793 -234.6153 
L 500.925726 -231.974183 
L 501.601067 -229.333066 
L 502.241085 -226.691949 
L 502.78875 -224.050832 
L 503.19273 -221.409715 
L 503.419227 -218.768598 
L 503.458905 -216.127481 
L 503.327082 -213.486364 
L 503.057924 -210.845247 
L 502.695362 -208.20413 
L 502.284068 -205.563013 
L 501.863061 -202.921896 
L 501.462925 -200.280779 
L 501.105962 -197.639662 
L 500.807766 -194.998545 
L 500.578626 -192.357428 
L 500.423852 -189.716312 
L 500.343017 -187.075195 
L 500.328868 -184.434078 
L 500.367009 -181.792961 
L 500.437274 -179.151844 
L 500.517033 -176.510727 
L 500.585703 -173.86961 
L 500.628979 -171.228493 
L 500.641131 -168.587376 
L 500.624424 -165.946259 
L 500.585985 -163.305142 
L 500.533679 -160.664025 
L 500.473106 -158.022908 
L 500.407367 -155.381791 
L 500.340122 -152.740674 
L 500.281143 -150.099557 
L 500.252675 -147.45844 
L 500.294378 -144.817323 
L 500.464529 -142.176206 
L 500.835159 -139.535089 
L 501.479335 -136.893972 
L 502.450361 -134.252855 
L 503.755614 -131.611739 
L 505.33161 -128.970622 
L 507.030072 -126.329505 
L 508.624985 -123.688388 
L 509.845958 -121.047271 
L 510.434152 -118.406154 
L 510.206589 -115.765037 
L 509.108064 -113.12392 
L 507.231455 -110.482803 
L 504.797598 -107.841686 
L 502.100973 -105.200569 
L 499.440121 -102.559452 
L 497.055952 -99.918335 
L 495.095485 -97.277218 
L 493.606683 -94.636101 
L 492.55828 -91.994984 
L 491.87182 -89.353867 
z
" id="me96ee00147" style="stroke:#373737;stroke-width:1.5;"/>
    </defs>
    <g clip-path="url(#p1adb79a0dd)">
     <use style="fill:#2b8e70;stroke:#373737;stroke-width:1.5;" x="0" xlink:href="#me96ee00147" y="509.319"/>
    </g>
   </g>
   <g id="PolyCollection_10">
    <defs>
     <path d="M 531.29713 -85.044177 
L 528.632808 -85.044177 
L 527.86742 -87.715478 
L 526.803159 -90.386779 
L 525.4009 -93.058079 
L 523.653813 -95.72938 
L 521.601555 -98.400681 
L 519.338357 -101.071982 
L 517.010582 -103.743283 
L 514.801387 -106.414584 
L 512.903712 -109.085885 
L 511.486731 -111.757185 
L 510.66377 -114.428486 
L 510.470183 -117.099787 
L 510.857325 -119.771088 
L 511.704339 -122.442389 
L 512.84441 -125.11369 
L 514.098273 -127.78499 
L 515.306397 -130.456291 
L 516.352536 -133.127592 
L 517.174675 -135.798893 
L 517.763268 -138.470194 
L 518.14989 -141.141495 
L 518.391083 -143.812796 
L 518.552088 -146.484096 
L 518.693825 -149.155397 
L 518.864646 -151.826698 
L 519.096666 -154.497999 
L 519.405462 -157.1693 
L 519.791581 -159.840601 
L 520.242635 -162.511902 
L 520.735294 -165.183202 
L 521.23715 -167.854503 
L 521.708756 -170.525804 
L 522.106316 -173.197105 
L 522.385351 -175.868406 
L 522.505389 -178.539707 
L 522.43539 -181.211008 
L 522.15928 -183.882308 
L 521.680701 -186.553609 
L 521.025892 -189.22491 
L 520.243684 -191.896211 
L 519.40185 -194.567512 
L 518.579763 -197.238813 
L 517.858167 -199.910113 
L 517.307816 -202.581414 
L 516.979303 -205.252715 
L 516.896366 -207.924016 
L 517.054244 -210.595317 
L 517.423322 -213.266618 
L 517.956958 -215.937919 
L 518.601319 -218.609219 
L 519.304749 -221.28052 
L 520.024671 -223.951821 
L 520.731001 -226.623122 
L 521.406217 -229.294423 
L 522.043077 -231.965724 
L 522.64131 -234.637025 
L 523.204458 -237.308325 
L 523.737555 -239.979626 
L 524.245748 -242.650927 
L 524.733618 -245.322228 
L 525.204781 -247.993529 
L 525.661496 -250.66483 
L 526.104196 -253.33613 
L 526.531111 -256.007431 
L 526.93823 -258.678732 
L 527.319816 -261.350033 
L 527.669491 -264.021334 
L 527.981677 -266.692635 
L 528.253 -269.363936 
L 528.483246 -272.035236 
L 528.675545 -274.706537 
L 528.835745 -277.377838 
L 528.971163 -280.049139 
L 529.089105 -282.72044 
L 529.195586 -285.391741 
L 529.294556 -288.063042 
L 529.387754 -290.734342 
L 529.475097 -293.405643 
L 529.555385 -296.076944 
L 529.627056 -298.748245 
L 529.688792 -301.419546 
L 529.739887 -304.090847 
L 529.780383 -306.762147 
L 529.811034 -309.433448 
L 529.833169 -312.104749 
L 529.848525 -314.77605 
L 529.859044 -317.447351 
L 529.866665 -320.118652 
L 529.873116 -322.789953 
L 529.879725 -325.461253 
L 529.887303 -328.132554 
L 529.896109 -330.803855 
L 529.90593 -333.475156 
L 529.916229 -336.146457 
L 529.926334 -338.817758 
L 529.935618 -341.489059 
L 529.943626 -344.160359 
L 529.950125 -346.83166 
L 529.9551 -349.502961 
L 529.974839 -349.502961 
L 529.974839 -349.502961 
L 529.979814 -346.83166 
L 529.986313 -344.160359 
L 529.99432 -341.489059 
L 530.003605 -338.817758 
L 530.01371 -336.146457 
L 530.024008 -333.475156 
L 530.033829 -330.803855 
L 530.042636 -328.132554 
L 530.050213 -325.461253 
L 530.056823 -322.789953 
L 530.063273 -320.118652 
L 530.070895 -317.447351 
L 530.081414 -314.77605 
L 530.09677 -312.104749 
L 530.118905 -309.433448 
L 530.149555 -306.762147 
L 530.190052 -304.090847 
L 530.241147 -301.419546 
L 530.302882 -298.748245 
L 530.374553 -296.076944 
L 530.454842 -293.405643 
L 530.542185 -290.734342 
L 530.635382 -288.063042 
L 530.734353 -285.391741 
L 530.840834 -282.72044 
L 530.958776 -280.049139 
L 531.094193 -277.377838 
L 531.254393 -274.706537 
L 531.446693 -272.035236 
L 531.676939 -269.363936 
L 531.948262 -266.692635 
L 532.260448 -264.021334 
L 532.610123 -261.350033 
L 532.991709 -258.678732 
L 533.398827 -256.007431 
L 533.825742 -253.33613 
L 534.268443 -250.66483 
L 534.725158 -247.993529 
L 535.196321 -245.322228 
L 535.68419 -242.650927 
L 536.192384 -239.979626 
L 536.725481 -237.308325 
L 537.288629 -234.637025 
L 537.886861 -231.965724 
L 538.523721 -229.294423 
L 539.198938 -226.623122 
L 539.905267 -223.951821 
L 540.625189 -221.28052 
L 541.32862 -218.609219 
L 541.972981 -215.937919 
L 542.506617 -213.266618 
L 542.875695 -210.595317 
L 543.033572 -207.924016 
L 542.950636 -205.252715 
L 542.622122 -202.581414 
L 542.071772 -199.910113 
L 541.350176 -197.238813 
L 540.528088 -194.567512 
L 539.686254 -191.896211 
L 538.904046 -189.22491 
L 538.249238 -186.553609 
L 537.770658 -183.882308 
L 537.494549 -181.211008 
L 537.42455 -178.539707 
L 537.544588 -175.868406 
L 537.823623 -173.197105 
L 538.221183 -170.525804 
L 538.692789 -167.854503 
L 539.194645 -165.183202 
L 539.687304 -162.511902 
L 540.138357 -159.840601 
L 540.524477 -157.1693 
L 540.833272 -154.497999 
L 541.065293 -151.826698 
L 541.236114 -149.155397 
L 541.377851 -146.484096 
L 541.538855 -143.812796 
L 541.780049 -141.141495 
L 542.166671 -138.470194 
L 542.755263 -135.798893 
L 543.577403 -133.127592 
L 544.623542 -130.456291 
L 545.831665 -127.78499 
L 547.085529 -125.11369 
L 548.2256 -122.442389 
L 549.072614 -119.771088 
L 549.459755 -117.099787 
L 549.266168 -114.428486 
L 548.443208 -111.757185 
L 547.026226 -109.085885 
L 545.128551 -106.414584 
L 542.919357 -103.743283 
L 540.591582 -101.071982 
L 538.328384 -98.400681 
L 536.276126 -95.72938 
L 534.529039 -93.058079 
L 533.12678 -90.386779 
L 532.062518 -87.715478 
L 531.29713 -85.044177 
z
" id="mbe16eb5c97" style="stroke:#373737;stroke-width:1.5;"/>
    </defs>
    <g clip-path="url(#p1adb79a0dd)">
     <use style="fill:#be631d;stroke:#373737;stroke-width:1.5;" x="0" xlink:href="#mbe16eb5c97" y="509.319"/>
    </g>
   </g>
   <g id="patch_3">
    <path clip-path="url(#p1adb79a0dd)" d="M 120.574465 399.727289 
L 120.574465 399.727289 
L 120.574465 399.727289 
L 120.574465 399.727289 
z
" style="fill:#2b8e70;stroke:#373737;stroke-linejoin:miter;stroke-width:0.75;"/>
   </g>
   <g id="patch_4">
    <path clip-path="url(#p1adb79a0dd)" d="M 120.574465 399.727289 
L 120.574465 399.727289 
L 120.574465 399.727289 
L 120.574465 399.727289 
z
" style="fill:#be631d;stroke:#373737;stroke-linejoin:miter;stroke-width:0.75;"/>
   </g>
   <g id="line2d_1">
    <path clip-path="url(#p1adb79a0dd)" d="M 101.079679 398.578069 
L 101.079679 70.475931 
" style="fill:none;stroke:#373737;stroke-linecap:round;stroke-width:1.5;"/>
   </g>
   <g id="line2d_2">
    <path clip-path="url(#p1adb79a0dd)" d="M 101.079679 383.724409 
L 101.079679 247.082222 
" style="fill:none;stroke:#373737;stroke-linecap:round;stroke-width:4.5;"/>
   </g>
   <g id="line2d_3">
    <path clip-path="url(#p1adb79a0dd)" d="M 140.069251 398.463148 
L 140.069251 78.175701 
" style="fill:none;stroke:#373737;stroke-linecap:round;stroke-width:1.5;"/>
   </g>
   <g id="line2d_4">
    <path clip-path="url(#p1adb79a0dd)" d="M 140.069251 384.557593 
L 140.069251 255.615176 
" style="fill:none;stroke:#373737;stroke-linecap:round;stroke-width:4.5;"/>
   </g>
   <g id="line2d_5">
    <path clip-path="url(#p1adb79a0dd)" d="M 198.553609 397.084084 
L 198.553609 83.347188 
" style="fill:none;stroke:#373737;stroke-linecap:round;stroke-width:1.5;"/>
   </g>
   <g id="line2d_6">
    <path clip-path="url(#p1adb79a0dd)" d="M 198.553609 383.149799 
L 198.553609 228.637251 
" style="fill:none;stroke:#373737;stroke-linecap:round;stroke-width:4.5;"/>
   </g>
   <g id="line2d_7">
    <path clip-path="url(#p1adb79a0dd)" d="M 237.54318 397.658694 
L 237.54318 82.772578 
" style="fill:none;stroke:#373737;stroke-linecap:round;stroke-width:1.5;"/>
   </g>
   <g id="line2d_8">
    <path clip-path="url(#p1adb79a0dd)" d="M 237.54318 385.936656 
L 237.54318 231.740143 
" style="fill:none;stroke:#373737;stroke-linecap:round;stroke-width:4.5;"/>
   </g>
   <g id="line2d_9">
    <path clip-path="url(#p1adb79a0dd)" d="M 296.027538 399.497445 
L 296.027538 239.411182 
" style="fill:none;stroke:#373737;stroke-linecap:round;stroke-width:1.5;"/>
   </g>
   <g id="line2d_10">
    <path clip-path="url(#p1adb79a0dd)" d="M 296.027538 387.085875 
L 296.027538 286.06949 
" style="fill:none;stroke:#373737;stroke-linecap:round;stroke-width:4.5;"/>
   </g>
   <g id="line2d_11">
    <path clip-path="url(#p1adb79a0dd)" d="M 335.01711 399.497445 
L 335.01711 240.560402 
" style="fill:none;stroke:#373737;stroke-linecap:round;stroke-width:1.5;"/>
   </g>
   <g id="line2d_12">
    <path clip-path="url(#p1adb79a0dd)" d="M 335.01711 394.325958 
L 335.01711 304.313348 
" style="fill:none;stroke:#373737;stroke-linecap:round;stroke-width:4.5;"/>
   </g>
   <g id="line2d_13">
    <path clip-path="url(#p1adb79a0dd)" d="M 393.501468 399.497445 
L 393.501468 202.980927 
" style="fill:none;stroke:#373737;stroke-linecap:round;stroke-width:1.5;"/>
   </g>
   <g id="line2d_14">
    <path clip-path="url(#p1adb79a0dd)" d="M 393.501468 385.074741 
L 393.501468 301.641413 
" style="fill:none;stroke:#373737;stroke-linecap:round;stroke-width:4.5;"/>
   </g>
   <g id="line2d_15">
    <path clip-path="url(#p1adb79a0dd)" d="M 432.49104 399.267601 
L 432.49104 232.400944 
" style="fill:none;stroke:#373737;stroke-linecap:round;stroke-width:1.5;"/>
   </g>
   <g id="line2d_16">
    <path clip-path="url(#p1adb79a0dd)" d="M 432.49104 392.487207 
L 432.49104 308.077042 
" style="fill:none;stroke:#373737;stroke-linecap:round;stroke-width:4.5;"/>
   </g>
   <g id="line2d_17">
    <path clip-path="url(#p1adb79a0dd)" d="M 490.975397 399.267601 
L 490.975397 179.192086 
" style="fill:none;stroke:#373737;stroke-linecap:round;stroke-width:1.5;"/>
   </g>
   <g id="line2d_18">
    <path clip-path="url(#p1adb79a0dd)" d="M 490.975397 386.19523 
L 490.975397 291.327169 
" style="fill:none;stroke:#373737;stroke-linecap:round;stroke-width:4.5;"/>
   </g>
   <g id="line2d_19">
    <path clip-path="url(#p1adb79a0dd)" d="M 529.964969 399.382523 
L 529.964969 184.708339 
" style="fill:none;stroke:#373737;stroke-linecap:round;stroke-width:1.5;"/>
   </g>
   <g id="line2d_20">
    <path clip-path="url(#p1adb79a0dd)" d="M 529.964969 390.90703 
L 529.964969 302.445867 
" style="fill:none;stroke:#373737;stroke-linecap:round;stroke-width:4.5;"/>
   </g>
   <g id="patch_5">
    <path d="M 71.8375 461.854 
L 71.8375 7.2 
" style="fill:none;stroke:#262626;stroke-linecap:square;stroke-linejoin:miter;stroke-width:0.8;"/>
   </g>
   <g id="patch_6">
    <path d="M 71.8375 461.854 
L 559.207148 461.854 
" style="fill:none;stroke:#262626;stroke-linecap:square;stroke-linejoin:miter;stroke-width:0.8;"/>
   </g>
   <g id="PathCollection_1">
    <defs>
     <path d="M 0 1.5 
C 0.397805 1.5 0.77937 1.341951 1.06066 1.06066 
C 1.341951 0.77937 1.5 0.397805 1.5 0 
C 1.5 -0.397805 1.341951 -0.77937 1.06066 -1.06066 
C 0.77937 -1.341951 0.397805 -1.5 0 -1.5 
C -0.397805 -1.5 -0.77937 -1.341951 -1.06066 -1.06066 
C -1.341951 -0.77937 -1.5 -0.397805 -1.5 0 
C -1.5 0.397805 -1.341951 0.77937 -1.06066 1.06066 
C -0.77937 1.341951 -0.397805 1.5 0 1.5 
z
" id="m90c736457f" style="stroke:#373737;"/>
    </defs>
    <g clip-path="url(#p1adb79a0dd)">
     <use style="fill:#ffffff;stroke:#373737;" x="101.079679" xlink:href="#m90c736457f" y="330.084593"/>
    </g>
   </g>
   <g id="PathCollection_2">
    <g clip-path="url(#p1adb79a0dd)">
     <use style="fill:#ffffff;stroke:#373737;" x="140.069251" xlink:href="#m90c736457f" y="332.957642"/>
    </g>
   </g>
   <g id="PathCollection_3">
    <g clip-path="url(#p1adb79a0dd)">
     <use style="fill:#ffffff;stroke:#373737;" x="198.553609" xlink:href="#m90c736457f" y="308.709112"/>
    </g>
   </g>
   <g id="PathCollection_4">
    <g clip-path="url(#p1adb79a0dd)">
     <use style="fill:#ffffff;stroke:#373737;" x="237.54318" xlink:href="#m90c736457f" y="313.593295"/>
    </g>
   </g>
   <g id="PathCollection_5">
    <g clip-path="url(#p1adb79a0dd)">
     <use style="fill:#ffffff;stroke:#373737;" x="296.027538" xlink:href="#m90c736457f" y="352.207067"/>
    </g>
   </g>
   <g id="PathCollection_6">
    <g clip-path="url(#p1adb79a0dd)">
     <use style="fill:#ffffff;stroke:#373737;" x="335.01711" xlink:href="#m90c736457f" y="358.35539"/>
    </g>
   </g>
   <g id="PathCollection_7">
    <g clip-path="url(#p1adb79a0dd)">
     <use style="fill:#ffffff;stroke:#373737;" x="393.501468" xlink:href="#m90c736457f" y="339.163426"/>
    </g>
   </g>
   <g id="PathCollection_8">
    <g clip-path="url(#p1adb79a0dd)">
     <use style="fill:#ffffff;stroke:#373737;" x="432.49104" xlink:href="#m90c736457f" y="346.518431"/>
    </g>
   </g>
   <g id="PathCollection_9">
    <g clip-path="url(#p1adb79a0dd)">
     <use style="fill:#ffffff;stroke:#373737;" x="490.975397" xlink:href="#m90c736457f" y="336.922449"/>
    </g>
   </g>
   <g id="PathCollection_10">
    <g clip-path="url(#p1adb79a0dd)">
     <use style="fill:#ffffff;stroke:#373737;" x="529.964969" xlink:href="#m90c736457f" y="351.747379"/>
    </g>
   </g>
  </g>
  <g id="legend_1">
   <g id="text_16">
    <!-- weather -->
    <defs>
     <path d="M 16.15625 0 
L 0.296875 51.859375 
L 9.375 51.859375 
L 17.625 21.921875 
L 20.703125 10.796875 
Q 20.90625 11.625 23.390625 21.484375 
L 31.640625 51.859375 
L 40.671875 51.859375 
L 48.4375 21.78125 
L 51.03125 11.859375 
L 54 21.875 
L 62.890625 51.859375 
L 71.4375 51.859375 
L 55.21875 0 
L 46.09375 0 
L 37.84375 31.0625 
L 35.84375 39.890625 
L 25.34375 0 
z
" id="ArialMT-119"/>
     <path d="M 40.4375 6.390625 
Q 35.546875 2.25 31.03125 0.53125 
Q 26.515625 -1.171875 21.34375 -1.171875 
Q 12.796875 -1.171875 8.203125 3 
Q 3.609375 7.171875 3.609375 13.671875 
Q 3.609375 17.484375 5.34375 20.625 
Q 7.078125 23.78125 9.890625 25.6875 
Q 12.703125 27.59375 16.21875 28.5625 
Q 18.796875 29.25 24.03125 29.890625 
Q 34.671875 31.15625 39.703125 32.90625 
Q 39.75 34.71875 39.75 35.203125 
Q 39.75 40.578125 37.25 42.78125 
Q 33.890625 45.75 27.25 45.75 
Q 21.046875 45.75 18.09375 43.578125 
Q 15.140625 41.40625 13.71875 35.890625 
L 5.125 37.0625 
Q 6.296875 42.578125 8.984375 45.96875 
Q 11.671875 49.359375 16.75 51.1875 
Q 21.828125 53.03125 28.515625 53.03125 
Q 35.15625 53.03125 39.296875 51.46875 
Q 43.453125 49.90625 45.40625 47.53125 
Q 47.359375 45.171875 48.140625 41.546875 
Q 48.578125 39.3125 48.578125 33.453125 
L 48.578125 21.734375 
Q 48.578125 9.46875 49.140625 6.21875 
Q 49.703125 2.984375 51.375 0 
L 42.1875 0 
Q 40.828125 2.734375 40.4375 6.390625 
z
M 39.703125 26.03125 
Q 34.90625 24.078125 25.34375 22.703125 
Q 19.921875 21.921875 17.671875 20.9375 
Q 15.4375 19.96875 14.203125 18.09375 
Q 12.984375 16.21875 12.984375 13.921875 
Q 12.984375 10.40625 15.640625 8.0625 
Q 18.3125 5.71875 23.4375 5.71875 
Q 28.515625 5.71875 32.46875 7.9375 
Q 36.421875 10.15625 38.28125 14.015625 
Q 39.703125 17 39.703125 22.796875 
z
" id="ArialMT-97"/>
     <path d="M 6.59375 0 
L 6.59375 71.578125 
L 15.375 71.578125 
L 15.375 45.90625 
Q 21.53125 53.03125 30.90625 53.03125 
Q 36.671875 53.03125 40.921875 50.75 
Q 45.171875 48.484375 47 44.484375 
Q 48.828125 40.484375 48.828125 32.859375 
L 48.828125 0 
L 40.046875 0 
L 40.046875 32.859375 
Q 40.046875 39.453125 37.1875 42.453125 
Q 34.328125 45.453125 29.109375 45.453125 
Q 25.203125 45.453125 21.75 43.421875 
Q 18.3125 41.40625 16.84375 37.9375 
Q 15.375 34.46875 15.375 28.375 
L 15.375 0 
z
" id="ArialMT-104"/>
    </defs>
    <g style="fill:#262626;" transform="translate(661.71175 236.0695)scale(0.16 -0.16)">
     <use xlink:href="#ArialMT-119"/>
     <use x="72.216797" xlink:href="#ArialMT-101"/>
     <use x="127.832031" xlink:href="#ArialMT-97"/>
     <use x="183.447266" xlink:href="#ArialMT-116"/>
     <use x="211.230469" xlink:href="#ArialMT-104"/>
     <use x="266.845703" xlink:href="#ArialMT-101"/>
     <use x="322.460938" xlink:href="#ArialMT-114"/>
    </g>
   </g>
   <g id="patch_7">
    <path d="M 649.9755 258.702 
L 681.9755 258.702 
L 681.9755 247.502 
L 649.9755 247.502 
z
" style="fill:#2b8e70;stroke:#373737;stroke-linejoin:miter;stroke-width:0.75;"/>
   </g>
   <g id="text_17">
    <!-- good -->
    <defs>
     <path d="M 4.984375 -4.296875 
L 13.53125 -5.5625 
Q 14.0625 -9.515625 16.5 -11.328125 
Q 19.78125 -13.765625 25.4375 -13.765625 
Q 31.546875 -13.765625 34.859375 -11.328125 
Q 38.1875 -8.890625 39.359375 -4.5 
Q 40.046875 -1.8125 39.984375 6.78125 
Q 34.234375 0 25.640625 0 
Q 14.9375 0 9.078125 7.71875 
Q 3.21875 15.4375 3.21875 26.21875 
Q 3.21875 33.640625 5.90625 39.90625 
Q 8.59375 46.1875 13.6875 49.609375 
Q 18.796875 53.03125 25.6875 53.03125 
Q 34.859375 53.03125 40.828125 45.609375 
L 40.828125 51.859375 
L 48.921875 51.859375 
L 48.921875 7.03125 
Q 48.921875 -5.078125 46.453125 -10.125 
Q 44 -15.1875 38.640625 -18.109375 
Q 33.296875 -21.046875 25.484375 -21.046875 
Q 16.21875 -21.046875 10.5 -16.875 
Q 4.78125 -12.703125 4.984375 -4.296875 
z
M 12.25 26.859375 
Q 12.25 16.65625 16.296875 11.96875 
Q 20.359375 7.28125 26.46875 7.28125 
Q 32.515625 7.28125 36.609375 11.9375 
Q 40.71875 16.609375 40.71875 26.5625 
Q 40.71875 36.078125 36.5 40.90625 
Q 32.28125 45.75 26.3125 45.75 
Q 20.453125 45.75 16.34375 40.984375 
Q 12.25 36.234375 12.25 26.859375 
z
" id="ArialMT-103"/>
    </defs>
    <g style="fill:#262626;" transform="translate(694.7755 258.702)scale(0.16 -0.16)">
     <use xlink:href="#ArialMT-103"/>
     <use x="55.615234" xlink:href="#ArialMT-111"/>
     <use x="111.230469" xlink:href="#ArialMT-111"/>
     <use x="166.845703" xlink:href="#ArialMT-100"/>
    </g>
   </g>
   <g id="patch_8">
    <path d="M 649.9755 281.522 
L 681.9755 281.522 
L 681.9755 270.322 
L 649.9755 270.322 
z
" style="fill:#be631d;stroke:#373737;stroke-linejoin:miter;stroke-width:0.75;"/>
   </g>
   <g id="text_18">
    <!-- bad -->
    <defs>
     <path d="M 14.703125 0 
L 6.546875 0 
L 6.546875 71.578125 
L 15.328125 71.578125 
L 15.328125 46.046875 
Q 20.90625 53.03125 29.546875 53.03125 
Q 34.328125 53.03125 38.59375 51.09375 
Q 42.875 49.171875 45.625 45.671875 
Q 48.390625 42.1875 49.953125 37.25 
Q 51.515625 32.328125 51.515625 26.703125 
Q 51.515625 13.375 44.921875 6.09375 
Q 38.328125 -1.171875 29.109375 -1.171875 
Q 19.921875 -1.171875 14.703125 6.5 
z
M 14.59375 26.3125 
Q 14.59375 17 17.140625 12.84375 
Q 21.296875 6.0625 28.375 6.0625 
Q 34.125 6.0625 38.328125 11.0625 
Q 42.53125 16.0625 42.53125 25.984375 
Q 42.53125 36.140625 38.5 40.96875 
Q 34.46875 45.796875 28.765625 45.796875 
Q 23 45.796875 18.796875 40.796875 
Q 14.59375 35.796875 14.59375 26.3125 
z
" id="ArialMT-98"/>
    </defs>
    <g style="fill:#262626;" transform="translate(694.7755 281.522)scale(0.16 -0.16)">
     <use xlink:href="#ArialMT-98"/>
     <use x="55.615234" xlink:href="#ArialMT-97"/>
     <use x="111.230469" xlink:href="#ArialMT-100"/>
    </g>
   </g>
  </g>
 </g>
 <defs>
  <clipPath id="p1adb79a0dd">
   <rect height="454.654" width="487.369648" x="71.8375" y="7.2"/>
  </clipPath>
 </defs>
</svg>
