<?xml version="1.0" encoding="utf-8" standalone="no"?>
<!DOCTYPE svg PUBLIC "-//W3C//DTD SVG 1.1//EN"
  "http://www.w3.org/Graphics/SVG/1.1/DTD/svg11.dtd">
<!-- Created with matplotlib (https://matplotlib.org/) -->
<svg height="540.169pt" version="1.1" viewBox="0 0 744.3091 540.169" width="744.3091pt" xmlns="http://www.w3.org/2000/svg" xmlns:xlink="http://www.w3.org/1999/xlink">
 <defs>
  <style type="text/css">
*{stroke-linecap:butt;stroke-linejoin:round;white-space:pre;}
  </style>
 </defs>
 <g id="figure_1">
  <g id="patch_1">
   <path d="M 0 540.169 
L 744.3091 540.169 
L 744.3091 0 
L 0 0 
z
" style="fill:#ffffff;"/>
  </g>
  <g id="axes_1">
   <g id="patch_2">
    <path d="M 71.8375 492.704 
L 737.1091 492.704 
L 737.1091 7.2 
L 71.8375 7.2 
z
" style="fill:#ffffff;"/>
   </g>
   <g id="matplotlib.axis_1">
    <g id="xtick_1">
     <g id="text_1">
      <!-- 1025-116 -->
      <defs>
       <path d="M 37.25 0 
L 28.46875 0 
L 28.46875 56 
Q 25.296875 52.984375 20.140625 49.953125 
Q 14.984375 46.921875 10.890625 45.40625 
L 10.890625 53.90625 
Q 18.265625 57.375 23.78125 62.296875 
Q 29.296875 67.234375 31.59375 71.875 
L 37.25 71.875 
z
" id="ArialMT-49"/>
       <path d="M 4.15625 35.296875 
Q 4.15625 48 6.765625 55.734375 
Q 9.375 63.484375 14.515625 67.671875 
Q 19.671875 71.875 27.484375 71.875 
Q 33.25 71.875 37.59375 69.546875 
Q 41.9375 67.234375 44.765625 62.859375 
Q 47.609375 58.5 49.21875 52.21875 
Q 50.828125 45.953125 50.828125 35.296875 
Q 50.828125 22.703125 48.234375 14.96875 
Q 45.65625 7.234375 40.5 3 
Q 35.359375 -1.21875 27.484375 -1.21875 
Q 17.140625 -1.21875 11.234375 6.203125 
Q 4.15625 15.140625 4.15625 35.296875 
z
M 13.1875 35.296875 
Q 13.1875 17.671875 17.3125 11.828125 
Q 21.4375 6 27.484375 6 
Q 33.546875 6 37.671875 11.859375 
Q 41.796875 17.71875 41.796875 35.296875 
Q 41.796875 52.984375 37.671875 58.78125 
Q 33.546875 64.59375 27.390625 64.59375 
Q 21.34375 64.59375 17.71875 59.46875 
Q 13.1875 52.9375 13.1875 35.296875 
z
" id="ArialMT-48"/>
       <path d="M 50.34375 8.453125 
L 50.34375 0 
L 3.03125 0 
Q 2.9375 3.171875 4.046875 6.109375 
Q 5.859375 10.9375 9.828125 15.625 
Q 13.8125 20.3125 21.34375 26.46875 
Q 33.015625 36.03125 37.109375 41.625 
Q 41.21875 47.21875 41.21875 52.203125 
Q 41.21875 57.421875 37.46875 61 
Q 33.734375 64.59375 27.734375 64.59375 
Q 21.390625 64.59375 17.578125 60.78125 
Q 13.765625 56.984375 13.71875 50.25 
L 4.6875 51.171875 
Q 5.609375 61.28125 11.65625 66.578125 
Q 17.71875 71.875 27.9375 71.875 
Q 38.234375 71.875 44.234375 66.15625 
Q 50.25 60.453125 50.25 52 
Q 50.25 47.703125 48.484375 43.546875 
Q 46.734375 39.40625 42.65625 34.8125 
Q 38.578125 30.21875 29.109375 22.21875 
Q 21.1875 15.578125 18.9375 13.203125 
Q 16.703125 10.84375 15.234375 8.453125 
z
" id="ArialMT-50"/>
       <path d="M 4.15625 18.75 
L 13.375 19.53125 
Q 14.40625 12.796875 18.140625 9.390625 
Q 21.875 6 27.15625 6 
Q 33.5 6 37.890625 10.78125 
Q 42.28125 15.578125 42.28125 23.484375 
Q 42.28125 31 38.0625 35.34375 
Q 33.84375 39.703125 27 39.703125 
Q 22.75 39.703125 19.328125 37.765625 
Q 15.921875 35.84375 13.96875 32.765625 
L 5.71875 33.84375 
L 12.640625 70.609375 
L 48.25 70.609375 
L 48.25 62.203125 
L 19.671875 62.203125 
L 15.828125 42.96875 
Q 22.265625 47.46875 29.34375 47.46875 
Q 38.71875 47.46875 45.15625 40.96875 
Q 51.609375 34.46875 51.609375 24.265625 
Q 51.609375 14.546875 45.953125 7.46875 
Q 39.0625 -1.21875 27.15625 -1.21875 
Q 17.390625 -1.21875 11.203125 4.25 
Q 5.03125 9.71875 4.15625 18.75 
z
" id="ArialMT-53"/>
       <path d="M 3.171875 21.484375 
L 3.171875 30.328125 
L 30.171875 30.328125 
L 30.171875 21.484375 
z
" id="ArialMT-45"/>
       <path d="M 49.75 54.046875 
L 41.015625 53.375 
Q 39.84375 58.546875 37.703125 60.890625 
Q 34.125 64.65625 28.90625 64.65625 
Q 24.703125 64.65625 21.53125 62.3125 
Q 17.390625 59.28125 14.984375 53.46875 
Q 12.59375 47.65625 12.5 36.921875 
Q 15.671875 41.75 20.265625 44.09375 
Q 24.859375 46.4375 29.890625 46.4375 
Q 38.671875 46.4375 44.84375 39.96875 
Q 51.03125 33.5 51.03125 23.25 
Q 51.03125 16.5 48.125 10.71875 
Q 45.21875 4.9375 40.140625 1.859375 
Q 35.0625 -1.21875 28.609375 -1.21875 
Q 17.625 -1.21875 10.6875 6.859375 
Q 3.765625 14.9375 3.765625 33.5 
Q 3.765625 54.25 11.421875 63.671875 
Q 18.109375 71.875 29.4375 71.875 
Q 37.890625 71.875 43.28125 67.140625 
Q 48.6875 62.40625 49.75 54.046875 
z
M 13.875 23.1875 
Q 13.875 18.65625 15.796875 14.5 
Q 17.71875 10.359375 21.1875 8.171875 
Q 24.65625 6 28.46875 6 
Q 34.03125 6 38.03125 10.484375 
Q 42.046875 14.984375 42.046875 22.703125 
Q 42.046875 30.125 38.078125 34.390625 
Q 34.125 38.671875 28.125 38.671875 
Q 22.171875 38.671875 18.015625 34.390625 
Q 13.875 30.125 13.875 23.1875 
z
" id="ArialMT-54"/>
      </defs>
      <g style="fill:#262626;" transform="translate(104.56841 511.1565)scale(0.16 -0.16)">
       <use xlink:href="#ArialMT-49"/>
       <use x="55.615234" xlink:href="#ArialMT-48"/>
       <use x="111.230469" xlink:href="#ArialMT-50"/>
       <use x="166.845703" xlink:href="#ArialMT-53"/>
       <use x="222.460938" xlink:href="#ArialMT-45"/>
       <use x="255.761719" xlink:href="#ArialMT-49"/>
       <use x="311.267578" xlink:href="#ArialMT-49"/>
       <use x="366.882812" xlink:href="#ArialMT-54"/>
      </g>
     </g>
    </g>
    <g id="xtick_2">
     <g id="text_2">
      <!-- 1034-216 -->
      <defs>
       <path d="M 4.203125 18.890625 
L 12.984375 20.0625 
Q 14.5 12.59375 18.140625 9.296875 
Q 21.78125 6 27 6 
Q 33.203125 6 37.46875 10.296875 
Q 41.75 14.59375 41.75 20.953125 
Q 41.75 27 37.796875 30.921875 
Q 33.84375 34.859375 27.734375 34.859375 
Q 25.25 34.859375 21.53125 33.890625 
L 22.515625 41.609375 
Q 23.390625 41.5 23.921875 41.5 
Q 29.546875 41.5 34.03125 44.421875 
Q 38.53125 47.359375 38.53125 53.46875 
Q 38.53125 58.296875 35.25 61.46875 
Q 31.984375 64.65625 26.8125 64.65625 
Q 21.6875 64.65625 18.265625 61.421875 
Q 14.84375 58.203125 13.875 51.765625 
L 5.078125 53.328125 
Q 6.6875 62.15625 12.390625 67.015625 
Q 18.109375 71.875 26.609375 71.875 
Q 32.46875 71.875 37.390625 69.359375 
Q 42.328125 66.84375 44.9375 62.5 
Q 47.5625 58.15625 47.5625 53.265625 
Q 47.5625 48.640625 45.0625 44.828125 
Q 42.578125 41.015625 37.703125 38.765625 
Q 44.046875 37.3125 47.5625 32.6875 
Q 51.078125 28.078125 51.078125 21.140625 
Q 51.078125 11.765625 44.234375 5.25 
Q 37.40625 -1.265625 26.953125 -1.265625 
Q 17.53125 -1.265625 11.296875 4.34375 
Q 5.078125 9.96875 4.203125 18.890625 
z
" id="ArialMT-51"/>
       <path d="M 32.328125 0 
L 32.328125 17.140625 
L 1.265625 17.140625 
L 1.265625 25.203125 
L 33.9375 71.578125 
L 41.109375 71.578125 
L 41.109375 25.203125 
L 50.78125 25.203125 
L 50.78125 17.140625 
L 41.109375 17.140625 
L 41.109375 0 
z
M 32.328125 25.203125 
L 32.328125 57.46875 
L 9.90625 25.203125 
z
" id="ArialMT-52"/>
      </defs>
      <g style="fill:#262626;" transform="translate(237.61398 511.1565)scale(0.16 -0.16)">
       <use xlink:href="#ArialMT-49"/>
       <use x="55.615234" xlink:href="#ArialMT-48"/>
       <use x="111.230469" xlink:href="#ArialMT-51"/>
       <use x="166.845703" xlink:href="#ArialMT-52"/>
       <use x="222.460938" xlink:href="#ArialMT-45"/>
       <use x="255.761719" xlink:href="#ArialMT-50"/>
       <use x="311.376953" xlink:href="#ArialMT-49"/>
       <use x="366.992188" xlink:href="#ArialMT-54"/>
      </g>
     </g>
    </g>
    <g id="xtick_3">
     <g id="text_3">
      <!-- 1034-216-1 -->
      <g style="fill:#262626;" transform="translate(363.5558 511.1565)scale(0.16 -0.16)">
       <use xlink:href="#ArialMT-49"/>
       <use x="55.615234" xlink:href="#ArialMT-48"/>
       <use x="111.230469" xlink:href="#ArialMT-51"/>
       <use x="166.845703" xlink:href="#ArialMT-52"/>
       <use x="222.460938" xlink:href="#ArialMT-45"/>
       <use x="255.761719" xlink:href="#ArialMT-50"/>
       <use x="311.376953" xlink:href="#ArialMT-49"/>
       <use x="366.992188" xlink:href="#ArialMT-54"/>
       <use x="422.607422" xlink:href="#ArialMT-45"/>
       <use x="455.908203" xlink:href="#ArialMT-49"/>
      </g>
     </g>
    </g>
    <g id="xtick_4">
     <g id="text_4">
      <!-- 1035-136 -->
      <g style="fill:#262626;" transform="translate(503.72262 511.1565)scale(0.16 -0.16)">
       <use xlink:href="#ArialMT-49"/>
       <use x="55.615234" xlink:href="#ArialMT-48"/>
       <use x="111.230469" xlink:href="#ArialMT-51"/>
       <use x="166.845703" xlink:href="#ArialMT-53"/>
       <use x="222.460938" xlink:href="#ArialMT-45"/>
       <use x="255.761719" xlink:href="#ArialMT-49"/>
       <use x="311.376953" xlink:href="#ArialMT-51"/>
       <use x="366.992188" xlink:href="#ArialMT-54"/>
      </g>
     </g>
    </g>
    <g id="xtick_5">
     <g id="text_5">
      <!-- 1038-276 -->
      <defs>
       <path d="M 17.671875 38.8125 
Q 12.203125 40.828125 9.5625 44.53125 
Q 6.9375 48.25 6.9375 53.421875 
Q 6.9375 61.234375 12.546875 66.546875 
Q 18.171875 71.875 27.484375 71.875 
Q 36.859375 71.875 42.578125 66.421875 
Q 48.296875 60.984375 48.296875 53.171875 
Q 48.296875 48.1875 45.671875 44.5 
Q 43.0625 40.828125 37.75 38.8125 
Q 44.34375 36.671875 47.78125 31.875 
Q 51.21875 27.09375 51.21875 20.453125 
Q 51.21875 11.28125 44.71875 5.03125 
Q 38.234375 -1.21875 27.640625 -1.21875 
Q 17.046875 -1.21875 10.546875 5.046875 
Q 4.046875 11.328125 4.046875 20.703125 
Q 4.046875 27.6875 7.59375 32.390625 
Q 11.140625 37.109375 17.671875 38.8125 
z
M 15.921875 53.71875 
Q 15.921875 48.640625 19.1875 45.40625 
Q 22.46875 42.1875 27.6875 42.1875 
Q 32.765625 42.1875 36.015625 45.375 
Q 39.265625 48.578125 39.265625 53.21875 
Q 39.265625 58.0625 35.90625 61.359375 
Q 32.5625 64.65625 27.59375 64.65625 
Q 22.5625 64.65625 19.234375 61.421875 
Q 15.921875 58.203125 15.921875 53.71875 
z
M 13.09375 20.65625 
Q 13.09375 16.890625 14.875 13.375 
Q 16.65625 9.859375 20.171875 7.921875 
Q 23.6875 6 27.734375 6 
Q 34.03125 6 38.125 10.046875 
Q 42.234375 14.109375 42.234375 20.359375 
Q 42.234375 26.703125 38.015625 30.859375 
Q 33.796875 35.015625 27.4375 35.015625 
Q 21.234375 35.015625 17.15625 30.90625 
Q 13.09375 26.8125 13.09375 20.65625 
z
" id="ArialMT-56"/>
       <path d="M 4.734375 62.203125 
L 4.734375 70.65625 
L 51.078125 70.65625 
L 51.078125 63.8125 
Q 44.234375 56.546875 37.515625 44.484375 
Q 30.8125 32.421875 27.15625 19.671875 
Q 24.515625 10.6875 23.78125 0 
L 14.75 0 
Q 14.890625 8.453125 18.0625 20.40625 
Q 21.234375 32.375 27.171875 43.484375 
Q 33.109375 54.59375 39.796875 62.203125 
z
" id="ArialMT-55"/>
      </defs>
      <g style="fill:#262626;" transform="translate(636.77694 511.1565)scale(0.16 -0.16)">
       <use xlink:href="#ArialMT-49"/>
       <use x="55.615234" xlink:href="#ArialMT-48"/>
       <use x="111.230469" xlink:href="#ArialMT-51"/>
       <use x="166.845703" xlink:href="#ArialMT-56"/>
       <use x="222.460938" xlink:href="#ArialMT-45"/>
       <use x="255.761719" xlink:href="#ArialMT-50"/>
       <use x="311.376953" xlink:href="#ArialMT-55"/>
       <use x="366.992188" xlink:href="#ArialMT-54"/>
      </g>
     </g>
    </g>
    <g id="text_6">
     <!-- Counter id -->
     <defs>
      <path d="M 58.796875 25.09375 
L 68.265625 22.703125 
Q 65.28125 11.03125 57.546875 4.90625 
Q 49.8125 -1.21875 38.625 -1.21875 
Q 27.046875 -1.21875 19.796875 3.484375 
Q 12.546875 8.203125 8.765625 17.140625 
Q 4.984375 26.078125 4.984375 36.328125 
Q 4.984375 47.515625 9.25 55.828125 
Q 13.53125 64.15625 21.40625 68.46875 
Q 29.296875 72.796875 38.765625 72.796875 
Q 49.515625 72.796875 56.828125 67.328125 
Q 64.15625 61.859375 67.046875 51.953125 
L 57.71875 49.75 
Q 55.21875 57.5625 50.484375 61.125 
Q 45.75 64.703125 38.578125 64.703125 
Q 30.328125 64.703125 24.78125 60.734375 
Q 19.234375 56.78125 16.984375 50.109375 
Q 14.75 43.453125 14.75 36.375 
Q 14.75 27.25 17.40625 20.4375 
Q 20.0625 13.625 25.671875 10.25 
Q 31.296875 6.890625 37.84375 6.890625 
Q 45.796875 6.890625 51.3125 11.46875 
Q 56.84375 16.0625 58.796875 25.09375 
z
" id="ArialMT-67"/>
      <path d="M 3.328125 25.921875 
Q 3.328125 40.328125 11.328125 47.265625 
Q 18.015625 53.03125 27.640625 53.03125 
Q 38.328125 53.03125 45.109375 46.015625 
Q 51.90625 39.015625 51.90625 26.65625 
Q 51.90625 16.65625 48.90625 10.90625 
Q 45.90625 5.171875 40.15625 2 
Q 34.421875 -1.171875 27.640625 -1.171875 
Q 16.75 -1.171875 10.03125 5.8125 
Q 3.328125 12.796875 3.328125 25.921875 
z
M 12.359375 25.921875 
Q 12.359375 15.96875 16.703125 11.015625 
Q 21.046875 6.0625 27.640625 6.0625 
Q 34.1875 6.0625 38.53125 11.03125 
Q 42.875 16.015625 42.875 26.21875 
Q 42.875 35.84375 38.5 40.796875 
Q 34.125 45.75 27.640625 45.75 
Q 21.046875 45.75 16.703125 40.8125 
Q 12.359375 35.890625 12.359375 25.921875 
z
" id="ArialMT-111"/>
      <path d="M 40.578125 0 
L 40.578125 7.625 
Q 34.515625 -1.171875 24.125 -1.171875 
Q 19.53125 -1.171875 15.546875 0.578125 
Q 11.578125 2.34375 9.640625 5 
Q 7.71875 7.671875 6.9375 11.53125 
Q 6.390625 14.109375 6.390625 19.734375 
L 6.390625 51.859375 
L 15.1875 51.859375 
L 15.1875 23.09375 
Q 15.1875 16.21875 15.71875 13.8125 
Q 16.546875 10.359375 19.234375 8.375 
Q 21.921875 6.390625 25.875 6.390625 
Q 29.828125 6.390625 33.296875 8.421875 
Q 36.765625 10.453125 38.203125 13.9375 
Q 39.65625 17.4375 39.65625 24.078125 
L 39.65625 51.859375 
L 48.4375 51.859375 
L 48.4375 0 
z
" id="ArialMT-117"/>
      <path d="M 6.59375 0 
L 6.59375 51.859375 
L 14.5 51.859375 
L 14.5 44.484375 
Q 20.21875 53.03125 31 53.03125 
Q 35.6875 53.03125 39.625 51.34375 
Q 43.5625 49.65625 45.515625 46.921875 
Q 47.46875 44.1875 48.25 40.4375 
Q 48.734375 37.984375 48.734375 31.890625 
L 48.734375 0 
L 39.9375 0 
L 39.9375 31.546875 
Q 39.9375 36.921875 38.90625 39.578125 
Q 37.890625 42.234375 35.28125 43.8125 
Q 32.671875 45.40625 29.15625 45.40625 
Q 23.53125 45.40625 19.453125 41.84375 
Q 15.375 38.28125 15.375 28.328125 
L 15.375 0 
z
" id="ArialMT-110"/>
      <path d="M 25.78125 7.859375 
L 27.046875 0.09375 
Q 23.34375 -0.6875 20.40625 -0.6875 
Q 15.625 -0.6875 12.984375 0.828125 
Q 10.359375 2.34375 9.28125 4.8125 
Q 8.203125 7.28125 8.203125 15.1875 
L 8.203125 45.015625 
L 1.765625 45.015625 
L 1.765625 51.859375 
L 8.203125 51.859375 
L 8.203125 64.703125 
L 16.9375 69.96875 
L 16.9375 51.859375 
L 25.78125 51.859375 
L 25.78125 45.015625 
L 16.9375 45.015625 
L 16.9375 14.703125 
Q 16.9375 10.9375 17.40625 9.859375 
Q 17.875 8.796875 18.921875 8.15625 
Q 19.96875 7.515625 21.921875 7.515625 
Q 23.390625 7.515625 25.78125 7.859375 
z
" id="ArialMT-116"/>
      <path d="M 42.09375 16.703125 
L 51.171875 15.578125 
Q 49.03125 7.625 43.21875 3.21875 
Q 37.40625 -1.171875 28.375 -1.171875 
Q 17 -1.171875 10.328125 5.828125 
Q 3.65625 12.84375 3.65625 25.484375 
Q 3.65625 38.578125 10.390625 45.796875 
Q 17.140625 53.03125 27.875 53.03125 
Q 38.28125 53.03125 44.875 45.953125 
Q 51.46875 38.875 51.46875 26.03125 
Q 51.46875 25.25 51.421875 23.6875 
L 12.75 23.6875 
Q 13.234375 15.140625 17.578125 10.59375 
Q 21.921875 6.0625 28.421875 6.0625 
Q 33.25 6.0625 36.671875 8.59375 
Q 40.09375 11.140625 42.09375 16.703125 
z
M 13.234375 30.90625 
L 42.1875 30.90625 
Q 41.609375 37.453125 38.875 40.71875 
Q 34.671875 45.796875 27.984375 45.796875 
Q 21.921875 45.796875 17.796875 41.75 
Q 13.671875 37.703125 13.234375 30.90625 
z
" id="ArialMT-101"/>
      <path d="M 6.5 0 
L 6.5 51.859375 
L 14.40625 51.859375 
L 14.40625 44 
Q 17.4375 49.515625 20 51.265625 
Q 22.5625 53.03125 25.640625 53.03125 
Q 30.078125 53.03125 34.671875 50.203125 
L 31.640625 42.046875 
Q 28.421875 43.953125 25.203125 43.953125 
Q 22.3125 43.953125 20.015625 42.21875 
Q 17.71875 40.484375 16.75 37.40625 
Q 15.28125 32.71875 15.28125 27.15625 
L 15.28125 0 
z
" id="ArialMT-114"/>
      <path id="ArialMT-32"/>
      <path d="M 6.640625 61.46875 
L 6.640625 71.578125 
L 15.4375 71.578125 
L 15.4375 61.46875 
z
M 6.640625 0 
L 6.640625 51.859375 
L 15.4375 51.859375 
L 15.4375 0 
z
" id="ArialMT-105"/>
      <path d="M 40.234375 0 
L 40.234375 6.546875 
Q 35.296875 -1.171875 25.734375 -1.171875 
Q 19.53125 -1.171875 14.328125 2.25 
Q 9.125 5.671875 6.265625 11.796875 
Q 3.421875 17.921875 3.421875 25.875 
Q 3.421875 33.640625 6 39.96875 
Q 8.59375 46.296875 13.765625 49.65625 
Q 18.953125 53.03125 25.34375 53.03125 
Q 30.03125 53.03125 33.6875 51.046875 
Q 37.359375 49.078125 39.65625 45.90625 
L 39.65625 71.578125 
L 48.390625 71.578125 
L 48.390625 0 
z
M 12.453125 25.875 
Q 12.453125 15.921875 16.640625 10.984375 
Q 20.84375 6.0625 26.5625 6.0625 
Q 32.328125 6.0625 36.34375 10.765625 
Q 40.375 15.484375 40.375 25.140625 
Q 40.375 35.796875 36.265625 40.765625 
Q 32.171875 45.75 26.171875 45.75 
Q 20.3125 45.75 16.375 40.96875 
Q 12.453125 36.1875 12.453125 25.875 
z
" id="ArialMT-100"/>
     </defs>
     <g style="fill:#262626;" transform="translate(367.5658 529.789)scale(0.16 -0.16)">
      <use xlink:href="#ArialMT-67"/>
      <use x="72.216797" xlink:href="#ArialMT-111"/>
      <use x="127.832031" xlink:href="#ArialMT-117"/>
      <use x="183.447266" xlink:href="#ArialMT-110"/>
      <use x="239.0625" xlink:href="#ArialMT-116"/>
      <use x="266.845703" xlink:href="#ArialMT-101"/>
      <use x="322.460938" xlink:href="#ArialMT-114"/>
      <use x="355.761719" xlink:href="#ArialMT-32"/>
      <use x="383.544922" xlink:href="#ArialMT-105"/>
      <use x="405.761719" xlink:href="#ArialMT-100"/>
     </g>
    </g>
   </g>
   <g id="matplotlib.axis_2">
    <g id="ytick_1">
     <g id="text_7">
      <!-- −250 -->
      <defs>
       <path d="M 52.828125 31.203125 
L 5.5625 31.203125 
L 5.5625 39.40625 
L 52.828125 39.40625 
z
" id="ArialMT-8722"/>
      </defs>
      <g style="fill:#262626;" transform="translate(28.8 493.23048)scale(0.16 -0.16)">
       <use xlink:href="#ArialMT-8722"/>
       <use x="58.398438" xlink:href="#ArialMT-50"/>
       <use x="114.013672" xlink:href="#ArialMT-53"/>
       <use x="169.628906" xlink:href="#ArialMT-48"/>
      </g>
     </g>
    </g>
    <g id="ytick_2">
     <g id="text_8">
      <!-- 0 -->
      <g style="fill:#262626;" transform="translate(55.94 431.528602)scale(0.16 -0.16)">
       <use xlink:href="#ArialMT-48"/>
      </g>
     </g>
    </g>
    <g id="ytick_3">
     <g id="text_9">
      <!-- 250 -->
      <g style="fill:#262626;" transform="translate(38.145 369.826724)scale(0.16 -0.16)">
       <use xlink:href="#ArialMT-50"/>
       <use x="55.615234" xlink:href="#ArialMT-53"/>
       <use x="111.230469" xlink:href="#ArialMT-48"/>
      </g>
     </g>
    </g>
    <g id="ytick_4">
     <g id="text_10">
      <!-- 500 -->
      <g style="fill:#262626;" transform="translate(38.145 308.124846)scale(0.16 -0.16)">
       <use xlink:href="#ArialMT-53"/>
       <use x="55.615234" xlink:href="#ArialMT-48"/>
       <use x="111.230469" xlink:href="#ArialMT-48"/>
      </g>
     </g>
    </g>
    <g id="ytick_5">
     <g id="text_11">
      <!-- 750 -->
      <g style="fill:#262626;" transform="translate(38.145 246.422968)scale(0.16 -0.16)">
       <use xlink:href="#ArialMT-55"/>
       <use x="55.615234" xlink:href="#ArialMT-53"/>
       <use x="111.230469" xlink:href="#ArialMT-48"/>
      </g>
     </g>
    </g>
    <g id="ytick_6">
     <g id="text_12">
      <!-- 1000 -->
      <g style="fill:#262626;" transform="translate(29.2475 184.72109)scale(0.16 -0.16)">
       <use xlink:href="#ArialMT-49"/>
       <use x="55.615234" xlink:href="#ArialMT-48"/>
       <use x="111.230469" xlink:href="#ArialMT-48"/>
       <use x="166.845703" xlink:href="#ArialMT-48"/>
      </g>
     </g>
    </g>
    <g id="ytick_7">
     <g id="text_13">
      <!-- 1250 -->
      <g style="fill:#262626;" transform="translate(29.2475 123.019212)scale(0.16 -0.16)">
       <use xlink:href="#ArialMT-49"/>
       <use x="55.615234" xlink:href="#ArialMT-50"/>
       <use x="111.230469" xlink:href="#ArialMT-53"/>
       <use x="166.845703" xlink:href="#ArialMT-48"/>
      </g>
     </g>
    </g>
    <g id="ytick_8">
     <g id="text_14">
      <!-- 1500 -->
      <g style="fill:#262626;" transform="translate(29.2475 61.317334)scale(0.16 -0.16)">
       <use xlink:href="#ArialMT-49"/>
       <use x="55.615234" xlink:href="#ArialMT-53"/>
       <use x="111.230469" xlink:href="#ArialMT-48"/>
       <use x="166.845703" xlink:href="#ArialMT-48"/>
      </g>
     </g>
    </g>
    <g id="text_15">
     <!-- Count [$h^{-1}$] -->
     <defs>
      <path d="M 6.78125 -19.875 
L 6.78125 71.578125 
L 26.171875 71.578125 
L 26.171875 64.3125 
L 15.578125 64.3125 
L 15.578125 -12.59375 
L 26.171875 -12.59375 
L 26.171875 -19.875 
z
" id="ArialMT-91"/>
      <path d="M 55.71875 33.015625 
L 49.3125 0 
L 40.28125 0 
L 46.6875 32.671875 
Q 47.125 34.96875 47.359375 36.71875 
Q 47.609375 38.484375 47.609375 39.5 
Q 47.609375 43.609375 45.015625 45.890625 
Q 42.4375 48.1875 37.796875 48.1875 
Q 30.5625 48.1875 25.265625 43.296875 
Q 19.96875 38.421875 18.40625 30.328125 
L 12.5 0 
L 3.515625 0 
L 18.3125 75.984375 
L 27.296875 75.984375 
L 21.484375 46.09375 
Q 24.90625 50.6875 30.21875 53.34375 
Q 35.546875 56 41.40625 56 
Q 48.640625 56 52.609375 52.09375 
Q 56.59375 48.1875 56.59375 41.109375 
Q 56.59375 39.359375 56.375 37.359375 
Q 56.15625 35.359375 55.71875 33.015625 
z
" id="DejaVuSans-Oblique-104"/>
      <path d="M 10.59375 35.5 
L 73.1875 35.5 
L 73.1875 27.203125 
L 10.59375 27.203125 
z
" id="DejaVuSans-8722"/>
      <path d="M 12.40625 8.296875 
L 28.515625 8.296875 
L 28.515625 63.921875 
L 10.984375 60.40625 
L 10.984375 69.390625 
L 28.421875 72.90625 
L 38.28125 72.90625 
L 38.28125 8.296875 
L 54.390625 8.296875 
L 54.390625 0 
L 12.40625 0 
z
" id="DejaVuSans-49"/>
      <path d="M 21.296875 -19.875 
L 1.90625 -19.875 
L 1.90625 -12.59375 
L 12.5 -12.59375 
L 12.5 64.3125 
L 1.90625 64.3125 
L 1.90625 71.578125 
L 21.296875 71.578125 
z
" id="ArialMT-93"/>
     </defs>
     <g style="fill:#262626;" transform="translate(21.6 292.112)rotate(-90)scale(0.16 -0.16)">
      <use transform="translate(0 0.684375)" xlink:href="#ArialMT-67"/>
      <use transform="translate(72.216797 0.684375)" xlink:href="#ArialMT-111"/>
      <use transform="translate(127.832031 0.684375)" xlink:href="#ArialMT-117"/>
      <use transform="translate(183.447266 0.684375)" xlink:href="#ArialMT-110"/>
      <use transform="translate(239.0625 0.684375)" xlink:href="#ArialMT-116"/>
      <use transform="translate(266.845703 0.684375)" xlink:href="#ArialMT-32"/>
      <use transform="translate(294.628906 0.684375)" xlink:href="#ArialMT-91"/>
      <use transform="translate(322.412109 0.684375)" xlink:href="#DejaVuSans-Oblique-104"/>
      <use transform="translate(393.238724 38.965625)scale(0.7)" xlink:href="#DejaVuSans-8722"/>
      <use transform="translate(451.891068 38.965625)scale(0.7)" xlink:href="#DejaVuSans-49"/>
      <use transform="translate(499.161576 0.684375)" xlink:href="#ArialMT-93"/>
     </g>
    </g>
   </g>
   <g id="PolyCollection_1">
    <defs>
     <path d="M 141.065978 -105.180267 
L 135.663342 -105.180267 
L 133.751151 -106.338122 
L 130.928649 -107.495978 
L 127.043047 -108.653833 
L 122.062818 -109.811688 
L 116.134341 -110.969544 
L 109.603173 -112.127399 
L 102.980426 -113.285255 
L 96.85278 -114.44311 
L 91.758001 -115.600966 
L 88.065181 -116.758821 
L 85.900495 -117.916677 
L 85.142932 -119.074532 
L 85.487686 -120.232388 
L 86.550313 -121.390243 
L 87.973174 -122.548099 
L 89.500521 -123.705954 
L 91.005103 -124.86381 
L 92.468717 -126.021665 
L 93.933697 -127.179521 
L 95.448015 -128.337376 
L 97.023687 -129.495232 
L 98.619599 -130.653087 
L 100.149534 -131.810942 
L 101.507826 -132.968798 
L 102.600801 -134.126653 
L 103.372689 -135.284509 
L 103.81884 -136.442364 
L 103.984534 -137.60022 
L 103.952322 -138.758075 
L 103.823195 -139.915931 
L 103.69693 -141.073786 
L 103.655495 -142.231642 
L 103.751706 -143.389497 
L 104.004052 -144.547353 
L 104.39794 -145.705208 
L 104.892982 -146.863064 
L 105.434966 -148.020919 
L 105.96986 -149.178775 
L 106.456242 -150.33663 
L 106.872821 -151.494486 
L 107.219371 -152.652341 
L 107.511886 -153.810196 
L 107.774696 -154.968052 
L 108.032756 -156.125907 
L 108.306212 -157.283763 
L 108.607597 -158.441618 
L 108.940832 -159.599474 
L 109.301177 -160.757329 
L 109.676144 -161.915185 
L 110.048105 -163.07304 
L 110.399211 -164.230896 
L 110.718186 -165.388751 
L 111.007182 -166.546607 
L 111.286257 -167.704462 
L 111.593442 -168.862318 
L 111.979891 -170.020173 
L 112.501239 -171.178029 
L 113.207488 -172.335884 
L 114.133892 -173.49374 
L 115.294639 -174.651595 
L 116.680204 -175.80945 
L 118.258423 -176.967306 
L 119.978907 -178.125161 
L 121.780036 -179.283017 
L 123.597356 -180.440872 
L 125.371757 -181.598728 
L 127.055712 -182.756583 
L 128.61638 -183.914439 
L 130.035384 -185.072294 
L 131.306172 -186.23015 
L 132.430401 -187.388005 
L 133.414634 -188.545861 
L 134.267954 -189.703716 
L 135.000431 -190.861572 
L 135.622051 -192.019427 
L 136.141808 -193.177283 
L 136.566969 -194.335138 
L 136.902766 -195.492994 
L 137.152785 -196.650849 
L 137.320147 -197.808704 
L 137.409308 -198.96656 
L 137.428053 -200.124415 
L 137.389092 -201.282271 
L 137.310648 -202.440126 
L 137.215536 -203.597982 
L 137.128619 -204.755837 
L 137.073026 -205.913693 
L 137.06602 -207.071548 
L 137.115738 -208.229404 
L 137.219866 -209.387259 
L 137.366755 -210.545115 
L 137.538669 -211.70297 
L 137.716126 -212.860826 
L 137.882023 -214.018681 
L 138.024435 -215.176537 
L 138.1376 -216.334392 
L 138.221265 -217.492248 
L 138.279004 -218.650103 
L 138.316284 -219.807958 
L 138.413036 -219.807958 
L 138.413036 -219.807958 
L 138.450316 -218.650103 
L 138.508055 -217.492248 
L 138.59172 -216.334392 
L 138.704885 -215.176537 
L 138.847297 -214.018681 
L 139.013194 -212.860826 
L 139.190651 -211.70297 
L 139.362565 -210.545115 
L 139.509454 -209.387259 
L 139.613582 -208.229404 
L 139.6633 -207.071548 
L 139.656294 -205.913693 
L 139.600701 -204.755837 
L 139.513784 -203.597982 
L 139.418672 -202.440126 
L 139.340228 -201.282271 
L 139.301267 -200.124415 
L 139.320012 -198.96656 
L 139.409173 -197.808704 
L 139.576535 -196.650849 
L 139.826554 -195.492994 
L 140.162351 -194.335138 
L 140.587512 -193.177283 
L 141.107269 -192.019427 
L 141.728889 -190.861572 
L 142.461366 -189.703716 
L 143.314686 -188.545861 
L 144.298919 -187.388005 
L 145.423148 -186.23015 
L 146.693936 -185.072294 
L 148.11294 -183.914439 
L 149.673608 -182.756583 
L 151.357563 -181.598728 
L 153.131964 -180.440872 
L 154.949284 -179.283017 
L 156.750413 -178.125161 
L 158.470897 -176.967306 
L 160.049116 -175.80945 
L 161.434681 -174.651595 
L 162.595428 -173.49374 
L 163.521832 -172.335884 
L 164.228081 -171.178029 
L 164.749429 -170.020173 
L 165.135878 -168.862318 
L 165.443063 -167.704462 
L 165.722138 -166.546607 
L 166.011134 -165.388751 
L 166.330109 -164.230896 
L 166.681215 -163.07304 
L 167.053176 -161.915185 
L 167.428143 -160.757329 
L 167.788488 -159.599474 
L 168.121723 -158.441618 
L 168.423108 -157.283763 
L 168.696564 -156.125907 
L 168.954624 -154.968052 
L 169.217434 -153.810196 
L 169.509949 -152.652341 
L 169.856499 -151.494486 
L 170.273078 -150.33663 
L 170.75946 -149.178775 
L 171.294354 -148.020919 
L 171.836338 -146.863064 
L 172.33138 -145.705208 
L 172.725268 -144.547353 
L 172.977614 -143.389497 
L 173.073825 -142.231642 
L 173.03239 -141.073786 
L 172.906125 -139.915931 
L 172.776998 -138.758075 
L 172.744786 -137.60022 
L 172.91048 -136.442364 
L 173.356631 -135.284509 
L 174.128519 -134.126653 
L 175.221494 -132.968798 
L 176.579786 -131.810942 
L 178.109721 -130.653087 
L 179.705633 -129.495232 
L 181.281305 -128.337376 
L 182.795623 -127.179521 
L 184.260603 -126.021665 
L 185.724217 -124.86381 
L 187.228799 -123.705954 
L 188.756146 -122.548099 
L 190.179007 -121.390243 
L 191.241634 -120.232388 
L 191.586388 -119.074532 
L 190.828825 -117.916677 
L 188.664139 -116.758821 
L 184.971319 -115.600966 
L 179.87654 -114.44311 
L 173.748894 -113.285255 
L 167.126147 -112.127399 
L 160.594979 -110.969544 
L 154.666502 -109.811688 
L 149.686273 -108.653833 
L 145.800671 -107.495978 
L 142.978169 -106.338122 
L 141.065978 -105.180267 
z
" id="m690379c44e" style="stroke:#373737;stroke-width:1.5;"/>
    </defs>
    <g clip-path="url(#p75c5558908)">
     <use style="fill:#2b8e70;stroke:#373737;stroke-width:1.5;" x="0" xlink:href="#m690379c44e" y="540.169"/>
    </g>
   </g>
   <g id="PolyCollection_2">
    <defs>
     <path d="M 272.636435 -90.475579 
L 270.201525 -90.475579 
L 269.365721 -93.368963 
L 268.13714 -96.262347 
L 266.445252 -99.155731 
L 264.267706 -102.049115 
L 261.657545 -104.942498 
L 258.759322 -107.835882 
L 255.804437 -110.729266 
L 253.081161 -113.62265 
L 250.88336 -116.516034 
L 249.450634 -119.409418 
L 248.917252 -122.302802 
L 249.285337 -125.196185 
L 250.429797 -128.089569 
L 252.131819 -130.982953 
L 254.129087 -133.876337 
L 256.167344 -136.769721 
L 258.040241 -139.663105 
L 259.610527 -142.556488 
L 260.81253 -145.449872 
L 261.640963 -148.343256 
L 262.13311 -151.23664 
L 262.350735 -154.130024 
L 262.36561 -157.023408 
L 262.24978 -159.916792 
L 262.069615 -162.810175 
L 261.881909 -165.703559 
L 261.730708 -168.596943 
L 261.644626 -171.490327 
L 261.635377 -174.383711 
L 261.698538 -177.277095 
L 261.816946 -180.170479 
L 261.966136 -183.063862 
L 262.120354 -185.957246 
L 262.257444 -188.85063 
L 262.361459 -191.744014 
L 262.422769 -194.637398 
L 262.436323 -197.530782 
L 262.399218 -200.424165 
L 262.308665 -203.317549 
L 262.161098 -206.210933 
L 261.952615 -209.104317 
L 261.680449 -211.997701 
L 261.344854 -214.891085 
L 260.950646 -217.784469 
L 260.507776 -220.677852 
L 260.03066 -223.571236 
L 259.536452 -226.46462 
L 259.042835 -229.358004 
L 258.56602 -232.251388 
L 258.119532 -235.144772 
L 257.713974 -238.038156 
L 257.357599 -240.931539 
L 257.057276 -243.824923 
L 256.819409 -246.718307 
L 256.650509 -249.611691 
L 256.557359 -252.505075 
L 256.546855 -255.398459 
L 256.625682 -258.291842 
L 256.799895 -261.185226 
L 257.074384 -264.07861 
L 257.452098 -266.971994 
L 257.932969 -269.865378 
L 258.512657 -272.758762 
L 259.181472 -275.652146 
L 259.92398 -278.545529 
L 260.719739 -281.438913 
L 261.545311 -284.332297 
L 262.377247 -287.225681 
L 263.195307 -290.119065 
L 263.984996 -293.012449 
L 264.738617 -295.905833 
L 265.454521 -298.799216 
L 266.134816 -301.6926 
L 266.782338 -304.585984 
L 267.3979 -307.479368 
L 267.978695 -310.372752 
L 268.518284 -313.266136 
L 269.008016 -316.159519 
L 269.439318 -319.052903 
L 269.806049 -321.946287 
L 270.106242 -324.839671 
L 270.342792 -327.733055 
L 270.523035 -330.626439 
L 270.65747 -333.519823 
L 270.75801 -336.413206 
L 270.836222 -339.30659 
L 270.901899 -342.199974 
L 270.962159 -345.093358 
L 271.02116 -347.986742 
L 271.080332 -350.880126 
L 271.13902 -353.77351 
L 271.195326 -356.666893 
L 271.246966 -359.560277 
L 271.291982 -362.453661 
L 271.329176 -365.347045 
L 271.358269 -368.240429 
L 271.379802 -371.133813 
L 271.394876 -374.027196 
L 271.404857 -376.92058 
L 271.433103 -376.92058 
L 271.433103 -376.92058 
L 271.443084 -374.027196 
L 271.458158 -371.133813 
L 271.479691 -368.240429 
L 271.508784 -365.347045 
L 271.545978 -362.453661 
L 271.590994 -359.560277 
L 271.642634 -356.666893 
L 271.69894 -353.77351 
L 271.757628 -350.880126 
L 271.8168 -347.986742 
L 271.875801 -345.093358 
L 271.936061 -342.199974 
L 272.001738 -339.30659 
L 272.07995 -336.413206 
L 272.18049 -333.519823 
L 272.314925 -330.626439 
L 272.495168 -327.733055 
L 272.731718 -324.839671 
L 273.031911 -321.946287 
L 273.398642 -319.052903 
L 273.829944 -316.159519 
L 274.319676 -313.266136 
L 274.859265 -310.372752 
L 275.44006 -307.479368 
L 276.055622 -304.585984 
L 276.703144 -301.6926 
L 277.383439 -298.799216 
L 278.099343 -295.905833 
L 278.852964 -293.012449 
L 279.642653 -290.119065 
L 280.460713 -287.225681 
L 281.292649 -284.332297 
L 282.118221 -281.438913 
L 282.91398 -278.545529 
L 283.656488 -275.652146 
L 284.325303 -272.758762 
L 284.904991 -269.865378 
L 285.385862 -266.971994 
L 285.763576 -264.07861 
L 286.038065 -261.185226 
L 286.212278 -258.291842 
L 286.291105 -255.398459 
L 286.280601 -252.505075 
L 286.187451 -249.611691 
L 286.018551 -246.718307 
L 285.780684 -243.824923 
L 285.480361 -240.931539 
L 285.123986 -238.038156 
L 284.718428 -235.144772 
L 284.27194 -232.251388 
L 283.795125 -229.358004 
L 283.301508 -226.46462 
L 282.8073 -223.571236 
L 282.330184 -220.677852 
L 281.887314 -217.784469 
L 281.493106 -214.891085 
L 281.157511 -211.997701 
L 280.885345 -209.104317 
L 280.676862 -206.210933 
L 280.529295 -203.317549 
L 280.438742 -200.424165 
L 280.401637 -197.530782 
L 280.415191 -194.637398 
L 280.476501 -191.744014 
L 280.580516 -188.85063 
L 280.717606 -185.957246 
L 280.871824 -183.063862 
L 281.021014 -180.170479 
L 281.139422 -177.277095 
L 281.202583 -174.383711 
L 281.193334 -171.490327 
L 281.107252 -168.596943 
L 280.956051 -165.703559 
L 280.768345 -162.810175 
L 280.58818 -159.916792 
L 280.47235 -157.023408 
L 280.487225 -154.130024 
L 280.70485 -151.23664 
L 281.196997 -148.343256 
L 282.02543 -145.449872 
L 283.227433 -142.556488 
L 284.797719 -139.663105 
L 286.670616 -136.769721 
L 288.708873 -133.876337 
L 290.706141 -130.982953 
L 292.408163 -128.089569 
L 293.552623 -125.196185 
L 293.920708 -122.302802 
L 293.387326 -119.409418 
L 291.9546 -116.516034 
L 289.756799 -113.62265 
L 287.033523 -110.729266 
L 284.078638 -107.835882 
L 281.180415 -104.942498 
L 278.570254 -102.049115 
L 276.392708 -99.155731 
L 274.70082 -96.262347 
L 273.472239 -93.368963 
L 272.636435 -90.475579 
z
" id="md347237ba6" style="stroke:#373737;stroke-width:1.5;"/>
    </defs>
    <g clip-path="url(#p75c5558908)">
     <use style="fill:#be631d;stroke:#373737;stroke-width:1.5;" x="0" xlink:href="#md347237ba6" y="540.169"/>
    </g>
   </g>
   <g id="PolyCollection_3">
    <defs>
     <path d="M 405.640618 -89.784674 
L 403.305982 -89.784674 
L 402.501548 -92.724425 
L 401.317285 -95.664176 
L 399.684327 -98.603926 
L 397.580425 -101.543677 
L 395.056346 -104.483427 
L 392.251155 -107.423178 
L 389.386802 -110.362928 
L 386.737738 -113.302679 
L 384.58007 -116.24243 
L 383.133587 -119.18218 
L 382.514399 -122.121931 
L 382.713333 -125.061681 
L 383.606249 -128.001432 
L 384.99118 -130.941183 
L 386.638581 -133.880933 
L 388.338576 -136.820684 
L 389.93295 -139.760434 
L 391.327059 -142.700185 
L 392.484069 -145.639936 
L 393.408365 -148.579686 
L 394.125809 -151.519437 
L 394.666849 -154.459187 
L 395.055758 -157.398938 
L 395.306787 -160.338689 
L 395.426242 -163.278439 
L 395.418407 -166.21819 
L 395.292647 -169.15794 
L 395.068977 -172.097691 
L 394.779852 -175.037441 
L 394.467142 -177.977192 
L 394.174888 -180.916943 
L 393.940035 -183.856693 
L 393.784188 -186.796444 
L 393.709183 -189.736194 
L 393.697885 -192.675945 
L 393.719803 -195.615696 
L 393.739523 -198.555446 
L 393.72531 -201.495197 
L 393.655565 -204.434947 
L 393.52185 -207.374698 
L 393.328378 -210.314449 
L 393.088759 -213.254199 
L 392.821289 -216.19395 
L 392.544186 -219.1337 
L 392.272017 -222.073451 
L 392.014231 -225.013202 
L 391.776072 -227.952952 
L 391.561432 -230.892703 
L 391.376433 -233.832453 
L 391.232201 -236.772204 
L 391.145475 -239.711954 
L 391.136541 -242.651705 
L 391.224995 -245.591456 
L 391.424726 -248.531206 
L 391.739815 -251.470957 
L 392.162635 -254.410707 
L 392.674671 -257.350458 
L 393.24961 -260.290209 
L 393.857702 -263.229959 
L 394.470154 -266.16971 
L 395.062614 -269.10946 
L 395.617253 -272.049211 
L 396.123416 -274.988962 
L 396.577187 -277.928712 
L 396.980238 -280.868463 
L 397.33834 -283.808213 
L 397.659738 -286.747964 
L 397.953557 -289.687715 
L 398.228396 -292.627465 
L 398.491302 -295.567216 
L 398.747303 -298.506966 
L 398.99954 -301.446717 
L 399.249886 -304.386467 
L 399.499761 -307.326218 
L 399.750823 -310.265969 
L 400.005327 -313.205719 
L 400.26608 -316.14547 
L 400.53611 -319.08522 
L 400.818165 -322.024971 
L 401.114155 -324.964722 
L 401.424574 -327.904472 
L 401.747942 -330.844223 
L 402.080386 -333.783973 
L 402.415529 -336.723724 
L 402.744881 -339.663475 
L 403.058776 -342.603225 
L 403.347726 -345.542976 
L 403.603866 -348.482726 
L 403.822093 -351.422477 
L 404.000621 -354.362228 
L 404.140849 -357.301978 
L 404.246673 -360.241729 
L 404.323494 -363.181479 
L 404.377224 -366.12123 
L 404.413497 -369.06098 
L 404.437171 -372.000731 
L 404.452126 -374.940482 
L 404.461274 -377.880232 
L 404.466692 -380.819983 
L 404.479908 -380.819983 
L 404.479908 -380.819983 
L 404.485326 -377.880232 
L 404.494474 -374.940482 
L 404.509429 -372.000731 
L 404.533103 -369.06098 
L 404.569376 -366.12123 
L 404.623106 -363.181479 
L 404.699927 -360.241729 
L 404.805751 -357.301978 
L 404.945979 -354.362228 
L 405.124507 -351.422477 
L 405.342734 -348.482726 
L 405.598874 -345.542976 
L 405.887824 -342.603225 
L 406.201719 -339.663475 
L 406.531071 -336.723724 
L 406.866214 -333.783973 
L 407.198658 -330.844223 
L 407.522026 -327.904472 
L 407.832445 -324.964722 
L 408.128435 -322.024971 
L 408.41049 -319.08522 
L 408.68052 -316.14547 
L 408.941273 -313.205719 
L 409.195777 -310.265969 
L 409.446839 -307.326218 
L 409.696714 -304.386467 
L 409.94706 -301.446717 
L 410.199297 -298.506966 
L 410.455298 -295.567216 
L 410.718204 -292.627465 
L 410.993043 -289.687715 
L 411.286862 -286.747964 
L 411.60826 -283.808213 
L 411.966362 -280.868463 
L 412.369413 -277.928712 
L 412.823184 -274.988962 
L 413.329347 -272.049211 
L 413.883986 -269.10946 
L 414.476446 -266.16971 
L 415.088898 -263.229959 
L 415.69699 -260.290209 
L 416.271929 -257.350458 
L 416.783965 -254.410707 
L 417.206785 -251.470957 
L 417.521874 -248.531206 
L 417.721605 -245.591456 
L 417.810059 -242.651705 
L 417.801125 -239.711954 
L 417.714399 -236.772204 
L 417.570167 -233.832453 
L 417.385168 -230.892703 
L 417.170528 -227.952952 
L 416.932369 -225.013202 
L 416.674583 -222.073451 
L 416.402414 -219.1337 
L 416.125311 -216.19395 
L 415.857841 -213.254199 
L 415.618222 -210.314449 
L 415.42475 -207.374698 
L 415.291035 -204.434947 
L 415.22129 -201.495197 
L 415.207077 -198.555446 
L 415.226797 -195.615696 
L 415.248715 -192.675945 
L 415.237417 -189.736194 
L 415.162412 -186.796444 
L 415.006565 -183.856693 
L 414.771712 -180.916943 
L 414.479458 -177.977192 
L 414.166748 -175.037441 
L 413.877623 -172.097691 
L 413.653953 -169.15794 
L 413.528193 -166.21819 
L 413.520358 -163.278439 
L 413.639813 -160.338689 
L 413.890842 -157.398938 
L 414.279751 -154.459187 
L 414.820791 -151.519437 
L 415.538235 -148.579686 
L 416.462531 -145.639936 
L 417.619541 -142.700185 
L 419.01365 -139.760434 
L 420.608024 -136.820684 
L 422.308019 -133.880933 
L 423.95542 -130.941183 
L 425.340351 -128.001432 
L 426.233267 -125.061681 
L 426.432201 -122.121931 
L 425.813013 -119.18218 
L 424.36653 -116.24243 
L 422.208862 -113.302679 
L 419.559798 -110.362928 
L 416.695445 -107.423178 
L 413.890254 -104.483427 
L 411.366175 -101.543677 
L 409.262273 -98.603926 
L 407.629315 -95.664176 
L 406.445052 -92.724425 
L 405.640618 -89.784674 
z
" id="m10aab32210" style="stroke:#373737;stroke-width:1.5;"/>
    </defs>
    <g clip-path="url(#p75c5558908)">
     <use style="fill:#7c78ab;stroke:#373737;stroke-width:1.5;" x="0" xlink:href="#m10aab32210" y="540.169"/>
    </g>
   </g>
   <g id="PolyCollection_4">
    <defs>
     <path d="M 537.89583 -69.533364 
L 537.15941 -69.533364 
L 536.940565 -73.991619 
L 536.624652 -78.449874 
L 536.187295 -82.908129 
L 535.606975 -87.366385 
L 534.869554 -91.82464 
L 533.973107 -96.282895 
L 532.932012 -100.741151 
L 531.779131 -105.199406 
L 530.565061 -109.657661 
L 529.354011 -114.115916 
L 528.216593 -118.574172 
L 527.22068 -123.032427 
L 526.422071 -127.490682 
L 525.856864 -131.948938 
L 525.537101 -136.407193 
L 525.450486 -140.865448 
L 525.564016 -145.323703 
L 525.830563 -149.781959 
L 526.196872 -154.240214 
L 526.611404 -158.698469 
L 527.030683 -163.156725 
L 527.423333 -167.61498 
L 527.771543 -172.073235 
L 528.070187 -176.53149 
L 528.32417 -180.989746 
L 528.544734 -185.448001 
L 528.745508 -189.906256 
L 528.938986 -194.364511 
L 529.133944 -198.822767 
L 529.334073 -203.281022 
L 529.537846 -207.739277 
L 529.739417 -212.197533 
L 529.930191 -216.655788 
L 530.100638 -221.114043 
L 530.241964 -225.572298 
L 530.347372 -230.030554 
L 530.412764 -234.488809 
L 530.436938 -238.947064 
L 530.421403 -243.40532 
L 530.370004 -247.863575 
L 530.288557 -252.32183 
L 530.184572 -256.780085 
L 530.067079 -261.238341 
L 529.946469 -265.696596 
L 529.834189 -270.154851 
L 529.742199 -274.613107 
L 529.682144 -279.071362 
L 529.664331 -283.529617 
L 529.696684 -287.987872 
L 529.783895 -292.446128 
L 529.926949 -296.904383 
L 530.123088 -301.362638 
L 530.366171 -305.820893 
L 530.647282 -310.279149 
L 530.955418 -314.737404 
L 531.278119 -319.195659 
L 531.602007 -323.653915 
L 531.913281 -328.11217 
L 532.198283 -332.570425 
L 532.444228 -337.02868 
L 532.640151 -341.486936 
L 532.777999 -345.945191 
L 532.853727 -350.403446 
L 532.868189 -354.861702 
L 532.82762 -359.319957 
L 532.743529 -363.778212 
L 532.631941 -368.236467 
L 532.511989 -372.694723 
L 532.40402 -377.152978 
L 532.327427 -381.611233 
L 532.298501 -386.069489 
L 532.328635 -390.527744 
L 532.423136 -394.985999 
L 532.580844 -399.444254 
L 532.794617 -403.90251 
L 533.052602 -408.360765 
L 533.340087 -412.81902 
L 533.641639 -417.277275 
L 533.943188 -421.735531 
L 534.233731 -426.193786 
L 534.506413 -430.652041 
L 534.758818 -435.110297 
L 534.992489 -439.568552 
L 535.211782 -444.026807 
L 535.422321 -448.485062 
L 535.629385 -452.943318 
L 535.836543 -457.401573 
L 536.044825 -461.859828 
L 536.252543 -466.318084 
L 536.455755 -470.776339 
L 536.649187 -475.234594 
L 536.827357 -479.692849 
L 536.985618 -484.151105 
L 537.120908 -488.60936 
L 537.232085 -493.067615 
L 537.319861 -497.525871 
L 537.386427 -501.984126 
L 537.434913 -506.442381 
L 537.468837 -510.900636 
L 537.586403 -510.900636 
L 537.586403 -510.900636 
L 537.620327 -506.442381 
L 537.668813 -501.984126 
L 537.735379 -497.525871 
L 537.823155 -493.067615 
L 537.934332 -488.60936 
L 538.069622 -484.151105 
L 538.227883 -479.692849 
L 538.406053 -475.234594 
L 538.599485 -470.776339 
L 538.802697 -466.318084 
L 539.010415 -461.859828 
L 539.218697 -457.401573 
L 539.425855 -452.943318 
L 539.632919 -448.485062 
L 539.843458 -444.026807 
L 540.062751 -439.568552 
L 540.296422 -435.110297 
L 540.548827 -430.652041 
L 540.821509 -426.193786 
L 541.112052 -421.735531 
L 541.413601 -417.277275 
L 541.715153 -412.81902 
L 542.002638 -408.360765 
L 542.260623 -403.90251 
L 542.474396 -399.444254 
L 542.632104 -394.985999 
L 542.726605 -390.527744 
L 542.756739 -386.069489 
L 542.727813 -381.611233 
L 542.65122 -377.152978 
L 542.543251 -372.694723 
L 542.423299 -368.236467 
L 542.311711 -363.778212 
L 542.22762 -359.319957 
L 542.187051 -354.861702 
L 542.201513 -350.403446 
L 542.277241 -345.945191 
L 542.415089 -341.486936 
L 542.611012 -337.02868 
L 542.856957 -332.570425 
L 543.141959 -328.11217 
L 543.453233 -323.653915 
L 543.777121 -319.195659 
L 544.099822 -314.737404 
L 544.407958 -310.279149 
L 544.689069 -305.820893 
L 544.932152 -301.362638 
L 545.128291 -296.904383 
L 545.271345 -292.446128 
L 545.358556 -287.987872 
L 545.390909 -283.529617 
L 545.373096 -279.071362 
L 545.313041 -274.613107 
L 545.221051 -270.154851 
L 545.108771 -265.696596 
L 544.988161 -261.238341 
L 544.870668 -256.780085 
L 544.766683 -252.32183 
L 544.685236 -247.863575 
L 544.633837 -243.40532 
L 544.618302 -238.947064 
L 544.642476 -234.488809 
L 544.707868 -230.030554 
L 544.813276 -225.572298 
L 544.954602 -221.114043 
L 545.125049 -216.655788 
L 545.315823 -212.197533 
L 545.517394 -207.739277 
L 545.721167 -203.281022 
L 545.921296 -198.822767 
L 546.116254 -194.364511 
L 546.309732 -189.906256 
L 546.510506 -185.448001 
L 546.73107 -180.989746 
L 546.985053 -176.53149 
L 547.283697 -172.073235 
L 547.631907 -167.61498 
L 548.024557 -163.156725 
L 548.443836 -158.698469 
L 548.858368 -154.240214 
L 549.224677 -149.781959 
L 549.491224 -145.323703 
L 549.604754 -140.865448 
L 549.518139 -136.407193 
L 549.198376 -131.948938 
L 548.633169 -127.490682 
L 547.83456 -123.032427 
L 546.838647 -118.574172 
L 545.701229 -114.115916 
L 544.490179 -109.657661 
L 543.276109 -105.199406 
L 542.123228 -100.741151 
L 541.082133 -96.282895 
L 540.185686 -91.82464 
L 539.448265 -87.366385 
L 538.867945 -82.908129 
L 538.430588 -78.449874 
L 538.114675 -73.991619 
L 537.89583 -69.533364 
z
" id="m9fc6758299" style="stroke:#373737;stroke-width:1.5;"/>
    </defs>
    <g clip-path="url(#p75c5558908)">
     <use style="fill:#cf418a;stroke:#373737;stroke-width:1.5;" x="0" xlink:href="#m9fc6758299" y="540.169"/>
    </g>
   </g>
   <g id="PolyCollection_5">
    <defs>
     <path d="M 672.605785 -97.779703 
L 668.558095 -97.779703 
L 667.245287 -99.690372 
L 665.349269 -101.601041 
L 662.773428 -103.51171 
L 659.489379 -105.422379 
L 655.573259 -107.333048 
L 651.227323 -109.243717 
L 646.774298 -111.154386 
L 642.618095 -113.065055 
L 639.175212 -114.975724 
L 636.792519 -116.886394 
L 635.674208 -118.797063 
L 635.83967 -120.707732 
L 637.124845 -122.618401 
L 639.225656 -124.52907 
L 641.769274 -126.439739 
L 644.391981 -128.350408 
L 646.803291 -130.261077 
L 648.82302 -132.171746 
L 650.387672 -134.082415 
L 651.531061 -135.993084 
L 652.349258 -137.903753 
L 652.961362 -139.814422 
L 653.475869 -141.725091 
L 653.968812 -143.63576 
L 654.47563 -145.546429 
L 654.994858 -147.457099 
L 655.499276 -149.367768 
L 655.949406 -151.278437 
L 656.305259 -153.189106 
L 656.534227 -155.099775 
L 656.615053 -157.010444 
L 656.539047 -158.921113 
L 656.309856 -160.831782 
L 655.942452 -162.742451 
L 655.461168 -164.65312 
L 654.896305 -166.563789 
L 654.279172 -168.474458 
L 653.636248 -170.385127 
L 652.984035 -172.295796 
L 652.326356 -174.206465 
L 651.655449 -176.117134 
L 650.957058 -178.027804 
L 650.218496 -179.938473 
L 649.43768 -181.849142 
L 648.630741 -183.759811 
L 647.836026 -185.67048 
L 647.113028 -187.581149 
L 646.535833 -189.491818 
L 646.181955 -191.402487 
L 646.118651 -193.313156 
L 646.389723 -195.223825 
L 647.005984 -197.134494 
L 647.941885 -199.045163 
L 649.139242 -200.955832 
L 650.517121 -202.866501 
L 651.985348 -204.77717 
L 653.458312 -206.687839 
L 654.865991 -208.598508 
L 656.160237 -210.509178 
L 657.315838 -212.419847 
L 658.327309 -214.330516 
L 659.203225 -216.241185 
L 659.960201 -218.151854 
L 660.61814 -220.062523 
L 661.197567 -221.973192 
L 661.718875 -223.883861 
L 662.202538 -225.79453 
L 662.669156 -227.705199 
L 663.138477 -229.615868 
L 663.627246 -231.526537 
L 664.146479 -233.437206 
L 664.699166 -235.347875 
L 665.279298 -237.258544 
L 665.872674 -239.169213 
L 666.459291 -241.079883 
L 667.016672 -242.990552 
L 667.523376 -244.901221 
L 667.962052 -246.81189 
L 668.321685 -248.722559 
L 668.598889 -250.633228 
L 668.798196 -252.543897 
L 668.931345 -254.454566 
L 669.015598 -256.365235 
L 669.071234 -258.275904 
L 669.118582 -260.186573 
L 669.175065 -262.097242 
L 669.252842 -264.007911 
L 669.357483 -265.91858 
L 669.487932 -267.829249 
L 669.637679 -269.739918 
L 669.796793 -271.650588 
L 669.954296 -273.561257 
L 670.100317 -275.471926 
L 670.227619 -277.382595 
L 670.332288 -279.293264 
L 670.413619 -281.203933 
L 670.473432 -283.114602 
L 670.515105 -285.025271 
L 670.542632 -286.93594 
L 670.621248 -286.93594 
L 670.621248 -286.93594 
L 670.648775 -285.025271 
L 670.690448 -283.114602 
L 670.750261 -281.203933 
L 670.831592 -279.293264 
L 670.936261 -277.382595 
L 671.063563 -275.471926 
L 671.209584 -273.561257 
L 671.367087 -271.650588 
L 671.526201 -269.739918 
L 671.675948 -267.829249 
L 671.806397 -265.91858 
L 671.911038 -264.007911 
L 671.988815 -262.097242 
L 672.045298 -260.186573 
L 672.092646 -258.275904 
L 672.148282 -256.365235 
L 672.232535 -254.454566 
L 672.365684 -252.543897 
L 672.564991 -250.633228 
L 672.842195 -248.722559 
L 673.201828 -246.81189 
L 673.640504 -244.901221 
L 674.147208 -242.990552 
L 674.704589 -241.079883 
L 675.291206 -239.169213 
L 675.884582 -237.258544 
L 676.464714 -235.347875 
L 677.017401 -233.437206 
L 677.536634 -231.526537 
L 678.025403 -229.615868 
L 678.494724 -227.705199 
L 678.961342 -225.79453 
L 679.445005 -223.883861 
L 679.966313 -221.973192 
L 680.54574 -220.062523 
L 681.203679 -218.151854 
L 681.960655 -216.241185 
L 682.836571 -214.330516 
L 683.848042 -212.419847 
L 685.003643 -210.509178 
L 686.297889 -208.598508 
L 687.705568 -206.687839 
L 689.178532 -204.77717 
L 690.646759 -202.866501 
L 692.024638 -200.955832 
L 693.221995 -199.045163 
L 694.157896 -197.134494 
L 694.774157 -195.223825 
L 695.045229 -193.313156 
L 694.981925 -191.402487 
L 694.628047 -189.491818 
L 694.050852 -187.581149 
L 693.327854 -185.67048 
L 692.533139 -183.759811 
L 691.7262 -181.849142 
L 690.945384 -179.938473 
L 690.206822 -178.027804 
L 689.508431 -176.117134 
L 688.837524 -174.206465 
L 688.179845 -172.295796 
L 687.527632 -170.385127 
L 686.884708 -168.474458 
L 686.267575 -166.563789 
L 685.702712 -164.65312 
L 685.221428 -162.742451 
L 684.854024 -160.831782 
L 684.624833 -158.921113 
L 684.548827 -157.010444 
L 684.629653 -155.099775 
L 684.858621 -153.189106 
L 685.214474 -151.278437 
L 685.664604 -149.367768 
L 686.169022 -147.457099 
L 686.68825 -145.546429 
L 687.195068 -143.63576 
L 687.688011 -141.725091 
L 688.202518 -139.814422 
L 688.814622 -137.903753 
L 689.632819 -135.993084 
L 690.776208 -134.082415 
L 692.34086 -132.171746 
L 694.360589 -130.261077 
L 696.771899 -128.350408 
L 699.394606 -126.439739 
L 701.938224 -124.52907 
L 704.039035 -122.618401 
L 705.32421 -120.707732 
L 705.489672 -118.797063 
L 704.371361 -116.886394 
L 701.988668 -114.975724 
L 698.545785 -113.065055 
L 694.389582 -111.154386 
L 689.936557 -109.243717 
L 685.590621 -107.333048 
L 681.674501 -105.422379 
L 678.390452 -103.51171 
L 675.814611 -101.601041 
L 673.918593 -99.690372 
L 672.605785 -97.779703 
z
" id="mad4c995dc2" style="stroke:#373737;stroke-width:1.5;"/>
    </defs>
    <g clip-path="url(#p75c5558908)">
     <use style="fill:#65952f;stroke:#373737;stroke-width:1.5;" x="0" xlink:href="#mad4c995dc2" y="540.169"/>
    </g>
   </g>
   <g id="line2d_1">
    <path clip-path="url(#p75c5558908)" d="M 138.36466 425.802352 
L 138.36466 329.547423 
" style="fill:none;stroke:#373737;stroke-linecap:round;stroke-width:1.5;"/>
   </g>
   <g id="line2d_2">
    <path clip-path="url(#p75c5558908)" d="M 138.36466 416.670474 
L 138.36466 380.636578 
" style="fill:none;stroke:#373737;stroke-linecap:round;stroke-width:4.5;"/>
   </g>
   <g id="line2d_3">
    <path clip-path="url(#p75c5558908)" d="M 271.41898 425.555545 
L 271.41898 187.386296 
" style="fill:none;stroke:#373737;stroke-linecap:round;stroke-width:1.5;"/>
   </g>
   <g id="line2d_4">
    <path clip-path="url(#p75c5558908)" d="M 271.41898 410.253479 
L 271.41898 287.096531 
" style="fill:none;stroke:#373737;stroke-linecap:round;stroke-width:4.5;"/>
   </g>
   <g id="line2d_5">
    <path clip-path="url(#p75c5558908)" d="M 404.4733 425.802352 
L 404.4733 183.930991 
" style="fill:none;stroke:#373737;stroke-linecap:round;stroke-width:1.5;"/>
   </g>
   <g id="line2d_6">
    <path clip-path="url(#p75c5558908)" d="M 404.4733 408.032211 
L 404.4733 292.958209 
" style="fill:none;stroke:#373737;stroke-linecap:round;stroke-width:4.5;"/>
   </g>
   <g id="line2d_7">
    <path clip-path="url(#p75c5558908)" d="M 537.52762 425.555545 
L 537.52762 74.348455 
" style="fill:none;stroke:#373737;stroke-linecap:round;stroke-width:1.5;"/>
   </g>
   <g id="line2d_8">
    <path clip-path="url(#p75c5558908)" d="M 537.52762 384.153585 
L 537.52762 224.592528 
" style="fill:none;stroke:#373737;stroke-linecap:round;stroke-width:4.5;"/>
   </g>
   <g id="line2d_9">
    <path clip-path="url(#p75c5558908)" d="M 670.58194 425.802352 
L 670.58194 269.820005 
" style="fill:none;stroke:#373737;stroke-linecap:round;stroke-width:1.5;"/>
   </g>
   <g id="line2d_10">
    <path clip-path="url(#p75c5558908)" d="M 670.58194 416.917282 
L 670.58194 345.589911 
" style="fill:none;stroke:#373737;stroke-linecap:round;stroke-width:4.5;"/>
   </g>
   <g id="patch_3">
    <path d="M 71.8375 492.704 
L 71.8375 7.2 
" style="fill:none;stroke:#262626;stroke-linecap:square;stroke-linejoin:miter;stroke-width:0.8;"/>
   </g>
   <g id="patch_4">
    <path d="M 71.8375 492.704 
L 737.1091 492.704 
" style="fill:none;stroke:#262626;stroke-linecap:square;stroke-linejoin:miter;stroke-width:0.8;"/>
   </g>
   <g id="PathCollection_1">
    <defs>
     <path d="M 0 1.5 
C 0.397805 1.5 0.77937 1.341951 1.06066 1.06066 
C 1.341951 0.77937 1.5 0.397805 1.5 0 
C 1.5 -0.397805 1.341951 -0.77937 1.06066 -1.06066 
C 0.77937 -1.341951 0.397805 -1.5 0 -1.5 
C -0.397805 -1.5 -0.77937 -1.341951 -1.06066 -1.06066 
C -1.341951 -0.77937 -1.5 -0.397805 -1.5 0 
C -1.5 0.397805 -1.341951 0.77937 -1.06066 1.06066 
C -0.77937 1.341951 -0.397805 1.5 0 1.5 
z
" id="mcdc8630520" style="stroke:#373737;"/>
    </defs>
    <g clip-path="url(#p75c5558908)">
     <use style="fill:#ffffff;stroke:#373737;" x="138.36466" xlink:href="#mcdc8630520" y="400.257775"/>
    </g>
   </g>
   <g id="PathCollection_2">
    <g clip-path="url(#p75c5558908)">
     <use style="fill:#ffffff;stroke:#373737;" x="271.41898" xlink:href="#mcdc8630520" y="340.653761"/>
    </g>
   </g>
   <g id="PathCollection_3">
    <g clip-path="url(#p75c5558908)">
     <use style="fill:#ffffff;stroke:#373737;" x="404.4733" xlink:href="#mcdc8630520" y="346.700545"/>
    </g>
   </g>
   <g id="PathCollection_4">
    <g clip-path="url(#p75c5558908)">
     <use style="fill:#ffffff;stroke:#373737;" x="537.52762" xlink:href="#mcdc8630520" y="308.321977"/>
    </g>
   </g>
   <g id="PathCollection_5">
    <g clip-path="url(#p75c5558908)">
     <use style="fill:#ffffff;stroke:#373737;" x="670.58194" xlink:href="#mcdc8630520" y="376.317446"/>
    </g>
   </g>
  </g>
 </g>
 <defs>
  <clipPath id="p75c5558908">
   <rect height="485.504" width="665.2716" x="71.8375" y="7.2"/>
  </clipPath>
 </defs>
</svg>
