<?xml version="1.0" encoding="utf-8" standalone="no"?>
<!DOCTYPE svg PUBLIC "-//W3C//DTD SVG 1.1//EN"
  "http://www.w3.org/Graphics/SVG/1.1/DTD/svg11.dtd">
<!-- Created with matplotlib (https://matplotlib.org/) -->
<svg height="509.319pt" version="1.1" viewBox="0 0 744.7655 509.319" width="744.7655pt" xmlns="http://www.w3.org/2000/svg" xmlns:xlink="http://www.w3.org/1999/xlink">
 <defs>
  <style type="text/css">
*{stroke-linecap:butt;stroke-linejoin:round;white-space:pre;}
  </style>
 </defs>
 <g id="figure_1">
  <g id="patch_1">
   <path d="M 0 509.319 
L 744.7655 509.319 
L 744.7655 0 
L 0 0 
z
" style="fill:#ffffff;"/>
  </g>
  <g id="axes_1">
   <g id="patch_2">
    <path d="M 71.8375 461.854 
L 592.217863 461.854 
L 592.217863 7.2 
L 71.8375 7.2 
z
" style="fill:#ffffff;"/>
   </g>
   <g id="matplotlib.axis_1">
    <g id="xtick_1">
     <g id="text_1">
      <!-- 1010 -->
      <defs>
       <path d="M 37.25 0 
L 28.46875 0 
L 28.46875 56 
Q 25.296875 52.984375 20.140625 49.953125 
Q 14.984375 46.921875 10.890625 45.40625 
L 10.890625 53.90625 
Q 18.265625 57.375 23.78125 62.296875 
Q 29.296875 67.234375 31.59375 71.875 
L 37.25 71.875 
z
" id="ArialMT-49"/>
       <path d="M 4.15625 35.296875 
Q 4.15625 48 6.765625 55.734375 
Q 9.375 63.484375 14.515625 67.671875 
Q 19.671875 71.875 27.484375 71.875 
Q 33.25 71.875 37.59375 69.546875 
Q 41.9375 67.234375 44.765625 62.859375 
Q 47.609375 58.5 49.21875 52.21875 
Q 50.828125 45.953125 50.828125 35.296875 
Q 50.828125 22.703125 48.234375 14.96875 
Q 45.65625 7.234375 40.5 3 
Q 35.359375 -1.21875 27.484375 -1.21875 
Q 17.140625 -1.21875 11.234375 6.203125 
Q 4.15625 15.140625 4.15625 35.296875 
z
M 13.1875 35.296875 
Q 13.1875 17.671875 17.3125 11.828125 
Q 21.4375 6 27.484375 6 
Q 33.546875 6 37.671875 11.859375 
Q 41.796875 17.71875 41.796875 35.296875 
Q 41.796875 52.984375 37.671875 58.78125 
Q 33.546875 64.59375 27.390625 64.59375 
Q 21.34375 64.59375 17.71875 59.46875 
Q 13.1875 52.9375 13.1875 35.296875 
z
" id="ArialMT-48"/>
      </defs>
      <g style="fill:#262626;" transform="translate(106.080536 480.3065)scale(0.16 -0.16)">
       <use xlink:href="#ArialMT-49"/>
       <use x="55.615234" xlink:href="#ArialMT-48"/>
       <use x="111.230469" xlink:href="#ArialMT-49"/>
       <use x="166.845703" xlink:href="#ArialMT-48"/>
      </g>
     </g>
    </g>
    <g id="xtick_2">
     <g id="text_2">
      <!-- 1010-1 -->
      <defs>
       <path d="M 3.171875 21.484375 
L 3.171875 30.328125 
L 30.171875 30.328125 
L 30.171875 21.484375 
z
" id="ArialMT-45"/>
      </defs>
      <g style="fill:#262626;" transform="translate(203.044109 480.3065)scale(0.16 -0.16)">
       <use xlink:href="#ArialMT-49"/>
       <use x="55.615234" xlink:href="#ArialMT-48"/>
       <use x="111.230469" xlink:href="#ArialMT-49"/>
       <use x="166.845703" xlink:href="#ArialMT-48"/>
       <use x="222.460938" xlink:href="#ArialMT-45"/>
       <use x="255.761719" xlink:href="#ArialMT-49"/>
      </g>
     </g>
    </g>
    <g id="xtick_3">
     <g id="text_3">
      <!-- 1014-150 -->
      <defs>
       <path d="M 32.328125 0 
L 32.328125 17.140625 
L 1.265625 17.140625 
L 1.265625 25.203125 
L 33.9375 71.578125 
L 41.109375 71.578125 
L 41.109375 25.203125 
L 50.78125 25.203125 
L 50.78125 17.140625 
L 41.109375 17.140625 
L 41.109375 0 
z
M 32.328125 25.203125 
L 32.328125 57.46875 
L 9.90625 25.203125 
z
" id="ArialMT-52"/>
       <path d="M 4.15625 18.75 
L 13.375 19.53125 
Q 14.40625 12.796875 18.140625 9.390625 
Q 21.875 6 27.15625 6 
Q 33.5 6 37.890625 10.78125 
Q 42.28125 15.578125 42.28125 23.484375 
Q 42.28125 31 38.0625 35.34375 
Q 33.84375 39.703125 27 39.703125 
Q 22.75 39.703125 19.328125 37.765625 
Q 15.921875 35.84375 13.96875 32.765625 
L 5.71875 33.84375 
L 12.640625 70.609375 
L 48.25 70.609375 
L 48.25 62.203125 
L 19.671875 62.203125 
L 15.828125 42.96875 
Q 22.265625 47.46875 29.34375 47.46875 
Q 38.71875 47.46875 45.15625 40.96875 
Q 51.609375 34.46875 51.609375 24.265625 
Q 51.609375 14.546875 45.953125 7.46875 
Q 39.0625 -1.21875 27.15625 -1.21875 
Q 17.390625 -1.21875 11.203125 4.25 
Q 5.03125 9.71875 4.15625 18.75 
z
" id="ArialMT-53"/>
      </defs>
      <g style="fill:#262626;" transform="translate(298.222681 480.3065)scale(0.16 -0.16)">
       <use xlink:href="#ArialMT-49"/>
       <use x="55.615234" xlink:href="#ArialMT-48"/>
       <use x="111.230469" xlink:href="#ArialMT-49"/>
       <use x="166.845703" xlink:href="#ArialMT-52"/>
       <use x="222.460938" xlink:href="#ArialMT-45"/>
       <use x="255.761719" xlink:href="#ArialMT-49"/>
       <use x="311.376953" xlink:href="#ArialMT-53"/>
       <use x="366.992188" xlink:href="#ArialMT-48"/>
      </g>
     </g>
    </g>
    <g id="xtick_4">
     <g id="text_4">
      <!-- 1016-140 -->
      <defs>
       <path d="M 49.75 54.046875 
L 41.015625 53.375 
Q 39.84375 58.546875 37.703125 60.890625 
Q 34.125 64.65625 28.90625 64.65625 
Q 24.703125 64.65625 21.53125 62.3125 
Q 17.390625 59.28125 14.984375 53.46875 
Q 12.59375 47.65625 12.5 36.921875 
Q 15.671875 41.75 20.265625 44.09375 
Q 24.859375 46.4375 29.890625 46.4375 
Q 38.671875 46.4375 44.84375 39.96875 
Q 51.03125 33.5 51.03125 23.25 
Q 51.03125 16.5 48.125 10.71875 
Q 45.21875 4.9375 40.140625 1.859375 
Q 35.0625 -1.21875 28.609375 -1.21875 
Q 17.625 -1.21875 10.6875 6.859375 
Q 3.765625 14.9375 3.765625 33.5 
Q 3.765625 54.25 11.421875 63.671875 
Q 18.109375 71.875 29.4375 71.875 
Q 37.890625 71.875 43.28125 67.140625 
Q 48.6875 62.40625 49.75 54.046875 
z
M 13.875 23.1875 
Q 13.875 18.65625 15.796875 14.5 
Q 17.71875 10.359375 21.1875 8.171875 
Q 24.65625 6 28.46875 6 
Q 34.03125 6 38.03125 10.484375 
Q 42.046875 14.984375 42.046875 22.703125 
Q 42.046875 30.125 38.078125 34.390625 
Q 34.125 38.671875 28.125 38.671875 
Q 22.171875 38.671875 18.015625 34.390625 
Q 13.875 30.125 13.875 23.1875 
z
" id="ArialMT-54"/>
      </defs>
      <g style="fill:#262626;" transform="translate(402.298754 480.3065)scale(0.16 -0.16)">
       <use xlink:href="#ArialMT-49"/>
       <use x="55.615234" xlink:href="#ArialMT-48"/>
       <use x="111.230469" xlink:href="#ArialMT-49"/>
       <use x="166.845703" xlink:href="#ArialMT-54"/>
       <use x="222.460938" xlink:href="#ArialMT-45"/>
       <use x="255.761719" xlink:href="#ArialMT-49"/>
       <use x="311.376953" xlink:href="#ArialMT-52"/>
       <use x="366.992188" xlink:href="#ArialMT-48"/>
      </g>
     </g>
    </g>
    <g id="xtick_5">
     <g id="text_5">
      <!-- 1021-156 -->
      <defs>
       <path d="M 50.34375 8.453125 
L 50.34375 0 
L 3.03125 0 
Q 2.9375 3.171875 4.046875 6.109375 
Q 5.859375 10.9375 9.828125 15.625 
Q 13.8125 20.3125 21.34375 26.46875 
Q 33.015625 36.03125 37.109375 41.625 
Q 41.21875 47.21875 41.21875 52.203125 
Q 41.21875 57.421875 37.46875 61 
Q 33.734375 64.59375 27.734375 64.59375 
Q 21.390625 64.59375 17.578125 60.78125 
Q 13.765625 56.984375 13.71875 50.25 
L 4.6875 51.171875 
Q 5.609375 61.28125 11.65625 66.578125 
Q 17.71875 71.875 27.9375 71.875 
Q 38.234375 71.875 44.234375 66.15625 
Q 50.25 60.453125 50.25 52 
Q 50.25 47.703125 48.484375 43.546875 
Q 46.734375 39.40625 42.65625 34.8125 
Q 38.578125 30.21875 29.109375 22.21875 
Q 21.1875 15.578125 18.9375 13.203125 
Q 16.703125 10.84375 15.234375 8.453125 
z
" id="ArialMT-50"/>
      </defs>
      <g style="fill:#262626;" transform="translate(506.374827 480.3065)scale(0.16 -0.16)">
       <use xlink:href="#ArialMT-49"/>
       <use x="55.615234" xlink:href="#ArialMT-48"/>
       <use x="111.230469" xlink:href="#ArialMT-50"/>
       <use x="166.845703" xlink:href="#ArialMT-49"/>
       <use x="222.460938" xlink:href="#ArialMT-45"/>
       <use x="255.761719" xlink:href="#ArialMT-49"/>
       <use x="311.376953" xlink:href="#ArialMT-53"/>
       <use x="366.992188" xlink:href="#ArialMT-54"/>
      </g>
     </g>
    </g>
    <g id="text_6">
     <!-- Counter id -->
     <defs>
      <path d="M 58.796875 25.09375 
L 68.265625 22.703125 
Q 65.28125 11.03125 57.546875 4.90625 
Q 49.8125 -1.21875 38.625 -1.21875 
Q 27.046875 -1.21875 19.796875 3.484375 
Q 12.546875 8.203125 8.765625 17.140625 
Q 4.984375 26.078125 4.984375 36.328125 
Q 4.984375 47.515625 9.25 55.828125 
Q 13.53125 64.15625 21.40625 68.46875 
Q 29.296875 72.796875 38.765625 72.796875 
Q 49.515625 72.796875 56.828125 67.328125 
Q 64.15625 61.859375 67.046875 51.953125 
L 57.71875 49.75 
Q 55.21875 57.5625 50.484375 61.125 
Q 45.75 64.703125 38.578125 64.703125 
Q 30.328125 64.703125 24.78125 60.734375 
Q 19.234375 56.78125 16.984375 50.109375 
Q 14.75 43.453125 14.75 36.375 
Q 14.75 27.25 17.40625 20.4375 
Q 20.0625 13.625 25.671875 10.25 
Q 31.296875 6.890625 37.84375 6.890625 
Q 45.796875 6.890625 51.3125 11.46875 
Q 56.84375 16.0625 58.796875 25.09375 
z
" id="ArialMT-67"/>
      <path d="M 3.328125 25.921875 
Q 3.328125 40.328125 11.328125 47.265625 
Q 18.015625 53.03125 27.640625 53.03125 
Q 38.328125 53.03125 45.109375 46.015625 
Q 51.90625 39.015625 51.90625 26.65625 
Q 51.90625 16.65625 48.90625 10.90625 
Q 45.90625 5.171875 40.15625 2 
Q 34.421875 -1.171875 27.640625 -1.171875 
Q 16.75 -1.171875 10.03125 5.8125 
Q 3.328125 12.796875 3.328125 25.921875 
z
M 12.359375 25.921875 
Q 12.359375 15.96875 16.703125 11.015625 
Q 21.046875 6.0625 27.640625 6.0625 
Q 34.1875 6.0625 38.53125 11.03125 
Q 42.875 16.015625 42.875 26.21875 
Q 42.875 35.84375 38.5 40.796875 
Q 34.125 45.75 27.640625 45.75 
Q 21.046875 45.75 16.703125 40.8125 
Q 12.359375 35.890625 12.359375 25.921875 
z
" id="ArialMT-111"/>
      <path d="M 40.578125 0 
L 40.578125 7.625 
Q 34.515625 -1.171875 24.125 -1.171875 
Q 19.53125 -1.171875 15.546875 0.578125 
Q 11.578125 2.34375 9.640625 5 
Q 7.71875 7.671875 6.9375 11.53125 
Q 6.390625 14.109375 6.390625 19.734375 
L 6.390625 51.859375 
L 15.1875 51.859375 
L 15.1875 23.09375 
Q 15.1875 16.21875 15.71875 13.8125 
Q 16.546875 10.359375 19.234375 8.375 
Q 21.921875 6.390625 25.875 6.390625 
Q 29.828125 6.390625 33.296875 8.421875 
Q 36.765625 10.453125 38.203125 13.9375 
Q 39.65625 17.4375 39.65625 24.078125 
L 39.65625 51.859375 
L 48.4375 51.859375 
L 48.4375 0 
z
" id="ArialMT-117"/>
      <path d="M 6.59375 0 
L 6.59375 51.859375 
L 14.5 51.859375 
L 14.5 44.484375 
Q 20.21875 53.03125 31 53.03125 
Q 35.6875 53.03125 39.625 51.34375 
Q 43.5625 49.65625 45.515625 46.921875 
Q 47.46875 44.1875 48.25 40.4375 
Q 48.734375 37.984375 48.734375 31.890625 
L 48.734375 0 
L 39.9375 0 
L 39.9375 31.546875 
Q 39.9375 36.921875 38.90625 39.578125 
Q 37.890625 42.234375 35.28125 43.8125 
Q 32.671875 45.40625 29.15625 45.40625 
Q 23.53125 45.40625 19.453125 41.84375 
Q 15.375 38.28125 15.375 28.328125 
L 15.375 0 
z
" id="ArialMT-110"/>
      <path d="M 25.78125 7.859375 
L 27.046875 0.09375 
Q 23.34375 -0.6875 20.40625 -0.6875 
Q 15.625 -0.6875 12.984375 0.828125 
Q 10.359375 2.34375 9.28125 4.8125 
Q 8.203125 7.28125 8.203125 15.1875 
L 8.203125 45.015625 
L 1.765625 45.015625 
L 1.765625 51.859375 
L 8.203125 51.859375 
L 8.203125 64.703125 
L 16.9375 69.96875 
L 16.9375 51.859375 
L 25.78125 51.859375 
L 25.78125 45.015625 
L 16.9375 45.015625 
L 16.9375 14.703125 
Q 16.9375 10.9375 17.40625 9.859375 
Q 17.875 8.796875 18.921875 8.15625 
Q 19.96875 7.515625 21.921875 7.515625 
Q 23.390625 7.515625 25.78125 7.859375 
z
" id="ArialMT-116"/>
      <path d="M 42.09375 16.703125 
L 51.171875 15.578125 
Q 49.03125 7.625 43.21875 3.21875 
Q 37.40625 -1.171875 28.375 -1.171875 
Q 17 -1.171875 10.328125 5.828125 
Q 3.65625 12.84375 3.65625 25.484375 
Q 3.65625 38.578125 10.390625 45.796875 
Q 17.140625 53.03125 27.875 53.03125 
Q 38.28125 53.03125 44.875 45.953125 
Q 51.46875 38.875 51.46875 26.03125 
Q 51.46875 25.25 51.421875 23.6875 
L 12.75 23.6875 
Q 13.234375 15.140625 17.578125 10.59375 
Q 21.921875 6.0625 28.421875 6.0625 
Q 33.25 6.0625 36.671875 8.59375 
Q 40.09375 11.140625 42.09375 16.703125 
z
M 13.234375 30.90625 
L 42.1875 30.90625 
Q 41.609375 37.453125 38.875 40.71875 
Q 34.671875 45.796875 27.984375 45.796875 
Q 21.921875 45.796875 17.796875 41.75 
Q 13.671875 37.703125 13.234375 30.90625 
z
" id="ArialMT-101"/>
      <path d="M 6.5 0 
L 6.5 51.859375 
L 14.40625 51.859375 
L 14.40625 44 
Q 17.4375 49.515625 20 51.265625 
Q 22.5625 53.03125 25.640625 53.03125 
Q 30.078125 53.03125 34.671875 50.203125 
L 31.640625 42.046875 
Q 28.421875 43.953125 25.203125 43.953125 
Q 22.3125 43.953125 20.015625 42.21875 
Q 17.71875 40.484375 16.75 37.40625 
Q 15.28125 32.71875 15.28125 27.15625 
L 15.28125 0 
z
" id="ArialMT-114"/>
      <path id="ArialMT-32"/>
      <path d="M 6.640625 61.46875 
L 6.640625 71.578125 
L 15.4375 71.578125 
L 15.4375 61.46875 
z
M 6.640625 0 
L 6.640625 51.859375 
L 15.4375 51.859375 
L 15.4375 0 
z
" id="ArialMT-105"/>
      <path d="M 40.234375 0 
L 40.234375 6.546875 
Q 35.296875 -1.171875 25.734375 -1.171875 
Q 19.53125 -1.171875 14.328125 2.25 
Q 9.125 5.671875 6.265625 11.796875 
Q 3.421875 17.921875 3.421875 25.875 
Q 3.421875 33.640625 6 39.96875 
Q 8.59375 46.296875 13.765625 49.65625 
Q 18.953125 53.03125 25.34375 53.03125 
Q 30.03125 53.03125 33.6875 51.046875 
Q 37.359375 49.078125 39.65625 45.90625 
L 39.65625 71.578125 
L 48.390625 71.578125 
L 48.390625 0 
z
M 12.453125 25.875 
Q 12.453125 15.921875 16.640625 10.984375 
Q 20.84375 6.0625 26.5625 6.0625 
Q 32.328125 6.0625 36.34375 10.765625 
Q 40.375 15.484375 40.375 25.140625 
Q 40.375 35.796875 36.265625 40.765625 
Q 32.171875 45.75 26.171875 45.75 
Q 20.3125 45.75 16.375 40.96875 
Q 12.453125 36.1875 12.453125 25.875 
z
" id="ArialMT-100"/>
     </defs>
     <g style="fill:#262626;" transform="translate(295.120181 498.939)scale(0.16 -0.16)">
      <use xlink:href="#ArialMT-67"/>
      <use x="72.216797" xlink:href="#ArialMT-111"/>
      <use x="127.832031" xlink:href="#ArialMT-117"/>
      <use x="183.447266" xlink:href="#ArialMT-110"/>
      <use x="239.0625" xlink:href="#ArialMT-116"/>
      <use x="266.845703" xlink:href="#ArialMT-101"/>
      <use x="322.460938" xlink:href="#ArialMT-114"/>
      <use x="355.761719" xlink:href="#ArialMT-32"/>
      <use x="383.544922" xlink:href="#ArialMT-105"/>
      <use x="405.761719" xlink:href="#ArialMT-100"/>
     </g>
    </g>
   </g>
   <g id="matplotlib.axis_2">
    <g id="ytick_1">
     <g id="text_7">
      <!-- −500 -->
      <defs>
       <path d="M 52.828125 31.203125 
L 5.5625 31.203125 
L 5.5625 39.40625 
L 52.828125 39.40625 
z
" id="ArialMT-8722"/>
      </defs>
      <g style="fill:#262626;" transform="translate(28.8 464.762551)scale(0.16 -0.16)">
       <use xlink:href="#ArialMT-8722"/>
       <use x="58.398438" xlink:href="#ArialMT-53"/>
       <use x="114.013672" xlink:href="#ArialMT-48"/>
       <use x="169.628906" xlink:href="#ArialMT-48"/>
      </g>
     </g>
    </g>
    <g id="ytick_2">
     <g id="text_8">
      <!-- 0 -->
      <g style="fill:#262626;" transform="translate(55.94 406.937948)scale(0.16 -0.16)">
       <use xlink:href="#ArialMT-48"/>
      </g>
     </g>
    </g>
    <g id="ytick_3">
     <g id="text_9">
      <!-- 500 -->
      <g style="fill:#262626;" transform="translate(38.145 349.113345)scale(0.16 -0.16)">
       <use xlink:href="#ArialMT-53"/>
       <use x="55.615234" xlink:href="#ArialMT-48"/>
       <use x="111.230469" xlink:href="#ArialMT-48"/>
      </g>
     </g>
    </g>
    <g id="ytick_4">
     <g id="text_10">
      <!-- 1000 -->
      <g style="fill:#262626;" transform="translate(29.2475 291.288742)scale(0.16 -0.16)">
       <use xlink:href="#ArialMT-49"/>
       <use x="55.615234" xlink:href="#ArialMT-48"/>
       <use x="111.230469" xlink:href="#ArialMT-48"/>
       <use x="166.845703" xlink:href="#ArialMT-48"/>
      </g>
     </g>
    </g>
    <g id="ytick_5">
     <g id="text_11">
      <!-- 1500 -->
      <g style="fill:#262626;" transform="translate(29.2475 233.46414)scale(0.16 -0.16)">
       <use xlink:href="#ArialMT-49"/>
       <use x="55.615234" xlink:href="#ArialMT-53"/>
       <use x="111.230469" xlink:href="#ArialMT-48"/>
       <use x="166.845703" xlink:href="#ArialMT-48"/>
      </g>
     </g>
    </g>
    <g id="ytick_6">
     <g id="text_12">
      <!-- 2000 -->
      <g style="fill:#262626;" transform="translate(29.2475 175.639537)scale(0.16 -0.16)">
       <use xlink:href="#ArialMT-50"/>
       <use x="55.615234" xlink:href="#ArialMT-48"/>
       <use x="111.230469" xlink:href="#ArialMT-48"/>
       <use x="166.845703" xlink:href="#ArialMT-48"/>
      </g>
     </g>
    </g>
    <g id="ytick_7">
     <g id="text_13">
      <!-- 2500 -->
      <g style="fill:#262626;" transform="translate(29.2475 117.814934)scale(0.16 -0.16)">
       <use xlink:href="#ArialMT-50"/>
       <use x="55.615234" xlink:href="#ArialMT-53"/>
       <use x="111.230469" xlink:href="#ArialMT-48"/>
       <use x="166.845703" xlink:href="#ArialMT-48"/>
      </g>
     </g>
    </g>
    <g id="ytick_8">
     <g id="text_14">
      <!-- 3000 -->
      <defs>
       <path d="M 4.203125 18.890625 
L 12.984375 20.0625 
Q 14.5 12.59375 18.140625 9.296875 
Q 21.78125 6 27 6 
Q 33.203125 6 37.46875 10.296875 
Q 41.75 14.59375 41.75 20.953125 
Q 41.75 27 37.796875 30.921875 
Q 33.84375 34.859375 27.734375 34.859375 
Q 25.25 34.859375 21.53125 33.890625 
L 22.515625 41.609375 
Q 23.390625 41.5 23.921875 41.5 
Q 29.546875 41.5 34.03125 44.421875 
Q 38.53125 47.359375 38.53125 53.46875 
Q 38.53125 58.296875 35.25 61.46875 
Q 31.984375 64.65625 26.8125 64.65625 
Q 21.6875 64.65625 18.265625 61.421875 
Q 14.84375 58.203125 13.875 51.765625 
L 5.078125 53.328125 
Q 6.6875 62.15625 12.390625 67.015625 
Q 18.109375 71.875 26.609375 71.875 
Q 32.46875 71.875 37.390625 69.359375 
Q 42.328125 66.84375 44.9375 62.5 
Q 47.5625 58.15625 47.5625 53.265625 
Q 47.5625 48.640625 45.0625 44.828125 
Q 42.578125 41.015625 37.703125 38.765625 
Q 44.046875 37.3125 47.5625 32.6875 
Q 51.078125 28.078125 51.078125 21.140625 
Q 51.078125 11.765625 44.234375 5.25 
Q 37.40625 -1.265625 26.953125 -1.265625 
Q 17.53125 -1.265625 11.296875 4.34375 
Q 5.078125 9.96875 4.203125 18.890625 
z
" id="ArialMT-51"/>
      </defs>
      <g style="fill:#262626;" transform="translate(29.2475 59.990332)scale(0.16 -0.16)">
       <use xlink:href="#ArialMT-51"/>
       <use x="55.615234" xlink:href="#ArialMT-48"/>
       <use x="111.230469" xlink:href="#ArialMT-48"/>
       <use x="166.845703" xlink:href="#ArialMT-48"/>
      </g>
     </g>
    </g>
    <g id="text_15">
     <!-- Count [$h^{-1}$] -->
     <defs>
      <path d="M 6.78125 -19.875 
L 6.78125 71.578125 
L 26.171875 71.578125 
L 26.171875 64.3125 
L 15.578125 64.3125 
L 15.578125 -12.59375 
L 26.171875 -12.59375 
L 26.171875 -19.875 
z
" id="ArialMT-91"/>
      <path d="M 55.71875 33.015625 
L 49.3125 0 
L 40.28125 0 
L 46.6875 32.671875 
Q 47.125 34.96875 47.359375 36.71875 
Q 47.609375 38.484375 47.609375 39.5 
Q 47.609375 43.609375 45.015625 45.890625 
Q 42.4375 48.1875 37.796875 48.1875 
Q 30.5625 48.1875 25.265625 43.296875 
Q 19.96875 38.421875 18.40625 30.328125 
L 12.5 0 
L 3.515625 0 
L 18.3125 75.984375 
L 27.296875 75.984375 
L 21.484375 46.09375 
Q 24.90625 50.6875 30.21875 53.34375 
Q 35.546875 56 41.40625 56 
Q 48.640625 56 52.609375 52.09375 
Q 56.59375 48.1875 56.59375 41.109375 
Q 56.59375 39.359375 56.375 37.359375 
Q 56.15625 35.359375 55.71875 33.015625 
z
" id="DejaVuSans-Oblique-104"/>
      <path d="M 10.59375 35.5 
L 73.1875 35.5 
L 73.1875 27.203125 
L 10.59375 27.203125 
z
" id="DejaVuSans-8722"/>
      <path d="M 12.40625 8.296875 
L 28.515625 8.296875 
L 28.515625 63.921875 
L 10.984375 60.40625 
L 10.984375 69.390625 
L 28.421875 72.90625 
L 38.28125 72.90625 
L 38.28125 8.296875 
L 54.390625 8.296875 
L 54.390625 0 
L 12.40625 0 
z
" id="DejaVuSans-49"/>
      <path d="M 21.296875 -19.875 
L 1.90625 -19.875 
L 1.90625 -12.59375 
L 12.5 -12.59375 
L 12.5 64.3125 
L 1.90625 64.3125 
L 1.90625 71.578125 
L 21.296875 71.578125 
z
" id="ArialMT-93"/>
     </defs>
     <g style="fill:#262626;" transform="translate(21.6 276.687)rotate(-90)scale(0.16 -0.16)">
      <use transform="translate(0 0.684375)" xlink:href="#ArialMT-67"/>
      <use transform="translate(72.216797 0.684375)" xlink:href="#ArialMT-111"/>
      <use transform="translate(127.832031 0.684375)" xlink:href="#ArialMT-117"/>
      <use transform="translate(183.447266 0.684375)" xlink:href="#ArialMT-110"/>
      <use transform="translate(239.0625 0.684375)" xlink:href="#ArialMT-116"/>
      <use transform="translate(266.845703 0.684375)" xlink:href="#ArialMT-32"/>
      <use transform="translate(294.628906 0.684375)" xlink:href="#ArialMT-91"/>
      <use transform="translate(322.412109 0.684375)" xlink:href="#DejaVuSans-Oblique-104"/>
      <use transform="translate(393.238724 38.965625)scale(0.7)" xlink:href="#DejaVuSans-8722"/>
      <use transform="translate(451.891068 38.965625)scale(0.7)" xlink:href="#DejaVuSans-49"/>
      <use transform="translate(499.161576 0.684375)" xlink:href="#ArialMT-93"/>
     </g>
    </g>
   </g>
   <g id="PolyCollection_1">
    <defs>
     <path d="M 104.195788 -87.69275 
L 101.924855 -87.69275 
L 101.32897 -89.755795 
L 100.509751 -91.81884 
L 99.429363 -93.881884 
L 98.06407 -95.944929 
L 96.41322 -98.007974 
L 94.507005 -100.071019 
L 92.410826 -102.134063 
L 90.224328 -104.197108 
L 88.074035 -106.260153 
L 86.099896 -108.323198 
L 84.437637 -110.386243 
L 83.200061 -112.449287 
L 82.460987 -114.512332 
L 82.245107 -116.575377 
L 82.525712 -118.638422 
L 83.230456 -120.701466 
L 84.253525 -122.764511 
L 85.47136 -124.827556 
L 86.75867 -126.890601 
L 88.001972 -128.953645 
L 89.108943 -131.01669 
L 90.013165 -133.079735 
L 90.674935 -135.14278 
L 91.079405 -137.205824 
L 91.233441 -139.268869 
L 91.162195 -141.331914 
L 90.905843 -143.394959 
L 90.516363 -145.458003 
L 90.053925 -147.521048 
L 89.582467 -149.584093 
L 89.164325 -151.647138 
L 88.85427 -153.710182 
L 88.693749 -155.773227 
L 88.706374 -157.836272 
L 88.895647 -159.899317 
L 89.24549 -161.962361 
L 89.723601 -164.025406 
L 90.287014 -166.088451 
L 90.888791 -168.151496 
L 91.484601 -170.214541 
L 92.038082 -172.277585 
L 92.524259 -174.34063 
L 92.930786 -176.403675 
L 93.257228 -178.46672 
L 93.512904 -180.529764 
L 93.713934 -182.592809 
L 93.880084 -184.655854 
L 94.031873 -186.718899 
L 94.188222 -188.781943 
L 94.364764 -190.844988 
L 94.572875 -192.908033 
L 94.819344 -194.971078 
L 95.106644 -197.034122 
L 95.433628 -199.097167 
L 95.796513 -201.160212 
L 96.189913 -203.223257 
L 96.607727 -205.286301 
L 97.043712 -207.349346 
L 97.491664 -209.412391 
L 97.945275 -211.475436 
L 98.397829 -213.53848 
L 98.841963 -215.601525 
L 99.269715 -217.66457 
L 99.672943 -219.727615 
L 100.0441 -221.790659 
L 100.377156 -223.853704 
L 100.668441 -225.916749 
L 100.917142 -227.979794 
L 101.125308 -230.042839 
L 101.297384 -232.105883 
L 101.439367 -234.168928 
L 101.55784 -236.231973 
L 101.659068 -238.295018 
L 101.748351 -240.358062 
L 101.829688 -242.421107 
L 101.905743 -244.484152 
L 101.97803 -246.547197 
L 102.047231 -248.610241 
L 102.113535 -250.673286 
L 102.17696 -252.736331 
L 102.237587 -254.799376 
L 102.295706 -256.86242 
L 102.351857 -258.925465 
L 102.406768 -260.98851 
L 102.461223 -263.051555 
L 102.515885 -265.114599 
L 102.571117 -267.177644 
L 102.626865 -269.240689 
L 102.682615 -271.303734 
L 102.737444 -273.366778 
L 102.790165 -275.429823 
L 102.839507 -277.492868 
L 102.884315 -279.555913 
L 102.923714 -281.618957 
L 102.957207 -283.682002 
L 102.98471 -285.745047 
L 103.006509 -287.808092 
L 103.02318 -289.871137 
L 103.035479 -291.934181 
L 103.085164 -291.934181 
L 103.085164 -291.934181 
L 103.097463 -289.871137 
L 103.114135 -287.808092 
L 103.135934 -285.745047 
L 103.163436 -283.682002 
L 103.196929 -281.618957 
L 103.236328 -279.555913 
L 103.281137 -277.492868 
L 103.330479 -275.429823 
L 103.3832 -273.366778 
L 103.438029 -271.303734 
L 103.493778 -269.240689 
L 103.549526 -267.177644 
L 103.604759 -265.114599 
L 103.65942 -263.051555 
L 103.713876 -260.98851 
L 103.768787 -258.925465 
L 103.824937 -256.86242 
L 103.883056 -254.799376 
L 103.943683 -252.736331 
L 104.007108 -250.673286 
L 104.073413 -248.610241 
L 104.142613 -246.547197 
L 104.214901 -244.484152 
L 104.290955 -242.421107 
L 104.372293 -240.358062 
L 104.461576 -238.295018 
L 104.562804 -236.231973 
L 104.681276 -234.168928 
L 104.82326 -232.105883 
L 104.995335 -230.042839 
L 105.203502 -227.979794 
L 105.452202 -225.916749 
L 105.743488 -223.853704 
L 106.076544 -221.790659 
L 106.4477 -219.727615 
L 106.850929 -217.66457 
L 107.27868 -215.601525 
L 107.722815 -213.53848 
L 108.175368 -211.475436 
L 108.628979 -209.412391 
L 109.076931 -207.349346 
L 109.512916 -205.286301 
L 109.930731 -203.223257 
L 110.32413 -201.160212 
L 110.687015 -199.097167 
L 111.014 -197.034122 
L 111.301299 -194.971078 
L 111.547769 -192.908033 
L 111.755879 -190.844988 
L 111.932422 -188.781943 
L 112.08877 -186.718899 
L 112.24056 -184.655854 
L 112.40671 -182.592809 
L 112.607739 -180.529764 
L 112.863416 -178.46672 
L 113.189858 -176.403675 
L 113.596384 -174.34063 
L 114.082561 -172.277585 
L 114.636043 -170.214541 
L 115.231853 -168.151496 
L 115.83363 -166.088451 
L 116.397042 -164.025406 
L 116.875153 -161.962361 
L 117.224996 -159.899317 
L 117.414269 -157.836272 
L 117.426895 -155.773227 
L 117.266373 -153.710182 
L 116.956318 -151.647138 
L 116.538177 -149.584093 
L 116.066719 -147.521048 
L 115.604281 -145.458003 
L 115.2148 -143.394959 
L 114.958448 -141.331914 
L 114.887203 -139.268869 
L 115.041239 -137.205824 
L 115.445709 -135.14278 
L 116.107479 -133.079735 
L 117.011701 -131.01669 
L 118.118671 -128.953645 
L 119.361974 -126.890601 
L 120.649284 -124.827556 
L 121.867119 -122.764511 
L 122.890188 -120.701466 
L 123.594931 -118.638422 
L 123.875536 -116.575377 
L 123.659656 -114.512332 
L 122.920583 -112.449287 
L 121.683006 -110.386243 
L 120.020747 -108.323198 
L 118.046608 -106.260153 
L 115.896315 -104.197108 
L 113.709818 -102.134063 
L 111.613639 -100.071019 
L 109.707424 -98.007974 
L 108.056574 -95.944929 
L 106.691281 -93.881884 
L 105.610892 -91.81884 
L 104.791674 -89.755795 
L 104.195788 -87.69275 
z
" id="mc147ce04b2" style="stroke:#373737;stroke-width:1.5;"/>
    </defs>
    <g clip-path="url(#pad38952a68)">
     <use style="fill:#2b8e70;stroke:#373737;stroke-width:1.5;" x="0" xlink:href="#mc147ce04b2" y="509.319"/>
    </g>
   </g>
   <g id="PolyCollection_2">
    <defs>
     <path d="M 145.239911 -68.640951 
L 144.14159 -68.640951 
L 143.846103 -72.810769 
L 143.439262 -76.980587 
L 142.904115 -81.150404 
L 142.232667 -85.320222 
L 141.430745 -89.49004 
L 140.521777 -93.659858 
L 139.548144 -97.829675 
L 138.569075 -101.999493 
L 137.654695 -106.169311 
L 136.876821 -110.339129 
L 136.298073 -114.508946 
L 135.961553 -118.678764 
L 135.883452 -122.848582 
L 136.050392 -127.0184 
L 136.422233 -131.188218 
L 136.939741 -135.358035 
L 137.535348 -139.527853 
L 138.144586 -143.697671 
L 138.715718 -147.867489 
L 139.215733 -152.037306 
L 139.631853 -156.207124 
L 139.968823 -160.376942 
L 140.243193 -164.54676 
L 140.476266 -168.716577 
L 140.687466 -172.886395 
L 140.88944 -177.056213 
L 141.085593 -181.226031 
L 141.270044 -185.395848 
L 141.429451 -189.565666 
L 141.545904 -193.735484 
L 141.600077 -197.905302 
L 141.57409 -202.075119 
L 141.453857 -206.244937 
L 141.230931 -210.414755 
L 140.903983 -214.584573 
L 140.479961 -218.75439 
L 139.974778 -222.924208 
L 139.413236 -227.094026 
L 138.827799 -231.263844 
L 138.256011 -235.433661 
L 137.736672 -239.603479 
L 137.305272 -243.773297 
L 136.989507 -247.943115 
L 136.805821 -252.112932 
L 136.757721 -256.28275 
L 136.836237 -260.452568 
L 137.022365 -264.622386 
L 137.29086 -268.792203 
L 137.614491 -272.962021 
L 137.96786 -277.131839 
L 138.330116 -281.301657 
L 138.68628 -285.471475 
L 139.027282 -289.641292 
L 139.34907 -293.81111 
L 139.651264 -297.980928 
L 139.935757 -302.150746 
L 140.205525 -306.320563 
L 140.463723 -310.490381 
L 140.713044 -314.660199 
L 140.955275 -318.830017 
L 141.191019 -322.999834 
L 141.419613 -327.169652 
L 141.639263 -331.33947 
L 141.847436 -335.509288 
L 142.041435 -339.679105 
L 142.219048 -343.848923 
L 142.379091 -348.018741 
L 142.521728 -352.188559 
L 142.648469 -356.358376 
L 142.761878 -360.528194 
L 142.865111 -364.698012 
L 142.961386 -368.86783 
L 143.05355 -373.037647 
L 143.143787 -377.207465 
L 143.2335 -381.377283 
L 143.323338 -385.547101 
L 143.413315 -389.716918 
L 143.502994 -393.886736 
L 143.591683 -398.056554 
L 143.678645 -402.226372 
L 143.763275 -406.396189 
L 143.845224 -410.566007 
L 143.924446 -414.735825 
L 144.001137 -418.905643 
L 144.0756 -423.07546 
L 144.148057 -427.245278 
L 144.218471 -431.415096 
L 144.286441 -435.584914 
L 144.351204 -439.754732 
L 144.411739 -443.924549 
L 144.466951 -448.094367 
L 144.51588 -452.264185 
L 144.557878 -456.434003 
L 144.592715 -460.60382 
L 144.620599 -464.773638 
L 144.642113 -468.943456 
L 144.658104 -473.113274 
L 144.669549 -477.283091 
L 144.677436 -481.452909 
L 144.704065 -481.452909 
L 144.704065 -481.452909 
L 144.711953 -477.283091 
L 144.723398 -473.113274 
L 144.739389 -468.943456 
L 144.760902 -464.773638 
L 144.788787 -460.60382 
L 144.823624 -456.434003 
L 144.865622 -452.264185 
L 144.914551 -448.094367 
L 144.969763 -443.924549 
L 145.030298 -439.754732 
L 145.095061 -435.584914 
L 145.163031 -431.415096 
L 145.233444 -427.245278 
L 145.305901 -423.07546 
L 145.380365 -418.905643 
L 145.457056 -414.735825 
L 145.536277 -410.566007 
L 145.618227 -406.396189 
L 145.702856 -402.226372 
L 145.789818 -398.056554 
L 145.878508 -393.886736 
L 145.968186 -389.716918 
L 146.058164 -385.547101 
L 146.148001 -381.377283 
L 146.237715 -377.207465 
L 146.327951 -373.037647 
L 146.420116 -368.86783 
L 146.516391 -364.698012 
L 146.619623 -360.528194 
L 146.733033 -356.358376 
L 146.859773 -352.188559 
L 147.002411 -348.018741 
L 147.162454 -343.848923 
L 147.340066 -339.679105 
L 147.534066 -335.509288 
L 147.742239 -331.33947 
L 147.961889 -327.169652 
L 148.190482 -322.999834 
L 148.426227 -318.830017 
L 148.668457 -314.660199 
L 148.917779 -310.490381 
L 149.175977 -306.320563 
L 149.445744 -302.150746 
L 149.730237 -297.980928 
L 150.032431 -293.81111 
L 150.35422 -289.641292 
L 150.695222 -285.471475 
L 151.051386 -281.301657 
L 151.413642 -277.131839 
L 151.767011 -272.962021 
L 152.090642 -268.792203 
L 152.359137 -264.622386 
L 152.545265 -260.452568 
L 152.623781 -256.28275 
L 152.575681 -252.112932 
L 152.391994 -247.943115 
L 152.07623 -243.773297 
L 151.64483 -239.603479 
L 151.125491 -235.433661 
L 150.553703 -231.263844 
L 149.968265 -227.094026 
L 149.406723 -222.924208 
L 148.901541 -218.75439 
L 148.477518 -214.584573 
L 148.150571 -210.414755 
L 147.927645 -206.244937 
L 147.807412 -202.075119 
L 147.781425 -197.905302 
L 147.835597 -193.735484 
L 147.952051 -189.565666 
L 148.111458 -185.395848 
L 148.295908 -181.226031 
L 148.492062 -177.056213 
L 148.694036 -172.886395 
L 148.905236 -168.716577 
L 149.138309 -164.54676 
L 149.412678 -160.376942 
L 149.749649 -156.207124 
L 150.165768 -152.037306 
L 150.665784 -147.867489 
L 151.236916 -143.697671 
L 151.846154 -139.527853 
L 152.441761 -135.358035 
L 152.959268 -131.188218 
L 153.33111 -127.0184 
L 153.49805 -122.848582 
L 153.419949 -118.678764 
L 153.083429 -114.508946 
L 152.504681 -110.339129 
L 151.726807 -106.169311 
L 150.812426 -101.999493 
L 149.833357 -97.829675 
L 148.859724 -93.659858 
L 147.950756 -89.49004 
L 147.148835 -85.320222 
L 146.477386 -81.150404 
L 145.94224 -76.980587 
L 145.535399 -72.810769 
L 145.239911 -68.640951 
z
" id="m2922374668" style="stroke:#373737;stroke-width:1.5;"/>
    </defs>
    <g clip-path="url(#pad38952a68)">
     <use style="fill:#be631d;stroke:#373737;stroke-width:1.5;" x="0" xlink:href="#m2922374668" y="509.319"/>
    </g>
   </g>
   <g id="PolyCollection_3">
    <defs>
     <path d="M 208.264782 -84.368339 
L 206.008006 -84.368339 
L 205.450771 -86.71816 
L 204.695124 -89.067982 
L 203.70787 -91.417803 
L 202.466261 -93.767624 
L 200.964901 -96.117445 
L 199.222044 -98.467267 
L 197.283845 -100.817088 
L 195.225129 -103.166909 
L 193.145721 -105.51673 
L 191.162158 -107.866552 
L 189.395608 -110.216373 
L 187.957735 -112.566194 
L 186.936875 -114.916015 
L 186.386966 -117.265837 
L 186.32118 -119.615658 
L 186.711265 -121.965479 
L 187.492432 -124.3153 
L 188.572603 -126.665122 
L 189.844121 -129.014943 
L 191.19587 -131.364764 
L 192.524014 -133.714585 
L 193.740189 -136.064407 
L 194.776702 -138.414228 
L 195.58887 -140.764049 
L 196.155047 -143.11387 
L 196.474985 -145.463692 
L 196.56709 -147.813513 
L 196.464972 -150.163334 
L 196.213488 -152.513155 
L 195.864404 -154.862977 
L 195.47181 -157.212798 
L 195.087512 -159.562619 
L 194.756759 -161.91244 
L 194.514716 -164.262262 
L 194.384116 -166.612083 
L 194.374386 -168.961904 
L 194.482329 -171.311725 
L 194.694206 -173.661547 
L 194.988796 -176.011368 
L 195.340903 -178.361189 
L 195.724697 -180.71101 
L 196.116444 -183.060832 
L 196.496319 -185.410653 
L 196.849286 -187.760474 
L 197.165218 -190.110295 
L 197.438549 -192.460117 
L 197.667776 -194.809938 
L 197.855018 -197.159759 
L 198.005724 -199.50958 
L 198.128434 -201.859402 
L 198.234453 -204.209223 
L 198.33724 -206.559044 
L 198.451435 -208.908865 
L 198.591536 -211.258687 
L 198.770384 -213.608508 
L 198.997726 -215.958329 
L 199.279098 -218.30815 
L 199.615269 -220.657972 
L 200.002316 -223.007793 
L 200.432295 -225.357614 
L 200.89434 -227.707435 
L 201.375951 -230.057257 
L 201.864248 -232.407078 
L 202.346999 -234.756899 
L 202.813356 -237.10672 
L 203.254279 -239.456542 
L 203.662719 -241.806363 
L 204.033654 -244.156184 
L 204.364052 -246.506005 
L 204.652788 -248.855827 
L 204.900547 -251.205648 
L 205.109672 -253.555469 
L 205.283932 -255.90529 
L 205.428216 -258.255112 
L 205.548133 -260.604933 
L 205.649566 -262.954754 
L 205.738224 -265.304575 
L 205.819244 -267.654397 
L 205.89688 -270.004218 
L 205.97431 -272.354039 
L 206.05358 -274.70386 
L 206.135652 -277.053682 
L 206.220556 -279.403503 
L 206.307589 -281.753324 
L 206.395545 -284.103145 
L 206.482929 -286.452967 
L 206.568156 -288.802788 
L 206.649693 -291.152609 
L 206.726177 -293.50243 
L 206.796491 -295.852252 
L 206.859806 -298.202073 
L 206.915608 -300.551894 
L 206.963699 -302.901715 
L 207.004185 -305.251537 
L 207.037442 -307.601358 
L 207.064067 -309.951179 
L 207.084821 -312.301 
L 207.100553 -314.650822 
L 207.11214 -317.000643 
L 207.160649 -317.000643 
L 207.160649 -317.000643 
L 207.172236 -314.650822 
L 207.187968 -312.301 
L 207.208721 -309.951179 
L 207.235347 -307.601358 
L 207.268604 -305.251537 
L 207.30909 -302.901715 
L 207.357181 -300.551894 
L 207.412983 -298.202073 
L 207.476297 -295.852252 
L 207.546611 -293.50243 
L 207.623096 -291.152609 
L 207.704633 -288.802788 
L 207.789859 -286.452967 
L 207.877244 -284.103145 
L 207.9652 -281.753324 
L 208.052233 -279.403503 
L 208.137137 -277.053682 
L 208.219209 -274.70386 
L 208.298478 -272.354039 
L 208.375909 -270.004218 
L 208.453544 -267.654397 
L 208.534565 -265.304575 
L 208.623223 -262.954754 
L 208.724656 -260.604933 
L 208.844572 -258.255112 
L 208.988857 -255.90529 
L 209.163117 -253.555469 
L 209.372241 -251.205648 
L 209.620001 -248.855827 
L 209.908737 -246.506005 
L 210.239134 -244.156184 
L 210.61007 -241.806363 
L 211.01851 -239.456542 
L 211.459432 -237.10672 
L 211.92579 -234.756899 
L 212.408541 -232.407078 
L 212.896837 -230.057257 
L 213.378449 -227.707435 
L 213.840494 -225.357614 
L 214.270473 -223.007793 
L 214.65752 -220.657972 
L 214.993691 -218.30815 
L 215.275063 -215.958329 
L 215.502404 -213.608508 
L 215.681253 -211.258687 
L 215.821353 -208.908865 
L 215.935549 -206.559044 
L 216.038336 -204.209223 
L 216.144354 -201.859402 
L 216.267065 -199.50958 
L 216.41777 -197.159759 
L 216.605013 -194.809938 
L 216.83424 -192.460117 
L 217.107571 -190.110295 
L 217.423503 -187.760474 
L 217.77647 -185.410653 
L 218.156344 -183.060832 
L 218.548092 -180.71101 
L 218.931886 -178.361189 
L 219.283992 -176.011368 
L 219.578583 -173.661547 
L 219.790459 -171.311725 
L 219.898403 -168.961904 
L 219.888672 -166.612083 
L 219.758072 -164.262262 
L 219.516029 -161.91244 
L 219.185276 -159.562619 
L 218.800979 -157.212798 
L 218.408385 -154.862977 
L 218.0593 -152.513155 
L 217.807816 -150.163334 
L 217.705698 -147.813513 
L 217.797804 -145.463692 
L 218.117741 -143.11387 
L 218.683919 -140.764049 
L 219.496087 -138.414228 
L 220.5326 -136.064407 
L 221.748775 -133.714585 
L 223.076918 -131.364764 
L 224.428668 -129.014943 
L 225.700186 -126.665122 
L 226.780357 -124.3153 
L 227.561524 -121.965479 
L 227.951609 -119.615658 
L 227.885823 -117.265837 
L 227.335913 -114.916015 
L 226.315053 -112.566194 
L 224.87718 -110.216373 
L 223.110631 -107.866552 
L 221.127068 -105.51673 
L 219.04766 -103.166909 
L 216.988944 -100.817088 
L 215.050745 -98.467267 
L 213.307888 -96.117445 
L 211.806527 -93.767624 
L 210.564919 -91.417803 
L 209.577665 -89.067982 
L 208.822018 -86.71816 
L 208.264782 -84.368339 
z
" id="m6ad3d8dcc0" style="stroke:#373737;stroke-width:1.5;"/>
    </defs>
    <g clip-path="url(#pad38952a68)">
     <use style="fill:#2b8e70;stroke:#373737;stroke-width:1.5;" x="0" xlink:href="#m6ad3d8dcc0" y="509.319"/>
    </g>
   </g>
   <g id="PolyCollection_4">
    <defs>
     <path d="M 249.511927 -68.131091 
L 248.021719 -68.131091 
L 247.654329 -72.187382 
L 247.162351 -76.243674 
L 246.531239 -80.299966 
L 245.75691 -84.356257 
L 244.850174 -88.412549 
L 243.839832 -92.46884 
L 242.773277 -96.525132 
L 241.713825 -100.581423 
L 240.734589 -104.637715 
L 239.909587 -108.694006 
L 239.30354 -112.750298 
L 238.962319 -116.806589 
L 238.906009 -120.862881 
L 239.126065 -124.919172 
L 239.587102 -128.975464 
L 240.232857 -133.031756 
L 240.994957 -137.088047 
L 241.802658 -141.144339 
L 242.591703 -145.20063 
L 243.31088 -149.256922 
L 243.92555 -153.313213 
L 244.41813 -157.369505 
L 244.786099 -161.425796 
L 245.038464 -165.482088 
L 245.19165 -169.538379 
L 245.265666 -173.594671 
L 245.281066 -177.650963 
L 245.25692 -181.707254 
L 245.209692 -185.763546 
L 245.152733 -189.819837 
L 245.096068 -193.876129 
L 245.046176 -197.93242 
L 245.005673 -201.988712 
L 244.972952 -206.045003 
L 244.941996 -210.101295 
L 244.902632 -214.157586 
L 244.841428 -218.213878 
L 244.743281 -222.27017 
L 244.59356 -226.326461 
L 244.380477 -230.382753 
L 244.097265 -234.439044 
L 243.743739 -238.495336 
L 243.326947 -242.551627 
L 242.860778 -246.607919 
L 242.364623 -250.66421 
L 241.861331 -254.720502 
L 241.374847 -258.776793 
L 240.927884 -262.833085 
L 240.539954 -266.889376 
L 240.225966 -270.945668 
L 239.995453 -275.00196 
L 239.852426 -279.058251 
L 239.795758 -283.114543 
L 239.819988 -287.170834 
L 239.91642 -291.227126 
L 240.074408 -295.283417 
L 240.282703 -299.339709 
L 240.530724 -303.396 
L 240.809613 -307.452292 
L 241.112924 -311.508583 
L 241.436842 -315.564875 
L 241.779885 -319.621167 
L 242.142154 -323.677458 
L 242.524288 -327.73375 
L 242.926339 -331.790041 
L 243.346838 -335.846333 
L 243.782238 -339.902624 
L 244.226853 -343.958916 
L 244.673275 -348.015207 
L 245.11314 -352.071499 
L 245.53804 -356.12779 
L 245.94038 -360.184082 
L 246.314012 -364.240373 
L 246.654566 -368.296665 
L 246.959507 -372.352957 
L 247.227967 -376.409248 
L 247.460475 -380.46554 
L 247.658665 -384.521831 
L 247.825014 -388.578123 
L 247.96263 -392.634414 
L 248.075083 -396.690706 
L 248.166231 -400.746997 
L 248.240052 -404.803289 
L 248.30044 -408.85958 
L 248.351011 -412.915872 
L 248.394906 -416.972164 
L 248.434638 -421.028455 
L 248.472003 -425.084747 
L 248.508055 -429.141038 
L 248.543171 -433.19733 
L 248.577186 -437.253621 
L 248.609567 -441.309913 
L 248.639616 -445.366204 
L 248.666657 -449.422496 
L 248.690175 -453.478787 
L 248.709904 -457.535079 
L 248.725849 -461.59137 
L 248.738256 -465.647662 
L 248.747548 -469.703954 
L 248.786099 -469.703954 
L 248.786099 -469.703954 
L 248.795391 -465.647662 
L 248.807798 -461.59137 
L 248.823743 -457.535079 
L 248.843472 -453.478787 
L 248.86699 -449.422496 
L 248.89403 -445.366204 
L 248.92408 -441.309913 
L 248.956461 -437.253621 
L 248.990475 -433.19733 
L 249.025592 -429.141038 
L 249.061644 -425.084747 
L 249.099008 -421.028455 
L 249.138741 -416.972164 
L 249.182636 -412.915872 
L 249.233207 -408.85958 
L 249.293595 -404.803289 
L 249.367415 -400.746997 
L 249.458564 -396.690706 
L 249.571016 -392.634414 
L 249.708633 -388.578123 
L 249.874981 -384.521831 
L 250.073172 -380.46554 
L 250.30568 -376.409248 
L 250.57414 -372.352957 
L 250.879081 -368.296665 
L 251.219635 -364.240373 
L 251.593266 -360.184082 
L 251.995607 -356.12779 
L 252.420507 -352.071499 
L 252.860371 -348.015207 
L 253.306793 -343.958916 
L 253.751408 -339.902624 
L 254.186809 -335.846333 
L 254.607308 -331.790041 
L 255.009359 -327.73375 
L 255.391492 -323.677458 
L 255.753762 -319.621167 
L 256.096804 -315.564875 
L 256.420723 -311.508583 
L 256.724034 -307.452292 
L 257.002923 -303.396 
L 257.250944 -299.339709 
L 257.459238 -295.283417 
L 257.617227 -291.227126 
L 257.713659 -287.170834 
L 257.737889 -283.114543 
L 257.681221 -279.058251 
L 257.538194 -275.00196 
L 257.30768 -270.945668 
L 256.993692 -266.889376 
L 256.605763 -262.833085 
L 256.1588 -258.776793 
L 255.672316 -254.720502 
L 255.169024 -250.66421 
L 254.672868 -246.607919 
L 254.2067 -242.551627 
L 253.789908 -238.495336 
L 253.436381 -234.439044 
L 253.153169 -230.382753 
L 252.940087 -226.326461 
L 252.790366 -222.27017 
L 252.692219 -218.213878 
L 252.631015 -214.157586 
L 252.591651 -210.101295 
L 252.560695 -206.045003 
L 252.527973 -201.988712 
L 252.487471 -197.93242 
L 252.437579 -193.876129 
L 252.380914 -189.819837 
L 252.323955 -185.763546 
L 252.276727 -181.707254 
L 252.252581 -177.650963 
L 252.267981 -173.594671 
L 252.341997 -169.538379 
L 252.495183 -165.482088 
L 252.747548 -161.425796 
L 253.115517 -157.369505 
L 253.608097 -153.313213 
L 254.222767 -149.256922 
L 254.941944 -145.20063 
L 255.730988 -141.144339 
L 256.53869 -137.088047 
L 257.30079 -133.031756 
L 257.946545 -128.975464 
L 258.407582 -124.919172 
L 258.627638 -120.862881 
L 258.571328 -116.806589 
L 258.230106 -112.750298 
L 257.62406 -108.694006 
L 256.799058 -104.637715 
L 255.819822 -100.581423 
L 254.76037 -96.525132 
L 253.693815 -92.46884 
L 252.683473 -88.412549 
L 251.776737 -84.356257 
L 251.002407 -80.299966 
L 250.371296 -76.243674 
L 249.879317 -72.187382 
L 249.511927 -68.131091 
z
" id="m8e18707e78" style="stroke:#373737;stroke-width:1.5;"/>
    </defs>
    <g clip-path="url(#pad38952a68)">
     <use style="fill:#be631d;stroke:#373737;stroke-width:1.5;" x="0" xlink:href="#m8e18707e78" y="509.319"/>
    </g>
   </g>
   <g id="PolyCollection_5">
    <defs>
     <path d="M 312.234515 -89.339801 
L 310.190419 -89.339801 
L 309.67336 -91.10206 
L 308.966774 -92.864319 
L 308.036929 -94.626578 
L 306.859503 -96.388838 
L 305.426375 -98.151097 
L 303.751916 -99.913356 
L 301.877327 -101.675615 
L 299.871557 -103.437875 
L 297.827774 -105.200134 
L 295.855167 -106.962393 
L 294.066877 -108.724652 
L 292.565842 -110.486911 
L 291.431059 -112.249171 
L 290.706846 -114.01143 
L 290.397252 -115.773689 
L 290.466702 -117.535948 
L 290.846701 -119.298207 
L 291.447197 -121.060467 
L 292.170338 -122.822726 
L 292.924084 -124.584985 
L 293.633408 -126.347244 
L 294.247526 -128.109503 
L 294.742553 -129.871763 
L 295.119858 -131.634022 
L 295.401079 -133.396281 
L 295.621138 -135.15854 
L 295.820645 -136.9208 
L 296.038917 -138.683059 
L 296.308462 -140.445318 
L 296.651421 -142.207577 
L 297.078058 -143.969836 
L 297.587093 -145.732096 
L 298.167453 -147.494355 
L 298.800949 -149.256614 
L 299.465347 -151.018873 
L 300.137383 -152.781132 
L 300.795391 -154.543392 
L 301.421297 -156.305651 
L 302.001865 -158.06791 
L 302.529162 -159.830169 
L 303.000299 -161.592428 
L 303.416574 -163.354688 
L 303.782203 -165.116947 
L 304.10289 -166.879206 
L 304.384474 -168.641465 
L 304.631884 -170.403724 
L 304.84855 -172.165984 
L 305.036324 -173.928243 
L 305.195867 -175.690502 
L 305.327348 -177.452761 
L 305.431253 -179.215021 
L 305.509118 -180.97728 
L 305.564005 -182.739539 
L 305.600621 -184.501798 
L 305.625081 -186.264057 
L 305.644355 -188.026317 
L 305.665541 -189.788576 
L 305.695101 -191.550835 
L 305.738224 -193.313094 
L 305.798416 -195.075353 
L 305.877369 -196.837613 
L 305.975107 -198.599872 
L 306.090312 -200.362131 
L 306.220743 -202.12439 
L 306.363637 -203.886649 
L 306.51604 -205.648909 
L 306.675043 -207.411168 
L 306.837959 -209.173427 
L 307.002468 -210.935686 
L 307.166762 -212.697945 
L 307.329665 -214.460205 
L 307.490713 -216.222464 
L 307.650119 -217.984723 
L 307.808634 -219.746982 
L 307.967292 -221.509242 
L 308.127129 -223.271501 
L 308.288939 -225.03376 
L 308.453156 -226.796019 
L 308.619862 -228.558278 
L 308.788921 -230.320538 
L 308.96013 -232.082797 
L 309.133327 -233.845056 
L 309.308366 -235.607315 
L 309.484975 -237.369574 
L 309.662525 -239.131834 
L 309.839806 -240.894093 
L 310.014901 -242.656352 
L 310.185231 -244.418611 
L 310.347768 -246.18087 
L 310.499378 -247.94313 
L 310.63723 -249.705389 
L 310.759148 -251.467648 
L 310.863869 -253.229907 
L 310.951134 -254.992166 
L 311.021631 -256.754426 
L 311.076816 -258.516685 
L 311.118662 -260.278944 
L 311.149395 -262.041203 
L 311.171252 -263.803463 
L 311.253682 -263.803463 
L 311.253682 -263.803463 
L 311.275539 -262.041203 
L 311.306271 -260.278944 
L 311.348118 -258.516685 
L 311.403303 -256.754426 
L 311.4738 -254.992166 
L 311.561065 -253.229907 
L 311.665786 -251.467648 
L 311.787704 -249.705389 
L 311.925555 -247.94313 
L 312.077166 -246.18087 
L 312.239702 -244.418611 
L 312.410033 -242.656352 
L 312.585128 -240.894093 
L 312.762408 -239.131834 
L 312.939959 -237.369574 
L 313.116568 -235.607315 
L 313.291607 -233.845056 
L 313.464804 -232.082797 
L 313.636013 -230.320538 
L 313.805072 -228.558278 
L 313.971778 -226.796019 
L 314.135994 -225.03376 
L 314.297805 -223.271501 
L 314.457641 -221.509242 
L 314.6163 -219.746982 
L 314.774814 -217.984723 
L 314.934221 -216.222464 
L 315.095269 -214.460205 
L 315.258172 -212.697945 
L 315.422466 -210.935686 
L 315.586975 -209.173427 
L 315.749891 -207.411168 
L 315.908894 -205.648909 
L 316.061296 -203.886649 
L 316.204191 -202.12439 
L 316.334622 -200.362131 
L 316.449827 -198.599872 
L 316.547565 -196.837613 
L 316.626518 -195.075353 
L 316.686709 -193.313094 
L 316.729833 -191.550835 
L 316.759393 -189.788576 
L 316.780578 -188.026317 
L 316.799852 -186.264057 
L 316.824313 -184.501798 
L 316.860929 -182.739539 
L 316.915816 -180.97728 
L 316.993681 -179.215021 
L 317.097586 -177.452761 
L 317.229066 -175.690502 
L 317.38861 -173.928243 
L 317.576384 -172.165984 
L 317.793049 -170.403724 
L 318.04046 -168.641465 
L 318.322044 -166.879206 
L 318.642731 -165.116947 
L 319.00836 -163.354688 
L 319.424634 -161.592428 
L 319.895772 -159.830169 
L 320.423069 -158.06791 
L 321.003637 -156.305651 
L 321.629543 -154.543392 
L 322.287551 -152.781132 
L 322.959587 -151.018873 
L 323.623985 -149.256614 
L 324.257481 -147.494355 
L 324.837841 -145.732096 
L 325.346876 -143.969836 
L 325.773513 -142.207577 
L 326.116472 -140.445318 
L 326.386017 -138.683059 
L 326.604289 -136.9208 
L 326.803796 -135.15854 
L 327.023855 -133.396281 
L 327.305076 -131.634022 
L 327.682381 -129.871763 
L 328.177408 -128.109503 
L 328.791526 -126.347244 
L 329.50085 -124.584985 
L 330.254596 -122.822726 
L 330.977737 -121.060467 
L 331.578233 -119.298207 
L 331.958232 -117.535948 
L 332.027681 -115.773689 
L 331.718088 -114.01143 
L 330.993875 -112.249171 
L 329.859092 -110.486911 
L 328.358057 -108.724652 
L 326.569766 -106.962393 
L 324.59716 -105.200134 
L 322.553377 -103.437875 
L 320.547606 -101.675615 
L 318.673018 -99.913356 
L 316.998559 -98.151097 
L 315.565431 -96.388838 
L 314.388005 -94.626578 
L 313.45816 -92.864319 
L 312.751574 -91.10206 
L 312.234515 -89.339801 
z
" id="m6c69e66eeb" style="stroke:#373737;stroke-width:1.5;"/>
    </defs>
    <g clip-path="url(#pad38952a68)">
     <use style="fill:#2b8e70;stroke:#373737;stroke-width:1.5;" x="0" xlink:href="#m6c69e66eeb" y="509.319"/>
    </g>
   </g>
   <g id="PolyCollection_6">
    <defs>
     <path d="M 353.76115 -84.666758 
L 351.924642 -84.666758 
L 351.511463 -86.775748 
L 350.968232 -88.884738 
L 350.279246 -90.993727 
L 349.437064 -93.102717 
L 348.446115 -95.211707 
L 347.325499 -97.320696 
L 346.110186 -99.429686 
L 344.849998 -101.538675 
L 343.606121 -103.647665 
L 342.445363 -105.756655 
L 341.432912 -107.865644 
L 340.624744 -109.974634 
L 340.060985 -112.083624 
L 339.761424 -114.192613 
L 339.723907 -116.301603 
L 339.925812 -118.410593 
L 340.328145 -120.519582 
L 340.881382 -122.628572 
L 341.531926 -124.737562 
L 342.228128 -126.846551 
L 342.925059 -128.955541 
L 343.587619 -131.064531 
L 344.191911 -133.17352 
L 344.7251 -135.28251 
L 345.184116 -137.391499 
L 345.573612 -139.500489 
L 345.903529 -141.609479 
L 346.186595 -143.718468 
L 346.435989 -145.827458 
L 346.663401 -147.936448 
L 346.877628 -150.045437 
L 347.083833 -152.154427 
L 347.283479 -154.263417 
L 347.474881 -156.372406 
L 347.654185 -158.481396 
L 347.816577 -160.590386 
L 347.957437 -162.699375 
L 348.073242 -164.808365 
L 348.162079 -166.917355 
L 348.223731 -169.026344 
L 348.259407 -171.135334 
L 348.271241 -173.244324 
L 348.261724 -175.353313 
L 348.2332 -177.462303 
L 348.187512 -179.571292 
L 348.125839 -181.680282 
L 348.048682 -183.789272 
L 347.955956 -185.898261 
L 347.847131 -188.007251 
L 347.721353 -190.116241 
L 347.577536 -192.22523 
L 347.414417 -194.33422 
L 347.230585 -196.44321 
L 347.02452 -198.552199 
L 346.794656 -200.661189 
L 346.539504 -202.770179 
L 346.257833 -204.879168 
L 345.948924 -206.988158 
L 345.612893 -209.097148 
L 345.251067 -211.206137 
L 344.866379 -213.315127 
L 344.463755 -215.424117 
L 344.050422 -217.533106 
L 343.636085 -219.642096 
L 343.232908 -221.751085 
L 342.855253 -223.860075 
L 342.519137 -225.969065 
L 342.241424 -228.078054 
L 342.038776 -230.187044 
L 341.926458 -232.296034 
L 341.917091 -234.405023 
L 342.019508 -236.514013 
L 342.23784 -238.623003 
L 342.57097 -240.731992 
L 343.012426 -242.840982 
L 343.550765 -244.949972 
L 344.170372 -247.058961 
L 344.852611 -249.167951 
L 345.577146 -251.276941 
L 346.32329 -253.38593 
L 347.071229 -255.49492 
L 347.803005 -257.603909 
L 348.503222 -259.712899 
L 349.159451 -261.821889 
L 349.762384 -263.930878 
L 350.305786 -266.039868 
L 350.786304 -268.148858 
L 351.203179 -270.257847 
L 351.557898 -272.366837 
L 351.853798 -274.475827 
L 352.095644 -276.584816 
L 352.289191 -278.693806 
L 352.440759 -280.802796 
L 352.556829 -282.911785 
L 352.643695 -285.020775 
L 352.707192 -287.129765 
L 352.752502 -289.238754 
L 352.784052 -291.347744 
L 352.805477 -293.456734 
L 352.880315 -293.456734 
L 352.880315 -293.456734 
L 352.90174 -291.347744 
L 352.93329 -289.238754 
L 352.9786 -287.129765 
L 353.042097 -285.020775 
L 353.128963 -282.911785 
L 353.245033 -280.802796 
L 353.396601 -278.693806 
L 353.590148 -276.584816 
L 353.831993 -274.475827 
L 354.127893 -272.366837 
L 354.482613 -270.257847 
L 354.899488 -268.148858 
L 355.380006 -266.039868 
L 355.923408 -263.930878 
L 356.526341 -261.821889 
L 357.18257 -259.712899 
L 357.882787 -257.603909 
L 358.614563 -255.49492 
L 359.362501 -253.38593 
L 360.108646 -251.276941 
L 360.833181 -249.167951 
L 361.51542 -247.058961 
L 362.135027 -244.949972 
L 362.673366 -242.840982 
L 363.114822 -240.731992 
L 363.447952 -238.623003 
L 363.666284 -236.514013 
L 363.768701 -234.405023 
L 363.759334 -232.296034 
L 363.647016 -230.187044 
L 363.444368 -228.078054 
L 363.166655 -225.969065 
L 362.830539 -223.860075 
L 362.452884 -221.751085 
L 362.049707 -219.642096 
L 361.63537 -217.533106 
L 361.222037 -215.424117 
L 360.819413 -213.315127 
L 360.434725 -211.206137 
L 360.072898 -209.097148 
L 359.736868 -206.988158 
L 359.427959 -204.879168 
L 359.146288 -202.770179 
L 358.891136 -200.661189 
L 358.661272 -198.552199 
L 358.455207 -196.44321 
L 358.271375 -194.33422 
L 358.108255 -192.22523 
L 357.964439 -190.116241 
L 357.838661 -188.007251 
L 357.729836 -185.898261 
L 357.63711 -183.789272 
L 357.559952 -181.680282 
L 357.49828 -179.571292 
L 357.452592 -177.462303 
L 357.424068 -175.353313 
L 357.414551 -173.244324 
L 357.426385 -171.135334 
L 357.462061 -169.026344 
L 357.523713 -166.917355 
L 357.61255 -164.808365 
L 357.728355 -162.699375 
L 357.869215 -160.590386 
L 358.031607 -158.481396 
L 358.210911 -156.372406 
L 358.402312 -154.263417 
L 358.601959 -152.154427 
L 358.808164 -150.045437 
L 359.022391 -147.936448 
L 359.249802 -145.827458 
L 359.499197 -143.718468 
L 359.782263 -141.609479 
L 360.11218 -139.500489 
L 360.501676 -137.391499 
L 360.960692 -135.28251 
L 361.493881 -133.17352 
L 362.098173 -131.064531 
L 362.760733 -128.955541 
L 363.457664 -126.846551 
L 364.153866 -124.737562 
L 364.80441 -122.628572 
L 365.357647 -120.519582 
L 365.75998 -118.410593 
L 365.961885 -116.301603 
L 365.924368 -114.192613 
L 365.624807 -112.083624 
L 365.061048 -109.974634 
L 364.25288 -107.865644 
L 363.240429 -105.756655 
L 362.079671 -103.647665 
L 360.835794 -101.538675 
L 359.575606 -99.429686 
L 358.360292 -97.320696 
L 357.239677 -95.211707 
L 356.248728 -93.102717 
L 355.406545 -90.993727 
L 354.71756 -88.884738 
L 354.174329 -86.775748 
L 353.76115 -84.666758 
z
" id="m7ee7349bcc" style="stroke:#373737;stroke-width:1.5;"/>
    </defs>
    <g clip-path="url(#pad38952a68)">
     <use style="fill:#be631d;stroke:#373737;stroke-width:1.5;" x="0" xlink:href="#m7ee7349bcc" y="509.319"/>
    </g>
   </g>
   <g id="PolyCollection_7">
    <defs>
     <path d="M 416.278614 -92.272033 
L 414.298465 -92.272033 
L 413.803607 -93.734411 
L 413.128267 -95.19679 
L 412.239448 -96.659168 
L 411.11215 -98.121547 
L 409.735596 -99.583925 
L 408.11923 -101.046303 
L 406.297208 -102.508682 
L 404.330071 -103.97106 
L 402.302609 -105.433439 
L 400.31751 -106.895817 
L 398.485265 -108.358195 
L 396.911661 -109.820574 
L 395.684849 -111.282952 
L 394.864255 -112.745331 
L 394.473325 -114.207709 
L 394.49741 -115.670087 
L 394.887081 -117.132466 
L 395.566095 -118.594844 
L 396.44245 -120.057223 
L 397.420452 -121.519601 
L 398.411813 -122.981979 
L 399.344142 -124.444358 
L 400.165951 -125.906736 
L 400.847958 -127.369114 
L 401.381199 -128.831493 
L 401.772837 -130.293871 
L 402.040773 -131.75625 
L 402.208088 -133.218628 
L 402.298152 -134.681006 
L 402.330921 -136.143385 
L 402.320655 -137.605763 
L 402.27507 -139.068142 
L 402.195725 -140.53052 
L 402.079414 -141.992898 
L 401.920207 -143.455277 
L 401.711823 -144.917655 
L 401.449974 -146.380034 
L 401.134351 -147.842412 
L 400.769986 -149.30479 
L 400.367784 -150.767169 
L 399.944175 -152.229547 
L 399.519932 -153.691926 
L 399.11835 -155.154304 
L 398.763012 -156.616682 
L 398.475447 -158.079061 
L 398.272961 -159.541439 
L 398.166885 -161.003818 
L 398.161495 -162.466196 
L 398.253749 -163.928574 
L 398.433946 -165.390953 
L 398.687255 -166.853331 
L 398.995957 -168.31571 
L 399.342031 -169.778088 
L 399.70967 -171.240466 
L 400.087256 -172.702845 
L 400.468439 -174.165223 
L 400.852141 -175.627602 
L 401.241573 -177.08998 
L 401.642536 -178.552358 
L 402.061456 -180.014737 
L 402.503591 -181.477115 
L 402.971783 -182.939493 
L 403.465916 -184.401872 
L 403.983086 -185.86425 
L 404.518301 -187.326629 
L 405.065444 -188.789007 
L 405.618234 -190.251385 
L 406.170982 -191.713764 
L 406.71902 -193.176142 
L 407.25881 -194.638521 
L 407.787797 -196.100899 
L 408.304129 -197.563277 
L 408.806366 -199.025656 
L 409.293261 -200.488034 
L 409.763679 -201.950413 
L 410.216624 -203.412791 
L 410.651339 -204.875169 
L 411.067401 -206.337548 
L 411.464752 -207.799926 
L 411.843634 -209.262305 
L 412.204417 -210.724683 
L 412.547393 -212.187061 
L 412.872561 -213.64944 
L 413.179505 -215.111818 
L 413.467361 -216.574197 
L 413.734921 -218.036575 
L 413.980819 -219.498953 
L 414.203768 -220.961332 
L 414.402791 -222.42371 
L 414.577417 -223.886089 
L 414.727789 -225.348467 
L 414.854703 -226.810845 
L 414.959565 -228.273224 
L 415.044289 -229.735602 
L 415.111158 -231.19798 
L 415.162658 -232.660359 
L 415.201325 -234.122737 
L 415.229602 -235.585116 
L 415.249722 -237.047494 
L 415.327357 -237.047494 
L 415.327357 -237.047494 
L 415.347477 -235.585116 
L 415.375753 -234.122737 
L 415.414421 -232.660359 
L 415.465921 -231.19798 
L 415.53279 -229.735602 
L 415.617514 -228.273224 
L 415.722376 -226.810845 
L 415.84929 -225.348467 
L 415.999662 -223.886089 
L 416.174288 -222.42371 
L 416.373311 -220.961332 
L 416.59626 -219.498953 
L 416.842158 -218.036575 
L 417.109718 -216.574197 
L 417.397574 -215.111818 
L 417.704517 -213.64944 
L 418.029686 -212.187061 
L 418.372662 -210.724683 
L 418.733445 -209.262305 
L 419.112327 -207.799926 
L 419.509678 -206.337548 
L 419.92574 -204.875169 
L 420.360455 -203.412791 
L 420.8134 -201.950413 
L 421.283818 -200.488034 
L 421.770713 -199.025656 
L 422.27295 -197.563277 
L 422.789282 -196.100899 
L 423.318269 -194.638521 
L 423.858059 -193.176142 
L 424.406097 -191.713764 
L 424.958845 -190.251385 
L 425.511635 -188.789007 
L 426.058778 -187.326629 
L 426.593993 -185.86425 
L 427.111163 -184.401872 
L 427.605296 -182.939493 
L 428.073488 -181.477115 
L 428.515623 -180.014737 
L 428.934543 -178.552358 
L 429.335506 -177.08998 
L 429.724938 -175.627602 
L 430.10864 -174.165223 
L 430.489823 -172.702845 
L 430.867409 -171.240466 
L 431.235048 -169.778088 
L 431.581122 -168.31571 
L 431.889824 -166.853331 
L 432.143133 -165.390953 
L 432.323329 -163.928574 
L 432.415584 -162.466196 
L 432.410194 -161.003818 
L 432.304118 -159.541439 
L 432.101631 -158.079061 
L 431.814067 -156.616682 
L 431.458729 -155.154304 
L 431.057147 -153.691926 
L 430.632904 -152.229547 
L 430.209294 -150.767169 
L 429.807093 -149.30479 
L 429.442728 -147.842412 
L 429.127105 -146.380034 
L 428.865256 -144.917655 
L 428.656872 -143.455277 
L 428.497665 -141.992898 
L 428.381354 -140.53052 
L 428.302009 -139.068142 
L 428.256424 -137.605763 
L 428.246158 -136.143385 
L 428.278927 -134.681006 
L 428.368991 -133.218628 
L 428.536306 -131.75625 
L 428.804242 -130.293871 
L 429.19588 -128.831493 
L 429.729121 -127.369114 
L 430.411128 -125.906736 
L 431.232937 -124.444358 
L 432.165266 -122.981979 
L 433.156626 -121.519601 
L 434.134629 -120.057223 
L 435.010984 -118.594844 
L 435.689998 -117.132466 
L 436.079668 -115.670087 
L 436.103754 -114.207709 
L 435.712824 -112.745331 
L 434.89223 -111.282952 
L 433.665418 -109.820574 
L 432.091814 -108.358195 
L 430.259569 -106.895817 
L 428.27447 -105.433439 
L 426.247008 -103.97106 
L 424.279871 -102.508682 
L 422.457849 -101.046303 
L 420.841483 -99.583925 
L 419.464929 -98.121547 
L 418.337631 -96.659168 
L 417.448812 -95.19679 
L 416.773472 -93.734411 
L 416.278614 -92.272033 
z
" id="m608bafd248" style="stroke:#373737;stroke-width:1.5;"/>
    </defs>
    <g clip-path="url(#pad38952a68)">
     <use style="fill:#2b8e70;stroke:#373737;stroke-width:1.5;" x="0" xlink:href="#m608bafd248" y="509.319"/>
    </g>
   </g>
   <g id="PolyCollection_8">
    <defs>
     <path d="M 457.830861 -85.754006 
L 456.007076 -85.754006 
L 455.472166 -88.211342 
L 454.721602 -90.668678 
L 453.723618 -93.126014 
L 452.468875 -95.58335 
L 450.981698 -98.040686 
L 449.327408 -100.498023 
L 447.61223 -102.955359 
L 445.973579 -105.412695 
L 444.561035 -107.870031 
L 443.511335 -110.327367 
L 442.923115 -112.784703 
L 442.83785 -115.242039 
L 443.23215 -117.699376 
L 444.023383 -120.156712 
L 445.086914 -122.614048 
L 446.28014 -125.071384 
L 447.467156 -127.52872 
L 448.53852 -129.986056 
L 449.422711 -132.443392 
L 450.088553 -134.900729 
L 450.540159 -137.358065 
L 450.807235 -139.815401 
L 450.933796 -142.272737 
L 450.967735 -144.730073 
L 450.952779 -147.187409 
L 450.923424 -149.644745 
L 450.902745 -152.102082 
L 450.902502 -154.559418 
L 450.924737 -157.016754 
L 450.963946 -159.47409 
L 451.009055 -161.931426 
L 451.044692 -164.388762 
L 451.051707 -166.846099 
L 451.00733 -169.303435 
L 450.885736 -171.760771 
L 450.659782 -174.218107 
L 450.304438 -176.675443 
L 449.80181 -179.132779 
L 449.146947 -181.590115 
L 448.353056 -184.047452 
L 447.454484 -186.504788 
L 446.506043 -188.962124 
L 445.578005 -191.41946 
L 444.747068 -193.876796 
L 444.084747 -196.334132 
L 443.64546 -198.791468 
L 443.456932 -201.248805 
L 443.515209 -203.706141 
L 443.785617 -206.163477 
L 444.209653 -208.620813 
L 444.716371 -211.078149 
L 445.235807 -213.535485 
L 445.711496 -215.992821 
L 446.109515 -218.450158 
L 446.422354 -220.907494 
L 446.667234 -223.36483 
L 446.879724 -225.822166 
L 447.104431 -228.279502 
L 447.384958 -230.736838 
L 447.75518 -233.194174 
L 448.233327 -235.651511 
L 448.819627 -238.108847 
L 449.49741 -240.566183 
L 450.236999 -243.023519 
L 451.001289 -245.480855 
L 451.751803 -247.938191 
L 452.454179 -250.395528 
L 453.082277 -252.852864 
L 453.620485 -255.3102 
L 454.064158 -257.767536 
L 454.418391 -260.224872 
L 454.695568 -262.682208 
L 454.912243 -265.139544 
L 455.085924 -267.596881 
L 455.232285 -270.054217 
L 455.363215 -272.511553 
L 455.485891 -274.968889 
L 455.602908 -277.426225 
L 455.713274 -279.883561 
L 455.813961 -282.340897 
L 455.901638 -284.798234 
L 455.974198 -287.25557 
L 456.031772 -289.712906 
L 456.077045 -292.170242 
L 456.114841 -294.627578 
L 456.151131 -297.084914 
L 456.191719 -299.54225 
L 456.240987 -301.999587 
L 456.301001 -304.456923 
L 456.371202 -306.914259 
L 456.448716 -309.371595 
L 456.529153 -311.828931 
L 456.607636 -314.286267 
L 456.679785 -316.743604 
L 456.742415 -319.20094 
L 456.793861 -321.658276 
L 456.833918 -324.115612 
L 456.863527 -326.572948 
L 456.884327 -329.030284 
L 456.95361 -329.030284 
L 456.95361 -329.030284 
L 456.97441 -326.572948 
L 457.004019 -324.115612 
L 457.044076 -321.658276 
L 457.095522 -319.20094 
L 457.158152 -316.743604 
L 457.230301 -314.286267 
L 457.308784 -311.828931 
L 457.389221 -309.371595 
L 457.466735 -306.914259 
L 457.536936 -304.456923 
L 457.59695 -301.999587 
L 457.646218 -299.54225 
L 457.686806 -297.084914 
L 457.723096 -294.627578 
L 457.760892 -292.170242 
L 457.806165 -289.712906 
L 457.863739 -287.25557 
L 457.936299 -284.798234 
L 458.023976 -282.340897 
L 458.124663 -279.883561 
L 458.235029 -277.426225 
L 458.352046 -274.968889 
L 458.474722 -272.511553 
L 458.605652 -270.054217 
L 458.752013 -267.596881 
L 458.925694 -265.139544 
L 459.142369 -262.682208 
L 459.419546 -260.224872 
L 459.773779 -257.767536 
L 460.217452 -255.3102 
L 460.75566 -252.852864 
L 461.383758 -250.395528 
L 462.086134 -247.938191 
L 462.836648 -245.480855 
L 463.600938 -243.023519 
L 464.340527 -240.566183 
L 465.01831 -238.108847 
L 465.60461 -235.651511 
L 466.082757 -233.194174 
L 466.452979 -230.736838 
L 466.733506 -228.279502 
L 466.958213 -225.822166 
L 467.170703 -223.36483 
L 467.415583 -220.907494 
L 467.728422 -218.450158 
L 468.126441 -215.992821 
L 468.60213 -213.535485 
L 469.121566 -211.078149 
L 469.628284 -208.620813 
L 470.05232 -206.163477 
L 470.322728 -203.706141 
L 470.381005 -201.248805 
L 470.192477 -198.791468 
L 469.75319 -196.334132 
L 469.090869 -193.876796 
L 468.259932 -191.41946 
L 467.331894 -188.962124 
L 466.383453 -186.504788 
L 465.484881 -184.047452 
L 464.69099 -181.590115 
L 464.036127 -179.132779 
L 463.533499 -176.675443 
L 463.178155 -174.218107 
L 462.952201 -171.760771 
L 462.830607 -169.303435 
L 462.78623 -166.846099 
L 462.793245 -164.388762 
L 462.828882 -161.931426 
L 462.873991 -159.47409 
L 462.9132 -157.016754 
L 462.935435 -154.559418 
L 462.935192 -152.102082 
L 462.914513 -149.644745 
L 462.885158 -147.187409 
L 462.870202 -144.730073 
L 462.904141 -142.272737 
L 463.030702 -139.815401 
L 463.297778 -137.358065 
L 463.749384 -134.900729 
L 464.415226 -132.443392 
L 465.299417 -129.986056 
L 466.370781 -127.52872 
L 467.557797 -125.071384 
L 468.751023 -122.614048 
L 469.814554 -120.156712 
L 470.605787 -117.699376 
L 471.000087 -115.242039 
L 470.914822 -112.784703 
L 470.326602 -110.327367 
L 469.276902 -107.870031 
L 467.864358 -105.412695 
L 466.225707 -102.955359 
L 464.510529 -100.498023 
L 462.856239 -98.040686 
L 461.369062 -95.58335 
L 460.114319 -93.126014 
L 459.116335 -90.668678 
L 458.365771 -88.211342 
L 457.830861 -85.754006 
z
" id="m0c61d942f2" style="stroke:#373737;stroke-width:1.5;"/>
    </defs>
    <g clip-path="url(#pad38952a68)">
     <use style="fill:#be631d;stroke:#373737;stroke-width:1.5;" x="0" xlink:href="#m0c61d942f2" y="509.319"/>
    </g>
   </g>
   <g id="PolyCollection_9">
    <defs>
     <path d="M 520.196805 -93.667846 
L 518.532419 -93.667846 
L 518.03493 -95.23403 
L 517.323645 -96.800214 
L 516.353414 -98.366398 
L 515.091507 -99.932582 
L 513.527833 -101.498765 
L 511.683987 -103.064949 
L 509.618526 -104.631133 
L 507.426251 -106.197317 
L 505.230479 -107.7635 
L 503.169005 -109.329684 
L 501.376227 -110.895868 
L 499.965014 -112.462052 
L 499.012044 -114.028236 
L 498.549398 -115.594419 
L 498.563576 -117.160603 
L 499.001283 -118.726787 
L 499.779975 -120.292971 
L 500.800539 -121.859154 
L 501.959637 -123.425338 
L 503.160017 -124.991522 
L 504.317969 -126.557706 
L 505.367963 -128.12389 
L 506.264892 -129.690073 
L 506.98446 -131.256257 
L 507.522048 -132.822441 
L 507.890204 -134.388625 
L 508.114788 -135.954809 
L 508.229933 -137.520992 
L 508.272247 -139.087176 
L 508.275015 -140.65336 
L 508.263331 -142.219544 
L 508.251031 -143.785727 
L 508.239985 -145.351911 
L 508.221777 -146.918095 
L 508.181288 -148.484279 
L 508.101241 -150.050463 
L 507.96666 -151.616646 
L 507.768276 -153.18283 
L 507.504332 -154.749014 
L 507.180729 -156.315198 
L 506.809875 -157.881381 
L 506.408866 -159.447565 
L 505.997622 -161.013749 
L 505.597346 -162.579933 
L 505.229397 -164.146117 
L 504.914399 -165.7123 
L 504.671333 -167.278484 
L 504.516466 -168.844668 
L 504.462182 -170.410852 
L 504.515966 -171.977036 
L 504.679851 -173.543219 
L 504.950523 -175.109403 
L 505.320118 -176.675587 
L 505.777442 -178.241771 
L 506.309305 -179.807954 
L 506.901576 -181.374138 
L 507.539795 -182.940322 
L 508.209349 -184.506506 
L 508.895431 -186.07269 
L 509.58312 -187.638873 
L 510.257847 -189.205057 
L 510.906349 -190.771241 
L 511.517978 -192.337425 
L 512.086005 -193.903609 
L 512.608513 -195.469792 
L 513.088508 -197.035976 
L 513.533138 -198.60216 
L 513.952121 -200.168344 
L 514.355747 -201.734527 
L 514.752912 -203.300711 
L 515.149592 -204.866895 
L 515.548035 -206.433079 
L 515.94673 -207.999263 
L 516.341044 -209.565446 
L 516.72429 -211.13163 
L 517.088964 -212.697814 
L 517.427901 -214.263998 
L 517.735196 -215.830181 
L 518.006789 -217.396365 
L 518.240737 -218.962549 
L 518.437194 -220.528733 
L 518.598199 -222.094917 
L 518.727322 -223.6611 
L 518.829225 -225.227284 
L 518.90918 -226.793468 
L 518.972548 -228.359652 
L 519.024293 -229.925836 
L 519.06856 -231.492019 
L 519.108391 -233.058203 
L 519.145626 -234.624387 
L 519.181003 -236.190571 
L 519.214413 -237.756754 
L 519.24525 -239.322938 
L 519.272762 -240.889122 
L 519.29634 -242.455306 
L 519.315681 -244.02149 
L 519.330843 -245.587673 
L 519.342193 -247.153857 
L 519.350306 -248.720041 
L 519.378918 -248.720041 
L 519.378918 -248.720041 
L 519.387031 -247.153857 
L 519.398381 -245.587673 
L 519.413543 -244.02149 
L 519.432884 -242.455306 
L 519.456462 -240.889122 
L 519.483974 -239.322938 
L 519.514811 -237.756754 
L 519.548221 -236.190571 
L 519.583598 -234.624387 
L 519.620834 -233.058203 
L 519.660664 -231.492019 
L 519.704931 -229.925836 
L 519.756676 -228.359652 
L 519.820044 -226.793468 
L 519.899999 -225.227284 
L 520.001902 -223.6611 
L 520.131025 -222.094917 
L 520.29203 -220.528733 
L 520.488487 -218.962549 
L 520.722435 -217.396365 
L 520.994028 -215.830181 
L 521.301323 -214.263998 
L 521.64026 -212.697814 
L 522.004934 -211.13163 
L 522.38818 -209.565446 
L 522.782494 -207.999263 
L 523.181189 -206.433079 
L 523.579632 -204.866895 
L 523.976312 -203.300711 
L 524.373477 -201.734527 
L 524.777103 -200.168344 
L 525.196086 -198.60216 
L 525.640716 -197.035976 
L 526.120712 -195.469792 
L 526.643219 -193.903609 
L 527.211246 -192.337425 
L 527.822875 -190.771241 
L 528.471378 -189.205057 
L 529.146104 -187.638873 
L 529.833793 -186.07269 
L 530.519875 -184.506506 
L 531.189429 -182.940322 
L 531.827648 -181.374138 
L 532.419919 -179.807954 
L 532.951782 -178.241771 
L 533.409107 -176.675587 
L 533.778701 -175.109403 
L 534.049373 -173.543219 
L 534.213258 -171.977036 
L 534.267043 -170.410852 
L 534.212758 -168.844668 
L 534.057891 -167.278484 
L 533.814825 -165.7123 
L 533.499828 -164.146117 
L 533.131878 -162.579933 
L 532.731602 -161.013749 
L 532.320358 -159.447565 
L 531.919349 -157.881381 
L 531.548495 -156.315198 
L 531.224892 -154.749014 
L 530.960948 -153.18283 
L 530.762564 -151.616646 
L 530.627983 -150.050463 
L 530.547936 -148.484279 
L 530.507447 -146.918095 
L 530.489239 -145.351911 
L 530.478193 -143.785727 
L 530.465893 -142.219544 
L 530.454209 -140.65336 
L 530.456977 -139.087176 
L 530.499291 -137.520992 
L 530.614436 -135.954809 
L 530.83902 -134.388625 
L 531.207176 -132.822441 
L 531.744764 -131.256257 
L 532.464332 -129.690073 
L 533.361261 -128.12389 
L 534.411255 -126.557706 
L 535.569207 -124.991522 
L 536.769587 -123.425338 
L 537.928686 -121.859154 
L 538.949249 -120.292971 
L 539.727941 -118.726787 
L 540.165648 -117.160603 
L 540.179827 -115.594419 
L 539.717181 -114.028236 
L 538.76421 -112.462052 
L 537.352997 -110.895868 
L 535.560219 -109.329684 
L 533.498745 -107.7635 
L 531.302973 -106.197317 
L 529.110699 -104.631133 
L 527.045237 -103.064949 
L 525.201391 -101.498765 
L 523.637717 -99.932582 
L 522.37581 -98.366398 
L 521.405579 -96.800214 
L 520.694294 -95.23403 
L 520.196805 -93.667846 
z
" id="mf5a12e61b1" style="stroke:#373737;stroke-width:1.5;"/>
    </defs>
    <g clip-path="url(#pad38952a68)">
     <use style="fill:#2b8e70;stroke:#373737;stroke-width:1.5;" x="0" xlink:href="#mf5a12e61b1" y="509.319"/>
    </g>
   </g>
   <g id="PolyCollection_10">
    <defs>
     <path d="M 561.734944 -86.33439 
L 560.255138 -86.33439 
L 559.745477 -89.021813 
L 558.996654 -91.709236 
L 557.967519 -94.396659 
L 556.648375 -97.084083 
L 555.078127 -99.771506 
L 553.353897 -102.458929 
L 551.62668 -105.146352 
L 550.080127 -107.833775 
L 548.895425 -110.521199 
L 548.211249 -113.208622 
L 548.091024 -115.896045 
L 548.508248 -118.583468 
L 549.354698 -121.270891 
L 550.468429 -123.958315 
L 551.67206 -126.645738 
L 552.809455 -129.333161 
L 553.771154 -132.020584 
L 554.504151 -134.708007 
L 555.007218 -137.39543 
L 555.316768 -140.082854 
L 555.489328 -142.770277 
L 555.585518 -145.4577 
L 555.658282 -148.145123 
L 555.746127 -150.832546 
L 555.870794 -153.51997 
L 556.038273 -156.207393 
L 556.241879 -158.894816 
L 556.466167 -161.582239 
L 556.690621 -164.269662 
L 556.892426 -166.957086 
L 557.048157 -169.644509 
L 557.134716 -172.331932 
L 557.130191 -175.019355 
L 557.01518 -177.706778 
L 556.774809 -180.394201 
L 556.401149 -183.081625 
L 555.89542 -185.769048 
L 555.26929 -188.456471 
L 554.544762 -191.143894 
L 553.752512 -193.831317 
L 552.929009 -196.518741 
L 552.113059 -199.206164 
L 551.342581 -201.893587 
L 550.652246 -204.58101 
L 550.072188 -207.268433 
L 549.627455 -209.955857 
L 549.337484 -212.64328 
L 549.214944 -215.330703 
L 549.263777 -218.018126 
L 549.477023 -220.705549 
L 549.83562 -223.392972 
L 550.309369 -226.080396 
L 550.860639 -228.767819 
L 551.45026 -231.455242 
L 552.044069 -234.142665 
L 552.618143 -236.830088 
L 553.161146 -239.517512 
L 553.673331 -242.204935 
L 554.162876 -244.892358 
L 554.641106 -247.579781 
L 555.118163 -250.267204 
L 555.600179 -252.954628 
L 556.088167 -255.642051 
L 556.578222 -258.329474 
L 557.062449 -261.016897 
L 557.530211 -263.70432 
L 557.969599 -266.391744 
L 558.369129 -269.079167 
L 558.719587 -271.76659 
L 559.015709 -274.454013 
L 559.257222 -277.141436 
L 559.448923 -279.828859 
L 559.599697 -282.516283 
L 559.720775 -285.203706 
L 559.82368 -287.891129 
L 559.918368 -290.578552 
L 560.011912 -293.265975 
L 560.107882 -295.953399 
L 560.206416 -298.640822 
L 560.304875 -301.328245 
L 560.3989 -304.015668 
L 560.483691 -306.703091 
L 560.555245 -309.390515 
L 560.611356 -312.077938 
L 560.652167 -314.765361 
L 560.680148 -317.452784 
L 560.69952 -320.140207 
L 560.715257 -322.82763 
L 560.731937 -325.515054 
L 560.75275 -328.202477 
L 560.77895 -330.8899 
L 560.809855 -333.577323 
L 560.843354 -336.264746 
L 560.876699 -338.95217 
L 560.907302 -341.639593 
L 560.933317 -344.327016 
L 560.95388 -347.014439 
L 560.96904 -349.701862 
L 560.97949 -352.389286 
L 561.010592 -352.389286 
L 561.010592 -352.389286 
L 561.021042 -349.701862 
L 561.036203 -347.014439 
L 561.056766 -344.327016 
L 561.08278 -341.639593 
L 561.113383 -338.95217 
L 561.146728 -336.264746 
L 561.180227 -333.577323 
L 561.211132 -330.8899 
L 561.237332 -328.202477 
L 561.258146 -325.515054 
L 561.274825 -322.82763 
L 561.290562 -320.140207 
L 561.309934 -317.452784 
L 561.337915 -314.765361 
L 561.378726 -312.077938 
L 561.434837 -309.390515 
L 561.506391 -306.703091 
L 561.591182 -304.015668 
L 561.685208 -301.328245 
L 561.783666 -298.640822 
L 561.8822 -295.953399 
L 561.97817 -293.265975 
L 562.071715 -290.578552 
L 562.166403 -287.891129 
L 562.269307 -285.203706 
L 562.390385 -282.516283 
L 562.541159 -279.828859 
L 562.73286 -277.141436 
L 562.974373 -274.454013 
L 563.270495 -271.76659 
L 563.620954 -269.079167 
L 564.020483 -266.391744 
L 564.459871 -263.70432 
L 564.927634 -261.016897 
L 565.41186 -258.329474 
L 565.901915 -255.642051 
L 566.389903 -252.954628 
L 566.871919 -250.267204 
L 567.348976 -247.579781 
L 567.827206 -244.892358 
L 568.316751 -242.204935 
L 568.828936 -239.517512 
L 569.371939 -236.830088 
L 569.946013 -234.142665 
L 570.539822 -231.455242 
L 571.129443 -228.767819 
L 571.680713 -226.080396 
L 572.154462 -223.392972 
L 572.513059 -220.705549 
L 572.726305 -218.018126 
L 572.775138 -215.330703 
L 572.652598 -212.64328 
L 572.362627 -209.955857 
L 571.917894 -207.268433 
L 571.337836 -204.58101 
L 570.647501 -201.893587 
L 569.877023 -199.206164 
L 569.061074 -196.518741 
L 568.237571 -193.831317 
L 567.44532 -191.143894 
L 566.720792 -188.456471 
L 566.094663 -185.769048 
L 565.588933 -183.081625 
L 565.215273 -180.394201 
L 564.974903 -177.706778 
L 564.859892 -175.019355 
L 564.855366 -172.331932 
L 564.941925 -169.644509 
L 565.097656 -166.957086 
L 565.299461 -164.269662 
L 565.523915 -161.582239 
L 565.748203 -158.894816 
L 565.95181 -156.207393 
L 566.119289 -153.51997 
L 566.243956 -150.832546 
L 566.3318 -148.145123 
L 566.404565 -145.4577 
L 566.500754 -142.770277 
L 566.673314 -140.082854 
L 566.982864 -137.39543 
L 567.485931 -134.708007 
L 568.218928 -132.020584 
L 569.180627 -129.333161 
L 570.318022 -126.645738 
L 571.521653 -123.958315 
L 572.635384 -121.270891 
L 573.481834 -118.583468 
L 573.899059 -115.896045 
L 573.778834 -113.208622 
L 573.094657 -110.521199 
L 571.909955 -107.833775 
L 570.363402 -105.146352 
L 568.636185 -102.458929 
L 566.911955 -99.771506 
L 565.341708 -97.084083 
L 564.022563 -94.396659 
L 562.993428 -91.709236 
L 562.244605 -89.021813 
L 561.734944 -86.33439 
z
" id="m7931f63d1a" style="stroke:#373737;stroke-width:1.5;"/>
    </defs>
    <g clip-path="url(#pad38952a68)">
     <use style="fill:#be631d;stroke:#373737;stroke-width:1.5;" x="0" xlink:href="#m7931f63d1a" y="509.319"/>
    </g>
   </g>
   <g id="patch_3">
    <path clip-path="url(#pad38952a68)" d="M 123.875536 401.211698 
L 123.875536 401.211698 
L 123.875536 401.211698 
L 123.875536 401.211698 
z
" style="fill:#2b8e70;stroke:#373737;stroke-linejoin:miter;stroke-width:0.75;"/>
   </g>
   <g id="patch_4">
    <path clip-path="url(#pad38952a68)" d="M 123.875536 401.211698 
L 123.875536 401.211698 
L 123.875536 401.211698 
L 123.875536 401.211698 
z
" style="fill:#be631d;stroke:#373737;stroke-linejoin:miter;stroke-width:0.75;"/>
   </g>
   <g id="line2d_1">
    <path clip-path="url(#pad38952a68)" d="M 103.060322 400.055206 
L 103.060322 246.126113 
" style="fill:none;stroke:#373737;stroke-linecap:round;stroke-width:1.5;"/>
   </g>
   <g id="line2d_2">
    <path clip-path="url(#pad38952a68)" d="M 103.060322 393.145166 
L 103.060322 334.135159 
" style="fill:none;stroke:#373737;stroke-linecap:round;stroke-width:4.5;"/>
   </g>
   <g id="line2d_3">
    <path clip-path="url(#pad38952a68)" d="M 144.690751 398.667415 
L 144.690751 69.876724 
" style="fill:none;stroke:#373737;stroke-linecap:round;stroke-width:1.5;"/>
   </g>
   <g id="line2d_4">
    <path clip-path="url(#pad38952a68)" d="M 144.690751 380.51049 
L 144.690751 230.224348 
" style="fill:none;stroke:#373737;stroke-linecap:round;stroke-width:4.5;"/>
   </g>
   <g id="line2d_5">
    <path clip-path="url(#pad38952a68)" d="M 207.136394 399.130012 
L 207.136394 218.139006 
" style="fill:none;stroke:#373737;stroke-linecap:round;stroke-width:1.5;"/>
   </g>
   <g id="line2d_6">
    <path clip-path="url(#pad38952a68)" d="M 207.136394 391.208042 
L 207.136394 318.377955 
" style="fill:none;stroke:#373737;stroke-linecap:round;stroke-width:4.5;"/>
   </g>
   <g id="line2d_7">
    <path clip-path="url(#pad38952a68)" d="M 248.766823 398.551766 
L 248.766823 82.251189 
" style="fill:none;stroke:#373737;stroke-linecap:round;stroke-width:1.5;"/>
   </g>
   <g id="line2d_8">
    <path clip-path="url(#pad38952a68)" d="M 248.766823 382.592176 
L 248.766823 214.814091 
" style="fill:none;stroke:#373737;stroke-linecap:round;stroke-width:4.5;"/>
   </g>
   <g id="line2d_9">
    <path clip-path="url(#pad38952a68)" d="M 311.212467 400.980399 
L 311.212467 269.140305 
" style="fill:none;stroke:#373737;stroke-linecap:round;stroke-width:1.5;"/>
   </g>
   <g id="line2d_10">
    <path clip-path="url(#pad38952a68)" d="M 311.212467 393.463201 
L 311.212467 342.808849 
" style="fill:none;stroke:#373737;stroke-linecap:round;stroke-width:4.5;"/>
   </g>
   <g id="line2d_11">
    <path clip-path="url(#pad38952a68)" d="M 352.842896 400.633452 
L 352.842896 239.881056 
" style="fill:none;stroke:#373737;stroke-linecap:round;stroke-width:1.5;"/>
   </g>
   <g id="line2d_12">
    <path clip-path="url(#pad38952a68)" d="M 352.842896 387.594004 
L 352.842896 281.167823 
" style="fill:none;stroke:#373737;stroke-linecap:round;stroke-width:4.5;"/>
   </g>
   <g id="line2d_13">
    <path clip-path="url(#pad38952a68)" d="M 415.288539 400.980399 
L 415.288539 288.338073 
" style="fill:none;stroke:#373737;stroke-linecap:round;stroke-width:1.5;"/>
   </g>
   <g id="line2d_14">
    <path clip-path="url(#pad38952a68)" d="M 415.288539 390.138286 
L 415.288539 337.575723 
" style="fill:none;stroke:#373737;stroke-linecap:round;stroke-width:4.5;"/>
   </g>
   <g id="line2d_15">
    <path clip-path="url(#pad38952a68)" d="M 456.918968 400.633452 
L 456.918968 203.220258 
" style="fill:none;stroke:#373737;stroke-linecap:round;stroke-width:1.5;"/>
   </g>
   <g id="line2d_16">
    <path clip-path="url(#pad38952a68)" d="M 456.918968 388.374636 
L 456.918968 293.657937 
" style="fill:none;stroke:#373737;stroke-linecap:round;stroke-width:4.5;"/>
   </g>
   <g id="line2d_17">
    <path clip-path="url(#pad38952a68)" d="M 519.364612 400.86475 
L 519.364612 275.385362 
" style="fill:none;stroke:#373737;stroke-linecap:round;stroke-width:1.5;"/>
   </g>
   <g id="line2d_18">
    <path clip-path="url(#pad38952a68)" d="M 519.364612 389.993725 
L 519.364612 336.216844 
" style="fill:none;stroke:#373737;stroke-linecap:round;stroke-width:4.5;"/>
   </g>
   <g id="line2d_19">
    <path clip-path="url(#pad38952a68)" d="M 560.995041 400.633452 
L 560.995041 179.280873 
" style="fill:none;stroke:#373737;stroke-linecap:round;stroke-width:1.5;"/>
   </g>
   <g id="line2d_20">
    <path clip-path="url(#pad38952a68)" d="M 560.995041 388.258987 
L 560.995041 285.562492 
" style="fill:none;stroke:#373737;stroke-linecap:round;stroke-width:4.5;"/>
   </g>
   <g id="patch_5">
    <path d="M 71.8375 461.854 
L 71.8375 7.2 
" style="fill:none;stroke:#262626;stroke-linecap:square;stroke-linejoin:miter;stroke-width:0.8;"/>
   </g>
   <g id="patch_6">
    <path d="M 71.8375 461.854 
L 592.217863 461.854 
" style="fill:none;stroke:#262626;stroke-linecap:square;stroke-linejoin:miter;stroke-width:0.8;"/>
   </g>
   <g id="PathCollection_1">
    <defs>
     <path d="M 0 1.5 
C 0.397805 1.5 0.77937 1.341951 1.06066 1.06066 
C 1.341951 0.77937 1.5 0.397805 1.5 0 
C 1.5 -0.397805 1.341951 -0.77937 1.06066 -1.06066 
C 0.77937 -1.341951 0.397805 -1.5 0 -1.5 
C -0.397805 -1.5 -0.77937 -1.341951 -1.06066 -1.06066 
C -1.341951 -0.77937 -1.5 -0.397805 -1.5 0 
C -1.5 0.397805 -1.341951 0.77937 -1.06066 1.06066 
C -0.77937 1.341951 -0.397805 1.5 0 1.5 
z
" id="m5214da6730" style="stroke:#373737;"/>
    </defs>
    <g clip-path="url(#pad38952a68)">
     <use style="fill:#ffffff;stroke:#373737;" x="103.060322" xlink:href="#m5214da6730" y="358.941913"/>
    </g>
   </g>
   <g id="PathCollection_2">
    <g clip-path="url(#pad38952a68)">
     <use style="fill:#ffffff;stroke:#373737;" x="144.690751" xlink:href="#m5214da6730" y="271.453289"/>
    </g>
   </g>
   <g id="PathCollection_3">
    <g clip-path="url(#pad38952a68)">
     <use style="fill:#ffffff;stroke:#373737;" x="207.136394" xlink:href="#m5214da6730" y="352.407733"/>
    </g>
   </g>
   <g id="PathCollection_4">
    <g clip-path="url(#pad38952a68)">
     <use style="fill:#ffffff;stroke:#373737;" x="248.766823" xlink:href="#m5214da6730" y="258.963175"/>
    </g>
   </g>
   <g id="PathCollection_5">
    <g clip-path="url(#pad38952a68)">
     <use style="fill:#ffffff;stroke:#373737;" x="311.212467" xlink:href="#m5214da6730" y="371.8368"/>
    </g>
   </g>
   <g id="PathCollection_6">
    <g clip-path="url(#pad38952a68)">
     <use style="fill:#ffffff;stroke:#373737;" x="352.842896" xlink:href="#m5214da6730" y="333.961685"/>
    </g>
   </g>
   <g id="PathCollection_7">
    <g clip-path="url(#pad38952a68)">
     <use style="fill:#ffffff;stroke:#373737;" x="415.288539" xlink:href="#m5214da6730" y="358.826264"/>
    </g>
   </g>
   <g id="PathCollection_8">
    <g clip-path="url(#pad38952a68)">
     <use style="fill:#ffffff;stroke:#373737;" x="456.918968" xlink:href="#m5214da6730" y="318.985113"/>
    </g>
   </g>
   <g id="PathCollection_9">
    <g clip-path="url(#pad38952a68)">
     <use style="fill:#ffffff;stroke:#373737;" x="519.364612" xlink:href="#m5214da6730" y="362.527039"/>
    </g>
   </g>
   <g id="PathCollection_10">
    <g clip-path="url(#pad38952a68)">
     <use style="fill:#ffffff;stroke:#373737;" x="560.995041" xlink:href="#m5214da6730" y="312.971354"/>
    </g>
   </g>
  </g>
  <g id="legend_1">
   <g id="text_16">
    <!-- workday -->
    <defs>
     <path d="M 16.15625 0 
L 0.296875 51.859375 
L 9.375 51.859375 
L 17.625 21.921875 
L 20.703125 10.796875 
Q 20.90625 11.625 23.390625 21.484375 
L 31.640625 51.859375 
L 40.671875 51.859375 
L 48.4375 21.78125 
L 51.03125 11.859375 
L 54 21.875 
L 62.890625 51.859375 
L 71.4375 51.859375 
L 55.21875 0 
L 46.09375 0 
L 37.84375 31.0625 
L 35.84375 39.890625 
L 25.34375 0 
z
" id="ArialMT-119"/>
     <path d="M 6.640625 0 
L 6.640625 71.578125 
L 15.4375 71.578125 
L 15.4375 30.765625 
L 36.234375 51.859375 
L 47.609375 51.859375 
L 27.78125 32.625 
L 49.609375 0 
L 38.765625 0 
L 21.625 26.515625 
L 15.4375 20.5625 
L 15.4375 0 
z
" id="ArialMT-107"/>
     <path d="M 40.4375 6.390625 
Q 35.546875 2.25 31.03125 0.53125 
Q 26.515625 -1.171875 21.34375 -1.171875 
Q 12.796875 -1.171875 8.203125 3 
Q 3.609375 7.171875 3.609375 13.671875 
Q 3.609375 17.484375 5.34375 20.625 
Q 7.078125 23.78125 9.890625 25.6875 
Q 12.703125 27.59375 16.21875 28.5625 
Q 18.796875 29.25 24.03125 29.890625 
Q 34.671875 31.15625 39.703125 32.90625 
Q 39.75 34.71875 39.75 35.203125 
Q 39.75 40.578125 37.25 42.78125 
Q 33.890625 45.75 27.25 45.75 
Q 21.046875 45.75 18.09375 43.578125 
Q 15.140625 41.40625 13.71875 35.890625 
L 5.125 37.0625 
Q 6.296875 42.578125 8.984375 45.96875 
Q 11.671875 49.359375 16.75 51.1875 
Q 21.828125 53.03125 28.515625 53.03125 
Q 35.15625 53.03125 39.296875 51.46875 
Q 43.453125 49.90625 45.40625 47.53125 
Q 47.359375 45.171875 48.140625 41.546875 
Q 48.578125 39.3125 48.578125 33.453125 
L 48.578125 21.734375 
Q 48.578125 9.46875 49.140625 6.21875 
Q 49.703125 2.984375 51.375 0 
L 42.1875 0 
Q 40.828125 2.734375 40.4375 6.390625 
z
M 39.703125 26.03125 
Q 34.90625 24.078125 25.34375 22.703125 
Q 19.921875 21.921875 17.671875 20.9375 
Q 15.4375 19.96875 14.203125 18.09375 
Q 12.984375 16.21875 12.984375 13.921875 
Q 12.984375 10.40625 15.640625 8.0625 
Q 18.3125 5.71875 23.4375 5.71875 
Q 28.515625 5.71875 32.46875 7.9375 
Q 36.421875 10.15625 38.28125 14.015625 
Q 39.703125 17 39.703125 22.796875 
z
" id="ArialMT-97"/>
     <path d="M 6.203125 -19.96875 
L 5.21875 -11.71875 
Q 8.109375 -12.5 10.25 -12.5 
Q 13.1875 -12.5 14.9375 -11.515625 
Q 16.703125 -10.546875 17.828125 -8.796875 
Q 18.65625 -7.46875 20.515625 -2.25 
Q 20.75 -1.515625 21.296875 -0.09375 
L 1.609375 51.859375 
L 11.078125 51.859375 
L 21.875 21.828125 
Q 23.96875 16.109375 25.640625 9.8125 
Q 27.15625 15.875 29.25 21.625 
L 40.328125 51.859375 
L 49.125 51.859375 
L 29.390625 -0.875 
Q 26.21875 -9.421875 24.46875 -12.640625 
Q 22.125 -17 19.09375 -19.015625 
Q 16.0625 -21.046875 11.859375 -21.046875 
Q 9.328125 -21.046875 6.203125 -19.96875 
z
" id="ArialMT-121"/>
    </defs>
    <g style="fill:#262626;" transform="translate(670.7905 236.0695)scale(0.16 -0.16)">
     <use xlink:href="#ArialMT-119"/>
     <use x="72.216797" xlink:href="#ArialMT-111"/>
     <use x="127.832031" xlink:href="#ArialMT-114"/>
     <use x="161.132812" xlink:href="#ArialMT-107"/>
     <use x="211.132812" xlink:href="#ArialMT-100"/>
     <use x="266.748047" xlink:href="#ArialMT-97"/>
     <use x="322.363281" xlink:href="#ArialMT-121"/>
    </g>
   </g>
   <g id="patch_7">
    <path d="M 673.72925 258.8895 
L 705.72925 258.8895 
L 705.72925 247.6895 
L 673.72925 247.6895 
z
" style="fill:#2b8e70;stroke:#373737;stroke-linejoin:miter;stroke-width:0.75;"/>
   </g>
   <g id="text_17">
    <!-- 0 -->
    <g style="fill:#262626;" transform="translate(718.52925 258.8895)scale(0.16 -0.16)">
     <use xlink:href="#ArialMT-48"/>
    </g>
   </g>
   <g id="patch_8">
    <path d="M 673.72925 281.522 
L 705.72925 281.522 
L 705.72925 270.322 
L 673.72925 270.322 
z
" style="fill:#be631d;stroke:#373737;stroke-linejoin:miter;stroke-width:0.75;"/>
   </g>
   <g id="text_18">
    <!-- 1 -->
    <g style="fill:#262626;" transform="translate(718.52925 281.522)scale(0.16 -0.16)">
     <use xlink:href="#ArialMT-49"/>
    </g>
   </g>
  </g>
 </g>
 <defs>
  <clipPath id="pad38952a68">
   <rect height="454.654" width="520.380363" x="71.8375" y="7.2"/>
  </clipPath>
 </defs>
</svg>
