<?xml version="1.0" encoding="utf-8" standalone="no"?>
<!DOCTYPE svg PUBLIC "-//W3C//DTD SVG 1.1//EN"
  "http://www.w3.org/Graphics/SVG/1.1/DTD/svg11.dtd">
<!-- Created with matplotlib (https://matplotlib.org/) -->
<svg height="540.169pt" version="1.1" viewBox="0 0 790.3655 540.169" width="790.3655pt" xmlns="http://www.w3.org/2000/svg" xmlns:xlink="http://www.w3.org/1999/xlink">
 <defs>
  <style type="text/css">
*{stroke-linecap:butt;stroke-linejoin:round;white-space:pre;}
  </style>
 </defs>
 <g id="figure_1">
  <g id="patch_1">
   <path d="M 0 540.169 
L 790.3655 540.169 
L 790.3655 0 
L 0 0 
z
" style="fill:#ffffff;"/>
  </g>
  <g id="axes_1">
   <g id="patch_2">
    <path d="M 71.8375 492.704 
L 637.817863 492.704 
L 637.817863 7.2 
L 71.8375 7.2 
z
" style="fill:#ffffff;"/>
   </g>
   <g id="matplotlib.axis_1">
    <g id="xtick_1">
     <g id="text_1">
      <!-- 1038-276-1 -->
      <defs>
       <path d="M 37.25 0 
L 28.46875 0 
L 28.46875 56 
Q 25.296875 52.984375 20.140625 49.953125 
Q 14.984375 46.921875 10.890625 45.40625 
L 10.890625 53.90625 
Q 18.265625 57.375 23.78125 62.296875 
Q 29.296875 67.234375 31.59375 71.875 
L 37.25 71.875 
z
" id="ArialMT-49"/>
       <path d="M 4.15625 35.296875 
Q 4.15625 48 6.765625 55.734375 
Q 9.375 63.484375 14.515625 67.671875 
Q 19.671875 71.875 27.484375 71.875 
Q 33.25 71.875 37.59375 69.546875 
Q 41.9375 67.234375 44.765625 62.859375 
Q 47.609375 58.5 49.21875 52.21875 
Q 50.828125 45.953125 50.828125 35.296875 
Q 50.828125 22.703125 48.234375 14.96875 
Q 45.65625 7.234375 40.5 3 
Q 35.359375 -1.21875 27.484375 -1.21875 
Q 17.140625 -1.21875 11.234375 6.203125 
Q 4.15625 15.140625 4.15625 35.296875 
z
M 13.1875 35.296875 
Q 13.1875 17.671875 17.3125 11.828125 
Q 21.4375 6 27.484375 6 
Q 33.546875 6 37.671875 11.859375 
Q 41.796875 17.71875 41.796875 35.296875 
Q 41.796875 52.984375 37.671875 58.78125 
Q 33.546875 64.59375 27.390625 64.59375 
Q 21.34375 64.59375 17.71875 59.46875 
Q 13.1875 52.9375 13.1875 35.296875 
z
" id="ArialMT-48"/>
       <path d="M 4.203125 18.890625 
L 12.984375 20.0625 
Q 14.5 12.59375 18.140625 9.296875 
Q 21.78125 6 27 6 
Q 33.203125 6 37.46875 10.296875 
Q 41.75 14.59375 41.75 20.953125 
Q 41.75 27 37.796875 30.921875 
Q 33.84375 34.859375 27.734375 34.859375 
Q 25.25 34.859375 21.53125 33.890625 
L 22.515625 41.609375 
Q 23.390625 41.5 23.921875 41.5 
Q 29.546875 41.5 34.03125 44.421875 
Q 38.53125 47.359375 38.53125 53.46875 
Q 38.53125 58.296875 35.25 61.46875 
Q 31.984375 64.65625 26.8125 64.65625 
Q 21.6875 64.65625 18.265625 61.421875 
Q 14.84375 58.203125 13.875 51.765625 
L 5.078125 53.328125 
Q 6.6875 62.15625 12.390625 67.015625 
Q 18.109375 71.875 26.609375 71.875 
Q 32.46875 71.875 37.390625 69.359375 
Q 42.328125 66.84375 44.9375 62.5 
Q 47.5625 58.15625 47.5625 53.265625 
Q 47.5625 48.640625 45.0625 44.828125 
Q 42.578125 41.015625 37.703125 38.765625 
Q 44.046875 37.3125 47.5625 32.6875 
Q 51.078125 28.078125 51.078125 21.140625 
Q 51.078125 11.765625 44.234375 5.25 
Q 37.40625 -1.265625 26.953125 -1.265625 
Q 17.53125 -1.265625 11.296875 4.34375 
Q 5.078125 9.96875 4.203125 18.890625 
z
" id="ArialMT-51"/>
       <path d="M 17.671875 38.8125 
Q 12.203125 40.828125 9.5625 44.53125 
Q 6.9375 48.25 6.9375 53.421875 
Q 6.9375 61.234375 12.546875 66.546875 
Q 18.171875 71.875 27.484375 71.875 
Q 36.859375 71.875 42.578125 66.421875 
Q 48.296875 60.984375 48.296875 53.171875 
Q 48.296875 48.1875 45.671875 44.5 
Q 43.0625 40.828125 37.75 38.8125 
Q 44.34375 36.671875 47.78125 31.875 
Q 51.21875 27.09375 51.21875 20.453125 
Q 51.21875 11.28125 44.71875 5.03125 
Q 38.234375 -1.21875 27.640625 -1.21875 
Q 17.046875 -1.21875 10.546875 5.046875 
Q 4.046875 11.328125 4.046875 20.703125 
Q 4.046875 27.6875 7.59375 32.390625 
Q 11.140625 37.109375 17.671875 38.8125 
z
M 15.921875 53.71875 
Q 15.921875 48.640625 19.1875 45.40625 
Q 22.46875 42.1875 27.6875 42.1875 
Q 32.765625 42.1875 36.015625 45.375 
Q 39.265625 48.578125 39.265625 53.21875 
Q 39.265625 58.0625 35.90625 61.359375 
Q 32.5625 64.65625 27.59375 64.65625 
Q 22.5625 64.65625 19.234375 61.421875 
Q 15.921875 58.203125 15.921875 53.71875 
z
M 13.09375 20.65625 
Q 13.09375 16.890625 14.875 13.375 
Q 16.65625 9.859375 20.171875 7.921875 
Q 23.6875 6 27.734375 6 
Q 34.03125 6 38.125 10.046875 
Q 42.234375 14.109375 42.234375 20.359375 
Q 42.234375 26.703125 38.015625 30.859375 
Q 33.796875 35.015625 27.4375 35.015625 
Q 21.234375 35.015625 17.15625 30.90625 
Q 13.09375 26.8125 13.09375 20.65625 
z
" id="ArialMT-56"/>
       <path d="M 3.171875 21.484375 
L 3.171875 30.328125 
L 30.171875 30.328125 
L 30.171875 21.484375 
z
" id="ArialMT-45"/>
       <path d="M 50.34375 8.453125 
L 50.34375 0 
L 3.03125 0 
Q 2.9375 3.171875 4.046875 6.109375 
Q 5.859375 10.9375 9.828125 15.625 
Q 13.8125 20.3125 21.34375 26.46875 
Q 33.015625 36.03125 37.109375 41.625 
Q 41.21875 47.21875 41.21875 52.203125 
Q 41.21875 57.421875 37.46875 61 
Q 33.734375 64.59375 27.734375 64.59375 
Q 21.390625 64.59375 17.578125 60.78125 
Q 13.765625 56.984375 13.71875 50.25 
L 4.6875 51.171875 
Q 5.609375 61.28125 11.65625 66.578125 
Q 17.71875 71.875 27.9375 71.875 
Q 38.234375 71.875 44.234375 66.15625 
Q 50.25 60.453125 50.25 52 
Q 50.25 47.703125 48.484375 43.546875 
Q 46.734375 39.40625 42.65625 34.8125 
Q 38.578125 30.21875 29.109375 22.21875 
Q 21.1875 15.578125 18.9375 13.203125 
Q 16.703125 10.84375 15.234375 8.453125 
z
" id="ArialMT-50"/>
       <path d="M 4.734375 62.203125 
L 4.734375 70.65625 
L 51.078125 70.65625 
L 51.078125 63.8125 
Q 44.234375 56.546875 37.515625 44.484375 
Q 30.8125 32.421875 27.15625 19.671875 
Q 24.515625 10.6875 23.78125 0 
L 14.75 0 
Q 14.890625 8.453125 18.0625 20.40625 
Q 21.234375 32.375 27.171875 43.484375 
Q 33.109375 54.59375 39.796875 62.203125 
z
" id="ArialMT-55"/>
       <path d="M 49.75 54.046875 
L 41.015625 53.375 
Q 39.84375 58.546875 37.703125 60.890625 
Q 34.125 64.65625 28.90625 64.65625 
Q 24.703125 64.65625 21.53125 62.3125 
Q 17.390625 59.28125 14.984375 53.46875 
Q 12.59375 47.65625 12.5 36.921875 
Q 15.671875 41.75 20.265625 44.09375 
Q 24.859375 46.4375 29.890625 46.4375 
Q 38.671875 46.4375 44.84375 39.96875 
Q 51.03125 33.5 51.03125 23.25 
Q 51.03125 16.5 48.125 10.71875 
Q 45.21875 4.9375 40.140625 1.859375 
Q 35.0625 -1.21875 28.609375 -1.21875 
Q 17.625 -1.21875 10.6875 6.859375 
Q 3.765625 14.9375 3.765625 33.5 
Q 3.765625 54.25 11.421875 63.671875 
Q 18.109375 71.875 29.4375 71.875 
Q 37.890625 71.875 43.28125 67.140625 
Q 48.6875 62.40625 49.75 54.046875 
z
M 13.875 23.1875 
Q 13.875 18.65625 15.796875 14.5 
Q 17.71875 10.359375 21.1875 8.171875 
Q 24.65625 6 28.46875 6 
Q 34.03125 6 38.03125 10.484375 
Q 42.046875 14.984375 42.046875 22.703125 
Q 42.046875 30.125 38.078125 34.390625 
Q 34.125 38.671875 28.125 38.671875 
Q 22.171875 38.671875 18.015625 34.390625 
Q 13.875 30.125 13.875 23.1875 
z
" id="ArialMT-54"/>
      </defs>
      <g style="fill:#262626;" transform="translate(87.518036 511.1565)scale(0.16 -0.16)">
       <use xlink:href="#ArialMT-49"/>
       <use x="55.615234" xlink:href="#ArialMT-48"/>
       <use x="111.230469" xlink:href="#ArialMT-51"/>
       <use x="166.845703" xlink:href="#ArialMT-56"/>
       <use x="222.460938" xlink:href="#ArialMT-45"/>
       <use x="255.761719" xlink:href="#ArialMT-50"/>
       <use x="311.376953" xlink:href="#ArialMT-55"/>
       <use x="366.992188" xlink:href="#ArialMT-54"/>
       <use x="422.607422" xlink:href="#ArialMT-45"/>
       <use x="455.908203" xlink:href="#ArialMT-49"/>
      </g>
     </g>
    </g>
    <g id="xtick_2">
     <g id="text_2">
      <!-- 1935-230 -->
      <defs>
       <path d="M 5.46875 16.546875 
L 13.921875 17.328125 
Q 14.984375 11.375 18.015625 8.6875 
Q 21.046875 6 25.78125 6 
Q 29.828125 6 32.875 7.859375 
Q 35.9375 9.71875 37.890625 12.8125 
Q 39.84375 15.921875 41.15625 21.1875 
Q 42.484375 26.46875 42.484375 31.9375 
Q 42.484375 32.515625 42.4375 33.6875 
Q 39.796875 29.5 35.234375 26.875 
Q 30.671875 24.265625 25.34375 24.265625 
Q 16.453125 24.265625 10.296875 30.703125 
Q 4.15625 37.15625 4.15625 47.703125 
Q 4.15625 58.59375 10.578125 65.234375 
Q 17 71.875 26.65625 71.875 
Q 33.640625 71.875 39.421875 68.109375 
Q 45.21875 64.359375 48.21875 57.390625 
Q 51.21875 50.4375 51.21875 37.25 
Q 51.21875 23.53125 48.234375 15.40625 
Q 45.265625 7.28125 39.375 3.03125 
Q 33.5 -1.21875 25.59375 -1.21875 
Q 17.1875 -1.21875 11.859375 3.4375 
Q 6.546875 8.109375 5.46875 16.546875 
z
M 41.453125 48.140625 
Q 41.453125 55.71875 37.421875 60.15625 
Q 33.40625 64.59375 27.734375 64.59375 
Q 21.875 64.59375 17.53125 59.8125 
Q 13.1875 55.03125 13.1875 47.40625 
Q 13.1875 40.578125 17.3125 36.296875 
Q 21.4375 32.03125 27.484375 32.03125 
Q 33.59375 32.03125 37.515625 36.296875 
Q 41.453125 40.578125 41.453125 48.140625 
z
" id="ArialMT-57"/>
       <path d="M 4.15625 18.75 
L 13.375 19.53125 
Q 14.40625 12.796875 18.140625 9.390625 
Q 21.875 6 27.15625 6 
Q 33.5 6 37.890625 10.78125 
Q 42.28125 15.578125 42.28125 23.484375 
Q 42.28125 31 38.0625 35.34375 
Q 33.84375 39.703125 27 39.703125 
Q 22.75 39.703125 19.328125 37.765625 
Q 15.921875 35.84375 13.96875 32.765625 
L 5.71875 33.84375 
L 12.640625 70.609375 
L 48.25 70.609375 
L 48.25 62.203125 
L 19.671875 62.203125 
L 15.828125 42.96875 
Q 22.265625 47.46875 29.34375 47.46875 
Q 38.71875 47.46875 45.15625 40.96875 
Q 51.609375 34.46875 51.609375 24.265625 
Q 51.609375 14.546875 45.953125 7.46875 
Q 39.0625 -1.21875 27.15625 -1.21875 
Q 17.390625 -1.21875 11.203125 4.25 
Q 5.03125 9.71875 4.15625 18.75 
z
" id="ArialMT-53"/>
      </defs>
      <g style="fill:#262626;" transform="translate(207.826609 511.1565)scale(0.16 -0.16)">
       <use xlink:href="#ArialMT-49"/>
       <use x="55.615234" xlink:href="#ArialMT-57"/>
       <use x="111.230469" xlink:href="#ArialMT-51"/>
       <use x="166.845703" xlink:href="#ArialMT-53"/>
       <use x="222.460938" xlink:href="#ArialMT-45"/>
       <use x="255.761719" xlink:href="#ArialMT-50"/>
       <use x="311.376953" xlink:href="#ArialMT-51"/>
       <use x="366.992188" xlink:href="#ArialMT-48"/>
      </g>
     </g>
    </g>
    <g id="xtick_3">
     <g id="text_3">
      <!-- 1935-230-1 -->
      <g style="fill:#262626;" transform="translate(313.910181 511.1565)scale(0.16 -0.16)">
       <use xlink:href="#ArialMT-49"/>
       <use x="55.615234" xlink:href="#ArialMT-57"/>
       <use x="111.230469" xlink:href="#ArialMT-51"/>
       <use x="166.845703" xlink:href="#ArialMT-53"/>
       <use x="222.460938" xlink:href="#ArialMT-45"/>
       <use x="255.761719" xlink:href="#ArialMT-50"/>
       <use x="311.376953" xlink:href="#ArialMT-51"/>
       <use x="366.992188" xlink:href="#ArialMT-48"/>
       <use x="422.607422" xlink:href="#ArialMT-45"/>
       <use x="455.908203" xlink:href="#ArialMT-49"/>
      </g>
     </g>
    </g>
    <g id="xtick_4">
     <g id="text_4">
      <!-- 1946-230 -->
      <defs>
       <path d="M 32.328125 0 
L 32.328125 17.140625 
L 1.265625 17.140625 
L 1.265625 25.203125 
L 33.9375 71.578125 
L 41.109375 71.578125 
L 41.109375 25.203125 
L 50.78125 25.203125 
L 50.78125 17.140625 
L 41.109375 17.140625 
L 41.109375 0 
z
M 32.328125 25.203125 
L 32.328125 57.46875 
L 9.90625 25.203125 
z
" id="ArialMT-52"/>
      </defs>
      <g style="fill:#262626;" transform="translate(434.218754 511.1565)scale(0.16 -0.16)">
       <use xlink:href="#ArialMT-49"/>
       <use x="55.615234" xlink:href="#ArialMT-57"/>
       <use x="111.230469" xlink:href="#ArialMT-52"/>
       <use x="166.845703" xlink:href="#ArialMT-54"/>
       <use x="222.460938" xlink:href="#ArialMT-45"/>
       <use x="255.761719" xlink:href="#ArialMT-50"/>
       <use x="311.376953" xlink:href="#ArialMT-51"/>
       <use x="366.992188" xlink:href="#ArialMT-48"/>
      </g>
     </g>
    </g>
    <g id="xtick_5">
     <g id="text_5">
      <!-- 1947-211 -->
      <g style="fill:#262626;" transform="translate(547.423577 511.1565)scale(0.16 -0.16)">
       <use xlink:href="#ArialMT-49"/>
       <use x="55.615234" xlink:href="#ArialMT-57"/>
       <use x="111.230469" xlink:href="#ArialMT-52"/>
       <use x="166.845703" xlink:href="#ArialMT-55"/>
       <use x="222.460938" xlink:href="#ArialMT-45"/>
       <use x="255.761719" xlink:href="#ArialMT-50"/>
       <use x="311.376953" xlink:href="#ArialMT-49"/>
       <use x="366.882812" xlink:href="#ArialMT-49"/>
      </g>
     </g>
    </g>
    <g id="text_6">
     <!-- Counter id -->
     <defs>
      <path d="M 58.796875 25.09375 
L 68.265625 22.703125 
Q 65.28125 11.03125 57.546875 4.90625 
Q 49.8125 -1.21875 38.625 -1.21875 
Q 27.046875 -1.21875 19.796875 3.484375 
Q 12.546875 8.203125 8.765625 17.140625 
Q 4.984375 26.078125 4.984375 36.328125 
Q 4.984375 47.515625 9.25 55.828125 
Q 13.53125 64.15625 21.40625 68.46875 
Q 29.296875 72.796875 38.765625 72.796875 
Q 49.515625 72.796875 56.828125 67.328125 
Q 64.15625 61.859375 67.046875 51.953125 
L 57.71875 49.75 
Q 55.21875 57.5625 50.484375 61.125 
Q 45.75 64.703125 38.578125 64.703125 
Q 30.328125 64.703125 24.78125 60.734375 
Q 19.234375 56.78125 16.984375 50.109375 
Q 14.75 43.453125 14.75 36.375 
Q 14.75 27.25 17.40625 20.4375 
Q 20.0625 13.625 25.671875 10.25 
Q 31.296875 6.890625 37.84375 6.890625 
Q 45.796875 6.890625 51.3125 11.46875 
Q 56.84375 16.0625 58.796875 25.09375 
z
" id="ArialMT-67"/>
      <path d="M 3.328125 25.921875 
Q 3.328125 40.328125 11.328125 47.265625 
Q 18.015625 53.03125 27.640625 53.03125 
Q 38.328125 53.03125 45.109375 46.015625 
Q 51.90625 39.015625 51.90625 26.65625 
Q 51.90625 16.65625 48.90625 10.90625 
Q 45.90625 5.171875 40.15625 2 
Q 34.421875 -1.171875 27.640625 -1.171875 
Q 16.75 -1.171875 10.03125 5.8125 
Q 3.328125 12.796875 3.328125 25.921875 
z
M 12.359375 25.921875 
Q 12.359375 15.96875 16.703125 11.015625 
Q 21.046875 6.0625 27.640625 6.0625 
Q 34.1875 6.0625 38.53125 11.03125 
Q 42.875 16.015625 42.875 26.21875 
Q 42.875 35.84375 38.5 40.796875 
Q 34.125 45.75 27.640625 45.75 
Q 21.046875 45.75 16.703125 40.8125 
Q 12.359375 35.890625 12.359375 25.921875 
z
" id="ArialMT-111"/>
      <path d="M 40.578125 0 
L 40.578125 7.625 
Q 34.515625 -1.171875 24.125 -1.171875 
Q 19.53125 -1.171875 15.546875 0.578125 
Q 11.578125 2.34375 9.640625 5 
Q 7.71875 7.671875 6.9375 11.53125 
Q 6.390625 14.109375 6.390625 19.734375 
L 6.390625 51.859375 
L 15.1875 51.859375 
L 15.1875 23.09375 
Q 15.1875 16.21875 15.71875 13.8125 
Q 16.546875 10.359375 19.234375 8.375 
Q 21.921875 6.390625 25.875 6.390625 
Q 29.828125 6.390625 33.296875 8.421875 
Q 36.765625 10.453125 38.203125 13.9375 
Q 39.65625 17.4375 39.65625 24.078125 
L 39.65625 51.859375 
L 48.4375 51.859375 
L 48.4375 0 
z
" id="ArialMT-117"/>
      <path d="M 6.59375 0 
L 6.59375 51.859375 
L 14.5 51.859375 
L 14.5 44.484375 
Q 20.21875 53.03125 31 53.03125 
Q 35.6875 53.03125 39.625 51.34375 
Q 43.5625 49.65625 45.515625 46.921875 
Q 47.46875 44.1875 48.25 40.4375 
Q 48.734375 37.984375 48.734375 31.890625 
L 48.734375 0 
L 39.9375 0 
L 39.9375 31.546875 
Q 39.9375 36.921875 38.90625 39.578125 
Q 37.890625 42.234375 35.28125 43.8125 
Q 32.671875 45.40625 29.15625 45.40625 
Q 23.53125 45.40625 19.453125 41.84375 
Q 15.375 38.28125 15.375 28.328125 
L 15.375 0 
z
" id="ArialMT-110"/>
      <path d="M 25.78125 7.859375 
L 27.046875 0.09375 
Q 23.34375 -0.6875 20.40625 -0.6875 
Q 15.625 -0.6875 12.984375 0.828125 
Q 10.359375 2.34375 9.28125 4.8125 
Q 8.203125 7.28125 8.203125 15.1875 
L 8.203125 45.015625 
L 1.765625 45.015625 
L 1.765625 51.859375 
L 8.203125 51.859375 
L 8.203125 64.703125 
L 16.9375 69.96875 
L 16.9375 51.859375 
L 25.78125 51.859375 
L 25.78125 45.015625 
L 16.9375 45.015625 
L 16.9375 14.703125 
Q 16.9375 10.9375 17.40625 9.859375 
Q 17.875 8.796875 18.921875 8.15625 
Q 19.96875 7.515625 21.921875 7.515625 
Q 23.390625 7.515625 25.78125 7.859375 
z
" id="ArialMT-116"/>
      <path d="M 42.09375 16.703125 
L 51.171875 15.578125 
Q 49.03125 7.625 43.21875 3.21875 
Q 37.40625 -1.171875 28.375 -1.171875 
Q 17 -1.171875 10.328125 5.828125 
Q 3.65625 12.84375 3.65625 25.484375 
Q 3.65625 38.578125 10.390625 45.796875 
Q 17.140625 53.03125 27.875 53.03125 
Q 38.28125 53.03125 44.875 45.953125 
Q 51.46875 38.875 51.46875 26.03125 
Q 51.46875 25.25 51.421875 23.6875 
L 12.75 23.6875 
Q 13.234375 15.140625 17.578125 10.59375 
Q 21.921875 6.0625 28.421875 6.0625 
Q 33.25 6.0625 36.671875 8.59375 
Q 40.09375 11.140625 42.09375 16.703125 
z
M 13.234375 30.90625 
L 42.1875 30.90625 
Q 41.609375 37.453125 38.875 40.71875 
Q 34.671875 45.796875 27.984375 45.796875 
Q 21.921875 45.796875 17.796875 41.75 
Q 13.671875 37.703125 13.234375 30.90625 
z
" id="ArialMT-101"/>
      <path d="M 6.5 0 
L 6.5 51.859375 
L 14.40625 51.859375 
L 14.40625 44 
Q 17.4375 49.515625 20 51.265625 
Q 22.5625 53.03125 25.640625 53.03125 
Q 30.078125 53.03125 34.671875 50.203125 
L 31.640625 42.046875 
Q 28.421875 43.953125 25.203125 43.953125 
Q 22.3125 43.953125 20.015625 42.21875 
Q 17.71875 40.484375 16.75 37.40625 
Q 15.28125 32.71875 15.28125 27.15625 
L 15.28125 0 
z
" id="ArialMT-114"/>
      <path id="ArialMT-32"/>
      <path d="M 6.640625 61.46875 
L 6.640625 71.578125 
L 15.4375 71.578125 
L 15.4375 61.46875 
z
M 6.640625 0 
L 6.640625 51.859375 
L 15.4375 51.859375 
L 15.4375 0 
z
" id="ArialMT-105"/>
      <path d="M 40.234375 0 
L 40.234375 6.546875 
Q 35.296875 -1.171875 25.734375 -1.171875 
Q 19.53125 -1.171875 14.328125 2.25 
Q 9.125 5.671875 6.265625 11.796875 
Q 3.421875 17.921875 3.421875 25.875 
Q 3.421875 33.640625 6 39.96875 
Q 8.59375 46.296875 13.765625 49.65625 
Q 18.953125 53.03125 25.34375 53.03125 
Q 30.03125 53.03125 33.6875 51.046875 
Q 37.359375 49.078125 39.65625 45.90625 
L 39.65625 71.578125 
L 48.390625 71.578125 
L 48.390625 0 
z
M 12.453125 25.875 
Q 12.453125 15.921875 16.640625 10.984375 
Q 20.84375 6.0625 26.5625 6.0625 
Q 32.328125 6.0625 36.34375 10.765625 
Q 40.375 15.484375 40.375 25.140625 
Q 40.375 35.796875 36.265625 40.765625 
Q 32.171875 45.75 26.171875 45.75 
Q 20.3125 45.75 16.375 40.96875 
Q 12.453125 36.1875 12.453125 25.875 
z
" id="ArialMT-100"/>
     </defs>
     <g style="fill:#262626;" transform="translate(317.920181 529.789)scale(0.16 -0.16)">
      <use xlink:href="#ArialMT-67"/>
      <use x="72.216797" xlink:href="#ArialMT-111"/>
      <use x="127.832031" xlink:href="#ArialMT-117"/>
      <use x="183.447266" xlink:href="#ArialMT-110"/>
      <use x="239.0625" xlink:href="#ArialMT-116"/>
      <use x="266.845703" xlink:href="#ArialMT-101"/>
      <use x="322.460938" xlink:href="#ArialMT-114"/>
      <use x="355.761719" xlink:href="#ArialMT-32"/>
      <use x="383.544922" xlink:href="#ArialMT-105"/>
      <use x="405.761719" xlink:href="#ArialMT-100"/>
     </g>
    </g>
   </g>
   <g id="matplotlib.axis_2">
    <g id="ytick_1">
     <g id="text_7">
      <!-- −100 -->
      <defs>
       <path d="M 52.828125 31.203125 
L 5.5625 31.203125 
L 5.5625 39.40625 
L 52.828125 39.40625 
z
" id="ArialMT-8722"/>
      </defs>
      <g style="fill:#262626;" transform="translate(28.8 492.187845)scale(0.16 -0.16)">
       <use xlink:href="#ArialMT-8722"/>
       <use x="58.398438" xlink:href="#ArialMT-49"/>
       <use x="114.013672" xlink:href="#ArialMT-48"/>
       <use x="169.628906" xlink:href="#ArialMT-48"/>
      </g>
     </g>
    </g>
    <g id="ytick_2">
     <g id="text_8">
      <!-- 0 -->
      <g style="fill:#262626;" transform="translate(55.94 434.921599)scale(0.16 -0.16)">
       <use xlink:href="#ArialMT-48"/>
      </g>
     </g>
    </g>
    <g id="ytick_3">
     <g id="text_9">
      <!-- 100 -->
      <g style="fill:#262626;" transform="translate(38.145 377.655353)scale(0.16 -0.16)">
       <use xlink:href="#ArialMT-49"/>
       <use x="55.615234" xlink:href="#ArialMT-48"/>
       <use x="111.230469" xlink:href="#ArialMT-48"/>
      </g>
     </g>
    </g>
    <g id="ytick_4">
     <g id="text_10">
      <!-- 200 -->
      <g style="fill:#262626;" transform="translate(38.145 320.389108)scale(0.16 -0.16)">
       <use xlink:href="#ArialMT-50"/>
       <use x="55.615234" xlink:href="#ArialMT-48"/>
       <use x="111.230469" xlink:href="#ArialMT-48"/>
      </g>
     </g>
    </g>
    <g id="ytick_5">
     <g id="text_11">
      <!-- 300 -->
      <g style="fill:#262626;" transform="translate(38.145 263.122862)scale(0.16 -0.16)">
       <use xlink:href="#ArialMT-51"/>
       <use x="55.615234" xlink:href="#ArialMT-48"/>
       <use x="111.230469" xlink:href="#ArialMT-48"/>
      </g>
     </g>
    </g>
    <g id="ytick_6">
     <g id="text_12">
      <!-- 400 -->
      <g style="fill:#262626;" transform="translate(38.145 205.856616)scale(0.16 -0.16)">
       <use xlink:href="#ArialMT-52"/>
       <use x="55.615234" xlink:href="#ArialMT-48"/>
       <use x="111.230469" xlink:href="#ArialMT-48"/>
      </g>
     </g>
    </g>
    <g id="ytick_7">
     <g id="text_13">
      <!-- 500 -->
      <g style="fill:#262626;" transform="translate(38.145 148.59037)scale(0.16 -0.16)">
       <use xlink:href="#ArialMT-53"/>
       <use x="55.615234" xlink:href="#ArialMT-48"/>
       <use x="111.230469" xlink:href="#ArialMT-48"/>
      </g>
     </g>
    </g>
    <g id="ytick_8">
     <g id="text_14">
      <!-- 600 -->
      <g style="fill:#262626;" transform="translate(38.145 91.324125)scale(0.16 -0.16)">
       <use xlink:href="#ArialMT-54"/>
       <use x="55.615234" xlink:href="#ArialMT-48"/>
       <use x="111.230469" xlink:href="#ArialMT-48"/>
      </g>
     </g>
    </g>
    <g id="ytick_9">
     <g id="text_15">
      <!-- 700 -->
      <g style="fill:#262626;" transform="translate(38.145 34.057879)scale(0.16 -0.16)">
       <use xlink:href="#ArialMT-55"/>
       <use x="55.615234" xlink:href="#ArialMT-48"/>
       <use x="111.230469" xlink:href="#ArialMT-48"/>
      </g>
     </g>
    </g>
    <g id="text_16">
     <!-- Count [$h^{-1}$] -->
     <defs>
      <path d="M 6.78125 -19.875 
L 6.78125 71.578125 
L 26.171875 71.578125 
L 26.171875 64.3125 
L 15.578125 64.3125 
L 15.578125 -12.59375 
L 26.171875 -12.59375 
L 26.171875 -19.875 
z
" id="ArialMT-91"/>
      <path d="M 55.71875 33.015625 
L 49.3125 0 
L 40.28125 0 
L 46.6875 32.671875 
Q 47.125 34.96875 47.359375 36.71875 
Q 47.609375 38.484375 47.609375 39.5 
Q 47.609375 43.609375 45.015625 45.890625 
Q 42.4375 48.1875 37.796875 48.1875 
Q 30.5625 48.1875 25.265625 43.296875 
Q 19.96875 38.421875 18.40625 30.328125 
L 12.5 0 
L 3.515625 0 
L 18.3125 75.984375 
L 27.296875 75.984375 
L 21.484375 46.09375 
Q 24.90625 50.6875 30.21875 53.34375 
Q 35.546875 56 41.40625 56 
Q 48.640625 56 52.609375 52.09375 
Q 56.59375 48.1875 56.59375 41.109375 
Q 56.59375 39.359375 56.375 37.359375 
Q 56.15625 35.359375 55.71875 33.015625 
z
" id="DejaVuSans-Oblique-104"/>
      <path d="M 10.59375 35.5 
L 73.1875 35.5 
L 73.1875 27.203125 
L 10.59375 27.203125 
z
" id="DejaVuSans-8722"/>
      <path d="M 12.40625 8.296875 
L 28.515625 8.296875 
L 28.515625 63.921875 
L 10.984375 60.40625 
L 10.984375 69.390625 
L 28.421875 72.90625 
L 38.28125 72.90625 
L 38.28125 8.296875 
L 54.390625 8.296875 
L 54.390625 0 
L 12.40625 0 
z
" id="DejaVuSans-49"/>
      <path d="M 21.296875 -19.875 
L 1.90625 -19.875 
L 1.90625 -12.59375 
L 12.5 -12.59375 
L 12.5 64.3125 
L 1.90625 64.3125 
L 1.90625 71.578125 
L 21.296875 71.578125 
z
" id="ArialMT-93"/>
     </defs>
     <g style="fill:#262626;" transform="translate(21.6 292.112)rotate(-90)scale(0.16 -0.16)">
      <use transform="translate(0 0.684375)" xlink:href="#ArialMT-67"/>
      <use transform="translate(72.216797 0.684375)" xlink:href="#ArialMT-111"/>
      <use transform="translate(127.832031 0.684375)" xlink:href="#ArialMT-117"/>
      <use transform="translate(183.447266 0.684375)" xlink:href="#ArialMT-110"/>
      <use transform="translate(239.0625 0.684375)" xlink:href="#ArialMT-116"/>
      <use transform="translate(266.845703 0.684375)" xlink:href="#ArialMT-32"/>
      <use transform="translate(294.628906 0.684375)" xlink:href="#ArialMT-91"/>
      <use transform="translate(322.412109 0.684375)" xlink:href="#DejaVuSans-Oblique-104"/>
      <use transform="translate(393.238724 38.965625)scale(0.7)" xlink:href="#DejaVuSans-8722"/>
      <use transform="translate(451.891068 38.965625)scale(0.7)" xlink:href="#DejaVuSans-49"/>
      <use transform="translate(499.161576 0.684375)" xlink:href="#ArialMT-93"/>
     </g>
    </g>
   </g>
   <g id="PolyCollection_1">
    <defs>
     <path d="M 106.871125 -82.154292 
L 104.721518 -82.154292 
L 104.181518 -84.795773 
L 103.443866 -87.437253 
L 102.47253 -90.078733 
L 101.240463 -92.720214 
L 99.736488 -95.361694 
L 97.971848 -98.003174 
L 95.984983 -100.644655 
L 93.8431 -103.286135 
L 91.639447 -105.927615 
L 89.48597 -108.569096 
L 87.501999 -111.210576 
L 85.800553 -113.852056 
L 84.474594 -116.493537 
L 83.58568 -119.135017 
L 83.157107 -121.776497 
L 83.172675 -124.417978 
L 83.581046 -127.059458 
L 84.304564 -129.700938 
L 85.25059 -132.342419 
L 86.323215 -134.983899 
L 87.433455 -137.625379 
L 88.50668 -140.266859 
L 89.486826 -142.90834 
L 90.337587 -145.54982 
L 91.041243 -148.1913 
L 91.595896 -150.832781 
L 92.011855 -153.474261 
L 92.307693 -156.115741 
L 92.506381 -158.757222 
L 92.631767 -161.398702 
L 92.705657 -164.040182 
L 92.745722 -166.681663 
L 92.764408 -169.323143 
L 92.768896 -171.964623 
L 92.761991 -174.606104 
L 92.743654 -177.247584 
L 92.712762 -179.889064 
L 92.668687 -182.530545 
L 92.612378 -185.172025 
L 92.546781 -187.813505 
L 92.476655 -190.454986 
L 92.407926 -193.096466 
L 92.346816 -195.737946 
L 92.298964 -198.379427 
L 92.268662 -201.020907 
L 92.258307 -203.662387 
L 92.268105 -206.303867 
L 92.296085 -208.945348 
L 92.338468 -211.586828 
L 92.39043 -214.228308 
L 92.447239 -216.869789 
L 92.505627 -219.511269 
L 92.565157 -222.152749 
L 92.629249 -224.79423 
L 92.705539 -227.43571 
L 92.805373 -230.07719 
L 92.942395 -232.718671 
L 93.130459 -235.360151 
L 93.381252 -238.001631 
L 93.702135 -240.643112 
L 94.094671 -243.284592 
L 94.554144 -245.926072 
L 95.070168 -248.567553 
L 95.628209 -251.209033 
L 96.211691 -253.850513 
L 96.804239 -256.491994 
L 97.391631 -259.133474 
L 97.96315 -261.774954 
L 98.512181 -264.416435 
L 99.036065 -267.057915 
L 99.535352 -269.699395 
L 100.012675 -272.340875 
L 100.471515 -274.982356 
L 100.915057 -277.623836 
L 101.345334 -280.265316 
L 101.762746 -282.906797 
L 102.165995 -285.548277 
L 102.552393 -288.189757 
L 102.91844 -290.831238 
L 103.260537 -293.472718 
L 103.57568 -296.114198 
L 103.861994 -298.755679 
L 104.119015 -301.397159 
L 104.347684 -304.038639 
L 104.550084 -306.68012 
L 104.729004 -309.3216 
L 104.887455 -311.96308 
L 105.028222 -314.604561 
L 105.15357 -317.246041 
L 105.265118 -319.887521 
L 105.363875 -322.529002 
L 105.450414 -325.170482 
L 105.525091 -327.811962 
L 105.588267 -330.453443 
L 105.640472 -333.094923 
L 105.682488 -335.736403 
L 105.715351 -338.377883 
L 105.740292 -341.019364 
L 105.758638 -343.660844 
L 105.834006 -343.660844 
L 105.834006 -343.660844 
L 105.852351 -341.019364 
L 105.877292 -338.377883 
L 105.910156 -335.736403 
L 105.952171 -333.094923 
L 106.004376 -330.453443 
L 106.067552 -327.811962 
L 106.142229 -325.170482 
L 106.228768 -322.529002 
L 106.327526 -319.887521 
L 106.439073 -317.246041 
L 106.564422 -314.604561 
L 106.705189 -311.96308 
L 106.863639 -309.3216 
L 107.04256 -306.68012 
L 107.244959 -304.038639 
L 107.473629 -301.397159 
L 107.73065 -298.755679 
L 108.016964 -296.114198 
L 108.332106 -293.472718 
L 108.674203 -290.831238 
L 109.04025 -288.189757 
L 109.426649 -285.548277 
L 109.829898 -282.906797 
L 110.24731 -280.265316 
L 110.677586 -277.623836 
L 111.121129 -274.982356 
L 111.579969 -272.340875 
L 112.057292 -269.699395 
L 112.556578 -267.057915 
L 113.080463 -264.416435 
L 113.629494 -261.774954 
L 114.201012 -259.133474 
L 114.788404 -256.491994 
L 115.380953 -253.850513 
L 115.964435 -251.209033 
L 116.522475 -248.567553 
L 117.038499 -245.926072 
L 117.497973 -243.284592 
L 117.890508 -240.643112 
L 118.211391 -238.001631 
L 118.462184 -235.360151 
L 118.650248 -232.718671 
L 118.787271 -230.07719 
L 118.887104 -227.43571 
L 118.963395 -224.79423 
L 119.027486 -222.152749 
L 119.087017 -219.511269 
L 119.145405 -216.869789 
L 119.202213 -214.228308 
L 119.254176 -211.586828 
L 119.296559 -208.945348 
L 119.324539 -206.303867 
L 119.334337 -203.662387 
L 119.323981 -201.020907 
L 119.29368 -198.379427 
L 119.245828 -195.737946 
L 119.184718 -193.096466 
L 119.115988 -190.454986 
L 119.045862 -187.813505 
L 118.980266 -185.172025 
L 118.923956 -182.530545 
L 118.879882 -179.889064 
L 118.848989 -177.247584 
L 118.830652 -174.606104 
L 118.823748 -171.964623 
L 118.828236 -169.323143 
L 118.846922 -166.681663 
L 118.886986 -164.040182 
L 118.960876 -161.398702 
L 119.086262 -158.757222 
L 119.284951 -156.115741 
L 119.580789 -153.474261 
L 119.996747 -150.832781 
L 120.551401 -148.1913 
L 121.255056 -145.54982 
L 122.105818 -142.90834 
L 123.085964 -140.266859 
L 124.159189 -137.625379 
L 125.269428 -134.983899 
L 126.342054 -132.342419 
L 127.288079 -129.700938 
L 128.011597 -127.059458 
L 128.419969 -124.417978 
L 128.435536 -121.776497 
L 128.006964 -119.135017 
L 127.11805 -116.493537 
L 125.79209 -113.852056 
L 124.090644 -111.210576 
L 122.106673 -108.569096 
L 119.953197 -105.927615 
L 117.749543 -103.286135 
L 115.60766 -100.644655 
L 113.620796 -98.003174 
L 111.856156 -95.361694 
L 110.352181 -92.720214 
L 109.120114 -90.078733 
L 108.148777 -87.437253 
L 107.411126 -84.795773 
L 106.871125 -82.154292 
z
" id="m79fc887baa" style="stroke:#373737;stroke-width:1.5;"/>
    </defs>
    <g clip-path="url(#pfae50cd225)">
     <use style="fill:#2b8e70;stroke:#373737;stroke-width:1.5;" x="0" xlink:href="#m79fc887baa" y="540.169"/>
    </g>
   </g>
   <g id="PolyCollection_2">
    <defs>
     <path d="M 151.914747 -69.533364 
L 150.234754 -69.533364 
L 149.740687 -73.991619 
L 149.047206 -78.449874 
L 148.125015 -82.908129 
L 146.965502 -87.366385 
L 145.59088 -91.82464 
L 144.060581 -96.282895 
L 142.470743 -100.741151 
L 140.944905 -105.199406 
L 139.616447 -109.657661 
L 138.605995 -114.115916 
L 137.999132 -118.574172 
L 137.830216 -123.032427 
L 138.076716 -127.490682 
L 138.665534 -131.948938 
L 139.489364 -136.407193 
L 140.428491 -140.865448 
L 141.372335 -145.323703 
L 142.235767 -149.781959 
L 142.967283 -154.240214 
L 143.548699 -158.698469 
L 143.988195 -163.156725 
L 144.309846 -167.61498 
L 144.542883 -172.073235 
L 144.713212 -176.53149 
L 144.838462 -180.989746 
L 144.926582 -185.448001 
L 144.97707 -189.906256 
L 144.983576 -194.364511 
L 144.936688 -198.822767 
L 144.826202 -203.281022 
L 144.642694 -207.739277 
L 144.378633 -212.197533 
L 144.029399 -216.655788 
L 143.594495 -221.114043 
L 143.078928 -225.572298 
L 142.494472 -230.030554 
L 141.860345 -234.488809 
L 141.202876 -238.947064 
L 140.553986 -243.40532 
L 139.948622 -247.863575 
L 139.421576 -252.32183 
L 139.004263 -256.780085 
L 138.721974 -261.238341 
L 138.591899 -265.696596 
L 138.622031 -270.154851 
L 138.810873 -274.613107 
L 139.147857 -279.071362 
L 139.614406 -283.529617 
L 140.185612 -287.987872 
L 140.832435 -292.446128 
L 141.524249 -296.904383 
L 142.231397 -301.362638 
L 142.927402 -305.820893 
L 143.590525 -310.279149 
L 144.204556 -314.737404 
L 144.758925 -319.195659 
L 145.248332 -323.653915 
L 145.672116 -328.11217 
L 146.033492 -332.570425 
L 146.33869 -337.02868 
L 146.595945 -341.486936 
L 146.814387 -345.945191 
L 147.002938 -350.403446 
L 147.169417 -354.861702 
L 147.32005 -359.319957 
L 147.459452 -363.778212 
L 147.590992 -368.236467 
L 147.71732 -372.694723 
L 147.840801 -377.152978 
L 147.963696 -381.611233 
L 148.088061 -386.069489 
L 148.215471 -390.527744 
L 148.346738 -394.985999 
L 148.481751 -399.444254 
L 148.619502 -403.90251 
L 148.758296 -408.360765 
L 148.896071 -412.81902 
L 149.030802 -417.277275 
L 149.160905 -421.735531 
L 149.285612 -426.193786 
L 149.405211 -430.652041 
L 149.521091 -435.110297 
L 149.635509 -439.568552 
L 149.751087 -444.026807 
L 149.870127 -448.485062 
L 149.993925 -452.943318 
L 150.12226 -457.401573 
L 150.253241 -461.859828 
L 150.383545 -466.318084 
L 150.509004 -470.776339 
L 150.62536 -475.234594 
L 150.729006 -479.692849 
L 150.817525 -484.151105 
L 150.889942 -488.60936 
L 150.946663 -493.067615 
L 150.989189 -497.525871 
L 151.019707 -501.984126 
L 151.040669 -506.442381 
L 151.054452 -510.900636 
L 151.09505 -510.900636 
L 151.09505 -510.900636 
L 151.108832 -506.442381 
L 151.129795 -501.984126 
L 151.160312 -497.525871 
L 151.202838 -493.067615 
L 151.259559 -488.60936 
L 151.331976 -484.151105 
L 151.420496 -479.692849 
L 151.524141 -475.234594 
L 151.640497 -470.776339 
L 151.765956 -466.318084 
L 151.896261 -461.859828 
L 152.027242 -457.401573 
L 152.155577 -452.943318 
L 152.279374 -448.485062 
L 152.398415 -444.026807 
L 152.513992 -439.568552 
L 152.628411 -435.110297 
L 152.744291 -430.652041 
L 152.86389 -426.193786 
L 152.988596 -421.735531 
L 153.1187 -417.277275 
L 153.25343 -412.81902 
L 153.391206 -408.360765 
L 153.529999 -403.90251 
L 153.667751 -399.444254 
L 153.802763 -394.985999 
L 153.934031 -390.527744 
L 154.061441 -386.069489 
L 154.185806 -381.611233 
L 154.308701 -377.152978 
L 154.432182 -372.694723 
L 154.558509 -368.236467 
L 154.690049 -363.778212 
L 154.829451 -359.319957 
L 154.980085 -354.861702 
L 155.146564 -350.403446 
L 155.335114 -345.945191 
L 155.553557 -341.486936 
L 155.810811 -337.02868 
L 156.116009 -332.570425 
L 156.477386 -328.11217 
L 156.901169 -323.653915 
L 157.390576 -319.195659 
L 157.944946 -314.737404 
L 158.558977 -310.279149 
L 159.222099 -305.820893 
L 159.918104 -301.362638 
L 160.625253 -296.904383 
L 161.317066 -292.446128 
L 161.963889 -287.987872 
L 162.535095 -283.529617 
L 163.001645 -279.071362 
L 163.338628 -274.613107 
L 163.52747 -270.154851 
L 163.557602 -265.696596 
L 163.427527 -261.238341 
L 163.145238 -256.780085 
L 162.727926 -252.32183 
L 162.200879 -247.863575 
L 161.595516 -243.40532 
L 160.946626 -238.947064 
L 160.289157 -234.488809 
L 159.655029 -230.030554 
L 159.070574 -225.572298 
L 158.555007 -221.114043 
L 158.120103 -216.655788 
L 157.770869 -212.197533 
L 157.506808 -207.739277 
L 157.3233 -203.281022 
L 157.212814 -198.822767 
L 157.165926 -194.364511 
L 157.172432 -189.906256 
L 157.22292 -185.448001 
L 157.311039 -180.989746 
L 157.43629 -176.53149 
L 157.606619 -172.073235 
L 157.839655 -167.61498 
L 158.161307 -163.156725 
L 158.600803 -158.698469 
L 159.182218 -154.240214 
L 159.913735 -149.781959 
L 160.777166 -145.323703 
L 161.721011 -140.865448 
L 162.660138 -136.407193 
L 163.483967 -131.948938 
L 164.072785 -127.490682 
L 164.319286 -123.032427 
L 164.150369 -118.574172 
L 163.543506 -114.115916 
L 162.533055 -109.657661 
L 161.204597 -105.199406 
L 159.678759 -100.741151 
L 158.08892 -96.282895 
L 156.558622 -91.82464 
L 155.183999 -87.366385 
L 154.024486 -82.908129 
L 153.102296 -78.449874 
L 152.408815 -73.991619 
L 151.914747 -69.533364 
z
" id="mf13f7d7a66" style="stroke:#373737;stroke-width:1.5;"/>
    </defs>
    <g clip-path="url(#pfae50cd225)">
     <use style="fill:#be631d;stroke:#373737;stroke-width:1.5;" x="0" xlink:href="#mf13f7d7a66" y="540.169"/>
    </g>
   </g>
   <g id="PolyCollection_3">
    <defs>
     <path d="M 219.966952 -96.123737 
L 218.017837 -96.123737 
L 217.38937 -97.806223 
L 216.474451 -99.48871 
L 215.213278 -101.171196 
L 213.568909 -102.853682 
L 211.543974 -104.536169 
L 209.193933 -106.218655 
L 206.631808 -107.901142 
L 204.020712 -109.583628 
L 201.553579 -111.266115 
L 199.423493 -112.948601 
L 197.791317 -114.631087 
L 196.758693 -116.313574 
L 196.35318 -117.99606 
L 196.528791 -119.678547 
L 197.180839 -121.361033 
L 198.170296 -123.043519 
L 199.351025 -124.726006 
L 200.593486 -126.408492 
L 201.800485 -128.090979 
L 202.913236 -129.773465 
L 203.908593 -131.455952 
L 204.790163 -133.138438 
L 205.576773 -134.820924 
L 206.291537 -136.503411 
L 206.953792 -138.185897 
L 207.574848 -139.868384 
L 208.157264 -141.55087 
L 208.696562 -143.233356 
L 209.184078 -144.915843 
L 209.609907 -146.598329 
L 209.965397 -148.280816 
L 210.245076 -149.963302 
L 210.448067 -151.645789 
L 210.578977 -153.328275 
L 210.648056 -155.010761 
L 210.670332 -156.693248 
L 210.663618 -158.375734 
L 210.645642 -160.058221 
L 210.630996 -161.740707 
L 210.628856 -163.423194 
L 210.642264 -165.10568 
L 210.669245 -166.788166 
L 210.70539 -168.470653 
L 210.746933 -170.153139 
L 210.793263 -171.835626 
L 210.848063 -173.518112 
L 210.918852 -175.200598 
L 211.015282 -176.883085 
L 211.146896 -178.565571 
L 211.321028 -180.248058 
L 211.541359 -181.930544 
L 211.807282 -183.613031 
L 212.114055 -185.295517 
L 212.453592 -186.978003 
L 212.8157 -188.66049 
L 213.189559 -190.342976 
L 213.565185 -192.025463 
L 213.934577 -193.707949 
L 214.292326 -195.390436 
L 214.635567 -197.072922 
L 214.963425 -198.755408 
L 215.276202 -200.437895 
L 215.574624 -202.120381 
L 215.859327 -203.802868 
L 216.130615 -205.485354 
L 216.388367 -207.16784 
L 216.631998 -208.850327 
L 216.860435 -210.532813 
L 217.072191 -212.2153 
L 217.265633 -213.897786 
L 217.439452 -215.580273 
L 217.59319 -217.262759 
L 217.727619 -218.945245 
L 217.844774 -220.627732 
L 217.947592 -222.310218 
L 218.039282 -223.992705 
L 218.122674 -225.675191 
L 218.199753 -227.357677 
L 218.27154 -229.040164 
L 218.338269 -230.72265 
L 218.399762 -232.405137 
L 218.455839 -234.087623 
L 218.506618 -235.77011 
L 218.552657 -237.452596 
L 218.594902 -239.135082 
L 218.634514 -240.817569 
L 218.672612 -242.500055 
L 218.710027 -244.182542 
L 218.747127 -245.865028 
L 218.783753 -247.547515 
L 218.819289 -249.230001 
L 218.852825 -250.912487 
L 218.883381 -252.594974 
L 218.910131 -254.27746 
L 218.932555 -255.959947 
L 218.950516 -257.642433 
L 218.964245 -259.324919 
L 218.974246 -261.007406 
L 218.981186 -262.689892 
L 219.003603 -262.689892 
L 219.003603 -262.689892 
L 219.010543 -261.007406 
L 219.020544 -259.324919 
L 219.034272 -257.642433 
L 219.052234 -255.959947 
L 219.074658 -254.27746 
L 219.101407 -252.594974 
L 219.131964 -250.912487 
L 219.165499 -249.230001 
L 219.201035 -247.547515 
L 219.237662 -245.865028 
L 219.274762 -244.182542 
L 219.312177 -242.500055 
L 219.350275 -240.817569 
L 219.389887 -239.135082 
L 219.432132 -237.452596 
L 219.47817 -235.77011 
L 219.52895 -234.087623 
L 219.585026 -232.405137 
L 219.64652 -230.72265 
L 219.713249 -229.040164 
L 219.785036 -227.357677 
L 219.862115 -225.675191 
L 219.945506 -223.992705 
L 220.037197 -222.310218 
L 220.140015 -220.627732 
L 220.25717 -218.945245 
L 220.391599 -217.262759 
L 220.545337 -215.580273 
L 220.719156 -213.897786 
L 220.912598 -212.2153 
L 221.124354 -210.532813 
L 221.35279 -208.850327 
L 221.596422 -207.16784 
L 221.854174 -205.485354 
L 222.125462 -203.802868 
L 222.410165 -202.120381 
L 222.708587 -200.437895 
L 223.021364 -198.755408 
L 223.349222 -197.072922 
L 223.692463 -195.390436 
L 224.050211 -193.707949 
L 224.419604 -192.025463 
L 224.795229 -190.342976 
L 225.169088 -188.66049 
L 225.531197 -186.978003 
L 225.870734 -185.295517 
L 226.177507 -183.613031 
L 226.443429 -181.930544 
L 226.66376 -180.248058 
L 226.837893 -178.565571 
L 226.969506 -176.883085 
L 227.065937 -175.200598 
L 227.136726 -173.518112 
L 227.191526 -171.835626 
L 227.237856 -170.153139 
L 227.279399 -168.470653 
L 227.315543 -166.788166 
L 227.342525 -165.10568 
L 227.355932 -163.423194 
L 227.353793 -161.740707 
L 227.339146 -160.058221 
L 227.32117 -158.375734 
L 227.314457 -156.693248 
L 227.336733 -155.010761 
L 227.405811 -153.328275 
L 227.536722 -151.645789 
L 227.739713 -149.963302 
L 228.019392 -148.280816 
L 228.374882 -146.598329 
L 228.800711 -144.915843 
L 229.288227 -143.233356 
L 229.827525 -141.55087 
L 230.40994 -139.868384 
L 231.030997 -138.185897 
L 231.693252 -136.503411 
L 232.408016 -134.820924 
L 233.194626 -133.138438 
L 234.076196 -131.455952 
L 235.071552 -129.773465 
L 236.184303 -128.090979 
L 237.391303 -126.408492 
L 238.633764 -124.726006 
L 239.814493 -123.043519 
L 240.80395 -121.361033 
L 241.455998 -119.678547 
L 241.631609 -117.99606 
L 241.226096 -116.313574 
L 240.193472 -114.631087 
L 238.561296 -112.948601 
L 236.43121 -111.266115 
L 233.964077 -109.583628 
L 231.35298 -107.901142 
L 228.790856 -106.218655 
L 226.440815 -104.536169 
L 224.41588 -102.853682 
L 222.77151 -101.171196 
L 221.510338 -99.48871 
L 220.595419 -97.806223 
L 219.966952 -96.123737 
z
" id="m5ebdb5a311" style="stroke:#373737;stroke-width:1.5;"/>
    </defs>
    <g clip-path="url(#pfae50cd225)">
     <use style="fill:#2b8e70;stroke:#373737;stroke-width:1.5;" x="0" xlink:href="#m5ebdb5a311" y="540.169"/>
    </g>
   </g>
   <g id="PolyCollection_4">
    <defs>
     <path d="M 264.884725 -82.224037 
L 263.656922 -82.224037 
L 263.273421 -85.506185 
L 262.728018 -88.788332 
L 261.997794 -92.07048 
L 261.079459 -95.352627 
L 259.998145 -98.634774 
L 258.811759 -101.916922 
L 257.608 -105.199069 
L 256.492939 -108.481217 
L 255.572849 -111.763364 
L 254.933642 -115.045512 
L 254.623619 -118.327659 
L 254.64456 -121.609806 
L 254.953568 -124.891954 
L 255.474651 -128.174101 
L 256.11613 -131.456249 
L 256.788689 -134.738396 
L 257.419515 -138.020543 
L 257.959972 -141.302691 
L 258.386584 -144.584838 
L 258.696971 -147.866986 
L 258.903188 -151.149133 
L 259.024847 -154.431281 
L 259.08362 -157.713428 
L 259.099803 -160.995575 
L 259.090823 -164.277723 
L 259.071052 -167.55987 
L 259.052159 -170.842018 
L 259.043396 -174.124165 
L 259.051505 -177.406313 
L 259.080287 -180.68846 
L 259.130125 -183.970607 
L 259.197815 -187.252755 
L 259.276973 -190.534902 
L 259.359065 -193.81705 
L 259.434901 -197.099197 
L 259.496297 -200.381344 
L 259.537539 -203.663492 
L 259.556355 -206.945639 
L 259.554219 -210.227787 
L 259.53595 -213.509934 
L 259.508757 -216.792082 
L 259.480965 -220.074229 
L 259.460744 -223.356376 
L 259.455118 -226.638524 
L 259.469394 -229.920671 
L 259.50701 -233.202819 
L 259.569678 -236.484966 
L 259.657635 -239.767114 
L 259.769887 -243.049261 
L 259.904412 -246.331408 
L 260.058387 -249.613556 
L 260.228489 -252.895703 
L 260.411283 -256.177851 
L 260.603613 -259.459998 
L 260.802857 -262.742145 
L 261.00692 -266.024293 
L 261.213957 -269.30644 
L 261.421904 -272.588588 
L 261.628041 -275.870735 
L 261.82877 -279.152883 
L 262.019751 -282.43503 
L 262.196391 -285.717177 
L 262.354535 -288.999325 
L 262.49116 -292.281472 
L 262.604851 -295.56362 
L 262.695953 -298.845767 
L 262.766358 -302.127915 
L 262.819013 -305.410062 
L 262.857307 -308.692209 
L 262.884488 -311.974357 
L 262.90327 -315.256504 
L 262.915697 -318.538652 
L 262.923262 -321.820799 
L 262.92719 -325.102946 
L 262.928748 -328.385094 
L 262.929476 -331.667241 
L 262.931255 -334.949389 
L 262.936218 -338.231536 
L 262.946589 -341.513684 
L 262.964489 -344.795831 
L 262.991789 -348.077978 
L 263.030011 -351.360126 
L 263.080255 -354.642273 
L 263.143115 -357.924421 
L 263.218564 -361.206568 
L 263.30581 -364.488716 
L 263.403161 -367.770863 
L 263.507969 -371.05301 
L 263.616721 -374.335158 
L 263.7253 -377.617305 
L 263.829422 -380.899453 
L 263.925156 -384.1816 
L 264.009413 -387.463747 
L 264.080298 -390.745895 
L 264.137238 -394.028042 
L 264.180862 -397.31019 
L 264.212717 -400.592337 
L 264.234871 -403.874485 
L 264.249536 -407.156632 
L 264.29211 -407.156632 
L 264.29211 -407.156632 
L 264.306776 -403.874485 
L 264.32893 -400.592337 
L 264.360784 -397.31019 
L 264.404409 -394.028042 
L 264.461348 -390.745895 
L 264.532234 -387.463747 
L 264.616491 -384.1816 
L 264.712225 -380.899453 
L 264.816347 -377.617305 
L 264.924926 -374.335158 
L 265.033677 -371.05301 
L 265.138486 -367.770863 
L 265.235836 -364.488716 
L 265.323082 -361.206568 
L 265.398532 -357.924421 
L 265.461392 -354.642273 
L 265.511636 -351.360126 
L 265.549858 -348.077978 
L 265.577158 -344.795831 
L 265.595057 -341.513684 
L 265.605428 -338.231536 
L 265.610392 -334.949389 
L 265.61217 -331.667241 
L 265.612899 -328.385094 
L 265.614457 -325.102946 
L 265.618384 -321.820799 
L 265.62595 -318.538652 
L 265.638377 -315.256504 
L 265.657159 -311.974357 
L 265.68434 -308.692209 
L 265.722633 -305.410062 
L 265.775289 -302.127915 
L 265.845693 -298.845767 
L 265.936796 -295.56362 
L 266.050487 -292.281472 
L 266.187111 -288.999325 
L 266.345256 -285.717177 
L 266.521896 -282.43503 
L 266.712877 -279.152883 
L 266.913605 -275.870735 
L 267.119743 -272.588588 
L 267.32769 -269.30644 
L 267.534726 -266.024293 
L 267.73879 -262.742145 
L 267.938034 -259.459998 
L 268.130364 -256.177851 
L 268.313158 -252.895703 
L 268.48326 -249.613556 
L 268.637235 -246.331408 
L 268.77176 -243.049261 
L 268.884011 -239.767114 
L 268.971969 -236.484966 
L 269.034637 -233.202819 
L 269.072253 -229.920671 
L 269.086528 -226.638524 
L 269.080903 -223.356376 
L 269.060682 -220.074229 
L 269.032889 -216.792082 
L 269.005697 -213.509934 
L 268.987428 -210.227787 
L 268.985291 -206.945639 
L 269.004108 -203.663492 
L 269.045349 -200.381344 
L 269.106745 -197.099197 
L 269.182582 -193.81705 
L 269.264673 -190.534902 
L 269.343832 -187.252755 
L 269.411522 -183.970607 
L 269.46136 -180.68846 
L 269.490142 -177.406313 
L 269.498251 -174.124165 
L 269.489488 -170.842018 
L 269.470595 -167.55987 
L 269.450823 -164.277723 
L 269.441844 -160.995575 
L 269.458027 -157.713428 
L 269.5168 -154.431281 
L 269.638459 -151.149133 
L 269.844676 -147.866986 
L 270.155062 -144.584838 
L 270.581675 -141.302691 
L 271.122131 -138.020543 
L 271.752958 -134.738396 
L 272.425517 -131.456249 
L 273.066996 -128.174101 
L 273.588079 -124.891954 
L 273.897087 -121.609806 
L 273.918028 -118.327659 
L 273.608005 -115.045512 
L 272.968797 -111.763364 
L 272.048707 -108.481217 
L 270.933646 -105.199069 
L 269.729887 -101.916922 
L 268.543501 -98.634774 
L 267.462187 -95.352627 
L 266.543853 -92.07048 
L 265.813629 -88.788332 
L 265.268226 -85.506185 
L 264.884725 -82.224037 
z
" id="m61b55de5ef" style="stroke:#373737;stroke-width:1.5;"/>
    </defs>
    <g clip-path="url(#pfae50cd225)">
     <use style="fill:#be631d;stroke:#373737;stroke-width:1.5;" x="0" xlink:href="#m61b55de5ef" y="540.169"/>
    </g>
   </g>
   <g id="PolyCollection_5">
    <defs>
     <path d="M 334.779575 -110.331566 
L 329.597358 -110.331566 
L 328.121553 -110.408167 
L 326.151864 -110.484767 
L 323.710053 -110.561368 
L 320.911242 -110.637968 
L 317.964833 -110.714569 
L 315.144937 -110.791169 
L 312.733139 -110.86777 
L 310.949847 -110.944371 
L 309.899078 -111.020971 
L 309.549252 -111.097572 
L 309.758565 -111.174172 
L 310.333848 -111.250773 
L 311.0968 -111.327373 
L 311.929444 -111.403974 
L 312.783141 -111.480575 
L 313.655065 -111.557175 
L 314.551811 -111.633776 
L 315.463011 -111.710376 
L 316.357888 -111.786977 
L 317.201733 -111.863577 
L 317.977432 -111.940178 
L 318.695981 -112.016779 
L 319.388969 -112.093379 
L 320.088333 -112.16998 
L 320.806452 -112.24658 
L 321.528312 -112.323181 
L 322.219065 -112.399781 
L 322.840796 -112.476382 
L 323.367785 -112.552983 
L 323.792248 -112.629583 
L 324.119846 -112.706184 
L 324.360862 -112.782784 
L 324.524678 -112.859385 
L 324.621385 -112.935985 
L 324.66825 -113.012586 
L 324.694596 -113.089187 
L 324.739472 -113.165787 
L 324.841354 -113.242388 
L 325.024795 -113.318988 
L 325.291504 -113.395589 
L 325.6211 -113.47219 
L 325.981276 -113.54879 
L 326.341815 -113.625391 
L 326.685145 -113.701991 
L 327.008641 -113.778592 
L 327.319033 -113.855192 
L 327.623566 -113.931793 
L 327.923688 -114.008394 
L 328.21458 -114.084994 
L 328.489739 -114.161595 
L 328.746805 -114.238195 
L 328.990478 -114.314796 
L 329.230697 -114.391396 
L 329.477357 -114.467997 
L 329.734876 -114.544598 
L 329.999681 -114.621198 
L 330.261751 -114.697799 
L 330.508953 -114.774399 
L 330.731645 -114.851 
L 330.925323 -114.9276 
L 331.090518 -115.004201 
L 331.230738 -115.080802 
L 331.35 -115.157402 
L 331.45127 -115.234003 
L 331.536227 -115.310603 
L 331.605911 -115.387204 
L 331.661486 -115.463804 
L 331.704565 -115.540405 
L 331.737051 -115.617006 
L 331.760826 -115.693606 
L 331.77766 -115.770207 
L 331.789412 -115.846807 
L 331.79833 -115.923408 
L 331.807104 -116.000008 
L 331.818487 -116.076609 
L 331.834591 -116.15321 
L 331.856204 -116.22981 
L 331.882485 -116.306411 
L 331.91122 -116.383011 
L 331.939494 -116.459612 
L 331.964484 -116.536212 
L 331.984061 -116.612813 
L 331.997046 -116.689414 
L 332.003198 -116.766014 
L 332.003102 -116.842615 
L 331.998093 -116.919215 
L 331.990226 -116.995816 
L 331.982171 -117.072417 
L 331.976904 -117.149017 
L 331.977161 -117.225618 
L 331.984803 -117.302218 
L 332.000311 -117.378819 
L 332.022637 -117.455419 
L 332.049497 -117.53202 
L 332.077974 -117.608621 
L 332.10524 -117.685221 
L 332.129135 -117.761822 
L 332.148462 -117.838422 
L 332.162965 -117.915023 
L 332.213969 -117.915023 
L 332.213969 -117.915023 
L 332.228472 -117.838422 
L 332.247799 -117.761822 
L 332.271694 -117.685221 
L 332.29896 -117.608621 
L 332.327437 -117.53202 
L 332.354296 -117.455419 
L 332.376623 -117.378819 
L 332.39213 -117.302218 
L 332.399773 -117.225618 
L 332.40003 -117.149017 
L 332.394763 -117.072417 
L 332.386708 -116.995816 
L 332.378841 -116.919215 
L 332.373831 -116.842615 
L 332.373736 -116.766014 
L 332.379888 -116.689414 
L 332.392873 -116.612813 
L 332.41245 -116.536212 
L 332.43744 -116.459612 
L 332.465713 -116.383011 
L 332.494448 -116.306411 
L 332.52073 -116.22981 
L 332.542343 -116.15321 
L 332.558447 -116.076609 
L 332.56983 -116.000008 
L 332.578604 -115.923408 
L 332.587522 -115.846807 
L 332.599274 -115.770207 
L 332.616108 -115.693606 
L 332.639883 -115.617006 
L 332.672368 -115.540405 
L 332.715448 -115.463804 
L 332.771023 -115.387204 
L 332.840707 -115.310603 
L 332.925664 -115.234003 
L 333.026934 -115.157402 
L 333.146196 -115.080802 
L 333.286416 -115.004201 
L 333.451611 -114.9276 
L 333.645289 -114.851 
L 333.867981 -114.774399 
L 334.115182 -114.697799 
L 334.377253 -114.621198 
L 334.642058 -114.544598 
L 334.899576 -114.467997 
L 335.146237 -114.391396 
L 335.386456 -114.314796 
L 335.630129 -114.238195 
L 335.887194 -114.161595 
L 336.162354 -114.084994 
L 336.453246 -114.008394 
L 336.753368 -113.931793 
L 337.057901 -113.855192 
L 337.368293 -113.778592 
L 337.691789 -113.701991 
L 338.035119 -113.625391 
L 338.395658 -113.54879 
L 338.755834 -113.47219 
L 339.08543 -113.395589 
L 339.352139 -113.318988 
L 339.53558 -113.242388 
L 339.637462 -113.165787 
L 339.682338 -113.089187 
L 339.708684 -113.012586 
L 339.755549 -112.935985 
L 339.852256 -112.859385 
L 340.016071 -112.782784 
L 340.257088 -112.706184 
L 340.584686 -112.629583 
L 341.009149 -112.552983 
L 341.536138 -112.476382 
L 342.157869 -112.399781 
L 342.848622 -112.323181 
L 343.570481 -112.24658 
L 344.288601 -112.16998 
L 344.987965 -112.093379 
L 345.680953 -112.016779 
L 346.399502 -111.940178 
L 347.1752 -111.863577 
L 348.019046 -111.786977 
L 348.913923 -111.710376 
L 349.825123 -111.633776 
L 350.721869 -111.557175 
L 351.593792 -111.480575 
L 352.44749 -111.403974 
L 353.280134 -111.327373 
L 354.043085 -111.250773 
L 354.618369 -111.174172 
L 354.827681 -111.097572 
L 354.477856 -111.020971 
L 353.427087 -110.944371 
L 351.643795 -110.86777 
L 349.231997 -110.791169 
L 346.412101 -110.714569 
L 343.465692 -110.637968 
L 340.666881 -110.561368 
L 338.22507 -110.484767 
L 336.255381 -110.408167 
L 334.779575 -110.331566 
z
" id="m6e63b6bd1a" style="stroke:#373737;stroke-width:1.5;"/>
    </defs>
    <g clip-path="url(#pfae50cd225)">
     <use style="fill:#2b8e70;stroke:#373737;stroke-width:1.5;" x="0" xlink:href="#m6e63b6bd1a" y="540.169"/>
    </g>
   </g>
   <g id="PolyCollection_6">
    <defs>
     <path d="M 379.132439 -110.255996 
L 375.801353 -110.255996 
L 374.944653 -110.334123 
L 373.819283 -110.41225 
L 372.426599 -110.490377 
L 370.807188 -110.568505 
L 369.044096 -110.646632 
L 367.255715 -110.724759 
L 365.577934 -110.802886 
L 364.139093 -110.881014 
L 363.034616 -110.959141 
L 362.30918 -111.037268 
L 361.952077 -111.115395 
L 361.906697 -111.193523 
L 362.089864 -111.27165 
L 362.413571 -111.349777 
L 362.801891 -111.427904 
L 363.199187 -111.506032 
L 363.570262 -111.584159 
L 363.896226 -111.662286 
L 364.170275 -111.740413 
L 364.395461 -111.818541 
L 364.583803 -111.896668 
L 364.754529 -111.974795 
L 364.929937 -112.052922 
L 365.129451 -112.13105 
L 365.364387 -112.209177 
L 365.636146 -112.287304 
L 365.938841 -112.365431 
L 366.2648 -112.443559 
L 366.609721 -112.521686 
L 366.974545 -112.599813 
L 367.363203 -112.67794 
L 367.777862 -112.756068 
L 368.21473 -112.834195 
L 368.662887 -112.912322 
L 369.106713 -112.990449 
L 369.530329 -113.068577 
L 369.921611 -113.146704 
L 370.273941 -113.224831 
L 370.585508 -113.302958 
L 370.857392 -113.381086 
L 371.09204 -113.459213 
L 371.29296 -113.53734 
L 371.46528 -113.615467 
L 371.616046 -113.693595 
L 371.753406 -113.771722 
L 371.884725 -113.849849 
L 372.014644 -113.927976 
L 372.144266 -114.006104 
L 372.27202 -114.084231 
L 372.395686 -114.162358 
L 372.514355 -114.240485 
L 372.62918 -114.318613 
L 372.742637 -114.39674 
L 372.85699 -114.474867 
L 372.973124 -114.552994 
L 373.090573 -114.631122 
L 373.208681 -114.709249 
L 373.328031 -114.787376 
L 373.451052 -114.865503 
L 373.581308 -114.943631 
L 373.721799 -115.021758 
L 373.873297 -115.099885 
L 374.03371 -115.178012 
L 374.198816 -115.25614 
L 374.363924 -115.334267 
L 374.525475 -115.412394 
L 374.681764 -115.490521 
L 374.832562 -115.568649 
L 374.978065 -115.646776 
L 375.117945 -115.724903 
L 375.251067 -115.80303 
L 375.375925 -115.881158 
L 375.491401 -115.959285 
L 375.597277 -116.037412 
L 375.694221 -116.115539 
L 375.783328 -116.193667 
L 375.865598 -116.271794 
L 375.941718 -116.349921 
L 376.012244 -116.428048 
L 376.07798 -116.506176 
L 376.140225 -116.584303 
L 376.200663 -116.66243 
L 376.260968 -116.740557 
L 376.322375 -116.818685 
L 376.385523 -116.896812 
L 376.450666 -116.974939 
L 376.518103 -117.053066 
L 376.588512 -117.131194 
L 376.662928 -117.209321 
L 376.742305 -117.287448 
L 376.826858 -117.365575 
L 376.915513 -117.443703 
L 377.005764 -117.52183 
L 377.094026 -117.599957 
L 377.17637 -117.678084 
L 377.249352 -117.756212 
L 377.310671 -117.834339 
L 377.359466 -117.912466 
L 377.396235 -117.990593 
L 377.537556 -117.990593 
L 377.537556 -117.990593 
L 377.574326 -117.912466 
L 377.623121 -117.834339 
L 377.68444 -117.756212 
L 377.757422 -117.678084 
L 377.839766 -117.599957 
L 377.928028 -117.52183 
L 378.018279 -117.443703 
L 378.106933 -117.365575 
L 378.191486 -117.287448 
L 378.270864 -117.209321 
L 378.34528 -117.131194 
L 378.415689 -117.053066 
L 378.483126 -116.974939 
L 378.548269 -116.896812 
L 378.611417 -116.818685 
L 378.672824 -116.740557 
L 378.733129 -116.66243 
L 378.793567 -116.584303 
L 378.855812 -116.506176 
L 378.921548 -116.428048 
L 378.992074 -116.349921 
L 379.068194 -116.271794 
L 379.150464 -116.193667 
L 379.239571 -116.115539 
L 379.336515 -116.037412 
L 379.442391 -115.959285 
L 379.557867 -115.881158 
L 379.682725 -115.80303 
L 379.815847 -115.724903 
L 379.955727 -115.646776 
L 380.10123 -115.568649 
L 380.252028 -115.490521 
L 380.408317 -115.412394 
L 380.569868 -115.334267 
L 380.734976 -115.25614 
L 380.900082 -115.178012 
L 381.060494 -115.099885 
L 381.211993 -115.021758 
L 381.352484 -114.943631 
L 381.48274 -114.865503 
L 381.605761 -114.787376 
L 381.72511 -114.709249 
L 381.843219 -114.631122 
L 381.960668 -114.552994 
L 382.076802 -114.474867 
L 382.191155 -114.39674 
L 382.304612 -114.318613 
L 382.419436 -114.240485 
L 382.538106 -114.162358 
L 382.661772 -114.084231 
L 382.789526 -114.006104 
L 382.919148 -113.927976 
L 383.049067 -113.849849 
L 383.180386 -113.771722 
L 383.317746 -113.693595 
L 383.468512 -113.615467 
L 383.640832 -113.53734 
L 383.841752 -113.459213 
L 384.076399 -113.381086 
L 384.348284 -113.302958 
L 384.659851 -113.224831 
L 385.012181 -113.146704 
L 385.403463 -113.068577 
L 385.827079 -112.990449 
L 386.270905 -112.912322 
L 386.719062 -112.834195 
L 387.15593 -112.756068 
L 387.570589 -112.67794 
L 387.959247 -112.599813 
L 388.324071 -112.521686 
L 388.668991 -112.443559 
L 388.99495 -112.365431 
L 389.297646 -112.287304 
L 389.569405 -112.209177 
L 389.804341 -112.13105 
L 390.003855 -112.052922 
L 390.179263 -111.974795 
L 390.349989 -111.896668 
L 390.53833 -111.818541 
L 390.763517 -111.740413 
L 391.037566 -111.662286 
L 391.36353 -111.584159 
L 391.734605 -111.506032 
L 392.131901 -111.427904 
L 392.520221 -111.349777 
L 392.843928 -111.27165 
L 393.027094 -111.193523 
L 392.981714 -111.115395 
L 392.624612 -111.037268 
L 391.899176 -110.959141 
L 390.794698 -110.881014 
L 389.355857 -110.802886 
L 387.678077 -110.724759 
L 385.889696 -110.646632 
L 384.126604 -110.568505 
L 382.507193 -110.490377 
L 381.114509 -110.41225 
L 379.989138 -110.334123 
L 379.132439 -110.255996 
z
" id="mc37545f2a3" style="stroke:#373737;stroke-width:1.5;"/>
    </defs>
    <g clip-path="url(#pfae50cd225)">
     <use style="fill:#be631d;stroke:#373737;stroke-width:1.5;" x="0" xlink:href="#mc37545f2a3" y="540.169"/>
    </g>
   </g>
   <g id="PolyCollection_7">
    <defs>
     <path d="M 446.954681 -105.003216 
L 443.814398 -105.003216 
L 443.004959 -105.603941 
L 441.911205 -106.204667 
L 440.499652 -106.805393 
L 438.761853 -107.406119 
L 436.7242 -108.006845 
L 434.453711 -108.60757 
L 432.05729 -109.208296 
L 429.673154 -109.809022 
L 427.455046 -110.409748 
L 425.551896 -111.010474 
L 424.087057 -111.611199 
L 423.141619 -112.211925 
L 422.745325 -112.812651 
L 422.876621 -113.413377 
L 423.471042 -114.014103 
L 424.435248 -114.614828 
L 425.663067 -115.215554 
L 427.050157 -115.81628 
L 428.504885 -116.417006 
L 429.954472 -117.017732 
L 431.346686 -117.618457 
L 432.648149 -118.219183 
L 433.84065 -118.819909 
L 434.916686 -119.420635 
L 435.875228 -120.021361 
L 436.718274 -120.622086 
L 437.448532 -121.222812 
L 438.068276 -121.823538 
L 438.579251 -122.424264 
L 438.983358 -123.02499 
L 439.283745 -123.625715 
L 439.485904 -124.226441 
L 439.598429 -124.827167 
L 439.633215 -125.427893 
L 439.605026 -126.028619 
L 439.530534 -126.629344 
L 439.427038 -127.23007 
L 439.311123 -127.830796 
L 439.197515 -128.431522 
L 439.098283 -129.032248 
L 439.02249 -129.632974 
L 438.976242 -130.233699 
L 438.963066 -130.834425 
L 438.984487 -131.435151 
L 439.040641 -132.035877 
L 439.130811 -132.636603 
L 439.253752 -133.237328 
L 439.407755 -133.838054 
L 439.590429 -134.43878 
L 439.798309 -135.039506 
L 440.026425 -135.640232 
L 440.268072 -136.240957 
L 440.514946 -136.841683 
L 440.757766 -137.442409 
L 440.987366 -138.043135 
L 441.196051 -138.643861 
L 441.378958 -139.244586 
L 441.535055 -139.845312 
L 441.667533 -140.446038 
L 441.783415 -141.046764 
L 441.892418 -141.64749 
L 442.005277 -142.248215 
L 442.131849 -142.848941 
L 442.279377 -143.449667 
L 442.45126 -144.050393 
L 442.646553 -144.651119 
L 442.860282 -145.251844 
L 443.084476 -145.85257 
L 443.30968 -146.453296 
L 443.526637 -147.054022 
L 443.727766 -147.654748 
L 443.908188 -148.255473 
L 444.0661 -148.856199 
L 444.2025 -149.456925 
L 444.320401 -150.057651 
L 444.423775 -150.658377 
L 444.516515 -151.259102 
L 444.601646 -151.859828 
L 444.680938 -152.460554 
L 444.75493 -153.06128 
L 444.823274 -153.662006 
L 444.88524 -154.262731 
L 444.940227 -154.863457 
L 444.988127 -155.464183 
L 445.02948 -156.064909 
L 445.06541 -156.665635 
L 445.097402 -157.266361 
L 445.126985 -157.867086 
L 445.155429 -158.467812 
L 445.183523 -159.068538 
L 445.211486 -159.669264 
L 445.239018 -160.26999 
L 445.265457 -160.870715 
L 445.289992 -161.471441 
L 445.311875 -162.072167 
L 445.330577 -162.672893 
L 445.345869 -163.273619 
L 445.357826 -163.874344 
L 445.366765 -164.47507 
L 445.402314 -164.47507 
L 445.402314 -164.47507 
L 445.411253 -163.874344 
L 445.42321 -163.273619 
L 445.438502 -162.672893 
L 445.457204 -162.072167 
L 445.479087 -161.471441 
L 445.503622 -160.870715 
L 445.530061 -160.26999 
L 445.557593 -159.669264 
L 445.585556 -159.068538 
L 445.61365 -158.467812 
L 445.642094 -157.867086 
L 445.671677 -157.266361 
L 445.703669 -156.665635 
L 445.739599 -156.064909 
L 445.780952 -155.464183 
L 445.828852 -154.863457 
L 445.883839 -154.262731 
L 445.945805 -153.662006 
L 446.014149 -153.06128 
L 446.088141 -152.460554 
L 446.167433 -151.859828 
L 446.252564 -151.259102 
L 446.345304 -150.658377 
L 446.448678 -150.057651 
L 446.566579 -149.456925 
L 446.702979 -148.856199 
L 446.860891 -148.255473 
L 447.041313 -147.654748 
L 447.242442 -147.054022 
L 447.459398 -146.453296 
L 447.684603 -145.85257 
L 447.908797 -145.251844 
L 448.122526 -144.651119 
L 448.317819 -144.050393 
L 448.489702 -143.449667 
L 448.63723 -142.848941 
L 448.763802 -142.248215 
L 448.876661 -141.64749 
L 448.985664 -141.046764 
L 449.101545 -140.446038 
L 449.234024 -139.845312 
L 449.390121 -139.244586 
L 449.573028 -138.643861 
L 449.781713 -138.043135 
L 450.011313 -137.442409 
L 450.254133 -136.841683 
L 450.501007 -136.240957 
L 450.742654 -135.640232 
L 450.97077 -135.039506 
L 451.17865 -134.43878 
L 451.361324 -133.838054 
L 451.515327 -133.237328 
L 451.638268 -132.636603 
L 451.728438 -132.035877 
L 451.784592 -131.435151 
L 451.806013 -130.834425 
L 451.792837 -130.233699 
L 451.746589 -129.632974 
L 451.670796 -129.032248 
L 451.571564 -128.431522 
L 451.457956 -127.830796 
L 451.342041 -127.23007 
L 451.238545 -126.629344 
L 451.164053 -126.028619 
L 451.135864 -125.427893 
L 451.17065 -124.827167 
L 451.283175 -124.226441 
L 451.485334 -123.625715 
L 451.785721 -123.02499 
L 452.189828 -122.424264 
L 452.700803 -121.823538 
L 453.320547 -121.222812 
L 454.050805 -120.622086 
L 454.893851 -120.021361 
L 455.852393 -119.420635 
L 456.928429 -118.819909 
L 458.12093 -118.219183 
L 459.422393 -117.618457 
L 460.814607 -117.017732 
L 462.264194 -116.417006 
L 463.718921 -115.81628 
L 465.106012 -115.215554 
L 466.333831 -114.614828 
L 467.298036 -114.014103 
L 467.892458 -113.413377 
L 468.023754 -112.812651 
L 467.62746 -112.211925 
L 466.682022 -111.611199 
L 465.217183 -111.010474 
L 463.314033 -110.409748 
L 461.095925 -109.809022 
L 458.711789 -109.208296 
L 456.315368 -108.60757 
L 454.044879 -108.006845 
L 452.007226 -107.406119 
L 450.269427 -106.805393 
L 448.857874 -106.204667 
L 447.76412 -105.603941 
L 446.954681 -105.003216 
z
" id="mb3d61af4e0" style="stroke:#373737;stroke-width:1.5;"/>
    </defs>
    <g clip-path="url(#pfae50cd225)">
     <use style="fill:#2b8e70;stroke:#373737;stroke-width:1.5;" x="0" xlink:href="#mb3d61af4e0" y="540.169"/>
    </g>
   </g>
   <g id="PolyCollection_8">
    <defs>
     <path d="M 491.716026 -104.027442 
L 489.609911 -104.027442 
L 488.977697 -104.821414 
L 488.092469 -105.615387 
L 486.923469 -106.409359 
L 485.469674 -107.203332 
L 483.770556 -107.997304 
L 481.909923 -108.791276 
L 480.009806 -109.585249 
L 478.214152 -110.379221 
L 476.665561 -111.173194 
L 475.48097 -111.967166 
L 474.732777 -112.761139 
L 474.440102 -113.555111 
L 474.571418 -114.349084 
L 475.056284 -115.143056 
L 475.80172 -115.937029 
L 476.708567 -116.731001 
L 477.68453 -117.524974 
L 478.652642 -118.318946 
L 479.555443 -119.112919 
L 480.355951 -119.906891 
L 481.036473 -120.700864 
L 481.595945 -121.494836 
L 482.046199 -122.288809 
L 482.407497 -123.082781 
L 482.703816 -123.876754 
L 482.958537 -124.670726 
L 483.191158 -125.464699 
L 483.415514 -126.258671 
L 483.639571 -127.052644 
L 483.866504 -127.846616 
L 484.096454 -128.640589 
L 484.328248 -129.434561 
L 484.560513 -130.228534 
L 484.79197 -131.022506 
L 485.021079 -131.816479 
L 485.245499 -132.610451 
L 485.461863 -133.404424 
L 485.666174 -134.198396 
L 485.854753 -134.992369 
L 486.025348 -135.786341 
L 486.177914 -136.580314 
L 486.314688 -137.374286 
L 486.439508 -138.168259 
L 486.556658 -138.962231 
L 486.669696 -139.756204 
L 486.780694 -140.550176 
L 486.890133 -141.344148 
L 486.997372 -142.138121 
L 487.101456 -142.932093 
L 487.2019 -143.726066 
L 487.299191 -144.520038 
L 487.394878 -145.314011 
L 487.491274 -146.107983 
L 487.5909 -146.901956 
L 487.695851 -147.695928 
L 487.807249 -148.489901 
L 487.924904 -149.283873 
L 488.047256 -150.077846 
L 488.17158 -150.871818 
L 488.294418 -151.665791 
L 488.4121 -152.459763 
L 488.521293 -153.253736 
L 488.619453 -154.047708 
L 488.705168 -154.841681 
L 488.778365 -155.635653 
L 488.840378 -156.429626 
L 488.893861 -157.223598 
L 488.942523 -158.017571 
L 488.990671 -158.811543 
L 489.042581 -159.605516 
L 489.101794 -160.399488 
L 489.170473 -161.193461 
L 489.248985 -161.987433 
L 489.335812 -162.781406 
L 489.427835 -163.575378 
L 489.52093 -164.369351 
L 489.610746 -165.163323 
L 489.693506 -165.957296 
L 489.766679 -166.751268 
L 489.829396 -167.545241 
L 489.882562 -168.339213 
L 489.928613 -169.133186 
L 489.970994 -169.927158 
L 490.013434 -170.721131 
L 490.059185 -171.515103 
L 490.110365 -172.309076 
L 490.167583 -173.103048 
L 490.22988 -173.89702 
L 490.295023 -174.690993 
L 490.360027 -175.484965 
L 490.421779 -176.278938 
L 490.477596 -177.07291 
L 490.525618 -177.866883 
L 490.564968 -178.660855 
L 490.595698 -179.454828 
L 490.618582 -180.2488 
L 490.634838 -181.042773 
L 490.645857 -181.836745 
L 490.652986 -182.630718 
L 490.672951 -182.630718 
L 490.672951 -182.630718 
L 490.68008 -181.836745 
L 490.691099 -181.042773 
L 490.707355 -180.2488 
L 490.730239 -179.454828 
L 490.760969 -178.660855 
L 490.800319 -177.866883 
L 490.848341 -177.07291 
L 490.904158 -176.278938 
L 490.96591 -175.484965 
L 491.030914 -174.690993 
L 491.096057 -173.89702 
L 491.158354 -173.103048 
L 491.215572 -172.309076 
L 491.266752 -171.515103 
L 491.312503 -170.721131 
L 491.354943 -169.927158 
L 491.397324 -169.133186 
L 491.443375 -168.339213 
L 491.496541 -167.545241 
L 491.559258 -166.751268 
L 491.632431 -165.957296 
L 491.715191 -165.163323 
L 491.805007 -164.369351 
L 491.898102 -163.575378 
L 491.990125 -162.781406 
L 492.076952 -161.987433 
L 492.155464 -161.193461 
L 492.224143 -160.399488 
L 492.283356 -159.605516 
L 492.335266 -158.811543 
L 492.383414 -158.017571 
L 492.432076 -157.223598 
L 492.485559 -156.429626 
L 492.547572 -155.635653 
L 492.620769 -154.841681 
L 492.706484 -154.047708 
L 492.804644 -153.253736 
L 492.913837 -152.459763 
L 493.031519 -151.665791 
L 493.154357 -150.871818 
L 493.278681 -150.077846 
L 493.401033 -149.283873 
L 493.518688 -148.489901 
L 493.630086 -147.695928 
L 493.735037 -146.901956 
L 493.834663 -146.107983 
L 493.931059 -145.314011 
L 494.026746 -144.520038 
L 494.124037 -143.726066 
L 494.224481 -142.932093 
L 494.328565 -142.138121 
L 494.435804 -141.344148 
L 494.545243 -140.550176 
L 494.656241 -139.756204 
L 494.769279 -138.962231 
L 494.886429 -138.168259 
L 495.011249 -137.374286 
L 495.148023 -136.580314 
L 495.300589 -135.786341 
L 495.471184 -134.992369 
L 495.659763 -134.198396 
L 495.864074 -133.404424 
L 496.080438 -132.610451 
L 496.304858 -131.816479 
L 496.533967 -131.022506 
L 496.765424 -130.228534 
L 496.997689 -129.434561 
L 497.229483 -128.640589 
L 497.459433 -127.846616 
L 497.686366 -127.052644 
L 497.910423 -126.258671 
L 498.134779 -125.464699 
L 498.3674 -124.670726 
L 498.622121 -123.876754 
L 498.91844 -123.082781 
L 499.279738 -122.288809 
L 499.729992 -121.494836 
L 500.289464 -120.700864 
L 500.969986 -119.906891 
L 501.770494 -119.112919 
L 502.673295 -118.318946 
L 503.641407 -117.524974 
L 504.61737 -116.731001 
L 505.524217 -115.937029 
L 506.269653 -115.143056 
L 506.754519 -114.349084 
L 506.885835 -113.555111 
L 506.59316 -112.761139 
L 505.844967 -111.967166 
L 504.660376 -111.173194 
L 503.111785 -110.379221 
L 501.316131 -109.585249 
L 499.416014 -108.791276 
L 497.555381 -107.997304 
L 495.856263 -107.203332 
L 494.402468 -106.409359 
L 493.233468 -105.615387 
L 492.34824 -104.821414 
L 491.716026 -104.027442 
z
" id="m873a28a290" style="stroke:#373737;stroke-width:1.5;"/>
    </defs>
    <g clip-path="url(#pfae50cd225)">
     <use style="fill:#be631d;stroke:#373737;stroke-width:1.5;" x="0" xlink:href="#m873a28a290" y="540.169"/>
    </g>
   </g>
   <g id="PolyCollection_9">
    <defs>
     <path d="M 560.416774 -103.434677 
L 556.74445 -103.434677 
L 556.008683 -104.061306 
L 555.070309 -104.687935 
L 553.911154 -105.314564 
L 552.525264 -105.941193 
L 550.922956 -106.567822 
L 549.13364 -107.194451 
L 547.206659 -107.82108 
L 545.20958 -108.447709 
L 543.223787 -109.074338 
L 541.337708 -109.700967 
L 539.638514 -110.327596 
L 538.203466 -110.954224 
L 537.092259 -111.580853 
L 536.341548 -112.207482 
L 535.962468 -112.834111 
L 535.941398 -113.46074 
L 536.24364 -114.087369 
L 536.819207 -114.713998 
L 537.609617 -115.340627 
L 538.554601 -115.967256 
L 539.597773 -116.593885 
L 540.690682 -117.220514 
L 541.795022 -117.847143 
L 542.883128 -118.473772 
L 543.937107 -119.100401 
L 544.947078 -119.72703 
L 545.908994 -120.353659 
L 546.822449 -120.980288 
L 547.688762 -121.606917 
L 548.509526 -122.233546 
L 549.285684 -122.860175 
L 550.017131 -123.486804 
L 550.70275 -124.113433 
L 551.340768 -124.740062 
L 551.929284 -125.366691 
L 552.466825 -125.99332 
L 552.952805 -126.619949 
L 553.387824 -127.246578 
L 553.773747 -127.873207 
L 554.113601 -128.499836 
L 554.411319 -129.126465 
L 554.671394 -129.753094 
L 554.898519 -130.379723 
L 555.097254 -131.006352 
L 555.271777 -131.632981 
L 555.425718 -132.25961 
L 555.562094 -132.886239 
L 555.683332 -133.512868 
L 555.791347 -134.139497 
L 555.887671 -134.766126 
L 555.973587 -135.392755 
L 556.050262 -136.019384 
L 556.118851 -136.646013 
L 556.180569 -137.272642 
L 556.236732 -137.899271 
L 556.288751 -138.5259 
L 556.338099 -139.152529 
L 556.386237 -139.779158 
L 556.434515 -140.405787 
L 556.484057 -141.032416 
L 556.535636 -141.659045 
L 556.589572 -142.285674 
L 556.645671 -142.912303 
L 556.703219 -143.538932 
L 556.761058 -144.165561 
L 556.817713 -144.79219 
L 556.871574 -145.418819 
L 556.921092 -146.045448 
L 556.964955 -146.672077 
L 557.00223 -147.298706 
L 557.032443 -147.925335 
L 557.055621 -148.551964 
L 557.072292 -149.178593 
L 557.083467 -149.805222 
L 557.090626 -150.431851 
L 557.095688 -151.05848 
L 557.100976 -151.685109 
L 557.10914 -152.311738 
L 557.123019 -152.938367 
L 557.145436 -153.564996 
L 557.178944 -154.191625 
L 557.225526 -154.818254 
L 557.286323 -155.444883 
L 557.361429 -156.071512 
L 557.449793 -156.698141 
L 557.54927 -157.32477 
L 557.656802 -157.951399 
L 557.768724 -158.578028 
L 557.881127 -159.204657 
L 557.990239 -159.831286 
L 558.092759 -160.457915 
L 558.186103 -161.084544 
L 558.268539 -161.711173 
L 558.33921 -162.337802 
L 558.398061 -162.964431 
L 558.445693 -163.59106 
L 558.483178 -164.217689 
L 558.511874 -164.844318 
L 558.533248 -165.470947 
L 558.627977 -165.470947 
L 558.627977 -165.470947 
L 558.64935 -164.844318 
L 558.678046 -164.217689 
L 558.715531 -163.59106 
L 558.763163 -162.964431 
L 558.822015 -162.337802 
L 558.892686 -161.711173 
L 558.975121 -161.084544 
L 559.068465 -160.457915 
L 559.170985 -159.831286 
L 559.280097 -159.204657 
L 559.3925 -158.578028 
L 559.504422 -157.951399 
L 559.611954 -157.32477 
L 559.711431 -156.698141 
L 559.799795 -156.071512 
L 559.874901 -155.444883 
L 559.935699 -154.818254 
L 559.98228 -154.191625 
L 560.015788 -153.564996 
L 560.038206 -152.938367 
L 560.052084 -152.311738 
L 560.060248 -151.685109 
L 560.065537 -151.05848 
L 560.070599 -150.431851 
L 560.077757 -149.805222 
L 560.088932 -149.178593 
L 560.105603 -148.551964 
L 560.128782 -147.925335 
L 560.158995 -147.298706 
L 560.196269 -146.672077 
L 560.240132 -146.045448 
L 560.28965 -145.418819 
L 560.343511 -144.79219 
L 560.400166 -144.165561 
L 560.458005 -143.538932 
L 560.515554 -142.912303 
L 560.571652 -142.285674 
L 560.625588 -141.659045 
L 560.677167 -141.032416 
L 560.726709 -140.405787 
L 560.774987 -139.779158 
L 560.823125 -139.152529 
L 560.872473 -138.5259 
L 560.924492 -137.899271 
L 560.980655 -137.272642 
L 561.042373 -136.646013 
L 561.110962 -136.019384 
L 561.187637 -135.392755 
L 561.273554 -134.766126 
L 561.369878 -134.139497 
L 561.477892 -133.512868 
L 561.59913 -132.886239 
L 561.735506 -132.25961 
L 561.889447 -131.632981 
L 562.06397 -131.006352 
L 562.262705 -130.379723 
L 562.48983 -129.753094 
L 562.749905 -129.126465 
L 563.047623 -128.499836 
L 563.387477 -127.873207 
L 563.7734 -127.246578 
L 564.208419 -126.619949 
L 564.694399 -125.99332 
L 565.23194 -125.366691 
L 565.820456 -124.740062 
L 566.458474 -124.113433 
L 567.144093 -123.486804 
L 567.87554 -122.860175 
L 568.651698 -122.233546 
L 569.472462 -121.606917 
L 570.338775 -120.980288 
L 571.25223 -120.353659 
L 572.214147 -119.72703 
L 573.224117 -119.100401 
L 574.278096 -118.473772 
L 575.366202 -117.847143 
L 576.470542 -117.220514 
L 577.563451 -116.593885 
L 578.606623 -115.967256 
L 579.551607 -115.340627 
L 580.342018 -114.713998 
L 580.917584 -114.087369 
L 581.219827 -113.46074 
L 581.198756 -112.834111 
L 580.819676 -112.207482 
L 580.068965 -111.580853 
L 578.957758 -110.954224 
L 577.52271 -110.327596 
L 575.823516 -109.700967 
L 573.937438 -109.074338 
L 571.951644 -108.447709 
L 569.954565 -107.82108 
L 568.027584 -107.194451 
L 566.238268 -106.567822 
L 564.63596 -105.941193 
L 563.25007 -105.314564 
L 562.090915 -104.687935 
L 561.152541 -104.061306 
L 560.416774 -103.434677 
z
" id="md2fa66f63f" style="stroke:#373737;stroke-width:1.5;"/>
    </defs>
    <g clip-path="url(#pfae50cd225)">
     <use style="fill:#2b8e70;stroke:#373737;stroke-width:1.5;" x="0" xlink:href="#md2fa66f63f" y="540.169"/>
    </g>
   </g>
   <g id="PolyCollection_10">
    <defs>
     <path d="M 605.42503 -104.588919 
L 602.293052 -104.588919 
L 601.538811 -105.215368 
L 600.545196 -105.841817 
L 599.295365 -106.468266 
L 597.796869 -107.094715 
L 596.088402 -107.721164 
L 594.242307 -108.347612 
L 592.361025 -108.974061 
L 590.566939 -109.60051 
L 588.986784 -110.226959 
L 587.733399 -110.853408 
L 586.8887 -111.479857 
L 586.491648 -112.106305 
L 586.53388 -112.732754 
L 586.963679 -113.359203 
L 587.696888 -113.985652 
L 588.63178 -114.612101 
L 589.664351 -115.23855 
L 590.700996 -115.864998 
L 591.666746 -116.491447 
L 592.508742 -117.117896 
L 593.195761 -117.744345 
L 593.715246 -118.370794 
L 594.069259 -118.997242 
L 594.270413 -119.623691 
L 594.338287 -120.25014 
L 594.296472 -120.876589 
L 594.17014 -121.503038 
L 593.984063 -122.129487 
L 593.76108 -122.755935 
L 593.521056 -123.382384 
L 593.280406 -124.008833 
L 593.052175 -124.635282 
L 592.846568 -125.261731 
L 592.671759 -125.88818 
L 592.534754 -126.514628 
L 592.442138 -127.141077 
L 592.400563 -127.767526 
L 592.41689 -128.393975 
L 592.497944 -129.020424 
L 592.649901 -129.646873 
L 592.877368 -130.273321 
L 593.182303 -130.89977 
L 593.563004 -131.526219 
L 594.01345 -132.152668 
L 594.523255 -132.779117 
L 595.078354 -133.405566 
L 595.662397 -134.032014 
L 596.25858 -134.658463 
L 596.851509 -135.284912 
L 597.428689 -135.911361 
L 597.981291 -136.53781 
L 598.504094 -137.164259 
L 598.994703 -137.790707 
L 599.452344 -138.417156 
L 599.876623 -139.043605 
L 600.266583 -139.670054 
L 600.620301 -140.296503 
L 600.935078 -140.922952 
L 601.208124 -141.5494 
L 601.437515 -142.175849 
L 601.623145 -142.802298 
L 601.767413 -143.428747 
L 601.87545 -144.055196 
L 601.954778 -144.681645 
L 602.01448 -145.308093 
L 602.064012 -145.934542 
L 602.111938 -146.560991 
L 602.164849 -147.18744 
L 602.2267 -147.813889 
L 602.298691 -148.440338 
L 602.379657 -149.066786 
L 602.466842 -149.693235 
L 602.556805 -150.319684 
L 602.646235 -150.946133 
L 602.732503 -151.572582 
L 602.813857 -152.199031 
L 602.889326 -152.825479 
L 602.958438 -153.451928 
L 603.020933 -154.078377 
L 603.076592 -154.704826 
L 603.125252 -155.331275 
L 603.166999 -155.957724 
L 603.202421 -156.584172 
L 603.232813 -157.210621 
L 603.260199 -157.83707 
L 603.287131 -158.463519 
L 603.316273 -159.089968 
L 603.349894 -159.716417 
L 603.389392 -160.342865 
L 603.434989 -160.969314 
L 603.485687 -161.595763 
L 603.539481 -162.222212 
L 603.593775 -162.848661 
L 603.645873 -163.47511 
L 603.693432 -164.101558 
L 603.734783 -164.728007 
L 603.769068 -165.354456 
L 603.796206 -165.980905 
L 603.816734 -166.607354 
L 603.901348 -166.607354 
L 603.901348 -166.607354 
L 603.921876 -165.980905 
L 603.949014 -165.354456 
L 603.983299 -164.728007 
L 604.02465 -164.101558 
L 604.072209 -163.47511 
L 604.124307 -162.848661 
L 604.178601 -162.222212 
L 604.232396 -161.595763 
L 604.283093 -160.969314 
L 604.32869 -160.342865 
L 604.368188 -159.716417 
L 604.40181 -159.089968 
L 604.430952 -158.463519 
L 604.457883 -157.83707 
L 604.485269 -157.210621 
L 604.515661 -156.584172 
L 604.551083 -155.957724 
L 604.59283 -155.331275 
L 604.64149 -154.704826 
L 604.697149 -154.078377 
L 604.759644 -153.451928 
L 604.828757 -152.825479 
L 604.904225 -152.199031 
L 604.985579 -151.572582 
L 605.071847 -150.946133 
L 605.161277 -150.319684 
L 605.25124 -149.693235 
L 605.338425 -149.066786 
L 605.419391 -148.440338 
L 605.491382 -147.813889 
L 605.553234 -147.18744 
L 605.606144 -146.560991 
L 605.65407 -145.934542 
L 605.703602 -145.308093 
L 605.763304 -144.681645 
L 605.842632 -144.055196 
L 605.950669 -143.428747 
L 606.094938 -142.802298 
L 606.280567 -142.175849 
L 606.509958 -141.5494 
L 606.783004 -140.922952 
L 607.097781 -140.296503 
L 607.451499 -139.670054 
L 607.841459 -139.043605 
L 608.265738 -138.417156 
L 608.723379 -137.790707 
L 609.213988 -137.164259 
L 609.736791 -136.53781 
L 610.289393 -135.911361 
L 610.866573 -135.284912 
L 611.459502 -134.658463 
L 612.055685 -134.032014 
L 612.639729 -133.405566 
L 613.194828 -132.779117 
L 613.704632 -132.152668 
L 614.155079 -131.526219 
L 614.535779 -130.89977 
L 614.840714 -130.273321 
L 615.068181 -129.646873 
L 615.220138 -129.020424 
L 615.301192 -128.393975 
L 615.317519 -127.767526 
L 615.275944 -127.141077 
L 615.183328 -126.514628 
L 615.046323 -125.88818 
L 614.871514 -125.261731 
L 614.665908 -124.635282 
L 614.437676 -124.008833 
L 614.197026 -123.382384 
L 613.957002 -122.755935 
L 613.734019 -122.129487 
L 613.547943 -121.503038 
L 613.42161 -120.876589 
L 613.379795 -120.25014 
L 613.447669 -119.623691 
L 613.648823 -118.997242 
L 614.002837 -118.370794 
L 614.522321 -117.744345 
L 615.20934 -117.117896 
L 616.051336 -116.491447 
L 617.017086 -115.864998 
L 618.053731 -115.23855 
L 619.086303 -114.612101 
L 620.021194 -113.985652 
L 620.754403 -113.359203 
L 621.184202 -112.732754 
L 621.226434 -112.106305 
L 620.829382 -111.479857 
L 619.984683 -110.853408 
L 618.731299 -110.226959 
L 617.151143 -109.60051 
L 615.357058 -108.974061 
L 613.475775 -108.347612 
L 611.62968 -107.721164 
L 609.921213 -107.094715 
L 608.422717 -106.468266 
L 607.172886 -105.841817 
L 606.179271 -105.215368 
L 605.42503 -104.588919 
z
" id="mbbb9065c1e" style="stroke:#373737;stroke-width:1.5;"/>
    </defs>
    <g clip-path="url(#pfae50cd225)">
     <use style="fill:#be631d;stroke:#373737;stroke-width:1.5;" x="0" xlink:href="#mbbb9065c1e" y="540.169"/>
    </g>
   </g>
   <g id="patch_3">
    <path clip-path="url(#pfae50cd225)" d="M 128.435536 429.195349 
L 128.435536 429.195349 
L 128.435536 429.195349 
L 128.435536 429.195349 
z
" style="fill:#2b8e70;stroke:#373737;stroke-linejoin:miter;stroke-width:0.75;"/>
   </g>
   <g id="patch_4">
    <path clip-path="url(#pfae50cd225)" d="M 128.435536 429.195349 
L 128.435536 429.195349 
L 128.435536 429.195349 
L 128.435536 429.195349 
z
" style="fill:#be631d;stroke:#373737;stroke-linejoin:miter;stroke-width:0.75;"/>
   </g>
   <g id="line2d_1">
    <path clip-path="url(#pfae50cd225)" d="M 105.796322 429.195349 
L 105.796322 225.327514 
" style="fill:none;stroke:#373737;stroke-linecap:round;stroke-width:1.5;"/>
   </g>
   <g id="line2d_2">
    <path clip-path="url(#pfae50cd225)" d="M 105.796322 414.449291 
L 105.796322 319.100992 
" style="fill:none;stroke:#373737;stroke-linecap:round;stroke-width:4.5;"/>
   </g>
   <g id="line2d_3">
    <path clip-path="url(#pfae50cd225)" d="M 151.074751 429.195349 
L 151.074751 70.708651 
" style="fill:none;stroke:#373737;stroke-linecap:round;stroke-width:1.5;"/>
   </g>
   <g id="line2d_4">
    <path clip-path="url(#pfae50cd225)" d="M 151.074751 403.855035 
L 151.074751 251.240491 
" style="fill:none;stroke:#373737;stroke-linecap:round;stroke-width:4.5;"/>
   </g>
   <g id="line2d_5">
    <path clip-path="url(#pfae50cd225)" d="M 218.992394 429.195349 
L 218.992394 306.072921 
" style="fill:none;stroke:#373737;stroke-linecap:round;stroke-width:1.5;"/>
   </g>
   <g id="line2d_6">
    <path clip-path="url(#pfae50cd225)" d="M 218.992394 421.750737 
L 218.992394 374.076588 
" style="fill:none;stroke:#373737;stroke-linecap:round;stroke-width:4.5;"/>
   </g>
   <g id="line2d_7">
    <path clip-path="url(#pfae50cd225)" d="M 264.270823 429.195349 
L 264.270823 161.761982 
" style="fill:none;stroke:#373737;stroke-linecap:round;stroke-width:1.5;"/>
   </g>
   <g id="line2d_8">
    <path clip-path="url(#pfae50cd225)" d="M 264.270823 415.45145 
L 264.270823 302.064284 
" style="fill:none;stroke:#373737;stroke-linecap:round;stroke-width:4.5;"/>
   </g>
   <g id="line2d_9">
    <path clip-path="url(#pfae50cd225)" d="M 332.188467 429.195349 
L 332.188467 425.186712 
" style="fill:none;stroke:#373737;stroke-linecap:round;stroke-width:1.5;"/>
   </g>
   <g id="line2d_10">
    <path clip-path="url(#pfae50cd225)" d="M 332.188467 429.195349 
L 332.188467 427.477362 
" style="fill:none;stroke:#373737;stroke-linecap:round;stroke-width:4.5;"/>
   </g>
   <g id="line2d_11">
    <path clip-path="url(#pfae50cd225)" d="M 377.466896 429.195349 
L 377.466896 424.614049 
" style="fill:none;stroke:#373737;stroke-linecap:round;stroke-width:1.5;"/>
   </g>
   <g id="line2d_12">
    <path clip-path="url(#pfae50cd225)" d="M 377.466896 428.622687 
L 377.466896 426.904699 
" style="fill:none;stroke:#373737;stroke-linecap:round;stroke-width:4.5;"/>
   </g>
   <g id="line2d_13">
    <path clip-path="url(#pfae50cd225)" d="M 445.384539 429.195349 
L 445.384539 386.818327 
" style="fill:none;stroke:#373737;stroke-linecap:round;stroke-width:1.5;"/>
   </g>
   <g id="line2d_14">
    <path clip-path="url(#pfae50cd225)" d="M 445.384539 428.050024 
L 445.384539 411.299647 
" style="fill:none;stroke:#373737;stroke-linecap:round;stroke-width:4.5;"/>
   </g>
   <g id="line2d_15">
    <path clip-path="url(#pfae50cd225)" d="M 490.662968 429.195349 
L 490.662968 376.510403 
" style="fill:none;stroke:#373737;stroke-linecap:round;stroke-width:1.5;"/>
   </g>
   <g id="line2d_16">
    <path clip-path="url(#pfae50cd225)" d="M 490.662968 426.332037 
L 490.662968 406.288851 
" style="fill:none;stroke:#373737;stroke-linecap:round;stroke-width:4.5;"/>
   </g>
   <g id="line2d_17">
    <path clip-path="url(#pfae50cd225)" d="M 558.580612 429.195349 
L 558.580612 402.280214 
" style="fill:none;stroke:#373737;stroke-linecap:round;stroke-width:1.5;"/>
   </g>
   <g id="line2d_18">
    <path clip-path="url(#pfae50cd225)" d="M 558.580612 428.622687 
L 558.580612 417.885266 
" style="fill:none;stroke:#373737;stroke-linecap:round;stroke-width:4.5;"/>
   </g>
   <g id="line2d_19">
    <path clip-path="url(#pfae50cd225)" d="M 603.859041 429.195349 
L 603.859041 383.955015 
" style="fill:none;stroke:#373737;stroke-linecap:round;stroke-width:1.5;"/>
   </g>
   <g id="line2d_20">
    <path clip-path="url(#pfae50cd225)" d="M 603.859041 428.050024 
L 603.859041 409.58166 
" style="fill:none;stroke:#373737;stroke-linecap:round;stroke-width:4.5;"/>
   </g>
   <g id="patch_5">
    <path d="M 71.8375 492.704 
L 71.8375 7.2 
" style="fill:none;stroke:#262626;stroke-linecap:square;stroke-linejoin:miter;stroke-width:0.8;"/>
   </g>
   <g id="patch_6">
    <path d="M 71.8375 492.704 
L 637.817863 492.704 
" style="fill:none;stroke:#262626;stroke-linecap:square;stroke-linejoin:miter;stroke-width:0.8;"/>
   </g>
   <g id="PathCollection_1">
    <defs>
     <path d="M 0 1.5 
C 0.397805 1.5 0.77937 1.341951 1.06066 1.06066 
C 1.341951 0.77937 1.5 0.397805 1.5 0 
C 1.5 -0.397805 1.341951 -0.77937 1.06066 -1.06066 
C 0.77937 -1.341951 0.397805 -1.5 0 -1.5 
C -0.397805 -1.5 -0.77937 -1.341951 -1.06066 -1.06066 
C -1.341951 -0.77937 -1.5 -0.397805 -1.5 0 
C -1.5 0.397805 -1.341951 0.77937 -1.06066 1.06066 
C -0.77937 1.341951 -0.397805 1.5 0 1.5 
z
" id="mb2ef98232c" style="stroke:#373737;"/>
    </defs>
    <g clip-path="url(#pfae50cd225)">
     <use style="fill:#ffffff;stroke:#373737;" x="105.796322" xlink:href="#mb2ef98232c" y="368.493129"/>
    </g>
   </g>
   <g id="PathCollection_2">
    <g clip-path="url(#pfae50cd225)">
     <use style="fill:#ffffff;stroke:#373737;" x="151.074751" xlink:href="#mb2ef98232c" y="299.200971"/>
    </g>
   </g>
   <g id="PathCollection_3">
    <g clip-path="url(#pfae50cd225)">
     <use style="fill:#ffffff;stroke:#373737;" x="218.992394" xlink:href="#mb2ef98232c" y="405.143526"/>
    </g>
   </g>
   <g id="PathCollection_4">
    <g clip-path="url(#pfae50cd225)">
     <use style="fill:#ffffff;stroke:#373737;" x="264.270823" xlink:href="#mb2ef98232c" y="361.048517"/>
    </g>
   </g>
   <g id="PathCollection_5">
    <g clip-path="url(#pfae50cd225)">
     <use style="fill:#ffffff;stroke:#373737;" x="332.188467" xlink:href="#mb2ef98232c" y="428.622687"/>
    </g>
   </g>
   <g id="PathCollection_6">
    <g clip-path="url(#pfae50cd225)">
     <use style="fill:#ffffff;stroke:#373737;" x="377.466896" xlink:href="#mb2ef98232c" y="428.050024"/>
    </g>
   </g>
   <g id="PathCollection_7">
    <g clip-path="url(#pfae50cd225)">
     <use style="fill:#ffffff;stroke:#373737;" x="445.384539" xlink:href="#mb2ef98232c" y="424.041387"/>
    </g>
   </g>
   <g id="PathCollection_8">
    <g clip-path="url(#pfae50cd225)">
     <use style="fill:#ffffff;stroke:#373737;" x="490.662968" xlink:href="#mb2ef98232c" y="419.460087"/>
    </g>
   </g>
   <g id="PathCollection_9">
    <g clip-path="url(#pfae50cd225)">
     <use style="fill:#ffffff;stroke:#373737;" x="558.580612" xlink:href="#mb2ef98232c" y="424.614049"/>
    </g>
   </g>
   <g id="PathCollection_10">
    <g clip-path="url(#pfae50cd225)">
     <use style="fill:#ffffff;stroke:#373737;" x="603.859041" xlink:href="#mb2ef98232c" y="418.314762"/>
    </g>
   </g>
  </g>
  <g id="legend_1">
   <g id="text_17">
    <!-- workday -->
    <defs>
     <path d="M 16.15625 0 
L 0.296875 51.859375 
L 9.375 51.859375 
L 17.625 21.921875 
L 20.703125 10.796875 
Q 20.90625 11.625 23.390625 21.484375 
L 31.640625 51.859375 
L 40.671875 51.859375 
L 48.4375 21.78125 
L 51.03125 11.859375 
L 54 21.875 
L 62.890625 51.859375 
L 71.4375 51.859375 
L 55.21875 0 
L 46.09375 0 
L 37.84375 31.0625 
L 35.84375 39.890625 
L 25.34375 0 
z
" id="ArialMT-119"/>
     <path d="M 6.640625 0 
L 6.640625 71.578125 
L 15.4375 71.578125 
L 15.4375 30.765625 
L 36.234375 51.859375 
L 47.609375 51.859375 
L 27.78125 32.625 
L 49.609375 0 
L 38.765625 0 
L 21.625 26.515625 
L 15.4375 20.5625 
L 15.4375 0 
z
" id="ArialMT-107"/>
     <path d="M 40.4375 6.390625 
Q 35.546875 2.25 31.03125 0.53125 
Q 26.515625 -1.171875 21.34375 -1.171875 
Q 12.796875 -1.171875 8.203125 3 
Q 3.609375 7.171875 3.609375 13.671875 
Q 3.609375 17.484375 5.34375 20.625 
Q 7.078125 23.78125 9.890625 25.6875 
Q 12.703125 27.59375 16.21875 28.5625 
Q 18.796875 29.25 24.03125 29.890625 
Q 34.671875 31.15625 39.703125 32.90625 
Q 39.75 34.71875 39.75 35.203125 
Q 39.75 40.578125 37.25 42.78125 
Q 33.890625 45.75 27.25 45.75 
Q 21.046875 45.75 18.09375 43.578125 
Q 15.140625 41.40625 13.71875 35.890625 
L 5.125 37.0625 
Q 6.296875 42.578125 8.984375 45.96875 
Q 11.671875 49.359375 16.75 51.1875 
Q 21.828125 53.03125 28.515625 53.03125 
Q 35.15625 53.03125 39.296875 51.46875 
Q 43.453125 49.90625 45.40625 47.53125 
Q 47.359375 45.171875 48.140625 41.546875 
Q 48.578125 39.3125 48.578125 33.453125 
L 48.578125 21.734375 
Q 48.578125 9.46875 49.140625 6.21875 
Q 49.703125 2.984375 51.375 0 
L 42.1875 0 
Q 40.828125 2.734375 40.4375 6.390625 
z
M 39.703125 26.03125 
Q 34.90625 24.078125 25.34375 22.703125 
Q 19.921875 21.921875 17.671875 20.9375 
Q 15.4375 19.96875 14.203125 18.09375 
Q 12.984375 16.21875 12.984375 13.921875 
Q 12.984375 10.40625 15.640625 8.0625 
Q 18.3125 5.71875 23.4375 5.71875 
Q 28.515625 5.71875 32.46875 7.9375 
Q 36.421875 10.15625 38.28125 14.015625 
Q 39.703125 17 39.703125 22.796875 
z
" id="ArialMT-97"/>
     <path d="M 6.203125 -19.96875 
L 5.21875 -11.71875 
Q 8.109375 -12.5 10.25 -12.5 
Q 13.1875 -12.5 14.9375 -11.515625 
Q 16.703125 -10.546875 17.828125 -8.796875 
Q 18.65625 -7.46875 20.515625 -2.25 
Q 20.75 -1.515625 21.296875 -0.09375 
L 1.609375 51.859375 
L 11.078125 51.859375 
L 21.875 21.828125 
Q 23.96875 16.109375 25.640625 9.8125 
Q 27.15625 15.875 29.25 21.625 
L 40.328125 51.859375 
L 49.125 51.859375 
L 29.390625 -0.875 
Q 26.21875 -9.421875 24.46875 -12.640625 
Q 22.125 -17 19.09375 -19.015625 
Q 16.0625 -21.046875 11.859375 -21.046875 
Q 9.328125 -21.046875 6.203125 -19.96875 
z
" id="ArialMT-121"/>
    </defs>
    <g style="fill:#262626;" transform="translate(716.3905 251.4945)scale(0.16 -0.16)">
     <use xlink:href="#ArialMT-119"/>
     <use x="72.216797" xlink:href="#ArialMT-111"/>
     <use x="127.832031" xlink:href="#ArialMT-114"/>
     <use x="161.132812" xlink:href="#ArialMT-107"/>
     <use x="211.132812" xlink:href="#ArialMT-100"/>
     <use x="266.748047" xlink:href="#ArialMT-97"/>
     <use x="322.363281" xlink:href="#ArialMT-121"/>
    </g>
   </g>
   <g id="patch_7">
    <path d="M 719.32925 274.3145 
L 751.32925 274.3145 
L 751.32925 263.1145 
L 719.32925 263.1145 
z
" style="fill:#2b8e70;stroke:#373737;stroke-linejoin:miter;stroke-width:0.75;"/>
   </g>
   <g id="text_18">
    <!-- 0 -->
    <g style="fill:#262626;" transform="translate(764.12925 274.3145)scale(0.16 -0.16)">
     <use xlink:href="#ArialMT-48"/>
    </g>
   </g>
   <g id="patch_8">
    <path d="M 719.32925 296.947 
L 751.32925 296.947 
L 751.32925 285.747 
L 719.32925 285.747 
z
" style="fill:#be631d;stroke:#373737;stroke-linejoin:miter;stroke-width:0.75;"/>
   </g>
   <g id="text_19">
    <!-- 1 -->
    <g style="fill:#262626;" transform="translate(764.12925 296.947)scale(0.16 -0.16)">
     <use xlink:href="#ArialMT-49"/>
    </g>
   </g>
  </g>
 </g>
 <defs>
  <clipPath id="pfae50cd225">
   <rect height="485.504" width="565.980363" x="71.8375" y="7.2"/>
  </clipPath>
 </defs>
</svg>
