<?xml version="1.0" encoding="utf-8" standalone="no"?>
<!DOCTYPE svg PUBLIC "-//W3C//DTD SVG 1.1//EN"
  "http://www.w3.org/Graphics/SVG/1.1/DTD/svg11.dtd">
<!-- Created with matplotlib (https://matplotlib.org/) -->
<svg height="489.545pt" version="1.1" viewBox="0 0 745.2225 489.545" width="745.2225pt" xmlns="http://www.w3.org/2000/svg" xmlns:xlink="http://www.w3.org/1999/xlink">
 <defs>
  <style type="text/css">
*{stroke-linecap:butt;stroke-linejoin:round;white-space:pre;}
  </style>
 </defs>
 <g id="figure_1">
  <g id="patch_1">
   <path d="M 0 489.545 
L 745.2225 489.545 
L 745.2225 0 
L 0 0 
z
" style="fill:#ffffff;"/>
  </g>
  <g id="axes_1">
   <g id="patch_2">
    <path d="M 68.4225 442.08 
L 738.0225 442.08 
L 738.0225 7.2 
L 68.4225 7.2 
z
" style="fill:#ffffff;"/>
   </g>
   <g id="matplotlib.axis_1">
    <g id="xtick_1">
     <g id="text_1">
      <!-- 0 -->
      <defs>
       <path d="M 4.15625 35.296875 
Q 4.15625 48 6.765625 55.734375 
Q 9.375 63.484375 14.515625 67.671875 
Q 19.671875 71.875 27.484375 71.875 
Q 33.25 71.875 37.59375 69.546875 
Q 41.9375 67.234375 44.765625 62.859375 
Q 47.609375 58.5 49.21875 52.21875 
Q 50.828125 45.953125 50.828125 35.296875 
Q 50.828125 22.703125 48.234375 14.96875 
Q 45.65625 7.234375 40.5 3 
Q 35.359375 -1.21875 27.484375 -1.21875 
Q 17.140625 -1.21875 11.234375 6.203125 
Q 4.15625 15.140625 4.15625 35.296875 
z
M 13.1875 35.296875 
Q 13.1875 17.671875 17.3125 11.828125 
Q 21.4375 6 27.484375 6 
Q 33.546875 6 37.671875 11.859375 
Q 41.796875 17.71875 41.796875 35.296875 
Q 41.796875 52.984375 37.671875 58.78125 
Q 33.546875 64.59375 27.390625 64.59375 
Q 21.34375 64.59375 17.71875 59.46875 
Q 13.1875 52.9375 13.1875 35.296875 
z
" id="ArialMT-48"/>
      </defs>
      <g style="fill:#262626;" transform="translate(119.77375 460.5325)scale(0.16 -0.16)">
       <use xlink:href="#ArialMT-48"/>
      </g>
     </g>
    </g>
    <g id="xtick_2">
     <g id="text_2">
      <!-- 1 -->
      <defs>
       <path d="M 37.25 0 
L 28.46875 0 
L 28.46875 56 
Q 25.296875 52.984375 20.140625 49.953125 
Q 14.984375 46.921875 10.890625 45.40625 
L 10.890625 53.90625 
Q 18.265625 57.375 23.78125 62.296875 
Q 29.296875 67.234375 31.59375 71.875 
L 37.25 71.875 
z
" id="ArialMT-49"/>
      </defs>
      <g style="fill:#262626;" transform="translate(231.37375 460.5325)scale(0.16 -0.16)">
       <use xlink:href="#ArialMT-49"/>
      </g>
     </g>
    </g>
    <g id="xtick_3">
     <g id="text_3">
      <!-- 2 -->
      <defs>
       <path d="M 50.34375 8.453125 
L 50.34375 0 
L 3.03125 0 
Q 2.9375 3.171875 4.046875 6.109375 
Q 5.859375 10.9375 9.828125 15.625 
Q 13.8125 20.3125 21.34375 26.46875 
Q 33.015625 36.03125 37.109375 41.625 
Q 41.21875 47.21875 41.21875 52.203125 
Q 41.21875 57.421875 37.46875 61 
Q 33.734375 64.59375 27.734375 64.59375 
Q 21.390625 64.59375 17.578125 60.78125 
Q 13.765625 56.984375 13.71875 50.25 
L 4.6875 51.171875 
Q 5.609375 61.28125 11.65625 66.578125 
Q 17.71875 71.875 27.9375 71.875 
Q 38.234375 71.875 44.234375 66.15625 
Q 50.25 60.453125 50.25 52 
Q 50.25 47.703125 48.484375 43.546875 
Q 46.734375 39.40625 42.65625 34.8125 
Q 38.578125 30.21875 29.109375 22.21875 
Q 21.1875 15.578125 18.9375 13.203125 
Q 16.703125 10.84375 15.234375 8.453125 
z
" id="ArialMT-50"/>
      </defs>
      <g style="fill:#262626;" transform="translate(342.97375 460.5325)scale(0.16 -0.16)">
       <use xlink:href="#ArialMT-50"/>
      </g>
     </g>
    </g>
    <g id="xtick_4">
     <g id="text_4">
      <!-- 3 -->
      <defs>
       <path d="M 4.203125 18.890625 
L 12.984375 20.0625 
Q 14.5 12.59375 18.140625 9.296875 
Q 21.78125 6 27 6 
Q 33.203125 6 37.46875 10.296875 
Q 41.75 14.59375 41.75 20.953125 
Q 41.75 27 37.796875 30.921875 
Q 33.84375 34.859375 27.734375 34.859375 
Q 25.25 34.859375 21.53125 33.890625 
L 22.515625 41.609375 
Q 23.390625 41.5 23.921875 41.5 
Q 29.546875 41.5 34.03125 44.421875 
Q 38.53125 47.359375 38.53125 53.46875 
Q 38.53125 58.296875 35.25 61.46875 
Q 31.984375 64.65625 26.8125 64.65625 
Q 21.6875 64.65625 18.265625 61.421875 
Q 14.84375 58.203125 13.875 51.765625 
L 5.078125 53.328125 
Q 6.6875 62.15625 12.390625 67.015625 
Q 18.109375 71.875 26.609375 71.875 
Q 32.46875 71.875 37.390625 69.359375 
Q 42.328125 66.84375 44.9375 62.5 
Q 47.5625 58.15625 47.5625 53.265625 
Q 47.5625 48.640625 45.0625 44.828125 
Q 42.578125 41.015625 37.703125 38.765625 
Q 44.046875 37.3125 47.5625 32.6875 
Q 51.078125 28.078125 51.078125 21.140625 
Q 51.078125 11.765625 44.234375 5.25 
Q 37.40625 -1.265625 26.953125 -1.265625 
Q 17.53125 -1.265625 11.296875 4.34375 
Q 5.078125 9.96875 4.203125 18.890625 
z
" id="ArialMT-51"/>
      </defs>
      <g style="fill:#262626;" transform="translate(454.57375 460.5325)scale(0.16 -0.16)">
       <use xlink:href="#ArialMT-51"/>
      </g>
     </g>
    </g>
    <g id="xtick_5">
     <g id="text_5">
      <!-- 4 -->
      <defs>
       <path d="M 32.328125 0 
L 32.328125 17.140625 
L 1.265625 17.140625 
L 1.265625 25.203125 
L 33.9375 71.578125 
L 41.109375 71.578125 
L 41.109375 25.203125 
L 50.78125 25.203125 
L 50.78125 17.140625 
L 41.109375 17.140625 
L 41.109375 0 
z
M 32.328125 25.203125 
L 32.328125 57.46875 
L 9.90625 25.203125 
z
" id="ArialMT-52"/>
      </defs>
      <g style="fill:#262626;" transform="translate(566.17375 460.5325)scale(0.16 -0.16)">
       <use xlink:href="#ArialMT-52"/>
      </g>
     </g>
    </g>
    <g id="xtick_6">
     <g id="text_6">
      <!-- 5 -->
      <defs>
       <path d="M 4.15625 18.75 
L 13.375 19.53125 
Q 14.40625 12.796875 18.140625 9.390625 
Q 21.875 6 27.15625 6 
Q 33.5 6 37.890625 10.78125 
Q 42.28125 15.578125 42.28125 23.484375 
Q 42.28125 31 38.0625 35.34375 
Q 33.84375 39.703125 27 39.703125 
Q 22.75 39.703125 19.328125 37.765625 
Q 15.921875 35.84375 13.96875 32.765625 
L 5.71875 33.84375 
L 12.640625 70.609375 
L 48.25 70.609375 
L 48.25 62.203125 
L 19.671875 62.203125 
L 15.828125 42.96875 
Q 22.265625 47.46875 29.34375 47.46875 
Q 38.71875 47.46875 45.15625 40.96875 
Q 51.609375 34.46875 51.609375 24.265625 
Q 51.609375 14.546875 45.953125 7.46875 
Q 39.0625 -1.21875 27.15625 -1.21875 
Q 17.390625 -1.21875 11.203125 4.25 
Q 5.03125 9.71875 4.15625 18.75 
z
" id="ArialMT-53"/>
      </defs>
      <g style="fill:#262626;" transform="translate(677.77375 460.5325)scale(0.16 -0.16)">
       <use xlink:href="#ArialMT-53"/>
      </g>
     </g>
    </g>
    <g id="text_7">
     <!-- Route -->
     <defs>
      <path d="M 7.859375 0 
L 7.859375 71.578125 
L 39.59375 71.578125 
Q 49.171875 71.578125 54.140625 69.640625 
Q 59.125 67.71875 62.109375 62.828125 
Q 65.09375 57.953125 65.09375 52.046875 
Q 65.09375 44.4375 60.15625 39.203125 
Q 55.21875 33.984375 44.921875 32.5625 
Q 48.6875 30.765625 50.640625 29 
Q 54.78125 25.203125 58.5 19.484375 
L 70.953125 0 
L 59.03125 0 
L 49.5625 14.890625 
Q 45.40625 21.34375 42.71875 24.75 
Q 40.046875 28.171875 37.921875 29.53125 
Q 35.796875 30.90625 33.59375 31.453125 
Q 31.984375 31.78125 28.328125 31.78125 
L 17.328125 31.78125 
L 17.328125 0 
z
M 17.328125 39.984375 
L 37.703125 39.984375 
Q 44.1875 39.984375 47.84375 41.328125 
Q 51.515625 42.671875 53.421875 45.625 
Q 55.328125 48.578125 55.328125 52.046875 
Q 55.328125 57.125 51.640625 60.390625 
Q 47.953125 63.671875 39.984375 63.671875 
L 17.328125 63.671875 
z
" id="ArialMT-82"/>
      <path d="M 3.328125 25.921875 
Q 3.328125 40.328125 11.328125 47.265625 
Q 18.015625 53.03125 27.640625 53.03125 
Q 38.328125 53.03125 45.109375 46.015625 
Q 51.90625 39.015625 51.90625 26.65625 
Q 51.90625 16.65625 48.90625 10.90625 
Q 45.90625 5.171875 40.15625 2 
Q 34.421875 -1.171875 27.640625 -1.171875 
Q 16.75 -1.171875 10.03125 5.8125 
Q 3.328125 12.796875 3.328125 25.921875 
z
M 12.359375 25.921875 
Q 12.359375 15.96875 16.703125 11.015625 
Q 21.046875 6.0625 27.640625 6.0625 
Q 34.1875 6.0625 38.53125 11.03125 
Q 42.875 16.015625 42.875 26.21875 
Q 42.875 35.84375 38.5 40.796875 
Q 34.125 45.75 27.640625 45.75 
Q 21.046875 45.75 16.703125 40.8125 
Q 12.359375 35.890625 12.359375 25.921875 
z
" id="ArialMT-111"/>
      <path d="M 40.578125 0 
L 40.578125 7.625 
Q 34.515625 -1.171875 24.125 -1.171875 
Q 19.53125 -1.171875 15.546875 0.578125 
Q 11.578125 2.34375 9.640625 5 
Q 7.71875 7.671875 6.9375 11.53125 
Q 6.390625 14.109375 6.390625 19.734375 
L 6.390625 51.859375 
L 15.1875 51.859375 
L 15.1875 23.09375 
Q 15.1875 16.21875 15.71875 13.8125 
Q 16.546875 10.359375 19.234375 8.375 
Q 21.921875 6.390625 25.875 6.390625 
Q 29.828125 6.390625 33.296875 8.421875 
Q 36.765625 10.453125 38.203125 13.9375 
Q 39.65625 17.4375 39.65625 24.078125 
L 39.65625 51.859375 
L 48.4375 51.859375 
L 48.4375 0 
z
" id="ArialMT-117"/>
      <path d="M 25.78125 7.859375 
L 27.046875 0.09375 
Q 23.34375 -0.6875 20.40625 -0.6875 
Q 15.625 -0.6875 12.984375 0.828125 
Q 10.359375 2.34375 9.28125 4.8125 
Q 8.203125 7.28125 8.203125 15.1875 
L 8.203125 45.015625 
L 1.765625 45.015625 
L 1.765625 51.859375 
L 8.203125 51.859375 
L 8.203125 64.703125 
L 16.9375 69.96875 
L 16.9375 51.859375 
L 25.78125 51.859375 
L 25.78125 45.015625 
L 16.9375 45.015625 
L 16.9375 14.703125 
Q 16.9375 10.9375 17.40625 9.859375 
Q 17.875 8.796875 18.921875 8.15625 
Q 19.96875 7.515625 21.921875 7.515625 
Q 23.390625 7.515625 25.78125 7.859375 
z
" id="ArialMT-116"/>
      <path d="M 42.09375 16.703125 
L 51.171875 15.578125 
Q 49.03125 7.625 43.21875 3.21875 
Q 37.40625 -1.171875 28.375 -1.171875 
Q 17 -1.171875 10.328125 5.828125 
Q 3.65625 12.84375 3.65625 25.484375 
Q 3.65625 38.578125 10.390625 45.796875 
Q 17.140625 53.03125 27.875 53.03125 
Q 38.28125 53.03125 44.875 45.953125 
Q 51.46875 38.875 51.46875 26.03125 
Q 51.46875 25.25 51.421875 23.6875 
L 12.75 23.6875 
Q 13.234375 15.140625 17.578125 10.59375 
Q 21.921875 6.0625 28.421875 6.0625 
Q 33.25 6.0625 36.671875 8.59375 
Q 40.09375 11.140625 42.09375 16.703125 
z
M 13.234375 30.90625 
L 42.1875 30.90625 
Q 41.609375 37.453125 38.875 40.71875 
Q 34.671875 45.796875 27.984375 45.796875 
Q 21.921875 45.796875 17.796875 41.75 
Q 13.671875 37.703125 13.234375 30.90625 
z
" id="ArialMT-101"/>
     </defs>
     <g style="fill:#262626;" transform="translate(381.87625 479.165)scale(0.16 -0.16)">
      <use xlink:href="#ArialMT-82"/>
      <use x="72.216797" xlink:href="#ArialMT-111"/>
      <use x="127.832031" xlink:href="#ArialMT-117"/>
      <use x="183.447266" xlink:href="#ArialMT-116"/>
      <use x="211.230469" xlink:href="#ArialMT-101"/>
     </g>
    </g>
   </g>
   <g id="matplotlib.axis_2">
    <g id="ytick_1">
     <g id="text_8">
      <!-- 500 -->
      <g style="fill:#262626;" transform="translate(34.73 388.115714)scale(0.16 -0.16)">
       <use xlink:href="#ArialMT-53"/>
       <use x="55.615234" xlink:href="#ArialMT-48"/>
       <use x="111.230469" xlink:href="#ArialMT-48"/>
      </g>
     </g>
    </g>
    <g id="ytick_2">
     <g id="text_9">
      <!-- 750 -->
      <defs>
       <path d="M 4.734375 62.203125 
L 4.734375 70.65625 
L 51.078125 70.65625 
L 51.078125 63.8125 
Q 44.234375 56.546875 37.515625 44.484375 
Q 30.8125 32.421875 27.15625 19.671875 
Q 24.515625 10.6875 23.78125 0 
L 14.75 0 
Q 14.890625 8.453125 18.0625 20.40625 
Q 21.234375 32.375 27.171875 43.484375 
Q 33.109375 54.59375 39.796875 62.203125 
z
" id="ArialMT-55"/>
      </defs>
      <g style="fill:#262626;" transform="translate(34.73 327.776897)scale(0.16 -0.16)">
       <use xlink:href="#ArialMT-55"/>
       <use x="55.615234" xlink:href="#ArialMT-53"/>
       <use x="111.230469" xlink:href="#ArialMT-48"/>
      </g>
     </g>
    </g>
    <g id="ytick_3">
     <g id="text_10">
      <!-- 1000 -->
      <g style="fill:#262626;" transform="translate(25.8325 267.438079)scale(0.16 -0.16)">
       <use xlink:href="#ArialMT-49"/>
       <use x="55.615234" xlink:href="#ArialMT-48"/>
       <use x="111.230469" xlink:href="#ArialMT-48"/>
       <use x="166.845703" xlink:href="#ArialMT-48"/>
      </g>
     </g>
    </g>
    <g id="ytick_4">
     <g id="text_11">
      <!-- 1250 -->
      <g style="fill:#262626;" transform="translate(25.8325 207.099262)scale(0.16 -0.16)">
       <use xlink:href="#ArialMT-49"/>
       <use x="55.615234" xlink:href="#ArialMT-50"/>
       <use x="111.230469" xlink:href="#ArialMT-53"/>
       <use x="166.845703" xlink:href="#ArialMT-48"/>
      </g>
     </g>
    </g>
    <g id="ytick_5">
     <g id="text_12">
      <!-- 1500 -->
      <g style="fill:#262626;" transform="translate(25.8325 146.760445)scale(0.16 -0.16)">
       <use xlink:href="#ArialMT-49"/>
       <use x="55.615234" xlink:href="#ArialMT-53"/>
       <use x="111.230469" xlink:href="#ArialMT-48"/>
       <use x="166.845703" xlink:href="#ArialMT-48"/>
      </g>
     </g>
    </g>
    <g id="ytick_6">
     <g id="text_13">
      <!-- 1750 -->
      <g style="fill:#262626;" transform="translate(25.8325 86.421627)scale(0.16 -0.16)">
       <use xlink:href="#ArialMT-49"/>
       <use x="55.615234" xlink:href="#ArialMT-55"/>
       <use x="111.230469" xlink:href="#ArialMT-53"/>
       <use x="166.845703" xlink:href="#ArialMT-48"/>
      </g>
     </g>
    </g>
    <g id="ytick_7">
     <g id="text_14">
      <!-- 2000 -->
      <g style="fill:#262626;" transform="translate(25.8325 26.08281)scale(0.16 -0.16)">
       <use xlink:href="#ArialMT-50"/>
       <use x="55.615234" xlink:href="#ArialMT-48"/>
       <use x="111.230469" xlink:href="#ArialMT-48"/>
       <use x="166.845703" xlink:href="#ArialMT-48"/>
      </g>
     </g>
    </g>
    <g id="text_15">
     <!-- Duration [s] -->
     <defs>
      <path d="M 7.71875 0 
L 7.71875 71.578125 
L 32.375 71.578125 
Q 40.71875 71.578125 45.125 70.5625 
Q 51.265625 69.140625 55.609375 65.4375 
Q 61.28125 60.640625 64.078125 53.1875 
Q 66.890625 45.75 66.890625 36.1875 
Q 66.890625 28.03125 64.984375 21.734375 
Q 63.09375 15.4375 60.109375 11.296875 
Q 57.125 7.171875 53.578125 4.796875 
Q 50.046875 2.4375 45.046875 1.21875 
Q 40.046875 0 33.546875 0 
z
M 17.1875 8.453125 
L 32.46875 8.453125 
Q 39.546875 8.453125 43.578125 9.765625 
Q 47.609375 11.078125 50 13.484375 
Q 53.375 16.84375 55.25 22.53125 
Q 57.125 28.21875 57.125 36.328125 
Q 57.125 47.5625 53.4375 53.59375 
Q 49.75 59.625 44.484375 61.671875 
Q 40.671875 63.140625 32.234375 63.140625 
L 17.1875 63.140625 
z
" id="ArialMT-68"/>
      <path d="M 6.5 0 
L 6.5 51.859375 
L 14.40625 51.859375 
L 14.40625 44 
Q 17.4375 49.515625 20 51.265625 
Q 22.5625 53.03125 25.640625 53.03125 
Q 30.078125 53.03125 34.671875 50.203125 
L 31.640625 42.046875 
Q 28.421875 43.953125 25.203125 43.953125 
Q 22.3125 43.953125 20.015625 42.21875 
Q 17.71875 40.484375 16.75 37.40625 
Q 15.28125 32.71875 15.28125 27.15625 
L 15.28125 0 
z
" id="ArialMT-114"/>
      <path d="M 40.4375 6.390625 
Q 35.546875 2.25 31.03125 0.53125 
Q 26.515625 -1.171875 21.34375 -1.171875 
Q 12.796875 -1.171875 8.203125 3 
Q 3.609375 7.171875 3.609375 13.671875 
Q 3.609375 17.484375 5.34375 20.625 
Q 7.078125 23.78125 9.890625 25.6875 
Q 12.703125 27.59375 16.21875 28.5625 
Q 18.796875 29.25 24.03125 29.890625 
Q 34.671875 31.15625 39.703125 32.90625 
Q 39.75 34.71875 39.75 35.203125 
Q 39.75 40.578125 37.25 42.78125 
Q 33.890625 45.75 27.25 45.75 
Q 21.046875 45.75 18.09375 43.578125 
Q 15.140625 41.40625 13.71875 35.890625 
L 5.125 37.0625 
Q 6.296875 42.578125 8.984375 45.96875 
Q 11.671875 49.359375 16.75 51.1875 
Q 21.828125 53.03125 28.515625 53.03125 
Q 35.15625 53.03125 39.296875 51.46875 
Q 43.453125 49.90625 45.40625 47.53125 
Q 47.359375 45.171875 48.140625 41.546875 
Q 48.578125 39.3125 48.578125 33.453125 
L 48.578125 21.734375 
Q 48.578125 9.46875 49.140625 6.21875 
Q 49.703125 2.984375 51.375 0 
L 42.1875 0 
Q 40.828125 2.734375 40.4375 6.390625 
z
M 39.703125 26.03125 
Q 34.90625 24.078125 25.34375 22.703125 
Q 19.921875 21.921875 17.671875 20.9375 
Q 15.4375 19.96875 14.203125 18.09375 
Q 12.984375 16.21875 12.984375 13.921875 
Q 12.984375 10.40625 15.640625 8.0625 
Q 18.3125 5.71875 23.4375 5.71875 
Q 28.515625 5.71875 32.46875 7.9375 
Q 36.421875 10.15625 38.28125 14.015625 
Q 39.703125 17 39.703125 22.796875 
z
" id="ArialMT-97"/>
      <path d="M 6.640625 61.46875 
L 6.640625 71.578125 
L 15.4375 71.578125 
L 15.4375 61.46875 
z
M 6.640625 0 
L 6.640625 51.859375 
L 15.4375 51.859375 
L 15.4375 0 
z
" id="ArialMT-105"/>
      <path d="M 6.59375 0 
L 6.59375 51.859375 
L 14.5 51.859375 
L 14.5 44.484375 
Q 20.21875 53.03125 31 53.03125 
Q 35.6875 53.03125 39.625 51.34375 
Q 43.5625 49.65625 45.515625 46.921875 
Q 47.46875 44.1875 48.25 40.4375 
Q 48.734375 37.984375 48.734375 31.890625 
L 48.734375 0 
L 39.9375 0 
L 39.9375 31.546875 
Q 39.9375 36.921875 38.90625 39.578125 
Q 37.890625 42.234375 35.28125 43.8125 
Q 32.671875 45.40625 29.15625 45.40625 
Q 23.53125 45.40625 19.453125 41.84375 
Q 15.375 38.28125 15.375 28.328125 
L 15.375 0 
z
" id="ArialMT-110"/>
      <path id="ArialMT-32"/>
      <path d="M 6.78125 -19.875 
L 6.78125 71.578125 
L 26.171875 71.578125 
L 26.171875 64.3125 
L 15.578125 64.3125 
L 15.578125 -12.59375 
L 26.171875 -12.59375 
L 26.171875 -19.875 
z
" id="ArialMT-91"/>
      <path d="M 3.078125 15.484375 
L 11.765625 16.84375 
Q 12.5 11.625 15.84375 8.84375 
Q 19.1875 6.0625 25.203125 6.0625 
Q 31.25 6.0625 34.171875 8.515625 
Q 37.109375 10.984375 37.109375 14.3125 
Q 37.109375 17.28125 34.515625 19 
Q 32.71875 20.171875 25.53125 21.96875 
Q 15.875 24.421875 12.140625 26.203125 
Q 8.40625 27.984375 6.46875 31.125 
Q 4.546875 34.28125 4.546875 38.09375 
Q 4.546875 41.546875 6.125 44.5 
Q 7.71875 47.46875 10.453125 49.421875 
Q 12.5 50.921875 16.03125 51.96875 
Q 19.578125 53.03125 23.640625 53.03125 
Q 29.734375 53.03125 34.34375 51.265625 
Q 38.96875 49.515625 41.15625 46.5 
Q 43.359375 43.5 44.1875 38.484375 
L 35.59375 37.3125 
Q 35.015625 41.3125 32.203125 43.546875 
Q 29.390625 45.796875 24.265625 45.796875 
Q 18.21875 45.796875 15.625 43.796875 
Q 13.03125 41.796875 13.03125 39.109375 
Q 13.03125 37.40625 14.109375 36.03125 
Q 15.1875 34.625 17.484375 33.6875 
Q 18.796875 33.203125 25.25 31.453125 
Q 34.578125 28.953125 38.25 27.359375 
Q 41.9375 25.78125 44.03125 22.75 
Q 46.140625 19.734375 46.140625 15.234375 
Q 46.140625 10.84375 43.578125 6.953125 
Q 41.015625 3.078125 36.171875 0.953125 
Q 31.34375 -1.171875 25.25 -1.171875 
Q 15.140625 -1.171875 9.84375 3.03125 
Q 4.546875 7.234375 3.078125 15.484375 
z
" id="ArialMT-115"/>
      <path d="M 21.296875 -19.875 
L 1.90625 -19.875 
L 1.90625 -12.59375 
L 12.5 -12.59375 
L 12.5 64.3125 
L 1.90625 64.3125 
L 1.90625 71.578125 
L 21.296875 71.578125 
z
" id="ArialMT-93"/>
     </defs>
     <g style="fill:#262626;" transform="translate(18.6525 265.54375)rotate(-90)scale(0.16 -0.16)">
      <use xlink:href="#ArialMT-68"/>
      <use x="72.216797" xlink:href="#ArialMT-117"/>
      <use x="127.832031" xlink:href="#ArialMT-114"/>
      <use x="161.132812" xlink:href="#ArialMT-97"/>
      <use x="216.748047" xlink:href="#ArialMT-116"/>
      <use x="244.53125" xlink:href="#ArialMT-105"/>
      <use x="266.748047" xlink:href="#ArialMT-111"/>
      <use x="322.363281" xlink:href="#ArialMT-110"/>
      <use x="377.978516" xlink:href="#ArialMT-32"/>
      <use x="405.761719" xlink:href="#ArialMT-91"/>
      <use x="433.544922" xlink:href="#ArialMT-115"/>
      <use x="483.544922" xlink:href="#ArialMT-93"/>
     </g>
    </g>
   </g>
   <g id="PolyCollection_1">
    <defs>
     <path d="M 124.234625 -145.687067 
L 124.210375 -145.687067 
L 124.180635 -147.487985 
L 124.097224 -149.288902 
L 123.895227 -151.089819 
L 123.470285 -152.890737 
L 122.689886 -154.691654 
L 121.435832 -156.492571 
L 119.672847 -158.293489 
L 117.504742 -160.094406 
L 115.163317 -161.895323 
L 112.918521 -163.69624 
L 110.969226 -165.497158 
L 109.383901 -167.298075 
L 108.104677 -169.098992 
L 106.990359 -170.89991 
L 105.884326 -172.700827 
L 104.698203 -174.501744 
L 103.468654 -176.302661 
L 102.330109 -178.103579 
L 101.413213 -179.904496 
L 100.7605 -181.705413 
L 100.331598 -183.506331 
L 100.077095 -185.307248 
L 100.009557 -187.108165 
L 100.220722 -188.909082 
L 100.835634 -190.71 
L 101.930818 -192.510917 
L 103.473773 -194.311834 
L 105.337758 -196.112752 
L 107.380147 -197.913669 
L 109.505774 -199.714586 
L 111.660261 -201.515503 
L 113.778188 -203.316421 
L 115.750493 -205.117338 
L 117.452614 -206.918255 
L 118.812317 -208.719173 
L 119.847 -210.52009 
L 120.633595 -212.321007 
L 121.251385 -214.121925 
L 121.751221 -215.922842 
L 122.156652 -217.723759 
L 122.47622 -219.524676 
L 122.716163 -221.325594 
L 122.889935 -223.126511 
L 123.018616 -224.927428 
L 123.121466 -226.728346 
L 123.207428 -228.529263 
L 123.27842 -230.33018 
L 123.339282 -232.131097 
L 123.398885 -233.932015 
L 123.46032 -235.732932 
L 123.515083 -237.533849 
L 123.55002 -239.334767 
L 123.559097 -241.135684 
L 123.549258 -242.936601 
L 123.536975 -244.737518 
L 123.538155 -246.538436 
L 123.559159 -248.339353 
L 123.596345 -250.14027 
L 123.64225 -251.941188 
L 123.690783 -253.742105 
L 123.738116 -255.543022 
L 123.781155 -257.34394 
L 123.816012 -259.144857 
L 123.838106 -260.945774 
L 123.844227 -262.746691 
L 123.835477 -264.547609 
L 123.818668 -266.348526 
L 123.803456 -268.149443 
L 123.795589 -269.950361 
L 123.792208 -271.751278 
L 123.785749 -273.552195 
L 123.77386 -275.353112 
L 123.763352 -277.15403 
L 123.761939 -278.954947 
L 123.768366 -280.755864 
L 123.775651 -282.556782 
L 123.784085 -284.357699 
L 123.804497 -286.158616 
L 123.844732 -287.959533 
L 123.898134 -289.760451 
L 123.950711 -291.561368 
L 123.99546 -293.362285 
L 124.03413 -295.163203 
L 124.068561 -296.96412 
L 124.096492 -298.765037 
L 124.115177 -300.565954 
L 124.125273 -302.366872 
L 124.131055 -304.167789 
L 124.138224 -305.968706 
L 124.15045 -307.769624 
L 124.166432 -309.570541 
L 124.18087 -311.371458 
L 124.18951 -313.172376 
L 124.193092 -314.973293 
L 124.195912 -316.77421 
L 124.201119 -318.575127 
L 124.208238 -320.376045 
L 124.214816 -322.176962 
L 124.219185 -323.977879 
L 124.225815 -323.977879 
L 124.225815 -323.977879 
L 124.230184 -322.176962 
L 124.236762 -320.376045 
L 124.243881 -318.575127 
L 124.249088 -316.77421 
L 124.251908 -314.973293 
L 124.25549 -313.172376 
L 124.26413 -311.371458 
L 124.278568 -309.570541 
L 124.29455 -307.769624 
L 124.306776 -305.968706 
L 124.313945 -304.167789 
L 124.319727 -302.366872 
L 124.329823 -300.565954 
L 124.348508 -298.765037 
L 124.376439 -296.96412 
L 124.41087 -295.163203 
L 124.44954 -293.362285 
L 124.494289 -291.561368 
L 124.546866 -289.760451 
L 124.600268 -287.959533 
L 124.640503 -286.158616 
L 124.660915 -284.357699 
L 124.669349 -282.556782 
L 124.676634 -280.755864 
L 124.683061 -278.954947 
L 124.681648 -277.15403 
L 124.67114 -275.353112 
L 124.659251 -273.552195 
L 124.652792 -271.751278 
L 124.649411 -269.950361 
L 124.641544 -268.149443 
L 124.626332 -266.348526 
L 124.609523 -264.547609 
L 124.600773 -262.746691 
L 124.606894 -260.945774 
L 124.628988 -259.144857 
L 124.663845 -257.34394 
L 124.706884 -255.543022 
L 124.754217 -253.742105 
L 124.80275 -251.941188 
L 124.848655 -250.14027 
L 124.885841 -248.339353 
L 124.906845 -246.538436 
L 124.908025 -244.737518 
L 124.895742 -242.936601 
L 124.885903 -241.135684 
L 124.89498 -239.334767 
L 124.929917 -237.533849 
L 124.98468 -235.732932 
L 125.046115 -233.932015 
L 125.105718 -232.131097 
L 125.16658 -230.33018 
L 125.237572 -228.529263 
L 125.323534 -226.728346 
L 125.426384 -224.927428 
L 125.555065 -223.126511 
L 125.728837 -221.325594 
L 125.96878 -219.524676 
L 126.288348 -217.723759 
L 126.693779 -215.922842 
L 127.193615 -214.121925 
L 127.811405 -212.321007 
L 128.598 -210.52009 
L 129.632683 -208.719173 
L 130.992386 -206.918255 
L 132.694507 -205.117338 
L 134.666812 -203.316421 
L 136.784739 -201.515503 
L 138.939226 -199.714586 
L 141.064853 -197.913669 
L 143.107242 -196.112752 
L 144.971227 -194.311834 
L 146.514182 -192.510917 
L 147.609366 -190.71 
L 148.224278 -188.909082 
L 148.435443 -187.108165 
L 148.367905 -185.307248 
L 148.113402 -183.506331 
L 147.6845 -181.705413 
L 147.031787 -179.904496 
L 146.114891 -178.103579 
L 144.976346 -176.302661 
L 143.746797 -174.501744 
L 142.560674 -172.700827 
L 141.454641 -170.89991 
L 140.340323 -169.098992 
L 139.061099 -167.298075 
L 137.475774 -165.497158 
L 135.526479 -163.69624 
L 133.281683 -161.895323 
L 130.940258 -160.094406 
L 128.772153 -158.293489 
L 127.009168 -156.492571 
L 125.755114 -154.691654 
L 124.974715 -152.890737 
L 124.549773 -151.089819 
L 124.347776 -149.288902 
L 124.264365 -147.487985 
L 124.234625 -145.687067 
z
" id="m0fcd7bd8b0" style="stroke:#373737;stroke-width:1.5;"/>
    </defs>
    <g clip-path="url(#pa7cf2730e6)">
     <use style="fill:#2b8e70;stroke:#373737;stroke-width:1.5;" x="0" xlink:href="#m0fcd7bd8b0" y="489.545"/>
    </g>
   </g>
   <g id="PolyCollection_2">
    <defs>
     <path d="M 235.841353 -77.866522 
L 235.803647 -77.866522 
L 235.767334 -78.670319 
L 235.68689 -79.474117 
L 235.536217 -80.277914 
L 235.290164 -81.081711 
L 234.922337 -81.885509 
L 234.381359 -82.689306 
L 233.552299 -83.493103 
L 232.251701 -84.296901 
L 230.306613 -85.100698 
L 227.682043 -85.904495 
L 224.532976 -86.708293 
L 221.113468 -87.51209 
L 217.645101 -88.315887 
L 214.291473 -89.119685 
L 211.218155 -89.923482 
L 208.600783 -90.727279 
L 206.560901 -91.531077 
L 205.134551 -92.334874 
L 204.301555 -93.138671 
L 203.994001 -93.942469 
L 204.058969 -94.746266 
L 204.245128 -95.550063 
L 204.245374 -96.353861 
L 203.771965 -97.157658 
L 202.657429 -97.961455 
L 200.936955 -98.765253 
L 198.825012 -99.56905 
L 196.604601 -100.372847 
L 194.543822 -101.176645 
L 192.870411 -101.980442 
L 191.743581 -102.784239 
L 191.207998 -103.588037 
L 191.1825 -104.391834 
L 191.541668 -105.195631 
L 192.272382 -105.999429 
L 193.552197 -106.803226 
L 195.626243 -107.607023 
L 198.59661 -108.410821 
L 202.321434 -109.214618 
L 206.4674 -110.018415 
L 210.64749 -110.822213 
L 214.557198 -111.62601 
L 218.036889 -112.429807 
L 221.050378 -113.233605 
L 223.620676 -114.037402 
L 225.774811 -114.841199 
L 227.535195 -115.644997 
L 228.945471 -116.448794 
L 230.086765 -117.252591 
L 231.057589 -118.056389 
L 231.929156 -118.860186 
L 232.720771 -119.663983 
L 233.413634 -120.467781 
L 233.969922 -121.271578 
L 234.348567 -122.075375 
L 234.542614 -122.879173 
L 234.613594 -123.68297 
L 234.667915 -124.486767 
L 234.78415 -125.290565 
L 234.960546 -126.094362 
L 235.132251 -126.898159 
L 235.241602 -127.701957 
L 235.291964 -128.505754 
L 235.3297 -129.309551 
L 235.38279 -130.113349 
L 235.435321 -130.917146 
L 235.45973 -131.720943 
L 235.45333 -132.524741 
L 235.437721 -133.328538 
L 235.435838 -134.132335 
L 235.456085 -134.936133 
L 235.491784 -135.73993 
L 235.530805 -136.543727 
L 235.56633 -137.347525 
L 235.597831 -138.151322 
L 235.62422 -138.955119 
L 235.643485 -139.758917 
L 235.658396 -140.562714 
L 235.674047 -141.366511 
L 235.689238 -142.170309 
L 235.695857 -142.974106 
L 235.686292 -143.777903 
L 235.660283 -144.581701 
L 235.628627 -145.385498 
L 235.609785 -146.189295 
L 235.616473 -146.993093 
L 235.643629 -147.79689 
L 235.672103 -148.600687 
L 235.685613 -149.404485 
L 235.684258 -150.208282 
L 235.680324 -151.012079 
L 235.681398 -151.815877 
L 235.683733 -152.619674 
L 235.684756 -153.423472 
L 235.692736 -154.227269 
L 235.716491 -155.031066 
L 235.751773 -155.834864 
L 235.785031 -156.638661 
L 235.806917 -157.442458 
L 235.838083 -157.442458 
L 235.838083 -157.442458 
L 235.859969 -156.638661 
L 235.893227 -155.834864 
L 235.928509 -155.031066 
L 235.952264 -154.227269 
L 235.960244 -153.423472 
L 235.961267 -152.619674 
L 235.963602 -151.815877 
L 235.964676 -151.012079 
L 235.960742 -150.208282 
L 235.959387 -149.404485 
L 235.972897 -148.600687 
L 236.001371 -147.79689 
L 236.028527 -146.993093 
L 236.035215 -146.189295 
L 236.016373 -145.385498 
L 235.984717 -144.581701 
L 235.958708 -143.777903 
L 235.949143 -142.974106 
L 235.955762 -142.170309 
L 235.970953 -141.366511 
L 235.986604 -140.562714 
L 236.001515 -139.758917 
L 236.02078 -138.955119 
L 236.047169 -138.151322 
L 236.07867 -137.347525 
L 236.114195 -136.543727 
L 236.153216 -135.73993 
L 236.188915 -134.936133 
L 236.209162 -134.132335 
L 236.207279 -133.328538 
L 236.19167 -132.524741 
L 236.18527 -131.720943 
L 236.209679 -130.917146 
L 236.26221 -130.113349 
L 236.3153 -129.309551 
L 236.353036 -128.505754 
L 236.403398 -127.701957 
L 236.512749 -126.898159 
L 236.684454 -126.094362 
L 236.86085 -125.290565 
L 236.977085 -124.486767 
L 237.031406 -123.68297 
L 237.102386 -122.879173 
L 237.296433 -122.075375 
L 237.675078 -121.271578 
L 238.231366 -120.467781 
L 238.924229 -119.663983 
L 239.715844 -118.860186 
L 240.587411 -118.056389 
L 241.558235 -117.252591 
L 242.699529 -116.448794 
L 244.109805 -115.644997 
L 245.870189 -114.841199 
L 248.024324 -114.037402 
L 250.594622 -113.233605 
L 253.608111 -112.429807 
L 257.087802 -111.62601 
L 260.99751 -110.822213 
L 265.1776 -110.018415 
L 269.323566 -109.214618 
L 273.04839 -108.410821 
L 276.018757 -107.607023 
L 278.092803 -106.803226 
L 279.372618 -105.999429 
L 280.103332 -105.195631 
L 280.4625 -104.391834 
L 280.437002 -103.588037 
L 279.901419 -102.784239 
L 278.774589 -101.980442 
L 277.101178 -101.176645 
L 275.040399 -100.372847 
L 272.819988 -99.56905 
L 270.708045 -98.765253 
L 268.987571 -97.961455 
L 267.873035 -97.157658 
L 267.399626 -96.353861 
L 267.399872 -95.550063 
L 267.586031 -94.746266 
L 267.650999 -93.942469 
L 267.343445 -93.138671 
L 266.510449 -92.334874 
L 265.084099 -91.531077 
L 263.044217 -90.727279 
L 260.426845 -89.923482 
L 257.353527 -89.119685 
L 253.999899 -88.315887 
L 250.531532 -87.51209 
L 247.112024 -86.708293 
L 243.962957 -85.904495 
L 241.338387 -85.100698 
L 239.393299 -84.296901 
L 238.092701 -83.493103 
L 237.263641 -82.689306 
L 236.722663 -81.885509 
L 236.354836 -81.081711 
L 236.108783 -80.277914 
L 235.95811 -79.474117 
L 235.877666 -78.670319 
L 235.841353 -77.866522 
z
" id="mee71204862" style="stroke:#373737;stroke-width:1.5;"/>
    </defs>
    <g clip-path="url(#pa7cf2730e6)">
     <use style="fill:#be631d;stroke:#373737;stroke-width:1.5;" x="0" xlink:href="#mee71204862" y="489.545"/>
    </g>
   </g>
   <g id="PolyCollection_3">
    <defs>
     <path d="M 347.436229 -78.632968 
L 347.408771 -78.632968 
L 347.351754 -81.276548 
L 347.141885 -83.920128 
L 346.506769 -86.563708 
L 344.997876 -89.207287 
L 342.338884 -91.850867 
L 338.891434 -94.494447 
L 335.473931 -97.138027 
L 332.443089 -99.781607 
L 329.273658 -102.425187 
L 325.67873 -105.068766 
L 322.651435 -107.712346 
L 321.705606 -110.355926 
L 323.317282 -112.999506 
L 326.172362 -115.643086 
L 328.180476 -118.286666 
L 328.441554 -120.930245 
L 327.621102 -123.573825 
L 327.101941 -126.217405 
L 328.210316 -128.860985 
L 331.098393 -131.504565 
L 334.640211 -134.148145 
L 337.754368 -136.791725 
L 340.119961 -139.435304 
L 341.862131 -142.078884 
L 343.096061 -144.722464 
L 343.894617 -147.366044 
L 344.383358 -150.009624 
L 344.728448 -152.653204 
L 345.098231 -155.296783 
L 345.550843 -157.940363 
L 345.983997 -160.583943 
L 346.299716 -163.227523 
L 346.481581 -165.871103 
L 346.539777 -168.514683 
L 346.554513 -171.158262 
L 346.632625 -173.801842 
L 346.764995 -176.445422 
L 346.867879 -179.089002 
L 346.915193 -181.732582 
L 346.958358 -184.376162 
L 347.053049 -187.019741 
L 347.162211 -189.663321 
L 347.214222 -192.306901 
L 347.212823 -194.950481 
L 347.213031 -197.594061 
L 347.250757 -200.237641 
L 347.310698 -202.88122 
L 347.356727 -205.5248 
L 347.37771 -208.16838 
L 347.384816 -210.81196 
L 347.384231 -213.45554 
L 347.370284 -216.09912 
L 347.351414 -218.7427 
L 347.348308 -221.386279 
L 347.360804 -224.029859 
L 347.372756 -226.673439 
L 347.379103 -229.317019 
L 347.385011 -231.960599 
L 347.392538 -234.604179 
L 347.395151 -237.247758 
L 347.394048 -239.891338 
L 347.400288 -242.534918 
L 347.411519 -245.178498 
L 347.41599 -247.822078 
L 347.407488 -250.465658 
L 347.387907 -253.109237 
L 347.372056 -255.752817 
L 347.373394 -258.396397 
L 347.381944 -261.039977 
L 347.383978 -263.683557 
L 347.380719 -266.327137 
L 347.37326 -268.970716 
L 347.363815 -271.614296 
L 347.361986 -274.257876 
L 347.374919 -276.901456 
L 347.396721 -279.545036 
L 347.413584 -282.188616 
L 347.420626 -284.832196 
L 347.422267 -287.475775 
L 347.422483 -290.119355 
L 347.422499 -292.762935 
L 347.4225 -295.406515 
L 347.4225 -298.050095 
L 347.4225 -300.693675 
L 347.4225 -303.337254 
L 347.4225 -305.980834 
L 347.4225 -308.624414 
L 347.4225 -311.267994 
L 347.4225 -313.911574 
L 347.4225 -316.555154 
L 347.422491 -319.198733 
L 347.422369 -321.842313 
L 347.421359 -324.485893 
L 347.416854 -327.129473 
L 347.406605 -329.773053 
L 347.397033 -332.416633 
L 347.399279 -335.060212 
L 347.410451 -337.703792 
L 347.418942 -340.347372 
L 347.426058 -340.347372 
L 347.426058 -340.347372 
L 347.434549 -337.703792 
L 347.445721 -335.060212 
L 347.447967 -332.416633 
L 347.438395 -329.773053 
L 347.428146 -327.129473 
L 347.423641 -324.485893 
L 347.422631 -321.842313 
L 347.422509 -319.198733 
L 347.4225 -316.555154 
L 347.4225 -313.911574 
L 347.4225 -311.267994 
L 347.4225 -308.624414 
L 347.4225 -305.980834 
L 347.4225 -303.337254 
L 347.4225 -300.693675 
L 347.4225 -298.050095 
L 347.4225 -295.406515 
L 347.422501 -292.762935 
L 347.422517 -290.119355 
L 347.422733 -287.475775 
L 347.424374 -284.832196 
L 347.431416 -282.188616 
L 347.448279 -279.545036 
L 347.470081 -276.901456 
L 347.483014 -274.257876 
L 347.481185 -271.614296 
L 347.47174 -268.970716 
L 347.464281 -266.327137 
L 347.461022 -263.683557 
L 347.463056 -261.039977 
L 347.471606 -258.396397 
L 347.472944 -255.752817 
L 347.457093 -253.109237 
L 347.437512 -250.465658 
L 347.42901 -247.822078 
L 347.433481 -245.178498 
L 347.444712 -242.534918 
L 347.450952 -239.891338 
L 347.449849 -237.247758 
L 347.452462 -234.604179 
L 347.459989 -231.960599 
L 347.465897 -229.317019 
L 347.472244 -226.673439 
L 347.484196 -224.029859 
L 347.496692 -221.386279 
L 347.493586 -218.7427 
L 347.474716 -216.09912 
L 347.460769 -213.45554 
L 347.460184 -210.81196 
L 347.46729 -208.16838 
L 347.488273 -205.5248 
L 347.534302 -202.88122 
L 347.594243 -200.237641 
L 347.631969 -197.594061 
L 347.632177 -194.950481 
L 347.630778 -192.306901 
L 347.682789 -189.663321 
L 347.791951 -187.019741 
L 347.886642 -184.376162 
L 347.929807 -181.732582 
L 347.977121 -179.089002 
L 348.080005 -176.445422 
L 348.212375 -173.801842 
L 348.290487 -171.158262 
L 348.305223 -168.514683 
L 348.363419 -165.871103 
L 348.545284 -163.227523 
L 348.861003 -160.583943 
L 349.294157 -157.940363 
L 349.746769 -155.296783 
L 350.116552 -152.653204 
L 350.461642 -150.009624 
L 350.950383 -147.366044 
L 351.748939 -144.722464 
L 352.982869 -142.078884 
L 354.725039 -139.435304 
L 357.090632 -136.791725 
L 360.204789 -134.148145 
L 363.746607 -131.504565 
L 366.634684 -128.860985 
L 367.743059 -126.217405 
L 367.223898 -123.573825 
L 366.403446 -120.930245 
L 366.664524 -118.286666 
L 368.672638 -115.643086 
L 371.527718 -112.999506 
L 373.139394 -110.355926 
L 372.193565 -107.712346 
L 369.16627 -105.068766 
L 365.571342 -102.425187 
L 362.401911 -99.781607 
L 359.371069 -97.138027 
L 355.953566 -94.494447 
L 352.506116 -91.850867 
L 349.847124 -89.207287 
L 348.338231 -86.563708 
L 347.703115 -83.920128 
L 347.493246 -81.276548 
L 347.436229 -78.632968 
z
" id="m9851763506" style="stroke:#373737;stroke-width:1.5;"/>
    </defs>
    <g clip-path="url(#pa7cf2730e6)">
     <use style="fill:#7c78ab;stroke:#373737;stroke-width:1.5;" x="0" xlink:href="#m9851763506" y="489.545"/>
    </g>
   </g>
   <g id="PolyCollection_4">
    <defs>
     <path d="M 459.069178 -67.232273 
L 458.975822 -67.232273 
L 458.790356 -69.720976 
L 458.152485 -72.20968 
L 456.469873 -74.698384 
L 452.991608 -77.187087 
L 447.359682 -79.675791 
L 440.320936 -82.164495 
L 433.714825 -84.653198 
L 429.452588 -87.141902 
L 428.482766 -89.630606 
L 430.547086 -92.119309 
L 434.410534 -94.608013 
L 438.406836 -97.096717 
L 441.365877 -99.58542 
L 443.035749 -102.074124 
L 443.644642 -104.562828 
L 443.583608 -107.051531 
L 443.421551 -109.540235 
L 443.721318 -112.028939 
L 444.79538 -114.517642 
L 446.582974 -117.006346 
L 448.686334 -119.49505 
L 450.636971 -121.983753 
L 452.219136 -124.472457 
L 453.543913 -126.961161 
L 454.773212 -129.449864 
L 455.861613 -131.938568 
L 456.682366 -134.427272 
L 457.238924 -136.915975 
L 457.59535 -139.404679 
L 457.791076 -141.893382 
L 457.89379 -144.382086 
L 457.981877 -146.87079 
L 458.081451 -149.359493 
L 458.182717 -151.848197 
L 458.271166 -154.336901 
L 458.325773 -156.825604 
L 458.344019 -159.314308 
L 458.352637 -161.803012 
L 458.359718 -164.291715 
L 458.352819 -166.780419 
L 458.356485 -169.269123 
L 458.420588 -171.757826 
L 458.530854 -174.24653 
L 458.6106 -176.735234 
L 458.631216 -179.223937 
L 458.637864 -181.712641 
L 458.669211 -184.201345 
L 458.721154 -186.690048 
L 458.778957 -189.178752 
L 458.835266 -191.667456 
L 458.882067 -194.156159 
L 458.908033 -196.644863 
L 458.909028 -199.133567 
L 458.898765 -201.62227 
L 458.897279 -204.110974 
L 458.911911 -206.599678 
L 458.935703 -209.088381 
L 458.956989 -211.577085 
L 458.970914 -214.065789 
L 458.982256 -216.554492 
L 458.995829 -219.043196 
L 459.009281 -221.5319 
L 459.017941 -224.020603 
L 459.021432 -226.509307 
L 459.02219 -228.998011 
L 459.021371 -231.486714 
L 459.017079 -233.975418 
L 459.00529 -236.464121 
L 458.986849 -238.952825 
L 458.974317 -241.441529 
L 458.980015 -243.930232 
L 458.99806 -246.418936 
L 459.013325 -248.90764 
L 459.020207 -251.396343 
L 459.021686 -253.885047 
L 459.019594 -256.373751 
L 459.010426 -258.862454 
L 458.988193 -261.351158 
L 458.955899 -263.839862 
L 458.933324 -266.328565 
L 458.939787 -268.817269 
L 458.969504 -271.305973 
L 458.999251 -273.794676 
L 459.015598 -276.28338 
L 459.021129 -278.772084 
L 459.022319 -281.260787 
L 459.022484 -283.749491 
L 459.022498 -286.238195 
L 459.022485 -288.726898 
L 459.022346 -291.215602 
L 459.021435 -293.704306 
L 459.017606 -296.193009 
L 459.007435 -298.681713 
L 458.991157 -301.170417 
L 458.978072 -303.65912 
L 458.979394 -306.147824 
L 458.993884 -308.636528 
L 459.009572 -311.125231 
L 459.018558 -313.613935 
L 459.026442 -313.613935 
L 459.026442 -313.613935 
L 459.035428 -311.125231 
L 459.051116 -308.636528 
L 459.065606 -306.147824 
L 459.066928 -303.65912 
L 459.053843 -301.170417 
L 459.037565 -298.681713 
L 459.027394 -296.193009 
L 459.023565 -293.704306 
L 459.022654 -291.215602 
L 459.022515 -288.726898 
L 459.022502 -286.238195 
L 459.022516 -283.749491 
L 459.022681 -281.260787 
L 459.023871 -278.772084 
L 459.029402 -276.28338 
L 459.045749 -273.794676 
L 459.075496 -271.305973 
L 459.105213 -268.817269 
L 459.111676 -266.328565 
L 459.089101 -263.839862 
L 459.056807 -261.351158 
L 459.034574 -258.862454 
L 459.025406 -256.373751 
L 459.023314 -253.885047 
L 459.024793 -251.396343 
L 459.031675 -248.90764 
L 459.04694 -246.418936 
L 459.064985 -243.930232 
L 459.070683 -241.441529 
L 459.058151 -238.952825 
L 459.03971 -236.464121 
L 459.027921 -233.975418 
L 459.023629 -231.486714 
L 459.02281 -228.998011 
L 459.023568 -226.509307 
L 459.027059 -224.020603 
L 459.035719 -221.5319 
L 459.049171 -219.043196 
L 459.062744 -216.554492 
L 459.074086 -214.065789 
L 459.088011 -211.577085 
L 459.109297 -209.088381 
L 459.133089 -206.599678 
L 459.147721 -204.110974 
L 459.146235 -201.62227 
L 459.135972 -199.133567 
L 459.136967 -196.644863 
L 459.162933 -194.156159 
L 459.209734 -191.667456 
L 459.266043 -189.178752 
L 459.323846 -186.690048 
L 459.375789 -184.201345 
L 459.407136 -181.712641 
L 459.413784 -179.223937 
L 459.4344 -176.735234 
L 459.514146 -174.24653 
L 459.624412 -171.757826 
L 459.688515 -169.269123 
L 459.692181 -166.780419 
L 459.685282 -164.291715 
L 459.692363 -161.803012 
L 459.700981 -159.314308 
L 459.719227 -156.825604 
L 459.773834 -154.336901 
L 459.862283 -151.848197 
L 459.963549 -149.359493 
L 460.063123 -146.87079 
L 460.15121 -144.382086 
L 460.253924 -141.893382 
L 460.44965 -139.404679 
L 460.806076 -136.915975 
L 461.362634 -134.427272 
L 462.183387 -131.938568 
L 463.271788 -129.449864 
L 464.501087 -126.961161 
L 465.825864 -124.472457 
L 467.408029 -121.983753 
L 469.358666 -119.49505 
L 471.462026 -117.006346 
L 473.24962 -114.517642 
L 474.323682 -112.028939 
L 474.623449 -109.540235 
L 474.461392 -107.051531 
L 474.400358 -104.562828 
L 475.009251 -102.074124 
L 476.679123 -99.58542 
L 479.638164 -97.096717 
L 483.634466 -94.608013 
L 487.497914 -92.119309 
L 489.562234 -89.630606 
L 488.592412 -87.141902 
L 484.330175 -84.653198 
L 477.724064 -82.164495 
L 470.685318 -79.675791 
L 465.053392 -77.187087 
L 461.575127 -74.698384 
L 459.892515 -72.20968 
L 459.254644 -69.720976 
L 459.069178 -67.232273 
z
" id="md355c71be6" style="stroke:#373737;stroke-width:1.5;"/>
    </defs>
    <g clip-path="url(#pa7cf2730e6)">
     <use style="fill:#cf418a;stroke:#373737;stroke-width:1.5;" x="0" xlink:href="#md355c71be6" y="489.545"/>
    </g>
   </g>
   <g id="PolyCollection_5">
    <defs>
     <path d="M 570.641399 -84.704243 
L 570.603601 -84.704243 
L 570.559628 -86.654695 
L 570.439069 -88.605146 
L 570.151237 -90.555598 
L 569.551785 -92.50605 
L 568.459245 -94.456502 
L 566.706916 -96.406953 
L 564.215591 -98.357405 
L 561.058115 -100.307857 
L 557.494106 -102.258308 
L 553.955385 -104.20876 
L 550.951227 -106.159212 
L 548.894764 -108.109664 
L 547.942141 -110.060115 
L 547.968196 -112.010567 
L 548.693966 -113.961019 
L 549.845247 -115.911471 
L 551.218214 -117.861922 
L 552.644 -119.812374 
L 553.936904 -121.762826 
L 554.898421 -123.713278 
L 555.37651 -125.663729 
L 555.33205 -127.614181 
L 554.87024 -129.564633 
L 554.223933 -131.515084 
L 553.69592 -133.465536 
L 553.571795 -135.415988 
L 554.023976 -137.36644 
L 555.052425 -139.316891 
L 556.509391 -141.267343 
L 558.19449 -143.217795 
L 559.939651 -145.168247 
L 561.627008 -147.118698 
L 563.168939 -149.06915 
L 564.505429 -151.019602 
L 565.618912 -152.970053 
L 566.53113 -154.920505 
L 567.276005 -156.870957 
L 567.876273 -158.821409 
L 568.343527 -160.77186 
L 568.69402 -162.722312 
L 568.958531 -164.672764 
L 569.17248 -166.623216 
L 569.356202 -168.573667 
L 569.510226 -170.524119 
L 569.632614 -172.474571 
L 569.734925 -174.425023 
L 569.835189 -176.375474 
L 569.938891 -178.325926 
L 570.034034 -180.276378 
L 570.105102 -182.226829 
L 570.147092 -184.177281 
L 570.165386 -186.127733 
L 570.167577 -188.078185 
L 570.159961 -190.028636 
L 570.149954 -191.979088 
L 570.146476 -193.92954 
L 570.155077 -195.879992 
L 570.173587 -197.830443 
L 570.194344 -199.780895 
L 570.211035 -201.731347 
L 570.222328 -203.681798 
L 570.229006 -205.63225 
L 570.230511 -207.582702 
L 570.226627 -209.533154 
L 570.220158 -211.483605 
L 570.214108 -213.434057 
L 570.207067 -215.384509 
L 570.195237 -217.334961 
L 570.179732 -219.285412 
L 570.169279 -221.235864 
L 570.174547 -223.186316 
L 570.200646 -225.136768 
L 570.244376 -227.087219 
L 570.296102 -229.037671 
L 570.343512 -230.988123 
L 570.376077 -232.938574 
L 570.388779 -234.889026 
L 570.382353 -236.839478 
L 570.360577 -238.78993 
L 570.329814 -240.740381 
L 570.302145 -242.690833 
L 570.294136 -244.641285 
L 570.315943 -246.591737 
L 570.360829 -248.542188 
L 570.409373 -250.49264 
L 570.445599 -252.443092 
L 570.467525 -254.393543 
L 570.482717 -256.343995 
L 570.497438 -258.294447 
L 570.511933 -260.244899 
L 570.5238 -262.19535 
L 570.532675 -264.145802 
L 570.541146 -266.096254 
L 570.552406 -268.046706 
L 570.567539 -269.997157 
L 570.584599 -271.947609 
L 570.600061 -273.898061 
L 570.611278 -275.848513 
L 570.61781 -277.798964 
L 570.62719 -277.798964 
L 570.62719 -277.798964 
L 570.633722 -275.848513 
L 570.644939 -273.898061 
L 570.660401 -271.947609 
L 570.677461 -269.997157 
L 570.692594 -268.046706 
L 570.703854 -266.096254 
L 570.712325 -264.145802 
L 570.7212 -262.19535 
L 570.733067 -260.244899 
L 570.747562 -258.294447 
L 570.762283 -256.343995 
L 570.777475 -254.393543 
L 570.799401 -252.443092 
L 570.835627 -250.49264 
L 570.884171 -248.542188 
L 570.929057 -246.591737 
L 570.950864 -244.641285 
L 570.942855 -242.690833 
L 570.915186 -240.740381 
L 570.884423 -238.78993 
L 570.862647 -236.839478 
L 570.856221 -234.889026 
L 570.868923 -232.938574 
L 570.901488 -230.988123 
L 570.948898 -229.037671 
L 571.000624 -227.087219 
L 571.044354 -225.136768 
L 571.070453 -223.186316 
L 571.075721 -221.235864 
L 571.065268 -219.285412 
L 571.049763 -217.334961 
L 571.037933 -215.384509 
L 571.030892 -213.434057 
L 571.024842 -211.483605 
L 571.018373 -209.533154 
L 571.014489 -207.582702 
L 571.015994 -205.63225 
L 571.022672 -203.681798 
L 571.033965 -201.731347 
L 571.050656 -199.780895 
L 571.071413 -197.830443 
L 571.089923 -195.879992 
L 571.098524 -193.92954 
L 571.095046 -191.979088 
L 571.085039 -190.028636 
L 571.077423 -188.078185 
L 571.079614 -186.127733 
L 571.097908 -184.177281 
L 571.139898 -182.226829 
L 571.210966 -180.276378 
L 571.306109 -178.325926 
L 571.409811 -176.375474 
L 571.510075 -174.425023 
L 571.612386 -172.474571 
L 571.734774 -170.524119 
L 571.888798 -168.573667 
L 572.07252 -166.623216 
L 572.286469 -164.672764 
L 572.55098 -162.722312 
L 572.901473 -160.77186 
L 573.368727 -158.821409 
L 573.968995 -156.870957 
L 574.71387 -154.920505 
L 575.626088 -152.970053 
L 576.739571 -151.019602 
L 578.076061 -149.06915 
L 579.617992 -147.118698 
L 581.305349 -145.168247 
L 583.05051 -143.217795 
L 584.735609 -141.267343 
L 586.192575 -139.316891 
L 587.221024 -137.36644 
L 587.673205 -135.415988 
L 587.54908 -133.465536 
L 587.021067 -131.515084 
L 586.37476 -129.564633 
L 585.91295 -127.614181 
L 585.86849 -125.663729 
L 586.346579 -123.713278 
L 587.308096 -121.762826 
L 588.601 -119.812374 
L 590.026786 -117.861922 
L 591.399753 -115.911471 
L 592.551034 -113.961019 
L 593.276804 -112.010567 
L 593.302859 -110.060115 
L 592.350236 -108.109664 
L 590.293773 -106.159212 
L 587.289615 -104.20876 
L 583.750894 -102.258308 
L 580.186885 -100.307857 
L 577.029409 -98.357405 
L 574.538084 -96.406953 
L 572.785755 -94.456502 
L 571.693215 -92.50605 
L 571.093763 -90.555598 
L 570.805931 -88.605146 
L 570.685372 -86.654695 
L 570.641399 -84.704243 
z
" id="m65b6e10f54" style="stroke:#373737;stroke-width:1.5;"/>
    </defs>
    <g clip-path="url(#pa7cf2730e6)">
     <use style="fill:#65952f;stroke:#373737;stroke-width:1.5;" x="0" xlink:href="#m65b6e10f54" y="489.545"/>
    </g>
   </g>
   <g id="PolyCollection_6">
    <defs>
     <path d="M 682.238973 -128.247565 
L 682.206027 -128.247565 
L 682.082499 -131.624637 
L 681.412689 -135.001709 
L 679.039587 -138.378782 
L 673.657907 -141.755854 
L 665.8933 -145.132926 
L 658.568144 -148.509999 
L 653.534277 -151.887071 
L 650.608438 -155.264143 
L 649.340462 -158.641216 
L 649.572639 -162.018288 
L 652.097448 -165.395361 
L 658.126331 -168.772433 
L 666.342868 -172.149505 
L 673.347841 -175.526578 
L 677.449837 -178.90365 
L 679.326758 -182.280722 
L 680.202199 -185.657795 
L 680.80737 -189.034867 
L 681.272145 -192.411939 
L 681.510188 -195.789012 
L 681.590969 -199.166084 
L 681.660384 -202.543156 
L 681.723496 -205.920229 
L 681.714824 -209.297301 
L 681.681232 -212.674373 
L 681.690249 -216.051446 
L 681.756008 -219.428518 
L 681.878261 -222.80559 
L 681.988191 -226.182663 
L 682.026174 -229.559735 
L 682.008284 -232.936808 
L 681.983543 -236.31388 
L 681.987019 -239.690952 
L 681.999396 -243.068025 
L 681.989781 -246.445097 
L 681.991282 -249.822169 
L 682.020179 -253.199242 
L 682.027539 -256.576314 
L 682.013677 -259.953386 
L 682.021989 -263.330459 
L 682.055063 -266.707531 
L 682.077353 -270.084603 
L 682.051372 -273.461676 
L 682.016627 -276.838748 
L 682.029144 -280.21582 
L 682.056393 -283.592893 
L 682.069647 -286.969965 
L 682.082854 -290.347037 
L 682.093379 -293.72411 
L 682.095762 -297.101182 
L 682.09693 -300.478255 
L 682.107428 -303.855327 
L 682.129706 -307.232399 
L 682.152638 -310.609472 
L 682.175071 -313.986544 
L 682.188773 -317.363616 
L 682.178602 -320.740689 
L 682.160816 -324.117761 
L 682.156334 -327.494833 
L 682.151294 -330.871906 
L 682.136325 -334.248978 
L 682.134191 -337.62605 
L 682.15188 -341.003123 
L 682.165826 -344.380195 
L 682.156427 -347.757267 
L 682.140625 -351.13434 
L 682.152507 -354.511412 
L 682.184906 -357.888484 
L 682.202624 -361.265557 
L 682.194385 -364.642629 
L 682.181048 -368.019701 
L 682.186589 -371.396774 
L 682.205204 -374.773846 
L 682.217875 -378.150919 
L 682.221216 -381.527991 
L 682.218529 -384.905063 
L 682.209765 -388.282136 
L 682.200989 -391.659208 
L 682.203549 -395.03628 
L 682.213179 -398.413353 
L 682.215819 -401.790425 
L 682.205208 -405.167497 
L 682.187515 -408.54457 
L 682.181813 -411.921642 
L 682.195549 -415.298714 
L 682.212445 -418.675787 
L 682.220428 -422.052859 
L 682.222269 -425.429931 
L 682.222486 -428.807004 
L 682.2225 -432.184076 
L 682.222499 -435.561148 
L 682.222473 -438.938221 
L 682.22212 -442.315293 
L 682.21975 -445.692366 
L 682.212154 -449.069438 
L 682.20226 -452.44651 
L 682.201907 -455.823583 
L 682.211603 -459.200655 
L 682.219501 -462.577727 
L 682.225499 -462.577727 
L 682.225499 -462.577727 
L 682.233397 -459.200655 
L 682.243093 -455.823583 
L 682.24274 -452.44651 
L 682.232846 -449.069438 
L 682.22525 -445.692366 
L 682.22288 -442.315293 
L 682.222527 -438.938221 
L 682.222501 -435.561148 
L 682.2225 -432.184076 
L 682.222514 -428.807004 
L 682.222731 -425.429931 
L 682.224572 -422.052859 
L 682.232555 -418.675787 
L 682.249451 -415.298714 
L 682.263187 -411.921642 
L 682.257485 -408.54457 
L 682.239792 -405.167497 
L 682.229181 -401.790425 
L 682.231821 -398.413353 
L 682.241451 -395.03628 
L 682.244011 -391.659208 
L 682.235235 -388.282136 
L 682.226471 -384.905063 
L 682.223784 -381.527991 
L 682.227125 -378.150919 
L 682.239796 -374.773846 
L 682.258411 -371.396774 
L 682.263952 -368.019701 
L 682.250615 -364.642629 
L 682.242376 -361.265557 
L 682.260094 -357.888484 
L 682.292493 -354.511412 
L 682.304375 -351.13434 
L 682.288573 -347.757267 
L 682.279174 -344.380195 
L 682.29312 -341.003123 
L 682.310809 -337.62605 
L 682.308675 -334.248978 
L 682.293706 -330.871906 
L 682.288666 -327.494833 
L 682.284184 -324.117761 
L 682.266398 -320.740689 
L 682.256227 -317.363616 
L 682.269929 -313.986544 
L 682.292362 -310.609472 
L 682.315294 -307.232399 
L 682.337572 -303.855327 
L 682.34807 -300.478255 
L 682.349238 -297.101182 
L 682.351621 -293.72411 
L 682.362146 -290.347037 
L 682.375353 -286.969965 
L 682.388607 -283.592893 
L 682.415856 -280.21582 
L 682.428373 -276.838748 
L 682.393628 -273.461676 
L 682.367647 -270.084603 
L 682.389937 -266.707531 
L 682.423011 -263.330459 
L 682.431323 -259.953386 
L 682.417461 -256.576314 
L 682.424821 -253.199242 
L 682.453718 -249.822169 
L 682.455219 -246.445097 
L 682.445604 -243.068025 
L 682.457981 -239.690952 
L 682.461457 -236.31388 
L 682.436716 -232.936808 
L 682.418826 -229.559735 
L 682.456809 -226.182663 
L 682.566739 -222.80559 
L 682.688992 -219.428518 
L 682.754751 -216.051446 
L 682.763768 -212.674373 
L 682.730176 -209.297301 
L 682.721504 -205.920229 
L 682.784616 -202.543156 
L 682.854031 -199.166084 
L 682.934812 -195.789012 
L 683.172855 -192.411939 
L 683.63763 -189.034867 
L 684.242801 -185.657795 
L 685.118242 -182.280722 
L 686.995163 -178.90365 
L 691.097159 -175.526578 
L 698.102132 -172.149505 
L 706.318669 -168.772433 
L 712.347552 -165.395361 
L 714.872361 -162.018288 
L 715.104538 -158.641216 
L 713.836562 -155.264143 
L 710.910723 -151.887071 
L 705.876856 -148.509999 
L 698.5517 -145.132926 
L 690.787093 -141.755854 
L 685.405413 -138.378782 
L 683.032311 -135.001709 
L 682.362501 -131.624637 
L 682.238973 -128.247565 
z
" id="me542c2d4d4" style="stroke:#373737;stroke-width:1.5;"/>
    </defs>
    <g clip-path="url(#pa7cf2730e6)">
     <use style="fill:#ca9d1e;stroke:#373737;stroke-width:1.5;" x="0" xlink:href="#me542c2d4d4" y="489.545"/>
    </g>
   </g>
   <g id="line2d_1">
    <path clip-path="url(#pa7cf2730e6)" d="M 124.2225 336.290608 
L 124.2225 264.366737 
" style="fill:none;stroke:#373737;stroke-linecap:round;stroke-width:1.5;"/>
   </g>
   <g id="line2d_2">
    <path clip-path="url(#pa7cf2730e6)" d="M 124.2225 314.327278 
L 124.2225 294.294791 
" style="fill:none;stroke:#373737;stroke-linecap:round;stroke-width:4.5;"/>
   </g>
   <g id="line2d_3">
    <path clip-path="url(#pa7cf2730e6)" d="M 235.8225 408.455833 
L 235.8225 364.529174 
" style="fill:none;stroke:#373737;stroke-linecap:round;stroke-width:1.5;"/>
   </g>
   <g id="line2d_4">
    <path clip-path="url(#pa7cf2730e6)" d="M 235.8225 394.457228 
L 235.8225 382.389464 
" style="fill:none;stroke:#373737;stroke-linecap:round;stroke-width:4.5;"/>
   </g>
   <g id="line2d_5">
    <path clip-path="url(#pa7cf2730e6)" d="M 347.4225 403.870083 
L 347.4225 329.04995 
" style="fill:none;stroke:#373737;stroke-linecap:round;stroke-width:1.5;"/>
   </g>
   <g id="line2d_6">
    <path clip-path="url(#pa7cf2730e6)" d="M 347.4225 382.148109 
L 347.4225 360.908845 
" style="fill:none;stroke:#373737;stroke-linecap:round;stroke-width:4.5;"/>
   </g>
   <g id="line2d_7">
    <path clip-path="url(#pa7cf2730e6)" d="M 459.0225 414.73107 
L 459.0225 343.048555 
" style="fill:none;stroke:#373737;stroke-linecap:round;stroke-width:1.5;"/>
   </g>
   <g id="line2d_8">
    <path clip-path="url(#pa7cf2730e6)" d="M 459.0225 401.215175 
L 459.0225 377.803714 
" style="fill:none;stroke:#373737;stroke-linecap:round;stroke-width:4.5;"/>
   </g>
   <g id="line2d_9">
    <path clip-path="url(#pa7cf2730e6)" d="M 570.6225 396.146714 
L 570.6225 311.913725 
" style="fill:none;stroke:#373737;stroke-linecap:round;stroke-width:1.5;"/>
   </g>
   <g id="line2d_10">
    <path clip-path="url(#pa7cf2730e6)" d="M 570.6225 378.286425 
L 570.6225 351.737345 
" style="fill:none;stroke:#373737;stroke-linecap:round;stroke-width:4.5;"/>
   </g>
   <g id="line2d_11">
    <path clip-path="url(#pa7cf2730e6)" d="M 682.2225 352.944121 
L 682.2225 301.535449 
" style="fill:none;stroke:#373737;stroke-linecap:round;stroke-width:1.5;"/>
   </g>
   <g id="line2d_12">
    <path clip-path="url(#pa7cf2730e6)" d="M 682.2225 337.014673 
L 682.2225 322.774713 
" style="fill:none;stroke:#373737;stroke-linecap:round;stroke-width:4.5;"/>
   </g>
   <g id="patch_3">
    <path d="M 68.4225 442.08 
L 68.4225 7.2 
" style="fill:none;stroke:#262626;stroke-linecap:square;stroke-linejoin:miter;stroke-width:0.8;"/>
   </g>
   <g id="patch_4">
    <path d="M 738.0225 442.08 
L 738.0225 7.2 
" style="fill:none;stroke:#262626;stroke-linecap:square;stroke-linejoin:miter;stroke-width:0.8;"/>
   </g>
   <g id="patch_5">
    <path d="M 68.4225 442.08 
L 738.0225 442.08 
" style="fill:none;stroke:#262626;stroke-linecap:square;stroke-linejoin:miter;stroke-width:0.8;"/>
   </g>
   <g id="patch_6">
    <path d="M 68.4225 7.2 
L 738.0225 7.2 
" style="fill:none;stroke:#262626;stroke-linecap:square;stroke-linejoin:miter;stroke-width:0.8;"/>
   </g>
   <g id="PathCollection_1">
    <defs>
     <path d="M 0 1.5 
C 0.397805 1.5 0.77937 1.341951 1.06066 1.06066 
C 1.341951 0.77937 1.5 0.397805 1.5 0 
C 1.5 -0.397805 1.341951 -0.77937 1.06066 -1.06066 
C 0.77937 -1.341951 0.397805 -1.5 0 -1.5 
C -0.397805 -1.5 -0.77937 -1.341951 -1.06066 -1.06066 
C -1.341951 -0.77937 -1.5 -0.397805 -1.5 0 
C -1.5 0.397805 -1.341951 0.77937 -1.06066 1.06066 
C -0.77937 1.341951 -0.397805 1.5 0 1.5 
z
" id="m0bf0983e50" style="stroke:#373737;"/>
    </defs>
    <g clip-path="url(#pa7cf2730e6)">
     <use style="fill:#ffffff;stroke:#373737;" x="124.2225" xlink:href="#m0bf0983e50" y="304.190357"/>
    </g>
   </g>
   <g id="PathCollection_2">
    <g clip-path="url(#pa7cf2730e6)">
     <use style="fill:#ffffff;stroke:#373737;" x="235.8225" xlink:href="#m0bf0983e50" y="387.69928"/>
    </g>
   </g>
   <g id="PathCollection_3">
    <g clip-path="url(#pa7cf2730e6)">
     <use style="fill:#ffffff;stroke:#373737;" x="347.4225" xlink:href="#m0bf0983e50" y="372.976609"/>
    </g>
   </g>
   <g id="PathCollection_4">
    <g clip-path="url(#pa7cf2730e6)">
     <use style="fill:#ffffff;stroke:#373737;" x="459.0225" xlink:href="#m0bf0983e50" y="393.009096"/>
    </g>
   </g>
   <g id="PathCollection_5">
    <g clip-path="url(#pa7cf2730e6)">
     <use style="fill:#ffffff;stroke:#373737;" x="570.6225" xlink:href="#m0bf0983e50" y="366.460016"/>
    </g>
   </g>
   <g id="PathCollection_6">
    <g clip-path="url(#pa7cf2730e6)">
     <use style="fill:#ffffff;stroke:#373737;" x="682.2225" xlink:href="#m0bf0983e50" y="329.774015"/>
    </g>
   </g>
  </g>
 </g>
 <defs>
  <clipPath id="pa7cf2730e6">
   <rect height="434.88" width="669.6" x="68.4225" y="7.2"/>
  </clipPath>
 </defs>
</svg>
