<?xml version="1.0" encoding="utf-8" standalone="no"?>
<!DOCTYPE svg PUBLIC "-//W3C//DTD SVG 1.1//EN"
  "http://www.w3.org/Graphics/SVG/1.1/DTD/svg11.dtd">
<!-- Created with matplotlib (https://matplotlib.org/) -->
<svg height="489.545pt" version="1.1" viewBox="0 0 740.965 489.545" width="740.965pt" xmlns="http://www.w3.org/2000/svg" xmlns:xlink="http://www.w3.org/1999/xlink">
 <defs>
  <style type="text/css">
*{stroke-linecap:butt;stroke-linejoin:round;white-space:pre;}
  </style>
 </defs>
 <g id="figure_1">
  <g id="patch_1">
   <path d="M 0 489.545 
L 740.965 489.545 
L 740.965 0 
L 0 0 
z
" style="fill:#ffffff;"/>
  </g>
  <g id="axes_1">
   <g id="patch_2">
    <path d="M 64.165 442.08 
L 733.765 442.08 
L 733.765 7.2 
L 64.165 7.2 
z
" style="fill:#ffffff;"/>
   </g>
   <g id="matplotlib.axis_1">
    <g id="xtick_1">
     <g id="text_1">
      <!-- 0 -->
      <defs>
       <path d="M 4.15625 35.296875 
Q 4.15625 48 6.765625 55.734375 
Q 9.375 63.484375 14.515625 67.671875 
Q 19.671875 71.875 27.484375 71.875 
Q 33.25 71.875 37.59375 69.546875 
Q 41.9375 67.234375 44.765625 62.859375 
Q 47.609375 58.5 49.21875 52.21875 
Q 50.828125 45.953125 50.828125 35.296875 
Q 50.828125 22.703125 48.234375 14.96875 
Q 45.65625 7.234375 40.5 3 
Q 35.359375 -1.21875 27.484375 -1.21875 
Q 17.140625 -1.21875 11.234375 6.203125 
Q 4.15625 15.140625 4.15625 35.296875 
z
M 13.1875 35.296875 
Q 13.1875 17.671875 17.3125 11.828125 
Q 21.4375 6 27.484375 6 
Q 33.546875 6 37.671875 11.859375 
Q 41.796875 17.71875 41.796875 35.296875 
Q 41.796875 52.984375 37.671875 58.78125 
Q 33.546875 64.59375 27.390625 64.59375 
Q 21.34375 64.59375 17.71875 59.46875 
Q 13.1875 52.9375 13.1875 35.296875 
z
" id="ArialMT-48"/>
      </defs>
      <g style="fill:#262626;" transform="translate(115.51625 460.5325)scale(0.16 -0.16)">
       <use xlink:href="#ArialMT-48"/>
      </g>
     </g>
    </g>
    <g id="xtick_2">
     <g id="text_2">
      <!-- 1 -->
      <defs>
       <path d="M 37.25 0 
L 28.46875 0 
L 28.46875 56 
Q 25.296875 52.984375 20.140625 49.953125 
Q 14.984375 46.921875 10.890625 45.40625 
L 10.890625 53.90625 
Q 18.265625 57.375 23.78125 62.296875 
Q 29.296875 67.234375 31.59375 71.875 
L 37.25 71.875 
z
" id="ArialMT-49"/>
      </defs>
      <g style="fill:#262626;" transform="translate(227.11625 460.5325)scale(0.16 -0.16)">
       <use xlink:href="#ArialMT-49"/>
      </g>
     </g>
    </g>
    <g id="xtick_3">
     <g id="text_3">
      <!-- 2 -->
      <defs>
       <path d="M 50.34375 8.453125 
L 50.34375 0 
L 3.03125 0 
Q 2.9375 3.171875 4.046875 6.109375 
Q 5.859375 10.9375 9.828125 15.625 
Q 13.8125 20.3125 21.34375 26.46875 
Q 33.015625 36.03125 37.109375 41.625 
Q 41.21875 47.21875 41.21875 52.203125 
Q 41.21875 57.421875 37.46875 61 
Q 33.734375 64.59375 27.734375 64.59375 
Q 21.390625 64.59375 17.578125 60.78125 
Q 13.765625 56.984375 13.71875 50.25 
L 4.6875 51.171875 
Q 5.609375 61.28125 11.65625 66.578125 
Q 17.71875 71.875 27.9375 71.875 
Q 38.234375 71.875 44.234375 66.15625 
Q 50.25 60.453125 50.25 52 
Q 50.25 47.703125 48.484375 43.546875 
Q 46.734375 39.40625 42.65625 34.8125 
Q 38.578125 30.21875 29.109375 22.21875 
Q 21.1875 15.578125 18.9375 13.203125 
Q 16.703125 10.84375 15.234375 8.453125 
z
" id="ArialMT-50"/>
      </defs>
      <g style="fill:#262626;" transform="translate(338.71625 460.5325)scale(0.16 -0.16)">
       <use xlink:href="#ArialMT-50"/>
      </g>
     </g>
    </g>
    <g id="xtick_4">
     <g id="text_4">
      <!-- 3 -->
      <defs>
       <path d="M 4.203125 18.890625 
L 12.984375 20.0625 
Q 14.5 12.59375 18.140625 9.296875 
Q 21.78125 6 27 6 
Q 33.203125 6 37.46875 10.296875 
Q 41.75 14.59375 41.75 20.953125 
Q 41.75 27 37.796875 30.921875 
Q 33.84375 34.859375 27.734375 34.859375 
Q 25.25 34.859375 21.53125 33.890625 
L 22.515625 41.609375 
Q 23.390625 41.5 23.921875 41.5 
Q 29.546875 41.5 34.03125 44.421875 
Q 38.53125 47.359375 38.53125 53.46875 
Q 38.53125 58.296875 35.25 61.46875 
Q 31.984375 64.65625 26.8125 64.65625 
Q 21.6875 64.65625 18.265625 61.421875 
Q 14.84375 58.203125 13.875 51.765625 
L 5.078125 53.328125 
Q 6.6875 62.15625 12.390625 67.015625 
Q 18.109375 71.875 26.609375 71.875 
Q 32.46875 71.875 37.390625 69.359375 
Q 42.328125 66.84375 44.9375 62.5 
Q 47.5625 58.15625 47.5625 53.265625 
Q 47.5625 48.640625 45.0625 44.828125 
Q 42.578125 41.015625 37.703125 38.765625 
Q 44.046875 37.3125 47.5625 32.6875 
Q 51.078125 28.078125 51.078125 21.140625 
Q 51.078125 11.765625 44.234375 5.25 
Q 37.40625 -1.265625 26.953125 -1.265625 
Q 17.53125 -1.265625 11.296875 4.34375 
Q 5.078125 9.96875 4.203125 18.890625 
z
" id="ArialMT-51"/>
      </defs>
      <g style="fill:#262626;" transform="translate(450.31625 460.5325)scale(0.16 -0.16)">
       <use xlink:href="#ArialMT-51"/>
      </g>
     </g>
    </g>
    <g id="xtick_5">
     <g id="text_5">
      <!-- 4 -->
      <defs>
       <path d="M 32.328125 0 
L 32.328125 17.140625 
L 1.265625 17.140625 
L 1.265625 25.203125 
L 33.9375 71.578125 
L 41.109375 71.578125 
L 41.109375 25.203125 
L 50.78125 25.203125 
L 50.78125 17.140625 
L 41.109375 17.140625 
L 41.109375 0 
z
M 32.328125 25.203125 
L 32.328125 57.46875 
L 9.90625 25.203125 
z
" id="ArialMT-52"/>
      </defs>
      <g style="fill:#262626;" transform="translate(561.91625 460.5325)scale(0.16 -0.16)">
       <use xlink:href="#ArialMT-52"/>
      </g>
     </g>
    </g>
    <g id="xtick_6">
     <g id="text_6">
      <!-- 5 -->
      <defs>
       <path d="M 4.15625 18.75 
L 13.375 19.53125 
Q 14.40625 12.796875 18.140625 9.390625 
Q 21.875 6 27.15625 6 
Q 33.5 6 37.890625 10.78125 
Q 42.28125 15.578125 42.28125 23.484375 
Q 42.28125 31 38.0625 35.34375 
Q 33.84375 39.703125 27 39.703125 
Q 22.75 39.703125 19.328125 37.765625 
Q 15.921875 35.84375 13.96875 32.765625 
L 5.71875 33.84375 
L 12.640625 70.609375 
L 48.25 70.609375 
L 48.25 62.203125 
L 19.671875 62.203125 
L 15.828125 42.96875 
Q 22.265625 47.46875 29.34375 47.46875 
Q 38.71875 47.46875 45.15625 40.96875 
Q 51.609375 34.46875 51.609375 24.265625 
Q 51.609375 14.546875 45.953125 7.46875 
Q 39.0625 -1.21875 27.15625 -1.21875 
Q 17.390625 -1.21875 11.203125 4.25 
Q 5.03125 9.71875 4.15625 18.75 
z
" id="ArialMT-53"/>
      </defs>
      <g style="fill:#262626;" transform="translate(673.51625 460.5325)scale(0.16 -0.16)">
       <use xlink:href="#ArialMT-53"/>
      </g>
     </g>
    </g>
    <g id="text_7">
     <!-- Route -->
     <defs>
      <path d="M 7.859375 0 
L 7.859375 71.578125 
L 39.59375 71.578125 
Q 49.171875 71.578125 54.140625 69.640625 
Q 59.125 67.71875 62.109375 62.828125 
Q 65.09375 57.953125 65.09375 52.046875 
Q 65.09375 44.4375 60.15625 39.203125 
Q 55.21875 33.984375 44.921875 32.5625 
Q 48.6875 30.765625 50.640625 29 
Q 54.78125 25.203125 58.5 19.484375 
L 70.953125 0 
L 59.03125 0 
L 49.5625 14.890625 
Q 45.40625 21.34375 42.71875 24.75 
Q 40.046875 28.171875 37.921875 29.53125 
Q 35.796875 30.90625 33.59375 31.453125 
Q 31.984375 31.78125 28.328125 31.78125 
L 17.328125 31.78125 
L 17.328125 0 
z
M 17.328125 39.984375 
L 37.703125 39.984375 
Q 44.1875 39.984375 47.84375 41.328125 
Q 51.515625 42.671875 53.421875 45.625 
Q 55.328125 48.578125 55.328125 52.046875 
Q 55.328125 57.125 51.640625 60.390625 
Q 47.953125 63.671875 39.984375 63.671875 
L 17.328125 63.671875 
z
" id="ArialMT-82"/>
      <path d="M 3.328125 25.921875 
Q 3.328125 40.328125 11.328125 47.265625 
Q 18.015625 53.03125 27.640625 53.03125 
Q 38.328125 53.03125 45.109375 46.015625 
Q 51.90625 39.015625 51.90625 26.65625 
Q 51.90625 16.65625 48.90625 10.90625 
Q 45.90625 5.171875 40.15625 2 
Q 34.421875 -1.171875 27.640625 -1.171875 
Q 16.75 -1.171875 10.03125 5.8125 
Q 3.328125 12.796875 3.328125 25.921875 
z
M 12.359375 25.921875 
Q 12.359375 15.96875 16.703125 11.015625 
Q 21.046875 6.0625 27.640625 6.0625 
Q 34.1875 6.0625 38.53125 11.03125 
Q 42.875 16.015625 42.875 26.21875 
Q 42.875 35.84375 38.5 40.796875 
Q 34.125 45.75 27.640625 45.75 
Q 21.046875 45.75 16.703125 40.8125 
Q 12.359375 35.890625 12.359375 25.921875 
z
" id="ArialMT-111"/>
      <path d="M 40.578125 0 
L 40.578125 7.625 
Q 34.515625 -1.171875 24.125 -1.171875 
Q 19.53125 -1.171875 15.546875 0.578125 
Q 11.578125 2.34375 9.640625 5 
Q 7.71875 7.671875 6.9375 11.53125 
Q 6.390625 14.109375 6.390625 19.734375 
L 6.390625 51.859375 
L 15.1875 51.859375 
L 15.1875 23.09375 
Q 15.1875 16.21875 15.71875 13.8125 
Q 16.546875 10.359375 19.234375 8.375 
Q 21.921875 6.390625 25.875 6.390625 
Q 29.828125 6.390625 33.296875 8.421875 
Q 36.765625 10.453125 38.203125 13.9375 
Q 39.65625 17.4375 39.65625 24.078125 
L 39.65625 51.859375 
L 48.4375 51.859375 
L 48.4375 0 
z
" id="ArialMT-117"/>
      <path d="M 25.78125 7.859375 
L 27.046875 0.09375 
Q 23.34375 -0.6875 20.40625 -0.6875 
Q 15.625 -0.6875 12.984375 0.828125 
Q 10.359375 2.34375 9.28125 4.8125 
Q 8.203125 7.28125 8.203125 15.1875 
L 8.203125 45.015625 
L 1.765625 45.015625 
L 1.765625 51.859375 
L 8.203125 51.859375 
L 8.203125 64.703125 
L 16.9375 69.96875 
L 16.9375 51.859375 
L 25.78125 51.859375 
L 25.78125 45.015625 
L 16.9375 45.015625 
L 16.9375 14.703125 
Q 16.9375 10.9375 17.40625 9.859375 
Q 17.875 8.796875 18.921875 8.15625 
Q 19.96875 7.515625 21.921875 7.515625 
Q 23.390625 7.515625 25.78125 7.859375 
z
" id="ArialMT-116"/>
      <path d="M 42.09375 16.703125 
L 51.171875 15.578125 
Q 49.03125 7.625 43.21875 3.21875 
Q 37.40625 -1.171875 28.375 -1.171875 
Q 17 -1.171875 10.328125 5.828125 
Q 3.65625 12.84375 3.65625 25.484375 
Q 3.65625 38.578125 10.390625 45.796875 
Q 17.140625 53.03125 27.875 53.03125 
Q 38.28125 53.03125 44.875 45.953125 
Q 51.46875 38.875 51.46875 26.03125 
Q 51.46875 25.25 51.421875 23.6875 
L 12.75 23.6875 
Q 13.234375 15.140625 17.578125 10.59375 
Q 21.921875 6.0625 28.421875 6.0625 
Q 33.25 6.0625 36.671875 8.59375 
Q 40.09375 11.140625 42.09375 16.703125 
z
M 13.234375 30.90625 
L 42.1875 30.90625 
Q 41.609375 37.453125 38.875 40.71875 
Q 34.671875 45.796875 27.984375 45.796875 
Q 21.921875 45.796875 17.796875 41.75 
Q 13.671875 37.703125 13.234375 30.90625 
z
" id="ArialMT-101"/>
     </defs>
     <g style="fill:#262626;" transform="translate(377.61875 479.165)scale(0.16 -0.16)">
      <use xlink:href="#ArialMT-82"/>
      <use x="72.216797" xlink:href="#ArialMT-111"/>
      <use x="127.832031" xlink:href="#ArialMT-117"/>
      <use x="183.447266" xlink:href="#ArialMT-116"/>
      <use x="211.230469" xlink:href="#ArialMT-101"/>
     </g>
    </g>
   </g>
   <g id="matplotlib.axis_2">
    <g id="ytick_1">
     <g id="text_8">
      <!-- 2.5 -->
      <defs>
       <path d="M 9.078125 0 
L 9.078125 10.015625 
L 19.09375 10.015625 
L 19.09375 0 
z
" id="ArialMT-46"/>
      </defs>
      <g style="fill:#262626;" transform="translate(34.925 416.846227)scale(0.16 -0.16)">
       <use xlink:href="#ArialMT-50"/>
       <use x="55.615234" xlink:href="#ArialMT-46"/>
       <use x="83.398438" xlink:href="#ArialMT-53"/>
      </g>
     </g>
    </g>
    <g id="ytick_2">
     <g id="text_9">
      <!-- 5.0 -->
      <g style="fill:#262626;" transform="translate(34.925 363.744318)scale(0.16 -0.16)">
       <use xlink:href="#ArialMT-53"/>
       <use x="55.615234" xlink:href="#ArialMT-46"/>
       <use x="83.398438" xlink:href="#ArialMT-48"/>
      </g>
     </g>
    </g>
    <g id="ytick_3">
     <g id="text_10">
      <!-- 7.5 -->
      <defs>
       <path d="M 4.734375 62.203125 
L 4.734375 70.65625 
L 51.078125 70.65625 
L 51.078125 63.8125 
Q 44.234375 56.546875 37.515625 44.484375 
Q 30.8125 32.421875 27.15625 19.671875 
Q 24.515625 10.6875 23.78125 0 
L 14.75 0 
Q 14.890625 8.453125 18.0625 20.40625 
Q 21.234375 32.375 27.171875 43.484375 
Q 33.109375 54.59375 39.796875 62.203125 
z
" id="ArialMT-55"/>
      </defs>
      <g style="fill:#262626;" transform="translate(34.925 310.642408)scale(0.16 -0.16)">
       <use xlink:href="#ArialMT-55"/>
       <use x="55.615234" xlink:href="#ArialMT-46"/>
       <use x="83.398438" xlink:href="#ArialMT-53"/>
      </g>
     </g>
    </g>
    <g id="ytick_4">
     <g id="text_11">
      <!-- 10.0 -->
      <g style="fill:#262626;" transform="translate(26.0275 257.540499)scale(0.16 -0.16)">
       <use xlink:href="#ArialMT-49"/>
       <use x="55.615234" xlink:href="#ArialMT-48"/>
       <use x="111.230469" xlink:href="#ArialMT-46"/>
       <use x="139.013672" xlink:href="#ArialMT-48"/>
      </g>
     </g>
    </g>
    <g id="ytick_5">
     <g id="text_12">
      <!-- 12.5 -->
      <g style="fill:#262626;" transform="translate(26.0275 204.43859)scale(0.16 -0.16)">
       <use xlink:href="#ArialMT-49"/>
       <use x="55.615234" xlink:href="#ArialMT-50"/>
       <use x="111.230469" xlink:href="#ArialMT-46"/>
       <use x="139.013672" xlink:href="#ArialMT-53"/>
      </g>
     </g>
    </g>
    <g id="ytick_6">
     <g id="text_13">
      <!-- 15.0 -->
      <g style="fill:#262626;" transform="translate(26.0275 151.336681)scale(0.16 -0.16)">
       <use xlink:href="#ArialMT-49"/>
       <use x="55.615234" xlink:href="#ArialMT-53"/>
       <use x="111.230469" xlink:href="#ArialMT-46"/>
       <use x="139.013672" xlink:href="#ArialMT-48"/>
      </g>
     </g>
    </g>
    <g id="ytick_7">
     <g id="text_14">
      <!-- 17.5 -->
      <g style="fill:#262626;" transform="translate(26.0275 98.234771)scale(0.16 -0.16)">
       <use xlink:href="#ArialMT-49"/>
       <use x="55.615234" xlink:href="#ArialMT-55"/>
       <use x="111.230469" xlink:href="#ArialMT-46"/>
       <use x="139.013672" xlink:href="#ArialMT-53"/>
      </g>
     </g>
    </g>
    <g id="ytick_8">
     <g id="text_15">
      <!-- 20.0 -->
      <g style="fill:#262626;" transform="translate(26.0275 45.132862)scale(0.16 -0.16)">
       <use xlink:href="#ArialMT-50"/>
       <use x="55.615234" xlink:href="#ArialMT-48"/>
       <use x="111.230469" xlink:href="#ArialMT-46"/>
       <use x="139.013672" xlink:href="#ArialMT-48"/>
      </g>
     </g>
    </g>
    <g id="text_16">
     <!-- Speed [m/s] -->
     <defs>
      <path d="M 4.5 23 
L 13.421875 23.78125 
Q 14.0625 18.40625 16.375 14.96875 
Q 18.703125 11.53125 23.578125 9.40625 
Q 28.46875 7.28125 34.578125 7.28125 
Q 39.984375 7.28125 44.140625 8.890625 
Q 48.296875 10.5 50.3125 13.296875 
Q 52.34375 16.109375 52.34375 19.4375 
Q 52.34375 22.796875 50.390625 25.3125 
Q 48.4375 27.828125 43.953125 29.546875 
Q 41.0625 30.671875 31.203125 33.03125 
Q 21.34375 35.40625 17.390625 37.5 
Q 12.25 40.1875 9.734375 44.15625 
Q 7.234375 48.140625 7.234375 53.078125 
Q 7.234375 58.5 10.296875 63.203125 
Q 13.375 67.921875 19.28125 70.359375 
Q 25.203125 72.796875 32.421875 72.796875 
Q 40.375 72.796875 46.453125 70.234375 
Q 52.546875 67.671875 55.8125 62.6875 
Q 59.078125 57.71875 59.328125 51.421875 
L 50.25 50.734375 
Q 49.515625 57.515625 45.28125 60.984375 
Q 41.0625 64.453125 32.8125 64.453125 
Q 24.21875 64.453125 20.28125 61.296875 
Q 16.359375 58.15625 16.359375 53.71875 
Q 16.359375 49.859375 19.140625 47.359375 
Q 21.875 44.875 33.421875 42.265625 
Q 44.96875 39.65625 49.265625 37.703125 
Q 55.515625 34.8125 58.484375 30.390625 
Q 61.46875 25.984375 61.46875 20.21875 
Q 61.46875 14.5 58.203125 9.4375 
Q 54.9375 4.390625 48.796875 1.578125 
Q 42.671875 -1.21875 35.015625 -1.21875 
Q 25.296875 -1.21875 18.71875 1.609375 
Q 12.15625 4.4375 8.421875 10.125 
Q 4.6875 15.828125 4.5 23 
z
" id="ArialMT-83"/>
      <path d="M 6.59375 -19.875 
L 6.59375 51.859375 
L 14.59375 51.859375 
L 14.59375 45.125 
Q 17.4375 49.078125 21 51.046875 
Q 24.5625 53.03125 29.640625 53.03125 
Q 36.28125 53.03125 41.359375 49.609375 
Q 46.4375 46.1875 49.015625 39.953125 
Q 51.609375 33.734375 51.609375 26.3125 
Q 51.609375 18.359375 48.75 11.984375 
Q 45.90625 5.609375 40.453125 2.21875 
Q 35.015625 -1.171875 29 -1.171875 
Q 24.609375 -1.171875 21.109375 0.6875 
Q 17.625 2.546875 15.375 5.375 
L 15.375 -19.875 
z
M 14.546875 25.640625 
Q 14.546875 15.625 18.59375 10.84375 
Q 22.65625 6.0625 28.421875 6.0625 
Q 34.28125 6.0625 38.453125 11.015625 
Q 42.625 15.96875 42.625 26.375 
Q 42.625 36.28125 38.546875 41.203125 
Q 34.46875 46.140625 28.8125 46.140625 
Q 23.1875 46.140625 18.859375 40.890625 
Q 14.546875 35.640625 14.546875 25.640625 
z
" id="ArialMT-112"/>
      <path d="M 40.234375 0 
L 40.234375 6.546875 
Q 35.296875 -1.171875 25.734375 -1.171875 
Q 19.53125 -1.171875 14.328125 2.25 
Q 9.125 5.671875 6.265625 11.796875 
Q 3.421875 17.921875 3.421875 25.875 
Q 3.421875 33.640625 6 39.96875 
Q 8.59375 46.296875 13.765625 49.65625 
Q 18.953125 53.03125 25.34375 53.03125 
Q 30.03125 53.03125 33.6875 51.046875 
Q 37.359375 49.078125 39.65625 45.90625 
L 39.65625 71.578125 
L 48.390625 71.578125 
L 48.390625 0 
z
M 12.453125 25.875 
Q 12.453125 15.921875 16.640625 10.984375 
Q 20.84375 6.0625 26.5625 6.0625 
Q 32.328125 6.0625 36.34375 10.765625 
Q 40.375 15.484375 40.375 25.140625 
Q 40.375 35.796875 36.265625 40.765625 
Q 32.171875 45.75 26.171875 45.75 
Q 20.3125 45.75 16.375 40.96875 
Q 12.453125 36.1875 12.453125 25.875 
z
" id="ArialMT-100"/>
      <path id="ArialMT-32"/>
      <path d="M 6.78125 -19.875 
L 6.78125 71.578125 
L 26.171875 71.578125 
L 26.171875 64.3125 
L 15.578125 64.3125 
L 15.578125 -12.59375 
L 26.171875 -12.59375 
L 26.171875 -19.875 
z
" id="ArialMT-91"/>
      <path d="M 6.59375 0 
L 6.59375 51.859375 
L 14.453125 51.859375 
L 14.453125 44.578125 
Q 16.890625 48.390625 20.9375 50.703125 
Q 25 53.03125 30.171875 53.03125 
Q 35.9375 53.03125 39.625 50.640625 
Q 43.3125 48.25 44.828125 43.953125 
Q 50.984375 53.03125 60.84375 53.03125 
Q 68.5625 53.03125 72.703125 48.75 
Q 76.859375 44.484375 76.859375 35.59375 
L 76.859375 0 
L 68.109375 0 
L 68.109375 32.671875 
Q 68.109375 37.9375 67.25 40.25 
Q 66.40625 42.578125 64.15625 43.984375 
Q 61.921875 45.40625 58.890625 45.40625 
Q 53.421875 45.40625 49.796875 41.765625 
Q 46.1875 38.140625 46.1875 30.125 
L 46.1875 0 
L 37.40625 0 
L 37.40625 33.6875 
Q 37.40625 39.546875 35.25 42.46875 
Q 33.109375 45.40625 28.21875 45.40625 
Q 24.515625 45.40625 21.359375 43.453125 
Q 18.21875 41.5 16.796875 37.734375 
Q 15.375 33.984375 15.375 26.90625 
L 15.375 0 
z
" id="ArialMT-109"/>
      <path d="M 0 -1.21875 
L 20.75 72.796875 
L 27.78125 72.796875 
L 7.078125 -1.21875 
z
" id="ArialMT-47"/>
      <path d="M 3.078125 15.484375 
L 11.765625 16.84375 
Q 12.5 11.625 15.84375 8.84375 
Q 19.1875 6.0625 25.203125 6.0625 
Q 31.25 6.0625 34.171875 8.515625 
Q 37.109375 10.984375 37.109375 14.3125 
Q 37.109375 17.28125 34.515625 19 
Q 32.71875 20.171875 25.53125 21.96875 
Q 15.875 24.421875 12.140625 26.203125 
Q 8.40625 27.984375 6.46875 31.125 
Q 4.546875 34.28125 4.546875 38.09375 
Q 4.546875 41.546875 6.125 44.5 
Q 7.71875 47.46875 10.453125 49.421875 
Q 12.5 50.921875 16.03125 51.96875 
Q 19.578125 53.03125 23.640625 53.03125 
Q 29.734375 53.03125 34.34375 51.265625 
Q 38.96875 49.515625 41.15625 46.5 
Q 43.359375 43.5 44.1875 38.484375 
L 35.59375 37.3125 
Q 35.015625 41.3125 32.203125 43.546875 
Q 29.390625 45.796875 24.265625 45.796875 
Q 18.21875 45.796875 15.625 43.796875 
Q 13.03125 41.796875 13.03125 39.109375 
Q 13.03125 37.40625 14.109375 36.03125 
Q 15.1875 34.625 17.484375 33.6875 
Q 18.796875 33.203125 25.25 31.453125 
Q 34.578125 28.953125 38.25 27.359375 
Q 41.9375 25.78125 44.03125 22.75 
Q 46.140625 19.734375 46.140625 15.234375 
Q 46.140625 10.84375 43.578125 6.953125 
Q 41.015625 3.078125 36.171875 0.953125 
Q 31.34375 -1.171875 25.25 -1.171875 
Q 15.140625 -1.171875 9.84375 3.03125 
Q 4.546875 7.234375 3.078125 15.484375 
z
" id="ArialMT-115"/>
      <path d="M 21.296875 -19.875 
L 1.90625 -19.875 
L 1.90625 -12.59375 
L 12.5 -12.59375 
L 12.5 64.3125 
L 1.90625 64.3125 
L 1.90625 71.578125 
L 21.296875 71.578125 
z
" id="ArialMT-93"/>
     </defs>
     <g style="fill:#262626;" transform="translate(18.8475 267.325)rotate(-90)scale(0.16 -0.16)">
      <use xlink:href="#ArialMT-83"/>
      <use x="66.699219" xlink:href="#ArialMT-112"/>
      <use x="122.314453" xlink:href="#ArialMT-101"/>
      <use x="177.929688" xlink:href="#ArialMT-101"/>
      <use x="233.544922" xlink:href="#ArialMT-100"/>
      <use x="289.160156" xlink:href="#ArialMT-32"/>
      <use x="316.943359" xlink:href="#ArialMT-91"/>
      <use x="344.726562" xlink:href="#ArialMT-109"/>
      <use x="428.027344" xlink:href="#ArialMT-47"/>
      <use x="455.810547" xlink:href="#ArialMT-115"/>
      <use x="505.810547" xlink:href="#ArialMT-93"/>
     </g>
    </g>
   </g>
   <g id="PolyCollection_1">
    <defs>
     <path d="M 119.97169 -126.646539 
L 119.95831 -126.646539 
L 119.949944 -127.82219 
L 119.935085 -128.997842 
L 119.911722 -130.173494 
L 119.878495 -131.349146 
L 119.834739 -132.524798 
L 119.780089 -133.70045 
L 119.713595 -134.876102 
L 119.632443 -136.051754 
L 119.531391 -137.227405 
L 119.404781 -138.403057 
L 119.251448 -139.578709 
L 119.079709 -140.754361 
L 118.908002 -141.930013 
L 118.759259 -143.105665 
L 118.651968 -144.281317 
L 118.593668 -145.456969 
L 118.580471 -146.63262 
L 118.601427 -147.808272 
L 118.643741 -148.983924 
L 118.695399 -150.159576 
L 118.744438 -151.335228 
L 118.777467 -152.51088 
L 118.781141 -153.686532 
L 118.747036 -154.862184 
L 118.676304 -156.037835 
L 118.580486 -157.213487 
L 118.47832 -158.389139 
L 118.390288 -159.564791 
L 118.33187 -160.740443 
L 118.306564 -161.916095 
L 118.302384 -163.091747 
L 118.296376 -164.267398 
L 118.266536 -165.44305 
L 118.203072 -166.618702 
L 118.110096 -167.794354 
L 117.997255 -168.970006 
L 117.869914 -170.145658 
L 117.725691 -171.32131 
L 117.556107 -172.496962 
L 117.347252 -173.672613 
L 117.078564 -174.848265 
L 116.724678 -176.023917 
L 116.262143 -177.199569 
L 115.675473 -178.375221 
L 114.955723 -179.550873 
L 114.0904 -180.726525 
L 113.049088 -181.902177 
L 111.773208 -183.077828 
L 110.182842 -184.25348 
L 108.210136 -185.429132 
L 105.847283 -186.604784 
L 103.173146 -187.780436 
L 100.330797 -188.956088 
L 97.46966 -190.13174 
L 94.695961 -191.307392 
L 92.063896 -192.483043 
L 89.607197 -193.658695 
L 87.384578 -194.834347 
L 85.50103 -196.009999 
L 84.080327 -197.185651 
L 83.204734 -198.361303 
L 82.869365 -199.536955 
L 82.983732 -200.712607 
L 83.411846 -201.888258 
L 84.021619 -203.06391 
L 84.721915 -204.239562 
L 85.479116 -205.415214 
L 86.313876 -206.590866 
L 87.282799 -207.766518 
L 88.447662 -208.94217 
L 89.834736 -210.117821 
L 91.399515 -211.293473 
L 93.025151 -212.469125 
L 94.568648 -213.644777 
L 95.929114 -214.820429 
L 97.089044 -215.996081 
L 98.10348 -217.171733 
L 99.058107 -218.347385 
L 100.034523 -219.523036 
L 101.097746 -220.698688 
L 102.294606 -221.87434 
L 103.652294 -223.049992 
L 105.179854 -224.225644 
L 106.873475 -225.401296 
L 108.713633 -226.576948 
L 110.647557 -227.7526 
L 112.575746 -228.928251 
L 114.369307 -230.103903 
L 115.915793 -231.279555 
L 117.158776 -232.455207 
L 118.102213 -233.630859 
L 118.785824 -234.806511 
L 119.258715 -235.982163 
L 119.567631 -237.157815 
L 119.755711 -238.333466 
L 119.861756 -239.509118 
L 119.917273 -240.68477 
L 119.944425 -241.860422 
L 119.956832 -243.036074 
L 119.973168 -243.036074 
L 119.973168 -243.036074 
L 119.985575 -241.860422 
L 120.012727 -240.68477 
L 120.068244 -239.509118 
L 120.174289 -238.333466 
L 120.362369 -237.157815 
L 120.671285 -235.982163 
L 121.144176 -234.806511 
L 121.827787 -233.630859 
L 122.771224 -232.455207 
L 124.014207 -231.279555 
L 125.560693 -230.103903 
L 127.354254 -228.928251 
L 129.282443 -227.7526 
L 131.216367 -226.576948 
L 133.056525 -225.401296 
L 134.750146 -224.225644 
L 136.277706 -223.049992 
L 137.635394 -221.87434 
L 138.832254 -220.698688 
L 139.895477 -219.523036 
L 140.871893 -218.347385 
L 141.82652 -217.171733 
L 142.840956 -215.996081 
L 144.000886 -214.820429 
L 145.361352 -213.644777 
L 146.904849 -212.469125 
L 148.530485 -211.293473 
L 150.095264 -210.117821 
L 151.482338 -208.94217 
L 152.647201 -207.766518 
L 153.616124 -206.590866 
L 154.450884 -205.415214 
L 155.208085 -204.239562 
L 155.908381 -203.06391 
L 156.518154 -201.888258 
L 156.946268 -200.712607 
L 157.060635 -199.536955 
L 156.725266 -198.361303 
L 155.849673 -197.185651 
L 154.42897 -196.009999 
L 152.545422 -194.834347 
L 150.322803 -193.658695 
L 147.866104 -192.483043 
L 145.234039 -191.307392 
L 142.46034 -190.13174 
L 139.599203 -188.956088 
L 136.756854 -187.780436 
L 134.082717 -186.604784 
L 131.719864 -185.429132 
L 129.747158 -184.25348 
L 128.156792 -183.077828 
L 126.880912 -181.902177 
L 125.8396 -180.726525 
L 124.974277 -179.550873 
L 124.254527 -178.375221 
L 123.667857 -177.199569 
L 123.205322 -176.023917 
L 122.851436 -174.848265 
L 122.582748 -173.672613 
L 122.373893 -172.496962 
L 122.204309 -171.32131 
L 122.060086 -170.145658 
L 121.932745 -168.970006 
L 121.819904 -167.794354 
L 121.726928 -166.618702 
L 121.663464 -165.44305 
L 121.633624 -164.267398 
L 121.627616 -163.091747 
L 121.623436 -161.916095 
L 121.59813 -160.740443 
L 121.539712 -159.564791 
L 121.45168 -158.389139 
L 121.349514 -157.213487 
L 121.253696 -156.037835 
L 121.182964 -154.862184 
L 121.148859 -153.686532 
L 121.152533 -152.51088 
L 121.185562 -151.335228 
L 121.234601 -150.159576 
L 121.286259 -148.983924 
L 121.328573 -147.808272 
L 121.349529 -146.63262 
L 121.336332 -145.456969 
L 121.278032 -144.281317 
L 121.170741 -143.105665 
L 121.021998 -141.930013 
L 120.850291 -140.754361 
L 120.678552 -139.578709 
L 120.525219 -138.403057 
L 120.398609 -137.227405 
L 120.297557 -136.051754 
L 120.216405 -134.876102 
L 120.149911 -133.70045 
L 120.095261 -132.524798 
L 120.051505 -131.349146 
L 120.018278 -130.173494 
L 119.994915 -128.997842 
L 119.980056 -127.82219 
L 119.97169 -126.646539 
z
" id="m1b29aa6a58" style="stroke:#373737;stroke-width:1.5;"/>
    </defs>
    <g clip-path="url(#p95631784fa)">
     <use style="fill:#2b8e70;stroke:#373737;stroke-width:1.5;" x="0" xlink:href="#m1b29aa6a58" y="489.545"/>
    </g>
   </g>
   <g id="PolyCollection_2">
    <defs>
     <path d="M 231.581356 -130.96639 
L 231.548644 -130.96639 
L 231.528206 -131.914779 
L 231.494689 -132.863169 
L 231.449655 -133.811558 
L 231.400047 -134.759947 
L 231.354847 -135.708336 
L 231.319531 -136.656725 
L 231.293559 -137.605115 
L 231.273598 -138.553504 
L 231.259083 -139.501893 
L 231.253528 -140.450282 
L 231.259473 -141.398672 
L 231.272738 -142.347061 
L 231.283062 -143.29545 
L 231.280459 -144.243839 
L 231.26034 -145.192229 
L 231.223586 -146.140618 
L 231.174383 -147.089007 
L 231.119408 -148.037396 
L 231.067562 -148.985785 
L 231.027022 -149.934175 
L 230.99951 -150.882564 
L 230.977072 -151.830953 
L 230.946198 -152.779342 
L 230.89536 -153.727732 
L 230.816847 -154.676121 
L 230.70349 -155.62451 
L 230.551692 -156.572899 
L 230.371295 -157.521288 
L 230.182905 -158.469678 
L 229.991722 -159.418067 
L 229.761197 -160.366456 
L 229.42027 -161.314845 
L 228.903339 -162.263235 
L 228.185977 -163.211624 
L 227.285853 -164.160013 
L 226.232588 -165.108402 
L 225.031869 -166.056791 
L 223.647388 -167.005181 
L 222.010389 -167.95357 
L 220.048001 -168.901959 
L 217.708167 -169.850348 
L 214.965817 -170.798738 
L 211.817956 -171.747127 
L 208.289491 -172.695516 
L 204.459944 -173.643905 
L 200.495031 -174.592295 
L 196.651356 -175.540684 
L 193.232004 -176.489073 
L 190.501031 -177.437462 
L 188.594643 -178.385851 
L 187.478221 -179.334241 
L 186.985019 -180.28263 
L 186.925 -181.231019 
L 187.190329 -182.179408 
L 187.78011 -183.127798 
L 188.743134 -184.076187 
L 190.103644 -185.024576 
L 191.823347 -185.972965 
L 193.806615 -186.921354 
L 195.928061 -187.869744 
L 198.054207 -188.818133 
L 200.045358 -189.766522 
L 201.757292 -190.714911 
L 203.072048 -191.663301 
L 203.947424 -192.61169 
L 204.437358 -193.560079 
L 204.660775 -194.508468 
L 204.754164 -195.456857 
L 204.848658 -196.405247 
L 205.062031 -197.353636 
L 205.478354 -198.302025 
L 206.128813 -199.250414 
L 207.004659 -200.198804 
L 208.093304 -201.147193 
L 209.398989 -202.095582 
L 210.928921 -203.043971 
L 212.660454 -203.992361 
L 214.524011 -204.94075 
L 216.426993 -205.889139 
L 218.303686 -206.837528 
L 220.142936 -207.785917 
L 221.963395 -208.734307 
L 223.758988 -209.682696 
L 225.466579 -210.631085 
L 226.984661 -211.579474 
L 228.224378 -212.527864 
L 229.151348 -213.476253 
L 229.793993 -214.424642 
L 230.22321 -215.373031 
L 230.520727 -216.32142 
L 230.751043 -217.26981 
L 230.947612 -218.218199 
L 231.117575 -219.166588 
L 231.257512 -220.114977 
L 231.365834 -221.063367 
L 231.445111 -222.011756 
L 231.499439 -222.960145 
L 231.533239 -223.908534 
L 231.551656 -224.856923 
L 231.578344 -224.856923 
L 231.578344 -224.856923 
L 231.596761 -223.908534 
L 231.630561 -222.960145 
L 231.684889 -222.011756 
L 231.764166 -221.063367 
L 231.872488 -220.114977 
L 232.012425 -219.166588 
L 232.182388 -218.218199 
L 232.378957 -217.26981 
L 232.609273 -216.32142 
L 232.90679 -215.373031 
L 233.336007 -214.424642 
L 233.978652 -213.476253 
L 234.905622 -212.527864 
L 236.145339 -211.579474 
L 237.663421 -210.631085 
L 239.371012 -209.682696 
L 241.166605 -208.734307 
L 242.987064 -207.785917 
L 244.826314 -206.837528 
L 246.703007 -205.889139 
L 248.605989 -204.94075 
L 250.469546 -203.992361 
L 252.201079 -203.043971 
L 253.731011 -202.095582 
L 255.036696 -201.147193 
L 256.125341 -200.198804 
L 257.001187 -199.250414 
L 257.651646 -198.302025 
L 258.067969 -197.353636 
L 258.281342 -196.405247 
L 258.375836 -195.456857 
L 258.469225 -194.508468 
L 258.692642 -193.560079 
L 259.182576 -192.61169 
L 260.057952 -191.663301 
L 261.372708 -190.714911 
L 263.084642 -189.766522 
L 265.075793 -188.818133 
L 267.201939 -187.869744 
L 269.323385 -186.921354 
L 271.306653 -185.972965 
L 273.026356 -185.024576 
L 274.386866 -184.076187 
L 275.34989 -183.127798 
L 275.939671 -182.179408 
L 276.205 -181.231019 
L 276.144981 -180.28263 
L 275.651779 -179.334241 
L 274.535357 -178.385851 
L 272.628969 -177.437462 
L 269.897996 -176.489073 
L 266.478644 -175.540684 
L 262.634969 -174.592295 
L 258.670056 -173.643905 
L 254.840509 -172.695516 
L 251.312044 -171.747127 
L 248.164183 -170.798738 
L 245.421833 -169.850348 
L 243.081999 -168.901959 
L 241.119611 -167.95357 
L 239.482612 -167.005181 
L 238.098131 -166.056791 
L 236.897412 -165.108402 
L 235.844147 -164.160013 
L 234.944023 -163.211624 
L 234.226661 -162.263235 
L 233.70973 -161.314845 
L 233.368803 -160.366456 
L 233.138278 -159.418067 
L 232.947095 -158.469678 
L 232.758705 -157.521288 
L 232.578308 -156.572899 
L 232.42651 -155.62451 
L 232.313153 -154.676121 
L 232.23464 -153.727732 
L 232.183802 -152.779342 
L 232.152928 -151.830953 
L 232.13049 -150.882564 
L 232.102978 -149.934175 
L 232.062438 -148.985785 
L 232.010592 -148.037396 
L 231.955617 -147.089007 
L 231.906414 -146.140618 
L 231.86966 -145.192229 
L 231.849541 -144.243839 
L 231.846938 -143.29545 
L 231.857262 -142.347061 
L 231.870527 -141.398672 
L 231.876472 -140.450282 
L 231.870917 -139.501893 
L 231.856402 -138.553504 
L 231.836441 -137.605115 
L 231.810469 -136.656725 
L 231.775153 -135.708336 
L 231.729953 -134.759947 
L 231.680345 -133.811558 
L 231.635311 -132.863169 
L 231.601794 -131.914779 
L 231.581356 -130.96639 
z
" id="m6c2a8d222f" style="stroke:#373737;stroke-width:1.5;"/>
    </defs>
    <g clip-path="url(#p95631784fa)">
     <use style="fill:#be631d;stroke:#373737;stroke-width:1.5;" x="0" xlink:href="#m6c2a8d222f" y="489.545"/>
    </g>
   </g>
   <g id="PolyCollection_3">
    <defs>
     <path d="M 343.170027 -73.132708 
L 343.159973 -73.132708 
L 343.153719 -74.638037 
L 343.144436 -76.143365 
L 343.134535 -77.648693 
L 343.128222 -79.154021 
L 343.128385 -80.659349 
L 343.13333 -82.164677 
L 343.136525 -83.670006 
L 343.129646 -85.175334 
L 343.106918 -86.680662 
L 343.06905 -88.18599 
L 343.024891 -89.691318 
L 342.988343 -91.196646 
L 342.971006 -92.701975 
L 342.975564 -94.207303 
L 342.994661 -95.712631 
L 343.015427 -97.217959 
L 343.026315 -98.723287 
L 343.022278 -100.228615 
L 343.005978 -101.733944 
L 342.985297 -103.239272 
L 342.968583 -104.7446 
L 342.95863 -106.249928 
L 342.948194 -107.755256 
L 342.922085 -109.260584 
L 342.867096 -110.765913 
L 342.781963 -112.271241 
L 342.676327 -113.776569 
L 342.558404 -115.281897 
L 342.425916 -116.787225 
L 342.272245 -118.292553 
L 342.098512 -119.797882 
L 341.913846 -121.30321 
L 341.726361 -122.808538 
L 341.542028 -124.313866 
L 341.370224 -125.819194 
L 341.216474 -127.324522 
L 341.062098 -128.829851 
L 340.857961 -130.335179 
L 340.548619 -131.840507 
L 340.109303 -133.345835 
L 339.56622 -134.851163 
L 338.984244 -136.356491 
L 338.426055 -137.86182 
L 337.907088 -139.367148 
L 337.378104 -140.872476 
L 336.74577 -142.377804 
L 335.911653 -143.883132 
L 334.803504 -145.38846 
L 333.384556 -146.893789 
L 331.638958 -148.399117 
L 329.549722 -149.904445 
L 327.103122 -151.409773 
L 324.338179 -152.915101 
L 321.417504 -154.420429 
L 318.665988 -155.925758 
L 316.51738 -157.431086 
L 315.34646 -158.936414 
L 315.271346 -160.441742 
L 316.084426 -161.94707 
L 317.374318 -163.452398 
L 318.719785 -164.957727 
L 319.791782 -166.463055 
L 320.338436 -167.968383 
L 320.171377 -169.473711 
L 319.24485 -170.979039 
L 317.758011 -172.484367 
L 316.133353 -173.989696 
L 314.845015 -175.495024 
L 314.232155 -177.000352 
L 314.429424 -178.50568 
L 315.408791 -180.011008 
L 317.041087 -181.516336 
L 319.127901 -183.021665 
L 321.426585 -184.526993 
L 323.693104 -186.032321 
L 325.728587 -187.537649 
L 327.411421 -189.042977 
L 328.72014 -190.548305 
L 329.745709 -192.053634 
L 330.664327 -193.558962 
L 331.657475 -195.06429 
L 332.823246 -196.569618 
L 334.14513 -198.074946 
L 335.535149 -199.580274 
L 336.903363 -201.085603 
L 338.194052 -202.590931 
L 339.374367 -204.096259 
L 340.410165 -205.601587 
L 341.264736 -207.106915 
L 341.917354 -208.612243 
L 342.375413 -210.117572 
L 342.67003 -211.6229 
L 342.845155 -213.128228 
L 342.947158 -214.633556 
L 343.013753 -216.138884 
L 343.065503 -217.644212 
L 343.106971 -219.149541 
L 343.136211 -220.654869 
L 343.153113 -222.160197 
L 343.176887 -222.160197 
L 343.176887 -222.160197 
L 343.193789 -220.654869 
L 343.223029 -219.149541 
L 343.264497 -217.644212 
L 343.316247 -216.138884 
L 343.382842 -214.633556 
L 343.484845 -213.128228 
L 343.65997 -211.6229 
L 343.954587 -210.117572 
L 344.412646 -208.612243 
L 345.065264 -207.106915 
L 345.919835 -205.601587 
L 346.955633 -204.096259 
L 348.135948 -202.590931 
L 349.426637 -201.085603 
L 350.794851 -199.580274 
L 352.18487 -198.074946 
L 353.506754 -196.569618 
L 354.672525 -195.06429 
L 355.665673 -193.558962 
L 356.584291 -192.053634 
L 357.60986 -190.548305 
L 358.918579 -189.042977 
L 360.601413 -187.537649 
L 362.636896 -186.032321 
L 364.903415 -184.526993 
L 367.202099 -183.021665 
L 369.288913 -181.516336 
L 370.921209 -180.011008 
L 371.900576 -178.50568 
L 372.097845 -177.000352 
L 371.484985 -175.495024 
L 370.196647 -173.989696 
L 368.571989 -172.484367 
L 367.08515 -170.979039 
L 366.158623 -169.473711 
L 365.991564 -167.968383 
L 366.538218 -166.463055 
L 367.610215 -164.957727 
L 368.955682 -163.452398 
L 370.245574 -161.94707 
L 371.058654 -160.441742 
L 370.98354 -158.936414 
L 369.81262 -157.431086 
L 367.664012 -155.925758 
L 364.912496 -154.420429 
L 361.991821 -152.915101 
L 359.226878 -151.409773 
L 356.780278 -149.904445 
L 354.691042 -148.399117 
L 352.945444 -146.893789 
L 351.526496 -145.38846 
L 350.418347 -143.883132 
L 349.58423 -142.377804 
L 348.951896 -140.872476 
L 348.422912 -139.367148 
L 347.903945 -137.86182 
L 347.345756 -136.356491 
L 346.76378 -134.851163 
L 346.220697 -133.345835 
L 345.781381 -131.840507 
L 345.472039 -130.335179 
L 345.267902 -128.829851 
L 345.113526 -127.324522 
L 344.959776 -125.819194 
L 344.787972 -124.313866 
L 344.603639 -122.808538 
L 344.416154 -121.30321 
L 344.231488 -119.797882 
L 344.057755 -118.292553 
L 343.904084 -116.787225 
L 343.771596 -115.281897 
L 343.653673 -113.776569 
L 343.548037 -112.271241 
L 343.462904 -110.765913 
L 343.407915 -109.260584 
L 343.381806 -107.755256 
L 343.37137 -106.249928 
L 343.361417 -104.7446 
L 343.344703 -103.239272 
L 343.324022 -101.733944 
L 343.307722 -100.228615 
L 343.303685 -98.723287 
L 343.314573 -97.217959 
L 343.335339 -95.712631 
L 343.354436 -94.207303 
L 343.358994 -92.701975 
L 343.341657 -91.196646 
L 343.305109 -89.691318 
L 343.26095 -88.18599 
L 343.223082 -86.680662 
L 343.200354 -85.175334 
L 343.193475 -83.670006 
L 343.19667 -82.164677 
L 343.201615 -80.659349 
L 343.201778 -79.154021 
L 343.195465 -77.648693 
L 343.185564 -76.143365 
L 343.176281 -74.638037 
L 343.170027 -73.132708 
z
" id="mbdec242481" style="stroke:#373737;stroke-width:1.5;"/>
    </defs>
    <g clip-path="url(#p95631784fa)">
     <use style="fill:#7c78ab;stroke:#373737;stroke-width:1.5;" x="0" xlink:href="#mbdec242481" y="489.545"/>
    </g>
   </g>
   <g id="PolyCollection_4">
    <defs>
     <path d="M 454.773216 -67.232273 
L 454.756784 -67.232273 
L 454.747707 -68.681285 
L 454.733571 -70.130297 
L 454.715197 -71.579309 
L 454.694996 -73.028322 
L 454.675285 -74.477334 
L 454.65644 -75.926346 
L 454.637333 -77.375358 
L 454.618206 -78.82437 
L 454.602691 -80.273383 
L 454.595976 -81.722395 
L 454.600648 -83.171407 
L 454.614578 -84.620419 
L 454.63236 -86.069431 
L 454.647613 -87.518444 
L 454.653748 -88.967456 
L 454.644291 -90.416468 
L 454.614681 -91.86548 
L 454.564744 -93.314492 
L 454.498997 -94.763505 
L 454.423363 -96.212517 
L 454.340351 -97.661529 
L 454.246866 -99.110541 
L 454.137164 -100.559553 
L 454.008704 -102.008566 
L 453.865294 -103.457578 
L 453.714517 -104.90659 
L 453.563049 -106.355602 
L 453.416006 -107.804614 
L 453.280744 -109.253627 
L 453.168545 -110.702639 
L 453.089325 -112.151651 
L 453.04325 -113.600663 
L 453.017493 -115.049676 
L 452.991308 -116.498688 
L 452.94554 -117.9477 
L 452.870419 -119.396712 
L 452.767456 -120.845724 
L 452.64409 -122.294737 
L 452.50315 -123.743749 
L 452.332661 -125.192761 
L 452.102506 -126.641773 
L 451.770287 -128.090785 
L 451.292251 -129.539798 
L 450.634043 -130.98881 
L 449.781091 -132.437822 
L 448.748745 -133.886834 
L 447.583159 -135.335846 
L 446.341348 -136.784859 
L 445.056908 -138.233871 
L 443.71964 -139.682883 
L 442.292449 -141.131895 
L 440.757359 -142.580907 
L 439.15686 -144.02992 
L 437.601634 -145.478932 
L 436.241298 -146.927944 
L 435.215852 -148.376956 
L 434.611685 -149.825968 
L 434.441279 -151.274981 
L 434.651495 -152.723993 
L 435.145163 -154.173005 
L 435.795283 -155.622017 
L 436.453519 -157.071029 
L 436.975238 -158.520042 
L 437.263168 -159.969054 
L 437.292073 -161.418066 
L 437.081087 -162.867078 
L 436.635446 -164.316091 
L 435.915563 -165.765103 
L 434.862303 -167.214115 
L 433.453976 -168.663127 
L 431.753273 -170.112139 
L 429.92013 -171.561152 
L 428.18316 -173.010164 
L 426.77332 -174.459176 
L 425.847085 -175.908188 
L 425.448813 -177.3572 
L 425.543568 -178.806213 
L 426.092302 -180.255225 
L 427.099394 -181.704237 
L 428.590491 -183.153249 
L 430.551699 -184.602261 
L 432.898475 -186.051274 
L 435.502643 -187.500286 
L 438.23945 -188.949298 
L 441.002689 -190.39831 
L 443.684055 -191.847322 
L 446.158108 -193.296335 
L 448.303862 -194.745347 
L 450.048084 -196.194359 
L 451.390597 -197.643371 
L 452.39085 -199.092383 
L 453.130004 -200.541396 
L 453.677449 -201.990408 
L 454.07866 -203.43942 
L 454.361392 -204.888432 
L 454.547263 -206.337444 
L 454.658593 -207.786457 
L 454.718362 -209.235469 
L 454.746813 -210.684481 
L 454.783187 -210.684481 
L 454.783187 -210.684481 
L 454.811638 -209.235469 
L 454.871407 -207.786457 
L 454.982737 -206.337444 
L 455.168608 -204.888432 
L 455.45134 -203.43942 
L 455.852551 -201.990408 
L 456.399996 -200.541396 
L 457.13915 -199.092383 
L 458.139403 -197.643371 
L 459.481916 -196.194359 
L 461.226138 -194.745347 
L 463.371892 -193.296335 
L 465.845945 -191.847322 
L 468.527311 -190.39831 
L 471.29055 -188.949298 
L 474.027357 -187.500286 
L 476.631525 -186.051274 
L 478.978301 -184.602261 
L 480.939509 -183.153249 
L 482.430606 -181.704237 
L 483.437698 -180.255225 
L 483.986432 -178.806213 
L 484.081187 -177.3572 
L 483.682915 -175.908188 
L 482.75668 -174.459176 
L 481.34684 -173.010164 
L 479.60987 -171.561152 
L 477.776727 -170.112139 
L 476.076024 -168.663127 
L 474.667697 -167.214115 
L 473.614437 -165.765103 
L 472.894554 -164.316091 
L 472.448913 -162.867078 
L 472.237927 -161.418066 
L 472.266832 -159.969054 
L 472.554762 -158.520042 
L 473.076481 -157.071029 
L 473.734717 -155.622017 
L 474.384837 -154.173005 
L 474.878505 -152.723993 
L 475.088721 -151.274981 
L 474.918315 -149.825968 
L 474.314148 -148.376956 
L 473.288702 -146.927944 
L 471.928366 -145.478932 
L 470.37314 -144.02992 
L 468.772641 -142.580907 
L 467.237551 -141.131895 
L 465.81036 -139.682883 
L 464.473092 -138.233871 
L 463.188652 -136.784859 
L 461.946841 -135.335846 
L 460.781255 -133.886834 
L 459.748909 -132.437822 
L 458.895957 -130.98881 
L 458.237749 -129.539798 
L 457.759713 -128.090785 
L 457.427494 -126.641773 
L 457.197339 -125.192761 
L 457.02685 -123.743749 
L 456.88591 -122.294737 
L 456.762544 -120.845724 
L 456.659581 -119.396712 
L 456.58446 -117.9477 
L 456.538692 -116.498688 
L 456.512507 -115.049676 
L 456.48675 -113.600663 
L 456.440675 -112.151651 
L 456.361455 -110.702639 
L 456.249256 -109.253627 
L 456.113994 -107.804614 
L 455.966951 -106.355602 
L 455.815483 -104.90659 
L 455.664706 -103.457578 
L 455.521296 -102.008566 
L 455.392836 -100.559553 
L 455.283134 -99.110541 
L 455.189649 -97.661529 
L 455.106637 -96.212517 
L 455.031003 -94.763505 
L 454.965256 -93.314492 
L 454.915319 -91.86548 
L 454.885709 -90.416468 
L 454.876252 -88.967456 
L 454.882387 -87.518444 
L 454.89764 -86.069431 
L 454.915422 -84.620419 
L 454.929352 -83.171407 
L 454.934024 -81.722395 
L 454.927309 -80.273383 
L 454.911794 -78.82437 
L 454.892667 -77.375358 
L 454.87356 -75.926346 
L 454.854715 -74.477334 
L 454.835004 -73.028322 
L 454.814803 -71.579309 
L 454.796429 -70.130297 
L 454.782293 -68.681285 
L 454.773216 -67.232273 
z
" id="m30c9df25e8" style="stroke:#373737;stroke-width:1.5;"/>
    </defs>
    <g clip-path="url(#p95631784fa)">
     <use style="fill:#cf418a;stroke:#373737;stroke-width:1.5;" x="0" xlink:href="#m30c9df25e8" y="489.545"/>
    </g>
   </g>
   <g id="PolyCollection_5">
    <defs>
     <path d="M 566.379366 -92.261095 
L 566.350634 -92.261095 
L 566.333578 -93.657745 
L 566.302939 -95.054396 
L 566.253506 -96.451047 
L 566.181268 -97.847698 
L 566.084789 -99.244348 
L 565.966182 -100.640999 
L 565.831655 -102.03765 
L 565.691434 -103.434301 
L 565.558115 -104.830951 
L 565.442685 -106.227602 
L 565.349593 -107.624253 
L 565.27469 -109.020904 
L 565.208991 -110.417554 
L 565.146356 -111.814205 
L 565.088989 -113.210856 
L 565.045963 -114.607507 
L 565.026068 -116.004157 
L 565.03098 -117.400808 
L 565.053716 -118.797459 
L 565.082579 -120.19411 
L 565.10711 -121.59076 
L 565.122364 -122.987411 
L 565.12963 -124.384062 
L 565.133613 -125.780713 
L 565.137517 -127.177363 
L 565.138569 -128.574014 
L 565.126673 -129.970665 
L 565.087461 -131.367316 
L 565.008366 -132.763966 
L 564.884033 -134.160617 
L 564.717349 -135.557268 
L 564.51529 -136.953919 
L 564.282799 -138.350569 
L 564.018987 -139.74722 
L 563.716697 -141.143871 
L 563.362848 -142.540522 
L 562.937822 -143.937172 
L 562.415926 -145.333823 
L 561.76952 -146.730474 
L 560.974946 -148.127125 
L 560.015207 -149.523775 
L 558.877565 -150.920426 
L 557.551052 -152.317077 
L 556.030673 -153.713728 
L 554.328233 -155.110378 
L 552.481008 -156.507029 
L 550.550025 -157.90368 
L 548.611131 -159.300331 
L 546.751087 -160.696981 
L 545.07396 -162.093632 
L 543.705475 -163.490283 
L 542.776671 -164.886934 
L 542.384533 -166.283584 
L 542.550779 -167.680235 
L 543.205426 -169.076886 
L 544.203895 -170.473537 
L 545.364372 -171.870187 
L 546.505485 -173.266838 
L 547.47335 -174.663489 
L 548.157673 -176.06014 
L 548.499564 -177.45679 
L 548.491844 -178.853441 
L 548.172608 -180.250092 
L 547.614668 -181.646743 
L 546.912696 -183.043393 
L 546.166779 -184.440044 
L 545.461985 -185.836695 
L 544.850049 -187.233346 
L 544.343527 -188.629996 
L 543.92709 -190.026647 
L 543.579164 -191.423298 
L 543.292377 -192.819949 
L 543.087078 -194.216599 
L 543.018744 -195.61325 
L 543.177523 -197.009901 
L 543.671863 -198.406552 
L 544.59234 -199.803202 
L 545.968242 -201.199853 
L 547.742097 -202.596504 
L 549.780759 -203.993155 
L 551.919115 -205.389805 
L 554.012307 -206.786456 
L 555.96963 -208.183107 
L 557.757439 -209.579758 
L 559.377393 -210.976408 
L 560.837756 -212.373059 
L 562.134756 -213.76971 
L 563.251308 -215.166361 
L 564.16889 -216.563011 
L 564.881688 -217.959662 
L 565.403451 -219.356313 
L 565.7644 -220.752964 
L 566.00216 -222.149614 
L 566.152708 -223.546265 
L 566.245062 -224.942916 
L 566.30007 -226.339567 
L 566.331697 -227.736217 
L 566.349026 -229.132868 
L 566.357925 -230.529519 
L 566.372075 -230.529519 
L 566.372075 -230.529519 
L 566.380974 -229.132868 
L 566.398303 -227.736217 
L 566.42993 -226.339567 
L 566.484938 -224.942916 
L 566.577292 -223.546265 
L 566.72784 -222.149614 
L 566.9656 -220.752964 
L 567.326549 -219.356313 
L 567.848312 -217.959662 
L 568.56111 -216.563011 
L 569.478692 -215.166361 
L 570.595244 -213.76971 
L 571.892244 -212.373059 
L 573.352607 -210.976408 
L 574.972561 -209.579758 
L 576.76037 -208.183107 
L 578.717693 -206.786456 
L 580.810885 -205.389805 
L 582.949241 -203.993155 
L 584.987903 -202.596504 
L 586.761758 -201.199853 
L 588.13766 -199.803202 
L 589.058137 -198.406552 
L 589.552477 -197.009901 
L 589.711256 -195.61325 
L 589.642922 -194.216599 
L 589.437623 -192.819949 
L 589.150836 -191.423298 
L 588.80291 -190.026647 
L 588.386473 -188.629996 
L 587.879951 -187.233346 
L 587.268015 -185.836695 
L 586.563221 -184.440044 
L 585.817304 -183.043393 
L 585.115332 -181.646743 
L 584.557392 -180.250092 
L 584.238156 -178.853441 
L 584.230436 -177.45679 
L 584.572327 -176.06014 
L 585.25665 -174.663489 
L 586.224515 -173.266838 
L 587.365628 -171.870187 
L 588.526105 -170.473537 
L 589.524574 -169.076886 
L 590.179221 -167.680235 
L 590.345467 -166.283584 
L 589.953329 -164.886934 
L 589.024525 -163.490283 
L 587.65604 -162.093632 
L 585.978913 -160.696981 
L 584.118869 -159.300331 
L 582.179975 -157.90368 
L 580.248992 -156.507029 
L 578.401767 -155.110378 
L 576.699327 -153.713728 
L 575.178948 -152.317077 
L 573.852435 -150.920426 
L 572.714793 -149.523775 
L 571.755054 -148.127125 
L 570.96048 -146.730474 
L 570.314074 -145.333823 
L 569.792178 -143.937172 
L 569.367152 -142.540522 
L 569.013303 -141.143871 
L 568.711013 -139.74722 
L 568.447201 -138.350569 
L 568.21471 -136.953919 
L 568.012651 -135.557268 
L 567.845967 -134.160617 
L 567.721634 -132.763966 
L 567.642539 -131.367316 
L 567.603327 -129.970665 
L 567.591431 -128.574014 
L 567.592483 -127.177363 
L 567.596387 -125.780713 
L 567.60037 -124.384062 
L 567.607636 -122.987411 
L 567.62289 -121.59076 
L 567.647421 -120.19411 
L 567.676284 -118.797459 
L 567.69902 -117.400808 
L 567.703932 -116.004157 
L 567.684037 -114.607507 
L 567.641011 -113.210856 
L 567.583644 -111.814205 
L 567.521009 -110.417554 
L 567.45531 -109.020904 
L 567.380407 -107.624253 
L 567.287315 -106.227602 
L 567.171885 -104.830951 
L 567.038566 -103.434301 
L 566.898345 -102.03765 
L 566.763818 -100.640999 
L 566.645211 -99.244348 
L 566.548732 -97.847698 
L 566.476494 -96.451047 
L 566.427061 -95.054396 
L 566.396422 -93.657745 
L 566.379366 -92.261095 
z
" id="m09cebf5039" style="stroke:#373737;stroke-width:1.5;"/>
    </defs>
    <g clip-path="url(#p95631784fa)">
     <use style="fill:#65952f;stroke:#373737;stroke-width:1.5;" x="0" xlink:href="#m09cebf5039" y="489.545"/>
    </g>
   </g>
   <g id="PolyCollection_6">
    <defs>
     <path d="M 677.967816 -150.085072 
L 677.962184 -150.085072 
L 677.957865 -153.241564 
L 677.951354 -156.398055 
L 677.945041 -159.554547 
L 677.941675 -162.711038 
L 677.940406 -165.867529 
L 677.936569 -169.024021 
L 677.927136 -172.180512 
L 677.915143 -175.337004 
L 677.906979 -178.493495 
L 677.905323 -181.649987 
L 677.90564 -184.806478 
L 677.900206 -187.96297 
L 677.885005 -191.119461 
L 677.862052 -194.275953 
L 677.836749 -197.432444 
L 677.814422 -200.588936 
L 677.798157 -203.745427 
L 677.789884 -206.901919 
L 677.792158 -210.05841 
L 677.803999 -213.214901 
L 677.815585 -216.371393 
L 677.813524 -219.527884 
L 677.793238 -222.684376 
L 677.762835 -225.840867 
L 677.733887 -228.997359 
L 677.71095 -232.15385 
L 677.691175 -235.310342 
L 677.672175 -238.466833 
L 677.658162 -241.623325 
L 677.656156 -244.779816 
L 677.664838 -247.936308 
L 677.67245 -251.092799 
L 677.670761 -254.249291 
L 677.664101 -257.405782 
L 677.659128 -260.562273 
L 677.655122 -263.718765 
L 677.65043 -266.875256 
L 677.648212 -270.031748 
L 677.650173 -273.188239 
L 677.65463 -276.344731 
L 677.663378 -279.501222 
L 677.679438 -282.657714 
L 677.695388 -285.814205 
L 677.691691 -288.970697 
L 677.65103 -292.127188 
L 677.575823 -295.28368 
L 677.49108 -298.440171 
L 677.426425 -301.596662 
L 677.396991 -304.753154 
L 677.40271 -307.909645 
L 677.432149 -311.066137 
L 677.460547 -314.222628 
L 677.46222 -317.37912 
L 677.434423 -320.535611 
L 677.397911 -323.692103 
L 677.369524 -326.848594 
L 677.337679 -330.005086 
L 677.264488 -333.161577 
L 677.115183 -336.318069 
L 676.891033 -339.47456 
L 676.630906 -342.631052 
L 676.374733 -345.787543 
L 676.120283 -348.944034 
L 675.804251 -352.100526 
L 675.3136 -355.257017 
L 674.509657 -358.413509 
L 673.23857 -361.57 
L 671.344383 -364.726492 
L 668.746054 -367.882983 
L 665.577772 -371.039475 
L 662.271903 -374.195966 
L 659.435558 -377.352458 
L 657.536601 -380.508949 
L 656.655992 -383.665441 
L 656.524065 -386.821932 
L 656.758107 -389.978424 
L 657.082847 -393.134915 
L 657.414362 -396.291406 
L 657.821722 -399.447898 
L 658.431795 -402.604389 
L 659.304797 -405.760881 
L 660.349583 -408.917372 
L 661.401158 -412.073864 
L 662.406194 -415.230355 
L 663.499972 -418.386847 
L 664.89761 -421.543338 
L 666.720045 -424.69983 
L 668.893561 -427.856321 
L 671.179825 -431.012813 
L 673.296566 -434.169304 
L 675.030694 -437.325796 
L 676.287836 -440.482287 
L 677.090603 -443.638778 
L 677.542883 -446.79527 
L 677.772149 -449.951761 
L 677.880748 -453.108253 
L 677.930436 -456.264744 
L 677.952251 -459.421236 
L 677.960981 -462.577727 
L 677.969019 -462.577727 
L 677.969019 -462.577727 
L 677.977749 -459.421236 
L 677.999564 -456.264744 
L 678.049252 -453.108253 
L 678.157851 -449.951761 
L 678.387117 -446.79527 
L 678.839397 -443.638778 
L 679.642164 -440.482287 
L 680.899306 -437.325796 
L 682.633434 -434.169304 
L 684.750175 -431.012813 
L 687.036439 -427.856321 
L 689.209955 -424.69983 
L 691.03239 -421.543338 
L 692.430028 -418.386847 
L 693.523806 -415.230355 
L 694.528842 -412.073864 
L 695.580417 -408.917372 
L 696.625203 -405.760881 
L 697.498205 -402.604389 
L 698.108278 -399.447898 
L 698.515638 -396.291406 
L 698.847153 -393.134915 
L 699.171893 -389.978424 
L 699.405935 -386.821932 
L 699.274008 -383.665441 
L 698.393399 -380.508949 
L 696.494442 -377.352458 
L 693.658097 -374.195966 
L 690.352228 -371.039475 
L 687.183946 -367.882983 
L 684.585617 -364.726492 
L 682.69143 -361.57 
L 681.420343 -358.413509 
L 680.6164 -355.257017 
L 680.125749 -352.100526 
L 679.809717 -348.944034 
L 679.555267 -345.787543 
L 679.299094 -342.631052 
L 679.038967 -339.47456 
L 678.814817 -336.318069 
L 678.665512 -333.161577 
L 678.592321 -330.005086 
L 678.560476 -326.848594 
L 678.532089 -323.692103 
L 678.495577 -320.535611 
L 678.46778 -317.37912 
L 678.469453 -314.222628 
L 678.497851 -311.066137 
L 678.52729 -307.909645 
L 678.533009 -304.753154 
L 678.503575 -301.596662 
L 678.43892 -298.440171 
L 678.354177 -295.28368 
L 678.27897 -292.127188 
L 678.238309 -288.970697 
L 678.234612 -285.814205 
L 678.250562 -282.657714 
L 678.266622 -279.501222 
L 678.27537 -276.344731 
L 678.279827 -273.188239 
L 678.281788 -270.031748 
L 678.27957 -266.875256 
L 678.274878 -263.718765 
L 678.270872 -260.562273 
L 678.265899 -257.405782 
L 678.259239 -254.249291 
L 678.25755 -251.092799 
L 678.265162 -247.936308 
L 678.273844 -244.779816 
L 678.271838 -241.623325 
L 678.257825 -238.466833 
L 678.238825 -235.310342 
L 678.21905 -232.15385 
L 678.196113 -228.997359 
L 678.167165 -225.840867 
L 678.136762 -222.684376 
L 678.116476 -219.527884 
L 678.114415 -216.371393 
L 678.126001 -213.214901 
L 678.137842 -210.05841 
L 678.140116 -206.901919 
L 678.131843 -203.745427 
L 678.115578 -200.588936 
L 678.093251 -197.432444 
L 678.067948 -194.275953 
L 678.044995 -191.119461 
L 678.029794 -187.96297 
L 678.02436 -184.806478 
L 678.024677 -181.649987 
L 678.023021 -178.493495 
L 678.014857 -175.337004 
L 678.002864 -172.180512 
L 677.993431 -169.024021 
L 677.989594 -165.867529 
L 677.988325 -162.711038 
L 677.984959 -159.554547 
L 677.978646 -156.398055 
L 677.972135 -153.241564 
L 677.967816 -150.085072 
z
" id="me59dd300a7" style="stroke:#373737;stroke-width:1.5;"/>
    </defs>
    <g clip-path="url(#p95631784fa)">
     <use style="fill:#ca9d1e;stroke:#373737;stroke-width:1.5;" x="0" xlink:href="#me59dd300a7" y="489.545"/>
    </g>
   </g>
   <g id="line2d_1">
    <path clip-path="url(#p95631784fa)" d="M 119.965 321.776531 
L 119.965 252.306076 
" style="fill:none;stroke:#373737;stroke-linecap:round;stroke-width:1.5;"/>
   </g>
   <g id="line2d_2">
    <path clip-path="url(#p95631784fa)" d="M 119.965 294.934227 
L 119.965 276.966355 
" style="fill:none;stroke:#373737;stroke-linecap:round;stroke-width:4.5;"/>
   </g>
   <g id="line2d_3">
    <path clip-path="url(#p95631784fa)" d="M 231.565 336.315548 
L 231.565 269.099462 
" style="fill:none;stroke:#373737;stroke-linecap:round;stroke-width:1.5;"/>
   </g>
   <g id="line2d_4">
    <path clip-path="url(#p95631784fa)" d="M 231.565 311.245906 
L 231.565 294.248575 
" style="fill:none;stroke:#373737;stroke-linecap:round;stroke-width:4.5;"/>
   </g>
   <g id="line2d_5">
    <path clip-path="url(#p95631784fa)" d="M 343.165 366.365502 
L 343.165 273.985265 
" style="fill:none;stroke:#373737;stroke-linecap:round;stroke-width:1.5;"/>
   </g>
   <g id="line2d_6">
    <path clip-path="url(#p95631784fa)" d="M 343.165 331.476129 
L 343.165 308.159508 
" style="fill:none;stroke:#373737;stroke-linecap:round;stroke-width:4.5;"/>
   </g>
   <g id="line2d_7">
    <path clip-path="url(#p95631784fa)" d="M 454.765 381.940746 
L 454.765 286.170894 
" style="fill:none;stroke:#373737;stroke-linecap:round;stroke-width:1.5;"/>
   </g>
   <g id="line2d_8">
    <path clip-path="url(#p95631784fa)" d="M 454.765 338.659915 
L 454.765 309.798514 
" style="fill:none;stroke:#373737;stroke-linecap:round;stroke-width:4.5;"/>
   </g>
   <g id="line2d_9">
    <path clip-path="url(#p95631784fa)" d="M 566.365 368.939245 
L 566.365 266.773884 
" style="fill:none;stroke:#373737;stroke-linecap:round;stroke-width:1.5;"/>
   </g>
   <g id="line2d_10">
    <path clip-path="url(#p95631784fa)" d="M 566.365 324.717157 
L 566.365 295.0353 
" style="fill:none;stroke:#373737;stroke-linecap:round;stroke-width:4.5;"/>
   </g>
   <g id="line2d_11">
    <path clip-path="url(#p95631784fa)" d="M 677.965 155.425299 
L 677.965 38.757778 
" style="fill:none;stroke:#373737;stroke-linecap:round;stroke-width:1.5;"/>
   </g>
   <g id="line2d_12">
    <path clip-path="url(#p95631784fa)" d="M 677.965 109.953245 
L 677.965 79.572649 
" style="fill:none;stroke:#373737;stroke-linecap:round;stroke-width:4.5;"/>
   </g>
   <g id="patch_3">
    <path d="M 64.165 442.08 
L 64.165 7.2 
" style="fill:none;stroke:#262626;stroke-linecap:square;stroke-linejoin:miter;stroke-width:0.8;"/>
   </g>
   <g id="patch_4">
    <path d="M 733.765 442.08 
L 733.765 7.2 
" style="fill:none;stroke:#262626;stroke-linecap:square;stroke-linejoin:miter;stroke-width:0.8;"/>
   </g>
   <g id="patch_5">
    <path d="M 64.165 442.08 
L 733.765 442.08 
" style="fill:none;stroke:#262626;stroke-linecap:square;stroke-linejoin:miter;stroke-width:0.8;"/>
   </g>
   <g id="patch_6">
    <path d="M 64.165 7.2 
L 733.765 7.2 
" style="fill:none;stroke:#262626;stroke-linecap:square;stroke-linejoin:miter;stroke-width:0.8;"/>
   </g>
   <g id="PathCollection_1">
    <defs>
     <path d="M 0 1.5 
C 0.397805 1.5 0.77937 1.341951 1.06066 1.06066 
C 1.341951 0.77937 1.5 0.397805 1.5 0 
C 1.5 -0.397805 1.341951 -0.77937 1.06066 -1.06066 
C 0.77937 -1.341951 0.397805 -1.5 0 -1.5 
C -0.397805 -1.5 -0.77937 -1.341951 -1.06066 -1.06066 
C -1.341951 -0.77937 -1.5 -0.397805 -1.5 0 
C -1.5 0.397805 -1.341951 0.77937 -1.06066 1.06066 
C -0.77937 1.341951 -0.397805 1.5 0 1.5 
z
" id="m33e8e0169f" style="stroke:#373737;"/>
    </defs>
    <g clip-path="url(#p95631784fa)">
     <use style="fill:#ffffff;stroke:#373737;" x="119.965" xlink:href="#m33e8e0169f" y="286.510933"/>
    </g>
   </g>
   <g id="PathCollection_2">
    <g clip-path="url(#p95631784fa)">
     <use style="fill:#ffffff;stroke:#373737;" x="231.565" xlink:href="#m33e8e0169f" y="304.20517"/>
    </g>
   </g>
   <g id="PathCollection_3">
    <g clip-path="url(#p95631784fa)">
     <use style="fill:#ffffff;stroke:#373737;" x="343.165" xlink:href="#m33e8e0169f" y="319.162051"/>
    </g>
   </g>
   <g id="PathCollection_4">
    <g clip-path="url(#p95631784fa)">
     <use style="fill:#ffffff;stroke:#373737;" x="454.765" xlink:href="#m33e8e0169f" y="321.312537"/>
    </g>
   </g>
   <g id="PathCollection_5">
    <g clip-path="url(#p95631784fa)">
     <use style="fill:#ffffff;stroke:#373737;" x="566.365" xlink:href="#m33e8e0169f" y="309.682195"/>
    </g>
   </g>
   <g id="PathCollection_6">
    <g clip-path="url(#p95631784fa)">
     <use style="fill:#ffffff;stroke:#373737;" x="677.965" xlink:href="#m33e8e0169f" y="95.644344"/>
    </g>
   </g>
  </g>
 </g>
 <defs>
  <clipPath id="p95631784fa">
   <rect height="434.88" width="669.6" x="64.165" y="7.2"/>
  </clipPath>
 </defs>
</svg>
