<?xml version="1.0" encoding="utf-8" standalone="no"?>
<!DOCTYPE svg PUBLIC "-//W3C//DTD SVG 1.1//EN"
  "http://www.w3.org/Graphics/SVG/1.1/DTD/svg11.dtd">
<!-- Created with matplotlib (https://matplotlib.org/) -->
<svg height="489.545pt" version="1.1" viewBox="0 0 740.965 489.545" width="740.965pt" xmlns="http://www.w3.org/2000/svg" xmlns:xlink="http://www.w3.org/1999/xlink">
 <defs>
  <style type="text/css">
*{stroke-linecap:butt;stroke-linejoin:round;white-space:pre;}
  </style>
 </defs>
 <g id="figure_1">
  <g id="patch_1">
   <path d="M 0 489.545 
L 740.965 489.545 
L 740.965 0 
L 0 0 
z
" style="fill:#ffffff;"/>
  </g>
  <g id="axes_1">
   <g id="patch_2">
    <path d="M 64.165 442.08 
L 733.765 442.08 
L 733.765 7.2 
L 64.165 7.2 
z
" style="fill:#ffffff;"/>
   </g>
   <g id="matplotlib.axis_1">
    <g id="xtick_1">
     <g id="text_1">
      <!-- 0 -->
      <defs>
       <path d="M 4.15625 35.296875 
Q 4.15625 48 6.765625 55.734375 
Q 9.375 63.484375 14.515625 67.671875 
Q 19.671875 71.875 27.484375 71.875 
Q 33.25 71.875 37.59375 69.546875 
Q 41.9375 67.234375 44.765625 62.859375 
Q 47.609375 58.5 49.21875 52.21875 
Q 50.828125 45.953125 50.828125 35.296875 
Q 50.828125 22.703125 48.234375 14.96875 
Q 45.65625 7.234375 40.5 3 
Q 35.359375 -1.21875 27.484375 -1.21875 
Q 17.140625 -1.21875 11.234375 6.203125 
Q 4.15625 15.140625 4.15625 35.296875 
z
M 13.1875 35.296875 
Q 13.1875 17.671875 17.3125 11.828125 
Q 21.4375 6 27.484375 6 
Q 33.546875 6 37.671875 11.859375 
Q 41.796875 17.71875 41.796875 35.296875 
Q 41.796875 52.984375 37.671875 58.78125 
Q 33.546875 64.59375 27.390625 64.59375 
Q 21.34375 64.59375 17.71875 59.46875 
Q 13.1875 52.9375 13.1875 35.296875 
z
" id="ArialMT-48"/>
      </defs>
      <g style="fill:#262626;" transform="translate(115.51625 460.5325)scale(0.16 -0.16)">
       <use xlink:href="#ArialMT-48"/>
      </g>
     </g>
    </g>
    <g id="xtick_2">
     <g id="text_2">
      <!-- 1 -->
      <defs>
       <path d="M 37.25 0 
L 28.46875 0 
L 28.46875 56 
Q 25.296875 52.984375 20.140625 49.953125 
Q 14.984375 46.921875 10.890625 45.40625 
L 10.890625 53.90625 
Q 18.265625 57.375 23.78125 62.296875 
Q 29.296875 67.234375 31.59375 71.875 
L 37.25 71.875 
z
" id="ArialMT-49"/>
      </defs>
      <g style="fill:#262626;" transform="translate(227.11625 460.5325)scale(0.16 -0.16)">
       <use xlink:href="#ArialMT-49"/>
      </g>
     </g>
    </g>
    <g id="xtick_3">
     <g id="text_3">
      <!-- 2 -->
      <defs>
       <path d="M 50.34375 8.453125 
L 50.34375 0 
L 3.03125 0 
Q 2.9375 3.171875 4.046875 6.109375 
Q 5.859375 10.9375 9.828125 15.625 
Q 13.8125 20.3125 21.34375 26.46875 
Q 33.015625 36.03125 37.109375 41.625 
Q 41.21875 47.21875 41.21875 52.203125 
Q 41.21875 57.421875 37.46875 61 
Q 33.734375 64.59375 27.734375 64.59375 
Q 21.390625 64.59375 17.578125 60.78125 
Q 13.765625 56.984375 13.71875 50.25 
L 4.6875 51.171875 
Q 5.609375 61.28125 11.65625 66.578125 
Q 17.71875 71.875 27.9375 71.875 
Q 38.234375 71.875 44.234375 66.15625 
Q 50.25 60.453125 50.25 52 
Q 50.25 47.703125 48.484375 43.546875 
Q 46.734375 39.40625 42.65625 34.8125 
Q 38.578125 30.21875 29.109375 22.21875 
Q 21.1875 15.578125 18.9375 13.203125 
Q 16.703125 10.84375 15.234375 8.453125 
z
" id="ArialMT-50"/>
      </defs>
      <g style="fill:#262626;" transform="translate(338.71625 460.5325)scale(0.16 -0.16)">
       <use xlink:href="#ArialMT-50"/>
      </g>
     </g>
    </g>
    <g id="xtick_4">
     <g id="text_4">
      <!-- 3 -->
      <defs>
       <path d="M 4.203125 18.890625 
L 12.984375 20.0625 
Q 14.5 12.59375 18.140625 9.296875 
Q 21.78125 6 27 6 
Q 33.203125 6 37.46875 10.296875 
Q 41.75 14.59375 41.75 20.953125 
Q 41.75 27 37.796875 30.921875 
Q 33.84375 34.859375 27.734375 34.859375 
Q 25.25 34.859375 21.53125 33.890625 
L 22.515625 41.609375 
Q 23.390625 41.5 23.921875 41.5 
Q 29.546875 41.5 34.03125 44.421875 
Q 38.53125 47.359375 38.53125 53.46875 
Q 38.53125 58.296875 35.25 61.46875 
Q 31.984375 64.65625 26.8125 64.65625 
Q 21.6875 64.65625 18.265625 61.421875 
Q 14.84375 58.203125 13.875 51.765625 
L 5.078125 53.328125 
Q 6.6875 62.15625 12.390625 67.015625 
Q 18.109375 71.875 26.609375 71.875 
Q 32.46875 71.875 37.390625 69.359375 
Q 42.328125 66.84375 44.9375 62.5 
Q 47.5625 58.15625 47.5625 53.265625 
Q 47.5625 48.640625 45.0625 44.828125 
Q 42.578125 41.015625 37.703125 38.765625 
Q 44.046875 37.3125 47.5625 32.6875 
Q 51.078125 28.078125 51.078125 21.140625 
Q 51.078125 11.765625 44.234375 5.25 
Q 37.40625 -1.265625 26.953125 -1.265625 
Q 17.53125 -1.265625 11.296875 4.34375 
Q 5.078125 9.96875 4.203125 18.890625 
z
" id="ArialMT-51"/>
      </defs>
      <g style="fill:#262626;" transform="translate(450.31625 460.5325)scale(0.16 -0.16)">
       <use xlink:href="#ArialMT-51"/>
      </g>
     </g>
    </g>
    <g id="xtick_5">
     <g id="text_5">
      <!-- 4 -->
      <defs>
       <path d="M 32.328125 0 
L 32.328125 17.140625 
L 1.265625 17.140625 
L 1.265625 25.203125 
L 33.9375 71.578125 
L 41.109375 71.578125 
L 41.109375 25.203125 
L 50.78125 25.203125 
L 50.78125 17.140625 
L 41.109375 17.140625 
L 41.109375 0 
z
M 32.328125 25.203125 
L 32.328125 57.46875 
L 9.90625 25.203125 
z
" id="ArialMT-52"/>
      </defs>
      <g style="fill:#262626;" transform="translate(561.91625 460.5325)scale(0.16 -0.16)">
       <use xlink:href="#ArialMT-52"/>
      </g>
     </g>
    </g>
    <g id="xtick_6">
     <g id="text_6">
      <!-- 5 -->
      <defs>
       <path d="M 4.15625 18.75 
L 13.375 19.53125 
Q 14.40625 12.796875 18.140625 9.390625 
Q 21.875 6 27.15625 6 
Q 33.5 6 37.890625 10.78125 
Q 42.28125 15.578125 42.28125 23.484375 
Q 42.28125 31 38.0625 35.34375 
Q 33.84375 39.703125 27 39.703125 
Q 22.75 39.703125 19.328125 37.765625 
Q 15.921875 35.84375 13.96875 32.765625 
L 5.71875 33.84375 
L 12.640625 70.609375 
L 48.25 70.609375 
L 48.25 62.203125 
L 19.671875 62.203125 
L 15.828125 42.96875 
Q 22.265625 47.46875 29.34375 47.46875 
Q 38.71875 47.46875 45.15625 40.96875 
Q 51.609375 34.46875 51.609375 24.265625 
Q 51.609375 14.546875 45.953125 7.46875 
Q 39.0625 -1.21875 27.15625 -1.21875 
Q 17.390625 -1.21875 11.203125 4.25 
Q 5.03125 9.71875 4.15625 18.75 
z
" id="ArialMT-53"/>
      </defs>
      <g style="fill:#262626;" transform="translate(673.51625 460.5325)scale(0.16 -0.16)">
       <use xlink:href="#ArialMT-53"/>
      </g>
     </g>
    </g>
    <g id="text_7">
     <!-- Route -->
     <defs>
      <path d="M 7.859375 0 
L 7.859375 71.578125 
L 39.59375 71.578125 
Q 49.171875 71.578125 54.140625 69.640625 
Q 59.125 67.71875 62.109375 62.828125 
Q 65.09375 57.953125 65.09375 52.046875 
Q 65.09375 44.4375 60.15625 39.203125 
Q 55.21875 33.984375 44.921875 32.5625 
Q 48.6875 30.765625 50.640625 29 
Q 54.78125 25.203125 58.5 19.484375 
L 70.953125 0 
L 59.03125 0 
L 49.5625 14.890625 
Q 45.40625 21.34375 42.71875 24.75 
Q 40.046875 28.171875 37.921875 29.53125 
Q 35.796875 30.90625 33.59375 31.453125 
Q 31.984375 31.78125 28.328125 31.78125 
L 17.328125 31.78125 
L 17.328125 0 
z
M 17.328125 39.984375 
L 37.703125 39.984375 
Q 44.1875 39.984375 47.84375 41.328125 
Q 51.515625 42.671875 53.421875 45.625 
Q 55.328125 48.578125 55.328125 52.046875 
Q 55.328125 57.125 51.640625 60.390625 
Q 47.953125 63.671875 39.984375 63.671875 
L 17.328125 63.671875 
z
" id="ArialMT-82"/>
      <path d="M 3.328125 25.921875 
Q 3.328125 40.328125 11.328125 47.265625 
Q 18.015625 53.03125 27.640625 53.03125 
Q 38.328125 53.03125 45.109375 46.015625 
Q 51.90625 39.015625 51.90625 26.65625 
Q 51.90625 16.65625 48.90625 10.90625 
Q 45.90625 5.171875 40.15625 2 
Q 34.421875 -1.171875 27.640625 -1.171875 
Q 16.75 -1.171875 10.03125 5.8125 
Q 3.328125 12.796875 3.328125 25.921875 
z
M 12.359375 25.921875 
Q 12.359375 15.96875 16.703125 11.015625 
Q 21.046875 6.0625 27.640625 6.0625 
Q 34.1875 6.0625 38.53125 11.03125 
Q 42.875 16.015625 42.875 26.21875 
Q 42.875 35.84375 38.5 40.796875 
Q 34.125 45.75 27.640625 45.75 
Q 21.046875 45.75 16.703125 40.8125 
Q 12.359375 35.890625 12.359375 25.921875 
z
" id="ArialMT-111"/>
      <path d="M 40.578125 0 
L 40.578125 7.625 
Q 34.515625 -1.171875 24.125 -1.171875 
Q 19.53125 -1.171875 15.546875 0.578125 
Q 11.578125 2.34375 9.640625 5 
Q 7.71875 7.671875 6.9375 11.53125 
Q 6.390625 14.109375 6.390625 19.734375 
L 6.390625 51.859375 
L 15.1875 51.859375 
L 15.1875 23.09375 
Q 15.1875 16.21875 15.71875 13.8125 
Q 16.546875 10.359375 19.234375 8.375 
Q 21.921875 6.390625 25.875 6.390625 
Q 29.828125 6.390625 33.296875 8.421875 
Q 36.765625 10.453125 38.203125 13.9375 
Q 39.65625 17.4375 39.65625 24.078125 
L 39.65625 51.859375 
L 48.4375 51.859375 
L 48.4375 0 
z
" id="ArialMT-117"/>
      <path d="M 25.78125 7.859375 
L 27.046875 0.09375 
Q 23.34375 -0.6875 20.40625 -0.6875 
Q 15.625 -0.6875 12.984375 0.828125 
Q 10.359375 2.34375 9.28125 4.8125 
Q 8.203125 7.28125 8.203125 15.1875 
L 8.203125 45.015625 
L 1.765625 45.015625 
L 1.765625 51.859375 
L 8.203125 51.859375 
L 8.203125 64.703125 
L 16.9375 69.96875 
L 16.9375 51.859375 
L 25.78125 51.859375 
L 25.78125 45.015625 
L 16.9375 45.015625 
L 16.9375 14.703125 
Q 16.9375 10.9375 17.40625 9.859375 
Q 17.875 8.796875 18.921875 8.15625 
Q 19.96875 7.515625 21.921875 7.515625 
Q 23.390625 7.515625 25.78125 7.859375 
z
" id="ArialMT-116"/>
      <path d="M 42.09375 16.703125 
L 51.171875 15.578125 
Q 49.03125 7.625 43.21875 3.21875 
Q 37.40625 -1.171875 28.375 -1.171875 
Q 17 -1.171875 10.328125 5.828125 
Q 3.65625 12.84375 3.65625 25.484375 
Q 3.65625 38.578125 10.390625 45.796875 
Q 17.140625 53.03125 27.875 53.03125 
Q 38.28125 53.03125 44.875 45.953125 
Q 51.46875 38.875 51.46875 26.03125 
Q 51.46875 25.25 51.421875 23.6875 
L 12.75 23.6875 
Q 13.234375 15.140625 17.578125 10.59375 
Q 21.921875 6.0625 28.421875 6.0625 
Q 33.25 6.0625 36.671875 8.59375 
Q 40.09375 11.140625 42.09375 16.703125 
z
M 13.234375 30.90625 
L 42.1875 30.90625 
Q 41.609375 37.453125 38.875 40.71875 
Q 34.671875 45.796875 27.984375 45.796875 
Q 21.921875 45.796875 17.796875 41.75 
Q 13.671875 37.703125 13.234375 30.90625 
z
" id="ArialMT-101"/>
     </defs>
     <g style="fill:#262626;" transform="translate(377.61875 479.165)scale(0.16 -0.16)">
      <use xlink:href="#ArialMT-82"/>
      <use x="72.216797" xlink:href="#ArialMT-111"/>
      <use x="127.832031" xlink:href="#ArialMT-117"/>
      <use x="183.447266" xlink:href="#ArialMT-116"/>
      <use x="211.230469" xlink:href="#ArialMT-101"/>
     </g>
    </g>
   </g>
   <g id="matplotlib.axis_2">
    <g id="ytick_1">
     <g id="text_8">
      <!-- 0.05 -->
      <defs>
       <path d="M 9.078125 0 
L 9.078125 10.015625 
L 19.09375 10.015625 
L 19.09375 0 
z
" id="ArialMT-46"/>
      </defs>
      <g style="fill:#262626;" transform="translate(26.0275 425.183988)scale(0.16 -0.16)">
       <use xlink:href="#ArialMT-48"/>
       <use x="55.615234" xlink:href="#ArialMT-46"/>
       <use x="83.398438" xlink:href="#ArialMT-48"/>
       <use x="139.013672" xlink:href="#ArialMT-53"/>
      </g>
     </g>
    </g>
    <g id="ytick_2">
     <g id="text_9">
      <!-- 0.10 -->
      <g style="fill:#262626;" transform="translate(26.0275 375.094642)scale(0.16 -0.16)">
       <use xlink:href="#ArialMT-48"/>
       <use x="55.615234" xlink:href="#ArialMT-46"/>
       <use x="83.398438" xlink:href="#ArialMT-49"/>
       <use x="139.013672" xlink:href="#ArialMT-48"/>
      </g>
     </g>
    </g>
    <g id="ytick_3">
     <g id="text_10">
      <!-- 0.15 -->
      <g style="fill:#262626;" transform="translate(26.0275 325.005296)scale(0.16 -0.16)">
       <use xlink:href="#ArialMT-48"/>
       <use x="55.615234" xlink:href="#ArialMT-46"/>
       <use x="83.398438" xlink:href="#ArialMT-49"/>
       <use x="139.013672" xlink:href="#ArialMT-53"/>
      </g>
     </g>
    </g>
    <g id="ytick_4">
     <g id="text_11">
      <!-- 0.20 -->
      <g style="fill:#262626;" transform="translate(26.0275 274.91595)scale(0.16 -0.16)">
       <use xlink:href="#ArialMT-48"/>
       <use x="55.615234" xlink:href="#ArialMT-46"/>
       <use x="83.398438" xlink:href="#ArialMT-50"/>
       <use x="139.013672" xlink:href="#ArialMT-48"/>
      </g>
     </g>
    </g>
    <g id="ytick_5">
     <g id="text_12">
      <!-- 0.25 -->
      <g style="fill:#262626;" transform="translate(26.0275 224.826604)scale(0.16 -0.16)">
       <use xlink:href="#ArialMT-48"/>
       <use x="55.615234" xlink:href="#ArialMT-46"/>
       <use x="83.398438" xlink:href="#ArialMT-50"/>
       <use x="139.013672" xlink:href="#ArialMT-53"/>
      </g>
     </g>
    </g>
    <g id="ytick_6">
     <g id="text_13">
      <!-- 0.30 -->
      <g style="fill:#262626;" transform="translate(26.0275 174.737259)scale(0.16 -0.16)">
       <use xlink:href="#ArialMT-48"/>
       <use x="55.615234" xlink:href="#ArialMT-46"/>
       <use x="83.398438" xlink:href="#ArialMT-51"/>
       <use x="139.013672" xlink:href="#ArialMT-48"/>
      </g>
     </g>
    </g>
    <g id="ytick_7">
     <g id="text_14">
      <!-- 0.35 -->
      <g style="fill:#262626;" transform="translate(26.0275 124.647913)scale(0.16 -0.16)">
       <use xlink:href="#ArialMT-48"/>
       <use x="55.615234" xlink:href="#ArialMT-46"/>
       <use x="83.398438" xlink:href="#ArialMT-51"/>
       <use x="139.013672" xlink:href="#ArialMT-53"/>
      </g>
     </g>
    </g>
    <g id="ytick_8">
     <g id="text_15">
      <!-- 0.40 -->
      <g style="fill:#262626;" transform="translate(26.0275 74.558567)scale(0.16 -0.16)">
       <use xlink:href="#ArialMT-48"/>
       <use x="55.615234" xlink:href="#ArialMT-46"/>
       <use x="83.398438" xlink:href="#ArialMT-52"/>
       <use x="139.013672" xlink:href="#ArialMT-48"/>
      </g>
     </g>
    </g>
    <g id="ytick_9">
     <g id="text_16">
      <!-- 0.45 -->
      <g style="fill:#262626;" transform="translate(26.0275 24.469221)scale(0.16 -0.16)">
       <use xlink:href="#ArialMT-48"/>
       <use x="55.615234" xlink:href="#ArialMT-46"/>
       <use x="83.398438" xlink:href="#ArialMT-52"/>
       <use x="139.013672" xlink:href="#ArialMT-53"/>
      </g>
     </g>
    </g>
    <g id="text_17">
     <!-- Pace [s/m] -->
     <defs>
      <path d="M 7.71875 0 
L 7.71875 71.578125 
L 34.71875 71.578125 
Q 41.84375 71.578125 45.609375 70.90625 
Q 50.875 70.015625 54.4375 67.546875 
Q 58.015625 65.09375 60.1875 60.640625 
Q 62.359375 56.203125 62.359375 50.875 
Q 62.359375 41.75 56.546875 35.421875 
Q 50.734375 29.109375 35.546875 29.109375 
L 17.1875 29.109375 
L 17.1875 0 
z
M 17.1875 37.546875 
L 35.6875 37.546875 
Q 44.875 37.546875 48.734375 40.96875 
Q 52.59375 44.390625 52.59375 50.59375 
Q 52.59375 55.078125 50.3125 58.265625 
Q 48.046875 61.46875 44.34375 62.5 
Q 41.9375 63.140625 35.5 63.140625 
L 17.1875 63.140625 
z
" id="ArialMT-80"/>
      <path d="M 40.4375 6.390625 
Q 35.546875 2.25 31.03125 0.53125 
Q 26.515625 -1.171875 21.34375 -1.171875 
Q 12.796875 -1.171875 8.203125 3 
Q 3.609375 7.171875 3.609375 13.671875 
Q 3.609375 17.484375 5.34375 20.625 
Q 7.078125 23.78125 9.890625 25.6875 
Q 12.703125 27.59375 16.21875 28.5625 
Q 18.796875 29.25 24.03125 29.890625 
Q 34.671875 31.15625 39.703125 32.90625 
Q 39.75 34.71875 39.75 35.203125 
Q 39.75 40.578125 37.25 42.78125 
Q 33.890625 45.75 27.25 45.75 
Q 21.046875 45.75 18.09375 43.578125 
Q 15.140625 41.40625 13.71875 35.890625 
L 5.125 37.0625 
Q 6.296875 42.578125 8.984375 45.96875 
Q 11.671875 49.359375 16.75 51.1875 
Q 21.828125 53.03125 28.515625 53.03125 
Q 35.15625 53.03125 39.296875 51.46875 
Q 43.453125 49.90625 45.40625 47.53125 
Q 47.359375 45.171875 48.140625 41.546875 
Q 48.578125 39.3125 48.578125 33.453125 
L 48.578125 21.734375 
Q 48.578125 9.46875 49.140625 6.21875 
Q 49.703125 2.984375 51.375 0 
L 42.1875 0 
Q 40.828125 2.734375 40.4375 6.390625 
z
M 39.703125 26.03125 
Q 34.90625 24.078125 25.34375 22.703125 
Q 19.921875 21.921875 17.671875 20.9375 
Q 15.4375 19.96875 14.203125 18.09375 
Q 12.984375 16.21875 12.984375 13.921875 
Q 12.984375 10.40625 15.640625 8.0625 
Q 18.3125 5.71875 23.4375 5.71875 
Q 28.515625 5.71875 32.46875 7.9375 
Q 36.421875 10.15625 38.28125 14.015625 
Q 39.703125 17 39.703125 22.796875 
z
" id="ArialMT-97"/>
      <path d="M 40.4375 19 
L 49.078125 17.875 
Q 47.65625 8.9375 41.8125 3.875 
Q 35.984375 -1.171875 27.484375 -1.171875 
Q 16.84375 -1.171875 10.375 5.78125 
Q 3.90625 12.75 3.90625 25.734375 
Q 3.90625 34.125 6.6875 40.421875 
Q 9.46875 46.734375 15.15625 49.875 
Q 20.84375 53.03125 27.546875 53.03125 
Q 35.984375 53.03125 41.359375 48.75 
Q 46.734375 44.484375 48.25 36.625 
L 39.703125 35.296875 
Q 38.484375 40.53125 35.375 43.15625 
Q 32.28125 45.796875 27.875 45.796875 
Q 21.234375 45.796875 17.078125 41.03125 
Q 12.9375 36.28125 12.9375 25.984375 
Q 12.9375 15.53125 16.9375 10.796875 
Q 20.953125 6.0625 27.390625 6.0625 
Q 32.5625 6.0625 36.03125 9.234375 
Q 39.5 12.40625 40.4375 19 
z
" id="ArialMT-99"/>
      <path id="ArialMT-32"/>
      <path d="M 6.78125 -19.875 
L 6.78125 71.578125 
L 26.171875 71.578125 
L 26.171875 64.3125 
L 15.578125 64.3125 
L 15.578125 -12.59375 
L 26.171875 -12.59375 
L 26.171875 -19.875 
z
" id="ArialMT-91"/>
      <path d="M 3.078125 15.484375 
L 11.765625 16.84375 
Q 12.5 11.625 15.84375 8.84375 
Q 19.1875 6.0625 25.203125 6.0625 
Q 31.25 6.0625 34.171875 8.515625 
Q 37.109375 10.984375 37.109375 14.3125 
Q 37.109375 17.28125 34.515625 19 
Q 32.71875 20.171875 25.53125 21.96875 
Q 15.875 24.421875 12.140625 26.203125 
Q 8.40625 27.984375 6.46875 31.125 
Q 4.546875 34.28125 4.546875 38.09375 
Q 4.546875 41.546875 6.125 44.5 
Q 7.71875 47.46875 10.453125 49.421875 
Q 12.5 50.921875 16.03125 51.96875 
Q 19.578125 53.03125 23.640625 53.03125 
Q 29.734375 53.03125 34.34375 51.265625 
Q 38.96875 49.515625 41.15625 46.5 
Q 43.359375 43.5 44.1875 38.484375 
L 35.59375 37.3125 
Q 35.015625 41.3125 32.203125 43.546875 
Q 29.390625 45.796875 24.265625 45.796875 
Q 18.21875 45.796875 15.625 43.796875 
Q 13.03125 41.796875 13.03125 39.109375 
Q 13.03125 37.40625 14.109375 36.03125 
Q 15.1875 34.625 17.484375 33.6875 
Q 18.796875 33.203125 25.25 31.453125 
Q 34.578125 28.953125 38.25 27.359375 
Q 41.9375 25.78125 44.03125 22.75 
Q 46.140625 19.734375 46.140625 15.234375 
Q 46.140625 10.84375 43.578125 6.953125 
Q 41.015625 3.078125 36.171875 0.953125 
Q 31.34375 -1.171875 25.25 -1.171875 
Q 15.140625 -1.171875 9.84375 3.03125 
Q 4.546875 7.234375 3.078125 15.484375 
z
" id="ArialMT-115"/>
      <path d="M 0 -1.21875 
L 20.75 72.796875 
L 27.78125 72.796875 
L 7.078125 -1.21875 
z
" id="ArialMT-47"/>
      <path d="M 6.59375 0 
L 6.59375 51.859375 
L 14.453125 51.859375 
L 14.453125 44.578125 
Q 16.890625 48.390625 20.9375 50.703125 
Q 25 53.03125 30.171875 53.03125 
Q 35.9375 53.03125 39.625 50.640625 
Q 43.3125 48.25 44.828125 43.953125 
Q 50.984375 53.03125 60.84375 53.03125 
Q 68.5625 53.03125 72.703125 48.75 
Q 76.859375 44.484375 76.859375 35.59375 
L 76.859375 0 
L 68.109375 0 
L 68.109375 32.671875 
Q 68.109375 37.9375 67.25 40.25 
Q 66.40625 42.578125 64.15625 43.984375 
Q 61.921875 45.40625 58.890625 45.40625 
Q 53.421875 45.40625 49.796875 41.765625 
Q 46.1875 38.140625 46.1875 30.125 
L 46.1875 0 
L 37.40625 0 
L 37.40625 33.6875 
Q 37.40625 39.546875 35.25 42.46875 
Q 33.109375 45.40625 28.21875 45.40625 
Q 24.515625 45.40625 21.359375 43.453125 
Q 18.21875 41.5 16.796875 37.734375 
Q 15.375 33.984375 15.375 26.90625 
L 15.375 0 
z
" id="ArialMT-109"/>
      <path d="M 21.296875 -19.875 
L 1.90625 -19.875 
L 1.90625 -12.59375 
L 12.5 -12.59375 
L 12.5 64.3125 
L 1.90625 64.3125 
L 1.90625 71.578125 
L 21.296875 71.578125 
z
" id="ArialMT-93"/>
     </defs>
     <g style="fill:#262626;" transform="translate(18.8475 262.4275)rotate(-90)scale(0.16 -0.16)">
      <use xlink:href="#ArialMT-80"/>
      <use x="66.699219" xlink:href="#ArialMT-97"/>
      <use x="122.314453" xlink:href="#ArialMT-99"/>
      <use x="172.314453" xlink:href="#ArialMT-101"/>
      <use x="227.929688" xlink:href="#ArialMT-32"/>
      <use x="255.712891" xlink:href="#ArialMT-91"/>
      <use x="283.496094" xlink:href="#ArialMT-115"/>
      <use x="333.496094" xlink:href="#ArialMT-47"/>
      <use x="361.279297" xlink:href="#ArialMT-109"/>
      <use x="444.580078" xlink:href="#ArialMT-93"/>
     </g>
    </g>
   </g>
   <g id="PolyCollection_1">
    <defs>
     <path d="M 119.974107 -115.853046 
L 119.955893 -115.853046 
L 119.933556 -116.937325 
L 119.870908 -118.021604 
L 119.719191 -119.105883 
L 119.400024 -120.190162 
L 118.813879 -121.274442 
L 117.871981 -122.358721 
L 116.547832 -123.443 
L 114.919405 -124.527279 
L 113.160801 -125.611558 
L 111.474772 -126.695837 
L 110.01069 -127.780116 
L 108.819979 -128.864395 
L 107.859175 -129.948674 
L 107.02223 -131.032953 
L 106.191507 -132.117232 
L 105.30063 -133.201511 
L 104.377137 -134.28579 
L 103.521995 -135.370069 
L 102.833329 -136.454348 
L 102.343088 -137.538627 
L 102.020947 -138.622906 
L 101.829794 -139.707185 
L 101.779067 -140.791464 
L 101.93767 -141.875743 
L 102.39952 -142.960022 
L 103.222094 -144.044301 
L 104.380982 -145.12858 
L 105.780989 -146.212859 
L 107.314993 -147.297138 
L 108.911516 -148.381417 
L 110.529715 -149.465696 
L 112.120454 -150.549975 
L 113.601819 -151.634254 
L 114.880253 -152.718533 
L 115.901503 -153.802812 
L 116.678636 -154.887091 
L 117.269434 -155.97137 
L 117.733446 -157.05565 
L 118.108864 -158.139929 
L 118.413376 -159.224208 
L 118.653399 -160.308487 
L 118.833616 -161.392766 
L 118.964133 -162.477045 
L 119.060783 -163.561324 
L 119.138032 -164.645603 
L 119.202597 -165.729882 
L 119.255917 -166.814161 
L 119.30163 -167.89844 
L 119.346396 -168.982719 
L 119.39254 -170.066998 
L 119.433671 -171.151277 
L 119.459911 -172.235556 
L 119.466729 -173.319835 
L 119.45934 -174.404114 
L 119.450114 -175.488393 
L 119.451 -176.572672 
L 119.466776 -177.656951 
L 119.494705 -178.74123 
L 119.529184 -179.825509 
L 119.565636 -180.909788 
L 119.601188 -181.994067 
L 119.633513 -183.078346 
L 119.659694 -184.162625 
L 119.676288 -185.246904 
L 119.680885 -186.331183 
L 119.674314 -187.415462 
L 119.661688 -188.499741 
L 119.650263 -189.58402 
L 119.644354 -190.668299 
L 119.641815 -191.752578 
L 119.636964 -192.836858 
L 119.628034 -193.921137 
L 119.620142 -195.005416 
L 119.619081 -196.089695 
L 119.623908 -197.173974 
L 119.629379 -198.258253 
L 119.635714 -199.342532 
L 119.651045 -200.426811 
L 119.681265 -201.51109 
L 119.721374 -202.595369 
L 119.760864 -203.679648 
L 119.794474 -204.763927 
L 119.823519 -205.848206 
L 119.849379 -206.932485 
L 119.870357 -208.016764 
L 119.884391 -209.101043 
L 119.891974 -210.185322 
L 119.896317 -211.269601 
L 119.901702 -212.35388 
L 119.910884 -213.438159 
L 119.922888 -214.522438 
L 119.933732 -215.606717 
L 119.940222 -216.690996 
L 119.942912 -217.775275 
L 119.94503 -218.859554 
L 119.948941 -219.943833 
L 119.954288 -221.028112 
L 119.959228 -222.112391 
L 119.96251 -223.19667 
L 119.96749 -223.19667 
L 119.96749 -223.19667 
L 119.970772 -222.112391 
L 119.975712 -221.028112 
L 119.981059 -219.943833 
L 119.98497 -218.859554 
L 119.987088 -217.775275 
L 119.989778 -216.690996 
L 119.996268 -215.606717 
L 120.007112 -214.522438 
L 120.019116 -213.438159 
L 120.028298 -212.35388 
L 120.033683 -211.269601 
L 120.038026 -210.185322 
L 120.045609 -209.101043 
L 120.059643 -208.016764 
L 120.080621 -206.932485 
L 120.106481 -205.848206 
L 120.135526 -204.763927 
L 120.169136 -203.679648 
L 120.208626 -202.595369 
L 120.248735 -201.51109 
L 120.278955 -200.426811 
L 120.294286 -199.342532 
L 120.300621 -198.258253 
L 120.306092 -197.173974 
L 120.310919 -196.089695 
L 120.309858 -195.005416 
L 120.301966 -193.921137 
L 120.293036 -192.836858 
L 120.288185 -191.752578 
L 120.285646 -190.668299 
L 120.279737 -189.58402 
L 120.268312 -188.499741 
L 120.255686 -187.415462 
L 120.249115 -186.331183 
L 120.253712 -185.246904 
L 120.270306 -184.162625 
L 120.296487 -183.078346 
L 120.328812 -181.994067 
L 120.364364 -180.909788 
L 120.400816 -179.825509 
L 120.435295 -178.74123 
L 120.463224 -177.656951 
L 120.479 -176.572672 
L 120.479886 -175.488393 
L 120.47066 -174.404114 
L 120.463271 -173.319835 
L 120.470089 -172.235556 
L 120.496329 -171.151277 
L 120.53746 -170.066998 
L 120.583604 -168.982719 
L 120.62837 -167.89844 
L 120.674083 -166.814161 
L 120.727403 -165.729882 
L 120.791968 -164.645603 
L 120.869217 -163.561324 
L 120.965867 -162.477045 
L 121.096384 -161.392766 
L 121.276601 -160.308487 
L 121.516624 -159.224208 
L 121.821136 -158.139929 
L 122.196554 -157.05565 
L 122.660566 -155.97137 
L 123.251364 -154.887091 
L 124.028497 -153.802812 
L 125.049747 -152.718533 
L 126.328181 -151.634254 
L 127.809546 -150.549975 
L 129.400285 -149.465696 
L 131.018484 -148.381417 
L 132.615007 -147.297138 
L 134.149011 -146.212859 
L 135.549018 -145.12858 
L 136.707906 -144.044301 
L 137.53048 -142.960022 
L 137.99233 -141.875743 
L 138.150933 -140.791464 
L 138.100206 -139.707185 
L 137.909053 -138.622906 
L 137.586912 -137.538627 
L 137.096671 -136.454348 
L 136.408005 -135.370069 
L 135.552863 -134.28579 
L 134.62937 -133.201511 
L 133.738493 -132.117232 
L 132.90777 -131.032953 
L 132.070825 -129.948674 
L 131.110021 -128.864395 
L 129.91931 -127.780116 
L 128.455228 -126.695837 
L 126.769199 -125.611558 
L 125.010595 -124.527279 
L 123.382168 -123.443 
L 122.058019 -122.358721 
L 121.116121 -121.274442 
L 120.529976 -120.190162 
L 120.210809 -119.105883 
L 120.059092 -118.021604 
L 119.996444 -116.937325 
L 119.974107 -115.853046 
z
" id="md974ff3d68" style="stroke:#373737;stroke-width:1.5;"/>
    </defs>
    <g clip-path="url(#p2d3241dfe8)">
     <use style="fill:#2b8e70;stroke:#373737;stroke-width:1.5;" x="0" xlink:href="#md974ff3d68" y="489.545"/>
    </g>
   </g>
   <g id="PolyCollection_2">
    <defs>
     <path d="M 231.572396 -125.336524 
L 231.557604 -125.336524 
L 231.543357 -126.263017 
L 231.511798 -127.189509 
L 231.452686 -128.116002 
L 231.356154 -129.042495 
L 231.211848 -129.968988 
L 230.999612 -130.89548 
L 230.674356 -131.821973 
L 230.164106 -132.748466 
L 229.40101 -133.674958 
L 228.371341 -134.601451 
L 227.1359 -135.527944 
L 225.794361 -136.454437 
L 224.433653 -137.380929 
L 223.117959 -138.307422 
L 221.912237 -139.233915 
L 220.885391 -140.160407 
L 220.085106 -141.0869 
L 219.525521 -142.013393 
L 219.19872 -142.939886 
L 219.078061 -143.866378 
L 219.103549 -144.792871 
L 219.176583 -145.719364 
L 219.176679 -146.645856 
L 218.990952 -147.572349 
L 218.553698 -148.498842 
L 217.878722 -149.425335 
L 217.050166 -150.351827 
L 216.179055 -151.27832 
L 215.370572 -152.204813 
L 214.71406 -153.131305 
L 214.271983 -154.057798 
L 214.061863 -154.984291 
L 214.05186 -155.910784 
L 214.192768 -156.837276 
L 214.479442 -157.763769 
L 214.981538 -158.690262 
L 215.795226 -159.616755 
L 216.960559 -160.543247 
L 218.42188 -161.46974 
L 220.048423 -162.396233 
L 221.688354 -163.322725 
L 223.222208 -164.249218 
L 224.587359 -165.175711 
L 225.769609 -166.102204 
L 226.777987 -167.028696 
L 227.623096 -167.955189 
L 228.313729 -168.881682 
L 228.867008 -169.808174 
L 229.31476 -170.734667 
L 229.695633 -171.66116 
L 230.037565 -172.587653 
L 230.348131 -173.514145 
L 230.619955 -174.440638 
L 230.838198 -175.367131 
L 230.986748 -176.293623 
L 231.062876 -177.220116 
L 231.090723 -178.146609 
L 231.112034 -179.073102 
L 231.157635 -179.999594 
L 231.226839 -180.926087 
L 231.294202 -181.85258 
L 231.337102 -182.779072 
L 231.35686 -183.705565 
L 231.371665 -184.632058 
L 231.392493 -185.558551 
L 231.413102 -186.485043 
L 231.422678 -187.411536 
L 231.420168 -188.338029 
L 231.414044 -189.264522 
L 231.413305 -190.191014 
L 231.421248 -191.117507 
L 231.435254 -192.044 
L 231.450563 -192.970492 
L 231.4645 -193.896985 
L 231.476858 -194.823478 
L 231.487211 -195.749971 
L 231.494769 -196.676463 
L 231.500619 -197.602956 
L 231.506759 -198.529449 
L 231.512719 -199.455941 
L 231.515316 -200.382434 
L 231.511563 -201.308927 
L 231.501359 -202.23542 
L 231.48894 -203.161912 
L 231.481548 -204.088405 
L 231.484172 -205.014898 
L 231.494825 -205.94139 
L 231.505996 -206.867883 
L 231.511296 -207.794376 
L 231.510765 -208.720869 
L 231.509222 -209.647361 
L 231.509643 -210.573854 
L 231.510559 -211.500347 
L 231.51096 -212.426839 
L 231.514091 -213.353332 
L 231.523411 -214.279825 
L 231.537252 -215.206318 
L 231.5503 -216.13281 
L 231.558886 -217.059303 
L 231.571114 -217.059303 
L 231.571114 -217.059303 
L 231.5797 -216.13281 
L 231.592748 -215.206318 
L 231.606589 -214.279825 
L 231.615909 -213.353332 
L 231.61904 -212.426839 
L 231.619441 -211.500347 
L 231.620357 -210.573854 
L 231.620778 -209.647361 
L 231.619235 -208.720869 
L 231.618704 -207.794376 
L 231.624004 -206.867883 
L 231.635175 -205.94139 
L 231.645828 -205.014898 
L 231.648452 -204.088405 
L 231.64106 -203.161912 
L 231.628641 -202.23542 
L 231.618437 -201.308927 
L 231.614684 -200.382434 
L 231.617281 -199.455941 
L 231.623241 -198.529449 
L 231.629381 -197.602956 
L 231.635231 -196.676463 
L 231.642789 -195.749971 
L 231.653142 -194.823478 
L 231.6655 -193.896985 
L 231.679437 -192.970492 
L 231.694746 -192.044 
L 231.708752 -191.117507 
L 231.716695 -190.191014 
L 231.715956 -189.264522 
L 231.709832 -188.338029 
L 231.707322 -187.411536 
L 231.716898 -186.485043 
L 231.737507 -185.558551 
L 231.758335 -184.632058 
L 231.77314 -183.705565 
L 231.792898 -182.779072 
L 231.835798 -181.85258 
L 231.903161 -180.926087 
L 231.972365 -179.999594 
L 232.017966 -179.073102 
L 232.039277 -178.146609 
L 232.067124 -177.220116 
L 232.143252 -176.293623 
L 232.291802 -175.367131 
L 232.510045 -174.440638 
L 232.781869 -173.514145 
L 233.092435 -172.587653 
L 233.434367 -171.66116 
L 233.81524 -170.734667 
L 234.262992 -169.808174 
L 234.816271 -168.881682 
L 235.506904 -167.955189 
L 236.352013 -167.028696 
L 237.360391 -166.102204 
L 238.542641 -165.175711 
L 239.907792 -164.249218 
L 241.441646 -163.322725 
L 243.081577 -162.396233 
L 244.70812 -161.46974 
L 246.169441 -160.543247 
L 247.334774 -159.616755 
L 248.148462 -158.690262 
L 248.650558 -157.763769 
L 248.937232 -156.837276 
L 249.07814 -155.910784 
L 249.068137 -154.984291 
L 248.858017 -154.057798 
L 248.41594 -153.131305 
L 247.759428 -152.204813 
L 246.950945 -151.27832 
L 246.079834 -150.351827 
L 245.251278 -149.425335 
L 244.576302 -148.498842 
L 244.139048 -147.572349 
L 243.953321 -146.645856 
L 243.953417 -145.719364 
L 244.026451 -144.792871 
L 244.051939 -143.866378 
L 243.93128 -142.939886 
L 243.604479 -142.013393 
L 243.044894 -141.0869 
L 242.244609 -140.160407 
L 241.217763 -139.233915 
L 240.012041 -138.307422 
L 238.696347 -137.380929 
L 237.335639 -136.454437 
L 235.9941 -135.527944 
L 234.758659 -134.601451 
L 233.72899 -133.674958 
L 232.965894 -132.748466 
L 232.455644 -131.821973 
L 232.130388 -130.89548 
L 231.918152 -129.968988 
L 231.773846 -129.042495 
L 231.677314 -128.116002 
L 231.618202 -127.189509 
L 231.586643 -126.263017 
L 231.572396 -125.336524 
z
" id="mddabe18567" style="stroke:#373737;stroke-width:1.5;"/>
    </defs>
    <g clip-path="url(#p2d3241dfe8)">
     <use style="fill:#be631d;stroke:#373737;stroke-width:1.5;" x="0" xlink:href="#mddabe18567" y="489.545"/>
    </g>
   </g>
   <g id="PolyCollection_3">
    <defs>
     <path d="M 343.170506 -123.911416 
L 343.159494 -123.911416 
L 343.136629 -126.892301 
L 343.052464 -129.873186 
L 342.79776 -132.85407 
L 342.19264 -135.834955 
L 341.126291 -138.81584 
L 339.743742 -141.796725 
L 338.373203 -144.777609 
L 337.157728 -147.758494 
L 335.886675 -150.739379 
L 334.444982 -153.720264 
L 333.23093 -156.701148 
L 332.851619 -159.682033 
L 333.497958 -162.662918 
L 334.642946 -165.643803 
L 335.44827 -168.624687 
L 335.552972 -171.605572 
L 335.223942 -174.586457 
L 335.01574 -177.567342 
L 335.460237 -180.548226 
L 336.618458 -183.529111 
L 338.038852 -186.509996 
L 339.287738 -189.49088 
L 340.236425 -192.471765 
L 340.935096 -195.45265 
L 341.429945 -198.433535 
L 341.750195 -201.414419 
L 341.946197 -204.395304 
L 342.08459 -207.376189 
L 342.232886 -210.357074 
L 342.4144 -213.337958 
L 342.58811 -216.318843 
L 342.714724 -219.299728 
L 342.787658 -222.280613 
L 342.810997 -225.261497 
L 342.816906 -228.242382 
L 342.848232 -231.223267 
L 342.901317 -234.204152 
L 342.942577 -237.185036 
L 342.961552 -240.165921 
L 342.978863 -243.146806 
L 343.016837 -246.127691 
L 343.060615 -249.108575 
L 343.081473 -252.08946 
L 343.080912 -255.070345 
L 343.080996 -258.05123 
L 343.096125 -261.032114 
L 343.120163 -264.012999 
L 343.138623 -266.993884 
L 343.147038 -269.974768 
L 343.149887 -272.955653 
L 343.149653 -275.936538 
L 343.14406 -278.917423 
L 343.136492 -281.898307 
L 343.135247 -284.879192 
L 343.140258 -287.860077 
L 343.145051 -290.840962 
L 343.147596 -293.821846 
L 343.149966 -296.802731 
L 343.152984 -299.783616 
L 343.154032 -302.764501 
L 343.15359 -305.745385 
L 343.156092 -308.72627 
L 343.160596 -311.707155 
L 343.162389 -314.68804 
L 343.15898 -317.668924 
L 343.151127 -320.649809 
L 343.14477 -323.630694 
L 343.145307 -326.611579 
L 343.148736 -329.592463 
L 343.149551 -332.573348 
L 343.148245 -335.554233 
L 343.145253 -338.535117 
L 343.141465 -341.516002 
L 343.140732 -344.496887 
L 343.145918 -347.477772 
L 343.154662 -350.458656 
L 343.161425 -353.439541 
L 343.164248 -356.420426 
L 343.164907 -359.401311 
L 343.164993 -362.382195 
L 343.165 -365.36308 
L 343.165 -368.343965 
L 343.165 -371.32485 
L 343.165 -374.305734 
L 343.165 -377.286619 
L 343.165 -380.267504 
L 343.165 -383.248389 
L 343.165 -386.229273 
L 343.165 -389.210158 
L 343.165 -392.191043 
L 343.164997 -395.171928 
L 343.164947 -398.152812 
L 343.164542 -401.133697 
L 343.162736 -404.114582 
L 343.158625 -407.095467 
L 343.154787 -410.076351 
L 343.155687 -413.057236 
L 343.160168 -416.038121 
L 343.163573 -419.019005 
L 343.166427 -419.019005 
L 343.166427 -419.019005 
L 343.169832 -416.038121 
L 343.174313 -413.057236 
L 343.175213 -410.076351 
L 343.171375 -407.095467 
L 343.167264 -404.114582 
L 343.165458 -401.133697 
L 343.165053 -398.152812 
L 343.165003 -395.171928 
L 343.165 -392.191043 
L 343.165 -389.210158 
L 343.165 -386.229273 
L 343.165 -383.248389 
L 343.165 -380.267504 
L 343.165 -377.286619 
L 343.165 -374.305734 
L 343.165 -371.32485 
L 343.165 -368.343965 
L 343.165 -365.36308 
L 343.165007 -362.382195 
L 343.165093 -359.401311 
L 343.165752 -356.420426 
L 343.168575 -353.439541 
L 343.175338 -350.458656 
L 343.184082 -347.477772 
L 343.189268 -344.496887 
L 343.188535 -341.516002 
L 343.184747 -338.535117 
L 343.181755 -335.554233 
L 343.180449 -332.573348 
L 343.181264 -329.592463 
L 343.184693 -326.611579 
L 343.18523 -323.630694 
L 343.178873 -320.649809 
L 343.17102 -317.668924 
L 343.167611 -314.68804 
L 343.169404 -311.707155 
L 343.173908 -308.72627 
L 343.17641 -305.745385 
L 343.175968 -302.764501 
L 343.177016 -299.783616 
L 343.180034 -296.802731 
L 343.182404 -293.821846 
L 343.184949 -290.840962 
L 343.189742 -287.860077 
L 343.194753 -284.879192 
L 343.193508 -281.898307 
L 343.18594 -278.917423 
L 343.180347 -275.936538 
L 343.180113 -272.955653 
L 343.182962 -269.974768 
L 343.191377 -266.993884 
L 343.209837 -264.012999 
L 343.233875 -261.032114 
L 343.249004 -258.05123 
L 343.249088 -255.070345 
L 343.248527 -252.08946 
L 343.269385 -249.108575 
L 343.313163 -246.127691 
L 343.351137 -243.146806 
L 343.368448 -240.165921 
L 343.387423 -237.185036 
L 343.428683 -234.204152 
L 343.481768 -231.223267 
L 343.513094 -228.242382 
L 343.519003 -225.261497 
L 343.542342 -222.280613 
L 343.615276 -219.299728 
L 343.74189 -216.318843 
L 343.9156 -213.337958 
L 344.097114 -210.357074 
L 344.24541 -207.376189 
L 344.383803 -204.395304 
L 344.579805 -201.414419 
L 344.900055 -198.433535 
L 345.394904 -195.45265 
L 346.093575 -192.471765 
L 347.042262 -189.49088 
L 348.291148 -186.509996 
L 349.711542 -183.529111 
L 350.869763 -180.548226 
L 351.31426 -177.567342 
L 351.106058 -174.586457 
L 350.777028 -171.605572 
L 350.88173 -168.624687 
L 351.687054 -165.643803 
L 352.832042 -162.662918 
L 353.478381 -159.682033 
L 353.09907 -156.701148 
L 351.885018 -153.720264 
L 350.443325 -150.739379 
L 349.172272 -147.758494 
L 347.956797 -144.777609 
L 346.586258 -141.796725 
L 345.203709 -138.81584 
L 344.13736 -135.834955 
L 343.53224 -132.85407 
L 343.277536 -129.873186 
L 343.193371 -126.892301 
L 343.170506 -123.911416 
z
" id="mde010db071" style="stroke:#373737;stroke-width:1.5;"/>
    </defs>
    <g clip-path="url(#p2d3241dfe8)">
     <use style="fill:#7c78ab;stroke:#373737;stroke-width:1.5;" x="0" xlink:href="#mde010db071" y="489.545"/>
    </g>
   </g>
   <g id="PolyCollection_4">
    <defs>
     <path d="M 454.780602 -129.249882 
L 454.749398 -129.249882 
L 454.687406 -132.616829 
L 454.474197 -135.983777 
L 453.911783 -139.350725 
L 452.749171 -142.717673 
L 450.866697 -146.084621 
L 448.513993 -149.451569 
L 446.305897 -152.818517 
L 444.881242 -156.185465 
L 444.557078 -159.552413 
L 445.247078 -162.919361 
L 446.538438 -166.286309 
L 447.874204 -169.653257 
L 448.863265 -173.020205 
L 449.42142 -176.387153 
L 449.624943 -179.754101 
L 449.604543 -183.121049 
L 449.550375 -186.487996 
L 449.650572 -189.854944 
L 450.009578 -193.221892 
L 450.607082 -196.58884 
L 451.310131 -199.955788 
L 451.962133 -203.322736 
L 452.490972 -206.689684 
L 452.933779 -210.056632 
L 453.344673 -213.42358 
L 453.708472 -216.790528 
L 453.982809 -220.157476 
L 454.168839 -223.524424 
L 454.287975 -226.891372 
L 454.353396 -230.25832 
L 454.387728 -233.625268 
L 454.417171 -236.992215 
L 454.450454 -240.359163 
L 454.484302 -243.726111 
L 454.513866 -247.093059 
L 454.532119 -250.460007 
L 454.538217 -253.826955 
L 454.541098 -257.193903 
L 454.543465 -260.560851 
L 454.541159 -263.927799 
L 454.542384 -267.294747 
L 454.563811 -270.661695 
L 454.600667 -274.028643 
L 454.627322 -277.395591 
L 454.634213 -280.762539 
L 454.636435 -284.129487 
L 454.646913 -287.496435 
L 454.664275 -290.863382 
L 454.683596 -294.23033 
L 454.702417 -297.597278 
L 454.71806 -300.964226 
L 454.726739 -304.331174 
L 454.727072 -307.698122 
L 454.723641 -311.06507 
L 454.723145 -314.432018 
L 454.728036 -317.798966 
L 454.735988 -321.165914 
L 454.743103 -324.532862 
L 454.747757 -327.89981 
L 454.751549 -331.266758 
L 454.756085 -334.633706 
L 454.760582 -338.000654 
L 454.763476 -341.367602 
L 454.764643 -344.734549 
L 454.764896 -348.101497 
L 454.764622 -351.468445 
L 454.763188 -354.835393 
L 454.759248 -358.202341 
L 454.753084 -361.569289 
L 454.748895 -364.936237 
L 454.7508 -368.303185 
L 454.756831 -371.670133 
L 454.761933 -375.037081 
L 454.764233 -378.404029 
L 454.764728 -381.770977 
L 454.764029 -385.137925 
L 454.760964 -388.504873 
L 454.753533 -391.871821 
L 454.742739 -395.238769 
L 454.735193 -398.605716 
L 454.737353 -401.972664 
L 454.747286 -405.339612 
L 454.757229 -408.70656 
L 454.762693 -412.073508 
L 454.764542 -415.440456 
L 454.76494 -418.807404 
L 454.764995 -422.174352 
L 454.764999 -425.5413 
L 454.764995 -428.908248 
L 454.764949 -432.275196 
L 454.764644 -435.642144 
L 454.763364 -439.009092 
L 454.759964 -442.37604 
L 454.754524 -445.742988 
L 454.75015 -449.109936 
L 454.750592 -452.476883 
L 454.755435 -455.843831 
L 454.760679 -459.210779 
L 454.763682 -462.577727 
L 454.766318 -462.577727 
L 454.766318 -462.577727 
L 454.769321 -459.210779 
L 454.774565 -455.843831 
L 454.779408 -452.476883 
L 454.77985 -449.109936 
L 454.775476 -445.742988 
L 454.770036 -442.37604 
L 454.766636 -439.009092 
L 454.765356 -435.642144 
L 454.765051 -432.275196 
L 454.765005 -428.908248 
L 454.765001 -425.5413 
L 454.765005 -422.174352 
L 454.76506 -418.807404 
L 454.765458 -415.440456 
L 454.767307 -412.073508 
L 454.772771 -408.70656 
L 454.782714 -405.339612 
L 454.792647 -401.972664 
L 454.794807 -398.605716 
L 454.787261 -395.238769 
L 454.776467 -391.871821 
L 454.769036 -388.504873 
L 454.765971 -385.137925 
L 454.765272 -381.770977 
L 454.765767 -378.404029 
L 454.768067 -375.037081 
L 454.773169 -371.670133 
L 454.7792 -368.303185 
L 454.781105 -364.936237 
L 454.776916 -361.569289 
L 454.770752 -358.202341 
L 454.766812 -354.835393 
L 454.765378 -351.468445 
L 454.765104 -348.101497 
L 454.765357 -344.734549 
L 454.766524 -341.367602 
L 454.769418 -338.000654 
L 454.773915 -334.633706 
L 454.778451 -331.266758 
L 454.782243 -327.89981 
L 454.786897 -324.532862 
L 454.794012 -321.165914 
L 454.801964 -317.798966 
L 454.806855 -314.432018 
L 454.806359 -311.06507 
L 454.802928 -307.698122 
L 454.803261 -304.331174 
L 454.81194 -300.964226 
L 454.827583 -297.597278 
L 454.846404 -294.23033 
L 454.865725 -290.863382 
L 454.883087 -287.496435 
L 454.893565 -284.129487 
L 454.895787 -280.762539 
L 454.902678 -277.395591 
L 454.929333 -274.028643 
L 454.966189 -270.661695 
L 454.987616 -267.294747 
L 454.988841 -263.927799 
L 454.986535 -260.560851 
L 454.988902 -257.193903 
L 454.991783 -253.826955 
L 454.997881 -250.460007 
L 455.016134 -247.093059 
L 455.045698 -243.726111 
L 455.079546 -240.359163 
L 455.112829 -236.992215 
L 455.142272 -233.625268 
L 455.176604 -230.25832 
L 455.242025 -226.891372 
L 455.361161 -223.524424 
L 455.547191 -220.157476 
L 455.821528 -216.790528 
L 456.185327 -213.42358 
L 456.596221 -210.056632 
L 457.039028 -206.689684 
L 457.567867 -203.322736 
L 458.219869 -199.955788 
L 458.922918 -196.58884 
L 459.520422 -193.221892 
L 459.879428 -189.854944 
L 459.979625 -186.487996 
L 459.925457 -183.121049 
L 459.905057 -179.754101 
L 460.10858 -176.387153 
L 460.666735 -173.020205 
L 461.655796 -169.653257 
L 462.991562 -166.286309 
L 464.282922 -162.919361 
L 464.972922 -159.552413 
L 464.648758 -156.185465 
L 463.224103 -152.818517 
L 461.016007 -149.451569 
L 458.663303 -146.084621 
L 456.780829 -142.717673 
L 455.618217 -139.350725 
L 455.055803 -135.983777 
L 454.842594 -132.616829 
L 454.780602 -129.249882 
z
" id="me089dc2d13" style="stroke:#373737;stroke-width:1.5;"/>
    </defs>
    <g clip-path="url(#p2d3241dfe8)">
     <use style="fill:#cf418a;stroke:#373737;stroke-width:1.5;" x="0" xlink:href="#me089dc2d13" y="489.545"/>
    </g>
   </g>
   <g id="PolyCollection_5">
    <defs>
     <path d="M 566.373479 -119.003616 
L 566.356521 -119.003616 
L 566.336793 -120.969544 
L 566.282704 -122.935471 
L 566.15357 -124.901398 
L 565.884629 -126.867325 
L 565.394466 -128.833252 
L 564.608292 -130.79918 
L 563.490571 -132.765107 
L 562.073984 -134.731034 
L 560.475008 -136.696961 
L 558.887378 -138.662889 
L 557.539577 -140.628816 
L 556.616955 -142.594743 
L 556.189565 -144.56067 
L 556.201254 -146.526597 
L 556.526868 -148.492525 
L 557.043385 -150.458452 
L 557.65936 -152.424379 
L 558.299032 -154.390306 
L 558.879087 -156.356233 
L 559.310467 -158.322161 
L 559.524959 -160.288088 
L 559.505012 -162.254015 
L 559.297824 -164.219942 
L 559.007861 -166.18587 
L 558.77097 -168.151797 
L 558.715282 -170.117724 
L 558.918151 -172.083651 
L 559.37956 -174.049578 
L 560.033221 -176.015506 
L 560.789233 -177.981433 
L 561.572191 -179.94736 
L 562.329215 -181.913287 
L 563.020995 -183.879214 
L 563.620605 -185.845142 
L 564.120164 -187.811069 
L 564.529426 -189.776996 
L 564.863611 -191.742923 
L 565.132919 -193.708851 
L 565.34255 -195.674778 
L 565.499797 -197.640705 
L 565.618468 -199.606632 
L 565.714455 -201.572559 
L 565.796881 -203.538487 
L 565.865983 -205.504414 
L 565.920893 -207.470341 
L 565.966794 -209.436268 
L 566.011777 -211.402195 
L 566.058302 -213.368123 
L 566.100987 -215.33405 
L 566.132872 -217.299977 
L 566.151711 -219.265904 
L 566.159918 -221.231832 
L 566.160901 -223.197759 
L 566.157484 -225.163686 
L 566.152995 -227.129613 
L 566.151434 -229.09554 
L 566.155293 -231.061468 
L 566.163597 -233.027395 
L 566.17291 -234.993322 
L 566.180398 -236.959249 
L 566.185465 -238.925176 
L 566.188461 -240.891104 
L 566.189136 -242.857031 
L 566.187394 -244.822958 
L 566.184491 -246.788885 
L 566.181777 -248.754813 
L 566.178618 -250.72074 
L 566.17331 -252.686667 
L 566.166354 -254.652594 
L 566.161664 -256.618521 
L 566.164028 -258.584449 
L 566.175737 -260.550376 
L 566.195356 -262.516303 
L 566.218563 -264.48223 
L 566.239833 -266.448157 
L 566.254443 -268.414085 
L 566.260142 -270.380012 
L 566.257259 -272.345939 
L 566.24749 -274.311866 
L 566.233688 -276.277794 
L 566.221274 -278.243721 
L 566.217681 -280.209648 
L 566.227465 -282.175575 
L 566.247603 -284.141502 
L 566.269381 -286.10743 
L 566.285634 -288.073357 
L 566.295471 -290.039284 
L 566.302287 -292.005211 
L 566.308892 -293.971138 
L 566.315395 -295.937066 
L 566.320719 -297.902993 
L 566.3247 -299.86892 
L 566.328501 -301.834847 
L 566.333553 -303.800775 
L 566.340342 -305.766702 
L 566.347996 -307.732629 
L 566.354933 -309.698556 
L 566.359965 -311.664483 
L 566.362896 -313.630411 
L 566.367104 -313.630411 
L 566.367104 -313.630411 
L 566.370035 -311.664483 
L 566.375067 -309.698556 
L 566.382004 -307.732629 
L 566.389658 -305.766702 
L 566.396447 -303.800775 
L 566.401499 -301.834847 
L 566.4053 -299.86892 
L 566.409281 -297.902993 
L 566.414605 -295.937066 
L 566.421108 -293.971138 
L 566.427713 -292.005211 
L 566.434529 -290.039284 
L 566.444366 -288.073357 
L 566.460619 -286.10743 
L 566.482397 -284.141502 
L 566.502535 -282.175575 
L 566.512319 -280.209648 
L 566.508726 -278.243721 
L 566.496312 -276.277794 
L 566.48251 -274.311866 
L 566.472741 -272.345939 
L 566.469858 -270.380012 
L 566.475557 -268.414085 
L 566.490167 -266.448157 
L 566.511437 -264.48223 
L 566.534644 -262.516303 
L 566.554263 -260.550376 
L 566.565972 -258.584449 
L 566.568336 -256.618521 
L 566.563646 -254.652594 
L 566.55669 -252.686667 
L 566.551382 -250.72074 
L 566.548223 -248.754813 
L 566.545509 -246.788885 
L 566.542606 -244.822958 
L 566.540864 -242.857031 
L 566.541539 -240.891104 
L 566.544535 -238.925176 
L 566.549602 -236.959249 
L 566.55709 -234.993322 
L 566.566403 -233.027395 
L 566.574707 -231.061468 
L 566.578566 -229.09554 
L 566.577005 -227.129613 
L 566.572516 -225.163686 
L 566.569099 -223.197759 
L 566.570082 -221.231832 
L 566.578289 -219.265904 
L 566.597128 -217.299977 
L 566.629013 -215.33405 
L 566.671698 -213.368123 
L 566.718223 -211.402195 
L 566.763206 -209.436268 
L 566.809107 -207.470341 
L 566.864017 -205.504414 
L 566.933119 -203.538487 
L 567.015545 -201.572559 
L 567.111532 -199.606632 
L 567.230203 -197.640705 
L 567.38745 -195.674778 
L 567.597081 -193.708851 
L 567.866389 -191.742923 
L 568.200574 -189.776996 
L 568.609836 -187.811069 
L 569.109395 -185.845142 
L 569.709005 -183.879214 
L 570.400785 -181.913287 
L 571.157809 -179.94736 
L 571.940767 -177.981433 
L 572.696779 -176.015506 
L 573.35044 -174.049578 
L 573.811849 -172.083651 
L 574.014718 -170.117724 
L 573.95903 -168.151797 
L 573.722139 -166.18587 
L 573.432176 -164.219942 
L 573.224988 -162.254015 
L 573.205041 -160.288088 
L 573.419533 -158.322161 
L 573.850913 -156.356233 
L 574.430968 -154.390306 
L 575.07064 -152.424379 
L 575.686615 -150.458452 
L 576.203132 -148.492525 
L 576.528746 -146.526597 
L 576.540435 -144.56067 
L 576.113045 -142.594743 
L 575.190423 -140.628816 
L 573.842622 -138.662889 
L 572.254992 -136.696961 
L 570.656016 -134.731034 
L 569.239429 -132.765107 
L 568.121708 -130.79918 
L 567.335534 -128.833252 
L 566.845371 -126.867325 
L 566.57643 -124.901398 
L 566.447296 -122.935471 
L 566.393207 -120.969544 
L 566.373479 -119.003616 
z
" id="m42abcf7b49" style="stroke:#373737;stroke-width:1.5;"/>
    </defs>
    <g clip-path="url(#p2d3241dfe8)">
     <use style="fill:#65952f;stroke:#373737;stroke-width:1.5;" x="0" xlink:href="#m42abcf7b49" y="489.545"/>
    </g>
   </g>
   <g id="PolyCollection_6">
    <defs>
     <path d="M 677.987293 -67.232273 
L 677.942707 -67.232273 
L 677.77511 -68.357247 
L 676.864822 -69.48222 
L 673.636613 -70.607194 
L 666.315129 -71.732168 
L 655.760985 -72.857142 
L 645.820763 -73.982116 
L 639.0005 -75.107089 
L 635.038774 -76.232063 
L 633.325 -77.357037 
L 633.644516 -78.482011 
L 637.078816 -79.606985 
L 645.279619 -80.731958 
L 656.445883 -81.856932 
L 665.949381 -82.981906 
L 671.503832 -84.10688 
L 674.041563 -85.231854 
L 675.225246 -86.356827 
L 676.0436 -87.481801 
L 676.668397 -88.606775 
L 676.988618 -89.731749 
L 677.108663 -90.856723 
L 677.213046 -91.981697 
L 677.295938 -93.10667 
L 677.278207 -94.231644 
L 677.23042 -95.356618 
L 677.242471 -96.481592 
L 677.331818 -97.606566 
L 677.498078 -98.731539 
L 677.647374 -99.856513 
L 677.698703 -100.981487 
L 677.67419 -102.106461 
L 677.640514 -103.231435 
L 677.645356 -104.356408 
L 677.662264 -105.481382 
L 677.649051 -106.606356 
L 677.651063 -107.73133 
L 677.690499 -108.856304 
L 677.700435 -109.981277 
L 677.681453 -111.106251 
L 677.692768 -112.231225 
L 677.737786 -113.356199 
L 677.768163 -114.481173 
L 677.732721 -115.606147 
L 677.685358 -116.73112 
L 677.702518 -117.856094 
L 677.739598 -118.981068 
L 677.757514 -120.106042 
L 677.77546 -121.231016 
L 677.789765 -122.355989 
L 677.792974 -123.480963 
L 677.794523 -124.605937 
L 677.808755 -125.730911 
L 677.839039 -126.855885 
L 677.870159 -127.980858 
L 677.900631 -129.105832 
L 677.919274 -130.230806 
L 677.904985 -131.35578 
L 677.877761 -132.480754 
L 677.862257 -133.605727 
L 677.845526 -134.730701 
L 677.835033 -135.855675 
L 677.858076 -136.980649 
L 677.891995 -138.105623 
L 677.901053 -139.230596 
L 677.878821 -140.35557 
L 677.854238 -141.480544 
L 677.8699 -142.605518 
L 677.913969 -143.730492 
L 677.938106 -144.855466 
L 677.926889 -145.980439 
L 677.908677 -147.105413 
L 677.916173 -148.230387 
L 677.941505 -149.355361 
L 677.958734 -150.480335 
L 677.963275 -151.605308 
L 677.959641 -152.730282 
L 677.947611 -153.855256 
L 677.934364 -154.98023 
L 677.931756 -156.105204 
L 677.932277 -157.230177 
L 677.931154 -158.355151 
L 677.936326 -159.480125 
L 677.938007 -160.605099 
L 677.933666 -161.730073 
L 677.939932 -162.855046 
L 677.954123 -163.98002 
L 677.962536 -165.104994 
L 677.96471 -166.229968 
L 677.964982 -167.354942 
L 677.964999 -168.479916 
L 677.964999 -169.604889 
L 677.964964 -170.729863 
L 677.964493 -171.854837 
L 677.961306 -172.979811 
L 677.951017 -174.104785 
L 677.937527 -175.229758 
L 677.93698 -176.354732 
L 677.950165 -177.479706 
L 677.960923 -178.60468 
L 677.969077 -178.60468 
L 677.969077 -178.60468 
L 677.979835 -177.479706 
L 677.99302 -176.354732 
L 677.992473 -175.229758 
L 677.978983 -174.104785 
L 677.968694 -172.979811 
L 677.965507 -171.854837 
L 677.965036 -170.729863 
L 677.965001 -169.604889 
L 677.965001 -168.479916 
L 677.965018 -167.354942 
L 677.96529 -166.229968 
L 677.967464 -165.104994 
L 677.975877 -163.98002 
L 677.990068 -162.855046 
L 677.996334 -161.730073 
L 677.991993 -160.605099 
L 677.993674 -159.480125 
L 677.998846 -158.355151 
L 677.997723 -157.230177 
L 677.998244 -156.105204 
L 677.995636 -154.98023 
L 677.982389 -153.855256 
L 677.970359 -152.730282 
L 677.966725 -151.605308 
L 677.971266 -150.480335 
L 677.988495 -149.355361 
L 678.013827 -148.230387 
L 678.021323 -147.105413 
L 678.003111 -145.980439 
L 677.991894 -144.855466 
L 678.016031 -143.730492 
L 678.0601 -142.605518 
L 678.075762 -141.480544 
L 678.051179 -140.35557 
L 678.028947 -139.230596 
L 678.038005 -138.105623 
L 678.071924 -136.980649 
L 678.094967 -135.855675 
L 678.084474 -134.730701 
L 678.067743 -133.605727 
L 678.052239 -132.480754 
L 678.025015 -131.35578 
L 678.010726 -130.230806 
L 678.029369 -129.105832 
L 678.059841 -127.980858 
L 678.090961 -126.855885 
L 678.121245 -125.730911 
L 678.135477 -124.605937 
L 678.137026 -123.480963 
L 678.140235 -122.355989 
L 678.15454 -121.231016 
L 678.172486 -120.106042 
L 678.190402 -118.981068 
L 678.227482 -117.856094 
L 678.244642 -116.73112 
L 678.197279 -115.606147 
L 678.161837 -114.481173 
L 678.192214 -113.356199 
L 678.237232 -112.231225 
L 678.248547 -111.106251 
L 678.229565 -109.981277 
L 678.239501 -108.856304 
L 678.278937 -107.73133 
L 678.280949 -106.606356 
L 678.267736 -105.481382 
L 678.284644 -104.356408 
L 678.289486 -103.231435 
L 678.25581 -102.106461 
L 678.231297 -100.981487 
L 678.282626 -99.856513 
L 678.431922 -98.731539 
L 678.598182 -97.606566 
L 678.687529 -96.481592 
L 678.69958 -95.356618 
L 678.651793 -94.231644 
L 678.634062 -93.10667 
L 678.716954 -91.981697 
L 678.821337 -90.856723 
L 678.941382 -89.731749 
L 679.261603 -88.606775 
L 679.8864 -87.481801 
L 680.704754 -86.356827 
L 681.888437 -85.231854 
L 684.426168 -84.10688 
L 689.980619 -82.981906 
L 699.484117 -81.856932 
L 710.650381 -80.731958 
L 718.851184 -79.606985 
L 722.285484 -78.482011 
L 722.605 -77.357037 
L 720.891226 -76.232063 
L 716.9295 -75.107089 
L 710.109237 -73.982116 
L 700.169015 -72.857142 
L 689.614871 -71.732168 
L 682.293387 -70.607194 
L 679.065178 -69.48222 
L 678.15489 -68.357247 
L 677.987293 -67.232273 
z
" id="mcb38d9e24e" style="stroke:#373737;stroke-width:1.5;"/>
    </defs>
    <g clip-path="url(#p2d3241dfe8)">
     <use style="fill:#ca9d1e;stroke:#373737;stroke-width:1.5;" x="0" xlink:href="#mcb38d9e24e" y="489.545"/>
    </g>
   </g>
   <g id="line2d_1">
    <path clip-path="url(#p2d3241dfe8)" d="M 119.965 369.135891 
L 119.965 325.832656 
" style="fill:none;stroke:#373737;stroke-linecap:round;stroke-width:1.5;"/>
   </g>
   <g id="line2d_2">
    <path clip-path="url(#p2d3241dfe8)" d="M 119.965 355.91242 
L 119.965 343.851452 
" style="fill:none;stroke:#373737;stroke-linecap:round;stroke-width:4.5;"/>
   </g>
   <g id="line2d_3">
    <path clip-path="url(#p2d3241dfe8)" d="M 231.565 360.493912 
L 231.565 309.862082 
" style="fill:none;stroke:#373737;stroke-linecap:round;stroke-width:1.5;"/>
   </g>
   <g id="line2d_4">
    <path clip-path="url(#p2d3241dfe8)" d="M 231.565 344.358493 
L 231.565 330.44865 
" style="fill:none;stroke:#373737;stroke-linecap:round;stroke-width:4.5;"/>
   </g>
   <g id="line2d_5">
    <path clip-path="url(#p2d3241dfe8)" d="M 343.165 357.693125 
L 343.165 273.870693 
" style="fill:none;stroke:#373737;stroke-linecap:round;stroke-width:1.5;"/>
   </g>
   <g id="line2d_6">
    <path clip-path="url(#p2d3241dfe8)" d="M 343.165 333.199557 
L 343.165 309.250291 
" style="fill:none;stroke:#373737;stroke-linecap:round;stroke-width:4.5;"/>
   </g>
   <g id="line2d_7">
    <path clip-path="url(#p2d3241dfe8)" d="M 454.765 350.037953 
L 454.765 253.059233 
" style="fill:none;stroke:#373737;stroke-linecap:round;stroke-width:1.5;"/>
   </g>
   <g id="line2d_8">
    <path clip-path="url(#p2d3241dfe8)" d="M 454.765 331.752403 
L 454.765 300.079219 
" style="fill:none;stroke:#373737;stroke-linecap:round;stroke-width:4.5;"/>
   </g>
   <g id="line2d_9">
    <path clip-path="url(#p2d3241dfe8)" d="M 566.365 361.77836 
L 566.365 276.87704 
" style="fill:none;stroke:#373737;stroke-linecap:round;stroke-width:1.5;"/>
   </g>
   <g id="line2d_10">
    <path clip-path="url(#p2d3241dfe8)" d="M 566.365 343.776361 
L 566.365 317.016633 
" style="fill:none;stroke:#373737;stroke-linecap:round;stroke-width:4.5;"/>
   </g>
   <g id="line2d_11">
    <path clip-path="url(#p2d3241dfe8)" d="M 677.965 419.534124 
L 677.965 402.4075 
" style="fill:none;stroke:#373737;stroke-linecap:round;stroke-width:1.5;"/>
   </g>
   <g id="line2d_12">
    <path clip-path="url(#p2d3241dfe8)" d="M 677.965 414.227283 
L 677.965 409.483288 
" style="fill:none;stroke:#373737;stroke-linecap:round;stroke-width:4.5;"/>
   </g>
   <g id="patch_3">
    <path d="M 64.165 442.08 
L 64.165 7.2 
" style="fill:none;stroke:#262626;stroke-linecap:square;stroke-linejoin:miter;stroke-width:0.8;"/>
   </g>
   <g id="patch_4">
    <path d="M 733.765 442.08 
L 733.765 7.2 
" style="fill:none;stroke:#262626;stroke-linecap:square;stroke-linejoin:miter;stroke-width:0.8;"/>
   </g>
   <g id="patch_5">
    <path d="M 64.165 442.08 
L 733.765 442.08 
" style="fill:none;stroke:#262626;stroke-linecap:square;stroke-linejoin:miter;stroke-width:0.8;"/>
   </g>
   <g id="patch_6">
    <path d="M 64.165 7.2 
L 733.765 7.2 
" style="fill:none;stroke:#262626;stroke-linecap:square;stroke-linejoin:miter;stroke-width:0.8;"/>
   </g>
   <g id="PathCollection_1">
    <defs>
     <path d="M 0 1.5 
C 0.397805 1.5 0.77937 1.341951 1.06066 1.06066 
C 1.341951 0.77937 1.5 0.397805 1.5 0 
C 1.5 -0.397805 1.341951 -0.77937 1.06066 -1.06066 
C 0.77937 -1.341951 0.397805 -1.5 0 -1.5 
C -0.397805 -1.5 -0.77937 -1.341951 -1.06066 -1.06066 
C -1.341951 -0.77937 -1.5 -0.397805 -1.5 0 
C -1.5 0.397805 -1.341951 0.77937 -1.06066 1.06066 
C -0.77937 1.341951 -0.397805 1.5 0 1.5 
z
" id="mbe28a1f6f1" style="stroke:#373737;"/>
    </defs>
    <g clip-path="url(#p2d3241dfe8)">
     <use style="fill:#ffffff;stroke:#373737;" x="119.965" xlink:href="#mbe28a1f6f1" y="349.80928"/>
    </g>
   </g>
   <g id="PathCollection_2">
    <g clip-path="url(#p2d3241dfe8)">
     <use style="fill:#ffffff;stroke:#373737;" x="231.565" xlink:href="#mbe28a1f6f1" y="336.568981"/>
    </g>
   </g>
   <g id="PathCollection_3">
    <g clip-path="url(#p2d3241dfe8)">
     <use style="fill:#ffffff;stroke:#373737;" x="343.165" xlink:href="#mbe28a1f6f1" y="322.857828"/>
    </g>
   </g>
   <g id="PathCollection_4">
    <g clip-path="url(#p2d3241dfe8)">
     <use style="fill:#ffffff;stroke:#373737;" x="454.765" xlink:href="#mbe28a1f6f1" y="320.650462"/>
    </g>
   </g>
   <g id="PathCollection_5">
    <g clip-path="url(#p2d3241dfe8)">
     <use style="fill:#ffffff;stroke:#373737;" x="566.365" xlink:href="#mbe28a1f6f1" y="331.856118"/>
    </g>
   </g>
   <g id="PathCollection_6">
    <g clip-path="url(#p2d3241dfe8)">
     <use style="fill:#ffffff;stroke:#373737;" x="677.965" xlink:href="#mbe28a1f6f1" y="411.815082"/>
    </g>
   </g>
  </g>
 </g>
 <defs>
  <clipPath id="p2d3241dfe8">
   <rect height="434.88" width="669.6" x="64.165" y="7.2"/>
  </clipPath>
 </defs>
</svg>
