<?xml version="1.0" encoding="utf-8" standalone="no"?>
<!DOCTYPE svg PUBLIC "-//W3C//DTD SVG 1.1//EN"
  "http://www.w3.org/Graphics/SVG/1.1/DTD/svg11.dtd">
<!-- Created with matplotlib (https://matplotlib.org/) -->
<svg height="489.545pt" version="1.1" viewBox="0 0 740.965 489.545" width="740.965pt" xmlns="http://www.w3.org/2000/svg" xmlns:xlink="http://www.w3.org/1999/xlink">
 <defs>
  <style type="text/css">
*{stroke-linecap:butt;stroke-linejoin:round;white-space:pre;}
  </style>
 </defs>
 <g id="figure_1">
  <g id="patch_1">
   <path d="M 0 489.545 
L 740.965 489.545 
L 740.965 0 
L 0 0 
z
" style="fill:#ffffff;"/>
  </g>
  <g id="axes_1">
   <g id="patch_2">
    <path d="M 64.165 442.08 
L 733.765 442.08 
L 733.765 7.2 
L 64.165 7.2 
z
" style="fill:#ffffff;"/>
   </g>
   <g id="matplotlib.axis_1">
    <g id="xtick_1">
     <g id="text_1">
      <!-- 0 -->
      <defs>
       <path d="M 4.15625 35.296875 
Q 4.15625 48 6.765625 55.734375 
Q 9.375 63.484375 14.515625 67.671875 
Q 19.671875 71.875 27.484375 71.875 
Q 33.25 71.875 37.59375 69.546875 
Q 41.9375 67.234375 44.765625 62.859375 
Q 47.609375 58.5 49.21875 52.21875 
Q 50.828125 45.953125 50.828125 35.296875 
Q 50.828125 22.703125 48.234375 14.96875 
Q 45.65625 7.234375 40.5 3 
Q 35.359375 -1.21875 27.484375 -1.21875 
Q 17.140625 -1.21875 11.234375 6.203125 
Q 4.15625 15.140625 4.15625 35.296875 
z
M 13.1875 35.296875 
Q 13.1875 17.671875 17.3125 11.828125 
Q 21.4375 6 27.484375 6 
Q 33.546875 6 37.671875 11.859375 
Q 41.796875 17.71875 41.796875 35.296875 
Q 41.796875 52.984375 37.671875 58.78125 
Q 33.546875 64.59375 27.390625 64.59375 
Q 21.34375 64.59375 17.71875 59.46875 
Q 13.1875 52.9375 13.1875 35.296875 
z
" id="ArialMT-48"/>
      </defs>
      <g style="fill:#262626;" transform="translate(115.51625 460.5325)scale(0.16 -0.16)">
       <use xlink:href="#ArialMT-48"/>
      </g>
     </g>
    </g>
    <g id="xtick_2">
     <g id="text_2">
      <!-- 1 -->
      <defs>
       <path d="M 37.25 0 
L 28.46875 0 
L 28.46875 56 
Q 25.296875 52.984375 20.140625 49.953125 
Q 14.984375 46.921875 10.890625 45.40625 
L 10.890625 53.90625 
Q 18.265625 57.375 23.78125 62.296875 
Q 29.296875 67.234375 31.59375 71.875 
L 37.25 71.875 
z
" id="ArialMT-49"/>
      </defs>
      <g style="fill:#262626;" transform="translate(227.11625 460.5325)scale(0.16 -0.16)">
       <use xlink:href="#ArialMT-49"/>
      </g>
     </g>
    </g>
    <g id="xtick_3">
     <g id="text_3">
      <!-- 2 -->
      <defs>
       <path d="M 50.34375 8.453125 
L 50.34375 0 
L 3.03125 0 
Q 2.9375 3.171875 4.046875 6.109375 
Q 5.859375 10.9375 9.828125 15.625 
Q 13.8125 20.3125 21.34375 26.46875 
Q 33.015625 36.03125 37.109375 41.625 
Q 41.21875 47.21875 41.21875 52.203125 
Q 41.21875 57.421875 37.46875 61 
Q 33.734375 64.59375 27.734375 64.59375 
Q 21.390625 64.59375 17.578125 60.78125 
Q 13.765625 56.984375 13.71875 50.25 
L 4.6875 51.171875 
Q 5.609375 61.28125 11.65625 66.578125 
Q 17.71875 71.875 27.9375 71.875 
Q 38.234375 71.875 44.234375 66.15625 
Q 50.25 60.453125 50.25 52 
Q 50.25 47.703125 48.484375 43.546875 
Q 46.734375 39.40625 42.65625 34.8125 
Q 38.578125 30.21875 29.109375 22.21875 
Q 21.1875 15.578125 18.9375 13.203125 
Q 16.703125 10.84375 15.234375 8.453125 
z
" id="ArialMT-50"/>
      </defs>
      <g style="fill:#262626;" transform="translate(338.71625 460.5325)scale(0.16 -0.16)">
       <use xlink:href="#ArialMT-50"/>
      </g>
     </g>
    </g>
    <g id="xtick_4">
     <g id="text_4">
      <!-- 3 -->
      <defs>
       <path d="M 4.203125 18.890625 
L 12.984375 20.0625 
Q 14.5 12.59375 18.140625 9.296875 
Q 21.78125 6 27 6 
Q 33.203125 6 37.46875 10.296875 
Q 41.75 14.59375 41.75 20.953125 
Q 41.75 27 37.796875 30.921875 
Q 33.84375 34.859375 27.734375 34.859375 
Q 25.25 34.859375 21.53125 33.890625 
L 22.515625 41.609375 
Q 23.390625 41.5 23.921875 41.5 
Q 29.546875 41.5 34.03125 44.421875 
Q 38.53125 47.359375 38.53125 53.46875 
Q 38.53125 58.296875 35.25 61.46875 
Q 31.984375 64.65625 26.8125 64.65625 
Q 21.6875 64.65625 18.265625 61.421875 
Q 14.84375 58.203125 13.875 51.765625 
L 5.078125 53.328125 
Q 6.6875 62.15625 12.390625 67.015625 
Q 18.109375 71.875 26.609375 71.875 
Q 32.46875 71.875 37.390625 69.359375 
Q 42.328125 66.84375 44.9375 62.5 
Q 47.5625 58.15625 47.5625 53.265625 
Q 47.5625 48.640625 45.0625 44.828125 
Q 42.578125 41.015625 37.703125 38.765625 
Q 44.046875 37.3125 47.5625 32.6875 
Q 51.078125 28.078125 51.078125 21.140625 
Q 51.078125 11.765625 44.234375 5.25 
Q 37.40625 -1.265625 26.953125 -1.265625 
Q 17.53125 -1.265625 11.296875 4.34375 
Q 5.078125 9.96875 4.203125 18.890625 
z
" id="ArialMT-51"/>
      </defs>
      <g style="fill:#262626;" transform="translate(450.31625 460.5325)scale(0.16 -0.16)">
       <use xlink:href="#ArialMT-51"/>
      </g>
     </g>
    </g>
    <g id="xtick_5">
     <g id="text_5">
      <!-- 4 -->
      <defs>
       <path d="M 32.328125 0 
L 32.328125 17.140625 
L 1.265625 17.140625 
L 1.265625 25.203125 
L 33.9375 71.578125 
L 41.109375 71.578125 
L 41.109375 25.203125 
L 50.78125 25.203125 
L 50.78125 17.140625 
L 41.109375 17.140625 
L 41.109375 0 
z
M 32.328125 25.203125 
L 32.328125 57.46875 
L 9.90625 25.203125 
z
" id="ArialMT-52"/>
      </defs>
      <g style="fill:#262626;" transform="translate(561.91625 460.5325)scale(0.16 -0.16)">
       <use xlink:href="#ArialMT-52"/>
      </g>
     </g>
    </g>
    <g id="xtick_6">
     <g id="text_6">
      <!-- 5 -->
      <defs>
       <path d="M 4.15625 18.75 
L 13.375 19.53125 
Q 14.40625 12.796875 18.140625 9.390625 
Q 21.875 6 27.15625 6 
Q 33.5 6 37.890625 10.78125 
Q 42.28125 15.578125 42.28125 23.484375 
Q 42.28125 31 38.0625 35.34375 
Q 33.84375 39.703125 27 39.703125 
Q 22.75 39.703125 19.328125 37.765625 
Q 15.921875 35.84375 13.96875 32.765625 
L 5.71875 33.84375 
L 12.640625 70.609375 
L 48.25 70.609375 
L 48.25 62.203125 
L 19.671875 62.203125 
L 15.828125 42.96875 
Q 22.265625 47.46875 29.34375 47.46875 
Q 38.71875 47.46875 45.15625 40.96875 
Q 51.609375 34.46875 51.609375 24.265625 
Q 51.609375 14.546875 45.953125 7.46875 
Q 39.0625 -1.21875 27.15625 -1.21875 
Q 17.390625 -1.21875 11.203125 4.25 
Q 5.03125 9.71875 4.15625 18.75 
z
" id="ArialMT-53"/>
      </defs>
      <g style="fill:#262626;" transform="translate(673.51625 460.5325)scale(0.16 -0.16)">
       <use xlink:href="#ArialMT-53"/>
      </g>
     </g>
    </g>
    <g id="text_7">
     <!-- Route -->
     <defs>
      <path d="M 7.859375 0 
L 7.859375 71.578125 
L 39.59375 71.578125 
Q 49.171875 71.578125 54.140625 69.640625 
Q 59.125 67.71875 62.109375 62.828125 
Q 65.09375 57.953125 65.09375 52.046875 
Q 65.09375 44.4375 60.15625 39.203125 
Q 55.21875 33.984375 44.921875 32.5625 
Q 48.6875 30.765625 50.640625 29 
Q 54.78125 25.203125 58.5 19.484375 
L 70.953125 0 
L 59.03125 0 
L 49.5625 14.890625 
Q 45.40625 21.34375 42.71875 24.75 
Q 40.046875 28.171875 37.921875 29.53125 
Q 35.796875 30.90625 33.59375 31.453125 
Q 31.984375 31.78125 28.328125 31.78125 
L 17.328125 31.78125 
L 17.328125 0 
z
M 17.328125 39.984375 
L 37.703125 39.984375 
Q 44.1875 39.984375 47.84375 41.328125 
Q 51.515625 42.671875 53.421875 45.625 
Q 55.328125 48.578125 55.328125 52.046875 
Q 55.328125 57.125 51.640625 60.390625 
Q 47.953125 63.671875 39.984375 63.671875 
L 17.328125 63.671875 
z
" id="ArialMT-82"/>
      <path d="M 3.328125 25.921875 
Q 3.328125 40.328125 11.328125 47.265625 
Q 18.015625 53.03125 27.640625 53.03125 
Q 38.328125 53.03125 45.109375 46.015625 
Q 51.90625 39.015625 51.90625 26.65625 
Q 51.90625 16.65625 48.90625 10.90625 
Q 45.90625 5.171875 40.15625 2 
Q 34.421875 -1.171875 27.640625 -1.171875 
Q 16.75 -1.171875 10.03125 5.8125 
Q 3.328125 12.796875 3.328125 25.921875 
z
M 12.359375 25.921875 
Q 12.359375 15.96875 16.703125 11.015625 
Q 21.046875 6.0625 27.640625 6.0625 
Q 34.1875 6.0625 38.53125 11.03125 
Q 42.875 16.015625 42.875 26.21875 
Q 42.875 35.84375 38.5 40.796875 
Q 34.125 45.75 27.640625 45.75 
Q 21.046875 45.75 16.703125 40.8125 
Q 12.359375 35.890625 12.359375 25.921875 
z
" id="ArialMT-111"/>
      <path d="M 40.578125 0 
L 40.578125 7.625 
Q 34.515625 -1.171875 24.125 -1.171875 
Q 19.53125 -1.171875 15.546875 0.578125 
Q 11.578125 2.34375 9.640625 5 
Q 7.71875 7.671875 6.9375 11.53125 
Q 6.390625 14.109375 6.390625 19.734375 
L 6.390625 51.859375 
L 15.1875 51.859375 
L 15.1875 23.09375 
Q 15.1875 16.21875 15.71875 13.8125 
Q 16.546875 10.359375 19.234375 8.375 
Q 21.921875 6.390625 25.875 6.390625 
Q 29.828125 6.390625 33.296875 8.421875 
Q 36.765625 10.453125 38.203125 13.9375 
Q 39.65625 17.4375 39.65625 24.078125 
L 39.65625 51.859375 
L 48.4375 51.859375 
L 48.4375 0 
z
" id="ArialMT-117"/>
      <path d="M 25.78125 7.859375 
L 27.046875 0.09375 
Q 23.34375 -0.6875 20.40625 -0.6875 
Q 15.625 -0.6875 12.984375 0.828125 
Q 10.359375 2.34375 9.28125 4.8125 
Q 8.203125 7.28125 8.203125 15.1875 
L 8.203125 45.015625 
L 1.765625 45.015625 
L 1.765625 51.859375 
L 8.203125 51.859375 
L 8.203125 64.703125 
L 16.9375 69.96875 
L 16.9375 51.859375 
L 25.78125 51.859375 
L 25.78125 45.015625 
L 16.9375 45.015625 
L 16.9375 14.703125 
Q 16.9375 10.9375 17.40625 9.859375 
Q 17.875 8.796875 18.921875 8.15625 
Q 19.96875 7.515625 21.921875 7.515625 
Q 23.390625 7.515625 25.78125 7.859375 
z
" id="ArialMT-116"/>
      <path d="M 42.09375 16.703125 
L 51.171875 15.578125 
Q 49.03125 7.625 43.21875 3.21875 
Q 37.40625 -1.171875 28.375 -1.171875 
Q 17 -1.171875 10.328125 5.828125 
Q 3.65625 12.84375 3.65625 25.484375 
Q 3.65625 38.578125 10.390625 45.796875 
Q 17.140625 53.03125 27.875 53.03125 
Q 38.28125 53.03125 44.875 45.953125 
Q 51.46875 38.875 51.46875 26.03125 
Q 51.46875 25.25 51.421875 23.6875 
L 12.75 23.6875 
Q 13.234375 15.140625 17.578125 10.59375 
Q 21.921875 6.0625 28.421875 6.0625 
Q 33.25 6.0625 36.671875 8.59375 
Q 40.09375 11.140625 42.09375 16.703125 
z
M 13.234375 30.90625 
L 42.1875 30.90625 
Q 41.609375 37.453125 38.875 40.71875 
Q 34.671875 45.796875 27.984375 45.796875 
Q 21.921875 45.796875 17.796875 41.75 
Q 13.671875 37.703125 13.234375 30.90625 
z
" id="ArialMT-101"/>
     </defs>
     <g style="fill:#262626;" transform="translate(377.61875 479.165)scale(0.16 -0.16)">
      <use xlink:href="#ArialMT-82"/>
      <use x="72.216797" xlink:href="#ArialMT-111"/>
      <use x="127.832031" xlink:href="#ArialMT-117"/>
      <use x="183.447266" xlink:href="#ArialMT-116"/>
      <use x="211.230469" xlink:href="#ArialMT-101"/>
     </g>
    </g>
   </g>
   <g id="matplotlib.axis_2">
    <g id="ytick_1">
     <g id="text_8">
      <!-- 0.05 -->
      <defs>
       <path d="M 9.078125 0 
L 9.078125 10.015625 
L 19.09375 10.015625 
L 19.09375 0 
z
" id="ArialMT-46"/>
      </defs>
      <g style="fill:#262626;" transform="translate(26.0275 424.825412)scale(0.16 -0.16)">
       <use xlink:href="#ArialMT-48"/>
       <use x="55.615234" xlink:href="#ArialMT-46"/>
       <use x="83.398438" xlink:href="#ArialMT-48"/>
       <use x="139.013672" xlink:href="#ArialMT-53"/>
      </g>
     </g>
    </g>
    <g id="ytick_2">
     <g id="text_9">
      <!-- 0.10 -->
      <g style="fill:#262626;" transform="translate(26.0275 374.914548)scale(0.16 -0.16)">
       <use xlink:href="#ArialMT-48"/>
       <use x="55.615234" xlink:href="#ArialMT-46"/>
       <use x="83.398438" xlink:href="#ArialMT-49"/>
       <use x="139.013672" xlink:href="#ArialMT-48"/>
      </g>
     </g>
    </g>
    <g id="ytick_3">
     <g id="text_10">
      <!-- 0.15 -->
      <g style="fill:#262626;" transform="translate(26.0275 325.003685)scale(0.16 -0.16)">
       <use xlink:href="#ArialMT-48"/>
       <use x="55.615234" xlink:href="#ArialMT-46"/>
       <use x="83.398438" xlink:href="#ArialMT-49"/>
       <use x="139.013672" xlink:href="#ArialMT-53"/>
      </g>
     </g>
    </g>
    <g id="ytick_4">
     <g id="text_11">
      <!-- 0.20 -->
      <g style="fill:#262626;" transform="translate(26.0275 275.092821)scale(0.16 -0.16)">
       <use xlink:href="#ArialMT-48"/>
       <use x="55.615234" xlink:href="#ArialMT-46"/>
       <use x="83.398438" xlink:href="#ArialMT-50"/>
       <use x="139.013672" xlink:href="#ArialMT-48"/>
      </g>
     </g>
    </g>
    <g id="ytick_5">
     <g id="text_12">
      <!-- 0.25 -->
      <g style="fill:#262626;" transform="translate(26.0275 225.181957)scale(0.16 -0.16)">
       <use xlink:href="#ArialMT-48"/>
       <use x="55.615234" xlink:href="#ArialMT-46"/>
       <use x="83.398438" xlink:href="#ArialMT-50"/>
       <use x="139.013672" xlink:href="#ArialMT-53"/>
      </g>
     </g>
    </g>
    <g id="ytick_6">
     <g id="text_13">
      <!-- 0.30 -->
      <g style="fill:#262626;" transform="translate(26.0275 175.271094)scale(0.16 -0.16)">
       <use xlink:href="#ArialMT-48"/>
       <use x="55.615234" xlink:href="#ArialMT-46"/>
       <use x="83.398438" xlink:href="#ArialMT-51"/>
       <use x="139.013672" xlink:href="#ArialMT-48"/>
      </g>
     </g>
    </g>
    <g id="ytick_7">
     <g id="text_14">
      <!-- 0.35 -->
      <g style="fill:#262626;" transform="translate(26.0275 125.36023)scale(0.16 -0.16)">
       <use xlink:href="#ArialMT-48"/>
       <use x="55.615234" xlink:href="#ArialMT-46"/>
       <use x="83.398438" xlink:href="#ArialMT-51"/>
       <use x="139.013672" xlink:href="#ArialMT-53"/>
      </g>
     </g>
    </g>
    <g id="ytick_8">
     <g id="text_15">
      <!-- 0.40 -->
      <g style="fill:#262626;" transform="translate(26.0275 75.449367)scale(0.16 -0.16)">
       <use xlink:href="#ArialMT-48"/>
       <use x="55.615234" xlink:href="#ArialMT-46"/>
       <use x="83.398438" xlink:href="#ArialMT-52"/>
       <use x="139.013672" xlink:href="#ArialMT-48"/>
      </g>
     </g>
    </g>
    <g id="ytick_9">
     <g id="text_16">
      <!-- 0.45 -->
      <g style="fill:#262626;" transform="translate(26.0275 25.538503)scale(0.16 -0.16)">
       <use xlink:href="#ArialMT-48"/>
       <use x="55.615234" xlink:href="#ArialMT-46"/>
       <use x="83.398438" xlink:href="#ArialMT-52"/>
       <use x="139.013672" xlink:href="#ArialMT-53"/>
      </g>
     </g>
    </g>
    <g id="text_17">
     <!-- Pace [s/m] -->
     <defs>
      <path d="M 7.71875 0 
L 7.71875 71.578125 
L 34.71875 71.578125 
Q 41.84375 71.578125 45.609375 70.90625 
Q 50.875 70.015625 54.4375 67.546875 
Q 58.015625 65.09375 60.1875 60.640625 
Q 62.359375 56.203125 62.359375 50.875 
Q 62.359375 41.75 56.546875 35.421875 
Q 50.734375 29.109375 35.546875 29.109375 
L 17.1875 29.109375 
L 17.1875 0 
z
M 17.1875 37.546875 
L 35.6875 37.546875 
Q 44.875 37.546875 48.734375 40.96875 
Q 52.59375 44.390625 52.59375 50.59375 
Q 52.59375 55.078125 50.3125 58.265625 
Q 48.046875 61.46875 44.34375 62.5 
Q 41.9375 63.140625 35.5 63.140625 
L 17.1875 63.140625 
z
" id="ArialMT-80"/>
      <path d="M 40.4375 6.390625 
Q 35.546875 2.25 31.03125 0.53125 
Q 26.515625 -1.171875 21.34375 -1.171875 
Q 12.796875 -1.171875 8.203125 3 
Q 3.609375 7.171875 3.609375 13.671875 
Q 3.609375 17.484375 5.34375 20.625 
Q 7.078125 23.78125 9.890625 25.6875 
Q 12.703125 27.59375 16.21875 28.5625 
Q 18.796875 29.25 24.03125 29.890625 
Q 34.671875 31.15625 39.703125 32.90625 
Q 39.75 34.71875 39.75 35.203125 
Q 39.75 40.578125 37.25 42.78125 
Q 33.890625 45.75 27.25 45.75 
Q 21.046875 45.75 18.09375 43.578125 
Q 15.140625 41.40625 13.71875 35.890625 
L 5.125 37.0625 
Q 6.296875 42.578125 8.984375 45.96875 
Q 11.671875 49.359375 16.75 51.1875 
Q 21.828125 53.03125 28.515625 53.03125 
Q 35.15625 53.03125 39.296875 51.46875 
Q 43.453125 49.90625 45.40625 47.53125 
Q 47.359375 45.171875 48.140625 41.546875 
Q 48.578125 39.3125 48.578125 33.453125 
L 48.578125 21.734375 
Q 48.578125 9.46875 49.140625 6.21875 
Q 49.703125 2.984375 51.375 0 
L 42.1875 0 
Q 40.828125 2.734375 40.4375 6.390625 
z
M 39.703125 26.03125 
Q 34.90625 24.078125 25.34375 22.703125 
Q 19.921875 21.921875 17.671875 20.9375 
Q 15.4375 19.96875 14.203125 18.09375 
Q 12.984375 16.21875 12.984375 13.921875 
Q 12.984375 10.40625 15.640625 8.0625 
Q 18.3125 5.71875 23.4375 5.71875 
Q 28.515625 5.71875 32.46875 7.9375 
Q 36.421875 10.15625 38.28125 14.015625 
Q 39.703125 17 39.703125 22.796875 
z
" id="ArialMT-97"/>
      <path d="M 40.4375 19 
L 49.078125 17.875 
Q 47.65625 8.9375 41.8125 3.875 
Q 35.984375 -1.171875 27.484375 -1.171875 
Q 16.84375 -1.171875 10.375 5.78125 
Q 3.90625 12.75 3.90625 25.734375 
Q 3.90625 34.125 6.6875 40.421875 
Q 9.46875 46.734375 15.15625 49.875 
Q 20.84375 53.03125 27.546875 53.03125 
Q 35.984375 53.03125 41.359375 48.75 
Q 46.734375 44.484375 48.25 36.625 
L 39.703125 35.296875 
Q 38.484375 40.53125 35.375 43.15625 
Q 32.28125 45.796875 27.875 45.796875 
Q 21.234375 45.796875 17.078125 41.03125 
Q 12.9375 36.28125 12.9375 25.984375 
Q 12.9375 15.53125 16.9375 10.796875 
Q 20.953125 6.0625 27.390625 6.0625 
Q 32.5625 6.0625 36.03125 9.234375 
Q 39.5 12.40625 40.4375 19 
z
" id="ArialMT-99"/>
      <path id="ArialMT-32"/>
      <path d="M 6.78125 -19.875 
L 6.78125 71.578125 
L 26.171875 71.578125 
L 26.171875 64.3125 
L 15.578125 64.3125 
L 15.578125 -12.59375 
L 26.171875 -12.59375 
L 26.171875 -19.875 
z
" id="ArialMT-91"/>
      <path d="M 3.078125 15.484375 
L 11.765625 16.84375 
Q 12.5 11.625 15.84375 8.84375 
Q 19.1875 6.0625 25.203125 6.0625 
Q 31.25 6.0625 34.171875 8.515625 
Q 37.109375 10.984375 37.109375 14.3125 
Q 37.109375 17.28125 34.515625 19 
Q 32.71875 20.171875 25.53125 21.96875 
Q 15.875 24.421875 12.140625 26.203125 
Q 8.40625 27.984375 6.46875 31.125 
Q 4.546875 34.28125 4.546875 38.09375 
Q 4.546875 41.546875 6.125 44.5 
Q 7.71875 47.46875 10.453125 49.421875 
Q 12.5 50.921875 16.03125 51.96875 
Q 19.578125 53.03125 23.640625 53.03125 
Q 29.734375 53.03125 34.34375 51.265625 
Q 38.96875 49.515625 41.15625 46.5 
Q 43.359375 43.5 44.1875 38.484375 
L 35.59375 37.3125 
Q 35.015625 41.3125 32.203125 43.546875 
Q 29.390625 45.796875 24.265625 45.796875 
Q 18.21875 45.796875 15.625 43.796875 
Q 13.03125 41.796875 13.03125 39.109375 
Q 13.03125 37.40625 14.109375 36.03125 
Q 15.1875 34.625 17.484375 33.6875 
Q 18.796875 33.203125 25.25 31.453125 
Q 34.578125 28.953125 38.25 27.359375 
Q 41.9375 25.78125 44.03125 22.75 
Q 46.140625 19.734375 46.140625 15.234375 
Q 46.140625 10.84375 43.578125 6.953125 
Q 41.015625 3.078125 36.171875 0.953125 
Q 31.34375 -1.171875 25.25 -1.171875 
Q 15.140625 -1.171875 9.84375 3.03125 
Q 4.546875 7.234375 3.078125 15.484375 
z
" id="ArialMT-115"/>
      <path d="M 0 -1.21875 
L 20.75 72.796875 
L 27.78125 72.796875 
L 7.078125 -1.21875 
z
" id="ArialMT-47"/>
      <path d="M 6.59375 0 
L 6.59375 51.859375 
L 14.453125 51.859375 
L 14.453125 44.578125 
Q 16.890625 48.390625 20.9375 50.703125 
Q 25 53.03125 30.171875 53.03125 
Q 35.9375 53.03125 39.625 50.640625 
Q 43.3125 48.25 44.828125 43.953125 
Q 50.984375 53.03125 60.84375 53.03125 
Q 68.5625 53.03125 72.703125 48.75 
Q 76.859375 44.484375 76.859375 35.59375 
L 76.859375 0 
L 68.109375 0 
L 68.109375 32.671875 
Q 68.109375 37.9375 67.25 40.25 
Q 66.40625 42.578125 64.15625 43.984375 
Q 61.921875 45.40625 58.890625 45.40625 
Q 53.421875 45.40625 49.796875 41.765625 
Q 46.1875 38.140625 46.1875 30.125 
L 46.1875 0 
L 37.40625 0 
L 37.40625 33.6875 
Q 37.40625 39.546875 35.25 42.46875 
Q 33.109375 45.40625 28.21875 45.40625 
Q 24.515625 45.40625 21.359375 43.453125 
Q 18.21875 41.5 16.796875 37.734375 
Q 15.375 33.984375 15.375 26.90625 
L 15.375 0 
z
" id="ArialMT-109"/>
      <path d="M 21.296875 -19.875 
L 1.90625 -19.875 
L 1.90625 -12.59375 
L 12.5 -12.59375 
L 12.5 64.3125 
L 1.90625 64.3125 
L 1.90625 71.578125 
L 21.296875 71.578125 
z
" id="ArialMT-93"/>
     </defs>
     <g style="fill:#262626;" transform="translate(18.8475 262.4275)rotate(-90)scale(0.16 -0.16)">
      <use xlink:href="#ArialMT-80"/>
      <use x="66.699219" xlink:href="#ArialMT-97"/>
      <use x="122.314453" xlink:href="#ArialMT-99"/>
      <use x="172.314453" xlink:href="#ArialMT-101"/>
      <use x="227.929688" xlink:href="#ArialMT-32"/>
      <use x="255.712891" xlink:href="#ArialMT-91"/>
      <use x="283.496094" xlink:href="#ArialMT-115"/>
      <use x="333.496094" xlink:href="#ArialMT-47"/>
      <use x="361.279297" xlink:href="#ArialMT-109"/>
      <use x="444.580078" xlink:href="#ArialMT-93"/>
     </g>
    </g>
   </g>
   <g id="PolyCollection_1">
    <defs>
     <path d="M 97.729254 -118.127373 
L 97.560746 -118.127373 
L 97.503946 -118.531034 
L 97.415898 -118.934694 
L 97.283582 -119.338355 
L 97.090613 -119.742016 
L 96.81725 -120.145676 
L 96.440848 -120.549337 
L 95.936901 -120.952998 
L 95.28086 -121.356659 
L 94.450787 -121.760319 
L 93.430796 -122.16398 
L 92.214964 -122.567641 
L 90.811093 -122.971301 
L 89.243468 -123.374962 
L 87.55366 -123.778623 
L 85.798622 -124.182284 
L 84.045842 -124.585944 
L 82.366097 -124.989605 
L 80.825052 -125.393266 
L 79.475466 -125.796927 
L 78.351729 -126.200587 
L 77.467879 -126.604248 
L 76.819351 -127.007909 
L 76.387641 -127.411569 
L 76.146394 -127.81523 
L 76.067174 -128.218891 
L 76.123497 -128.622552 
L 76.292432 -129.026212 
L 76.553848 -129.429873 
L 76.888135 -129.833534 
L 77.273527 -130.237194 
L 77.684208 -130.640855 
L 78.090023 -131.044516 
L 78.458116 -131.448177 
L 78.756203 -131.851837 
L 78.956698 -132.255498 
L 79.040614 -132.659159 
L 79.00022 -133.062819 
L 78.839732 -133.46648 
L 78.573936 -133.870141 
L 78.225223 -134.273802 
L 77.819954 -134.677462 
L 77.385188 -135.081123 
L 76.946512 -135.484784 
L 76.527191 -135.888445 
L 76.148257 -136.292105 
L 75.828824 -136.695766 
L 75.585855 -137.099427 
L 75.433039 -137.503087 
L 75.378903 -137.906748 
L 75.424858 -138.310409 
L 75.564029 -138.71407 
L 75.78158 -139.11773 
L 76.056741 -139.521391 
L 76.366187 -139.925052 
L 76.687947 -140.328712 
L 77.004883 -140.732373 
L 77.306987 -141.136034 
L 77.592121 -141.539695 
L 77.865263 -141.943355 
L 78.136661 -142.347016 
L 78.419398 -142.750677 
L 78.726857 -143.154337 
L 79.070478 -143.557998 
L 79.458074 -143.961659 
L 79.892939 -144.36532 
L 80.373874 -144.76898 
L 80.896152 -145.172641 
L 81.453239 -145.576302 
L 82.038895 -145.979963 
L 82.649106 -146.383623 
L 83.28331 -146.787284 
L 83.944538 -147.190945 
L 84.63839 -147.594605 
L 85.371095 -147.998266 
L 86.147177 -148.401927 
L 86.967316 -148.805588 
L 87.826957 -149.209248 
L 88.715966 -149.612909 
L 89.619388 -150.01657 
L 90.519107 -150.42023 
L 91.395999 -150.823891 
L 92.232146 -151.227552 
L 93.012683 -151.631213 
L 93.726978 -152.034873 
L 94.369028 -152.438534 
L 94.937131 -152.842195 
L 95.433024 -153.245855 
L 95.860771 -153.649516 
L 96.225689 -154.053177 
L 96.533511 -154.456838 
L 96.789879 -154.860498 
L 97.000169 -155.264159 
L 97.16952 -155.66782 
L 97.302957 -156.071481 
L 97.405475 -156.475141 
L 97.482037 -156.878802 
L 97.537468 -157.282463 
L 97.576286 -157.686123 
L 97.602533 -158.089784 
L 97.687467 -158.089784 
L 97.687467 -158.089784 
L 97.713714 -157.686123 
L 97.752532 -157.282463 
L 97.807963 -156.878802 
L 97.884525 -156.475141 
L 97.987043 -156.071481 
L 98.12048 -155.66782 
L 98.289831 -155.264159 
L 98.500121 -154.860498 
L 98.756489 -154.456838 
L 99.064311 -154.053177 
L 99.429229 -153.649516 
L 99.856976 -153.245855 
L 100.352869 -152.842195 
L 100.920972 -152.438534 
L 101.563022 -152.034873 
L 102.277317 -151.631213 
L 103.057854 -151.227552 
L 103.894001 -150.823891 
L 104.770893 -150.42023 
L 105.670612 -150.01657 
L 106.574034 -149.612909 
L 107.463043 -149.209248 
L 108.322684 -148.805588 
L 109.142823 -148.401927 
L 109.918905 -147.998266 
L 110.65161 -147.594605 
L 111.345462 -147.190945 
L 112.00669 -146.787284 
L 112.640894 -146.383623 
L 113.251105 -145.979963 
L 113.836761 -145.576302 
L 114.393848 -145.172641 
L 114.916126 -144.76898 
L 115.397061 -144.36532 
L 115.831926 -143.961659 
L 116.219522 -143.557998 
L 116.563143 -143.154337 
L 116.870602 -142.750677 
L 117.153339 -142.347016 
L 117.424737 -141.943355 
L 117.697879 -141.539695 
L 117.983013 -141.136034 
L 118.285117 -140.732373 
L 118.602053 -140.328712 
L 118.923813 -139.925052 
L 119.233259 -139.521391 
L 119.50842 -139.11773 
L 119.725971 -138.71407 
L 119.865142 -138.310409 
L 119.911097 -137.906748 
L 119.856961 -137.503087 
L 119.704145 -137.099427 
L 119.461176 -136.695766 
L 119.141743 -136.292105 
L 118.762809 -135.888445 
L 118.343488 -135.484784 
L 117.904812 -135.081123 
L 117.470046 -134.677462 
L 117.064777 -134.273802 
L 116.716064 -133.870141 
L 116.450268 -133.46648 
L 116.28978 -133.062819 
L 116.249386 -132.659159 
L 116.333302 -132.255498 
L 116.533797 -131.851837 
L 116.831884 -131.448177 
L 117.199977 -131.044516 
L 117.605792 -130.640855 
L 118.016473 -130.237194 
L 118.401865 -129.833534 
L 118.736152 -129.429873 
L 118.997568 -129.026212 
L 119.166503 -128.622552 
L 119.222826 -128.218891 
L 119.143606 -127.81523 
L 118.902359 -127.411569 
L 118.470649 -127.007909 
L 117.822121 -126.604248 
L 116.938271 -126.200587 
L 115.814534 -125.796927 
L 114.464948 -125.393266 
L 112.923903 -124.989605 
L 111.244158 -124.585944 
L 109.491378 -124.182284 
L 107.73634 -123.778623 
L 106.046532 -123.374962 
L 104.478907 -122.971301 
L 103.075036 -122.567641 
L 101.859204 -122.16398 
L 100.839213 -121.760319 
L 100.00914 -121.356659 
L 99.353099 -120.952998 
L 98.849152 -120.549337 
L 98.47275 -120.145676 
L 98.199387 -119.742016 
L 98.006418 -119.338355 
L 97.874102 -118.934694 
L 97.786054 -118.531034 
L 97.729254 -118.127373 
z
" id="m7a0ebbde4e" style="stroke:#3c3c3c;stroke-width:1.5;"/>
    </defs>
    <g clip-path="url(#p38195597e8)">
     <use style="fill:#a3a3a3;stroke:#3c3c3c;stroke-width:1.5;" x="0" xlink:href="#m7a0ebbde4e" y="489.545"/>
    </g>
   </g>
   <g id="PolyCollection_2">
    <defs>
     <path d="M 142.295926 -115.583043 
L 142.274074 -115.583043 
L 142.252395 -116.672862 
L 142.199011 -117.762682 
L 142.082825 -118.852501 
L 141.856907 -119.942321 
L 141.459623 -121.03214 
L 140.820735 -122.12196 
L 139.875109 -123.211779 
L 138.587038 -124.301599 
L 136.979867 -125.391419 
L 135.150117 -126.481238 
L 133.243405 -127.571058 
L 131.39674 -128.660877 
L 129.685702 -129.750697 
L 128.114397 -130.840516 
L 126.649783 -131.930336 
L 125.270543 -133.020155 
L 123.996855 -134.109975 
L 122.88097 -135.199795 
L 121.964655 -136.289614 
L 121.24232 -137.379434 
L 120.672188 -138.469253 
L 120.231641 -139.559073 
L 119.965 -140.648892 
L 119.979422 -141.738712 
L 120.392319 -142.828531 
L 121.267361 -143.918351 
L 122.577622 -145.008171 
L 124.216407 -146.09799 
L 126.046568 -147.18781 
L 127.952067 -148.277629 
L 129.856576 -149.367449 
L 131.704387 -150.457268 
L 133.432072 -151.547088 
L 134.966344 -152.636907 
L 136.254147 -153.726727 
L 137.29204 -154.816547 
L 138.121734 -155.906366 
L 138.797959 -156.996186 
L 139.360348 -158.086005 
L 139.826863 -159.175825 
L 140.202784 -160.265644 
L 140.49299 -161.355464 
L 140.709672 -162.445283 
L 140.871823 -163.535103 
L 140.998144 -164.624923 
L 141.100884 -165.714742 
L 141.186787 -166.804562 
L 141.262029 -167.894381 
L 141.332804 -168.984201 
L 141.400266 -170.07402 
L 141.457635 -171.16384 
L 141.495097 -172.253659 
L 141.508675 -173.343479 
L 141.505155 -174.433299 
L 141.499157 -175.523118 
L 141.504869 -176.612938 
L 141.528957 -177.702757 
L 141.569555 -178.792577 
L 141.620319 -179.882396 
L 141.674756 -180.972216 
L 141.727775 -182.062035 
L 141.774999 -183.151855 
L 141.811875 -184.241675 
L 141.834157 -185.331494 
L 141.839906 -186.421314 
L 141.831647 -187.511133 
L 141.816365 -188.600953 
L 141.801996 -189.690772 
L 141.792311 -190.780592 
L 141.785045 -191.870411 
L 141.776019 -192.960231 
L 141.76523 -194.05005 
L 141.757554 -195.13987 
L 141.757041 -196.22969 
L 141.762769 -197.319509 
L 141.772622 -198.409329 
L 141.789675 -199.499148 
L 141.82087 -200.588968 
L 141.868416 -201.678787 
L 141.925515 -202.768607 
L 141.982154 -203.858426 
L 142.032755 -204.948246 
L 142.07665 -206.038066 
L 142.113686 -207.127885 
L 142.142321 -208.217705 
L 142.161667 -209.307524 
L 142.173705 -210.397344 
L 142.182999 -211.487163 
L 142.194185 -212.576983 
L 142.208975 -213.666802 
L 142.225089 -214.756622 
L 142.238474 -215.846442 
L 142.247059 -216.936261 
L 142.252344 -218.026081 
L 142.25743 -219.1159 
L 142.263972 -220.20572 
L 142.271214 -221.295539 
L 142.277407 -222.385359 
L 142.281519 -223.475178 
L 142.288481 -223.475178 
L 142.288481 -223.475178 
L 142.292593 -222.385359 
L 142.298786 -221.295539 
L 142.306028 -220.20572 
L 142.31257 -219.1159 
L 142.317656 -218.026081 
L 142.322941 -216.936261 
L 142.331526 -215.846442 
L 142.344911 -214.756622 
L 142.361025 -213.666802 
L 142.375815 -212.576983 
L 142.387001 -211.487163 
L 142.396295 -210.397344 
L 142.408333 -209.307524 
L 142.427679 -208.217705 
L 142.456314 -207.127885 
L 142.49335 -206.038066 
L 142.537245 -204.948246 
L 142.587846 -203.858426 
L 142.644485 -202.768607 
L 142.701584 -201.678787 
L 142.74913 -200.588968 
L 142.780325 -199.499148 
L 142.797378 -198.409329 
L 142.807231 -197.319509 
L 142.812959 -196.22969 
L 142.812446 -195.13987 
L 142.80477 -194.05005 
L 142.793981 -192.960231 
L 142.784955 -191.870411 
L 142.777689 -190.780592 
L 142.768004 -189.690772 
L 142.753635 -188.600953 
L 142.738353 -187.511133 
L 142.730094 -186.421314 
L 142.735843 -185.331494 
L 142.758125 -184.241675 
L 142.795001 -183.151855 
L 142.842225 -182.062035 
L 142.895244 -180.972216 
L 142.949681 -179.882396 
L 143.000445 -178.792577 
L 143.041043 -177.702757 
L 143.065131 -176.612938 
L 143.070843 -175.523118 
L 143.064845 -174.433299 
L 143.061325 -173.343479 
L 143.074903 -172.253659 
L 143.112365 -171.16384 
L 143.169734 -170.07402 
L 143.237196 -168.984201 
L 143.307971 -167.894381 
L 143.383213 -166.804562 
L 143.469116 -165.714742 
L 143.571856 -164.624923 
L 143.698177 -163.535103 
L 143.860328 -162.445283 
L 144.07701 -161.355464 
L 144.367216 -160.265644 
L 144.743137 -159.175825 
L 145.209652 -158.086005 
L 145.772041 -156.996186 
L 146.448266 -155.906366 
L 147.27796 -154.816547 
L 148.315853 -153.726727 
L 149.603656 -152.636907 
L 151.137928 -151.547088 
L 152.865613 -150.457268 
L 154.713424 -149.367449 
L 156.617933 -148.277629 
L 158.523432 -147.18781 
L 160.353593 -146.09799 
L 161.992378 -145.008171 
L 163.302639 -143.918351 
L 164.177681 -142.828531 
L 164.590578 -141.738712 
L 164.605 -140.648892 
L 164.338359 -139.559073 
L 163.897812 -138.469253 
L 163.32768 -137.379434 
L 162.605345 -136.289614 
L 161.68903 -135.199795 
L 160.573145 -134.109975 
L 159.299457 -133.020155 
L 157.920217 -131.930336 
L 156.455603 -130.840516 
L 154.884298 -129.750697 
L 153.17326 -128.660877 
L 151.326595 -127.571058 
L 149.419883 -126.481238 
L 147.590133 -125.391419 
L 145.982962 -124.301599 
L 144.694891 -123.211779 
L 143.749265 -122.12196 
L 143.110377 -121.03214 
L 142.713093 -119.942321 
L 142.487175 -118.852501 
L 142.370989 -117.762682 
L 142.317605 -116.672862 
L 142.295926 -115.583043 
z
" id="mf21fe1383f" style="stroke:#3c3c3c;stroke-width:1.5;"/>
    </defs>
    <g clip-path="url(#p38195597e8)">
     <use style="fill:#4b637e;stroke:#3c3c3c;stroke-width:1.5;" x="0" xlink:href="#mf21fe1383f" y="489.545"/>
    </g>
   </g>
   <g id="PolyCollection_3">
    <defs>
     <path d="M 209.294961 -126.217257 
L 209.195039 -126.217257 
L 209.162704 -126.717115 
L 209.115505 -127.216972 
L 209.050058 -127.716829 
L 208.963661 -128.216687 
L 208.85465 -128.716544 
L 208.722313 -129.216402 
L 208.566122 -129.716259 
L 208.384215 -130.216116 
L 208.171398 -130.715974 
L 207.917196 -131.215831 
L 207.604745 -131.715688 
L 207.211214 -132.215546 
L 206.710107 -132.715403 
L 206.075209 -133.21526 
L 205.285294 -133.715118 
L 204.328344 -134.214975 
L 203.204061 -134.714833 
L 201.924009 -135.21469 
L 200.509614 -135.714547 
L 198.989091 -136.214405 
L 197.394737 -136.714262 
L 195.761793 -137.214119 
L 194.129152 -137.713977 
L 192.541119 -138.213834 
L 191.048642 -138.713692 
L 189.708414 -139.213549 
L 188.578977 -139.713406 
L 187.714175 -140.213264 
L 187.155445 -140.713121 
L 186.925 -141.212978 
L 187.021782 -141.712836 
L 187.421183 -142.212693 
L 188.07845 -142.712551 
L 188.934703 -143.212408 
L 189.923929 -143.712265 
L 190.979338 -144.212123 
L 192.037838 -144.71198 
L 193.042151 -145.211837 
L 193.940865 -145.711695 
L 194.687407 -146.211552 
L 195.239351 -146.71141 
L 195.55936 -147.211267 
L 195.618494 -147.711124 
L 195.401592 -148.210982 
L 194.913372 -148.710839 
L 194.183142 -149.210696 
L 193.265954 -149.710554 
L 192.238789 -150.210411 
L 191.191708 -150.710269 
L 190.21542 -151.210126 
L 189.387893 -151.709983 
L 188.763079 -152.209841 
L 188.364381 -152.709698 
L 188.184327 -153.209555 
L 188.190309 -153.709413 
L 188.334768 -154.20927 
L 188.567148 -154.709128 
L 188.84478 -155.208985 
L 189.140402 -155.708842 
L 189.445152 -156.2087 
L 189.767133 -156.708557 
L 190.126606 -157.208414 
L 190.549375 -157.708272 
L 191.059994 -158.208129 
L 191.676124 -158.707986 
L 192.404943 -159.207844 
L 193.242012 -159.707701 
L 194.17245 -160.207559 
L 195.173882 -160.707416 
L 196.220278 -161.207273 
L 197.285757 -161.707131 
L 198.347586 -162.206988 
L 199.387889 -162.706845 
L 200.394011 -163.206703 
L 201.35778 -163.70656 
L 202.274184 -164.206418 
L 203.139965 -164.706275 
L 203.952544 -165.206132 
L 204.709421 -165.70599 
L 205.407994 -166.205847 
L 206.0456 -166.705704 
L 206.619675 -167.205562 
L 207.127993 -167.705419 
L 207.569053 -168.205277 
L 207.942626 -168.705134 
L 208.250379 -169.204991 
L 208.496326 -169.704849 
L 208.686881 -170.204706 
L 208.830387 -170.704563 
L 208.936182 -171.204421 
L 209.013472 -171.704278 
L 209.070329 -172.204136 
L 209.113059 -172.703993 
L 209.146057 -173.20385 
L 209.172059 -173.703708 
L 209.192623 -174.203565 
L 209.208644 -174.703422 
L 209.220746 -175.20328 
L 209.229513 -175.703137 
L 209.260487 -175.703137 
L 209.260487 -175.703137 
L 209.269254 -175.20328 
L 209.281356 -174.703422 
L 209.297377 -174.203565 
L 209.317941 -173.703708 
L 209.343943 -173.20385 
L 209.376941 -172.703993 
L 209.419671 -172.204136 
L 209.476528 -171.704278 
L 209.553818 -171.204421 
L 209.659613 -170.704563 
L 209.803119 -170.204706 
L 209.993674 -169.704849 
L 210.239621 -169.204991 
L 210.547374 -168.705134 
L 210.920947 -168.205277 
L 211.362007 -167.705419 
L 211.870325 -167.205562 
L 212.4444 -166.705704 
L 213.082006 -166.205847 
L 213.780579 -165.70599 
L 214.537456 -165.206132 
L 215.350035 -164.706275 
L 216.215816 -164.206418 
L 217.13222 -163.70656 
L 218.095989 -163.206703 
L 219.102111 -162.706845 
L 220.142414 -162.206988 
L 221.204243 -161.707131 
L 222.269722 -161.207273 
L 223.316118 -160.707416 
L 224.31755 -160.207559 
L 225.247988 -159.707701 
L 226.085057 -159.207844 
L 226.813876 -158.707986 
L 227.430006 -158.208129 
L 227.940625 -157.708272 
L 228.363394 -157.208414 
L 228.722867 -156.708557 
L 229.044848 -156.2087 
L 229.349598 -155.708842 
L 229.64522 -155.208985 
L 229.922852 -154.709128 
L 230.155232 -154.20927 
L 230.299691 -153.709413 
L 230.305673 -153.209555 
L 230.125619 -152.709698 
L 229.726921 -152.209841 
L 229.102107 -151.709983 
L 228.27458 -151.210126 
L 227.298292 -150.710269 
L 226.251211 -150.210411 
L 225.224046 -149.710554 
L 224.306858 -149.210696 
L 223.576628 -148.710839 
L 223.088408 -148.210982 
L 222.871506 -147.711124 
L 222.93064 -147.211267 
L 223.250649 -146.71141 
L 223.802593 -146.211552 
L 224.549135 -145.711695 
L 225.447849 -145.211837 
L 226.452162 -144.71198 
L 227.510662 -144.212123 
L 228.566071 -143.712265 
L 229.555297 -143.212408 
L 230.41155 -142.712551 
L 231.068817 -142.212693 
L 231.468218 -141.712836 
L 231.565 -141.212978 
L 231.334555 -140.713121 
L 230.775825 -140.213264 
L 229.911023 -139.713406 
L 228.781586 -139.213549 
L 227.441358 -138.713692 
L 225.948881 -138.213834 
L 224.360848 -137.713977 
L 222.728207 -137.214119 
L 221.095263 -136.714262 
L 219.500909 -136.214405 
L 217.980386 -135.714547 
L 216.565991 -135.21469 
L 215.285939 -134.714833 
L 214.161656 -134.214975 
L 213.204706 -133.715118 
L 212.414791 -133.21526 
L 211.779893 -132.715403 
L 211.278786 -132.215546 
L 210.885255 -131.715688 
L 210.572804 -131.215831 
L 210.318602 -130.715974 
L 210.105785 -130.216116 
L 209.923878 -129.716259 
L 209.767687 -129.216402 
L 209.63535 -128.716544 
L 209.526339 -128.216687 
L 209.439942 -127.716829 
L 209.374495 -127.216972 
L 209.327296 -126.717115 
L 209.294961 -126.217257 
z
" id="ma69fb9b935" style="stroke:#3c3c3c;stroke-width:1.5;"/>
    </defs>
    <g clip-path="url(#p38195597e8)">
     <use style="fill:#a3a3a3;stroke:#3c3c3c;stroke-width:1.5;" x="0" xlink:href="#ma69fb9b935" y="489.545"/>
    </g>
   </g>
   <g id="PolyCollection_4">
    <defs>
     <path d="M 253.894297 -125.262348 
L 253.875703 -125.262348 
L 253.860641 -126.190305 
L 253.830698 -127.118261 
L 253.778677 -128.046218 
L 253.694485 -128.974175 
L 253.559052 -129.902132 
L 253.33705 -130.830088 
L 252.976048 -131.758045 
L 252.419478 -132.686002 
L 251.63256 -133.613958 
L 250.625907 -134.541915 
L 249.456689 -135.469872 
L 248.205598 -136.397828 
L 246.949746 -137.325785 
L 245.74564 -138.253742 
L 244.617021 -139.181698 
L 243.548812 -140.109655 
L 242.507098 -141.037612 
L 241.485925 -141.965568 
L 240.537113 -142.893525 
L 239.740994 -143.821482 
L 239.138454 -144.749439 
L 238.689686 -145.677395 
L 238.296425 -146.605352 
L 237.864737 -147.533309 
L 237.355199 -148.461265 
L 236.777542 -149.389222 
L 236.137969 -150.317179 
L 235.40802 -151.245135 
L 234.567737 -152.173092 
L 233.678864 -153.101049 
L 232.892355 -154.029005 
L 232.362877 -154.956962 
L 232.150419 -155.884919 
L 232.212331 -156.812875 
L 232.494465 -157.740832 
L 233.019349 -158.668789 
L 233.878449 -159.596746 
L 235.146705 -160.524702 
L 236.804834 -161.452659 
L 238.725721 -162.380616 
L 240.723775 -163.308572 
L 242.629119 -164.236529 
L 244.339489 -165.164486 
L 245.824262 -166.092442 
L 247.093238 -167.020399 
L 248.166164 -167.948356 
L 249.064788 -168.876312 
L 249.817689 -169.804269 
L 250.460564 -170.732226 
L 251.028054 -171.660182 
L 251.542623 -172.588139 
L 252.008774 -173.516096 
L 252.415334 -174.444053 
L 252.741205 -175.372009 
L 252.966228 -176.299966 
L 253.090768 -177.227923 
L 253.149001 -178.155879 
L 253.194898 -179.083836 
L 253.267296 -180.011793 
L 253.36588 -180.939749 
L 253.460789 -181.867706 
L 253.525901 -182.795663 
L 253.562326 -183.723619 
L 253.589677 -184.651576 
L 253.619994 -185.579533 
L 253.64718 -186.507489 
L 253.660198 -187.435446 
L 253.658585 -188.363403 
L 253.652789 -189.291359 
L 253.654059 -190.219316 
L 253.666585 -191.147273 
L 253.68713 -192.07523 
L 253.709883 -193.003186 
L 253.73118 -193.931143 
L 253.749879 -194.8591 
L 253.765229 -195.787056 
L 253.776982 -196.715013 
L 253.786697 -197.64297 
L 253.796005 -198.570926 
L 253.803525 -199.498883 
L 253.805171 -200.42684 
L 253.797765 -201.354796 
L 253.78263 -202.282753 
L 253.766713 -203.21071 
L 253.759253 -204.138666 
L 253.764932 -205.066623 
L 253.779585 -205.99458 
L 253.793592 -206.922537 
L 253.800166 -207.850493 
L 253.800263 -208.77845 
L 253.799176 -209.706407 
L 253.799648 -210.634363 
L 253.800799 -211.56232 
L 253.803254 -212.490277 
L 253.811077 -213.418233 
L 253.826684 -214.34619 
L 253.846618 -215.274147 
L 253.864404 -216.202103 
L 253.876082 -217.13006 
L 253.893918 -217.13006 
L 253.893918 -217.13006 
L 253.905596 -216.202103 
L 253.923382 -215.274147 
L 253.943316 -214.34619 
L 253.958923 -213.418233 
L 253.966746 -212.490277 
L 253.969201 -211.56232 
L 253.970352 -210.634363 
L 253.970824 -209.706407 
L 253.969737 -208.77845 
L 253.969834 -207.850493 
L 253.976408 -206.922537 
L 253.990415 -205.99458 
L 254.005068 -205.066623 
L 254.010747 -204.138666 
L 254.003287 -203.21071 
L 253.98737 -202.282753 
L 253.972235 -201.354796 
L 253.964829 -200.42684 
L 253.966475 -199.498883 
L 253.973995 -198.570926 
L 253.983303 -197.64297 
L 253.993018 -196.715013 
L 254.004771 -195.787056 
L 254.020121 -194.8591 
L 254.03882 -193.931143 
L 254.060117 -193.003186 
L 254.08287 -192.07523 
L 254.103415 -191.147273 
L 254.115941 -190.219316 
L 254.117211 -189.291359 
L 254.111415 -188.363403 
L 254.109802 -187.435446 
L 254.12282 -186.507489 
L 254.150006 -185.579533 
L 254.180323 -184.651576 
L 254.207674 -183.723619 
L 254.244099 -182.795663 
L 254.309211 -181.867706 
L 254.40412 -180.939749 
L 254.502704 -180.011793 
L 254.575102 -179.083836 
L 254.620999 -178.155879 
L 254.679232 -177.227923 
L 254.803772 -176.299966 
L 255.028795 -175.372009 
L 255.354666 -174.444053 
L 255.761226 -173.516096 
L 256.227377 -172.588139 
L 256.741946 -171.660182 
L 257.309436 -170.732226 
L 257.952311 -169.804269 
L 258.705212 -168.876312 
L 259.603836 -167.948356 
L 260.676762 -167.020399 
L 261.945738 -166.092442 
L 263.430511 -165.164486 
L 265.140881 -164.236529 
L 267.046225 -163.308572 
L 269.044279 -162.380616 
L 270.965166 -161.452659 
L 272.623295 -160.524702 
L 273.891551 -159.596746 
L 274.750651 -158.668789 
L 275.275535 -157.740832 
L 275.557669 -156.812875 
L 275.619581 -155.884919 
L 275.407123 -154.956962 
L 274.877645 -154.029005 
L 274.091136 -153.101049 
L 273.202263 -152.173092 
L 272.36198 -151.245135 
L 271.632031 -150.317179 
L 270.992458 -149.389222 
L 270.414801 -148.461265 
L 269.905263 -147.533309 
L 269.473575 -146.605352 
L 269.080314 -145.677395 
L 268.631546 -144.749439 
L 268.029006 -143.821482 
L 267.232887 -142.893525 
L 266.284075 -141.965568 
L 265.262902 -141.037612 
L 264.221188 -140.109655 
L 263.152979 -139.181698 
L 262.02436 -138.253742 
L 260.820254 -137.325785 
L 259.564402 -136.397828 
L 258.313311 -135.469872 
L 257.144093 -134.541915 
L 256.13744 -133.613958 
L 255.350522 -132.686002 
L 254.793952 -131.758045 
L 254.43295 -130.830088 
L 254.210948 -129.902132 
L 254.075515 -128.974175 
L 253.991323 -128.046218 
L 253.939302 -127.118261 
L 253.909359 -126.190305 
L 253.894297 -125.262348 
z
" id="ma2a529b7e6" style="stroke:#3c3c3c;stroke-width:1.5;"/>
    </defs>
    <g clip-path="url(#p38195597e8)">
     <use style="fill:#4b637e;stroke:#3c3c3c;stroke-width:1.5;" x="0" xlink:href="#ma2a529b7e6" y="489.545"/>
    </g>
   </g>
   <g id="PolyCollection_5">
    <defs>
     <path d="M 320.858688 -133.592772 
L 320.831312 -133.592772 
L 320.820841 -134.102762 
L 320.804174 -134.612752 
L 320.778419 -135.122742 
L 320.7394 -135.632732 
L 320.681143 -136.142723 
L 320.595526 -136.652713 
L 320.472515 -137.162703 
L 320.301343 -137.672693 
L 320.072701 -138.182683 
L 319.78144 -138.692674 
L 319.428773 -139.202664 
L 319.022887 -139.712654 
L 318.577309 -140.222644 
L 318.10728 -140.732634 
L 317.625347 -141.242624 
L 317.137897 -141.752615 
L 316.644191 -142.262605 
L 316.138629 -142.772595 
L 315.615693 -143.282585 
L 315.075815 -143.792575 
L 314.529747 -144.302566 
L 313.999258 -144.812556 
L 313.513192 -145.322546 
L 313.099713 -145.832536 
L 312.777249 -146.342526 
L 312.54755 -146.852517 
L 312.393937 -147.362507 
L 312.286101 -147.872497 
L 312.190219 -148.382487 
L 312.080585 -148.892477 
L 311.947701 -149.402468 
L 311.798794 -149.912458 
L 311.649976 -150.422448 
L 311.513265 -150.932438 
L 311.384417 -151.442428 
L 311.23724 -151.952419 
L 311.026981 -152.462409 
L 310.701177 -152.972399 
L 310.213373 -153.482389 
L 309.534765 -153.992379 
L 308.660663 -154.50237 
L 307.611209 -155.01236 
L 306.427552 -155.52235 
L 305.165191 -156.03234 
L 303.886081 -156.54233 
L 302.650949 -157.05232 
L 301.51335 -157.562311 
L 300.516726 -158.072301 
L 299.694819 -158.582291 
L 299.074348 -159.092281 
L 298.677877 -159.602271 
L 298.525 -160.112262 
L 298.63121 -160.622252 
L 299.005213 -161.132242 
L 299.645978 -161.642232 
L 300.540319 -162.152222 
L 301.661212 -162.662213 
L 302.967059 -163.172203 
L 304.402808 -163.682193 
L 305.904189 -164.192183 
L 307.405384 -164.702173 
L 308.848527 -165.212164 
L 310.191859 -165.722154 
L 311.413471 -166.232144 
L 312.509571 -166.742134 
L 313.488743 -167.252124 
L 314.365134 -167.762115 
L 315.153172 -168.272105 
L 315.864848 -168.782095 
L 316.509103 -169.292085 
L 317.09226 -169.802075 
L 317.618709 -170.312066 
L 318.091513 -170.822056 
L 318.512904 -171.332046 
L 318.884606 -171.842036 
L 319.207929 -172.352026 
L 319.483699 -172.862016 
L 319.712231 -173.372007 
L 319.893678 -173.881997 
L 320.028867 -174.391987 
L 320.120497 -174.901977 
L 320.174254 -175.411967 
L 320.19927 -175.921958 
L 320.207496 -176.431948 
L 320.211917 -176.941938 
L 320.224082 -177.451928 
L 320.251785 -177.961918 
L 320.297756 -178.471909 
L 320.359815 -178.981899 
L 320.432337 -179.491889 
L 320.508338 -180.001879 
L 320.58138 -180.511869 
L 320.646756 -181.02186 
L 320.701838 -181.53185 
L 320.745827 -182.04184 
L 320.779239 -182.55183 
L 320.803382 -183.06182 
L 320.819948 -183.571811 
L 320.830708 -184.081801 
L 320.859292 -184.081801 
L 320.859292 -184.081801 
L 320.870052 -183.571811 
L 320.886618 -183.06182 
L 320.910761 -182.55183 
L 320.944173 -182.04184 
L 320.988162 -181.53185 
L 321.043244 -181.02186 
L 321.10862 -180.511869 
L 321.181662 -180.001879 
L 321.257663 -179.491889 
L 321.330185 -178.981899 
L 321.392244 -178.471909 
L 321.438215 -177.961918 
L 321.465918 -177.451928 
L 321.478083 -176.941938 
L 321.482504 -176.431948 
L 321.49073 -175.921958 
L 321.515746 -175.411967 
L 321.569503 -174.901977 
L 321.661133 -174.391987 
L 321.796322 -173.881997 
L 321.977769 -173.372007 
L 322.206301 -172.862016 
L 322.482071 -172.352026 
L 322.805394 -171.842036 
L 323.177096 -171.332046 
L 323.598487 -170.822056 
L 324.071291 -170.312066 
L 324.59774 -169.802075 
L 325.180897 -169.292085 
L 325.825152 -168.782095 
L 326.536828 -168.272105 
L 327.324866 -167.762115 
L 328.201257 -167.252124 
L 329.180429 -166.742134 
L 330.276529 -166.232144 
L 331.498141 -165.722154 
L 332.841473 -165.212164 
L 334.284616 -164.702173 
L 335.785811 -164.192183 
L 337.287192 -163.682193 
L 338.722941 -163.172203 
L 340.028788 -162.662213 
L 341.149681 -162.152222 
L 342.044022 -161.642232 
L 342.684787 -161.132242 
L 343.05879 -160.622252 
L 343.165 -160.112262 
L 343.012123 -159.602271 
L 342.615652 -159.092281 
L 341.995181 -158.582291 
L 341.173274 -158.072301 
L 340.17665 -157.562311 
L 339.039051 -157.05232 
L 337.803919 -156.54233 
L 336.524809 -156.03234 
L 335.262448 -155.52235 
L 334.078791 -155.01236 
L 333.029337 -154.50237 
L 332.155235 -153.992379 
L 331.476627 -153.482389 
L 330.988823 -152.972399 
L 330.663019 -152.462409 
L 330.45276 -151.952419 
L 330.305583 -151.442428 
L 330.176735 -150.932438 
L 330.040024 -150.422448 
L 329.891206 -149.912458 
L 329.742299 -149.402468 
L 329.609415 -148.892477 
L 329.499781 -148.382487 
L 329.403899 -147.872497 
L 329.296063 -147.362507 
L 329.14245 -146.852517 
L 328.912751 -146.342526 
L 328.590287 -145.832536 
L 328.176808 -145.322546 
L 327.690742 -144.812556 
L 327.160253 -144.302566 
L 326.614185 -143.792575 
L 326.074307 -143.282585 
L 325.551371 -142.772595 
L 325.045809 -142.262605 
L 324.552103 -141.752615 
L 324.064653 -141.242624 
L 323.58272 -140.732634 
L 323.112691 -140.222644 
L 322.667113 -139.712654 
L 322.261227 -139.202664 
L 321.90856 -138.692674 
L 321.617299 -138.182683 
L 321.388657 -137.672693 
L 321.217485 -137.162703 
L 321.094474 -136.652713 
L 321.008857 -136.142723 
L 320.9506 -135.632732 
L 320.911581 -135.122742 
L 320.885826 -134.612752 
L 320.869159 -134.102762 
L 320.858688 -133.592772 
z
" id="m8e264def60" style="stroke:#3c3c3c;stroke-width:1.5;"/>
    </defs>
    <g clip-path="url(#p38195597e8)">
     <use style="fill:#a3a3a3;stroke:#3c3c3c;stroke-width:1.5;" x="0" xlink:href="#m8e264def60" y="489.545"/>
    </g>
   </g>
   <g id="PolyCollection_6">
    <defs>
     <path d="M 365.49095 -123.259337 
L 365.47905 -123.259337 
L 365.457163 -126.246143 
L 365.383005 -129.232948 
L 365.18155 -132.219754 
L 364.751923 -135.20656 
L 364.052812 -138.193366 
L 363.18404 -141.180171 
L 362.315918 -144.166977 
L 361.506913 -147.153783 
L 360.691188 -150.140589 
L 359.934199 -153.127394 
L 359.491136 -156.1142 
L 359.452895 -159.101006 
L 359.583136 -162.087812 
L 359.558376 -165.074617 
L 359.181685 -168.061423 
L 358.476569 -171.048229 
L 357.697663 -174.035035 
L 357.240307 -177.02184 
L 357.474813 -180.008646 
L 358.457301 -182.995452 
L 359.830981 -185.982258 
L 361.153941 -188.969063 
L 362.21155 -191.955869 
L 362.997449 -194.942675 
L 363.55715 -197.929481 
L 363.929081 -200.916286 
L 364.163691 -203.903092 
L 364.328074 -206.889898 
L 364.487907 -209.876704 
L 364.670655 -212.863509 
L 364.849936 -215.850315 
L 364.988225 -218.837121 
L 365.071645 -221.823927 
L 365.10626 -224.810732 
L 365.121048 -227.797538 
L 365.151674 -230.784344 
L 365.200802 -233.771149 
L 365.243638 -236.757955 
L 365.268723 -239.744761 
L 365.29111 -242.731567 
L 365.327714 -245.718372 
L 365.368755 -248.705178 
L 365.392099 -251.691984 
L 365.396336 -254.67879 
L 365.399135 -257.665595 
L 365.413686 -260.652401 
L 365.436237 -263.639207 
L 365.455009 -266.626013 
L 365.464882 -269.612818 
L 365.468414 -272.599624 
L 365.46769 -275.58643 
L 365.462403 -278.573236 
L 365.456089 -281.560041 
L 365.454901 -284.546847 
L 365.458997 -287.533653 
L 365.46363 -290.520459 
L 365.466696 -293.507264 
L 365.469389 -296.49407 
L 365.472031 -299.480876 
L 365.473141 -302.467682 
L 365.473622 -305.454487 
L 365.476253 -308.441293 
L 365.480037 -311.428099 
L 365.481107 -314.414905 
L 365.47723 -317.40171 
L 365.469982 -320.388516 
L 365.464761 -323.375322 
L 365.465018 -326.362128 
L 365.467528 -329.348933 
L 365.468217 -332.335739 
L 365.46669 -335.322545 
L 365.463552 -338.309351 
L 365.460499 -341.296156 
L 365.460947 -344.282962 
L 365.466638 -347.269768 
L 365.474864 -350.256574 
L 365.48116 -353.243379 
L 365.484035 -356.230185 
L 365.484843 -359.216991 
L 365.484984 -362.203797 
L 365.484999 -365.190602 
L 365.485 -368.177408 
L 365.485 -371.164214 
L 365.485 -374.15102 
L 365.485 -377.137825 
L 365.485 -380.124631 
L 365.485 -383.111437 
L 365.485 -386.098242 
L 365.485 -389.085048 
L 365.484998 -392.071854 
L 365.484976 -395.05866 
L 365.484794 -398.045465 
L 365.4839 -401.032271 
L 365.481324 -404.019077 
L 365.47731 -407.005883 
L 365.474926 -409.992688 
L 365.476737 -412.979494 
L 365.480756 -415.9663 
L 365.483635 -418.953106 
L 365.486365 -418.953106 
L 365.486365 -418.953106 
L 365.489244 -415.9663 
L 365.493263 -412.979494 
L 365.495074 -409.992688 
L 365.49269 -407.005883 
L 365.488676 -404.019077 
L 365.4861 -401.032271 
L 365.485206 -398.045465 
L 365.485024 -395.05866 
L 365.485002 -392.071854 
L 365.485 -389.085048 
L 365.485 -386.098242 
L 365.485 -383.111437 
L 365.485 -380.124631 
L 365.485 -377.137825 
L 365.485 -374.15102 
L 365.485 -371.164214 
L 365.485 -368.177408 
L 365.485001 -365.190602 
L 365.485016 -362.203797 
L 365.485157 -359.216991 
L 365.485965 -356.230185 
L 365.48884 -353.243379 
L 365.495136 -350.256574 
L 365.503362 -347.269768 
L 365.509053 -344.282962 
L 365.509501 -341.296156 
L 365.506448 -338.309351 
L 365.50331 -335.322545 
L 365.501783 -332.335739 
L 365.502472 -329.348933 
L 365.504982 -326.362128 
L 365.505239 -323.375322 
L 365.500018 -320.388516 
L 365.49277 -317.40171 
L 365.488893 -314.414905 
L 365.489963 -311.428099 
L 365.493747 -308.441293 
L 365.496378 -305.454487 
L 365.496859 -302.467682 
L 365.497969 -299.480876 
L 365.500611 -296.49407 
L 365.503304 -293.507264 
L 365.50637 -290.520459 
L 365.511003 -287.533653 
L 365.515099 -284.546847 
L 365.513911 -281.560041 
L 365.507597 -278.573236 
L 365.50231 -275.58643 
L 365.501586 -272.599624 
L 365.505118 -269.612818 
L 365.514991 -266.626013 
L 365.533763 -263.639207 
L 365.556314 -260.652401 
L 365.570865 -257.665595 
L 365.573664 -254.67879 
L 365.577901 -251.691984 
L 365.601245 -248.705178 
L 365.642286 -245.718372 
L 365.67889 -242.731567 
L 365.701277 -239.744761 
L 365.726362 -236.757955 
L 365.769198 -233.771149 
L 365.818326 -230.784344 
L 365.848952 -227.797538 
L 365.86374 -224.810732 
L 365.898355 -221.823927 
L 365.981775 -218.837121 
L 366.120064 -215.850315 
L 366.299345 -212.863509 
L 366.482093 -209.876704 
L 366.641926 -206.889898 
L 366.806309 -203.903092 
L 367.040919 -200.916286 
L 367.41285 -197.929481 
L 367.972551 -194.942675 
L 368.75845 -191.955869 
L 369.816059 -188.969063 
L 371.139019 -185.982258 
L 372.512699 -182.995452 
L 373.495187 -180.008646 
L 373.729693 -177.02184 
L 373.272337 -174.035035 
L 372.493431 -171.048229 
L 371.788315 -168.061423 
L 371.411624 -165.074617 
L 371.386864 -162.087812 
L 371.517105 -159.101006 
L 371.478864 -156.1142 
L 371.035801 -153.127394 
L 370.278812 -150.140589 
L 369.463087 -147.153783 
L 368.654082 -144.166977 
L 367.78596 -141.180171 
L 366.917188 -138.193366 
L 366.218077 -135.20656 
L 365.78845 -132.219754 
L 365.586995 -129.232948 
L 365.512837 -126.246143 
L 365.49095 -123.259337 
z
" id="mf3db860293" style="stroke:#3c3c3c;stroke-width:1.5;"/>
    </defs>
    <g clip-path="url(#p38195597e8)">
     <use style="fill:#4b637e;stroke:#3c3c3c;stroke-width:1.5;" x="0" xlink:href="#mf3db860293" y="489.545"/>
    </g>
   </g>
   <g id="PolyCollection_7">
    <defs>
     <path d="M 432.495968 -134.094551 
L 432.394032 -134.094551 
L 432.353406 -134.768134 
L 432.287712 -135.441716 
L 432.186483 -136.115299 
L 432.0376 -136.788882 
L 431.828181 -137.462465 
L 431.545768 -138.136047 
L 431.179543 -138.80963 
L 430.721191 -139.483213 
L 430.165105 -140.156796 
L 429.50783 -140.830378 
L 428.746965 -141.503961 
L 427.880073 -142.177544 
L 426.904301 -142.851127 
L 425.817282 -143.524709 
L 424.61943 -144.198292 
L 423.317121 -144.871875 
L 421.925679 -145.545458 
L 420.470904 -146.21904 
L 418.988246 -146.892623 
L 417.519524 -147.566206 
L 416.108068 -148.239789 
L 414.793758 -148.913371 
L 413.609451 -149.586954 
L 412.579586 -150.260537 
L 411.720785 -150.93412 
L 411.043417 -151.607703 
L 410.552786 -152.281285 
L 410.248952 -152.954868 
L 410.125 -153.628451 
L 410.164553 -154.302034 
L 410.340048 -154.975616 
L 410.61349 -155.649199 
L 410.940782 -156.322782 
L 411.279422 -156.996365 
L 411.59775 -157.669947 
L 411.882763 -158.34353 
L 412.143506 -159.017113 
L 412.408358 -159.690696 
L 412.716712 -160.364278 
L 413.107672 -161.037861 
L 413.609314 -161.711444 
L 414.231612 -162.385027 
L 414.964519 -163.058609 
L 415.780855 -163.732192 
L 416.642366 -164.405775 
L 417.506916 -165.079358 
L 418.335144 -165.75294 
L 419.095537 -166.426523 
L 419.767577 -167.100106 
L 420.342996 -167.773689 
L 420.825426 -168.447271 
L 421.228724 -169.120854 
L 421.574243 -169.794437 
L 421.887334 -170.46802 
L 422.193457 -171.141602 
L 422.514476 -171.815185 
L 422.865788 -172.488768 
L 423.254802 -173.162351 
L 423.680936 -173.835933 
L 424.136858 -174.509516 
L 424.610419 -175.183099 
L 425.08673 -175.856682 
L 425.550046 -176.530264 
L 425.985408 -177.203847 
L 426.380155 -177.87743 
L 426.725423 -178.551013 
L 427.017608 -179.224595 
L 427.259576 -179.898178 
L 427.461227 -180.571761 
L 427.63898 -181.245344 
L 427.813839 -181.918926 
L 428.008036 -182.592509 
L 428.24073 -183.266092 
L 428.523741 -183.939675 
L 428.858563 -184.613257 
L 429.235707 -185.28684 
L 429.636755 -185.960423 
L 430.038626 -186.634006 
L 430.418766 -187.307588 
L 430.759693 -187.981171 
L 431.051642 -188.654754 
L 431.292837 -189.328337 
L 431.487759 -190.001919 
L 431.644379 -190.675502 
L 431.771444 -191.349085 
L 431.876579 -192.022668 
L 431.965485 -192.69625 
L 432.042003 -193.369833 
L 432.108629 -194.043416 
L 432.167046 -194.716999 
L 432.218458 -195.390581 
L 432.263707 -196.064164 
L 432.30329 -196.737747 
L 432.337403 -197.41133 
L 432.366073 -198.084912 
L 432.389342 -198.758495 
L 432.407428 -199.432078 
L 432.420806 -200.105661 
L 432.43018 -200.779243 
L 432.45982 -200.779243 
L 432.45982 -200.779243 
L 432.469194 -200.105661 
L 432.482572 -199.432078 
L 432.500658 -198.758495 
L 432.523927 -198.084912 
L 432.552597 -197.41133 
L 432.58671 -196.737747 
L 432.626293 -196.064164 
L 432.671542 -195.390581 
L 432.722954 -194.716999 
L 432.781371 -194.043416 
L 432.847997 -193.369833 
L 432.924515 -192.69625 
L 433.013421 -192.022668 
L 433.118556 -191.349085 
L 433.245621 -190.675502 
L 433.402241 -190.001919 
L 433.597163 -189.328337 
L 433.838358 -188.654754 
L 434.130307 -187.981171 
L 434.471234 -187.307588 
L 434.851374 -186.634006 
L 435.253245 -185.960423 
L 435.654293 -185.28684 
L 436.031437 -184.613257 
L 436.366259 -183.939675 
L 436.64927 -183.266092 
L 436.881964 -182.592509 
L 437.076161 -181.918926 
L 437.25102 -181.245344 
L 437.428773 -180.571761 
L 437.630424 -179.898178 
L 437.872392 -179.224595 
L 438.164577 -178.551013 
L 438.509845 -177.87743 
L 438.904592 -177.203847 
L 439.339954 -176.530264 
L 439.80327 -175.856682 
L 440.279581 -175.183099 
L 440.753142 -174.509516 
L 441.209064 -173.835933 
L 441.635198 -173.162351 
L 442.024212 -172.488768 
L 442.375524 -171.815185 
L 442.696543 -171.141602 
L 443.002666 -170.46802 
L 443.315757 -169.794437 
L 443.661276 -169.120854 
L 444.064574 -168.447271 
L 444.547004 -167.773689 
L 445.122423 -167.100106 
L 445.794463 -166.426523 
L 446.554856 -165.75294 
L 447.383084 -165.079358 
L 448.247634 -164.405775 
L 449.109145 -163.732192 
L 449.925481 -163.058609 
L 450.658388 -162.385027 
L 451.280686 -161.711444 
L 451.782328 -161.037861 
L 452.173288 -160.364278 
L 452.481642 -159.690696 
L 452.746494 -159.017113 
L 453.007237 -158.34353 
L 453.29225 -157.669947 
L 453.610578 -156.996365 
L 453.949218 -156.322782 
L 454.27651 -155.649199 
L 454.549952 -154.975616 
L 454.725447 -154.302034 
L 454.765 -153.628451 
L 454.641048 -152.954868 
L 454.337214 -152.281285 
L 453.846583 -151.607703 
L 453.169215 -150.93412 
L 452.310414 -150.260537 
L 451.280549 -149.586954 
L 450.096242 -148.913371 
L 448.781932 -148.239789 
L 447.370476 -147.566206 
L 445.901754 -146.892623 
L 444.419096 -146.21904 
L 442.964321 -145.545458 
L 441.572879 -144.871875 
L 440.27057 -144.198292 
L 439.072718 -143.524709 
L 437.985699 -142.851127 
L 437.009927 -142.177544 
L 436.143035 -141.503961 
L 435.38217 -140.830378 
L 434.724895 -140.156796 
L 434.168809 -139.483213 
L 433.710457 -138.80963 
L 433.344232 -138.136047 
L 433.061819 -137.462465 
L 432.8524 -136.788882 
L 432.703517 -136.115299 
L 432.602288 -135.441716 
L 432.536594 -134.768134 
L 432.495968 -134.094551 
z
" id="m1ee79c742d" style="stroke:#3c3c3c;stroke-width:1.5;"/>
    </defs>
    <g clip-path="url(#p38195597e8)">
     <use style="fill:#a3a3a3;stroke:#3c3c3c;stroke-width:1.5;" x="0" xlink:href="#m1ee79c742d" y="489.545"/>
    </g>
   </g>
   <g id="PolyCollection_8">
    <defs>
     <path d="M 477.100229 -129.659125 
L 477.069771 -129.659125 
L 477.014787 -133.021939 
L 476.823493 -136.384753 
L 476.291879 -139.747567 
L 475.121367 -143.110382 
L 473.09908 -146.473196 
L 470.383698 -149.83601 
L 467.606013 -153.198824 
L 465.585212 -156.561638 
L 464.862345 -159.924452 
L 465.428451 -163.287267 
L 466.782712 -166.650081 
L 468.228508 -170.012895 
L 469.241708 -173.375709 
L 469.653009 -176.738523 
L 469.556048 -180.101337 
L 469.174668 -183.464152 
L 468.814198 -186.826966 
L 468.781643 -190.18978 
L 469.246102 -193.552594 
L 470.149036 -196.915408 
L 471.255087 -200.278222 
L 472.316145 -203.641037 
L 473.219406 -207.003851 
L 473.995067 -210.366665 
L 474.692424 -213.729479 
L 475.290703 -217.092293 
L 475.746474 -220.455107 
L 476.059737 -223.817922 
L 476.257857 -227.180736 
L 476.370892 -230.54355 
L 476.437126 -233.906364 
L 476.491875 -237.269178 
L 476.548866 -240.631992 
L 476.604937 -243.994807 
L 476.651198 -247.357621 
L 476.679492 -250.720435 
L 476.691681 -254.083249 
L 476.697226 -257.446063 
L 476.699153 -260.808877 
L 476.698878 -264.171691 
L 476.711394 -267.534506 
L 476.751357 -270.89732 
L 476.805176 -274.260134 
L 476.843125 -277.622948 
L 476.857903 -280.985762 
L 476.867817 -284.348576 
L 476.887832 -287.711391 
L 476.91729 -291.074205 
L 476.949941 -294.437019 
L 476.980745 -297.799833 
L 477.004541 -301.162647 
L 477.016539 -304.525461 
L 477.017171 -307.888276 
L 477.014017 -311.25109 
L 477.015636 -314.613904 
L 477.024547 -317.976718 
L 477.037042 -321.339532 
L 477.04814 -324.702346 
L 477.056336 -328.065161 
L 477.063567 -331.427975 
L 477.071199 -334.790789 
L 477.078018 -338.153603 
L 477.082367 -341.516417 
L 477.084238 -344.879231 
L 477.084535 -348.242046 
L 477.083395 -351.60486 
L 477.079592 -354.967674 
L 477.072066 -358.330488 
L 477.063287 -361.693302 
L 477.059415 -365.056116 
L 477.063842 -368.418931 
L 477.072719 -371.781745 
L 477.079981 -375.144559 
L 477.083425 -378.507373 
L 477.083844 -381.870187 
L 477.081245 -385.233001 
L 477.073587 -388.595816 
L 477.059667 -391.95863 
L 477.04408 -395.321444 
L 477.036718 -398.684258 
L 477.043342 -402.047072 
L 477.058778 -405.409886 
L 477.07302 -408.772701 
L 477.081053 -412.135515 
L 477.084069 -415.498329 
L 477.084843 -418.861143 
L 477.084981 -422.223957 
L 477.084992 -425.586771 
L 477.084946 -428.949586 
L 477.084656 -432.3124 
L 477.083435 -435.675214 
L 477.079917 -439.038028 
L 477.07314 -442.400842 
L 477.065026 -445.763656 
L 477.060634 -449.126471 
L 477.063436 -452.489285 
L 477.071168 -455.852099 
L 477.07859 -459.214913 
L 477.082864 -462.577727 
L 477.087136 -462.577727 
L 477.087136 -462.577727 
L 477.09141 -459.214913 
L 477.098832 -455.852099 
L 477.106564 -452.489285 
L 477.109366 -449.126471 
L 477.104974 -445.763656 
L 477.09686 -442.400842 
L 477.090083 -439.038028 
L 477.086565 -435.675214 
L 477.085344 -432.3124 
L 477.085054 -428.949586 
L 477.085008 -425.586771 
L 477.085019 -422.223957 
L 477.085157 -418.861143 
L 477.085931 -415.498329 
L 477.088947 -412.135515 
L 477.09698 -408.772701 
L 477.111222 -405.409886 
L 477.126658 -402.047072 
L 477.133282 -398.684258 
L 477.12592 -395.321444 
L 477.110333 -391.95863 
L 477.096413 -388.595816 
L 477.088755 -385.233001 
L 477.086156 -381.870187 
L 477.086575 -378.507373 
L 477.090019 -375.144559 
L 477.097281 -371.781745 
L 477.106158 -368.418931 
L 477.110585 -365.056116 
L 477.106713 -361.693302 
L 477.097934 -358.330488 
L 477.090408 -354.967674 
L 477.086605 -351.60486 
L 477.085465 -348.242046 
L 477.085762 -344.879231 
L 477.087633 -341.516417 
L 477.091982 -338.153603 
L 477.098801 -334.790789 
L 477.106433 -331.427975 
L 477.113664 -328.065161 
L 477.12186 -324.702346 
L 477.132958 -321.339532 
L 477.145453 -317.976718 
L 477.154364 -314.613904 
L 477.155983 -311.25109 
L 477.152829 -307.888276 
L 477.153461 -304.525461 
L 477.165459 -301.162647 
L 477.189255 -297.799833 
L 477.220059 -294.437019 
L 477.25271 -291.074205 
L 477.282168 -287.711391 
L 477.302183 -284.348576 
L 477.312097 -280.985762 
L 477.326875 -277.622948 
L 477.364824 -274.260134 
L 477.418643 -270.89732 
L 477.458606 -267.534506 
L 477.471122 -264.171691 
L 477.470847 -260.808877 
L 477.472774 -257.446063 
L 477.478319 -254.083249 
L 477.490508 -250.720435 
L 477.518802 -247.357621 
L 477.565063 -243.994807 
L 477.621134 -240.631992 
L 477.678125 -237.269178 
L 477.732874 -233.906364 
L 477.799108 -230.54355 
L 477.912143 -227.180736 
L 478.110263 -223.817922 
L 478.423526 -220.455107 
L 478.879297 -217.092293 
L 479.477576 -213.729479 
L 480.174933 -210.366665 
L 480.950594 -207.003851 
L 481.853855 -203.641037 
L 482.914913 -200.278222 
L 484.020964 -196.915408 
L 484.923898 -193.552594 
L 485.388357 -190.18978 
L 485.355802 -186.826966 
L 484.995332 -183.464152 
L 484.613952 -180.101337 
L 484.516991 -176.738523 
L 484.928292 -173.375709 
L 485.941492 -170.012895 
L 487.387288 -166.650081 
L 488.741549 -163.287267 
L 489.307655 -159.924452 
L 488.584788 -156.561638 
L 486.563987 -153.198824 
L 483.786302 -149.83601 
L 481.07092 -146.473196 
L 479.048633 -143.110382 
L 477.878121 -139.747567 
L 477.346507 -136.384753 
L 477.155213 -133.021939 
L 477.100229 -129.659125 
z
" id="mc84c030311" style="stroke:#3c3c3c;stroke-width:1.5;"/>
    </defs>
    <g clip-path="url(#p38195597e8)">
     <use style="fill:#4b637e;stroke:#3c3c3c;stroke-width:1.5;" x="0" xlink:href="#mc84c030311" y="489.545"/>
    </g>
   </g>
   <g id="PolyCollection_9">
    <defs>
     <path d="M 544.067232 -123.491903 
L 544.022768 -123.491903 
L 544.003113 -124.129822 
L 543.970554 -124.76774 
L 543.91934 -125.405659 
L 543.841935 -126.043577 
L 543.728044 -126.681496 
L 543.563052 -127.319414 
L 543.326287 -127.957333 
L 542.990198 -128.595251 
L 542.521952 -129.23317 
L 541.888702 -129.871088 
L 541.066575 -130.509007 
L 540.051451 -131.146926 
L 538.867765 -131.784844 
L 537.570989 -132.422763 
L 536.241003 -133.060681 
L 534.966995 -133.6986 
L 533.82834 -134.336518 
L 532.87789 -134.974437 
L 532.133016 -135.612355 
L 531.5762 -136.250274 
L 531.163244 -136.888193 
L 530.835405 -137.526111 
L 530.53249 -138.16403 
L 530.20553 -138.801948 
L 529.827865 -139.439867 
L 529.402114 -140.077785 
L 528.959164 -140.715704 
L 528.546741 -141.353622 
L 528.209811 -141.991541 
L 527.970442 -142.629459 
L 527.816781 -143.267378 
L 527.707017 -143.905297 
L 527.586312 -144.543215 
L 527.407484 -145.181134 
L 527.144494 -145.819052 
L 526.792693 -146.456971 
L 526.358301 -147.094889 
L 525.846134 -147.732808 
L 525.255298 -148.370726 
L 524.586905 -149.008645 
L 523.859579 -149.646564 
L 523.122682 -150.284482 
L 522.457357 -150.922401 
L 521.96171 -151.560319 
L 521.725 -152.198238 
L 521.801792 -152.836156 
L 522.19717 -153.474075 
L 522.868641 -154.111993 
L 523.742576 -154.749912 
L 524.737276 -155.38783 
L 525.783453 -156.025749 
L 526.835895 -156.663668 
L 527.875039 -157.301586 
L 528.901309 -157.939505 
L 529.926681 -158.577423 
L 530.966901 -159.215342 
L 532.03566 -159.85326 
L 533.140418 -160.491179 
L 534.279447 -161.129097 
L 535.440373 -161.767016 
L 536.601005 -162.404935 
L 537.732749 -163.042853 
L 538.805706 -163.680772 
L 539.793621 -164.31869 
L 540.676939 -164.956609 
L 541.443407 -165.594527 
L 542.087061 -166.232446 
L 542.60715 -166.870364 
L 543.008063 -167.508283 
L 543.30007 -168.146201 
L 543.499679 -168.78412 
L 543.628343 -169.422039 
L 543.70921 -170.059957 
L 543.762878 -170.697876 
L 543.803888 -171.335794 
L 543.839409 -171.973713 
L 543.870506 -172.611631 
L 543.895162 -173.24955 
L 543.911511 -173.887468 
L 543.919913 -174.525387 
L 543.923202 -175.163306 
L 543.925413 -175.801224 
L 543.929881 -176.439143 
L 543.937776 -177.077061 
L 543.947741 -177.71498 
L 543.956733 -178.352898 
L 543.961587 -178.990817 
L 543.960577 -179.628735 
L 543.954314 -180.266654 
L 543.945621 -180.904572 
L 543.938491 -181.542491 
L 543.936573 -182.18041 
L 543.941848 -182.818328 
L 543.954034 -183.456247 
L 543.970928 -184.094165 
L 543.989405 -184.732084 
L 544.006572 -185.370002 
L 544.020546 -186.007921 
L 544.030677 -186.645839 
L 544.059323 -186.645839 
L 544.059323 -186.645839 
L 544.069454 -186.007921 
L 544.083428 -185.370002 
L 544.100595 -184.732084 
L 544.119072 -184.094165 
L 544.135966 -183.456247 
L 544.148152 -182.818328 
L 544.153427 -182.18041 
L 544.151509 -181.542491 
L 544.144379 -180.904572 
L 544.135686 -180.266654 
L 544.129423 -179.628735 
L 544.128413 -178.990817 
L 544.133267 -178.352898 
L 544.142259 -177.71498 
L 544.152224 -177.077061 
L 544.160119 -176.439143 
L 544.164587 -175.801224 
L 544.166798 -175.163306 
L 544.170087 -174.525387 
L 544.178489 -173.887468 
L 544.194838 -173.24955 
L 544.219494 -172.611631 
L 544.250591 -171.973713 
L 544.286112 -171.335794 
L 544.327122 -170.697876 
L 544.38079 -170.059957 
L 544.461657 -169.422039 
L 544.590321 -168.78412 
L 544.78993 -168.146201 
L 545.081937 -167.508283 
L 545.48285 -166.870364 
L 546.002939 -166.232446 
L 546.646593 -165.594527 
L 547.413061 -164.956609 
L 548.296379 -164.31869 
L 549.284294 -163.680772 
L 550.357251 -163.042853 
L 551.488995 -162.404935 
L 552.649627 -161.767016 
L 553.810553 -161.129097 
L 554.949582 -160.491179 
L 556.05434 -159.85326 
L 557.123099 -159.215342 
L 558.163319 -158.577423 
L 559.188691 -157.939505 
L 560.214961 -157.301586 
L 561.254105 -156.663668 
L 562.306547 -156.025749 
L 563.352724 -155.38783 
L 564.347424 -154.749912 
L 565.221359 -154.111993 
L 565.89283 -153.474075 
L 566.288208 -152.836156 
L 566.365 -152.198238 
L 566.12829 -151.560319 
L 565.632643 -150.922401 
L 564.967318 -150.284482 
L 564.230421 -149.646564 
L 563.503095 -149.008645 
L 562.834702 -148.370726 
L 562.243866 -147.732808 
L 561.731699 -147.094889 
L 561.297307 -146.456971 
L 560.945506 -145.819052 
L 560.682516 -145.181134 
L 560.503688 -144.543215 
L 560.382983 -143.905297 
L 560.273219 -143.267378 
L 560.119558 -142.629459 
L 559.880189 -141.991541 
L 559.543259 -141.353622 
L 559.130836 -140.715704 
L 558.687886 -140.077785 
L 558.262135 -139.439867 
L 557.88447 -138.801948 
L 557.55751 -138.16403 
L 557.254595 -137.526111 
L 556.926756 -136.888193 
L 556.5138 -136.250274 
L 555.956984 -135.612355 
L 555.21211 -134.974437 
L 554.26166 -134.336518 
L 553.123005 -133.6986 
L 551.848997 -133.060681 
L 550.519011 -132.422763 
L 549.222235 -131.784844 
L 548.038549 -131.146926 
L 547.023425 -130.509007 
L 546.201298 -129.871088 
L 545.568048 -129.23317 
L 545.099802 -128.595251 
L 544.763713 -127.957333 
L 544.526948 -127.319414 
L 544.361956 -126.681496 
L 544.248065 -126.043577 
L 544.17066 -125.405659 
L 544.119446 -124.76774 
L 544.086887 -124.129822 
L 544.067232 -123.491903 
z
" id="m66ea96e3dd" style="stroke:#3c3c3c;stroke-width:1.5;"/>
    </defs>
    <g clip-path="url(#p38195597e8)">
     <use style="fill:#a3a3a3;stroke:#3c3c3c;stroke-width:1.5;" x="0" xlink:href="#m66ea96e3dd" y="489.545"/>
    </g>
   </g>
   <g id="PolyCollection_10">
    <defs>
     <path d="M 588.7041 -120.700234 
L 588.6659 -120.700234 
L 588.630387 -122.653089 
L 588.544618 -124.605944 
L 588.359 -126.558799 
L 587.998465 -128.511654 
L 587.37027 -130.464508 
L 586.391137 -132.417363 
L 585.03322 -134.370218 
L 583.371877 -136.323073 
L 581.603421 -138.275928 
L 580.005888 -140.228783 
L 578.848218 -142.181638 
L 578.292502 -144.134492 
L 578.343606 -146.087347 
L 578.867579 -148.040202 
L 579.655138 -149.993057 
L 580.488163 -151.945912 
L 581.182087 -153.898767 
L 581.602254 -155.851622 
L 581.667563 -157.804476 
L 581.355165 -159.757331 
L 580.709678 -161.710186 
L 579.847717 -163.663041 
L 578.94457 -165.615896 
L 578.198356 -167.568751 
L 577.780337 -169.521605 
L 577.788858 -171.47446 
L 578.226372 -173.427315 
L 579.011647 -175.38017 
L 580.020511 -177.333025 
L 581.129826 -179.28588 
L 582.241389 -181.238735 
L 583.284853 -183.191589 
L 584.214776 -185.144444 
L 585.010332 -187.097299 
L 585.672815 -189.050154 
L 586.216242 -191.003009 
L 586.656171 -192.955864 
L 587.005005 -194.908719 
L 587.274947 -196.861573 
L 587.482051 -198.814428 
L 587.644794 -200.767283 
L 587.777968 -202.720138 
L 587.888969 -204.672993 
L 587.980963 -206.625848 
L 588.058644 -208.578703 
L 588.129005 -210.531557 
L 588.196441 -212.484412 
L 588.258973 -214.437267 
L 588.310526 -216.390122 
L 588.346471 -218.342977 
L 588.366641 -220.295832 
L 588.374254 -222.248686 
L 588.37375 -224.201541 
L 588.369933 -226.154396 
L 588.367637 -228.107251 
L 588.370388 -230.060106 
L 588.378755 -232.012961 
L 588.390323 -233.965816 
L 588.401709 -235.91867 
L 588.410662 -237.871525 
L 588.41642 -239.82438 
L 588.418865 -241.777235 
L 588.418203 -243.73009 
L 588.415282 -245.682945 
L 588.411195 -247.6358 
L 588.406146 -249.588654 
L 588.399489 -251.541509 
L 588.391624 -253.494364 
L 588.385642 -255.447219 
L 588.386448 -257.400074 
L 588.397853 -259.352929 
L 588.420101 -261.305784 
L 588.449443 -263.258638 
L 588.479576 -265.211493 
L 588.503983 -267.164348 
L 588.518104 -269.117203 
L 588.520386 -271.070058 
L 588.512092 -273.022913 
L 588.496943 -274.975767 
L 588.481205 -276.928622 
L 588.47285 -278.881477 
L 588.478154 -280.834332 
L 588.497443 -282.787187 
L 588.524378 -284.740042 
L 588.550401 -286.692897 
L 588.570404 -288.645751 
L 588.584522 -290.598606 
L 588.59546 -292.551461 
L 588.605121 -294.504316 
L 588.6137 -296.457171 
L 588.62097 -298.410026 
L 588.627522 -300.362881 
L 588.634671 -302.315735 
L 588.643398 -304.26859 
L 588.653499 -306.221445 
L 588.663646 -308.1743 
L 588.67225 -310.127155 
L 588.678368 -312.08001 
L 588.682019 -314.032865 
L 588.687981 -314.032865 
L 588.687981 -314.032865 
L 588.691632 -312.08001 
L 588.69775 -310.127155 
L 588.706354 -308.1743 
L 588.716501 -306.221445 
L 588.726602 -304.26859 
L 588.735329 -302.315735 
L 588.742478 -300.362881 
L 588.74903 -298.410026 
L 588.7563 -296.457171 
L 588.764879 -294.504316 
L 588.77454 -292.551461 
L 588.785478 -290.598606 
L 588.799596 -288.645751 
L 588.819599 -286.692897 
L 588.845622 -284.740042 
L 588.872557 -282.787187 
L 588.891846 -280.834332 
L 588.89715 -278.881477 
L 588.888795 -276.928622 
L 588.873057 -274.975767 
L 588.857908 -273.022913 
L 588.849614 -271.070058 
L 588.851896 -269.117203 
L 588.866017 -267.164348 
L 588.890424 -265.211493 
L 588.920557 -263.258638 
L 588.949899 -261.305784 
L 588.972147 -259.352929 
L 588.983552 -257.400074 
L 588.984358 -255.447219 
L 588.978376 -253.494364 
L 588.970511 -251.541509 
L 588.963854 -249.588654 
L 588.958805 -247.6358 
L 588.954718 -245.682945 
L 588.951797 -243.73009 
L 588.951135 -241.777235 
L 588.95358 -239.82438 
L 588.959338 -237.871525 
L 588.968291 -235.91867 
L 588.979677 -233.965816 
L 588.991245 -232.012961 
L 588.999612 -230.060106 
L 589.002363 -228.107251 
L 589.000067 -226.154396 
L 588.99625 -224.201541 
L 588.995746 -222.248686 
L 589.003359 -220.295832 
L 589.023529 -218.342977 
L 589.059474 -216.390122 
L 589.111027 -214.437267 
L 589.173559 -212.484412 
L 589.240995 -210.531557 
L 589.311356 -208.578703 
L 589.389037 -206.625848 
L 589.481031 -204.672993 
L 589.592032 -202.720138 
L 589.725206 -200.767283 
L 589.887949 -198.814428 
L 590.095053 -196.861573 
L 590.364995 -194.908719 
L 590.713829 -192.955864 
L 591.153758 -191.003009 
L 591.697185 -189.050154 
L 592.359668 -187.097299 
L 593.155224 -185.144444 
L 594.085147 -183.191589 
L 595.128611 -181.238735 
L 596.240174 -179.28588 
L 597.349489 -177.333025 
L 598.358353 -175.38017 
L 599.143628 -173.427315 
L 599.581142 -171.47446 
L 599.589663 -169.521605 
L 599.171644 -167.568751 
L 598.42543 -165.615896 
L 597.522283 -163.663041 
L 596.660322 -161.710186 
L 596.014835 -159.757331 
L 595.702437 -157.804476 
L 595.767746 -155.851622 
L 596.187913 -153.898767 
L 596.881837 -151.945912 
L 597.714862 -149.993057 
L 598.502421 -148.040202 
L 599.026394 -146.087347 
L 599.077498 -144.134492 
L 598.521782 -142.181638 
L 597.364112 -140.228783 
L 595.766579 -138.275928 
L 593.998123 -136.323073 
L 592.33678 -134.370218 
L 590.978863 -132.417363 
L 589.99973 -130.464508 
L 589.371535 -128.511654 
L 589.011 -126.558799 
L 588.825382 -124.605944 
L 588.739613 -122.653089 
L 588.7041 -120.700234 
z
" id="mccd8a44699" style="stroke:#3c3c3c;stroke-width:1.5;"/>
    </defs>
    <g clip-path="url(#p38195597e8)">
     <use style="fill:#4b637e;stroke:#3c3c3c;stroke-width:1.5;" x="0" xlink:href="#mccd8a44699" y="489.545"/>
    </g>
   </g>
   <g id="PolyCollection_11">
    <defs>
     <path d="M 655.67099 -69.745566 
L 655.61901 -69.745566 
L 655.568031 -70.046284 
L 655.448808 -70.347002 
L 655.207943 -70.64772 
L 654.778736 -70.948438 
L 654.084389 -71.249156 
L 653.030755 -71.549875 
L 651.498886 -71.850593 
L 649.371745 -72.151311 
L 646.609952 -72.452029 
L 643.338693 -72.752747 
L 639.890992 -73.053466 
L 636.768354 -73.354184 
L 634.493638 -73.654902 
L 633.395914 -73.95562 
L 633.458208 -74.256338 
L 634.324195 -74.557056 
L 635.434915 -74.857775 
L 636.227062 -75.158493 
L 636.339073 -75.459211 
L 635.743675 -75.759929 
L 634.735139 -76.060647 
L 633.784216 -76.361366 
L 633.325 -76.662084 
L 633.560005 -76.962802 
L 634.425717 -77.26352 
L 635.783401 -77.564238 
L 637.625734 -77.864956 
L 640.026682 -78.165675 
L 642.907904 -78.466393 
L 645.941114 -78.767111 
L 648.69906 -79.067829 
L 650.877527 -79.368547 
L 652.400218 -79.669266 
L 653.373131 -79.969984 
L 653.96892 -80.270702 
L 654.338037 -80.57142 
L 654.582575 -80.872138 
L 654.764853 -81.172856 
L 654.918665 -81.473575 
L 655.05904 -81.774293 
L 655.192473 -82.075011 
L 655.320507 -82.375729 
L 655.436841 -82.676447 
L 655.529602 -82.977165 
L 655.591143 -83.277884 
L 655.624208 -83.578602 
L 655.638435 -83.87932 
L 655.643316 -84.180038 
L 655.644651 -84.480756 
L 655.644942 -84.781475 
L 655.644992 -85.082193 
L 655.644999 -85.382911 
L 655.645 -85.683629 
L 655.645 -85.984347 
L 655.645 -86.285065 
L 655.645 -86.585784 
L 655.645 -86.886502 
L 655.645 -87.18722 
L 655.645 -87.487938 
L 655.645 -87.788656 
L 655.645 -88.089375 
L 655.645 -88.390093 
L 655.645 -88.690811 
L 655.645 -88.991529 
L 655.645 -89.292247 
L 655.645 -89.592965 
L 655.645 -89.893684 
L 655.645 -90.194402 
L 655.645 -90.49512 
L 655.645 -90.795838 
L 655.645 -91.096556 
L 655.645 -91.397274 
L 655.645 -91.697993 
L 655.645 -91.998711 
L 655.644999 -92.299429 
L 655.644991 -92.600147 
L 655.644933 -92.900865 
L 655.644603 -93.201584 
L 655.643128 -93.502302 
L 655.637936 -93.80302 
L 655.623665 -94.103738 
L 655.593426 -94.404456 
L 655.5452 -94.705174 
L 655.490384 -95.005893 
L 655.45314 -95.306611 
L 655.45396 -95.607329 
L 655.490922 -95.908047 
L 655.539658 -96.208765 
L 655.571938 -96.509484 
L 655.573137 -96.810202 
L 655.546504 -97.11092 
L 655.508045 -97.411638 
L 655.478043 -97.712356 
L 655.471843 -98.013074 
L 655.493076 -98.313793 
L 655.532908 -98.614511 
L 655.576092 -98.915229 
L 655.610073 -99.215947 
L 655.630542 -99.516665 
L 655.659458 -99.516665 
L 655.659458 -99.516665 
L 655.679927 -99.215947 
L 655.713908 -98.915229 
L 655.757092 -98.614511 
L 655.796924 -98.313793 
L 655.818157 -98.013074 
L 655.811957 -97.712356 
L 655.781955 -97.411638 
L 655.743496 -97.11092 
L 655.716863 -96.810202 
L 655.718062 -96.509484 
L 655.750342 -96.208765 
L 655.799078 -95.908047 
L 655.83604 -95.607329 
L 655.83686 -95.306611 
L 655.799616 -95.005893 
L 655.7448 -94.705174 
L 655.696574 -94.404456 
L 655.666335 -94.103738 
L 655.652064 -93.80302 
L 655.646872 -93.502302 
L 655.645397 -93.201584 
L 655.645067 -92.900865 
L 655.645009 -92.600147 
L 655.645001 -92.299429 
L 655.645 -91.998711 
L 655.645 -91.697993 
L 655.645 -91.397274 
L 655.645 -91.096556 
L 655.645 -90.795838 
L 655.645 -90.49512 
L 655.645 -90.194402 
L 655.645 -89.893684 
L 655.645 -89.592965 
L 655.645 -89.292247 
L 655.645 -88.991529 
L 655.645 -88.690811 
L 655.645 -88.390093 
L 655.645 -88.089375 
L 655.645 -87.788656 
L 655.645 -87.487938 
L 655.645 -87.18722 
L 655.645 -86.886502 
L 655.645 -86.585784 
L 655.645 -86.285065 
L 655.645 -85.984347 
L 655.645 -85.683629 
L 655.645001 -85.382911 
L 655.645008 -85.082193 
L 655.645058 -84.781475 
L 655.645349 -84.480756 
L 655.646684 -84.180038 
L 655.651565 -83.87932 
L 655.665792 -83.578602 
L 655.698857 -83.277884 
L 655.760398 -82.977165 
L 655.853159 -82.676447 
L 655.969493 -82.375729 
L 656.097527 -82.075011 
L 656.23096 -81.774293 
L 656.371335 -81.473575 
L 656.525147 -81.172856 
L 656.707425 -80.872138 
L 656.951963 -80.57142 
L 657.32108 -80.270702 
L 657.916869 -79.969984 
L 658.889782 -79.669266 
L 660.412473 -79.368547 
L 662.59094 -79.067829 
L 665.348886 -78.767111 
L 668.382096 -78.466393 
L 671.263318 -78.165675 
L 673.664266 -77.864956 
L 675.506599 -77.564238 
L 676.864283 -77.26352 
L 677.729995 -76.962802 
L 677.965 -76.662084 
L 677.505784 -76.361366 
L 676.554861 -76.060647 
L 675.546325 -75.759929 
L 674.950927 -75.459211 
L 675.062938 -75.158493 
L 675.855085 -74.857775 
L 676.965805 -74.557056 
L 677.831792 -74.256338 
L 677.894086 -73.95562 
L 676.796362 -73.654902 
L 674.521646 -73.354184 
L 671.399008 -73.053466 
L 667.951307 -72.752747 
L 664.680048 -72.452029 
L 661.918255 -72.151311 
L 659.791114 -71.850593 
L 658.259245 -71.549875 
L 657.205611 -71.249156 
L 656.511264 -70.948438 
L 656.082057 -70.64772 
L 655.841192 -70.347002 
L 655.721969 -70.046284 
L 655.67099 -69.745566 
z
" id="mf3ffc539a8" style="stroke:#3c3c3c;stroke-width:1.5;"/>
    </defs>
    <g clip-path="url(#p38195597e8)">
     <use style="fill:#a3a3a3;stroke:#3c3c3c;stroke-width:1.5;" x="0" xlink:href="#mf3ffc539a8" y="489.545"/>
    </g>
   </g>
   <g id="PolyCollection_12">
    <defs>
     <path d="M 700.291598 -67.232273 
L 700.278402 -67.232273 
L 700.241009 -68.360687 
L 700.06816 -69.489102 
L 699.498902 -70.617517 
L 698.174866 -71.745931 
L 695.976121 -72.874346 
L 693.302004 -74.002761 
L 690.811419 -75.131176 
L 688.82509 -76.25959 
L 687.16409 -77.388005 
L 685.791954 -78.51642 
L 685.495307 -79.644834 
L 687.262229 -80.773249 
L 690.789276 -81.901664 
L 694.475789 -83.030078 
L 697.051109 -84.158493 
L 698.410923 -85.286908 
L 699.059289 -86.415322 
L 699.433972 -87.543737 
L 699.698117 -88.672152 
L 699.856814 -89.800567 
L 699.930908 -90.928981 
L 699.976488 -92.057396 
L 700.013161 -93.185811 
L 700.026816 -94.314225 
L 700.024167 -95.44264 
L 700.030043 -96.571055 
L 700.058595 -97.699469 
L 700.107334 -98.827884 
L 700.153321 -99.956299 
L 700.173683 -101.084713 
L 700.169349 -102.213128 
L 700.158831 -103.341543 
L 700.157416 -104.469957 
L 700.160981 -105.598372 
L 700.159733 -106.726787 
L 700.161486 -107.855202 
L 700.171633 -108.983616 
L 700.176559 -110.112031 
L 700.173878 -111.240446 
L 700.177942 -112.36886 
L 700.191783 -113.497275 
L 700.200543 -114.62569 
L 700.191493 -115.754104 
L 700.178435 -116.882519 
L 700.18113 -118.010934 
L 700.192777 -119.139348 
L 700.20162 -120.267763 
L 700.208574 -121.396178 
L 700.213764 -122.524593 
L 700.215866 -123.653007 
L 700.217724 -124.781422 
L 700.223836 -125.909837 
L 700.234847 -127.038251 
L 700.247245 -128.166666 
L 700.258486 -129.295081 
L 700.2639 -130.423495 
L 700.259407 -131.55191 
L 700.250485 -132.680325 
L 700.243311 -133.808739 
L 700.237293 -134.937154 
L 700.235914 -136.065569 
L 700.243941 -137.193983 
L 700.254315 -138.322398 
L 700.256427 -139.450813 
L 700.249347 -140.579228 
L 700.243872 -141.707642 
L 700.25064 -142.836057 
L 700.264419 -143.964472 
L 700.271484 -145.092886 
L 700.268363 -146.221301 
L 700.264371 -147.349716 
L 700.267935 -148.47813 
L 700.276168 -149.606545 
L 700.282049 -150.73496 
L 700.283578 -151.863374 
L 700.281554 -152.991789 
L 700.277028 -154.120204 
L 700.273062 -155.248619 
L 700.27187 -156.377033 
L 700.271728 -157.505448 
L 700.272137 -158.633863 
L 700.273463 -159.762277 
L 700.27356 -160.890692 
L 700.27352 -162.019107 
L 700.276613 -163.147521 
L 700.281172 -164.275936 
L 700.283949 -165.404351 
L 700.284828 -166.532765 
L 700.284983 -167.66118 
L 700.284999 -168.789595 
L 700.284991 -169.918009 
L 700.284893 -171.046424 
L 700.28427 -172.174839 
L 700.282019 -173.303254 
L 700.277742 -174.431668 
L 700.274468 -175.560083 
L 700.275891 -176.688498 
L 700.280304 -177.816912 
L 700.283557 -178.945327 
L 700.286443 -178.945327 
L 700.286443 -178.945327 
L 700.289696 -177.816912 
L 700.294109 -176.688498 
L 700.295532 -175.560083 
L 700.292258 -174.431668 
L 700.287981 -173.303254 
L 700.28573 -172.174839 
L 700.285107 -171.046424 
L 700.285009 -169.918009 
L 700.285001 -168.789595 
L 700.285017 -167.66118 
L 700.285172 -166.532765 
L 700.286051 -165.404351 
L 700.288828 -164.275936 
L 700.293387 -163.147521 
L 700.29648 -162.019107 
L 700.29644 -160.890692 
L 700.296537 -159.762277 
L 700.297863 -158.633863 
L 700.298272 -157.505448 
L 700.29813 -156.377033 
L 700.296938 -155.248619 
L 700.292972 -154.120204 
L 700.288446 -152.991789 
L 700.286422 -151.863374 
L 700.287951 -150.73496 
L 700.293832 -149.606545 
L 700.302065 -148.47813 
L 700.305629 -147.349716 
L 700.301637 -146.221301 
L 700.298516 -145.092886 
L 700.305581 -143.964472 
L 700.31936 -142.836057 
L 700.326128 -141.707642 
L 700.320653 -140.579228 
L 700.313573 -139.450813 
L 700.315685 -138.322398 
L 700.326059 -137.193983 
L 700.334086 -136.065569 
L 700.332707 -134.937154 
L 700.326689 -133.808739 
L 700.319515 -132.680325 
L 700.310593 -131.55191 
L 700.3061 -130.423495 
L 700.311514 -129.295081 
L 700.322755 -128.166666 
L 700.335153 -127.038251 
L 700.346164 -125.909837 
L 700.352276 -124.781422 
L 700.354134 -123.653007 
L 700.356236 -122.524593 
L 700.361426 -121.396178 
L 700.36838 -120.267763 
L 700.377223 -119.139348 
L 700.38887 -118.010934 
L 700.391565 -116.882519 
L 700.378507 -115.754104 
L 700.369457 -114.62569 
L 700.378217 -113.497275 
L 700.392058 -112.36886 
L 700.396122 -111.240446 
L 700.393441 -110.112031 
L 700.398367 -108.983616 
L 700.408514 -107.855202 
L 700.410267 -106.726787 
L 700.409019 -105.598372 
L 700.412584 -104.469957 
L 700.411169 -103.341543 
L 700.400651 -102.213128 
L 700.396317 -101.084713 
L 700.416679 -99.956299 
L 700.462666 -98.827884 
L 700.511405 -97.699469 
L 700.539957 -96.571055 
L 700.545833 -95.44264 
L 700.543184 -94.314225 
L 700.556839 -93.185811 
L 700.593512 -92.057396 
L 700.639092 -90.928981 
L 700.713186 -89.800567 
L 700.871883 -88.672152 
L 701.136028 -87.543737 
L 701.510711 -86.415322 
L 702.159077 -85.286908 
L 703.518891 -84.158493 
L 706.094211 -83.030078 
L 709.780724 -81.901664 
L 713.307771 -80.773249 
L 715.074693 -79.644834 
L 714.778046 -78.51642 
L 713.40591 -77.388005 
L 711.74491 -76.25959 
L 709.758581 -75.131176 
L 707.267996 -74.002761 
L 704.593879 -72.874346 
L 702.395134 -71.745931 
L 701.071098 -70.617517 
L 700.50184 -69.489102 
L 700.328991 -68.360687 
L 700.291598 -67.232273 
z
" id="m692418420e" style="stroke:#3c3c3c;stroke-width:1.5;"/>
    </defs>
    <g clip-path="url(#p38195597e8)">
     <use style="fill:#4b637e;stroke:#3c3c3c;stroke-width:1.5;" x="0" xlink:href="#m692418420e" y="489.545"/>
    </g>
   </g>
   <g id="patch_3">
    <path clip-path="url(#p38195597e8)" d="M 119.965 469.010025 
L 119.965 469.010025 
L 119.965 469.010025 
L 119.965 469.010025 
z
" style="fill:#a3a3a3;stroke:#3c3c3c;stroke-linejoin:miter;stroke-width:0.75;"/>
   </g>
   <g id="patch_4">
    <path clip-path="url(#p38195597e8)" d="M 119.965 469.010025 
L 119.965 469.010025 
L 119.965 469.010025 
L 119.965 469.010025 
z
" style="fill:#4b637e;stroke:#3c3c3c;stroke-linejoin:miter;stroke-width:0.75;"/>
   </g>
   <g id="line2d_1">
    <path clip-path="url(#p38195597e8)" d="M 97.645 367.508675 
L 97.645 335.364168 
" style="fill:none;stroke:#3c3c3c;stroke-linecap:round;stroke-width:1.5;"/>
   </g>
   <g id="line2d_2">
    <path clip-path="url(#p38195597e8)" d="M 97.645 359.689741 
L 97.645 347.092569 
" style="fill:none;stroke:#3c3c3c;stroke-linecap:round;stroke-width:4.5;"/>
   </g>
   <g id="line2d_3">
    <path clip-path="url(#p38195597e8)" d="M 142.285 368.956626 
L 142.285 324.938922 
" style="fill:none;stroke:#3c3c3c;stroke-linecap:round;stroke-width:1.5;"/>
   </g>
   <g id="line2d_4">
    <path clip-path="url(#p38195597e8)" d="M 142.285 354.766708 
L 142.285 342.748717 
" style="fill:none;stroke:#3c3c3c;stroke-linecap:round;stroke-width:4.5;"/>
   </g>
   <g id="line2d_5">
    <path clip-path="url(#p38195597e8)" d="M 209.245 358.959412 
L 209.245 318.210193 
" style="fill:none;stroke:#3c3c3c;stroke-linecap:round;stroke-width:1.5;"/>
   </g>
   <g id="line2d_6">
    <path clip-path="url(#p38195597e8)" d="M 209.245 347.87119 
L 209.245 333.4565 
" style="fill:none;stroke:#3c3c3c;stroke-linecap:round;stroke-width:4.5;"/>
   </g>
   <g id="line2d_7">
    <path clip-path="url(#p38195597e8)" d="M 253.885 360.34544 
L 253.885 309.894026 
" style="fill:none;stroke:#3c3c3c;stroke-linecap:round;stroke-width:1.5;"/>
   </g>
   <g id="line2d_8">
    <path clip-path="url(#p38195597e8)" d="M 253.885 343.158695 
L 253.885 329.852827 
" style="fill:none;stroke:#3c3c3c;stroke-linecap:round;stroke-width:4.5;"/>
   </g>
   <g id="line2d_9">
    <path clip-path="url(#p38195597e8)" d="M 320.845 352.131013 
L 320.845 311.996225 
" style="fill:none;stroke:#3c3c3c;stroke-linecap:round;stroke-width:1.5;"/>
   </g>
   <g id="line2d_10">
    <path clip-path="url(#p38195597e8)" d="M 320.845 337.487239 
L 320.845 327.182361 
" style="fill:none;stroke:#3c3c3c;stroke-linecap:round;stroke-width:4.5;"/>
   </g>
   <g id="line2d_11">
    <path clip-path="url(#p38195597e8)" d="M 365.485 357.554633 
L 365.485 269.420807 
" style="fill:none;stroke:#3c3c3c;stroke-linecap:round;stroke-width:1.5;"/>
   </g>
   <g id="line2d_12">
    <path clip-path="url(#p38195597e8)" d="M 365.485 331.521257 
L 365.485 306.572605 
" style="fill:none;stroke:#3c3c3c;stroke-linecap:round;stroke-width:4.5;"/>
   </g>
   <g id="line2d_13">
    <path clip-path="url(#p38195597e8)" d="M 432.445 349.926739 
L 432.445 300.79675 
" style="fill:none;stroke:#3c3c3c;stroke-linecap:round;stroke-width:1.5;"/>
   </g>
   <g id="line2d_14">
    <path clip-path="url(#p38195597e8)" d="M 432.445 337.237537 
L 432.445 322.596149 
" style="fill:none;stroke:#3c3c3c;stroke-linecap:round;stroke-width:4.5;"/>
   </g>
   <g id="line2d_15">
    <path clip-path="url(#p38195597e8)" d="M 477.085 348.625283 
L 477.085 247.111662 
" style="fill:none;stroke:#3c3c3c;stroke-linecap:round;stroke-width:1.5;"/>
   </g>
   <g id="line2d_16">
    <path clip-path="url(#p38195597e8)" d="M 477.085 329.103432 
L 477.085 296.241651 
" style="fill:none;stroke:#3c3c3c;stroke-linecap:round;stroke-width:4.5;"/>
   </g>
   <g id="line2d_17">
    <path clip-path="url(#p38195597e8)" d="M 544.045 361.625312 
L 544.045 318.719907 
" style="fill:none;stroke:#3c3c3c;stroke-linecap:round;stroke-width:1.5;"/>
   </g>
   <g id="line2d_18">
    <path clip-path="url(#p38195597e8)" d="M 544.045 347.808317 
L 544.045 334.960936 
" style="fill:none;stroke:#3c3c3c;stroke-linecap:round;stroke-width:4.5;"/>
   </g>
   <g id="line2d_19">
    <path clip-path="url(#p38195597e8)" d="M 588.685 359.201277 
L 588.685 271.936047 
" style="fill:none;stroke:#3c3c3c;stroke-linecap:round;stroke-width:1.5;"/>
   </g>
   <g id="line2d_20">
    <path clip-path="url(#p38195597e8)" d="M 588.685 342.233038 
L 588.685 314.114242 
" style="fill:none;stroke:#3c3c3c;stroke-linecap:round;stroke-width:4.5;"/>
   </g>
   <g id="line2d_21">
    <path clip-path="url(#p38195597e8)" d="M 655.645 418.534314 
L 655.645 407.798211 
" style="fill:none;stroke:#3c3c3c;stroke-linecap:round;stroke-width:1.5;"/>
   </g>
   <g id="line2d_22">
    <path clip-path="url(#p38195597e8)" d="M 655.645 415.489748 
L 655.645 412.365061 
" style="fill:none;stroke:#3c3c3c;stroke-linecap:round;stroke-width:4.5;"/>
   </g>
   <g id="line2d_23">
    <path clip-path="url(#p38195597e8)" d="M 700.285 419.175276 
L 700.285 402.109678 
" style="fill:none;stroke:#3c3c3c;stroke-linecap:round;stroke-width:1.5;"/>
   </g>
   <g id="line2d_24">
    <path clip-path="url(#p38195597e8)" d="M 700.285 413.086142 
L 700.285 408.679533 
" style="fill:none;stroke:#3c3c3c;stroke-linecap:round;stroke-width:4.5;"/>
   </g>
   <g id="patch_5">
    <path d="M 64.165 442.08 
L 64.165 7.2 
" style="fill:none;stroke:#262626;stroke-linecap:square;stroke-linejoin:miter;stroke-width:0.8;"/>
   </g>
   <g id="patch_6">
    <path d="M 733.765 442.08 
L 733.765 7.2 
" style="fill:none;stroke:#262626;stroke-linecap:square;stroke-linejoin:miter;stroke-width:0.8;"/>
   </g>
   <g id="patch_7">
    <path d="M 64.165 442.08 
L 733.765 442.08 
" style="fill:none;stroke:#262626;stroke-linecap:square;stroke-linejoin:miter;stroke-width:0.8;"/>
   </g>
   <g id="patch_8">
    <path d="M 64.165 7.2 
L 733.765 7.2 
" style="fill:none;stroke:#262626;stroke-linecap:square;stroke-linejoin:miter;stroke-width:0.8;"/>
   </g>
   <g id="PathCollection_1">
    <defs>
     <path d="M 0 1.5 
C 0.397805 1.5 0.77937 1.341951 1.06066 1.06066 
C 1.341951 0.77937 1.5 0.397805 1.5 0 
C 1.5 -0.397805 1.341951 -0.77937 1.06066 -1.06066 
C 0.77937 -1.341951 0.397805 -1.5 0 -1.5 
C -0.397805 -1.5 -0.77937 -1.341951 -1.06066 -1.06066 
C -1.341951 -0.77937 -1.5 -0.397805 -1.5 0 
C -1.5 0.397805 -1.341951 0.77937 -1.06066 1.06066 
C -0.77937 1.341951 -0.397805 1.5 0 1.5 
z
" id="mdb9ff041d5" style="stroke:#3c3c3c;"/>
    </defs>
    <g clip-path="url(#p38195597e8)">
     <use style="fill:#ffffff;stroke:#3c3c3c;" x="97.645" xlink:href="#mdb9ff041d5" y="353.173962"/>
    </g>
   </g>
   <g id="PathCollection_2">
    <g clip-path="url(#p38195597e8)">
     <use style="fill:#ffffff;stroke:#3c3c3c;" x="142.285" xlink:href="#mdb9ff041d5" y="348.685315"/>
    </g>
   </g>
   <g id="PathCollection_3">
    <g clip-path="url(#p38195597e8)">
     <use style="fill:#ffffff;stroke:#3c3c3c;" x="209.245" xlink:href="#mdb9ff041d5" y="339.000611"/>
    </g>
   </g>
   <g id="PathCollection_4">
    <g clip-path="url(#p38195597e8)">
     <use style="fill:#ffffff;stroke:#3c3c3c;" x="253.885" xlink:href="#mdb9ff041d5" y="335.674144"/>
    </g>
   </g>
   <g id="PathCollection_5">
    <g clip-path="url(#p38195597e8)">
     <use style="fill:#ffffff;stroke:#3c3c3c;" x="320.845" xlink:href="#mdb9ff041d5" y="330.978895"/>
    </g>
   </g>
   <g id="PathCollection_6">
    <g clip-path="url(#p38195597e8)">
     <use style="fill:#ffffff;stroke:#3c3c3c;" x="365.485" xlink:href="#mdb9ff041d5" y="316.606302"/>
    </g>
   </g>
   <g id="PathCollection_7">
    <g clip-path="url(#p38195597e8)">
     <use style="fill:#ffffff;stroke:#3c3c3c;" x="432.445" xlink:href="#mdb9ff041d5" y="330.730253"/>
    </g>
   </g>
   <g id="PathCollection_8">
    <g clip-path="url(#p38195597e8)">
     <use style="fill:#ffffff;stroke:#3c3c3c;" x="477.085" xlink:href="#mdb9ff041d5" y="314.136681"/>
    </g>
   </g>
   <g id="PathCollection_9">
    <g clip-path="url(#p38195597e8)">
     <use style="fill:#ffffff;stroke:#3c3c3c;" x="544.045" xlink:href="#mdb9ff041d5" y="340.536214"/>
    </g>
   </g>
   <g id="PathCollection_10">
    <g clip-path="url(#p38195597e8)">
     <use style="fill:#ffffff;stroke:#3c3c3c;" x="588.685" xlink:href="#mdb9ff041d5" y="324.779992"/>
    </g>
   </g>
   <g id="PathCollection_11">
    <g clip-path="url(#p38195597e8)">
     <use style="fill:#ffffff;stroke:#3c3c3c;" x="655.645" xlink:href="#mdb9ff041d5" y="413.807224"/>
    </g>
   </g>
   <g id="PathCollection_12">
    <g clip-path="url(#p38195597e8)">
     <use style="fill:#ffffff;stroke:#3c3c3c;" x="700.285" xlink:href="#mdb9ff041d5" y="410.522297"/>
    </g>
   </g>
   <g id="legend_1">
    <g id="patch_9">
     <path d="M 607.3225 88.2725 
L 722.565 88.2725 
Q 725.765 88.2725 725.765 85.0725 
L 725.765 18.4 
Q 725.765 15.2 722.565 15.2 
L 607.3225 15.2 
Q 604.1225 15.2 604.1225 18.4 
L 604.1225 85.0725 
Q 604.1225 88.2725 607.3225 88.2725 
z
" style="fill:#ffffff;opacity:0.8;stroke:#cccccc;stroke-linejoin:miter;"/>
    </g>
    <g id="text_18">
     <!-- day -->
     <defs>
      <path d="M 40.234375 0 
L 40.234375 6.546875 
Q 35.296875 -1.171875 25.734375 -1.171875 
Q 19.53125 -1.171875 14.328125 2.25 
Q 9.125 5.671875 6.265625 11.796875 
Q 3.421875 17.921875 3.421875 25.875 
Q 3.421875 33.640625 6 39.96875 
Q 8.59375 46.296875 13.765625 49.65625 
Q 18.953125 53.03125 25.34375 53.03125 
Q 30.03125 53.03125 33.6875 51.046875 
Q 37.359375 49.078125 39.65625 45.90625 
L 39.65625 71.578125 
L 48.390625 71.578125 
L 48.390625 0 
z
M 12.453125 25.875 
Q 12.453125 15.921875 16.640625 10.984375 
Q 20.84375 6.0625 26.5625 6.0625 
Q 32.328125 6.0625 36.34375 10.765625 
Q 40.375 15.484375 40.375 25.140625 
Q 40.375 35.796875 36.265625 40.765625 
Q 32.171875 45.75 26.171875 45.75 
Q 20.3125 45.75 16.375 40.96875 
Q 12.453125 36.1875 12.453125 25.875 
z
" id="ArialMT-100"/>
      <path d="M 6.203125 -19.96875 
L 5.21875 -11.71875 
Q 8.109375 -12.5 10.25 -12.5 
Q 13.1875 -12.5 14.9375 -11.515625 
Q 16.703125 -10.546875 17.828125 -8.796875 
Q 18.65625 -7.46875 20.515625 -2.25 
Q 20.75 -1.515625 21.296875 -0.09375 
L 1.609375 51.859375 
L 11.078125 51.859375 
L 21.875 21.828125 
Q 23.96875 16.109375 25.640625 9.8125 
Q 27.15625 15.875 29.25 21.625 
L 40.328125 51.859375 
L 49.125 51.859375 
L 29.390625 -0.875 
Q 26.21875 -9.421875 24.46875 -12.640625 
Q 22.125 -17 19.09375 -19.015625 
Q 16.0625 -21.046875 11.859375 -21.046875 
Q 9.328125 -21.046875 6.203125 -19.96875 
z
" id="ArialMT-121"/>
     </defs>
     <g style="fill:#262626;" transform="translate(652.04625 33.0525)scale(0.16 -0.16)">
      <use xlink:href="#ArialMT-100"/>
      <use x="55.615234" xlink:href="#ArialMT-97"/>
      <use x="111.230469" xlink:href="#ArialMT-121"/>
     </g>
    </g>
    <g id="patch_10">
     <path d="M 610.5225 55.8725 
L 642.5225 55.8725 
L 642.5225 44.6725 
L 610.5225 44.6725 
z
" style="fill:#a3a3a3;stroke:#3c3c3c;stroke-linejoin:miter;stroke-width:0.75;"/>
    </g>
    <g id="text_19">
     <!-- weekend -->
     <defs>
      <path d="M 16.15625 0 
L 0.296875 51.859375 
L 9.375 51.859375 
L 17.625 21.921875 
L 20.703125 10.796875 
Q 20.90625 11.625 23.390625 21.484375 
L 31.640625 51.859375 
L 40.671875 51.859375 
L 48.4375 21.78125 
L 51.03125 11.859375 
L 54 21.875 
L 62.890625 51.859375 
L 71.4375 51.859375 
L 55.21875 0 
L 46.09375 0 
L 37.84375 31.0625 
L 35.84375 39.890625 
L 25.34375 0 
z
" id="ArialMT-119"/>
      <path d="M 6.640625 0 
L 6.640625 71.578125 
L 15.4375 71.578125 
L 15.4375 30.765625 
L 36.234375 51.859375 
L 47.609375 51.859375 
L 27.78125 32.625 
L 49.609375 0 
L 38.765625 0 
L 21.625 26.515625 
L 15.4375 20.5625 
L 15.4375 0 
z
" id="ArialMT-107"/>
      <path d="M 6.59375 0 
L 6.59375 51.859375 
L 14.5 51.859375 
L 14.5 44.484375 
Q 20.21875 53.03125 31 53.03125 
Q 35.6875 53.03125 39.625 51.34375 
Q 43.5625 49.65625 45.515625 46.921875 
Q 47.46875 44.1875 48.25 40.4375 
Q 48.734375 37.984375 48.734375 31.890625 
L 48.734375 0 
L 39.9375 0 
L 39.9375 31.546875 
Q 39.9375 36.921875 38.90625 39.578125 
Q 37.890625 42.234375 35.28125 43.8125 
Q 32.671875 45.40625 29.15625 45.40625 
Q 23.53125 45.40625 19.453125 41.84375 
Q 15.375 38.28125 15.375 28.328125 
L 15.375 0 
z
" id="ArialMT-110"/>
     </defs>
     <g style="fill:#262626;" transform="translate(655.3225 55.8725)scale(0.16 -0.16)">
      <use xlink:href="#ArialMT-119"/>
      <use x="72.216797" xlink:href="#ArialMT-101"/>
      <use x="127.832031" xlink:href="#ArialMT-101"/>
      <use x="183.447266" xlink:href="#ArialMT-107"/>
      <use x="233.447266" xlink:href="#ArialMT-101"/>
      <use x="289.0625" xlink:href="#ArialMT-110"/>
      <use x="344.677734" xlink:href="#ArialMT-100"/>
     </g>
    </g>
    <g id="patch_11">
     <path d="M 610.5225 78.505 
L 642.5225 78.505 
L 642.5225 67.305 
L 610.5225 67.305 
z
" style="fill:#4b637e;stroke:#3c3c3c;stroke-linejoin:miter;stroke-width:0.75;"/>
    </g>
    <g id="text_20">
     <!-- workday -->
     <defs>
      <path d="M 6.5 0 
L 6.5 51.859375 
L 14.40625 51.859375 
L 14.40625 44 
Q 17.4375 49.515625 20 51.265625 
Q 22.5625 53.03125 25.640625 53.03125 
Q 30.078125 53.03125 34.671875 50.203125 
L 31.640625 42.046875 
Q 28.421875 43.953125 25.203125 43.953125 
Q 22.3125 43.953125 20.015625 42.21875 
Q 17.71875 40.484375 16.75 37.40625 
Q 15.28125 32.71875 15.28125 27.15625 
L 15.28125 0 
z
" id="ArialMT-114"/>
     </defs>
     <g style="fill:#262626;" transform="translate(655.3225 78.505)scale(0.16 -0.16)">
      <use xlink:href="#ArialMT-119"/>
      <use x="72.216797" xlink:href="#ArialMT-111"/>
      <use x="127.832031" xlink:href="#ArialMT-114"/>
      <use x="161.132812" xlink:href="#ArialMT-107"/>
      <use x="211.132812" xlink:href="#ArialMT-100"/>
      <use x="266.748047" xlink:href="#ArialMT-97"/>
      <use x="322.363281" xlink:href="#ArialMT-121"/>
     </g>
    </g>
   </g>
  </g>
 </g>
 <defs>
  <clipPath id="p38195597e8">
   <rect height="434.88" width="669.6" x="64.165" y="7.2"/>
  </clipPath>
 </defs>
</svg>
