<?xml version="1.0" encoding="utf-8" standalone="no"?>
<!DOCTYPE svg PUBLIC "-//W3C//DTD SVG 1.1//EN"
  "http://www.w3.org/Graphics/SVG/1.1/DTD/svg11.dtd">
<!-- Created with matplotlib (https://matplotlib.org/) -->
<svg height="183.38875pt" version="1.1" viewBox="0 0 347.745 183.38875" width="347.745pt" xmlns="http://www.w3.org/2000/svg" xmlns:xlink="http://www.w3.org/1999/xlink">
 <defs>
  <style type="text/css">
*{stroke-linecap:butt;stroke-linejoin:round;white-space:pre;}
  </style>
 </defs>
 <g id="figure_1">
  <g id="patch_1">
   <path d="M 0 183.38875 
L 347.745 183.38875 
L 347.745 0 
L 0 0 
z
" style="fill:#ffffff;"/>
  </g>
  <g id="axes_1">
   <g id="patch_2">
    <path d="M 52.5275 143.24 
L 181.74375 143.24 
L 181.74375 24.16 
L 52.5275 24.16 
z
" style="fill:#ffffff;"/>
   </g>
   <g id="matplotlib.axis_1">
    <g id="xtick_1">
     <g id="text_1">
      <!-- 0 -->
      <defs>
       <path d="M 4.15625 35.296875 
Q 4.15625 48 6.765625 55.734375 
Q 9.375 63.484375 14.515625 67.671875 
Q 19.671875 71.875 27.484375 71.875 
Q 33.25 71.875 37.59375 69.546875 
Q 41.9375 67.234375 44.765625 62.859375 
Q 47.609375 58.5 49.21875 52.21875 
Q 50.828125 45.953125 50.828125 35.296875 
Q 50.828125 22.703125 48.234375 14.96875 
Q 45.65625 7.234375 40.5 3 
Q 35.359375 -1.21875 27.484375 -1.21875 
Q 17.140625 -1.21875 11.234375 6.203125 
Q 4.15625 15.140625 4.15625 35.296875 
z
M 13.1875 35.296875 
Q 13.1875 17.671875 17.3125 11.828125 
Q 21.4375 6 27.484375 6 
Q 33.546875 6 37.671875 11.859375 
Q 41.796875 17.71875 41.796875 35.296875 
Q 41.796875 52.984375 37.671875 58.78125 
Q 33.546875 64.59375 27.390625 64.59375 
Q 21.34375 64.59375 17.71875 59.46875 
Q 13.1875 52.9375 13.1875 35.296875 
z
" id="ArialMT-48"/>
      </defs>
      <g style="fill:#262626;" transform="translate(54.53466 158.829375)scale(0.12 -0.12)">
       <use xlink:href="#ArialMT-48"/>
      </g>
     </g>
    </g>
    <g id="xtick_2">
     <g id="text_2">
      <!-- 500 -->
      <defs>
       <path d="M 4.15625 18.75 
L 13.375 19.53125 
Q 14.40625 12.796875 18.140625 9.390625 
Q 21.875 6 27.15625 6 
Q 33.5 6 37.890625 10.78125 
Q 42.28125 15.578125 42.28125 23.484375 
Q 42.28125 31 38.0625 35.34375 
Q 33.84375 39.703125 27 39.703125 
Q 22.75 39.703125 19.328125 37.765625 
Q 15.921875 35.84375 13.96875 32.765625 
L 5.71875 33.84375 
L 12.640625 70.609375 
L 48.25 70.609375 
L 48.25 62.203125 
L 19.671875 62.203125 
L 15.828125 42.96875 
Q 22.265625 47.46875 29.34375 47.46875 
Q 38.71875 47.46875 45.15625 40.96875 
Q 51.609375 34.46875 51.609375 24.265625 
Q 51.609375 14.546875 45.953125 7.46875 
Q 39.0625 -1.21875 27.15625 -1.21875 
Q 17.390625 -1.21875 11.203125 4.25 
Q 5.03125 9.71875 4.15625 18.75 
z
" id="ArialMT-53"/>
      </defs>
      <g style="fill:#262626;" transform="translate(100.965838 158.829375)scale(0.12 -0.12)">
       <use xlink:href="#ArialMT-53"/>
       <use x="55.615234" xlink:href="#ArialMT-48"/>
       <use x="111.230469" xlink:href="#ArialMT-48"/>
      </g>
     </g>
    </g>
    <g id="xtick_3">
     <g id="text_3">
      <!-- 1000 -->
      <defs>
       <path d="M 37.25 0 
L 28.46875 0 
L 28.46875 56 
Q 25.296875 52.984375 20.140625 49.953125 
Q 14.984375 46.921875 10.890625 45.40625 
L 10.890625 53.90625 
Q 18.265625 57.375 23.78125 62.296875 
Q 29.296875 67.234375 31.59375 71.875 
L 37.25 71.875 
z
" id="ArialMT-49"/>
      </defs>
      <g style="fill:#262626;" transform="translate(150.733579 158.829375)scale(0.12 -0.12)">
       <use xlink:href="#ArialMT-49"/>
       <use x="55.615234" xlink:href="#ArialMT-48"/>
       <use x="111.230469" xlink:href="#ArialMT-48"/>
       <use x="166.845703" xlink:href="#ArialMT-48"/>
      </g>
     </g>
    </g>
    <g id="text_4">
     <!-- 1016-140 -->
     <defs>
      <path d="M 49.75 54.046875 
L 41.015625 53.375 
Q 39.84375 58.546875 37.703125 60.890625 
Q 34.125 64.65625 28.90625 64.65625 
Q 24.703125 64.65625 21.53125 62.3125 
Q 17.390625 59.28125 14.984375 53.46875 
Q 12.59375 47.65625 12.5 36.921875 
Q 15.671875 41.75 20.265625 44.09375 
Q 24.859375 46.4375 29.890625 46.4375 
Q 38.671875 46.4375 44.84375 39.96875 
Q 51.03125 33.5 51.03125 23.25 
Q 51.03125 16.5 48.125 10.71875 
Q 45.21875 4.9375 40.140625 1.859375 
Q 35.0625 -1.21875 28.609375 -1.21875 
Q 17.625 -1.21875 10.6875 6.859375 
Q 3.765625 14.9375 3.765625 33.5 
Q 3.765625 54.25 11.421875 63.671875 
Q 18.109375 71.875 29.4375 71.875 
Q 37.890625 71.875 43.28125 67.140625 
Q 48.6875 62.40625 49.75 54.046875 
z
M 13.875 23.1875 
Q 13.875 18.65625 15.796875 14.5 
Q 17.71875 10.359375 21.1875 8.171875 
Q 24.65625 6 28.46875 6 
Q 34.03125 6 38.03125 10.484375 
Q 42.046875 14.984375 42.046875 22.703125 
Q 42.046875 30.125 38.078125 34.390625 
Q 34.125 38.671875 28.125 38.671875 
Q 22.171875 38.671875 18.015625 34.390625 
Q 13.875 30.125 13.875 23.1875 
z
" id="ArialMT-54"/>
      <path d="M 3.171875 21.484375 
L 3.171875 30.328125 
L 30.171875 30.328125 
L 30.171875 21.484375 
z
" id="ArialMT-45"/>
      <path d="M 32.328125 0 
L 32.328125 17.140625 
L 1.265625 17.140625 
L 1.265625 25.203125 
L 33.9375 71.578125 
L 41.109375 71.578125 
L 41.109375 25.203125 
L 50.78125 25.203125 
L 50.78125 17.140625 
L 41.109375 17.140625 
L 41.109375 0 
z
M 32.328125 25.203125 
L 32.328125 57.46875 
L 9.90625 25.203125 
z
" id="ArialMT-52"/>
     </defs>
     <g style="fill:#262626;" transform="translate(91.781875 173.80375)scale(0.12 -0.12)">
      <use xlink:href="#ArialMT-49"/>
      <use x="55.615234" xlink:href="#ArialMT-48"/>
      <use x="111.230469" xlink:href="#ArialMT-49"/>
      <use x="166.845703" xlink:href="#ArialMT-54"/>
      <use x="222.460938" xlink:href="#ArialMT-45"/>
      <use x="255.761719" xlink:href="#ArialMT-49"/>
      <use x="311.376953" xlink:href="#ArialMT-52"/>
      <use x="366.992188" xlink:href="#ArialMT-48"/>
     </g>
    </g>
   </g>
   <g id="matplotlib.axis_2">
    <g id="ytick_1">
     <g id="text_5">
      <!-- 0.10 -->
      <defs>
       <path d="M 9.078125 0 
L 9.078125 10.015625 
L 19.09375 10.015625 
L 19.09375 0 
z
" id="ArialMT-46"/>
      </defs>
      <g style="fill:#262626;" transform="translate(22.174375 140.988969)scale(0.12 -0.12)">
       <use xlink:href="#ArialMT-48"/>
       <use x="55.615234" xlink:href="#ArialMT-46"/>
       <use x="83.398438" xlink:href="#ArialMT-49"/>
       <use x="139.013672" xlink:href="#ArialMT-48"/>
      </g>
     </g>
    </g>
    <g id="ytick_2">
     <g id="text_6">
      <!-- 0.12 -->
      <defs>
       <path d="M 50.34375 8.453125 
L 50.34375 0 
L 3.03125 0 
Q 2.9375 3.171875 4.046875 6.109375 
Q 5.859375 10.9375 9.828125 15.625 
Q 13.8125 20.3125 21.34375 26.46875 
Q 33.015625 36.03125 37.109375 41.625 
Q 41.21875 47.21875 41.21875 52.203125 
Q 41.21875 57.421875 37.46875 61 
Q 33.734375 64.59375 27.734375 64.59375 
Q 21.390625 64.59375 17.578125 60.78125 
Q 13.765625 56.984375 13.71875 50.25 
L 4.6875 51.171875 
Q 5.609375 61.28125 11.65625 66.578125 
Q 17.71875 71.875 27.9375 71.875 
Q 38.234375 71.875 44.234375 66.15625 
Q 50.25 60.453125 50.25 52 
Q 50.25 47.703125 48.484375 43.546875 
Q 46.734375 39.40625 42.65625 34.8125 
Q 38.578125 30.21875 29.109375 22.21875 
Q 21.1875 15.578125 18.9375 13.203125 
Q 16.703125 10.84375 15.234375 8.453125 
z
" id="ArialMT-50"/>
      </defs>
      <g style="fill:#262626;" transform="translate(22.174375 101.770115)scale(0.12 -0.12)">
       <use xlink:href="#ArialMT-48"/>
       <use x="55.615234" xlink:href="#ArialMT-46"/>
       <use x="83.398438" xlink:href="#ArialMT-49"/>
       <use x="139.013672" xlink:href="#ArialMT-50"/>
      </g>
     </g>
    </g>
    <g id="ytick_3">
     <g id="text_7">
      <!-- 0.14 -->
      <g style="fill:#262626;" transform="translate(22.174375 62.551261)scale(0.12 -0.12)">
       <use xlink:href="#ArialMT-48"/>
       <use x="55.615234" xlink:href="#ArialMT-46"/>
       <use x="83.398438" xlink:href="#ArialMT-49"/>
       <use x="139.013672" xlink:href="#ArialMT-52"/>
      </g>
     </g>
    </g>
    <g id="text_8">
     <!-- pace -->
     <defs>
      <path d="M 6.59375 -19.875 
L 6.59375 51.859375 
L 14.59375 51.859375 
L 14.59375 45.125 
Q 17.4375 49.078125 21 51.046875 
Q 24.5625 53.03125 29.640625 53.03125 
Q 36.28125 53.03125 41.359375 49.609375 
Q 46.4375 46.1875 49.015625 39.953125 
Q 51.609375 33.734375 51.609375 26.3125 
Q 51.609375 18.359375 48.75 11.984375 
Q 45.90625 5.609375 40.453125 2.21875 
Q 35.015625 -1.171875 29 -1.171875 
Q 24.609375 -1.171875 21.109375 0.6875 
Q 17.625 2.546875 15.375 5.375 
L 15.375 -19.875 
z
M 14.546875 25.640625 
Q 14.546875 15.625 18.59375 10.84375 
Q 22.65625 6.0625 28.421875 6.0625 
Q 34.28125 6.0625 38.453125 11.015625 
Q 42.625 15.96875 42.625 26.375 
Q 42.625 36.28125 38.546875 41.203125 
Q 34.46875 46.140625 28.8125 46.140625 
Q 23.1875 46.140625 18.859375 40.890625 
Q 14.546875 35.640625 14.546875 25.640625 
z
" id="ArialMT-112"/>
      <path d="M 40.4375 6.390625 
Q 35.546875 2.25 31.03125 0.53125 
Q 26.515625 -1.171875 21.34375 -1.171875 
Q 12.796875 -1.171875 8.203125 3 
Q 3.609375 7.171875 3.609375 13.671875 
Q 3.609375 17.484375 5.34375 20.625 
Q 7.078125 23.78125 9.890625 25.6875 
Q 12.703125 27.59375 16.21875 28.5625 
Q 18.796875 29.25 24.03125 29.890625 
Q 34.671875 31.15625 39.703125 32.90625 
Q 39.75 34.71875 39.75 35.203125 
Q 39.75 40.578125 37.25 42.78125 
Q 33.890625 45.75 27.25 45.75 
Q 21.046875 45.75 18.09375 43.578125 
Q 15.140625 41.40625 13.71875 35.890625 
L 5.125 37.0625 
Q 6.296875 42.578125 8.984375 45.96875 
Q 11.671875 49.359375 16.75 51.1875 
Q 21.828125 53.03125 28.515625 53.03125 
Q 35.15625 53.03125 39.296875 51.46875 
Q 43.453125 49.90625 45.40625 47.53125 
Q 47.359375 45.171875 48.140625 41.546875 
Q 48.578125 39.3125 48.578125 33.453125 
L 48.578125 21.734375 
Q 48.578125 9.46875 49.140625 6.21875 
Q 49.703125 2.984375 51.375 0 
L 42.1875 0 
Q 40.828125 2.734375 40.4375 6.390625 
z
M 39.703125 26.03125 
Q 34.90625 24.078125 25.34375 22.703125 
Q 19.921875 21.921875 17.671875 20.9375 
Q 15.4375 19.96875 14.203125 18.09375 
Q 12.984375 16.21875 12.984375 13.921875 
Q 12.984375 10.40625 15.640625 8.0625 
Q 18.3125 5.71875 23.4375 5.71875 
Q 28.515625 5.71875 32.46875 7.9375 
Q 36.421875 10.15625 38.28125 14.015625 
Q 39.703125 17 39.703125 22.796875 
z
" id="ArialMT-97"/>
      <path d="M 40.4375 19 
L 49.078125 17.875 
Q 47.65625 8.9375 41.8125 3.875 
Q 35.984375 -1.171875 27.484375 -1.171875 
Q 16.84375 -1.171875 10.375 5.78125 
Q 3.90625 12.75 3.90625 25.734375 
Q 3.90625 34.125 6.6875 40.421875 
Q 9.46875 46.734375 15.15625 49.875 
Q 20.84375 53.03125 27.546875 53.03125 
Q 35.984375 53.03125 41.359375 48.75 
Q 46.734375 44.484375 48.25 36.625 
L 39.703125 35.296875 
Q 38.484375 40.53125 35.375 43.15625 
Q 32.28125 45.796875 27.875 45.796875 
Q 21.234375 45.796875 17.078125 41.03125 
Q 12.9375 36.28125 12.9375 25.984375 
Q 12.9375 15.53125 16.9375 10.796875 
Q 20.953125 6.0625 27.390625 6.0625 
Q 32.5625 6.0625 36.03125 9.234375 
Q 39.5 12.40625 40.4375 19 
z
" id="ArialMT-99"/>
      <path d="M 42.09375 16.703125 
L 51.171875 15.578125 
Q 49.03125 7.625 43.21875 3.21875 
Q 37.40625 -1.171875 28.375 -1.171875 
Q 17 -1.171875 10.328125 5.828125 
Q 3.65625 12.84375 3.65625 25.484375 
Q 3.65625 38.578125 10.390625 45.796875 
Q 17.140625 53.03125 27.875 53.03125 
Q 38.28125 53.03125 44.875 45.953125 
Q 51.46875 38.875 51.46875 26.03125 
Q 51.46875 25.25 51.421875 23.6875 
L 12.75 23.6875 
Q 13.234375 15.140625 17.578125 10.59375 
Q 21.921875 6.0625 28.421875 6.0625 
Q 33.25 6.0625 36.671875 8.59375 
Q 40.09375 11.140625 42.09375 16.703125 
z
M 13.234375 30.90625 
L 42.1875 30.90625 
Q 41.609375 37.453125 38.875 40.71875 
Q 34.671875 45.796875 27.984375 45.796875 
Q 21.921875 45.796875 17.796875 41.75 
Q 13.671875 37.703125 13.234375 30.90625 
z
" id="ArialMT-101"/>
     </defs>
     <g style="fill:#262626;" transform="translate(15.789375 96.709687)rotate(-90)scale(0.12 -0.12)">
      <use xlink:href="#ArialMT-112"/>
      <use x="55.615234" xlink:href="#ArialMT-97"/>
      <use x="111.230469" xlink:href="#ArialMT-99"/>
      <use x="161.230469" xlink:href="#ArialMT-101"/>
     </g>
    </g>
   </g>
   <g id="PathCollection_1">
    <defs>
     <path d="M 0 1.581139 
C 0.419323 1.581139 0.821528 1.41454 1.118034 1.118034 
C 1.41454 0.821528 1.581139 0.419323 1.581139 0 
C 1.581139 -0.419323 1.41454 -0.821528 1.118034 -1.118034 
C 0.821528 -1.41454 0.419323 -1.581139 0 -1.581139 
C -0.419323 -1.581139 -0.821528 -1.41454 -1.118034 -1.118034 
C -1.41454 -0.821528 -1.581139 -0.419323 -1.581139 0 
C -1.581139 0.419323 -1.41454 0.821528 -1.118034 1.118034 
C -0.821528 1.41454 -0.419323 1.581139 0 1.581139 
z
" id="m13423ba4a8" style="stroke:#d95f02;stroke-opacity:0.8;"/>
    </defs>
    <g clip-path="url(#pb8d0b9139a)">
     <use style="fill:#d95f02;fill-opacity:0.8;stroke:#d95f02;stroke-opacity:0.8;" x="60.207812" xlink:href="#m13423ba4a8" y="73.36253"/>
     <use style="fill:#d95f02;fill-opacity:0.8;stroke:#d95f02;stroke-opacity:0.8;" x="60.526438" xlink:href="#m13423ba4a8" y="91.732187"/>
     <use style="fill:#d95f02;fill-opacity:0.8;stroke:#d95f02;stroke-opacity:0.8;" x="58.614683" xlink:href="#m13423ba4a8" y="88.10182"/>
     <use style="fill:#d95f02;fill-opacity:0.8;stroke:#d95f02;stroke-opacity:0.8;" x="59.039517" xlink:href="#m13423ba4a8" y="100.263549"/>
     <use style="fill:#d95f02;fill-opacity:0.8;stroke:#d95f02;stroke-opacity:0.8;" x="60.101603" xlink:href="#m13423ba4a8" y="103.077084"/>
     <use style="fill:#d95f02;fill-opacity:0.8;stroke:#d95f02;stroke-opacity:0.8;" x="64.349947" xlink:href="#m13423ba4a8" y="97.903811"/>
     <use style="fill:#d95f02;fill-opacity:0.8;stroke:#d95f02;stroke-opacity:0.8;" x="106.08993" xlink:href="#m13423ba4a8" y="90.370799"/>
     <use style="fill:#d95f02;fill-opacity:0.8;stroke:#d95f02;stroke-opacity:0.8;" x="174.382064" xlink:href="#m13423ba4a8" y="78.299829"/>
     <use style="fill:#d95f02;fill-opacity:0.8;stroke:#d95f02;stroke-opacity:0.8;" x="164.398455" xlink:href="#m13423ba4a8" y="65.684304"/>
     <use style="fill:#d95f02;fill-opacity:0.8;stroke:#d95f02;stroke-opacity:0.8;" x="147.617495" xlink:href="#m13423ba4a8" y="70.222263"/>
     <use style="fill:#d95f02;fill-opacity:0.8;stroke:#d95f02;stroke-opacity:0.8;" x="135.403505" xlink:href="#m13423ba4a8" y="63.324565"/>
     <use style="fill:#d95f02;fill-opacity:0.8;stroke:#d95f02;stroke-opacity:0.8;" x="141.457396" xlink:href="#m13423ba4a8" y="76.121609"/>
     <use style="fill:#d95f02;fill-opacity:0.8;stroke:#d95f02;stroke-opacity:0.8;" x="142.094648" xlink:href="#m13423ba4a8" y="61.600141"/>
     <use style="fill:#d95f02;fill-opacity:0.8;stroke:#d95f02;stroke-opacity:0.8;" x="144.856071" xlink:href="#m13423ba4a8" y="64.504435"/>
     <use style="fill:#d95f02;fill-opacity:0.8;stroke:#d95f02;stroke-opacity:0.8;" x="138.271138" xlink:href="#m13423ba4a8" y="62.78001"/>
     <use style="fill:#d95f02;fill-opacity:0.8;stroke:#d95f02;stroke-opacity:0.8;" x="135.934548" xlink:href="#m13423ba4a8" y="66.319618"/>
     <use style="fill:#d95f02;fill-opacity:0.8;stroke:#d95f02;stroke-opacity:0.8;" x="135.509714" xlink:href="#m13423ba4a8" y="62.507733"/>
     <use style="fill:#d95f02;fill-opacity:0.8;stroke:#d95f02;stroke-opacity:0.8;" x="134.129002" xlink:href="#m13423ba4a8" y="69.40543"/>
     <use style="fill:#d95f02;fill-opacity:0.8;stroke:#d95f02;stroke-opacity:0.8;" x="113.205907" xlink:href="#m13423ba4a8" y="73.671111"/>
     <use style="fill:#d95f02;fill-opacity:0.8;stroke:#d95f02;stroke-opacity:0.8;" x="95.150443" xlink:href="#m13423ba4a8" y="83.473102"/>
     <use style="fill:#d95f02;fill-opacity:0.8;stroke:#d95f02;stroke-opacity:0.8;" x="90.158639" xlink:href="#m13423ba4a8" y="84.471453"/>
     <use style="fill:#d95f02;fill-opacity:0.8;stroke:#d95f02;stroke-opacity:0.8;" x="67.005163" xlink:href="#m13423ba4a8" y="76.121609"/>
     <use style="fill:#d95f02;fill-opacity:0.8;stroke:#d95f02;stroke-opacity:0.8;" x="62.331984" xlink:href="#m13423ba4a8" y="91.36915"/>
     <use style="fill:#d95f02;fill-opacity:0.8;stroke:#d95f02;stroke-opacity:0.8;" x="60.632646" xlink:href="#m13423ba4a8" y="97.540774"/>
     <use style="fill:#d95f02;fill-opacity:0.8;stroke:#d95f02;stroke-opacity:0.8;" x="59.464352" xlink:href="#m13423ba4a8" y="94.091925"/>
     <use style="fill:#d95f02;fill-opacity:0.8;stroke:#d95f02;stroke-opacity:0.8;" x="58.508474" xlink:href="#m13423ba4a8" y="95.81635"/>
     <use style="fill:#d95f02;fill-opacity:0.8;stroke:#d95f02;stroke-opacity:0.8;" x="59.145726" xlink:href="#m13423ba4a8" y="97.359256"/>
     <use style="fill:#d95f02;fill-opacity:0.8;stroke:#d95f02;stroke-opacity:0.8;" x="59.782977" xlink:href="#m13423ba4a8" y="110.337818"/>
     <use style="fill:#d95f02;fill-opacity:0.8;stroke:#d95f02;stroke-opacity:0.8;" x="65.305825" xlink:href="#m13423ba4a8" y="108.704152"/>
     <use style="fill:#d95f02;fill-opacity:0.8;stroke:#d95f02;stroke-opacity:0.8;" x="104.709218" xlink:href="#m13423ba4a8" y="95.544072"/>
     <use style="fill:#d95f02;fill-opacity:0.8;stroke:#d95f02;stroke-opacity:0.8;" x="170.346137" xlink:href="#m13423ba4a8" y="75.395536"/>
     <use style="fill:#d95f02;fill-opacity:0.8;stroke:#d95f02;stroke-opacity:0.8;" x="164.292246" xlink:href="#m13423ba4a8" y="60.420272"/>
     <use style="fill:#d95f02;fill-opacity:0.8;stroke:#d95f02;stroke-opacity:0.8;" x="146.555409" xlink:href="#m13423ba4a8" y="74.306425"/>
     <use style="fill:#d95f02;fill-opacity:0.8;stroke:#d95f02;stroke-opacity:0.8;" x="135.722131" xlink:href="#m13423ba4a8" y="74.215666"/>
     <use style="fill:#d95f02;fill-opacity:0.8;stroke:#d95f02;stroke-opacity:0.8;" x="135.722131" xlink:href="#m13423ba4a8" y="62.689251"/>
     <use style="fill:#d95f02;fill-opacity:0.8;stroke:#d95f02;stroke-opacity:0.8;" x="139.439432" xlink:href="#m13423ba4a8" y="68.860875"/>
     <use style="fill:#d95f02;fill-opacity:0.8;stroke:#d95f02;stroke-opacity:0.8;" x="136.996634" xlink:href="#m13423ba4a8" y="71.492891"/>
     <use style="fill:#d95f02;fill-opacity:0.8;stroke:#d95f02;stroke-opacity:0.8;" x="132.74829" xlink:href="#m13423ba4a8" y="64.776712"/>
     <use style="fill:#d95f02;fill-opacity:0.8;stroke:#d95f02;stroke-opacity:0.8;" x="112.037612" xlink:href="#m13423ba4a8" y="70.403781"/>
     <use style="fill:#d95f02;fill-opacity:0.8;stroke:#d95f02;stroke-opacity:0.8;" x="94.194566" xlink:href="#m13423ba4a8" y="86.468155"/>
     <use style="fill:#d95f02;fill-opacity:0.8;stroke:#d95f02;stroke-opacity:0.8;" x="90.477265" xlink:href="#m13423ba4a8" y="91.550669"/>
     <use style="fill:#d95f02;fill-opacity:0.8;stroke:#d95f02;stroke-opacity:0.8;" x="66.898954" xlink:href="#m13423ba4a8" y="78.844384"/>
     <use style="fill:#d95f02;fill-opacity:0.8;stroke:#d95f02;stroke-opacity:0.8;" x="62.438193" xlink:href="#m13423ba4a8" y="89.735485"/>
     <use style="fill:#d95f02;fill-opacity:0.8;stroke:#d95f02;stroke-opacity:0.8;" x="60.632646" xlink:href="#m13423ba4a8" y="82.837788"/>
     <use style="fill:#d95f02;fill-opacity:0.8;stroke:#d95f02;stroke-opacity:0.8;" x="59.889186" xlink:href="#m13423ba4a8" y="78.299829"/>
     <use style="fill:#d95f02;fill-opacity:0.8;stroke:#d95f02;stroke-opacity:0.8;" x="59.145726" xlink:href="#m13423ba4a8" y="94.091925"/>
     <use style="fill:#d95f02;fill-opacity:0.8;stroke:#d95f02;stroke-opacity:0.8;" x="59.251934" xlink:href="#m13423ba4a8" y="108.250357"/>
     <use style="fill:#d95f02;fill-opacity:0.8;stroke:#d95f02;stroke-opacity:0.8;" x="60.420229" xlink:href="#m13423ba4a8" y="106.162896"/>
     <use style="fill:#d95f02;fill-opacity:0.8;stroke:#d95f02;stroke-opacity:0.8;" x="64.774782" xlink:href="#m13423ba4a8" y="101.352659"/>
     <use style="fill:#d95f02;fill-opacity:0.8;stroke:#d95f02;stroke-opacity:0.8;" x="103.00988" xlink:href="#m13423ba4a8" y="97.450015"/>
     <use style="fill:#d95f02;fill-opacity:0.8;stroke:#d95f02;stroke-opacity:0.8;" x="174.063438" xlink:href="#m13423ba4a8" y="76.03085"/>
     <use style="fill:#d95f02;fill-opacity:0.8;stroke:#d95f02;stroke-opacity:0.8;" x="159.512859" xlink:href="#m13423ba4a8" y="67.590247"/>
     <use style="fill:#d95f02;fill-opacity:0.8;stroke:#d95f02;stroke-opacity:0.8;" x="145.174697" xlink:href="#m13423ba4a8" y="74.397185"/>
     <use style="fill:#d95f02;fill-opacity:0.8;stroke:#d95f02;stroke-opacity:0.8;" x="133.49175" xlink:href="#m13423ba4a8" y="76.484646"/>
     <use style="fill:#d95f02;fill-opacity:0.8;stroke:#d95f02;stroke-opacity:0.8;" x="136.5718" xlink:href="#m13423ba4a8" y="69.042393"/>
     <use style="fill:#d95f02;fill-opacity:0.8;stroke:#d95f02;stroke-opacity:0.8;" x="132.74829" xlink:href="#m13423ba4a8" y="64.413675"/>
     <use style="fill:#d95f02;fill-opacity:0.8;stroke:#d95f02;stroke-opacity:0.8;" x="141.244979" xlink:href="#m13423ba4a8" y="71.220614"/>
     <use style="fill:#d95f02;fill-opacity:0.8;stroke:#d95f02;stroke-opacity:0.8;" x="140.926353" xlink:href="#m13423ba4a8" y="68.044042"/>
     <use style="fill:#d95f02;fill-opacity:0.8;stroke:#d95f02;stroke-opacity:0.8;" x="137.740095" xlink:href="#m13423ba4a8" y="64.776712"/>
     <use style="fill:#d95f02;fill-opacity:0.8;stroke:#d95f02;stroke-opacity:0.8;" x="136.253174" xlink:href="#m13423ba4a8" y="59.966476"/>
     <use style="fill:#d95f02;fill-opacity:0.8;stroke:#d95f02;stroke-opacity:0.8;" x="129.880658" xlink:href="#m13423ba4a8" y="64.504435"/>
     <use style="fill:#d95f02;fill-opacity:0.8;stroke:#d95f02;stroke-opacity:0.8;" x="129.986866" xlink:href="#m13423ba4a8" y="72.309724"/>
     <use style="fill:#d95f02;fill-opacity:0.8;stroke:#d95f02;stroke-opacity:0.8;" x="108.214102" xlink:href="#m13423ba4a8" y="81.204123"/>
     <use style="fill:#d95f02;fill-opacity:0.8;stroke:#d95f02;stroke-opacity:0.8;" x="93.13248" xlink:href="#m13423ba4a8" y="88.192579"/>
     <use style="fill:#d95f02;fill-opacity:0.8;stroke:#d95f02;stroke-opacity:0.8;" x="86.016503" xlink:href="#m13423ba4a8" y="84.743731"/>
     <use style="fill:#d95f02;fill-opacity:0.8;stroke:#d95f02;stroke-opacity:0.8;" x="68.598292" xlink:href="#m13423ba4a8" y="81.294882"/>
     <use style="fill:#d95f02;fill-opacity:0.8;stroke:#d95f02;stroke-opacity:0.8;" x="63.287861" xlink:href="#m13423ba4a8" y="84.652971"/>
     <use style="fill:#d95f02;fill-opacity:0.8;stroke:#d95f02;stroke-opacity:0.8;" x="59.676769" xlink:href="#m13423ba4a8" y="92.276742"/>
     <use style="fill:#d95f02;fill-opacity:0.8;stroke:#d95f02;stroke-opacity:0.8;" x="59.57056" xlink:href="#m13423ba4a8" y="81.204123"/>
     <use style="fill:#d95f02;fill-opacity:0.8;stroke:#d95f02;stroke-opacity:0.8;" x="58.720891" xlink:href="#m13423ba4a8" y="93.910407"/>
     <use style="fill:#d95f02;fill-opacity:0.8;stroke:#d95f02;stroke-opacity:0.8;" x="59.251934" xlink:href="#m13423ba4a8" y="105.436822"/>
     <use style="fill:#d95f02;fill-opacity:0.8;stroke:#d95f02;stroke-opacity:0.8;" x="59.57056" xlink:href="#m13423ba4a8" y="105.981377"/>
     <use style="fill:#d95f02;fill-opacity:0.8;stroke:#d95f02;stroke-opacity:0.8;" x="64.774782" xlink:href="#m13423ba4a8" y="96.360905"/>
     <use style="fill:#d95f02;fill-opacity:0.8;stroke:#d95f02;stroke-opacity:0.8;" x="104.390592" xlink:href="#m13423ba4a8" y="90.915354"/>
     <use style="fill:#d95f02;fill-opacity:0.8;stroke:#d95f02;stroke-opacity:0.8;" x="172.045475" xlink:href="#m13423ba4a8" y="75.304776"/>
     <use style="fill:#d95f02;fill-opacity:0.8;stroke:#d95f02;stroke-opacity:0.8;" x="167.159879" xlink:href="#m13423ba4a8" y="68.951634"/>
     <use style="fill:#d95f02;fill-opacity:0.8;stroke:#d95f02;stroke-opacity:0.8;" x="153.458968" xlink:href="#m13423ba4a8" y="76.303127"/>
     <use style="fill:#d95f02;fill-opacity:0.8;stroke:#d95f02;stroke-opacity:0.8;" x="132.74829" xlink:href="#m13423ba4a8" y="72.854279"/>
     <use style="fill:#d95f02;fill-opacity:0.8;stroke:#d95f02;stroke-opacity:0.8;" x="143.581568" xlink:href="#m13423ba4a8" y="69.768467"/>
     <use style="fill:#d95f02;fill-opacity:0.8;stroke:#d95f02;stroke-opacity:0.8;" x="140.289101" xlink:href="#m13423ba4a8" y="71.311373"/>
     <use style="fill:#d95f02;fill-opacity:0.8;stroke:#d95f02;stroke-opacity:0.8;" x="138.589764" xlink:href="#m13423ba4a8" y="66.773414"/>
     <use style="fill:#d95f02;fill-opacity:0.8;stroke:#d95f02;stroke-opacity:0.8;" x="141.457396" xlink:href="#m13423ba4a8" y="65.139749"/>
     <use style="fill:#d95f02;fill-opacity:0.8;stroke:#d95f02;stroke-opacity:0.8;" x="136.146966" xlink:href="#m13423ba4a8" y="60.692549"/>
     <use style="fill:#d95f02;fill-opacity:0.8;stroke:#d95f02;stroke-opacity:0.8;" x="137.952512" xlink:href="#m13423ba4a8" y="66.1381"/>
     <use style="fill:#d95f02;fill-opacity:0.8;stroke:#d95f02;stroke-opacity:0.8;" x="135.82834" xlink:href="#m13423ba4a8" y="72.76352"/>
     <use style="fill:#d95f02;fill-opacity:0.8;stroke:#d95f02;stroke-opacity:0.8;" x="135.722131" xlink:href="#m13423ba4a8" y="70.040744"/>
     <use style="fill:#d95f02;fill-opacity:0.8;stroke:#d95f02;stroke-opacity:0.8;" x="114.692827" xlink:href="#m13423ba4a8" y="76.484646"/>
     <use style="fill:#d95f02;fill-opacity:0.8;stroke:#d95f02;stroke-opacity:0.8;" x="97.593241" xlink:href="#m13423ba4a8" y="74.215666"/>
     <use style="fill:#d95f02;fill-opacity:0.8;stroke:#d95f02;stroke-opacity:0.8;" x="87.397215" xlink:href="#m13423ba4a8" y="77.573756"/>
     <use style="fill:#d95f02;fill-opacity:0.8;stroke:#d95f02;stroke-opacity:0.8;" x="69.979004" xlink:href="#m13423ba4a8" y="77.301478"/>
     <use style="fill:#d95f02;fill-opacity:0.8;stroke:#d95f02;stroke-opacity:0.8;" x="63.181653" xlink:href="#m13423ba4a8" y="90.28004"/>
     <use style="fill:#d95f02;fill-opacity:0.8;stroke:#d95f02;stroke-opacity:0.8;" x="61.269898" xlink:href="#m13423ba4a8" y="98.539125"/>
     <use style="fill:#d95f02;fill-opacity:0.8;stroke:#d95f02;stroke-opacity:0.8;" x="59.889186" xlink:href="#m13423ba4a8" y="95.181036"/>
     <use style="fill:#d95f02;fill-opacity:0.8;stroke:#d95f02;stroke-opacity:0.8;" x="59.251934" xlink:href="#m13423ba4a8" y="100.898864"/>
     <use style="fill:#d95f02;fill-opacity:0.8;stroke:#d95f02;stroke-opacity:0.8;" x="58.402266" xlink:href="#m13423ba4a8" y="103.893916"/>
     <use style="fill:#d95f02;fill-opacity:0.8;stroke:#d95f02;stroke-opacity:0.8;" x="59.57056" xlink:href="#m13423ba4a8" y="103.53088"/>
     <use style="fill:#d95f02;fill-opacity:0.8;stroke:#d95f02;stroke-opacity:0.8;" x="65.093408" xlink:href="#m13423ba4a8" y="102.986325"/>
     <use style="fill:#d95f02;fill-opacity:0.8;stroke:#d95f02;stroke-opacity:0.8;" x="104.390592" xlink:href="#m13423ba4a8" y="101.2619"/>
     <use style="fill:#d95f02;fill-opacity:0.8;stroke:#d95f02;stroke-opacity:0.8;" x="175.868984" xlink:href="#m13423ba4a8" y="81.204123"/>
     <use style="fill:#d95f02;fill-opacity:0.8;stroke:#d95f02;stroke-opacity:0.8;" x="159.40665" xlink:href="#m13423ba4a8" y="65.502786"/>
     <use style="fill:#d95f02;fill-opacity:0.8;stroke:#d95f02;stroke-opacity:0.8;" x="144.21882" xlink:href="#m13423ba4a8" y="65.139749"/>
     <use style="fill:#d95f02;fill-opacity:0.8;stroke:#d95f02;stroke-opacity:0.8;" x="132.217247" xlink:href="#m13423ba4a8" y="70.131503"/>
     <use style="fill:#d95f02;fill-opacity:0.8;stroke:#d95f02;stroke-opacity:0.8;" x="146.874035" xlink:href="#m13423ba4a8" y="65.139749"/>
     <use style="fill:#d95f02;fill-opacity:0.8;stroke:#d95f02;stroke-opacity:0.8;" x="144.96228" xlink:href="#m13423ba4a8" y="63.052288"/>
     <use style="fill:#d95f02;fill-opacity:0.8;stroke:#d95f02;stroke-opacity:0.8;" x="144.749863" xlink:href="#m13423ba4a8" y="61.600141"/>
     <use style="fill:#d95f02;fill-opacity:0.8;stroke:#d95f02;stroke-opacity:0.8;" x="142.307065" xlink:href="#m13423ba4a8" y="59.603439"/>
     <use style="fill:#d95f02;fill-opacity:0.8;stroke:#d95f02;stroke-opacity:0.8;" x="136.359383" xlink:href="#m13423ba4a8" y="63.233806"/>
     <use style="fill:#d95f02;fill-opacity:0.8;stroke:#d95f02;stroke-opacity:0.8;" x="110.6569" xlink:href="#m13423ba4a8" y="68.31632"/>
     <use style="fill:#d95f02;fill-opacity:0.8;stroke:#d95f02;stroke-opacity:0.8;" x="102.054003" xlink:href="#m13423ba4a8" y="55.610036"/>
     <use style="fill:#d95f02;fill-opacity:0.8;stroke:#d95f02;stroke-opacity:0.8;" x="93.769732" xlink:href="#m13423ba4a8" y="74.760221"/>
     <use style="fill:#d95f02;fill-opacity:0.8;stroke:#d95f02;stroke-opacity:0.8;" x="69.660378" xlink:href="#m13423ba4a8" y="65.956581"/>
     <use style="fill:#d95f02;fill-opacity:0.8;stroke:#d95f02;stroke-opacity:0.8;" x="64.031322" xlink:href="#m13423ba4a8" y="84.380694"/>
     <use style="fill:#d95f02;fill-opacity:0.8;stroke:#d95f02;stroke-opacity:0.8;" x="61.163689" xlink:href="#m13423ba4a8" y="93.456611"/>
     <use style="fill:#d95f02;fill-opacity:0.8;stroke:#d95f02;stroke-opacity:0.8;" x="59.57056" xlink:href="#m13423ba4a8" y="95.997868"/>
     <use style="fill:#d95f02;fill-opacity:0.8;stroke:#d95f02;stroke-opacity:0.8;" x="59.889186" xlink:href="#m13423ba4a8" y="96.179386"/>
     <use style="fill:#d95f02;fill-opacity:0.8;stroke:#d95f02;stroke-opacity:0.8;" x="58.720891" xlink:href="#m13423ba4a8" y="98.085329"/>
     <use style="fill:#d95f02;fill-opacity:0.8;stroke:#d95f02;stroke-opacity:0.8;" x="59.039517" xlink:href="#m13423ba4a8" y="98.266847"/>
     <use style="fill:#d95f02;fill-opacity:0.8;stroke:#d95f02;stroke-opacity:0.8;" x="61.588524" xlink:href="#m13423ba4a8" y="104.892267"/>
     <use style="fill:#d95f02;fill-opacity:0.8;stroke:#d95f02;stroke-opacity:0.8;" x="76.032894" xlink:href="#m13423ba4a8" y="105.073786"/>
     <use style="fill:#d95f02;fill-opacity:0.8;stroke:#d95f02;stroke-opacity:0.8;" x="98.973953" xlink:href="#m13423ba4a8" y="111.789964"/>
     <use style="fill:#d95f02;fill-opacity:0.8;stroke:#d95f02;stroke-opacity:0.8;" x="89.202761" xlink:href="#m13423ba4a8" y="103.44012"/>
     <use style="fill:#d95f02;fill-opacity:0.8;stroke:#d95f02;stroke-opacity:0.8;" x="97.69945" xlink:href="#m13423ba4a8" y="96.270146"/>
     <use style="fill:#d95f02;fill-opacity:0.8;stroke:#d95f02;stroke-opacity:0.8;" x="119.366006" xlink:href="#m13423ba4a8" y="86.921951"/>
     <use style="fill:#d95f02;fill-opacity:0.8;stroke:#d95f02;stroke-opacity:0.8;" x="126.800608" xlink:href="#m13423ba4a8" y="67.499487"/>
     <use style="fill:#d95f02;fill-opacity:0.8;stroke:#d95f02;stroke-opacity:0.8;" x="131.473787" xlink:href="#m13423ba4a8" y="58.877366"/>
     <use style="fill:#d95f02;fill-opacity:0.8;stroke:#d95f02;stroke-opacity:0.8;" x="124.039184" xlink:href="#m13423ba4a8" y="57.062182"/>
     <use style="fill:#d95f02;fill-opacity:0.8;stroke:#d95f02;stroke-opacity:0.8;" x="123.720559" xlink:href="#m13423ba4a8" y="66.682655"/>
     <use style="fill:#d95f02;fill-opacity:0.8;stroke:#d95f02;stroke-opacity:0.8;" x="121.065343" xlink:href="#m13423ba4a8" y="76.03085"/>
     <use style="fill:#d95f02;fill-opacity:0.8;stroke:#d95f02;stroke-opacity:0.8;" x="125.10127" xlink:href="#m13423ba4a8" y="76.212368"/>
     <use style="fill:#d95f02;fill-opacity:0.8;stroke:#d95f02;stroke-opacity:0.8;" x="108.426519" xlink:href="#m13423ba4a8" y="79.29818"/>
     <use style="fill:#d95f02;fill-opacity:0.8;stroke:#d95f02;stroke-opacity:0.8;" x="93.238689" xlink:href="#m13423ba4a8" y="79.29818"/>
     <use style="fill:#d95f02;fill-opacity:0.8;stroke:#d95f02;stroke-opacity:0.8;" x="90.689682" xlink:href="#m13423ba4a8" y="77.392237"/>
     <use style="fill:#d95f02;fill-opacity:0.8;stroke:#d95f02;stroke-opacity:0.8;" x="65.836868" xlink:href="#m13423ba4a8" y="85.016008"/>
     <use style="fill:#d95f02;fill-opacity:0.8;stroke:#d95f02;stroke-opacity:0.8;" x="63.181653" xlink:href="#m13423ba4a8" y="82.56551"/>
     <use style="fill:#d95f02;fill-opacity:0.8;stroke:#d95f02;stroke-opacity:0.8;" x="59.464352" xlink:href="#m13423ba4a8" y="94.545721"/>
     <use style="fill:#d95f02;fill-opacity:0.8;stroke:#d95f02;stroke-opacity:0.8;" x="58.933309" xlink:href="#m13423ba4a8" y="99.537476"/>
     <use style="fill:#d95f02;fill-opacity:0.8;stroke:#d95f02;stroke-opacity:0.8;" x="58.508474" xlink:href="#m13423ba4a8" y="100.626586"/>
     <use style="fill:#d95f02;fill-opacity:0.8;stroke:#d95f02;stroke-opacity:0.8;" x="59.358143" xlink:href="#m13423ba4a8" y="104.166194"/>
     <use style="fill:#d95f02;fill-opacity:0.8;stroke:#d95f02;stroke-opacity:0.8;" x="58.720891" xlink:href="#m13423ba4a8" y="99.08368"/>
     <use style="fill:#d95f02;fill-opacity:0.8;stroke:#d95f02;stroke-opacity:0.8;" x="59.676769" xlink:href="#m13423ba4a8" y="104.61999"/>
     <use style="fill:#d95f02;fill-opacity:0.8;stroke:#d95f02;stroke-opacity:0.8;" x="67.005163" xlink:href="#m13423ba4a8" y="107.252006"/>
     <use style="fill:#d95f02;fill-opacity:0.8;stroke:#d95f02;stroke-opacity:0.8;" x="81.66195" xlink:href="#m13423ba4a8" y="94.545721"/>
     <use style="fill:#d95f02;fill-opacity:0.8;stroke:#d95f02;stroke-opacity:0.8;" x="72.634219" xlink:href="#m13423ba4a8" y="98.539125"/>
     <use style="fill:#d95f02;fill-opacity:0.8;stroke:#d95f02;stroke-opacity:0.8;" x="72.421802" xlink:href="#m13423ba4a8" y="89.463208"/>
     <use style="fill:#d95f02;fill-opacity:0.8;stroke:#d95f02;stroke-opacity:0.8;" x="81.024699" xlink:href="#m13423ba4a8" y="88.737134"/>
     <use style="fill:#d95f02;fill-opacity:0.8;stroke:#d95f02;stroke-opacity:0.8;" x="90.05243" xlink:href="#m13423ba4a8" y="75.032499"/>
     <use style="fill:#d95f02;fill-opacity:0.8;stroke:#d95f02;stroke-opacity:0.8;" x="93.663523" xlink:href="#m13423ba4a8" y="56.699146"/>
     <use style="fill:#d95f02;fill-opacity:0.8;stroke:#d95f02;stroke-opacity:0.8;" x="100.354665" xlink:href="#m13423ba4a8" y="59.966476"/>
     <use style="fill:#d95f02;fill-opacity:0.8;stroke:#d95f02;stroke-opacity:0.8;" x="107.470642" xlink:href="#m13423ba4a8" y="65.04899"/>
     <use style="fill:#d95f02;fill-opacity:0.8;stroke:#d95f02;stroke-opacity:0.8;" x="104.496801" xlink:href="#m13423ba4a8" y="66.773414"/>
     <use style="fill:#d95f02;fill-opacity:0.8;stroke:#d95f02;stroke-opacity:0.8;" x="110.019648" xlink:href="#m13423ba4a8" y="78.027552"/>
     <use style="fill:#d95f02;fill-opacity:0.8;stroke:#d95f02;stroke-opacity:0.8;" x="112.781072" xlink:href="#m13423ba4a8" y="70.403781"/>
     <use style="fill:#d95f02;fill-opacity:0.8;stroke:#d95f02;stroke-opacity:0.8;" x="112.568655" xlink:href="#m13423ba4a8" y="68.31632"/>
     <use style="fill:#d95f02;fill-opacity:0.8;stroke:#d95f02;stroke-opacity:0.8;" x="100.460874" xlink:href="#m13423ba4a8" y="64.322916"/>
     <use style="fill:#d95f02;fill-opacity:0.8;stroke:#d95f02;stroke-opacity:0.8;" x="90.05243" xlink:href="#m13423ba4a8" y="68.770116"/>
     <use style="fill:#d95f02;fill-opacity:0.8;stroke:#d95f02;stroke-opacity:0.8;" x="84.529583" xlink:href="#m13423ba4a8" y="74.124907"/>
     <use style="fill:#d95f02;fill-opacity:0.8;stroke:#d95f02;stroke-opacity:0.8;" x="63.818904" xlink:href="#m13423ba4a8" y="88.464857"/>
     <use style="fill:#d95f02;fill-opacity:0.8;stroke:#d95f02;stroke-opacity:0.8;" x="60.951272" xlink:href="#m13423ba4a8" y="81.385641"/>
     <use style="fill:#d95f02;fill-opacity:0.8;stroke:#d95f02;stroke-opacity:0.8;" x="60.207812" xlink:href="#m13423ba4a8" y="73.943389"/>
    </g>
   </g>
   <g id="PolyCollection_1">
    <defs>
     <path d="M 52.5275 -90.461934 
L 52.5275 -85.193179 
L 53.832715 -85.618445 
L 55.137929 -86.034327 
L 56.443144 -86.440081 
L 57.748359 -86.845998 
L 59.053573 -87.251914 
L 60.358788 -87.667694 
L 61.664003 -88.117787 
L 62.969217 -88.552069 
L 64.274432 -89.00356 
L 65.579646 -89.428067 
L 66.884861 -89.855174 
L 68.190076 -90.284683 
L 69.49529 -90.720539 
L 70.800505 -91.145872 
L 72.10572 -91.564873 
L 73.410934 -92.005396 
L 74.716149 -92.41441 
L 76.021364 -92.850744 
L 77.326578 -93.287502 
L 78.631793 -93.72429 
L 79.937008 -94.137792 
L 81.242222 -94.589122 
L 82.547437 -94.991919 
L 83.852652 -95.377215 
L 85.157866 -95.782527 
L 86.463081 -96.161923 
L 87.768295 -96.580189 
L 89.07351 -97.022407 
L 90.378725 -97.443232 
L 91.683939 -97.880565 
L 92.989154 -98.285407 
L 94.294369 -98.687232 
L 95.599583 -99.084367 
L 96.904798 -99.482153 
L 98.210013 -99.869176 
L 99.515227 -100.236398 
L 100.820442 -100.639298 
L 102.125657 -101.02855 
L 103.430871 -101.396272 
L 104.736086 -101.79296 
L 106.041301 -102.190161 
L 107.346515 -102.585664 
L 108.65173 -102.967932 
L 109.956944 -103.364677 
L 111.262159 -103.754255 
L 112.567374 -104.116678 
L 113.872588 -104.561185 
L 115.177803 -104.933047 
L 116.483018 -105.289761 
L 117.788232 -105.653536 
L 119.093447 -106.027031 
L 120.398662 -106.412876 
L 121.703876 -106.737106 
L 123.009091 -107.096675 
L 124.314306 -107.45574 
L 125.61952 -107.845118 
L 126.924735 -108.190742 
L 128.229949 -108.536366 
L 129.535164 -108.8931 
L 130.840379 -109.26987 
L 132.145593 -109.612039 
L 133.450808 -109.946125 
L 134.756023 -110.27252 
L 136.061237 -110.621013 
L 137.366452 -110.975942 
L 138.671667 -111.33016 
L 139.976881 -111.674809 
L 141.282096 -112.035103 
L 142.587311 -112.359225 
L 143.892525 -112.72534 
L 145.19774 -113.067978 
L 146.502955 -113.415976 
L 147.808169 -113.741388 
L 149.113384 -114.09865 
L 150.418598 -114.437526 
L 151.723813 -114.778009 
L 153.029028 -115.156532 
L 154.334242 -115.491492 
L 155.639457 -115.813395 
L 156.944672 -116.140485 
L 158.249886 -116.489866 
L 159.555101 -116.839322 
L 160.860316 -117.188825 
L 162.16553 -117.538518 
L 163.470745 -117.888275 
L 164.77596 -118.237902 
L 166.081174 -118.589139 
L 167.386389 -118.936874 
L 168.691604 -119.286282 
L 169.996818 -119.636091 
L 171.302033 -119.999013 
L 172.607247 -120.362607 
L 173.912462 -120.717479 
L 175.217677 -121.07235 
L 176.522891 -121.427365 
L 177.828106 -121.786677 
L 179.133321 -122.1365 
L 180.438535 -122.476601 
L 181.74375 -122.832706 
L 181.74375 -130.348266 
L 181.74375 -130.348266 
L 180.438535 -129.889451 
L 179.133321 -129.45776 
L 177.828106 -129.026385 
L 176.522891 -128.574655 
L 175.217677 -128.122766 
L 173.912462 -127.670876 
L 172.607247 -127.228487 
L 171.302033 -126.789431 
L 169.996818 -126.350376 
L 168.691604 -125.911191 
L 167.386389 -125.471593 
L 166.081174 -125.028214 
L 164.77596 -124.560695 
L 163.470745 -124.119139 
L 162.16553 -123.67208 
L 160.860316 -123.203966 
L 159.555101 -122.735658 
L 158.249886 -122.26735 
L 156.944672 -121.799042 
L 155.639457 -121.343468 
L 154.334242 -120.90326 
L 153.029028 -120.463052 
L 151.723813 -120.055425 
L 150.418598 -119.655348 
L 149.113384 -119.212175 
L 147.808169 -118.763904 
L 146.502955 -118.325281 
L 145.19774 -117.903643 
L 143.892525 -117.482005 
L 142.587311 -117.059617 
L 141.282096 -116.634303 
L 139.976881 -116.204833 
L 138.671667 -115.747142 
L 137.366452 -115.324743 
L 136.061237 -114.887714 
L 134.756023 -114.488808 
L 133.450808 -114.074678 
L 132.145593 -113.646213 
L 130.840379 -113.1921 
L 129.535164 -112.757826 
L 128.229949 -112.327085 
L 126.924735 -111.91197 
L 125.61952 -111.491732 
L 124.314306 -111.07744 
L 123.009091 -110.663148 
L 121.703876 -110.248849 
L 120.398662 -109.816 
L 119.093447 -109.411487 
L 117.788232 -108.982057 
L 116.483018 -108.568465 
L 115.177803 -108.159439 
L 113.872588 -107.75491 
L 112.567374 -107.349615 
L 111.262159 -106.935649 
L 109.956944 -106.532299 
L 108.65173 -106.132007 
L 107.346515 -105.736824 
L 106.041301 -105.337294 
L 104.736086 -104.942966 
L 103.430871 -104.540822 
L 102.125657 -104.139672 
L 100.820442 -103.745304 
L 99.515227 -103.356682 
L 98.210013 -102.963616 
L 96.904798 -102.599918 
L 95.599583 -102.244518 
L 94.294369 -101.877993 
L 92.989154 -101.503093 
L 91.683939 -101.148755 
L 90.378725 -100.774659 
L 89.07351 -100.3934 
L 87.768295 -100.043206 
L 86.463081 -99.694938 
L 85.157866 -99.363462 
L 83.852652 -98.973593 
L 82.547437 -98.627404 
L 81.242222 -98.278811 
L 79.937008 -97.907172 
L 78.631793 -97.551664 
L 77.326578 -97.189675 
L 76.021364 -96.821843 
L 74.716149 -96.45401 
L 73.410934 -96.091954 
L 72.10572 -95.762985 
L 70.800505 -95.420741 
L 69.49529 -95.076712 
L 68.190076 -94.738642 
L 66.884861 -94.381785 
L 65.579646 -94.023937 
L 64.274432 -93.657552 
L 62.969217 -93.289808 
L 61.664003 -92.934435 
L 60.358788 -92.5743 
L 59.053573 -92.237099 
L 57.748359 -91.892221 
L 56.443144 -91.530849 
L 55.137929 -91.168382 
L 53.832715 -90.808647 
L 52.5275 -90.461934 
z
" id="m238c2e41b9" style="stroke:#ffffff;stroke-opacity:0.15;"/>
    </defs>
    <g clip-path="url(#pb8d0b9139a)">
     <use style="fill:#d95f02;fill-opacity:0.15;stroke:#ffffff;stroke-opacity:0.15;" x="0" xlink:href="#m238c2e41b9" y="183.38875"/>
    </g>
   </g>
   <g id="line2d_1">
    <path clip-path="url(#pb8d0b9139a)" d="M 52.5275 95.484748 
L 53.832715 95.09657 
L 55.137929 94.708392 
L 56.443144 94.320214 
L 57.748359 93.932036 
L 59.053573 93.543858 
L 60.358788 93.15568 
L 61.664003 92.767502 
L 62.969217 92.379324 
L 64.274432 91.991146 
L 65.579646 91.602969 
L 66.884861 91.214791 
L 68.190076 90.826613 
L 69.49529 90.438435 
L 70.800505 90.050257 
L 72.10572 89.662079 
L 73.410934 89.273901 
L 74.716149 88.885723 
L 76.021364 88.497545 
L 77.326578 88.109367 
L 78.631793 87.721189 
L 79.937008 87.333012 
L 81.242222 86.944834 
L 82.547437 86.556656 
L 83.852652 86.168478 
L 85.157866 85.7803 
L 86.463081 85.392122 
L 87.768295 85.003944 
L 89.07351 84.615766 
L 90.378725 84.227588 
L 91.683939 83.83941 
L 92.989154 83.451232 
L 94.294369 83.063055 
L 95.599583 82.674877 
L 96.904798 82.286699 
L 98.210013 81.898521 
L 99.515227 81.510343 
L 100.820442 81.122165 
L 102.125657 80.733987 
L 103.430871 80.345809 
L 104.736086 79.957631 
L 106.041301 79.569453 
L 107.346515 79.181276 
L 108.65173 78.793098 
L 109.956944 78.40492 
L 111.262159 78.016742 
L 112.567374 77.628564 
L 113.872588 77.240386 
L 115.177803 76.852208 
L 116.483018 76.46403 
L 117.788232 76.075852 
L 119.093447 75.687674 
L 120.398662 75.299496 
L 121.703876 74.911319 
L 123.009091 74.523141 
L 124.314306 74.134963 
L 125.61952 73.746785 
L 126.924735 73.358607 
L 128.229949 72.970429 
L 129.535164 72.582251 
L 130.840379 72.194073 
L 132.145593 71.805895 
L 133.450808 71.417717 
L 134.756023 71.02954 
L 136.061237 70.641362 
L 137.366452 70.253184 
L 138.671667 69.865006 
L 139.976881 69.476828 
L 141.282096 69.08865 
L 142.587311 68.700472 
L 143.892525 68.312294 
L 145.19774 67.924116 
L 146.502955 67.535938 
L 147.808169 67.14776 
L 149.113384 66.759583 
L 150.418598 66.371405 
L 151.723813 65.983227 
L 153.029028 65.595049 
L 154.334242 65.206871 
L 155.639457 64.818693 
L 156.944672 64.430515 
L 158.249886 64.042337 
L 159.555101 63.654159 
L 160.860316 63.265981 
L 162.16553 62.877804 
L 163.470745 62.489626 
L 164.77596 62.101448 
L 166.081174 61.71327 
L 167.386389 61.325092 
L 168.691604 60.936914 
L 169.996818 60.548736 
L 171.302033 60.160558 
L 172.607247 59.77238 
L 173.912462 59.384202 
L 175.217677 58.996024 
L 176.522891 58.607847 
L 177.828106 58.219669 
L 179.133321 57.831491 
L 180.438535 57.443313 
L 181.74375 57.055135 
" style="fill:none;stroke:#d95f02;stroke-linecap:round;stroke-width:2.25;"/>
   </g>
   <g id="patch_3">
    <path d="M 52.5275 143.24 
L 52.5275 24.16 
" style="fill:none;stroke:#262626;stroke-linecap:square;stroke-linejoin:miter;stroke-width:0.8;"/>
   </g>
   <g id="patch_4">
    <path d="M 52.5275 143.24 
L 181.74375 143.24 
" style="fill:none;stroke:#262626;stroke-linecap:square;stroke-linejoin:miter;stroke-width:0.8;"/>
   </g>
   <g id="text_9">
    <!-- $r_P$ = 0.73, $r_S$ = 0.74 -->
    <defs>
     <path d="M 44.578125 46.390625 
Q 43.21875 47.125 41.453125 47.515625 
Q 39.703125 47.90625 37.703125 47.90625 
Q 30.515625 47.90625 25.140625 42.453125 
Q 19.78125 37.015625 18.015625 27.875 
L 12.5 0 
L 3.515625 0 
L 14.203125 54.6875 
L 23.1875 54.6875 
L 21.484375 46.1875 
Q 25.046875 50.921875 30 53.453125 
Q 34.96875 56 40.578125 56 
Q 42.046875 56 43.453125 55.828125 
Q 44.875 55.671875 46.296875 55.28125 
z
" id="DejaVuSans-Oblique-114"/>
     <path d="M 16.890625 72.90625 
L 39.703125 72.90625 
Q 49.65625 72.90625 54.875 68.265625 
Q 60.109375 63.625 60.109375 54.6875 
Q 60.109375 42.671875 52.390625 35.984375 
Q 44.671875 29.296875 30.71875 29.296875 
L 18.3125 29.296875 
L 12.59375 0 
L 2.6875 0 
z
M 25.203125 64.796875 
L 19.921875 37.40625 
L 32.328125 37.40625 
Q 40.71875 37.40625 45.203125 41.703125 
Q 49.703125 46 49.703125 54 
Q 49.703125 59.125 46.65625 61.953125 
Q 43.609375 64.796875 38.09375 64.796875 
z
" id="DejaVuSans-Oblique-80"/>
     <path id="ArialMT-32"/>
     <path d="M 52.828125 42.09375 
L 5.5625 42.09375 
L 5.5625 50.296875 
L 52.828125 50.296875 
z
M 52.828125 20.359375 
L 5.5625 20.359375 
L 5.5625 28.5625 
L 52.828125 28.5625 
z
" id="ArialMT-61"/>
     <path d="M 4.734375 62.203125 
L 4.734375 70.65625 
L 51.078125 70.65625 
L 51.078125 63.8125 
Q 44.234375 56.546875 37.515625 44.484375 
Q 30.8125 32.421875 27.15625 19.671875 
Q 24.515625 10.6875 23.78125 0 
L 14.75 0 
Q 14.890625 8.453125 18.0625 20.40625 
Q 21.234375 32.375 27.171875 43.484375 
Q 33.109375 54.59375 39.796875 62.203125 
z
" id="ArialMT-55"/>
     <path d="M 4.203125 18.890625 
L 12.984375 20.0625 
Q 14.5 12.59375 18.140625 9.296875 
Q 21.78125 6 27 6 
Q 33.203125 6 37.46875 10.296875 
Q 41.75 14.59375 41.75 20.953125 
Q 41.75 27 37.796875 30.921875 
Q 33.84375 34.859375 27.734375 34.859375 
Q 25.25 34.859375 21.53125 33.890625 
L 22.515625 41.609375 
Q 23.390625 41.5 23.921875 41.5 
Q 29.546875 41.5 34.03125 44.421875 
Q 38.53125 47.359375 38.53125 53.46875 
Q 38.53125 58.296875 35.25 61.46875 
Q 31.984375 64.65625 26.8125 64.65625 
Q 21.6875 64.65625 18.265625 61.421875 
Q 14.84375 58.203125 13.875 51.765625 
L 5.078125 53.328125 
Q 6.6875 62.15625 12.390625 67.015625 
Q 18.109375 71.875 26.609375 71.875 
Q 32.46875 71.875 37.390625 69.359375 
Q 42.328125 66.84375 44.9375 62.5 
Q 47.5625 58.15625 47.5625 53.265625 
Q 47.5625 48.640625 45.0625 44.828125 
Q 42.578125 41.015625 37.703125 38.765625 
Q 44.046875 37.3125 47.5625 32.6875 
Q 51.078125 28.078125 51.078125 21.140625 
Q 51.078125 11.765625 44.234375 5.25 
Q 37.40625 -1.265625 26.953125 -1.265625 
Q 17.53125 -1.265625 11.296875 4.34375 
Q 5.078125 9.96875 4.203125 18.890625 
z
" id="ArialMT-51"/>
     <path d="M 8.890625 0 
L 8.890625 10.015625 
L 18.890625 10.015625 
L 18.890625 0 
Q 18.890625 -5.515625 16.9375 -8.90625 
Q 14.984375 -12.3125 10.75 -14.15625 
L 8.296875 -10.40625 
Q 11.078125 -9.1875 12.390625 -6.8125 
Q 13.71875 -4.4375 13.875 0 
z
" id="ArialMT-44"/>
     <path d="M 60.296875 70.515625 
L 58.40625 60.890625 
Q 53.46875 63.53125 48.609375 64.875 
Q 43.75 66.21875 39.203125 66.21875 
Q 30.375 66.21875 25.140625 62.359375 
Q 19.921875 58.5 19.921875 52.09375 
Q 19.921875 48.578125 21.84375 46.703125 
Q 23.78125 44.828125 31.78125 42.671875 
L 37.703125 41.21875 
Q 47.703125 38.625 51.609375 34.640625 
Q 55.515625 30.671875 55.515625 23.484375 
Q 55.515625 12.453125 46.84375 5.515625 
Q 38.1875 -1.421875 24.03125 -1.421875 
Q 18.21875 -1.421875 12.359375 -0.265625 
Q 6.5 0.875 0.59375 3.21875 
L 2.59375 13.375 
Q 8.015625 10.015625 13.453125 8.296875 
Q 18.890625 6.59375 24.3125 6.59375 
Q 33.546875 6.59375 39.109375 10.6875 
Q 44.671875 14.796875 44.671875 21.390625 
Q 44.671875 25.78125 42.453125 28.046875 
Q 40.234375 30.328125 32.90625 32.171875 
L 27 33.6875 
Q 16.890625 36.328125 13.203125 39.765625 
Q 9.515625 43.21875 9.515625 49.421875 
Q 9.515625 60.296875 17.890625 67.25 
Q 26.265625 74.21875 39.703125 74.21875 
Q 44.921875 74.21875 50.046875 73.28125 
Q 55.171875 72.359375 60.296875 70.515625 
z
" id="DejaVuSans-Oblique-83"/>
    </defs>
    <g style="fill:#262626;" transform="translate(65.449125 36.068)scale(0.12 -0.12)">
     <use transform="translate(0 0.125)" xlink:href="#DejaVuSans-Oblique-114"/>
     <use transform="translate(41.113281 -16.28125)scale(0.7)" xlink:href="#DejaVuSans-Oblique-80"/>
     <use transform="translate(86.05957 0.125)" xlink:href="#ArialMT-32"/>
     <use transform="translate(113.842773 0.125)" xlink:href="#ArialMT-61"/>
     <use transform="translate(172.241211 0.125)" xlink:href="#ArialMT-32"/>
     <use transform="translate(200.024414 0.125)" xlink:href="#ArialMT-48"/>
     <use transform="translate(255.639648 0.125)" xlink:href="#ArialMT-46"/>
     <use transform="translate(283.422852 0.125)" xlink:href="#ArialMT-55"/>
     <use transform="translate(339.038086 0.125)" xlink:href="#ArialMT-51"/>
     <use transform="translate(394.65332 0.125)" xlink:href="#ArialMT-44"/>
     <use transform="translate(422.436523 0.125)" xlink:href="#ArialMT-32"/>
     <use transform="translate(450.219727 0.125)" xlink:href="#DejaVuSans-Oblique-114"/>
     <use transform="translate(491.333008 -16.28125)scale(0.7)" xlink:href="#DejaVuSans-Oblique-83"/>
     <use transform="translate(538.500977 0.125)" xlink:href="#ArialMT-32"/>
     <use transform="translate(566.28418 0.125)" xlink:href="#ArialMT-61"/>
     <use transform="translate(624.682617 0.125)" xlink:href="#ArialMT-32"/>
     <use transform="translate(652.46582 0.125)" xlink:href="#ArialMT-48"/>
     <use transform="translate(708.081055 0.125)" xlink:href="#ArialMT-46"/>
     <use transform="translate(735.864258 0.125)" xlink:href="#ArialMT-55"/>
     <use transform="translate(791.479492 0.125)" xlink:href="#ArialMT-52"/>
    </g>
   </g>
  </g>
  <g id="axes_2">
   <g id="patch_5">
    <path d="M 211.32875 143.24 
L 340.545 143.24 
L 340.545 24.16 
L 211.32875 24.16 
z
" style="fill:#ffffff;"/>
   </g>
   <g id="matplotlib.axis_3">
    <g id="xtick_4">
     <g id="text_10">
      <!-- 0 -->
      <g style="fill:#262626;" transform="translate(213.882363 158.829375)scale(0.12 -0.12)">
       <use xlink:href="#ArialMT-48"/>
      </g>
     </g>
    </g>
    <g id="xtick_5">
     <g id="text_11">
      <!-- 50 -->
      <g style="fill:#262626;" transform="translate(278.822486 158.829375)scale(0.12 -0.12)">
       <use xlink:href="#ArialMT-53"/>
       <use x="55.615234" xlink:href="#ArialMT-48"/>
      </g>
     </g>
    </g>
    <g id="text_12">
     <!-- 1947-211 -->
     <defs>
      <path d="M 5.46875 16.546875 
L 13.921875 17.328125 
Q 14.984375 11.375 18.015625 8.6875 
Q 21.046875 6 25.78125 6 
Q 29.828125 6 32.875 7.859375 
Q 35.9375 9.71875 37.890625 12.8125 
Q 39.84375 15.921875 41.15625 21.1875 
Q 42.484375 26.46875 42.484375 31.9375 
Q 42.484375 32.515625 42.4375 33.6875 
Q 39.796875 29.5 35.234375 26.875 
Q 30.671875 24.265625 25.34375 24.265625 
Q 16.453125 24.265625 10.296875 30.703125 
Q 4.15625 37.15625 4.15625 47.703125 
Q 4.15625 58.59375 10.578125 65.234375 
Q 17 71.875 26.65625 71.875 
Q 33.640625 71.875 39.421875 68.109375 
Q 45.21875 64.359375 48.21875 57.390625 
Q 51.21875 50.4375 51.21875 37.25 
Q 51.21875 23.53125 48.234375 15.40625 
Q 45.265625 7.28125 39.375 3.03125 
Q 33.5 -1.21875 25.59375 -1.21875 
Q 17.1875 -1.21875 11.859375 3.4375 
Q 6.546875 8.109375 5.46875 16.546875 
z
M 41.453125 48.140625 
Q 41.453125 55.71875 37.421875 60.15625 
Q 33.40625 64.59375 27.734375 64.59375 
Q 21.875 64.59375 17.53125 59.8125 
Q 13.1875 55.03125 13.1875 47.40625 
Q 13.1875 40.578125 17.3125 36.296875 
Q 21.4375 32.03125 27.484375 32.03125 
Q 33.59375 32.03125 37.515625 36.296875 
Q 41.453125 40.578125 41.453125 48.140625 
z
" id="ArialMT-57"/>
     </defs>
     <g style="fill:#262626;" transform="translate(250.589687 173.80375)scale(0.12 -0.12)">
      <use xlink:href="#ArialMT-49"/>
      <use x="55.615234" xlink:href="#ArialMT-57"/>
      <use x="111.230469" xlink:href="#ArialMT-52"/>
      <use x="166.845703" xlink:href="#ArialMT-55"/>
      <use x="222.460938" xlink:href="#ArialMT-45"/>
      <use x="255.761719" xlink:href="#ArialMT-50"/>
      <use x="311.376953" xlink:href="#ArialMT-49"/>
      <use x="366.882812" xlink:href="#ArialMT-49"/>
     </g>
    </g>
   </g>
   <g id="matplotlib.axis_4">
    <g id="ytick_4"/>
    <g id="ytick_5"/>
    <g id="ytick_6"/>
   </g>
   <g id="PathCollection_2">
    <g clip-path="url(#pe338500300)">
     <use style="fill:#d95f02;fill-opacity:0.8;stroke:#d95f02;stroke-opacity:0.8;" x="218.584459" xlink:href="#m13423ba4a8" y="73.36253"/>
     <use style="fill:#d95f02;fill-opacity:0.8;stroke:#d95f02;stroke-opacity:0.8;" x="219.949993" xlink:href="#m13423ba4a8" y="91.732187"/>
     <use style="fill:#d95f02;fill-opacity:0.8;stroke:#d95f02;stroke-opacity:0.8;" x="218.584459" xlink:href="#m13423ba4a8" y="88.10182"/>
     <use style="fill:#d95f02;fill-opacity:0.8;stroke:#d95f02;stroke-opacity:0.8;" x="218.584459" xlink:href="#m13423ba4a8" y="100.263549"/>
     <use style="fill:#d95f02;fill-opacity:0.8;stroke:#d95f02;stroke-opacity:0.8;" x="217.218925" xlink:href="#m13423ba4a8" y="103.077084"/>
     <use style="fill:#d95f02;fill-opacity:0.8;stroke:#d95f02;stroke-opacity:0.8;" x="222.68106" xlink:href="#m13423ba4a8" y="97.903811"/>
     <use style="fill:#d95f02;fill-opacity:0.8;stroke:#d95f02;stroke-opacity:0.8;" x="263.647072" xlink:href="#m13423ba4a8" y="90.370799"/>
     <use style="fill:#d95f02;fill-opacity:0.8;stroke:#d95f02;stroke-opacity:0.8;" x="263.647072" xlink:href="#m13423ba4a8" y="78.299829"/>
     <use style="fill:#d95f02;fill-opacity:0.8;stroke:#d95f02;stroke-opacity:0.8;" x="284.130077" xlink:href="#m13423ba4a8" y="65.684304"/>
     <use style="fill:#d95f02;fill-opacity:0.8;stroke:#d95f02;stroke-opacity:0.8;" x="267.743673" xlink:href="#m13423ba4a8" y="70.222263"/>
     <use style="fill:#d95f02;fill-opacity:0.8;stroke:#d95f02;stroke-opacity:0.8;" x="260.916004" xlink:href="#m13423ba4a8" y="63.324565"/>
     <use style="fill:#d95f02;fill-opacity:0.8;stroke:#d95f02;stroke-opacity:0.8;" x="299.150948" xlink:href="#m13423ba4a8" y="76.121609"/>
     <use style="fill:#d95f02;fill-opacity:0.8;stroke:#d95f02;stroke-opacity:0.8;" x="300.516482" xlink:href="#m13423ba4a8" y="61.600141"/>
     <use style="fill:#d95f02;fill-opacity:0.8;stroke:#d95f02;stroke-opacity:0.8;" x="316.902887" xlink:href="#m13423ba4a8" y="64.504435"/>
     <use style="fill:#d95f02;fill-opacity:0.8;stroke:#d95f02;stroke-opacity:0.8;" x="334.654825" xlink:href="#m13423ba4a8" y="62.78001"/>
     <use style="fill:#d95f02;fill-opacity:0.8;stroke:#d95f02;stroke-opacity:0.8;" x="331.923757" xlink:href="#m13423ba4a8" y="66.319618"/>
     <use style="fill:#d95f02;fill-opacity:0.8;stroke:#d95f02;stroke-opacity:0.8;" x="333.289291" xlink:href="#m13423ba4a8" y="62.507733"/>
     <use style="fill:#d95f02;fill-opacity:0.8;stroke:#d95f02;stroke-opacity:0.8;" x="282.764544" xlink:href="#m13423ba4a8" y="69.40543"/>
     <use style="fill:#d95f02;fill-opacity:0.8;stroke:#d95f02;stroke-opacity:0.8;" x="243.164066" xlink:href="#m13423ba4a8" y="73.671111"/>
     <use style="fill:#d95f02;fill-opacity:0.8;stroke:#d95f02;stroke-opacity:0.8;" x="239.067465" xlink:href="#m13423ba4a8" y="83.473102"/>
     <use style="fill:#d95f02;fill-opacity:0.8;stroke:#d95f02;stroke-opacity:0.8;" x="229.508729" xlink:href="#m13423ba4a8" y="84.471453"/>
     <use style="fill:#d95f02;fill-opacity:0.8;stroke:#d95f02;stroke-opacity:0.8;" x="228.143195" xlink:href="#m13423ba4a8" y="76.121609"/>
     <use style="fill:#d95f02;fill-opacity:0.8;stroke:#d95f02;stroke-opacity:0.8;" x="222.68106" xlink:href="#m13423ba4a8" y="91.36915"/>
     <use style="fill:#d95f02;fill-opacity:0.8;stroke:#d95f02;stroke-opacity:0.8;" x="217.218925" xlink:href="#m13423ba4a8" y="97.540774"/>
     <use style="fill:#d95f02;fill-opacity:0.8;stroke:#d95f02;stroke-opacity:0.8;" x="217.218925" xlink:href="#m13423ba4a8" y="94.091925"/>
     <use style="fill:#d95f02;fill-opacity:0.8;stroke:#d95f02;stroke-opacity:0.8;" x="219.949993" xlink:href="#m13423ba4a8" y="95.81635"/>
     <use style="fill:#d95f02;fill-opacity:0.8;stroke:#d95f02;stroke-opacity:0.8;" x="217.218925" xlink:href="#m13423ba4a8" y="97.359256"/>
     <use style="fill:#d95f02;fill-opacity:0.8;stroke:#d95f02;stroke-opacity:0.8;" x="217.218925" xlink:href="#m13423ba4a8" y="110.337818"/>
     <use style="fill:#d95f02;fill-opacity:0.8;stroke:#d95f02;stroke-opacity:0.8;" x="221.315526" xlink:href="#m13423ba4a8" y="108.704152"/>
     <use style="fill:#d95f02;fill-opacity:0.8;stroke:#d95f02;stroke-opacity:0.8;" x="259.55047" xlink:href="#m13423ba4a8" y="95.544072"/>
     <use style="fill:#d95f02;fill-opacity:0.8;stroke:#d95f02;stroke-opacity:0.8;" x="270.47474" xlink:href="#m13423ba4a8" y="75.395536"/>
     <use style="fill:#d95f02;fill-opacity:0.8;stroke:#d95f02;stroke-opacity:0.8;" x="282.764544" xlink:href="#m13423ba4a8" y="60.420272"/>
     <use style="fill:#d95f02;fill-opacity:0.8;stroke:#d95f02;stroke-opacity:0.8;" x="269.109206" xlink:href="#m13423ba4a8" y="74.306425"/>
     <use style="fill:#d95f02;fill-opacity:0.8;stroke:#d95f02;stroke-opacity:0.8;" x="274.571341" xlink:href="#m13423ba4a8" y="74.215666"/>
     <use style="fill:#d95f02;fill-opacity:0.8;stroke:#d95f02;stroke-opacity:0.8;" x="301.882016" xlink:href="#m13423ba4a8" y="62.689251"/>
     <use style="fill:#d95f02;fill-opacity:0.8;stroke:#d95f02;stroke-opacity:0.8;" x="325.096089" xlink:href="#m13423ba4a8" y="68.860875"/>
     <use style="fill:#d95f02;fill-opacity:0.8;stroke:#d95f02;stroke-opacity:0.8;" x="310.075218" xlink:href="#m13423ba4a8" y="71.492891"/>
     <use style="fill:#d95f02;fill-opacity:0.8;stroke:#d95f02;stroke-opacity:0.8;" x="286.861145" xlink:href="#m13423ba4a8" y="64.776712"/>
     <use style="fill:#d95f02;fill-opacity:0.8;stroke:#d95f02;stroke-opacity:0.8;" x="259.55047" xlink:href="#m13423ba4a8" y="70.403781"/>
     <use style="fill:#d95f02;fill-opacity:0.8;stroke:#d95f02;stroke-opacity:0.8;" x="236.336397" xlink:href="#m13423ba4a8" y="86.468155"/>
     <use style="fill:#d95f02;fill-opacity:0.8;stroke:#d95f02;stroke-opacity:0.8;" x="240.432998" xlink:href="#m13423ba4a8" y="91.550669"/>
     <use style="fill:#d95f02;fill-opacity:0.8;stroke:#d95f02;stroke-opacity:0.8;" x="232.239796" xlink:href="#m13423ba4a8" y="78.844384"/>
     <use style="fill:#d95f02;fill-opacity:0.8;stroke:#d95f02;stroke-opacity:0.8;" x="222.68106" xlink:href="#m13423ba4a8" y="89.735485"/>
     <use style="fill:#d95f02;fill-opacity:0.8;stroke:#d95f02;stroke-opacity:0.8;" x="217.218925" xlink:href="#m13423ba4a8" y="82.837788"/>
     <use style="fill:#d95f02;fill-opacity:0.8;stroke:#d95f02;stroke-opacity:0.8;" x="222.68106" xlink:href="#m13423ba4a8" y="78.299829"/>
     <use style="fill:#d95f02;fill-opacity:0.8;stroke:#d95f02;stroke-opacity:0.8;" x="217.218925" xlink:href="#m13423ba4a8" y="94.091925"/>
     <use style="fill:#d95f02;fill-opacity:0.8;stroke:#d95f02;stroke-opacity:0.8;" x="217.218925" xlink:href="#m13423ba4a8" y="108.250357"/>
     <use style="fill:#d95f02;fill-opacity:0.8;stroke:#d95f02;stroke-opacity:0.8;" x="217.218925" xlink:href="#m13423ba4a8" y="106.162896"/>
     <use style="fill:#d95f02;fill-opacity:0.8;stroke:#d95f02;stroke-opacity:0.8;" x="218.584459" xlink:href="#m13423ba4a8" y="101.352659"/>
     <use style="fill:#d95f02;fill-opacity:0.8;stroke:#d95f02;stroke-opacity:0.8;" x="260.916004" xlink:href="#m13423ba4a8" y="97.450015"/>
     <use style="fill:#d95f02;fill-opacity:0.8;stroke:#d95f02;stroke-opacity:0.8;" x="249.991734" xlink:href="#m13423ba4a8" y="76.03085"/>
     <use style="fill:#d95f02;fill-opacity:0.8;stroke:#d95f02;stroke-opacity:0.8;" x="278.667942" xlink:href="#m13423ba4a8" y="67.590247"/>
     <use style="fill:#d95f02;fill-opacity:0.8;stroke:#d95f02;stroke-opacity:0.8;" x="254.088336" xlink:href="#m13423ba4a8" y="74.397185"/>
     <use style="fill:#d95f02;fill-opacity:0.8;stroke:#d95f02;stroke-opacity:0.8;" x="274.571341" xlink:href="#m13423ba4a8" y="76.484646"/>
     <use style="fill:#d95f02;fill-opacity:0.8;stroke:#d95f02;stroke-opacity:0.8;" x="247.260667" xlink:href="#m13423ba4a8" y="69.042393"/>
     <use style="fill:#d95f02;fill-opacity:0.8;stroke:#d95f02;stroke-opacity:0.8;" x="243.164066" xlink:href="#m13423ba4a8" y="64.413675"/>
     <use style="fill:#d95f02;fill-opacity:0.8;stroke:#d95f02;stroke-opacity:0.8;" x="239.067465" xlink:href="#m13423ba4a8" y="71.220614"/>
     <use style="fill:#d95f02;fill-opacity:0.8;stroke:#d95f02;stroke-opacity:0.8;" x="260.916004" xlink:href="#m13423ba4a8" y="68.044042"/>
     <use style="fill:#d95f02;fill-opacity:0.8;stroke:#d95f02;stroke-opacity:0.8;" x="259.55047" xlink:href="#m13423ba4a8" y="64.776712"/>
     <use style="fill:#d95f02;fill-opacity:0.8;stroke:#d95f02;stroke-opacity:0.8;" x="269.109206" xlink:href="#m13423ba4a8" y="59.966476"/>
     <use style="fill:#d95f02;fill-opacity:0.8;stroke:#d95f02;stroke-opacity:0.8;" x="260.916004" xlink:href="#m13423ba4a8" y="64.504435"/>
     <use style="fill:#d95f02;fill-opacity:0.8;stroke:#d95f02;stroke-opacity:0.8;" x="258.184937" xlink:href="#m13423ba4a8" y="72.309724"/>
     <use style="fill:#d95f02;fill-opacity:0.8;stroke:#d95f02;stroke-opacity:0.8;" x="243.164066" xlink:href="#m13423ba4a8" y="81.204123"/>
     <use style="fill:#d95f02;fill-opacity:0.8;stroke:#d95f02;stroke-opacity:0.8;" x="240.432998" xlink:href="#m13423ba4a8" y="88.192579"/>
     <use style="fill:#d95f02;fill-opacity:0.8;stroke:#d95f02;stroke-opacity:0.8;" x="237.701931" xlink:href="#m13423ba4a8" y="84.743731"/>
     <use style="fill:#d95f02;fill-opacity:0.8;stroke:#d95f02;stroke-opacity:0.8;" x="226.777661" xlink:href="#m13423ba4a8" y="81.294882"/>
     <use style="fill:#d95f02;fill-opacity:0.8;stroke:#d95f02;stroke-opacity:0.8;" x="221.315526" xlink:href="#m13423ba4a8" y="84.652971"/>
     <use style="fill:#d95f02;fill-opacity:0.8;stroke:#d95f02;stroke-opacity:0.8;" x="217.218925" xlink:href="#m13423ba4a8" y="92.276742"/>
     <use style="fill:#d95f02;fill-opacity:0.8;stroke:#d95f02;stroke-opacity:0.8;" x="219.949993" xlink:href="#m13423ba4a8" y="81.204123"/>
     <use style="fill:#d95f02;fill-opacity:0.8;stroke:#d95f02;stroke-opacity:0.8;" x="217.218925" xlink:href="#m13423ba4a8" y="93.910407"/>
     <use style="fill:#d95f02;fill-opacity:0.8;stroke:#d95f02;stroke-opacity:0.8;" x="217.218925" xlink:href="#m13423ba4a8" y="105.436822"/>
     <use style="fill:#d95f02;fill-opacity:0.8;stroke:#d95f02;stroke-opacity:0.8;" x="217.218925" xlink:href="#m13423ba4a8" y="105.981377"/>
     <use style="fill:#d95f02;fill-opacity:0.8;stroke:#d95f02;stroke-opacity:0.8;" x="218.584459" xlink:href="#m13423ba4a8" y="96.360905"/>
     <use style="fill:#d95f02;fill-opacity:0.8;stroke:#d95f02;stroke-opacity:0.8;" x="254.088336" xlink:href="#m13423ba4a8" y="90.915354"/>
     <use style="fill:#d95f02;fill-opacity:0.8;stroke:#d95f02;stroke-opacity:0.8;" x="252.722802" xlink:href="#m13423ba4a8" y="75.304776"/>
     <use style="fill:#d95f02;fill-opacity:0.8;stroke:#d95f02;stroke-opacity:0.8;" x="265.012605" xlink:href="#m13423ba4a8" y="68.951634"/>
     <use style="fill:#d95f02;fill-opacity:0.8;stroke:#d95f02;stroke-opacity:0.8;" x="256.819403" xlink:href="#m13423ba4a8" y="76.303127"/>
     <use style="fill:#d95f02;fill-opacity:0.8;stroke:#d95f02;stroke-opacity:0.8;" x="266.378139" xlink:href="#m13423ba4a8" y="72.854279"/>
     <use style="fill:#d95f02;fill-opacity:0.8;stroke:#d95f02;stroke-opacity:0.8;" x="267.743673" xlink:href="#m13423ba4a8" y="69.768467"/>
     <use style="fill:#d95f02;fill-opacity:0.8;stroke:#d95f02;stroke-opacity:0.8;" x="258.184937" xlink:href="#m13423ba4a8" y="71.311373"/>
     <use style="fill:#d95f02;fill-opacity:0.8;stroke:#d95f02;stroke-opacity:0.8;" x="278.667942" xlink:href="#m13423ba4a8" y="66.773414"/>
     <use style="fill:#d95f02;fill-opacity:0.8;stroke:#d95f02;stroke-opacity:0.8;" x="301.882016" xlink:href="#m13423ba4a8" y="65.139749"/>
     <use style="fill:#d95f02;fill-opacity:0.8;stroke:#d95f02;stroke-opacity:0.8;" x="308.709684" xlink:href="#m13423ba4a8" y="60.692549"/>
     <use style="fill:#d95f02;fill-opacity:0.8;stroke:#d95f02;stroke-opacity:0.8;" x="303.247549" xlink:href="#m13423ba4a8" y="66.1381"/>
     <use style="fill:#d95f02;fill-opacity:0.8;stroke:#d95f02;stroke-opacity:0.8;" x="270.47474" xlink:href="#m13423ba4a8" y="72.76352"/>
     <use style="fill:#d95f02;fill-opacity:0.8;stroke:#d95f02;stroke-opacity:0.8;" x="259.55047" xlink:href="#m13423ba4a8" y="70.040744"/>
     <use style="fill:#d95f02;fill-opacity:0.8;stroke:#d95f02;stroke-opacity:0.8;" x="258.184937" xlink:href="#m13423ba4a8" y="76.484646"/>
     <use style="fill:#d95f02;fill-opacity:0.8;stroke:#d95f02;stroke-opacity:0.8;" x="232.239796" xlink:href="#m13423ba4a8" y="74.215666"/>
     <use style="fill:#d95f02;fill-opacity:0.8;stroke:#d95f02;stroke-opacity:0.8;" x="243.164066" xlink:href="#m13423ba4a8" y="77.573756"/>
     <use style="fill:#d95f02;fill-opacity:0.8;stroke:#d95f02;stroke-opacity:0.8;" x="230.874262" xlink:href="#m13423ba4a8" y="77.301478"/>
     <use style="fill:#d95f02;fill-opacity:0.8;stroke:#d95f02;stroke-opacity:0.8;" x="224.046594" xlink:href="#m13423ba4a8" y="90.28004"/>
     <use style="fill:#d95f02;fill-opacity:0.8;stroke:#d95f02;stroke-opacity:0.8;" x="217.218925" xlink:href="#m13423ba4a8" y="98.539125"/>
     <use style="fill:#d95f02;fill-opacity:0.8;stroke:#d95f02;stroke-opacity:0.8;" x="218.584459" xlink:href="#m13423ba4a8" y="95.181036"/>
     <use style="fill:#d95f02;fill-opacity:0.8;stroke:#d95f02;stroke-opacity:0.8;" x="217.218925" xlink:href="#m13423ba4a8" y="100.898864"/>
     <use style="fill:#d95f02;fill-opacity:0.8;stroke:#d95f02;stroke-opacity:0.8;" x="217.218925" xlink:href="#m13423ba4a8" y="103.893916"/>
     <use style="fill:#d95f02;fill-opacity:0.8;stroke:#d95f02;stroke-opacity:0.8;" x="219.949993" xlink:href="#m13423ba4a8" y="103.53088"/>
     <use style="fill:#d95f02;fill-opacity:0.8;stroke:#d95f02;stroke-opacity:0.8;" x="219.949993" xlink:href="#m13423ba4a8" y="102.986325"/>
     <use style="fill:#d95f02;fill-opacity:0.8;stroke:#d95f02;stroke-opacity:0.8;" x="258.184937" xlink:href="#m13423ba4a8" y="101.2619"/>
     <use style="fill:#d95f02;fill-opacity:0.8;stroke:#d95f02;stroke-opacity:0.8;" x="254.088336" xlink:href="#m13423ba4a8" y="81.204123"/>
     <use style="fill:#d95f02;fill-opacity:0.8;stroke:#d95f02;stroke-opacity:0.8;" x="265.012605" xlink:href="#m13423ba4a8" y="65.502786"/>
     <use style="fill:#d95f02;fill-opacity:0.8;stroke:#d95f02;stroke-opacity:0.8;" x="265.012605" xlink:href="#m13423ba4a8" y="65.139749"/>
     <use style="fill:#d95f02;fill-opacity:0.8;stroke:#d95f02;stroke-opacity:0.8;" x="273.205808" xlink:href="#m13423ba4a8" y="70.131503"/>
     <use style="fill:#d95f02;fill-opacity:0.8;stroke:#d95f02;stroke-opacity:0.8;" x="281.39901" xlink:href="#m13423ba4a8" y="65.139749"/>
     <use style="fill:#d95f02;fill-opacity:0.8;stroke:#d95f02;stroke-opacity:0.8;" x="319.633954" xlink:href="#m13423ba4a8" y="63.052288"/>
     <use style="fill:#d95f02;fill-opacity:0.8;stroke:#d95f02;stroke-opacity:0.8;" x="305.978617" xlink:href="#m13423ba4a8" y="61.600141"/>
     <use style="fill:#d95f02;fill-opacity:0.8;stroke:#d95f02;stroke-opacity:0.8;" x="334.654825" xlink:href="#m13423ba4a8" y="59.603439"/>
     <use style="fill:#d95f02;fill-opacity:0.8;stroke:#d95f02;stroke-opacity:0.8;" x="277.302409" xlink:href="#m13423ba4a8" y="63.233806"/>
     <use style="fill:#d95f02;fill-opacity:0.8;stroke:#d95f02;stroke-opacity:0.8;" x="254.088336" xlink:href="#m13423ba4a8" y="68.31632"/>
     <use style="fill:#d95f02;fill-opacity:0.8;stroke:#d95f02;stroke-opacity:0.8;" x="245.895133" xlink:href="#m13423ba4a8" y="55.610036"/>
     <use style="fill:#d95f02;fill-opacity:0.8;stroke:#d95f02;stroke-opacity:0.8;" x="241.798532" xlink:href="#m13423ba4a8" y="74.760221"/>
     <use style="fill:#d95f02;fill-opacity:0.8;stroke:#d95f02;stroke-opacity:0.8;" x="228.143195" xlink:href="#m13423ba4a8" y="65.956581"/>
     <use style="fill:#d95f02;fill-opacity:0.8;stroke:#d95f02;stroke-opacity:0.8;" x="219.949993" xlink:href="#m13423ba4a8" y="84.380694"/>
     <use style="fill:#d95f02;fill-opacity:0.8;stroke:#d95f02;stroke-opacity:0.8;" x="217.218925" xlink:href="#m13423ba4a8" y="93.456611"/>
     <use style="fill:#d95f02;fill-opacity:0.8;stroke:#d95f02;stroke-opacity:0.8;" x="218.584459" xlink:href="#m13423ba4a8" y="95.997868"/>
     <use style="fill:#d95f02;fill-opacity:0.8;stroke:#d95f02;stroke-opacity:0.8;" x="217.218925" xlink:href="#m13423ba4a8" y="96.179386"/>
     <use style="fill:#d95f02;fill-opacity:0.8;stroke:#d95f02;stroke-opacity:0.8;" x="217.218925" xlink:href="#m13423ba4a8" y="98.085329"/>
     <use style="fill:#d95f02;fill-opacity:0.8;stroke:#d95f02;stroke-opacity:0.8;" x="219.949993" xlink:href="#m13423ba4a8" y="98.266847"/>
     <use style="fill:#d95f02;fill-opacity:0.8;stroke:#d95f02;stroke-opacity:0.8;" x="217.218925" xlink:href="#m13423ba4a8" y="104.892267"/>
     <use style="fill:#d95f02;fill-opacity:0.8;stroke:#d95f02;stroke-opacity:0.8;" x="234.970863" xlink:href="#m13423ba4a8" y="105.073786"/>
     <use style="fill:#d95f02;fill-opacity:0.8;stroke:#d95f02;stroke-opacity:0.8;" x="224.046594" xlink:href="#m13423ba4a8" y="111.789964"/>
     <use style="fill:#d95f02;fill-opacity:0.8;stroke:#d95f02;stroke-opacity:0.8;" x="234.970863" xlink:href="#m13423ba4a8" y="103.44012"/>
     <use style="fill:#d95f02;fill-opacity:0.8;stroke:#d95f02;stroke-opacity:0.8;" x="234.970863" xlink:href="#m13423ba4a8" y="96.270146"/>
     <use style="fill:#d95f02;fill-opacity:0.8;stroke:#d95f02;stroke-opacity:0.8;" x="243.164066" xlink:href="#m13423ba4a8" y="86.921951"/>
     <use style="fill:#d95f02;fill-opacity:0.8;stroke:#d95f02;stroke-opacity:0.8;" x="256.819403" xlink:href="#m13423ba4a8" y="67.499487"/>
     <use style="fill:#d95f02;fill-opacity:0.8;stroke:#d95f02;stroke-opacity:0.8;" x="277.302409" xlink:href="#m13423ba4a8" y="58.877366"/>
     <use style="fill:#d95f02;fill-opacity:0.8;stroke:#d95f02;stroke-opacity:0.8;" x="299.150948" xlink:href="#m13423ba4a8" y="57.062182"/>
     <use style="fill:#d95f02;fill-opacity:0.8;stroke:#d95f02;stroke-opacity:0.8;" x="329.19269" xlink:href="#m13423ba4a8" y="66.682655"/>
     <use style="fill:#d95f02;fill-opacity:0.8;stroke:#d95f02;stroke-opacity:0.8;" x="305.978617" xlink:href="#m13423ba4a8" y="76.03085"/>
     <use style="fill:#d95f02;fill-opacity:0.8;stroke:#d95f02;stroke-opacity:0.8;" x="266.378139" xlink:href="#m13423ba4a8" y="76.212368"/>
     <use style="fill:#d95f02;fill-opacity:0.8;stroke:#d95f02;stroke-opacity:0.8;" x="249.991734" xlink:href="#m13423ba4a8" y="79.29818"/>
     <use style="fill:#d95f02;fill-opacity:0.8;stroke:#d95f02;stroke-opacity:0.8;" x="245.895133" xlink:href="#m13423ba4a8" y="79.29818"/>
     <use style="fill:#d95f02;fill-opacity:0.8;stroke:#d95f02;stroke-opacity:0.8;" x="240.432998" xlink:href="#m13423ba4a8" y="77.392237"/>
     <use style="fill:#d95f02;fill-opacity:0.8;stroke:#d95f02;stroke-opacity:0.8;" x="225.412127" xlink:href="#m13423ba4a8" y="85.016008"/>
     <use style="fill:#d95f02;fill-opacity:0.8;stroke:#d95f02;stroke-opacity:0.8;" x="222.68106" xlink:href="#m13423ba4a8" y="82.56551"/>
     <use style="fill:#d95f02;fill-opacity:0.8;stroke:#d95f02;stroke-opacity:0.8;" x="217.218925" xlink:href="#m13423ba4a8" y="94.545721"/>
     <use style="fill:#d95f02;fill-opacity:0.8;stroke:#d95f02;stroke-opacity:0.8;" x="218.584459" xlink:href="#m13423ba4a8" y="99.537476"/>
     <use style="fill:#d95f02;fill-opacity:0.8;stroke:#d95f02;stroke-opacity:0.8;" x="218.584459" xlink:href="#m13423ba4a8" y="100.626586"/>
     <use style="fill:#d95f02;fill-opacity:0.8;stroke:#d95f02;stroke-opacity:0.8;" x="217.218925" xlink:href="#m13423ba4a8" y="104.166194"/>
     <use style="fill:#d95f02;fill-opacity:0.8;stroke:#d95f02;stroke-opacity:0.8;" x="217.218925" xlink:href="#m13423ba4a8" y="99.08368"/>
     <use style="fill:#d95f02;fill-opacity:0.8;stroke:#d95f02;stroke-opacity:0.8;" x="219.949993" xlink:href="#m13423ba4a8" y="104.61999"/>
     <use style="fill:#d95f02;fill-opacity:0.8;stroke:#d95f02;stroke-opacity:0.8;" x="221.315526" xlink:href="#m13423ba4a8" y="107.252006"/>
     <use style="fill:#d95f02;fill-opacity:0.8;stroke:#d95f02;stroke-opacity:0.8;" x="225.412127" xlink:href="#m13423ba4a8" y="94.545721"/>
     <use style="fill:#d95f02;fill-opacity:0.8;stroke:#d95f02;stroke-opacity:0.8;" x="222.68106" xlink:href="#m13423ba4a8" y="98.539125"/>
     <use style="fill:#d95f02;fill-opacity:0.8;stroke:#d95f02;stroke-opacity:0.8;" x="230.874262" xlink:href="#m13423ba4a8" y="89.463208"/>
     <use style="fill:#d95f02;fill-opacity:0.8;stroke:#d95f02;stroke-opacity:0.8;" x="225.412127" xlink:href="#m13423ba4a8" y="88.737134"/>
     <use style="fill:#d95f02;fill-opacity:0.8;stroke:#d95f02;stroke-opacity:0.8;" x="236.336397" xlink:href="#m13423ba4a8" y="75.032499"/>
     <use style="fill:#d95f02;fill-opacity:0.8;stroke:#d95f02;stroke-opacity:0.8;" x="237.701931" xlink:href="#m13423ba4a8" y="56.699146"/>
     <use style="fill:#d95f02;fill-opacity:0.8;stroke:#d95f02;stroke-opacity:0.8;" x="248.626201" xlink:href="#m13423ba4a8" y="59.966476"/>
     <use style="fill:#d95f02;fill-opacity:0.8;stroke:#d95f02;stroke-opacity:0.8;" x="271.840274" xlink:href="#m13423ba4a8" y="65.04899"/>
     <use style="fill:#d95f02;fill-opacity:0.8;stroke:#d95f02;stroke-opacity:0.8;" x="312.806285" xlink:href="#m13423ba4a8" y="66.773414"/>
     <use style="fill:#d95f02;fill-opacity:0.8;stroke:#d95f02;stroke-opacity:0.8;" x="315.537353" xlink:href="#m13423ba4a8" y="78.027552"/>
     <use style="fill:#d95f02;fill-opacity:0.8;stroke:#d95f02;stroke-opacity:0.8;" x="305.978617" xlink:href="#m13423ba4a8" y="70.403781"/>
     <use style="fill:#d95f02;fill-opacity:0.8;stroke:#d95f02;stroke-opacity:0.8;" x="251.357268" xlink:href="#m13423ba4a8" y="68.31632"/>
     <use style="fill:#d95f02;fill-opacity:0.8;stroke:#d95f02;stroke-opacity:0.8;" x="230.874262" xlink:href="#m13423ba4a8" y="64.322916"/>
     <use style="fill:#d95f02;fill-opacity:0.8;stroke:#d95f02;stroke-opacity:0.8;" x="232.239796" xlink:href="#m13423ba4a8" y="68.770116"/>
     <use style="fill:#d95f02;fill-opacity:0.8;stroke:#d95f02;stroke-opacity:0.8;" x="230.874262" xlink:href="#m13423ba4a8" y="74.124907"/>
     <use style="fill:#d95f02;fill-opacity:0.8;stroke:#d95f02;stroke-opacity:0.8;" x="221.315526" xlink:href="#m13423ba4a8" y="88.464857"/>
     <use style="fill:#d95f02;fill-opacity:0.8;stroke:#d95f02;stroke-opacity:0.8;" x="218.584459" xlink:href="#m13423ba4a8" y="81.385641"/>
     <use style="fill:#d95f02;fill-opacity:0.8;stroke:#d95f02;stroke-opacity:0.8;" x="217.218925" xlink:href="#m13423ba4a8" y="73.943389"/>
    </g>
   </g>
   <g id="PolyCollection_2">
    <defs>
     <path d="M 211.32875 -92.640269 
L 211.32875 -87.554804 
L 212.633965 -88.019809 
L 213.939179 -88.473079 
L 215.244394 -88.927417 
L 216.549609 -89.387387 
L 217.854823 -89.84714 
L 219.160038 -90.301747 
L 220.465253 -90.767021 
L 221.770467 -91.21925 
L 223.075682 -91.686585 
L 224.380896 -92.126776 
L 225.686111 -92.590111 
L 226.991326 -93.0611 
L 228.29654 -93.533978 
L 229.601755 -94.01182 
L 230.90697 -94.446242 
L 232.212184 -94.906399 
L 233.517399 -95.366242 
L 234.822614 -95.814212 
L 236.127828 -96.253452 
L 237.433043 -96.701184 
L 238.738258 -97.155697 
L 240.043472 -97.589842 
L 241.348687 -98.04841 
L 242.653902 -98.487672 
L 243.959116 -98.934395 
L 245.264331 -99.365239 
L 246.569545 -99.803627 
L 247.87476 -100.229505 
L 249.179975 -100.616125 
L 250.485189 -101.055547 
L 251.790404 -101.511014 
L 253.095619 -101.896946 
L 254.400833 -102.302862 
L 255.706048 -102.713139 
L 257.011263 -103.136988 
L 258.316477 -103.57833 
L 259.621692 -103.993618 
L 260.926907 -104.400576 
L 262.232121 -104.816426 
L 263.537336 -105.229863 
L 264.842551 -105.643742 
L 266.147765 -106.064844 
L 267.45298 -106.486368 
L 268.758194 -106.906335 
L 270.063409 -107.327073 
L 271.368624 -107.746131 
L 272.673838 -108.165705 
L 273.979053 -108.585279 
L 275.284268 -108.990411 
L 276.589482 -109.372249 
L 277.894697 -109.78144 
L 279.199912 -110.156823 
L 280.505126 -110.557234 
L 281.810341 -110.961446 
L 283.115556 -111.370964 
L 284.42077 -111.781141 
L 285.725985 -112.190323 
L 287.031199 -112.580479 
L 288.336414 -112.983109 
L 289.641629 -113.378854 
L 290.946843 -113.770592 
L 292.252058 -114.161207 
L 293.557273 -114.55105 
L 294.862487 -114.941238 
L 296.167702 -115.32569 
L 297.472917 -115.720098 
L 298.778131 -116.097149 
L 300.083346 -116.470527 
L 301.388561 -116.871447 
L 302.693775 -117.258697 
L 303.99899 -117.623842 
L 305.304205 -117.997273 
L 306.609419 -118.382477 
L 307.914634 -118.768502 
L 309.219848 -119.154588 
L 310.525063 -119.538961 
L 311.830278 -119.911529 
L 313.135492 -120.261151 
L 314.440707 -120.629209 
L 315.745922 -121.003738 
L 317.051136 -121.36794 
L 318.356351 -121.74316 
L 319.661566 -122.138504 
L 320.96678 -122.519907 
L 322.271995 -122.888977 
L 323.57721 -123.254203 
L 324.882424 -123.629889 
L 326.187639 -124.011251 
L 327.492854 -124.392849 
L 328.798068 -124.774083 
L 330.103283 -125.155317 
L 331.408497 -125.536551 
L 332.713712 -125.917785 
L 334.018927 -126.299018 
L 335.324141 -126.678079 
L 336.629356 -127.046547 
L 337.934571 -127.415016 
L 339.239785 -127.783545 
L 340.545 -128.141446 
L 340.545 -136.208822 
L 340.545 -136.208822 
L 339.239785 -135.731502 
L 337.934571 -135.254152 
L 336.629356 -134.776567 
L 335.324141 -134.298981 
L 334.018927 -133.821395 
L 332.713712 -133.343809 
L 331.408497 -132.871143 
L 330.103283 -132.396088 
L 328.798068 -131.911727 
L 327.492854 -131.434682 
L 326.187639 -130.957638 
L 324.882424 -130.480594 
L 323.57721 -130.00355 
L 322.271995 -129.526338 
L 320.96678 -129.048916 
L 319.661566 -128.571389 
L 318.356351 -128.093861 
L 317.051136 -127.616334 
L 315.745922 -127.138357 
L 314.440707 -126.653529 
L 313.135492 -126.176059 
L 311.830278 -125.701978 
L 310.525063 -125.242368 
L 309.219848 -124.773431 
L 307.914634 -124.293476 
L 306.609419 -123.812899 
L 305.304205 -123.337948 
L 303.99899 -122.881153 
L 302.693775 -122.394076 
L 301.388561 -121.892525 
L 300.083346 -121.409897 
L 298.778131 -120.934597 
L 297.472917 -120.463996 
L 296.167702 -119.993264 
L 294.862487 -119.516821 
L 293.557273 -119.048055 
L 292.252058 -118.587122 
L 290.946843 -118.110585 
L 289.641629 -117.644135 
L 288.336414 -117.169488 
L 287.031199 -116.722462 
L 285.725985 -116.241825 
L 284.42077 -115.758338 
L 283.115556 -115.288307 
L 281.810341 -114.8376 
L 280.505126 -114.425689 
L 279.199912 -114.013025 
L 277.894697 -113.564697 
L 276.589482 -113.086402 
L 275.284268 -112.639485 
L 273.979053 -112.215664 
L 272.673838 -111.746953 
L 271.368624 -111.27251 
L 270.063409 -110.776513 
L 268.758194 -110.28002 
L 267.45298 -109.861153 
L 266.147765 -109.403095 
L 264.842551 -108.990204 
L 263.537336 -108.502596 
L 262.232121 -108.066185 
L 260.926907 -107.624836 
L 259.621692 -107.227929 
L 258.316477 -106.80868 
L 257.011263 -106.380522 
L 255.706048 -105.955175 
L 254.400833 -105.53093 
L 253.095619 -105.143972 
L 251.790404 -104.7198 
L 250.485189 -104.287682 
L 249.179975 -103.866185 
L 247.87476 -103.450265 
L 246.569545 -103.029397 
L 245.264331 -102.614123 
L 243.959116 -102.205992 
L 242.653902 -101.798954 
L 241.348687 -101.431502 
L 240.043472 -101.019115 
L 238.738258 -100.64011 
L 237.433043 -100.261077 
L 236.127828 -99.882754 
L 234.822614 -99.503802 
L 233.517399 -99.124769 
L 232.212184 -98.742503 
L 230.90697 -98.362013 
L 229.601755 -97.934347 
L 228.29654 -97.545425 
L 226.991326 -97.170281 
L 225.686111 -96.797513 
L 224.380896 -96.404254 
L 223.075682 -96.025036 
L 221.770467 -95.64316 
L 220.465253 -95.273229 
L 219.160038 -94.897487 
L 217.854823 -94.543411 
L 216.549609 -94.177392 
L 215.244394 -93.77599 
L 213.939179 -93.393236 
L 212.633965 -93.025255 
L 211.32875 -92.640269 
z
" id="m989b11f1c4" style="stroke:#ffffff;stroke-opacity:0.15;"/>
    </defs>
    <g clip-path="url(#pe338500300)">
     <use style="fill:#d95f02;fill-opacity:0.15;stroke:#ffffff;stroke-opacity:0.15;" x="0" xlink:href="#m989b11f1c4" y="183.38875"/>
    </g>
   </g>
   <g id="line2d_2">
    <path clip-path="url(#pe338500300)" d="M 211.32875 93.440327 
L 212.633965 93.019069 
L 213.939179 92.59781 
L 215.244394 92.176551 
L 216.549609 91.755292 
L 217.854823 91.334033 
L 219.160038 90.912774 
L 220.465253 90.491515 
L 221.770467 90.070256 
L 223.075682 89.648998 
L 224.380896 89.227739 
L 225.686111 88.80648 
L 226.991326 88.385221 
L 228.29654 87.963962 
L 229.601755 87.542703 
L 230.90697 87.121444 
L 232.212184 86.700185 
L 233.517399 86.278927 
L 234.822614 85.857668 
L 236.127828 85.436409 
L 237.433043 85.01515 
L 238.738258 84.593891 
L 240.043472 84.172632 
L 241.348687 83.751373 
L 242.653902 83.330114 
L 243.959116 82.908856 
L 245.264331 82.487597 
L 246.569545 82.066338 
L 247.87476 81.645079 
L 249.179975 81.22382 
L 250.485189 80.802561 
L 251.790404 80.381302 
L 253.095619 79.960043 
L 254.400833 79.538785 
L 255.706048 79.117526 
L 257.011263 78.696267 
L 258.316477 78.275008 
L 259.621692 77.853749 
L 260.926907 77.43249 
L 262.232121 77.011231 
L 263.537336 76.589972 
L 264.842551 76.168714 
L 266.147765 75.747455 
L 267.45298 75.326196 
L 268.758194 74.904937 
L 270.063409 74.483678 
L 271.368624 74.062419 
L 272.673838 73.64116 
L 273.979053 73.219901 
L 275.284268 72.798643 
L 276.589482 72.377384 
L 277.894697 71.956125 
L 279.199912 71.534866 
L 280.505126 71.113607 
L 281.810341 70.692348 
L 283.115556 70.271089 
L 284.42077 69.84983 
L 285.725985 69.428572 
L 287.031199 69.007313 
L 288.336414 68.586054 
L 289.641629 68.164795 
L 290.946843 67.743536 
L 292.252058 67.322277 
L 293.557273 66.901018 
L 294.862487 66.479759 
L 296.167702 66.058501 
L 297.472917 65.637242 
L 298.778131 65.215983 
L 300.083346 64.794724 
L 301.388561 64.373465 
L 302.693775 63.952206 
L 303.99899 63.530947 
L 305.304205 63.109689 
L 306.609419 62.68843 
L 307.914634 62.267171 
L 309.219848 61.845912 
L 310.525063 61.424653 
L 311.830278 61.003394 
L 313.135492 60.582135 
L 314.440707 60.160876 
L 315.745922 59.739618 
L 317.051136 59.318359 
L 318.356351 58.8971 
L 319.661566 58.475841 
L 320.96678 58.054582 
L 322.271995 57.633323 
L 323.57721 57.212064 
L 324.882424 56.790805 
L 326.187639 56.369547 
L 327.492854 55.948288 
L 328.798068 55.527029 
L 330.103283 55.10577 
L 331.408497 54.684511 
L 332.713712 54.263252 
L 334.018927 53.841993 
L 335.324141 53.420734 
L 336.629356 52.999476 
L 337.934571 52.578217 
L 339.239785 52.156958 
L 340.545 51.735699 
" style="fill:none;stroke:#d95f02;stroke-linecap:round;stroke-width:2.25;"/>
   </g>
   <g id="patch_6">
    <path d="M 211.32875 143.24 
L 211.32875 24.16 
" style="fill:none;stroke:#262626;stroke-linecap:square;stroke-linejoin:miter;stroke-width:0.8;"/>
   </g>
   <g id="patch_7">
    <path d="M 211.32875 143.24 
L 340.545 143.24 
" style="fill:none;stroke:#262626;stroke-linecap:square;stroke-linejoin:miter;stroke-width:0.8;"/>
   </g>
   <g id="text_13">
    <!-- $r_P$ = 0.71, $r_S$ = 0.77 -->
    <g style="fill:#262626;" transform="translate(224.250375 36.068)scale(0.12 -0.12)">
     <use transform="translate(0 0.125)" xlink:href="#DejaVuSans-Oblique-114"/>
     <use transform="translate(41.113281 -16.28125)scale(0.7)" xlink:href="#DejaVuSans-Oblique-80"/>
     <use transform="translate(86.05957 0.125)" xlink:href="#ArialMT-32"/>
     <use transform="translate(113.842773 0.125)" xlink:href="#ArialMT-61"/>
     <use transform="translate(172.241211 0.125)" xlink:href="#ArialMT-32"/>
     <use transform="translate(200.024414 0.125)" xlink:href="#ArialMT-48"/>
     <use transform="translate(255.639648 0.125)" xlink:href="#ArialMT-46"/>
     <use transform="translate(283.422852 0.125)" xlink:href="#ArialMT-55"/>
     <use transform="translate(339.038086 0.125)" xlink:href="#ArialMT-49"/>
     <use transform="translate(394.65332 0.125)" xlink:href="#ArialMT-44"/>
     <use transform="translate(422.436523 0.125)" xlink:href="#ArialMT-32"/>
     <use transform="translate(450.219727 0.125)" xlink:href="#DejaVuSans-Oblique-114"/>
     <use transform="translate(491.333008 -16.28125)scale(0.7)" xlink:href="#DejaVuSans-Oblique-83"/>
     <use transform="translate(538.500977 0.125)" xlink:href="#ArialMT-32"/>
     <use transform="translate(566.28418 0.125)" xlink:href="#ArialMT-61"/>
     <use transform="translate(624.682617 0.125)" xlink:href="#ArialMT-32"/>
     <use transform="translate(652.46582 0.125)" xlink:href="#ArialMT-48"/>
     <use transform="translate(708.081055 0.125)" xlink:href="#ArialMT-46"/>
     <use transform="translate(735.864258 0.125)" xlink:href="#ArialMT-55"/>
     <use transform="translate(791.479492 0.125)" xlink:href="#ArialMT-55"/>
    </g>
   </g>
  </g>
  <g id="text_14">
   <!-- route ID: 1 -->
   <defs>
    <path d="M 6.5 0 
L 6.5 51.859375 
L 14.40625 51.859375 
L 14.40625 44 
Q 17.4375 49.515625 20 51.265625 
Q 22.5625 53.03125 25.640625 53.03125 
Q 30.078125 53.03125 34.671875 50.203125 
L 31.640625 42.046875 
Q 28.421875 43.953125 25.203125 43.953125 
Q 22.3125 43.953125 20.015625 42.21875 
Q 17.71875 40.484375 16.75 37.40625 
Q 15.28125 32.71875 15.28125 27.15625 
L 15.28125 0 
z
" id="ArialMT-114"/>
    <path d="M 3.328125 25.921875 
Q 3.328125 40.328125 11.328125 47.265625 
Q 18.015625 53.03125 27.640625 53.03125 
Q 38.328125 53.03125 45.109375 46.015625 
Q 51.90625 39.015625 51.90625 26.65625 
Q 51.90625 16.65625 48.90625 10.90625 
Q 45.90625 5.171875 40.15625 2 
Q 34.421875 -1.171875 27.640625 -1.171875 
Q 16.75 -1.171875 10.03125 5.8125 
Q 3.328125 12.796875 3.328125 25.921875 
z
M 12.359375 25.921875 
Q 12.359375 15.96875 16.703125 11.015625 
Q 21.046875 6.0625 27.640625 6.0625 
Q 34.1875 6.0625 38.53125 11.03125 
Q 42.875 16.015625 42.875 26.21875 
Q 42.875 35.84375 38.5 40.796875 
Q 34.125 45.75 27.640625 45.75 
Q 21.046875 45.75 16.703125 40.8125 
Q 12.359375 35.890625 12.359375 25.921875 
z
" id="ArialMT-111"/>
    <path d="M 40.578125 0 
L 40.578125 7.625 
Q 34.515625 -1.171875 24.125 -1.171875 
Q 19.53125 -1.171875 15.546875 0.578125 
Q 11.578125 2.34375 9.640625 5 
Q 7.71875 7.671875 6.9375 11.53125 
Q 6.390625 14.109375 6.390625 19.734375 
L 6.390625 51.859375 
L 15.1875 51.859375 
L 15.1875 23.09375 
Q 15.1875 16.21875 15.71875 13.8125 
Q 16.546875 10.359375 19.234375 8.375 
Q 21.921875 6.390625 25.875 6.390625 
Q 29.828125 6.390625 33.296875 8.421875 
Q 36.765625 10.453125 38.203125 13.9375 
Q 39.65625 17.4375 39.65625 24.078125 
L 39.65625 51.859375 
L 48.4375 51.859375 
L 48.4375 0 
z
" id="ArialMT-117"/>
    <path d="M 25.78125 7.859375 
L 27.046875 0.09375 
Q 23.34375 -0.6875 20.40625 -0.6875 
Q 15.625 -0.6875 12.984375 0.828125 
Q 10.359375 2.34375 9.28125 4.8125 
Q 8.203125 7.28125 8.203125 15.1875 
L 8.203125 45.015625 
L 1.765625 45.015625 
L 1.765625 51.859375 
L 8.203125 51.859375 
L 8.203125 64.703125 
L 16.9375 69.96875 
L 16.9375 51.859375 
L 25.78125 51.859375 
L 25.78125 45.015625 
L 16.9375 45.015625 
L 16.9375 14.703125 
Q 16.9375 10.9375 17.40625 9.859375 
Q 17.875 8.796875 18.921875 8.15625 
Q 19.96875 7.515625 21.921875 7.515625 
Q 23.390625 7.515625 25.78125 7.859375 
z
" id="ArialMT-116"/>
    <path d="M 9.328125 0 
L 9.328125 71.578125 
L 18.796875 71.578125 
L 18.796875 0 
z
" id="ArialMT-73"/>
    <path d="M 7.71875 0 
L 7.71875 71.578125 
L 32.375 71.578125 
Q 40.71875 71.578125 45.125 70.5625 
Q 51.265625 69.140625 55.609375 65.4375 
Q 61.28125 60.640625 64.078125 53.1875 
Q 66.890625 45.75 66.890625 36.1875 
Q 66.890625 28.03125 64.984375 21.734375 
Q 63.09375 15.4375 60.109375 11.296875 
Q 57.125 7.171875 53.578125 4.796875 
Q 50.046875 2.4375 45.046875 1.21875 
Q 40.046875 0 33.546875 0 
z
M 17.1875 8.453125 
L 32.46875 8.453125 
Q 39.546875 8.453125 43.578125 9.765625 
Q 47.609375 11.078125 50 13.484375 
Q 53.375 16.84375 55.25 22.53125 
Q 57.125 28.21875 57.125 36.328125 
Q 57.125 47.5625 53.4375 53.59375 
Q 49.75 59.625 44.484375 61.671875 
Q 40.671875 63.140625 32.234375 63.140625 
L 17.1875 63.140625 
z
" id="ArialMT-68"/>
    <path d="M 9.03125 41.84375 
L 9.03125 51.859375 
L 19.046875 51.859375 
L 19.046875 41.84375 
z
M 9.03125 0 
L 9.03125 10.015625 
L 19.046875 10.015625 
L 19.046875 0 
z
" id="ArialMT-58"/>
   </defs>
   <g style="fill:#262626;" transform="translate(148.203625 17.50725)scale(0.144 -0.144)">
    <use xlink:href="#ArialMT-114"/>
    <use x="33.300781" xlink:href="#ArialMT-111"/>
    <use x="88.916016" xlink:href="#ArialMT-117"/>
    <use x="144.53125" xlink:href="#ArialMT-116"/>
    <use x="172.314453" xlink:href="#ArialMT-101"/>
    <use x="227.929688" xlink:href="#ArialMT-32"/>
    <use x="255.712891" xlink:href="#ArialMT-73"/>
    <use x="283.496094" xlink:href="#ArialMT-68"/>
    <use x="355.712891" xlink:href="#ArialMT-58"/>
    <use x="383.496094" xlink:href="#ArialMT-32"/>
    <use x="411.279297" xlink:href="#ArialMT-49"/>
   </g>
  </g>
 </g>
 <defs>
  <clipPath id="pb8d0b9139a">
   <rect height="119.08" width="129.21625" x="52.5275" y="24.16"/>
  </clipPath>
  <clipPath id="pe338500300">
   <rect height="119.08" width="129.21625" x="211.32875" y="24.16"/>
  </clipPath>
 </defs>
</svg>
